<svg xmlns="http://www.w3.org/2000/svg" xmlns:xlink="http://www.w3.org/1999/xlink" id="Layer_1" x="0px" y="0px" viewBox="0 0 196.22 191.08" style="enable-background:new 0 0 196.22 191.08;" xml:space="preserve"><style type="text/css">	.st0{fill:#FFFFFF;}	.st1{fill:#326FB1;}	.st2{fill:#FEFEFE;}	.st3{fill:#FCFCFC;}	.st4{fill:#F7F7F7;}	.st5{fill:#FAFAFA;}	.st6{fill:#EBEBEB;}	.st7{fill:#161616;}	.st8{fill:#FBFBFB;}	.st9{fill:#EB8123;}	.st10{fill:#646969;}	.st11{fill-rule:evenodd;clip-rule:evenodd;fill:#FFFFFF;}	.st12{fill-rule:evenodd;clip-rule:evenodd;fill:#676868;}	.st13{fill-rule:evenodd;clip-rule:evenodd;fill:#EB8123;}</style><g>	<path class="st0" d="M137.09,173.72c0.85-1.35,1.7-2.71,2.55-4.06c9.1,0,18.2,0.09,27.3-0.02c16.76-0.19,21.81-5,21.91-21.44  c0.16-24.68,0.05-49.37,0.05-74.05c0-35.45,0-35.45-30.68-38.93c-5.46-7.45-8.51-16.41-13.9-18.16  c-25.86-8.4-52.06-19.57-79.6-4.94c-3.33,1.77-7.61,1.67-11.07,3.26c-4.54,2.09-8.71,5-13.04,7.56c2.7,3.95,5.4,7.9,8.89,13  c-9.26,0-18.22,0.02-27.19-0.01C11.24,35.91,4.67,41.21,4.58,52.43c-0.26,33.39-0.24,66.79-0.06,100.18  c0.06,11.11,6.25,16.85,17.34,17c10.57,0.14,21.14,0.03,31.71,0.03c0.85,1.32,1.7,2.64,2.55,3.96c-3.98,3.9-7.95,7.8-12.35,12.11  c35.49,0,70.37,0,105.57,0C144.69,181.16,140.89,177.44,137.09,173.72z"></path>	<path class="st1" d="M137.09,173.72c3.8,3.72,7.6,7.44,12.24,11.99c-35.21,0-70.09,0-105.57,0c4.4-4.32,8.38-8.21,12.35-12.11  c-0.85-1.32-1.7-2.64-2.55-3.96c-10.57,0-21.14,0.11-31.71-0.03c-11.09-0.14-17.28-5.89-17.34-17  c-0.17-33.39-0.2-66.79,0.06-100.18c0.09-11.21,6.66-16.51,17.73-16.48c8.96,0.03,17.92,0.01,27.19,0.01  c-3.48-5.09-6.19-9.05-8.89-13c4.33-2.56,8.49-5.47,13.04-7.56c3.46-1.59,7.75-1.5,11.07-3.26c27.54-14.63,53.74-3.45,79.6,4.94  c5.39,1.75,8.44,10.71,13.9,18.16c30.68,3.48,30.68,3.48,30.68,38.93c0,24.68,0.11,49.37-0.05,74.05  c-0.11,16.44-5.15,21.24-21.91,21.44c-9.1,0.11-18.2,0.02-27.3,0.02C138.79,171.01,137.94,172.36,137.09,173.72z M177.86,161.22  c2.07-4.23,4.14-8.45,6.94-14.16c-59.7,0-116.38,0-175.41,0c2.19,5.72,3.75,9.8,5.31,13.87c3.57,0.93,7.13,2.66,10.7,2.68  c47.21,0.18,94.43,0.18,141.64,0.01C170.64,163.61,174.25,162.06,177.86,161.22z M148.08,34.5c-1.4-0.25-2.8-0.49-4.19-0.74  c-2.41,5.81-3.22,14.74-7.48,16.92c-26.51,13.58-55.56,15.18-79.92-0.91c-11.6-7.66-21.1-6.54-31.94-7.79  c-9.96-1.15-14.06,3.94-13.91,13.69c0.24,15.51,0.05,31.02,0.04,46.53c0,12.31,0,24.61,0,36.8c58.81,0,114.78,0,172.15,0  c0-25.15,0-49.28,0-73.41c-0.01-24.24-3.76-27.12-30.07-21.41c2.43,15.38,4.87,30.85,7.59,48.07c-8.33-0.38-13.3-0.6-20.03-0.91  C143.06,71.21,145.57,52.85,148.08,34.5z M50.02,24.16c31.63,16.7,62.46,15.92,93.65-0.25C104.06,7.89,84.96,7.96,50.02,24.16z   M58.89,33.56c0.93,12.57,25.98,24.28,40.57,22.33c22.58-3.02,34.94-10.33,33.07-21.55C108.6,46.06,84.38,46.05,58.89,33.56z   M130.31,170.53c-22.81,0-45.66,0-68.6,0c1.26,12.71,3.09,12.94,59.5,10.8C128.45,181.06,134.07,180.53,130.31,170.53z"></path>	<path class="st2" d="M148.08,34.5c-2.51,18.35-5.02,36.71-7.77,56.84c6.73,0.3,11.71,0.53,20.03,0.91  c-2.72-17.22-5.16-32.69-7.59-48.07c26.31-5.71,30.06-2.83,30.07,21.41c0.01,24.13,0,48.27,0,73.41c-57.37,0-113.34,0-172.15,0  c0-12.18,0-24.49,0-36.8c0-15.51,0.2-31.03-0.04-46.53c-0.15-9.75,3.95-14.83,13.91-13.69c10.84,1.25,20.34,0.13,31.94,7.79  c24.37,16.09,53.41,14.49,79.92,0.91c4.26-2.18,5.08-11.11,7.48-16.92C145.28,34.01,146.68,34.25,148.08,34.5z M129.09,101.37  c0.07-18.16-15.35-33.52-33.21-33.08c-17.36,0.43-31.99,15.41-32.07,32.83c-0.08,17.96,15.6,33.58,33.27,33.13  C114.59,133.81,129.02,118.98,129.09,101.37z"></path>	<path class="st0" d="M14.69,160.93c-1.56-4.07-3.12-8.15-5.31-13.87c59.03,0,115.72,0,175.41,0c-2.8,5.71-4.87,9.94-6.94,14.16  c-21.46-0.96-42.93-1.92-64.39-2.88c-0.81-2.37-1.53-6.78-2.43-6.81c-10.08-0.4-20.2-0.28-30.28,0.23c-0.83,0.04-1.46,4-2.18,6.13  C57.27,158.91,35.98,159.92,14.69,160.93z"></path>	<path class="st3" d="M50.02,24.16c34.93-16.2,54.03-16.27,93.65-0.25C112.49,40.08,81.65,40.87,50.02,24.16z"></path>	<path class="st4" d="M58.89,33.56c25.49,12.49,49.71,12.5,73.64,0.77c1.87,11.23-10.49,18.54-33.07,21.55  C84.86,57.83,59.82,46.13,58.89,33.56z"></path>	<path class="st5" d="M130.31,170.53c3.76,10-1.87,10.53-9.1,10.8c-56.41,2.14-58.24,1.91-59.5-10.8  C84.65,170.53,107.5,170.53,130.31,170.53z"></path>	<path class="st6" d="M14.69,160.93c21.29-1.01,42.59-2.02,63.88-3.04c11.63,0.15,23.26,0.3,34.9,0.45  c21.46,0.96,42.93,1.92,64.39,2.88c-3.61,0.84-7.21,2.39-10.82,2.4c-47.21,0.16-94.43,0.17-141.64-0.01  C21.82,163.59,18.26,161.86,14.69,160.93z"></path>	<path class="st7" d="M129.09,101.37c-0.07,17.61-14.5,32.44-32.01,32.88c-17.67,0.45-33.35-15.17-33.27-33.13  c0.08-17.42,14.71-32.4,32.07-32.83C113.74,67.85,129.16,83.21,129.09,101.37z M96.68,127.91c14.49-0.13,26.32-12.51,26.04-27.24  c-0.27-14.05-11.86-25.8-25.76-26.11c-14.32-0.32-26.94,12.08-27.02,26.54C69.86,115.48,82.38,128.04,96.68,127.91z"></path>	<path class="st7" d="M113.46,158.34c-11.63-0.15-23.26-0.3-34.9-0.45c0.72-2.14,1.35-6.09,2.18-6.13  c10.08-0.51,20.2-0.63,30.28-0.23C111.93,151.57,112.66,155.97,113.46,158.34z"></path>	<path class="st8" d="M96.68,127.91c-14.29,0.13-26.82-12.43-26.73-26.81c0.08-14.46,12.7-26.86,27.02-26.54  c13.89,0.31,25.49,12.06,25.76,26.11C123,115.39,111.16,127.77,96.68,127.91z M88.45,84.24c0,12.57,0,22.26,0,33.92  c9.14-6.18,16.49-11.15,25.16-17C104.82,95.24,97.44,90.28,88.45,84.24z"></path>	<path class="st9" d="M88.45,84.24c8.98,6.04,16.36,11,25.16,16.91c-8.66,5.86-16.01,10.82-25.16,17  C88.45,106.5,88.45,96.81,88.45,84.24z"></path></g><g>	<g>		<g>			<path class="st10" d="M-382.14-160.31h3.79c0.4,0,0.8,0.05,1.18,0.16c0.38,0.1,0.72,0.28,1.01,0.53    c0.29,0.25,0.53,0.57,0.71,0.98c0.18,0.4,0.27,0.9,0.27,1.5c0,0.28-0.04,0.55-0.12,0.83c-0.08,0.28-0.2,0.53-0.35,0.76    c-0.15,0.23-0.34,0.43-0.57,0.61c-0.22,0.17-0.47,0.3-0.75,0.38v0.04c0.76,0.18,1.31,0.55,1.66,1.09    c0.35,0.54,0.52,1.19,0.52,1.95c0,1.26-0.34,2.16-1.03,2.71c-0.69,0.55-1.67,0.82-2.97,0.82h-3.35V-160.31z M-380.59-154.99h1.75    c0.16,0,0.36-0.02,0.6-0.05c0.23-0.04,0.47-0.12,0.69-0.26c0.22-0.14,0.41-0.35,0.57-0.62c0.16-0.28,0.23-0.65,0.23-1.12    c0-0.66-0.16-1.16-0.49-1.5s-0.87-0.52-1.63-0.52h-1.71V-154.99z M-380.59-149.22h2.07c0.4,0,0.74-0.06,1.02-0.19    c0.28-0.13,0.5-0.29,0.67-0.5c0.17-0.21,0.29-0.45,0.36-0.73c0.07-0.28,0.11-0.56,0.11-0.86c0-0.43-0.06-0.79-0.19-1.08    c-0.13-0.29-0.3-0.53-0.52-0.73c-0.22-0.19-0.48-0.33-0.77-0.41c-0.29-0.09-0.61-0.13-0.94-0.13h-1.82V-149.22z"></path>			<path class="st10" d="M-366.41-147.97h-1.38v-1.09h-0.03c-0.2,0.42-0.51,0.75-0.93,0.98c-0.43,0.23-0.86,0.35-1.31,0.35    c-0.61,0-1.08-0.1-1.41-0.3c-0.33-0.2-0.57-0.45-0.73-0.75s-0.25-0.62-0.27-0.96c-0.02-0.34-0.03-0.65-0.03-0.93v-6.57h1.45v6.4    c0,0.17,0.01,0.37,0.03,0.59c0.02,0.22,0.07,0.42,0.16,0.61c0.09,0.19,0.23,0.35,0.41,0.48c0.18,0.13,0.43,0.19,0.77,0.19    c0.2,0,0.4-0.04,0.61-0.11c0.21-0.07,0.41-0.18,0.6-0.33c0.19-0.15,0.33-0.34,0.45-0.58c0.11-0.23,0.17-0.52,0.17-0.86v-6.4h1.45    V-147.97z"></path>			<path class="st10" d="M-363.72-160.31h1.45v1.66h-1.45V-160.31z M-363.72-157.24h1.45v9.27h-1.45V-157.24z"></path>			<path class="st10" d="M-359.48-160.31h1.45v12.34h-1.45V-160.31z"></path>			<path class="st10" d="M-349.23-147.97h-1.38v-1.14h-0.03c-0.05,0.17-0.13,0.34-0.25,0.51s-0.27,0.31-0.45,0.44    c-0.18,0.13-0.38,0.23-0.6,0.31c-0.22,0.08-0.46,0.12-0.71,0.12c-0.55,0-1.02-0.12-1.4-0.35c-0.38-0.23-0.69-0.57-0.93-0.99    c-0.24-0.43-0.42-0.94-0.53-1.54c-0.11-0.6-0.16-1.26-0.16-1.99c0-0.49,0.03-1.01,0.09-1.58c0.06-0.57,0.19-1.1,0.39-1.58    c0.2-0.48,0.5-0.89,0.88-1.22c0.38-0.33,0.91-0.49,1.56-0.49c0.41,0,0.82,0.11,1.21,0.35c0.39,0.23,0.67,0.55,0.83,0.95h0.04    v-4.13h1.45V-147.97z M-354.12-152.6c0,0.55,0.03,1.05,0.08,1.5c0.05,0.45,0.14,0.83,0.26,1.14c0.13,0.31,0.3,0.55,0.51,0.73    c0.22,0.17,0.49,0.26,0.82,0.26c0.39,0,0.7-0.09,0.95-0.27c0.25-0.18,0.43-0.43,0.57-0.75c0.13-0.32,0.22-0.7,0.26-1.15    c0.05-0.44,0.07-0.93,0.07-1.46c0-0.45-0.02-0.89-0.07-1.32c-0.05-0.43-0.14-0.82-0.27-1.17c-0.14-0.35-0.32-0.62-0.56-0.83    c-0.24-0.21-0.55-0.31-0.94-0.31c-0.33,0-0.61,0.09-0.82,0.26c-0.22,0.17-0.39,0.41-0.51,0.72c-0.13,0.31-0.21,0.69-0.26,1.14    C-354.1-153.66-354.12-153.16-354.12-152.6z"></path>			<path class="st10" d="M-346.53-160.31h1.45v1.66h-1.45V-160.31z M-346.53-157.24h1.45v9.27h-1.45V-157.24z"></path>			<path class="st10" d="M-342.39-157.24h1.38v1.09h0.03c0.2-0.43,0.51-0.76,0.93-0.99c0.43-0.23,0.86-0.35,1.31-0.35    c0.61,0,1.08,0.1,1.41,0.3c0.33,0.2,0.57,0.45,0.73,0.75s0.24,0.62,0.27,0.96c0.02,0.34,0.03,0.65,0.03,0.93v6.57h-1.45v-6.4    c0-0.17-0.01-0.37-0.03-0.59c-0.02-0.22-0.07-0.42-0.16-0.61c-0.09-0.19-0.23-0.35-0.41-0.48c-0.19-0.13-0.44-0.19-0.76-0.19    c-0.2,0-0.4,0.03-0.61,0.1c-0.21,0.07-0.41,0.18-0.6,0.33c-0.19,0.15-0.33,0.34-0.45,0.58c-0.11,0.23-0.17,0.52-0.17,0.86v6.4    h-1.45V-157.24z"></path>			<path class="st10" d="M-327.57-148.56c0,0.69-0.08,1.28-0.23,1.76c-0.16,0.48-0.37,0.87-0.65,1.17c-0.28,0.3-0.61,0.52-0.99,0.65    c-0.39,0.13-0.81,0.2-1.27,0.2c-0.14,0-0.37-0.01-0.68-0.03c-0.32-0.02-0.64-0.11-0.97-0.25c-0.33-0.15-0.63-0.38-0.9-0.69    c-0.27-0.32-0.44-0.76-0.49-1.34h1.45c0.04,0.43,0.2,0.73,0.48,0.91c0.29,0.18,0.62,0.27,1,0.27c0.46,0,0.81-0.08,1.06-0.23    c0.25-0.16,0.43-0.34,0.54-0.56c0.11-0.22,0.17-0.45,0.18-0.68c0.01-0.24,0.02-0.43,0.02-0.6v-1.21h-0.04    c-0.16,0.39-0.43,0.7-0.82,0.92c-0.39,0.22-0.81,0.33-1.27,0.33c-0.45,0-0.83-0.09-1.15-0.26c-0.32-0.17-0.58-0.4-0.79-0.68    c-0.21-0.28-0.38-0.58-0.5-0.92c-0.12-0.34-0.21-0.68-0.28-1.03c-0.06-0.35-0.1-0.67-0.12-0.98c-0.02-0.31-0.03-0.56-0.03-0.77    c0-0.62,0.05-1.23,0.14-1.82c0.09-0.59,0.26-1.11,0.49-1.57c0.24-0.45,0.55-0.82,0.93-1.09c0.39-0.27,0.87-0.41,1.46-0.41    c0.25,0,0.49,0.04,0.72,0.12c0.22,0.08,0.42,0.18,0.6,0.31c0.17,0.13,0.32,0.28,0.44,0.45c0.12,0.17,0.2,0.35,0.25,0.54h0.03    v-1.18h1.38V-148.56z M-330.79-156.23c-0.33,0-0.61,0.09-0.82,0.26c-0.22,0.17-0.39,0.41-0.51,0.72    c-0.13,0.31-0.21,0.69-0.26,1.14c-0.05,0.45-0.08,0.95-0.08,1.5c0,0.38,0.02,0.77,0.06,1.17c0.04,0.4,0.12,0.76,0.23,1.09    c0.11,0.33,0.28,0.6,0.5,0.81c0.22,0.21,0.51,0.32,0.87,0.32c0.39,0,0.7-0.09,0.95-0.26c0.24-0.17,0.44-0.41,0.57-0.72    c0.14-0.31,0.23-0.66,0.27-1.08c0.05-0.41,0.07-0.86,0.07-1.33c0-0.45-0.02-0.89-0.07-1.32c-0.05-0.43-0.14-0.82-0.27-1.17    c-0.14-0.35-0.32-0.62-0.56-0.83C-330.08-156.13-330.4-156.23-330.79-156.23z"></path>			<path class="st10" d="M-321.73-160.31h1.68l2.37,5.77l2.49-5.77h1.56l-3.27,7.5v4.84h-1.56v-4.84L-321.73-160.31z"></path>			<path class="st10" d="M-313.8-152.6c0-0.66,0.05-1.28,0.15-1.87c0.1-0.59,0.27-1.1,0.52-1.54c0.25-0.45,0.59-0.8,1.02-1.06    c0.43-0.26,0.98-0.4,1.65-0.4c0.67,0,1.22,0.13,1.65,0.4c0.43,0.26,0.77,0.62,1.02,1.06c0.25,0.44,0.42,0.96,0.52,1.54    c0.1,0.59,0.15,1.21,0.15,1.87c0,0.66-0.05,1.28-0.15,1.87c-0.1,0.59-0.27,1.1-0.53,1.55c-0.25,0.44-0.59,0.8-1.02,1.06    c-0.43,0.26-0.98,0.4-1.64,0.4c-0.67,0-1.22-0.13-1.65-0.4c-0.43-0.26-0.77-0.62-1.02-1.06c-0.25-0.45-0.42-0.96-0.52-1.55    C-313.75-151.32-313.8-151.95-313.8-152.6z M-310.49-148.87c0.37,0,0.68-0.1,0.92-0.3c0.24-0.2,0.42-0.47,0.56-0.81    c0.13-0.34,0.23-0.73,0.27-1.18c0.04-0.45,0.07-0.93,0.07-1.43c0-0.5-0.02-0.97-0.07-1.43c-0.05-0.46-0.13-0.85-0.26-1.19    c-0.13-0.34-0.31-0.61-0.55-0.81c-0.24-0.2-0.55-0.3-0.93-0.3c-0.36,0-0.66,0.1-0.88,0.3c-0.22,0.2-0.4,0.47-0.53,0.81    c-0.13,0.34-0.22,0.74-0.26,1.19c-0.04,0.45-0.07,0.93-0.07,1.43c0,0.51,0.02,0.98,0.07,1.43c0.05,0.45,0.13,0.84,0.26,1.18    c0.12,0.34,0.3,0.61,0.53,0.81C-311.15-148.97-310.85-148.87-310.49-148.87z"></path>			<path class="st10" d="M-298.86-147.97h-1.38v-1.09h-0.04c-0.19,0.42-0.51,0.75-0.93,0.98c-0.43,0.23-0.86,0.35-1.32,0.35    c-0.61,0-1.08-0.1-1.41-0.3c-0.33-0.2-0.57-0.45-0.73-0.75c-0.16-0.3-0.25-0.62-0.27-0.96c-0.02-0.34-0.04-0.65-0.04-0.93v-6.57    h1.45v6.4c0,0.17,0.01,0.37,0.03,0.59c0.02,0.22,0.07,0.42,0.16,0.61c0.09,0.19,0.23,0.35,0.41,0.48s0.43,0.19,0.77,0.19    c0.19,0,0.4-0.04,0.61-0.11c0.21-0.07,0.41-0.18,0.6-0.33c0.18-0.15,0.33-0.34,0.45-0.58c0.12-0.23,0.17-0.52,0.17-0.86v-6.4    h1.45V-147.97z"></path>			<path class="st10" d="M-296.25-157.24h1.45v1.38h0.04c0.1-0.22,0.22-0.42,0.33-0.62c0.12-0.2,0.26-0.37,0.42-0.52    c0.16-0.15,0.34-0.27,0.55-0.35c0.2-0.09,0.43-0.13,0.7-0.13c0.29,0,0.5,0.04,0.64,0.1v1.42c-0.07-0.01-0.16-0.03-0.27-0.04    c-0.11-0.02-0.28-0.03-0.51-0.03c-0.18,0-0.39,0.04-0.61,0.13s-0.42,0.22-0.61,0.4c-0.19,0.18-0.35,0.41-0.49,0.68    c-0.13,0.28-0.2,0.61-0.2,0.99v5.86h-1.45V-157.24z"></path>			<path class="st10" d="M-285.52-160.31h1.56v11h4.98v1.35h-6.54V-160.31z"></path>			<path class="st10" d="M-275.94-152.43c0,0.36,0.01,0.74,0.02,1.16c0.02,0.42,0.08,0.8,0.2,1.16c0.11,0.36,0.28,0.65,0.52,0.89    c0.23,0.23,0.57,0.35,1.01,0.35c0.34,0,0.61-0.08,0.81-0.23c0.21-0.16,0.36-0.35,0.47-0.57c0.11-0.22,0.18-0.46,0.21-0.71    c0.04-0.25,0.05-0.46,0.05-0.63h1.49c0,0.24-0.04,0.55-0.13,0.93c-0.09,0.37-0.24,0.74-0.48,1.09c-0.23,0.35-0.55,0.65-0.95,0.9    c-0.4,0.25-0.92,0.37-1.56,0.37c-1.14,0-1.96-0.39-2.46-1.17c-0.5-0.78-0.75-1.98-0.75-3.58c0-0.58,0.04-1.16,0.11-1.75    c0.07-0.59,0.23-1.13,0.46-1.61c0.24-0.48,0.57-0.87,1-1.18c0.43-0.31,1-0.46,1.72-0.46c0.7,0,1.26,0.14,1.68,0.41    c0.42,0.28,0.73,0.63,0.93,1.06c0.21,0.43,0.34,0.91,0.4,1.44c0.06,0.53,0.09,1.05,0.09,1.54v0.59H-275.94z M-272.66-153.57v-0.5    c0-0.25-0.02-0.52-0.07-0.79c-0.05-0.27-0.13-0.52-0.25-0.73c-0.12-0.22-0.28-0.4-0.48-0.53c-0.21-0.14-0.46-0.21-0.78-0.21    c-0.37,0-0.67,0.1-0.89,0.3c-0.22,0.2-0.39,0.43-0.5,0.7c-0.11,0.27-0.18,0.53-0.22,0.8s-0.05,0.48-0.05,0.61v0.35H-272.66z"></path>			<path class="st10" d="M-269.03-154.44c0-1.05,0.24-1.82,0.73-2.31c0.48-0.49,1.28-0.73,2.38-0.73c0.7,0,1.25,0.09,1.63,0.28    c0.38,0.18,0.66,0.42,0.84,0.69c0.18,0.28,0.28,0.57,0.31,0.87c0.03,0.31,0.04,0.58,0.04,0.82v5.17c0,0.2,0.02,0.37,0.05,0.52    c0.04,0.15,0.17,0.22,0.4,0.22c0.09,0,0.16-0.01,0.22-0.02c0.05-0.02,0.09-0.04,0.13-0.06v1.04c-0.06,0.01-0.17,0.03-0.33,0.05    c-0.16,0.02-0.33,0.04-0.52,0.04c-0.14,0-0.28-0.01-0.42-0.02c-0.14-0.01-0.28-0.06-0.41-0.13c-0.13-0.08-0.24-0.19-0.33-0.35    c-0.09-0.16-0.13-0.39-0.15-0.69h-0.04c-0.23,0.41-0.55,0.74-0.96,0.98c-0.41,0.24-0.83,0.35-1.27,0.35    c-0.86,0-1.5-0.24-1.91-0.72c-0.41-0.49-0.61-1.14-0.61-1.97c0-0.66,0.14-1.2,0.42-1.63c0.28-0.43,0.72-0.74,1.32-0.92l1.95-0.59    c0.27-0.08,0.47-0.16,0.62-0.25c0.14-0.09,0.25-0.18,0.31-0.28c0.06-0.11,0.1-0.22,0.11-0.36c0.01-0.14,0.02-0.31,0.02-0.5    c0-0.91-0.5-1.37-1.49-1.37c-0.4,0-0.71,0.08-0.92,0.24c-0.21,0.15-0.37,0.33-0.47,0.54c-0.1,0.21-0.15,0.41-0.17,0.61    c-0.02,0.2-0.02,0.34-0.02,0.42v0.09H-269.03z M-264.55-153.02c-0.14,0.14-0.31,0.25-0.52,0.35c-0.21,0.09-0.43,0.18-0.67,0.25    c-0.23,0.08-0.46,0.15-0.69,0.22c-0.22,0.08-0.41,0.16-0.57,0.27c-0.23,0.15-0.4,0.33-0.52,0.55c-0.12,0.21-0.18,0.52-0.18,0.92    c0,0.48,0.09,0.87,0.28,1.16c0.19,0.29,0.53,0.43,1.02,0.43c0.24,0,0.47-0.05,0.69-0.14c0.22-0.09,0.42-0.22,0.59-0.38    c0.17-0.16,0.31-0.35,0.41-0.56c0.1-0.21,0.15-0.44,0.15-0.68V-153.02z"></path>			<path class="st10" d="M-254.32-147.97h-1.38v-1.14h-0.04c-0.05,0.17-0.13,0.34-0.25,0.51c-0.12,0.17-0.27,0.31-0.45,0.44    c-0.18,0.13-0.38,0.23-0.6,0.31c-0.22,0.08-0.45,0.12-0.71,0.12c-0.55,0-1.02-0.12-1.4-0.35c-0.38-0.23-0.69-0.57-0.93-0.99    c-0.24-0.43-0.42-0.94-0.53-1.54c-0.11-0.6-0.16-1.26-0.16-1.99c0-0.49,0.03-1.01,0.09-1.58c0.06-0.57,0.19-1.1,0.39-1.58    c0.2-0.48,0.49-0.89,0.88-1.22c0.39-0.33,0.91-0.49,1.56-0.49c0.42,0,0.82,0.11,1.21,0.35c0.39,0.23,0.67,0.55,0.83,0.95h0.03    v-4.13h1.45V-147.97z M-259.21-152.6c0,0.55,0.02,1.05,0.08,1.5c0.05,0.45,0.14,0.83,0.26,1.14c0.13,0.31,0.3,0.55,0.52,0.73    c0.22,0.17,0.49,0.26,0.82,0.26c0.39,0,0.7-0.09,0.95-0.27c0.24-0.18,0.43-0.43,0.56-0.75c0.13-0.32,0.22-0.7,0.26-1.15    c0.05-0.44,0.07-0.93,0.07-1.46c0-0.45-0.02-0.89-0.07-1.32c-0.05-0.43-0.14-0.82-0.27-1.17c-0.14-0.35-0.33-0.62-0.57-0.83    c-0.24-0.21-0.55-0.31-0.94-0.31c-0.33,0-0.61,0.09-0.82,0.26c-0.22,0.17-0.39,0.41-0.52,0.72c-0.12,0.31-0.21,0.69-0.26,1.14    C-259.18-153.66-259.21-153.16-259.21-152.6z"></path>			<path class="st10" d="M-250.46-152.43c0,0.36,0.01,0.74,0.02,1.16c0.02,0.42,0.08,0.8,0.19,1.16c0.11,0.36,0.29,0.65,0.52,0.89    c0.23,0.23,0.57,0.35,1.01,0.35c0.34,0,0.61-0.08,0.81-0.23c0.2-0.16,0.36-0.35,0.46-0.57c0.11-0.22,0.18-0.46,0.21-0.71    c0.03-0.25,0.05-0.46,0.05-0.63h1.49c0,0.24-0.04,0.55-0.13,0.93c-0.09,0.37-0.25,0.74-0.48,1.09c-0.23,0.35-0.55,0.65-0.95,0.9    c-0.4,0.25-0.92,0.37-1.56,0.37c-1.14,0-1.96-0.39-2.46-1.17c-0.5-0.78-0.75-1.98-0.75-3.58c0-0.58,0.04-1.16,0.11-1.75    c0.08-0.59,0.23-1.13,0.47-1.61c0.24-0.48,0.57-0.87,1-1.18c0.43-0.31,1-0.46,1.72-0.46c0.7,0,1.26,0.14,1.68,0.41    c0.41,0.28,0.73,0.63,0.93,1.06c0.21,0.43,0.34,0.91,0.4,1.44c0.06,0.53,0.09,1.05,0.09,1.54v0.59H-250.46z M-247.17-153.57v-0.5    c0-0.25-0.02-0.52-0.07-0.79c-0.04-0.27-0.13-0.52-0.24-0.73c-0.12-0.22-0.28-0.4-0.48-0.53c-0.2-0.14-0.46-0.21-0.78-0.21    c-0.37,0-0.67,0.1-0.89,0.3c-0.22,0.2-0.39,0.43-0.5,0.7c-0.11,0.27-0.19,0.53-0.22,0.8c-0.04,0.27-0.05,0.48-0.05,0.61v0.35    H-247.17z"></path>			<path class="st10" d="M-243.32-157.24h1.45v1.38h0.04c0.1-0.22,0.22-0.42,0.33-0.62c0.12-0.2,0.26-0.37,0.42-0.52    c0.16-0.15,0.34-0.27,0.55-0.35c0.2-0.09,0.43-0.13,0.7-0.13c0.29,0,0.5,0.04,0.64,0.1v1.42c-0.07-0.01-0.16-0.03-0.27-0.04    c-0.11-0.02-0.28-0.03-0.51-0.03c-0.18,0-0.39,0.04-0.61,0.13c-0.22,0.09-0.42,0.22-0.61,0.4c-0.19,0.18-0.35,0.41-0.49,0.68    c-0.13,0.28-0.2,0.61-0.2,0.99v5.86h-1.45V-157.24z"></path>			<path class="st10" d="M-233.52-154.52c0-0.59-0.09-1.04-0.28-1.35c-0.19-0.31-0.55-0.47-1.08-0.47c-0.12,0-0.26,0.02-0.43,0.04    c-0.17,0.03-0.34,0.09-0.49,0.18c-0.15,0.09-0.29,0.24-0.41,0.42c-0.12,0.19-0.17,0.45-0.17,0.77c0,0.28,0.06,0.5,0.2,0.68    c0.13,0.17,0.31,0.32,0.52,0.44s0.46,0.22,0.73,0.3c0.27,0.08,0.55,0.17,0.84,0.26c0.28,0.09,0.55,0.19,0.82,0.3    c0.27,0.11,0.51,0.26,0.72,0.45c0.21,0.19,0.39,0.43,0.52,0.73c0.13,0.29,0.2,0.67,0.2,1.13c0,0.48-0.08,0.91-0.22,1.27    c-0.15,0.36-0.36,0.66-0.62,0.91c-0.26,0.24-0.58,0.42-0.95,0.54c-0.37,0.12-0.76,0.18-1.19,0.18c-0.78,0-1.39-0.13-1.82-0.38    c-0.43-0.25-0.75-0.56-0.95-0.91c-0.2-0.35-0.32-0.71-0.36-1.08c-0.03-0.37-0.05-0.68-0.05-0.92h1.45c0,0.28,0.02,0.55,0.07,0.8    c0.05,0.26,0.13,0.49,0.26,0.69s0.3,0.36,0.53,0.48c0.22,0.12,0.52,0.17,0.87,0.17c0.11,0,0.26-0.02,0.43-0.05    c0.17-0.04,0.34-0.11,0.51-0.22c0.16-0.12,0.31-0.27,0.42-0.47c0.12-0.2,0.17-0.46,0.17-0.8c0-0.31-0.06-0.57-0.2-0.77    c-0.13-0.2-0.31-0.37-0.52-0.5c-0.21-0.13-0.46-0.25-0.73-0.34c-0.27-0.09-0.55-0.18-0.82-0.28s-0.55-0.19-0.83-0.3    c-0.28-0.11-0.52-0.26-0.73-0.44c-0.21-0.19-0.39-0.43-0.52-0.73c-0.13-0.3-0.2-0.69-0.2-1.16c0-0.43,0.08-0.8,0.23-1.12    c0.15-0.32,0.37-0.59,0.64-0.8c0.27-0.21,0.59-0.37,0.94-0.48c0.36-0.1,0.74-0.15,1.14-0.15c0.67,0,1.19,0.1,1.57,0.31    c0.38,0.21,0.66,0.46,0.85,0.76c0.18,0.3,0.29,0.62,0.33,0.96s0.06,0.65,0.06,0.92H-233.52z"></path>			<path class="st10" d="M-229.75-160.31h1.45v4.13h0.04c0.09-0.18,0.22-0.36,0.39-0.52c0.16-0.16,0.35-0.3,0.55-0.42    c0.2-0.11,0.42-0.21,0.64-0.27s0.44-0.09,0.65-0.09c0.6,0,1.06,0.1,1.38,0.3c0.32,0.2,0.56,0.45,0.71,0.75    c0.15,0.3,0.23,0.62,0.26,0.96c0.02,0.34,0.03,0.65,0.03,0.93v6.57h-1.45v-6.4c0-0.17-0.01-0.37-0.03-0.59    c-0.02-0.22-0.07-0.42-0.16-0.61c-0.09-0.19-0.23-0.35-0.41-0.48c-0.18-0.13-0.44-0.19-0.76-0.19c-0.19,0-0.4,0.03-0.61,0.1    c-0.21,0.07-0.41,0.18-0.6,0.33c-0.18,0.15-0.33,0.34-0.45,0.58c-0.12,0.23-0.17,0.52-0.17,0.86v6.4h-1.45V-160.31z"></path>			<path class="st10" d="M-220.95-160.31h1.45v1.66h-1.45V-160.31z M-220.95-157.24h1.45v9.27h-1.45V-157.24z"></path>			<path class="st10" d="M-216.81-157.24h1.38v1.14h0.04c0.05-0.17,0.13-0.34,0.25-0.51c0.12-0.17,0.27-0.31,0.45-0.44    c0.18-0.13,0.38-0.23,0.6-0.31c0.22-0.08,0.45-0.12,0.71-0.12c0.55,0,1.02,0.11,1.4,0.35c0.38,0.23,0.69,0.55,0.93,0.97    c0.24,0.42,0.42,0.91,0.53,1.49c0.11,0.58,0.16,1.21,0.16,1.9c0,0.53-0.05,1.09-0.14,1.67c-0.09,0.59-0.25,1.13-0.48,1.63    c-0.22,0.5-0.53,0.92-0.93,1.25c-0.39,0.33-0.89,0.49-1.49,0.49c-0.42,0-0.8-0.11-1.16-0.35c-0.36-0.23-0.62-0.55-0.78-0.95    h-0.04v4.1h-1.45V-157.24z M-215.44-152.6c0,0.45,0.02,0.89,0.07,1.32s0.14,0.82,0.27,1.17c0.14,0.35,0.32,0.62,0.56,0.83    c0.24,0.21,0.55,0.31,0.94,0.31c0.33,0,0.61-0.09,0.82-0.26c0.22-0.17,0.39-0.42,0.51-0.75c0.13-0.32,0.21-0.72,0.26-1.19    c0.05-0.47,0.08-1.01,0.08-1.61c0-0.51-0.03-0.98-0.08-1.4s-0.14-0.79-0.26-1.1c-0.12-0.31-0.3-0.54-0.51-0.71    c-0.22-0.16-0.49-0.25-0.82-0.25c-0.4,0-0.72,0.09-0.96,0.27c-0.24,0.18-0.42,0.43-0.56,0.75c-0.13,0.32-0.22,0.71-0.26,1.15    S-215.44-153.13-215.44-152.6z"></path>			<path class="st10" d="M-203.03-160.31h3.3c0.96,0,1.72,0.16,2.29,0.48c0.57,0.32,1,0.76,1.3,1.32c0.3,0.56,0.5,1.21,0.59,1.96    c0.09,0.75,0.14,1.55,0.14,2.4c0,0.78-0.06,1.54-0.17,2.28c-0.12,0.74-0.33,1.39-0.64,1.97c-0.31,0.58-0.74,1.04-1.28,1.39    c-0.54,0.35-1.23,0.53-2.07,0.53h-3.46V-160.31z M-201.47-149.22h1.59c0.66,0,1.18-0.15,1.57-0.46c0.38-0.31,0.68-0.69,0.88-1.17    c0.2-0.47,0.33-1,0.39-1.58c0.06-0.58,0.09-1.15,0.09-1.7c0-0.6-0.02-1.19-0.07-1.78c-0.05-0.59-0.16-1.12-0.35-1.58    c-0.19-0.47-0.48-0.85-0.87-1.14c-0.39-0.29-0.93-0.44-1.63-0.44h-1.59V-149.22z"></path>			<path class="st10" d="M-192.83-160.31h1.45v1.66h-1.45V-160.31z M-192.83-157.24h1.45v9.27h-1.45V-157.24z"></path>			<path class="st10" d="M-188.25-156.09h-1.35v-1.14h1.35v-1.09c0-0.7,0.16-1.23,0.48-1.59c0.32-0.36,0.83-0.53,1.53-0.53h1.06    v1.25h-0.68c-0.31,0-0.55,0.06-0.7,0.2c-0.16,0.13-0.24,0.36-0.24,0.68v1.09h1.59v1.14h-1.59v8.12h-1.45V-156.09z"></path>			<path class="st10" d="M-183.07-156.09h-1.35v-1.14h1.35v-1.09c0-0.7,0.16-1.23,0.48-1.59c0.32-0.36,0.83-0.53,1.53-0.53h1.05    v1.25h-0.68c-0.31,0-0.54,0.06-0.7,0.2c-0.15,0.13-0.23,0.36-0.23,0.68v1.09h1.59v1.14h-1.59v8.12h-1.45V-156.09z"></path>			<path class="st10" d="M-177.07-152.43c0,0.36,0.01,0.74,0.02,1.16c0.02,0.42,0.08,0.8,0.2,1.16c0.11,0.36,0.28,0.65,0.52,0.89    c0.23,0.23,0.57,0.35,1.01,0.35c0.34,0,0.61-0.08,0.81-0.23c0.21-0.16,0.36-0.35,0.47-0.57c0.11-0.22,0.18-0.46,0.21-0.71    c0.04-0.25,0.05-0.46,0.05-0.63h1.49c0,0.24-0.04,0.55-0.13,0.93c-0.09,0.37-0.24,0.74-0.48,1.09c-0.23,0.35-0.55,0.65-0.95,0.9    c-0.4,0.25-0.92,0.37-1.56,0.37c-1.14,0-1.96-0.39-2.46-1.17c-0.5-0.78-0.75-1.98-0.75-3.58c0-0.58,0.04-1.16,0.11-1.75    c0.07-0.59,0.23-1.13,0.46-1.61c0.24-0.48,0.57-0.87,1-1.18c0.43-0.31,1-0.46,1.72-0.46c0.7,0,1.26,0.14,1.68,0.41    c0.42,0.28,0.73,0.63,0.93,1.06c0.21,0.43,0.34,0.91,0.4,1.44c0.06,0.53,0.09,1.05,0.09,1.54v0.59H-177.07z M-173.78-153.57v-0.5    c0-0.25-0.02-0.52-0.07-0.79c-0.05-0.27-0.13-0.52-0.25-0.73c-0.12-0.22-0.28-0.4-0.48-0.53c-0.21-0.14-0.46-0.21-0.78-0.21    c-0.37,0-0.67,0.1-0.89,0.3c-0.22,0.2-0.39,0.43-0.5,0.7c-0.11,0.27-0.18,0.53-0.22,0.8s-0.05,0.48-0.05,0.61v0.35H-173.78z"></path>			<path class="st10" d="M-169.93-157.24h1.45v1.38h0.04c0.1-0.22,0.22-0.42,0.33-0.62c0.12-0.2,0.26-0.37,0.42-0.52    c0.16-0.15,0.34-0.27,0.55-0.35c0.2-0.09,0.43-0.13,0.7-0.13c0.29,0,0.5,0.04,0.64,0.1v1.42c-0.07-0.01-0.16-0.03-0.27-0.04    c-0.11-0.02-0.28-0.03-0.51-0.03c-0.18,0-0.39,0.04-0.6,0.13c-0.22,0.09-0.42,0.22-0.61,0.4c-0.19,0.18-0.35,0.41-0.49,0.68    c-0.13,0.28-0.2,0.61-0.2,0.99v5.86h-1.45V-157.24z"></path>			<path class="st10" d="M-162.86-152.43c0,0.36,0.01,0.74,0.02,1.16c0.02,0.42,0.08,0.8,0.2,1.16c0.11,0.36,0.28,0.65,0.52,0.89    c0.23,0.23,0.57,0.35,1.01,0.35c0.34,0,0.61-0.08,0.81-0.23c0.21-0.16,0.36-0.35,0.47-0.57c0.11-0.22,0.18-0.46,0.21-0.71    c0.04-0.25,0.05-0.46,0.05-0.63h1.49c0,0.24-0.04,0.55-0.13,0.93c-0.09,0.37-0.24,0.74-0.48,1.09c-0.23,0.35-0.55,0.65-0.95,0.9    c-0.4,0.25-0.92,0.37-1.56,0.37c-1.14,0-1.96-0.39-2.46-1.17c-0.5-0.78-0.75-1.98-0.75-3.58c0-0.58,0.04-1.16,0.11-1.75    c0.07-0.59,0.23-1.13,0.46-1.61c0.24-0.48,0.57-0.87,1-1.18c0.43-0.31,1-0.46,1.72-0.46c0.7,0,1.26,0.14,1.68,0.41    c0.42,0.28,0.73,0.63,0.93,1.06c0.21,0.43,0.34,0.91,0.4,1.44c0.06,0.53,0.09,1.05,0.09,1.54v0.59H-162.86z M-159.57-153.57v-0.5    c0-0.25-0.02-0.52-0.07-0.79c-0.05-0.27-0.13-0.52-0.25-0.73c-0.12-0.22-0.28-0.4-0.48-0.53c-0.21-0.14-0.46-0.21-0.78-0.21    c-0.37,0-0.67,0.1-0.89,0.3c-0.22,0.2-0.39,0.43-0.5,0.7c-0.11,0.27-0.18,0.53-0.22,0.8c-0.04,0.27-0.05,0.48-0.05,0.61v0.35    H-159.57z"></path>			<path class="st10" d="M-155.72-157.24h1.38v1.09h0.04c0.19-0.43,0.51-0.76,0.93-0.99c0.43-0.23,0.86-0.35,1.32-0.35    c0.61,0,1.08,0.1,1.41,0.3c0.33,0.2,0.57,0.45,0.73,0.75c0.16,0.3,0.25,0.62,0.27,0.96c0.02,0.34,0.04,0.65,0.04,0.93v6.57h-1.45    v-6.4c0-0.17-0.01-0.37-0.02-0.59c-0.02-0.22-0.07-0.42-0.16-0.61c-0.09-0.19-0.23-0.35-0.42-0.48    c-0.18-0.13-0.44-0.19-0.76-0.19c-0.2,0-0.4,0.03-0.61,0.1c-0.21,0.07-0.41,0.18-0.6,0.33c-0.19,0.15-0.33,0.34-0.45,0.58    c-0.11,0.23-0.17,0.52-0.17,0.86v6.4h-1.45V-157.24z"></path>			<path class="st10" d="M-146.57-159.93h1.45v2.7h1.61v1.14h-1.61v5.94c0,0.37,0.06,0.63,0.19,0.8c0.13,0.16,0.38,0.24,0.76,0.24    c0.16,0,0.29-0.01,0.38-0.02c0.09-0.01,0.18-0.02,0.26-0.04v1.19c-0.09,0.02-0.23,0.05-0.43,0.07c-0.19,0.02-0.44,0.04-0.74,0.04    c-0.38,0-0.69-0.04-0.93-0.11c-0.24-0.08-0.43-0.19-0.57-0.35c-0.14-0.16-0.23-0.35-0.28-0.58c-0.05-0.23-0.08-0.49-0.08-0.79    v-6.4h-1.35v-1.14h1.35V-159.93z"></path>			<path class="st10" d="M-141.74-160.31h1.45v1.66h-1.45V-160.31z M-141.74-157.24h1.45v9.27h-1.45V-157.24z"></path>			<path class="st10" d="M-137.81-154.44c0-1.05,0.24-1.82,0.73-2.31c0.48-0.49,1.28-0.73,2.38-0.73c0.7,0,1.25,0.09,1.63,0.28    c0.38,0.18,0.66,0.42,0.84,0.69c0.18,0.28,0.28,0.57,0.31,0.87c0.03,0.31,0.04,0.58,0.04,0.82v5.17c0,0.2,0.02,0.37,0.05,0.52    c0.04,0.15,0.17,0.22,0.4,0.22c0.09,0,0.16-0.01,0.22-0.02c0.05-0.02,0.09-0.04,0.13-0.06v1.04c-0.06,0.01-0.17,0.03-0.33,0.05    c-0.16,0.02-0.33,0.04-0.52,0.04c-0.14,0-0.28-0.01-0.42-0.02c-0.14-0.01-0.28-0.06-0.41-0.13c-0.13-0.08-0.24-0.19-0.33-0.35    c-0.09-0.16-0.13-0.39-0.15-0.69h-0.03c-0.23,0.41-0.55,0.74-0.96,0.98c-0.41,0.24-0.83,0.35-1.27,0.35    c-0.86,0-1.5-0.24-1.91-0.72c-0.41-0.49-0.61-1.14-0.61-1.97c0-0.66,0.14-1.2,0.42-1.63c0.28-0.43,0.72-0.74,1.32-0.92l1.95-0.59    c0.27-0.08,0.47-0.16,0.62-0.25c0.14-0.09,0.25-0.18,0.31-0.28c0.06-0.11,0.1-0.22,0.11-0.36c0.01-0.14,0.02-0.31,0.02-0.5    c0-0.91-0.5-1.37-1.49-1.37c-0.4,0-0.71,0.08-0.92,0.24c-0.21,0.15-0.37,0.33-0.47,0.54c-0.1,0.21-0.15,0.41-0.17,0.61    c-0.02,0.2-0.02,0.34-0.02,0.42v0.09H-137.81z M-133.33-153.02c-0.14,0.14-0.31,0.25-0.52,0.35c-0.21,0.09-0.43,0.18-0.67,0.25    c-0.24,0.08-0.46,0.15-0.69,0.22c-0.22,0.08-0.41,0.16-0.57,0.27c-0.23,0.15-0.4,0.33-0.52,0.55c-0.12,0.21-0.18,0.52-0.18,0.92    c0,0.48,0.09,0.87,0.28,1.16c0.19,0.29,0.53,0.43,1.02,0.43c0.24,0,0.47-0.05,0.69-0.14c0.22-0.09,0.42-0.22,0.59-0.38    c0.17-0.16,0.31-0.35,0.41-0.56s0.15-0.44,0.15-0.68V-153.02z"></path>			<path class="st10" d="M-128.6-159.93h1.45v2.7h1.61v1.14h-1.61v5.94c0,0.37,0.06,0.63,0.19,0.8c0.13,0.16,0.38,0.24,0.76,0.24    c0.16,0,0.29-0.01,0.38-0.02c0.09-0.01,0.18-0.02,0.26-0.04v1.19c-0.09,0.02-0.24,0.05-0.43,0.07c-0.2,0.02-0.45,0.04-0.75,0.04    c-0.38,0-0.69-0.04-0.93-0.11c-0.24-0.08-0.43-0.19-0.57-0.35c-0.14-0.16-0.23-0.35-0.29-0.58c-0.05-0.23-0.08-0.49-0.08-0.79    v-6.4h-1.35v-1.14h1.35V-159.93z"></path>			<path class="st10" d="M-124.29-152.6c0-0.66,0.05-1.28,0.15-1.87c0.1-0.59,0.27-1.1,0.52-1.54c0.25-0.45,0.59-0.8,1.02-1.06    c0.43-0.26,0.98-0.4,1.65-0.4c0.67,0,1.22,0.13,1.65,0.4c0.43,0.26,0.77,0.62,1.02,1.06c0.25,0.44,0.42,0.96,0.52,1.54    c0.1,0.59,0.15,1.21,0.15,1.87c0,0.66-0.05,1.28-0.15,1.87c-0.1,0.59-0.28,1.1-0.53,1.55c-0.25,0.44-0.59,0.8-1.02,1.06    c-0.43,0.26-0.98,0.4-1.64,0.4c-0.67,0-1.22-0.13-1.65-0.4c-0.43-0.26-0.77-0.62-1.02-1.06c-0.25-0.45-0.42-0.96-0.52-1.55    C-124.24-151.32-124.29-151.95-124.29-152.6z M-120.99-148.87c0.38,0,0.68-0.1,0.92-0.3c0.24-0.2,0.42-0.47,0.56-0.81    c0.14-0.34,0.22-0.73,0.27-1.18c0.05-0.45,0.07-0.93,0.07-1.43c0-0.5-0.02-0.97-0.07-1.43c-0.05-0.46-0.13-0.85-0.26-1.19    c-0.13-0.34-0.31-0.61-0.55-0.81c-0.24-0.2-0.55-0.3-0.93-0.3c-0.36,0-0.65,0.1-0.88,0.3c-0.23,0.2-0.41,0.47-0.53,0.81    c-0.13,0.34-0.22,0.74-0.26,1.19c-0.05,0.45-0.07,0.93-0.07,1.43c0,0.51,0.02,0.98,0.07,1.43c0.05,0.45,0.13,0.84,0.25,1.18    c0.12,0.34,0.3,0.61,0.53,0.81S-121.35-148.87-120.99-148.87z"></path>			<path class="st10" d="M-115.46-157.24h1.45v1.38h0.03c0.1-0.22,0.22-0.42,0.33-0.62c0.12-0.2,0.26-0.37,0.42-0.52    c0.16-0.15,0.34-0.27,0.55-0.35c0.2-0.09,0.43-0.13,0.7-0.13c0.29,0,0.5,0.04,0.64,0.1v1.42c-0.07-0.01-0.16-0.03-0.27-0.04    c-0.11-0.02-0.28-0.03-0.51-0.03c-0.18,0-0.39,0.04-0.61,0.13c-0.22,0.09-0.42,0.22-0.61,0.4c-0.19,0.18-0.35,0.41-0.49,0.68    c-0.13,0.28-0.2,0.61-0.2,0.99v5.86h-1.45V-157.24z"></path>			<path class="st10" d="M-105.66-154.52c0-0.59-0.09-1.04-0.29-1.35c-0.19-0.31-0.55-0.47-1.08-0.47c-0.12,0-0.26,0.02-0.43,0.04    c-0.17,0.03-0.34,0.09-0.49,0.18c-0.16,0.09-0.29,0.24-0.41,0.42c-0.11,0.19-0.17,0.45-0.17,0.77c0,0.28,0.07,0.5,0.2,0.68    c0.13,0.17,0.31,0.32,0.52,0.44c0.21,0.12,0.45,0.22,0.73,0.3c0.27,0.08,0.55,0.17,0.84,0.26c0.28,0.09,0.55,0.19,0.82,0.3    c0.27,0.11,0.51,0.26,0.73,0.45c0.21,0.19,0.39,0.43,0.52,0.73c0.13,0.29,0.2,0.67,0.2,1.13c0,0.48-0.08,0.91-0.23,1.27    c-0.15,0.36-0.36,0.66-0.62,0.91c-0.26,0.24-0.58,0.42-0.95,0.54c-0.37,0.12-0.77,0.18-1.19,0.18c-0.78,0-1.39-0.13-1.82-0.38    c-0.43-0.25-0.75-0.56-0.95-0.91c-0.2-0.35-0.32-0.71-0.35-1.08c-0.04-0.37-0.05-0.68-0.05-0.92h1.45c0,0.28,0.02,0.55,0.07,0.8    c0.05,0.26,0.13,0.49,0.26,0.69c0.13,0.2,0.3,0.36,0.53,0.48c0.22,0.12,0.52,0.17,0.87,0.17c0.12,0,0.26-0.02,0.43-0.05    s0.34-0.11,0.51-0.22c0.17-0.12,0.31-0.27,0.42-0.47c0.12-0.2,0.17-0.46,0.17-0.8c0-0.31-0.07-0.57-0.2-0.77    c-0.13-0.2-0.31-0.37-0.52-0.5c-0.21-0.13-0.45-0.25-0.72-0.34c-0.27-0.09-0.55-0.18-0.82-0.28c-0.28-0.09-0.55-0.19-0.83-0.3    c-0.28-0.11-0.52-0.26-0.73-0.44c-0.21-0.19-0.39-0.43-0.52-0.73c-0.13-0.3-0.2-0.69-0.2-1.16c0-0.43,0.08-0.8,0.23-1.12    c0.16-0.32,0.37-0.59,0.64-0.8c0.27-0.21,0.58-0.37,0.94-0.48c0.36-0.1,0.74-0.15,1.14-0.15c0.67,0,1.19,0.1,1.57,0.31    c0.38,0.21,0.66,0.46,0.85,0.76c0.18,0.3,0.3,0.62,0.34,0.96c0.04,0.34,0.06,0.65,0.06,0.92H-105.66z"></path>		</g>	</g>	<g>		<g>			<path class="st1" d="M-269.08-226.53h19.92c2.3,0,4.45,0.27,6.47,0.82c2.01,0.55,3.76,1.41,5.26,2.59    c1.49,1.18,2.67,2.71,3.53,4.61c0.86,1.9,1.29,4.2,1.29,6.9c0,7.41-3.02,12.07-9.05,13.97v0.17c1.67,0.29,3.19,0.78,4.57,1.47    c1.38,0.69,2.54,1.65,3.49,2.89c0.95,1.24,1.68,2.79,2.2,4.66c0.52,1.87,0.78,4.09,0.78,6.68c0,2.59-0.45,4.91-1.34,6.98    c-0.89,2.07-2.16,3.84-3.79,5.3c-1.64,1.47-3.64,2.59-5.99,3.36c-2.36,0.78-4.97,1.16-7.85,1.16h-19.49V-226.53z M-251.49-200.58    c2.99,0,5.25-0.89,6.77-2.67c1.52-1.78,2.28-4.14,2.28-7.07c0-1.84-0.26-3.33-0.78-4.48c-0.52-1.15-1.22-2.04-2.11-2.67    c-0.89-0.63-1.94-1.06-3.15-1.3c-1.21-0.23-2.5-0.34-3.88-0.34h-6.9v18.54H-251.49z M-249.51-172.38c2.93,0,5.17-0.9,6.73-2.71    c1.55-1.81,2.33-4.53,2.33-8.15c0-3.33-0.88-5.91-2.63-7.72c-1.75-1.81-4.1-2.71-7.03-2.71h-9.14v21.3H-249.51z"></path>			<path class="st1" d="M-212.35-189.02l-15.86-37.51h10.95l10.35,26.56l10.6-26.56h10.26l-16.47,37.51v24.06h-9.83V-189.02z"></path>			<path class="st1" d="M-182.43-226.53h9.83v53.28h23.8v8.28h-33.63V-226.53z"></path>			<path class="st1" d="M-143.03-226.53h17.5c4.83,0,8.68,0.75,11.55,2.24c2.87,1.5,5.06,3.61,6.55,6.34    c1.49,2.73,2.47,5.98,2.93,9.74c0.46,3.77,0.69,7.92,0.69,12.46s-0.23,8.69-0.69,12.46c-0.46,3.77-1.44,7.01-2.93,9.74    c-1.5,2.73-3.68,4.84-6.55,6.34c-2.88,1.5-6.73,2.24-11.55,2.24h-17.5V-226.53z M-133.2-172.38h8.1c2.01,0,3.75-0.37,5.22-1.12    c1.47-0.75,2.66-2.01,3.58-3.79c0.92-1.78,1.59-4.18,2.03-7.2c0.43-3.02,0.65-6.77,0.65-11.25c0-4.31-0.2-7.96-0.6-10.95    c-0.4-2.99-1.05-5.4-1.94-7.24c-0.89-1.84-2.07-3.16-3.54-3.97c-1.47-0.8-3.26-1.2-5.39-1.2h-8.1V-172.38z"></path>		</g>		<g>			<path class="st11" d="M-311.37-181.74c-2.75,0-4.94,0-6.88,0c0.2,1.19,0.55,2.29,0.52,3.38c-0.03,1.49-0.3,2.99-0.54,4.48    c-0.12,0.72-0.4,1.41-0.7,2.42c-2.24-4.39-4.34-8.4-6.32-12.46c-0.58-1.19-1.26-1.68-2.57-1.42c-3.85,0.78-7.67,1.67-11.11,3.64    c-5.96,3.42-9.09,8.61-9.42,15.48c-0.05,1,0.25,1.52,1.33,1.44c0.5-0.04,1.01,0,1.51,0c20.24,0,40.48,0,60.71,0    c0.6,0,1.21-0.02,1.81,0c0.88,0.03,1.23-0.36,1.21-1.26c-0.08-4.38-1.38-8.33-4.28-11.61c-3.62-4.1-8.46-6.05-13.65-7.11    c-5.01-1.02-3.71-1.52-6.05,2.87c-1.81,3.4-3.56,6.82-5.62,10.77c-0.37-2.9-0.52-5.21-1.02-7.45    C-312.73-179.86-312.4-180.71-311.37-181.74z M-346.33-189.08c4.5,0,8.61,0.01,12.72-0.01c1.07-0.01,0.91-0.87,0.91-1.54    c0.01-4.83,0.13-9.67-0.07-14.49c-0.12-2.89-0.53-5.82-1.23-8.62c-1.02-4.11-3.18-7.65-6.88-9.92c-5.98-3.66-12.4-3.99-18.8-1.46    c-6.81,2.69-9.59,8.46-10.55,15.31c-0.89,6.31-0.42,12.66-0.5,18.99c-0.02,1.68,0.05,1.72,1.64,1.74c2.42,0.03,4.83,0.03,7.25,0    c1.53-0.02,3.08,0.16,4.82-0.19c-3.83-4.59-5.61-9.7-6.21-15.44c5.34-0.47,10.19-1.89,13.84-6.13c2.41,2.55,5.17,4.29,8.42,5.23    c0.62,0.18,1.01,0.54,0.89,1.32c-0.7,4.29-1.86,8.42-4.13,12.17C-344.78-191.18-345.45-190.32-346.33-189.08z M-316.1-226.57    c-5,0.13-9.63,2.91-12.25,8.76c-1,2.23-1.44,4.58-1.43,7.03c0.01,0.97,0.01,1.83-0.85,2.72c-1.58,1.64-1.31,4.28,0.59,5.5    c1.08,0.69,1.41,1.55,1.79,2.58c1.54,4.15,3.9,7.7,7.66,10.19c3.57,2.37,7.11,2.38,10.71,0.05c3.67-2.38,6.24-5.66,7.95-9.63    c0.55-1.28,0.97-2.51,2.14-3.5c1.39-1.17,1.61-3.6,0.48-4.96c-0.93-1.13-0.98-2.36-1.22-3.61c-0.3-1.57-0.41-3.19-0.81-4.74    C-303.02-222.66-308.09-226.53-316.1-226.57z M-359.76-184.22c-1.9,0.27-3.19,0.41-4.46,0.64c-3.99,0.72-7.81,1.92-11.19,4.24    c-4.46,3.07-6.65,7.4-6.9,12.74c-0.08,1.75-0.03,1.75,1.83,1.81c0.2,0.01,0.4,0,0.61,0c7.76,0,15.52,0,23.27-0.01    c0.67,0,1.35-0.09,2.45-0.18c-2.61-2.61-4.97-4.93-7.28-7.3c-0.9-0.92-1.69-1.94-2.52-2.91c0.69-0.85,1.38-1.69,2.06-2.54    c0.05-0.06,0.02-0.17,0.03-0.4c-1.08-0.08-2.16-0.16-3.66-0.27C-363.61-180.32-361.92-182.02-359.76-184.22z"></path>			<path class="st12" d="M-311.37-181.74c-1.04,1.03-1.36,1.89-1.08,3.15c0.5,2.24,0.65,4.55,1.02,7.45    c2.06-3.94,3.81-7.37,5.62-10.77c2.34-4.39,1.04-3.89,6.05-2.87c5.19,1.06,10.04,3.01,13.65,7.11c2.9,3.29,4.2,7.24,4.28,11.61    c0.02,0.9-0.33,1.29-1.21,1.26c-0.6-0.02-1.21,0-1.81,0c-20.24,0-40.48,0-60.71,0c-0.5,0-1.01-0.04-1.51,0    c-1.08,0.09-1.38-0.43-1.33-1.44c0.33-6.88,3.46-12.06,9.42-15.48c3.44-1.97,7.26-2.86,11.11-3.64c1.31-0.26,1.99,0.23,2.57,1.42    c1.98,4.06,4.08,8.06,6.32,12.46c0.3-1.01,0.59-1.7,0.7-2.42c0.24-1.49,0.51-2.98,0.54-4.48c0.02-1.09-0.32-2.19-0.52-3.38    C-316.31-181.74-314.12-181.74-311.37-181.74z"></path>			<path class="st13" d="M-346.33-189.08c0.87-1.25,1.55-2.1,2.11-3.03c2.27-3.75,3.43-7.88,4.13-12.17    c0.13-0.78-0.26-1.14-0.89-1.32c-3.25-0.93-6.01-2.68-8.42-5.23c-3.65,4.25-8.49,5.66-13.84,6.13c0.6,5.74,2.38,10.84,6.21,15.44    c-1.74,0.35-3.29,0.17-4.82,0.19c-2.42,0.03-4.83,0.03-7.25,0c-1.59-0.02-1.66-0.06-1.64-1.74c0.08-6.33-0.39-12.68,0.5-18.99    c0.96-6.84,3.73-12.62,10.55-15.31c6.4-2.53,12.82-2.2,18.8,1.46c3.7,2.26,5.85,5.81,6.88,9.92c0.7,2.8,1.11,5.73,1.23,8.62    c0.2,4.82,0.07,9.66,0.07,14.49c0,0.67,0.17,1.53-0.91,1.54C-337.72-189.06-341.83-189.08-346.33-189.08z"></path>			<path class="st12" d="M-316.1-226.57c8,0.03,13.07,3.91,14.78,10.4c0.41,1.54,0.51,3.17,0.81,4.74c0.24,1.25,0.28,2.49,1.22,3.61    c1.13,1.36,0.9,3.79-0.48,4.96c-1.17,0.99-1.59,2.21-2.14,3.5c-1.71,3.97-4.28,7.25-7.95,9.63c-3.59,2.33-7.14,2.32-10.71-0.05    c-3.76-2.49-6.12-6.04-7.66-10.19c-0.38-1.03-0.71-1.89-1.79-2.58c-1.9-1.22-2.17-3.86-0.59-5.5c0.86-0.89,0.85-1.75,0.85-2.72    c-0.02-2.45,0.43-4.8,1.43-7.03C-325.72-223.66-321.1-226.43-316.1-226.57z"></path>			<path class="st13" d="M-359.76-184.22c-2.16,2.19-3.85,3.9-5.75,5.82c1.5,0.11,2.58,0.19,3.66,0.27    c-0.02,0.23,0.01,0.35-0.03,0.4c-0.68,0.85-1.37,1.69-2.06,2.54c0.84,0.97,1.63,1.99,2.52,2.91c2.31,2.37,4.67,4.69,7.28,7.3    c-1.11,0.09-1.78,0.18-2.45,0.18c-7.76,0.01-15.52,0.01-23.27,0.01c-0.2,0-0.4,0.01-0.61,0c-1.86-0.06-1.91-0.06-1.83-1.81    c0.25-5.35,2.44-9.68,6.9-12.74c3.38-2.32,7.2-3.52,11.19-4.24C-362.95-183.8-361.66-183.94-359.76-184.22z"></path>		</g>	</g></g></svg>