<svg xmlns="http://www.w3.org/2000/svg" xmlns:xlink="http://www.w3.org/1999/xlink" id="Layer_1" x="0px" y="0px" viewBox="0 0 196.22 191.08" style="enable-background:new 0 0 196.22 191.08;" xml:space="preserve"><style type="text/css">	.st0{fill:#646969;}	.st1{fill:#326FB1;}	.st2{fill-rule:evenodd;clip-rule:evenodd;fill:#FFFFFF;}	.st3{fill-rule:evenodd;clip-rule:evenodd;fill:#676868;}	.st4{fill-rule:evenodd;clip-rule:evenodd;fill:#EB8123;}	.st5{fill:#FFFFFF;}	.st6{fill:#EB8123;}</style><g>	<g>		<g>			<path class="st0" d="M-382.14-160.31h3.79c0.4,0,0.8,0.05,1.18,0.16c0.38,0.1,0.72,0.28,1.01,0.53c0.29,0.25,0.53,0.57,0.71,0.98    c0.18,0.4,0.27,0.9,0.27,1.5c0,0.28-0.04,0.55-0.12,0.83c-0.08,0.28-0.2,0.53-0.35,0.76c-0.15,0.23-0.34,0.43-0.57,0.61    c-0.22,0.17-0.47,0.3-0.75,0.38v0.04c0.76,0.18,1.31,0.55,1.66,1.09c0.35,0.54,0.52,1.19,0.52,1.95c0,1.26-0.34,2.16-1.03,2.71    c-0.69,0.55-1.67,0.82-2.97,0.82h-3.35V-160.31z M-380.59-154.99h1.75c0.16,0,0.36-0.02,0.6-0.05c0.23-0.04,0.47-0.12,0.69-0.26    c0.22-0.14,0.41-0.35,0.57-0.62c0.16-0.28,0.23-0.65,0.23-1.12c0-0.66-0.16-1.16-0.49-1.5s-0.87-0.52-1.63-0.52h-1.71V-154.99z     M-380.59-149.22h2.07c0.4,0,0.74-0.06,1.02-0.19c0.28-0.13,0.5-0.29,0.67-0.5c0.17-0.21,0.29-0.45,0.36-0.73    c0.07-0.28,0.11-0.56,0.11-0.86c0-0.43-0.06-0.79-0.19-1.08c-0.13-0.29-0.3-0.53-0.52-0.73c-0.22-0.19-0.48-0.33-0.77-0.41    c-0.29-0.09-0.61-0.13-0.94-0.13h-1.82V-149.22z"></path>			<path class="st0" d="M-366.41-147.97h-1.38v-1.09h-0.03c-0.2,0.42-0.51,0.75-0.93,0.98c-0.43,0.23-0.86,0.35-1.31,0.35    c-0.61,0-1.08-0.1-1.41-0.3c-0.33-0.2-0.57-0.45-0.73-0.75s-0.25-0.62-0.27-0.96c-0.02-0.34-0.03-0.65-0.03-0.93v-6.57h1.45v6.4    c0,0.17,0.01,0.37,0.03,0.59c0.02,0.22,0.07,0.42,0.16,0.61c0.09,0.19,0.23,0.35,0.41,0.48c0.18,0.13,0.43,0.19,0.77,0.19    c0.2,0,0.4-0.04,0.61-0.11c0.21-0.07,0.41-0.18,0.6-0.33c0.19-0.15,0.33-0.34,0.45-0.58c0.11-0.23,0.17-0.52,0.17-0.86v-6.4h1.45    V-147.97z"></path>			<path class="st0" d="M-363.72-160.31h1.45v1.66h-1.45V-160.31z M-363.72-157.24h1.45v9.27h-1.45V-157.24z"></path>			<path class="st0" d="M-359.48-160.31h1.45v12.34h-1.45V-160.31z"></path>			<path class="st0" d="M-349.23-147.97h-1.38v-1.14h-0.03c-0.05,0.17-0.13,0.34-0.25,0.51s-0.27,0.31-0.45,0.44    c-0.18,0.13-0.38,0.23-0.6,0.31c-0.22,0.08-0.46,0.12-0.71,0.12c-0.55,0-1.02-0.12-1.4-0.35c-0.38-0.23-0.69-0.57-0.93-0.99    c-0.24-0.43-0.42-0.94-0.53-1.54c-0.11-0.6-0.16-1.26-0.16-1.99c0-0.49,0.03-1.01,0.09-1.58c0.06-0.57,0.19-1.1,0.39-1.58    c0.2-0.48,0.5-0.89,0.88-1.22c0.38-0.33,0.91-0.49,1.56-0.49c0.41,0,0.82,0.11,1.21,0.35c0.39,0.23,0.67,0.55,0.83,0.95h0.04    v-4.13h1.45V-147.97z M-354.12-152.6c0,0.55,0.03,1.05,0.08,1.5c0.05,0.45,0.14,0.83,0.26,1.14c0.13,0.31,0.3,0.55,0.51,0.73    c0.22,0.17,0.49,0.26,0.82,0.26c0.39,0,0.7-0.09,0.95-0.27c0.25-0.18,0.43-0.43,0.57-0.75c0.13-0.32,0.22-0.7,0.26-1.15    c0.05-0.44,0.07-0.93,0.07-1.46c0-0.45-0.02-0.89-0.07-1.32c-0.05-0.43-0.14-0.82-0.27-1.17c-0.14-0.35-0.32-0.62-0.56-0.83    c-0.24-0.21-0.55-0.31-0.94-0.31c-0.33,0-0.61,0.09-0.82,0.26c-0.22,0.17-0.39,0.41-0.51,0.72c-0.13,0.31-0.21,0.69-0.26,1.14    C-354.1-153.66-354.12-153.16-354.12-152.6z"></path>			<path class="st0" d="M-346.53-160.31h1.45v1.66h-1.45V-160.31z M-346.53-157.24h1.45v9.27h-1.45V-157.24z"></path>			<path class="st0" d="M-342.39-157.24h1.38v1.09h0.03c0.2-0.43,0.51-0.76,0.93-0.99c0.43-0.23,0.86-0.35,1.31-0.35    c0.61,0,1.08,0.1,1.41,0.3c0.33,0.2,0.57,0.45,0.73,0.75s0.24,0.62,0.27,0.96c0.02,0.34,0.03,0.65,0.03,0.93v6.57h-1.45v-6.4    c0-0.17-0.01-0.37-0.03-0.59c-0.02-0.22-0.07-0.42-0.16-0.61c-0.09-0.19-0.23-0.35-0.41-0.48c-0.19-0.13-0.44-0.19-0.76-0.19    c-0.2,0-0.4,0.03-0.61,0.1c-0.21,0.07-0.41,0.18-0.6,0.33c-0.19,0.15-0.33,0.34-0.45,0.58c-0.11,0.23-0.17,0.52-0.17,0.86v6.4    h-1.45V-157.24z"></path>			<path class="st0" d="M-327.57-148.56c0,0.69-0.08,1.28-0.23,1.76c-0.16,0.48-0.37,0.87-0.65,1.17c-0.28,0.3-0.61,0.52-0.99,0.65    c-0.39,0.13-0.81,0.2-1.27,0.2c-0.14,0-0.37-0.01-0.68-0.03c-0.32-0.02-0.64-0.11-0.97-0.25c-0.33-0.15-0.63-0.38-0.9-0.69    c-0.27-0.32-0.44-0.76-0.49-1.34h1.45c0.04,0.43,0.2,0.73,0.48,0.91c0.29,0.18,0.62,0.27,1,0.27c0.46,0,0.81-0.08,1.06-0.23    c0.25-0.16,0.43-0.34,0.54-0.56c0.11-0.22,0.17-0.45,0.18-0.68c0.01-0.24,0.02-0.43,0.02-0.6v-1.21h-0.04    c-0.16,0.39-0.43,0.7-0.82,0.92c-0.39,0.22-0.81,0.33-1.27,0.33c-0.45,0-0.83-0.09-1.15-0.26c-0.32-0.17-0.58-0.4-0.79-0.68    c-0.21-0.28-0.38-0.58-0.5-0.92c-0.12-0.34-0.21-0.68-0.28-1.03c-0.06-0.35-0.1-0.67-0.12-0.98c-0.02-0.31-0.03-0.56-0.03-0.77    c0-0.62,0.05-1.23,0.14-1.82c0.09-0.59,0.26-1.11,0.49-1.57c0.24-0.45,0.55-0.82,0.93-1.09c0.39-0.27,0.87-0.41,1.46-0.41    c0.25,0,0.49,0.04,0.72,0.12c0.22,0.08,0.42,0.18,0.6,0.31c0.17,0.13,0.32,0.28,0.44,0.45c0.12,0.17,0.2,0.35,0.25,0.54h0.03    v-1.18h1.38V-148.56z M-330.79-156.23c-0.33,0-0.61,0.09-0.82,0.26c-0.22,0.17-0.39,0.41-0.51,0.72    c-0.13,0.31-0.21,0.69-0.26,1.14c-0.05,0.45-0.08,0.95-0.08,1.5c0,0.38,0.02,0.77,0.06,1.17c0.04,0.4,0.12,0.76,0.23,1.09    c0.11,0.33,0.28,0.6,0.5,0.81c0.22,0.21,0.51,0.32,0.87,0.32c0.39,0,0.7-0.09,0.95-0.26c0.24-0.17,0.44-0.41,0.57-0.72    c0.14-0.31,0.23-0.66,0.27-1.08c0.05-0.41,0.07-0.86,0.07-1.33c0-0.45-0.02-0.89-0.07-1.32c-0.05-0.43-0.14-0.82-0.27-1.17    c-0.14-0.35-0.32-0.62-0.56-0.83C-330.08-156.13-330.4-156.23-330.79-156.23z"></path>			<path class="st0" d="M-321.73-160.31h1.68l2.37,5.77l2.49-5.77h1.56l-3.27,7.5v4.84h-1.56v-4.84L-321.73-160.31z"></path>			<path class="st0" d="M-313.8-152.6c0-0.66,0.05-1.28,0.15-1.87c0.1-0.59,0.27-1.1,0.52-1.54c0.25-0.45,0.59-0.8,1.02-1.06    c0.43-0.26,0.98-0.4,1.65-0.4c0.67,0,1.22,0.13,1.65,0.4c0.43,0.26,0.77,0.62,1.02,1.06c0.25,0.44,0.42,0.96,0.52,1.54    c0.1,0.59,0.15,1.21,0.15,1.87c0,0.66-0.05,1.28-0.15,1.87c-0.1,0.59-0.27,1.1-0.53,1.55c-0.25,0.44-0.59,0.8-1.02,1.06    c-0.43,0.26-0.98,0.4-1.64,0.4c-0.67,0-1.22-0.13-1.65-0.4c-0.43-0.26-0.77-0.62-1.02-1.06c-0.25-0.45-0.42-0.96-0.52-1.55    C-313.75-151.32-313.8-151.95-313.8-152.6z M-310.49-148.87c0.37,0,0.68-0.1,0.92-0.3c0.24-0.2,0.42-0.47,0.56-0.81    c0.13-0.34,0.23-0.73,0.27-1.18c0.04-0.45,0.07-0.93,0.07-1.43c0-0.5-0.02-0.97-0.07-1.43c-0.05-0.46-0.13-0.85-0.26-1.19    c-0.13-0.34-0.31-0.61-0.55-0.81c-0.24-0.2-0.55-0.3-0.93-0.3c-0.36,0-0.66,0.1-0.88,0.3c-0.22,0.2-0.4,0.47-0.53,0.81    c-0.13,0.34-0.22,0.74-0.26,1.19c-0.04,0.45-0.07,0.93-0.07,1.43c0,0.51,0.02,0.98,0.07,1.43c0.05,0.45,0.13,0.84,0.26,1.18    c0.12,0.34,0.3,0.61,0.53,0.81C-311.15-148.97-310.85-148.87-310.49-148.87z"></path>			<path class="st0" d="M-298.86-147.97h-1.38v-1.09h-0.04c-0.19,0.42-0.51,0.75-0.93,0.98c-0.43,0.23-0.86,0.35-1.32,0.35    c-0.61,0-1.08-0.1-1.41-0.3c-0.33-0.2-0.57-0.45-0.73-0.75c-0.16-0.3-0.25-0.62-0.27-0.96c-0.02-0.34-0.04-0.65-0.04-0.93v-6.57    h1.45v6.4c0,0.17,0.01,0.37,0.03,0.59c0.02,0.22,0.07,0.42,0.16,0.61c0.09,0.19,0.23,0.35,0.41,0.48s0.43,0.19,0.77,0.19    c0.19,0,0.4-0.04,0.61-0.11c0.21-0.07,0.41-0.18,0.6-0.33c0.18-0.15,0.33-0.34,0.45-0.58c0.12-0.23,0.17-0.52,0.17-0.86v-6.4    h1.45V-147.97z"></path>			<path class="st0" d="M-296.25-157.24h1.45v1.38h0.04c0.1-0.22,0.22-0.42,0.33-0.62c0.12-0.2,0.26-0.37,0.42-0.52    c0.16-0.15,0.34-0.27,0.55-0.35c0.2-0.09,0.43-0.13,0.7-0.13c0.29,0,0.5,0.04,0.64,0.1v1.42c-0.07-0.01-0.16-0.03-0.27-0.04    c-0.11-0.02-0.28-0.03-0.51-0.03c-0.18,0-0.39,0.04-0.61,0.13s-0.42,0.22-0.61,0.4c-0.19,0.18-0.35,0.41-0.49,0.68    c-0.13,0.28-0.2,0.61-0.2,0.99v5.86h-1.45V-157.24z"></path>			<path class="st0" d="M-285.52-160.31h1.56v11h4.98v1.35h-6.54V-160.31z"></path>			<path class="st0" d="M-275.94-152.43c0,0.36,0.01,0.74,0.02,1.16c0.02,0.42,0.08,0.8,0.2,1.16c0.11,0.36,0.28,0.65,0.52,0.89    c0.23,0.23,0.57,0.35,1.01,0.35c0.34,0,0.61-0.08,0.81-0.23c0.21-0.16,0.36-0.35,0.47-0.57c0.11-0.22,0.18-0.46,0.21-0.71    c0.04-0.25,0.05-0.46,0.05-0.63h1.49c0,0.24-0.04,0.55-0.13,0.93c-0.09,0.37-0.24,0.74-0.48,1.09c-0.23,0.35-0.55,0.65-0.95,0.9    c-0.4,0.25-0.92,0.37-1.56,0.37c-1.14,0-1.96-0.39-2.46-1.17c-0.5-0.78-0.75-1.98-0.75-3.58c0-0.58,0.04-1.16,0.11-1.75    c0.07-0.59,0.23-1.13,0.46-1.61c0.24-0.48,0.57-0.87,1-1.18c0.43-0.31,1-0.46,1.72-0.46c0.7,0,1.26,0.14,1.68,0.41    c0.42,0.28,0.73,0.63,0.93,1.06c0.21,0.43,0.34,0.91,0.4,1.44c0.06,0.53,0.09,1.05,0.09,1.54v0.59H-275.94z M-272.66-153.57v-0.5    c0-0.25-0.02-0.52-0.07-0.79c-0.05-0.27-0.13-0.52-0.25-0.73c-0.12-0.22-0.28-0.4-0.48-0.53c-0.21-0.14-0.46-0.21-0.78-0.21    c-0.37,0-0.67,0.1-0.89,0.3c-0.22,0.2-0.39,0.43-0.5,0.7c-0.11,0.27-0.18,0.53-0.22,0.8s-0.05,0.48-0.05,0.61v0.35H-272.66z"></path>			<path class="st0" d="M-269.03-154.44c0-1.05,0.24-1.82,0.73-2.31c0.48-0.49,1.28-0.73,2.38-0.73c0.7,0,1.25,0.09,1.63,0.28    c0.38,0.18,0.66,0.42,0.84,0.69c0.18,0.28,0.28,0.57,0.31,0.87c0.03,0.31,0.04,0.58,0.04,0.82v5.17c0,0.2,0.02,0.37,0.05,0.52    c0.04,0.15,0.17,0.22,0.4,0.22c0.09,0,0.16-0.01,0.22-0.02c0.05-0.02,0.09-0.04,0.13-0.06v1.04c-0.06,0.01-0.17,0.03-0.33,0.05    c-0.16,0.02-0.33,0.04-0.52,0.04c-0.14,0-0.28-0.01-0.42-0.02c-0.14-0.01-0.28-0.06-0.41-0.13c-0.13-0.08-0.24-0.19-0.33-0.35    c-0.09-0.16-0.13-0.39-0.15-0.69h-0.04c-0.23,0.41-0.55,0.74-0.96,0.98c-0.41,0.24-0.83,0.35-1.27,0.35    c-0.86,0-1.5-0.24-1.91-0.72c-0.41-0.49-0.61-1.14-0.61-1.97c0-0.66,0.14-1.2,0.42-1.63c0.28-0.43,0.72-0.74,1.32-0.92l1.95-0.59    c0.27-0.08,0.47-0.16,0.62-0.25c0.14-0.09,0.25-0.18,0.31-0.28c0.06-0.11,0.1-0.22,0.11-0.36c0.01-0.14,0.02-0.31,0.02-0.5    c0-0.91-0.5-1.37-1.49-1.37c-0.4,0-0.71,0.08-0.92,0.24c-0.21,0.15-0.37,0.33-0.47,0.54c-0.1,0.21-0.15,0.41-0.17,0.61    c-0.02,0.2-0.02,0.34-0.02,0.42v0.09H-269.03z M-264.55-153.02c-0.14,0.14-0.31,0.25-0.52,0.35c-0.21,0.09-0.43,0.18-0.67,0.25    c-0.23,0.08-0.46,0.15-0.69,0.22c-0.22,0.08-0.41,0.16-0.57,0.27c-0.23,0.15-0.4,0.33-0.52,0.55c-0.12,0.21-0.18,0.52-0.18,0.92    c0,0.48,0.09,0.87,0.28,1.16c0.19,0.29,0.53,0.43,1.02,0.43c0.24,0,0.47-0.05,0.69-0.14c0.22-0.09,0.42-0.22,0.59-0.38    c0.17-0.16,0.31-0.35,0.41-0.56c0.1-0.21,0.15-0.44,0.15-0.68V-153.02z"></path>			<path class="st0" d="M-254.32-147.97h-1.38v-1.14h-0.04c-0.05,0.17-0.13,0.34-0.25,0.51c-0.12,0.17-0.27,0.31-0.45,0.44    c-0.18,0.13-0.38,0.23-0.6,0.31c-0.22,0.08-0.45,0.12-0.71,0.12c-0.55,0-1.02-0.12-1.4-0.35c-0.38-0.23-0.69-0.57-0.93-0.99    c-0.24-0.43-0.42-0.94-0.53-1.54c-0.11-0.6-0.16-1.26-0.16-1.99c0-0.49,0.03-1.01,0.09-1.58c0.06-0.57,0.19-1.1,0.39-1.58    c0.2-0.48,0.49-0.89,0.88-1.22c0.39-0.33,0.91-0.49,1.56-0.49c0.42,0,0.82,0.11,1.21,0.35c0.39,0.23,0.67,0.55,0.83,0.95h0.03    v-4.13h1.45V-147.97z M-259.21-152.6c0,0.55,0.02,1.05,0.08,1.5c0.05,0.45,0.14,0.83,0.26,1.14c0.13,0.31,0.3,0.55,0.52,0.73    c0.22,0.17,0.49,0.26,0.82,0.26c0.39,0,0.7-0.09,0.95-0.27c0.24-0.18,0.43-0.43,0.56-0.75c0.13-0.32,0.22-0.7,0.26-1.15    c0.05-0.44,0.07-0.93,0.07-1.46c0-0.45-0.02-0.89-0.07-1.32c-0.05-0.43-0.14-0.82-0.27-1.17c-0.14-0.35-0.33-0.62-0.57-0.83    c-0.24-0.21-0.55-0.31-0.94-0.31c-0.33,0-0.61,0.09-0.82,0.26c-0.22,0.17-0.39,0.41-0.52,0.72c-0.12,0.31-0.21,0.69-0.26,1.14    C-259.18-153.66-259.21-153.16-259.21-152.6z"></path>			<path class="st0" d="M-250.46-152.43c0,0.36,0.01,0.74,0.02,1.16c0.02,0.42,0.08,0.8,0.19,1.16c0.11,0.36,0.29,0.65,0.52,0.89    c0.23,0.23,0.57,0.35,1.01,0.35c0.34,0,0.61-0.08,0.81-0.23c0.2-0.16,0.36-0.35,0.46-0.57c0.11-0.22,0.18-0.46,0.21-0.71    c0.03-0.25,0.05-0.46,0.05-0.63h1.49c0,0.24-0.04,0.55-0.13,0.93c-0.09,0.37-0.25,0.74-0.48,1.09c-0.23,0.35-0.55,0.65-0.95,0.9    c-0.4,0.25-0.92,0.37-1.56,0.37c-1.14,0-1.96-0.39-2.46-1.17c-0.5-0.78-0.75-1.98-0.75-3.58c0-0.58,0.04-1.16,0.11-1.75    c0.08-0.59,0.23-1.13,0.47-1.61c0.24-0.48,0.57-0.87,1-1.18c0.43-0.31,1-0.46,1.72-0.46c0.7,0,1.26,0.14,1.68,0.41    c0.41,0.28,0.73,0.63,0.93,1.06c0.21,0.43,0.34,0.91,0.4,1.44c0.06,0.53,0.09,1.05,0.09,1.54v0.59H-250.46z M-247.17-153.57v-0.5    c0-0.25-0.02-0.52-0.07-0.79c-0.04-0.27-0.13-0.52-0.24-0.73c-0.12-0.22-0.28-0.4-0.48-0.53c-0.2-0.14-0.46-0.21-0.78-0.21    c-0.37,0-0.67,0.1-0.89,0.3c-0.22,0.2-0.39,0.43-0.5,0.7c-0.11,0.27-0.19,0.53-0.22,0.8c-0.04,0.27-0.05,0.48-0.05,0.61v0.35    H-247.17z"></path>			<path class="st0" d="M-243.32-157.24h1.45v1.38h0.04c0.1-0.22,0.22-0.42,0.33-0.62c0.12-0.2,0.26-0.37,0.42-0.52    c0.16-0.15,0.34-0.27,0.55-0.35c0.2-0.09,0.43-0.13,0.7-0.13c0.29,0,0.5,0.04,0.64,0.1v1.42c-0.07-0.01-0.16-0.03-0.27-0.04    c-0.11-0.02-0.28-0.03-0.51-0.03c-0.18,0-0.39,0.04-0.61,0.13c-0.22,0.09-0.42,0.22-0.61,0.4c-0.19,0.18-0.35,0.41-0.49,0.68    c-0.13,0.28-0.2,0.61-0.2,0.99v5.86h-1.45V-157.24z"></path>			<path class="st0" d="M-233.52-154.52c0-0.59-0.09-1.04-0.28-1.35c-0.19-0.31-0.55-0.47-1.08-0.47c-0.12,0-0.26,0.02-0.43,0.04    c-0.17,0.03-0.34,0.09-0.49,0.18c-0.15,0.09-0.29,0.24-0.41,0.42c-0.12,0.19-0.17,0.45-0.17,0.77c0,0.28,0.06,0.5,0.2,0.68    c0.13,0.17,0.31,0.32,0.52,0.44s0.46,0.22,0.73,0.3c0.27,0.08,0.55,0.17,0.84,0.26c0.28,0.09,0.55,0.19,0.82,0.3    c0.27,0.11,0.51,0.26,0.72,0.45c0.21,0.19,0.39,0.43,0.52,0.73c0.13,0.29,0.2,0.67,0.2,1.13c0,0.48-0.08,0.91-0.22,1.27    c-0.15,0.36-0.36,0.66-0.62,0.91c-0.26,0.24-0.58,0.42-0.95,0.54c-0.37,0.12-0.76,0.18-1.19,0.18c-0.78,0-1.39-0.13-1.82-0.38    c-0.43-0.25-0.75-0.56-0.95-0.91c-0.2-0.35-0.32-0.71-0.36-1.08c-0.03-0.37-0.05-0.68-0.05-0.92h1.45c0,0.28,0.02,0.55,0.07,0.8    c0.05,0.26,0.13,0.49,0.26,0.69s0.3,0.36,0.53,0.48c0.22,0.12,0.52,0.17,0.87,0.17c0.11,0,0.26-0.02,0.43-0.05    c0.17-0.04,0.34-0.11,0.51-0.22c0.16-0.12,0.31-0.27,0.42-0.47c0.12-0.2,0.17-0.46,0.17-0.8c0-0.31-0.06-0.57-0.2-0.77    c-0.13-0.2-0.31-0.37-0.52-0.5c-0.21-0.13-0.46-0.25-0.73-0.34c-0.27-0.09-0.55-0.18-0.82-0.28s-0.55-0.19-0.83-0.3    c-0.28-0.11-0.52-0.26-0.73-0.44c-0.21-0.19-0.39-0.43-0.52-0.73c-0.13-0.3-0.2-0.69-0.2-1.16c0-0.43,0.08-0.8,0.23-1.12    c0.15-0.32,0.37-0.59,0.64-0.8c0.27-0.21,0.59-0.37,0.94-0.48c0.36-0.1,0.74-0.15,1.14-0.15c0.67,0,1.19,0.1,1.57,0.31    c0.38,0.21,0.66,0.46,0.85,0.76c0.18,0.3,0.29,0.62,0.33,0.96s0.06,0.65,0.06,0.92H-233.52z"></path>			<path class="st0" d="M-229.75-160.31h1.45v4.13h0.04c0.09-0.18,0.22-0.36,0.39-0.52c0.16-0.16,0.35-0.3,0.55-0.42    c0.2-0.11,0.42-0.21,0.64-0.27s0.44-0.09,0.65-0.09c0.6,0,1.06,0.1,1.38,0.3c0.32,0.2,0.56,0.45,0.71,0.75    c0.15,0.3,0.23,0.62,0.26,0.96c0.02,0.34,0.03,0.65,0.03,0.93v6.57h-1.45v-6.4c0-0.17-0.01-0.37-0.03-0.59    c-0.02-0.22-0.07-0.42-0.16-0.61c-0.09-0.19-0.23-0.35-0.41-0.48c-0.18-0.13-0.44-0.19-0.76-0.19c-0.19,0-0.4,0.03-0.61,0.1    c-0.21,0.07-0.41,0.18-0.6,0.33c-0.18,0.15-0.33,0.34-0.45,0.58c-0.12,0.23-0.17,0.52-0.17,0.86v6.4h-1.45V-160.31z"></path>			<path class="st0" d="M-220.95-160.31h1.45v1.66h-1.45V-160.31z M-220.95-157.24h1.45v9.27h-1.45V-157.24z"></path>			<path class="st0" d="M-216.81-157.24h1.38v1.14h0.04c0.05-0.17,0.13-0.34,0.25-0.51c0.12-0.17,0.27-0.31,0.45-0.44    c0.18-0.13,0.38-0.23,0.6-0.31c0.22-0.08,0.45-0.12,0.71-0.12c0.55,0,1.02,0.11,1.4,0.35c0.38,0.23,0.69,0.55,0.93,0.97    c0.24,0.42,0.42,0.91,0.53,1.49c0.11,0.58,0.16,1.21,0.16,1.9c0,0.53-0.05,1.09-0.14,1.67c-0.09,0.59-0.25,1.13-0.48,1.63    c-0.22,0.5-0.53,0.92-0.93,1.25c-0.39,0.33-0.89,0.49-1.49,0.49c-0.42,0-0.8-0.11-1.16-0.35c-0.36-0.23-0.62-0.55-0.78-0.95    h-0.04v4.1h-1.45V-157.24z M-215.44-152.6c0,0.45,0.02,0.89,0.07,1.32s0.14,0.82,0.27,1.17c0.14,0.35,0.32,0.62,0.56,0.83    c0.24,0.21,0.55,0.31,0.94,0.31c0.33,0,0.61-0.09,0.82-0.26c0.22-0.17,0.39-0.42,0.51-0.75c0.13-0.32,0.21-0.72,0.26-1.19    c0.05-0.47,0.08-1.01,0.08-1.61c0-0.51-0.03-0.98-0.08-1.4s-0.14-0.79-0.26-1.1c-0.12-0.31-0.3-0.54-0.51-0.71    c-0.22-0.16-0.49-0.25-0.82-0.25c-0.4,0-0.72,0.09-0.96,0.27c-0.24,0.18-0.42,0.43-0.56,0.75c-0.13,0.32-0.22,0.71-0.26,1.15    S-215.44-153.13-215.44-152.6z"></path>			<path class="st0" d="M-203.03-160.31h3.3c0.96,0,1.72,0.16,2.29,0.48c0.57,0.32,1,0.76,1.3,1.32c0.3,0.56,0.5,1.21,0.59,1.96    c0.09,0.75,0.14,1.55,0.14,2.4c0,0.78-0.06,1.54-0.17,2.28c-0.12,0.74-0.33,1.39-0.64,1.97c-0.31,0.58-0.74,1.04-1.28,1.39    c-0.54,0.35-1.23,0.53-2.07,0.53h-3.46V-160.31z M-201.47-149.22h1.59c0.66,0,1.18-0.15,1.57-0.46c0.38-0.31,0.68-0.69,0.88-1.17    c0.2-0.47,0.33-1,0.39-1.58c0.06-0.58,0.09-1.15,0.09-1.7c0-0.6-0.02-1.19-0.07-1.78c-0.05-0.59-0.16-1.12-0.35-1.58    c-0.19-0.47-0.48-0.85-0.87-1.14c-0.39-0.29-0.93-0.44-1.63-0.44h-1.59V-149.22z"></path>			<path class="st0" d="M-192.83-160.31h1.45v1.66h-1.45V-160.31z M-192.83-157.24h1.45v9.27h-1.45V-157.24z"></path>			<path class="st0" d="M-188.25-156.09h-1.35v-1.14h1.35v-1.09c0-0.7,0.16-1.23,0.48-1.59c0.32-0.36,0.83-0.53,1.53-0.53h1.06v1.25    h-0.68c-0.31,0-0.55,0.06-0.7,0.2c-0.16,0.13-0.24,0.36-0.24,0.68v1.09h1.59v1.14h-1.59v8.12h-1.45V-156.09z"></path>			<path class="st0" d="M-183.07-156.09h-1.35v-1.14h1.35v-1.09c0-0.7,0.16-1.23,0.48-1.59c0.32-0.36,0.83-0.53,1.53-0.53h1.05v1.25    h-0.68c-0.31,0-0.54,0.06-0.7,0.2c-0.15,0.13-0.23,0.36-0.23,0.68v1.09h1.59v1.14h-1.59v8.12h-1.45V-156.09z"></path>			<path class="st0" d="M-177.07-152.43c0,0.36,0.01,0.74,0.02,1.16c0.02,0.42,0.08,0.8,0.2,1.16c0.11,0.36,0.28,0.65,0.52,0.89    c0.23,0.23,0.57,0.35,1.01,0.35c0.34,0,0.61-0.08,0.81-0.23c0.21-0.16,0.36-0.35,0.47-0.57c0.11-0.22,0.18-0.46,0.21-0.71    c0.04-0.25,0.05-0.46,0.05-0.63h1.49c0,0.24-0.04,0.55-0.13,0.93c-0.09,0.37-0.24,0.74-0.48,1.09c-0.23,0.35-0.55,0.65-0.95,0.9    c-0.4,0.25-0.92,0.37-1.56,0.37c-1.14,0-1.96-0.39-2.46-1.17c-0.5-0.78-0.75-1.98-0.75-3.58c0-0.58,0.04-1.16,0.11-1.75    c0.07-0.59,0.23-1.13,0.46-1.61c0.24-0.48,0.57-0.87,1-1.18c0.43-0.31,1-0.46,1.72-0.46c0.7,0,1.26,0.14,1.68,0.41    c0.42,0.28,0.73,0.63,0.93,1.06c0.21,0.43,0.34,0.91,0.4,1.44c0.06,0.53,0.09,1.05,0.09,1.54v0.59H-177.07z M-173.78-153.57v-0.5    c0-0.25-0.02-0.52-0.07-0.79c-0.05-0.27-0.13-0.52-0.25-0.73c-0.12-0.22-0.28-0.4-0.48-0.53c-0.21-0.14-0.46-0.21-0.78-0.21    c-0.37,0-0.67,0.1-0.89,0.3c-0.22,0.2-0.39,0.43-0.5,0.7c-0.11,0.27-0.18,0.53-0.22,0.8s-0.05,0.48-0.05,0.61v0.35H-173.78z"></path>			<path class="st0" d="M-169.93-157.24h1.45v1.38h0.04c0.1-0.22,0.22-0.42,0.33-0.62c0.12-0.2,0.26-0.37,0.42-0.52    c0.16-0.15,0.34-0.27,0.55-0.35c0.2-0.09,0.43-0.13,0.7-0.13c0.29,0,0.5,0.04,0.64,0.1v1.42c-0.07-0.01-0.16-0.03-0.27-0.04    c-0.11-0.02-0.28-0.03-0.51-0.03c-0.18,0-0.39,0.04-0.6,0.13c-0.22,0.09-0.42,0.22-0.61,0.4c-0.19,0.18-0.35,0.41-0.49,0.68    c-0.13,0.28-0.2,0.61-0.2,0.99v5.86h-1.45V-157.24z"></path>			<path class="st0" d="M-162.86-152.43c0,0.36,0.01,0.74,0.02,1.16c0.02,0.42,0.08,0.8,0.2,1.16c0.11,0.36,0.28,0.65,0.52,0.89    c0.23,0.23,0.57,0.35,1.01,0.35c0.34,0,0.61-0.08,0.81-0.23c0.21-0.16,0.36-0.35,0.47-0.57c0.11-0.22,0.18-0.46,0.21-0.71    c0.04-0.25,0.05-0.46,0.05-0.63h1.49c0,0.24-0.04,0.55-0.13,0.93c-0.09,0.37-0.24,0.74-0.48,1.09c-0.23,0.35-0.55,0.65-0.95,0.9    c-0.4,0.25-0.92,0.37-1.56,0.37c-1.14,0-1.96-0.39-2.46-1.17c-0.5-0.78-0.75-1.98-0.75-3.58c0-0.58,0.04-1.16,0.11-1.75    c0.07-0.59,0.23-1.13,0.46-1.61c0.24-0.48,0.57-0.87,1-1.18c0.43-0.31,1-0.46,1.72-0.46c0.7,0,1.26,0.14,1.68,0.41    c0.42,0.28,0.73,0.63,0.93,1.06c0.21,0.43,0.34,0.91,0.4,1.44c0.06,0.53,0.09,1.05,0.09,1.54v0.59H-162.86z M-159.57-153.57v-0.5    c0-0.25-0.02-0.52-0.07-0.79c-0.05-0.27-0.13-0.52-0.25-0.73c-0.12-0.22-0.28-0.4-0.48-0.53c-0.21-0.14-0.46-0.21-0.78-0.21    c-0.37,0-0.67,0.1-0.89,0.3c-0.22,0.2-0.39,0.43-0.5,0.7c-0.11,0.27-0.18,0.53-0.22,0.8c-0.04,0.27-0.05,0.48-0.05,0.61v0.35    H-159.57z"></path>			<path class="st0" d="M-155.72-157.24h1.38v1.09h0.04c0.19-0.43,0.51-0.76,0.93-0.99c0.43-0.23,0.86-0.35,1.32-0.35    c0.61,0,1.08,0.1,1.41,0.3c0.33,0.2,0.57,0.45,0.73,0.75c0.16,0.3,0.25,0.62,0.27,0.96c0.02,0.34,0.04,0.65,0.04,0.93v6.57h-1.45    v-6.4c0-0.17-0.01-0.37-0.02-0.59c-0.02-0.22-0.07-0.42-0.16-0.61c-0.09-0.19-0.23-0.35-0.42-0.48    c-0.18-0.13-0.44-0.19-0.76-0.19c-0.2,0-0.4,0.03-0.61,0.1c-0.21,0.07-0.41,0.18-0.6,0.33c-0.19,0.15-0.33,0.34-0.45,0.58    c-0.11,0.23-0.17,0.52-0.17,0.86v6.4h-1.45V-157.24z"></path>			<path class="st0" d="M-146.57-159.93h1.45v2.7h1.61v1.14h-1.61v5.94c0,0.37,0.06,0.63,0.19,0.8c0.13,0.16,0.38,0.24,0.76,0.24    c0.16,0,0.29-0.01,0.38-0.02c0.09-0.01,0.18-0.02,0.26-0.04v1.19c-0.09,0.02-0.23,0.05-0.43,0.07c-0.19,0.02-0.44,0.04-0.74,0.04    c-0.38,0-0.69-0.04-0.93-0.11c-0.24-0.08-0.43-0.19-0.57-0.35c-0.14-0.16-0.23-0.35-0.28-0.58c-0.05-0.23-0.08-0.49-0.08-0.79    v-6.4h-1.35v-1.14h1.35V-159.93z"></path>			<path class="st0" d="M-141.74-160.31h1.45v1.66h-1.45V-160.31z M-141.74-157.24h1.45v9.27h-1.45V-157.24z"></path>			<path class="st0" d="M-137.81-154.44c0-1.05,0.24-1.82,0.73-2.31c0.48-0.49,1.28-0.73,2.38-0.73c0.7,0,1.25,0.09,1.63,0.28    c0.38,0.18,0.66,0.42,0.84,0.69c0.18,0.28,0.28,0.57,0.31,0.87c0.03,0.31,0.04,0.58,0.04,0.82v5.17c0,0.2,0.02,0.37,0.05,0.52    c0.04,0.15,0.17,0.22,0.4,0.22c0.09,0,0.16-0.01,0.22-0.02c0.05-0.02,0.09-0.04,0.13-0.06v1.04c-0.06,0.01-0.17,0.03-0.33,0.05    c-0.16,0.02-0.33,0.04-0.52,0.04c-0.14,0-0.28-0.01-0.42-0.02c-0.14-0.01-0.28-0.06-0.41-0.13c-0.13-0.08-0.24-0.19-0.33-0.35    c-0.09-0.16-0.13-0.39-0.15-0.69h-0.03c-0.23,0.41-0.55,0.74-0.96,0.98c-0.41,0.24-0.83,0.35-1.27,0.35    c-0.86,0-1.5-0.24-1.91-0.72c-0.41-0.49-0.61-1.14-0.61-1.97c0-0.66,0.14-1.2,0.42-1.63c0.28-0.43,0.72-0.74,1.32-0.92l1.95-0.59    c0.27-0.08,0.47-0.16,0.62-0.25c0.14-0.09,0.25-0.18,0.31-0.28c0.06-0.11,0.1-0.22,0.11-0.36c0.01-0.14,0.02-0.31,0.02-0.5    c0-0.91-0.5-1.37-1.49-1.37c-0.4,0-0.71,0.08-0.92,0.24c-0.21,0.15-0.37,0.33-0.47,0.54c-0.1,0.21-0.15,0.41-0.17,0.61    c-0.02,0.2-0.02,0.34-0.02,0.42v0.09H-137.81z M-133.33-153.02c-0.14,0.14-0.31,0.25-0.52,0.35c-0.21,0.09-0.43,0.18-0.67,0.25    c-0.24,0.08-0.46,0.15-0.69,0.22c-0.22,0.08-0.41,0.16-0.57,0.27c-0.23,0.15-0.4,0.33-0.52,0.55c-0.12,0.21-0.18,0.52-0.18,0.92    c0,0.48,0.09,0.87,0.28,1.16c0.19,0.29,0.53,0.43,1.02,0.43c0.24,0,0.47-0.05,0.69-0.14c0.22-0.09,0.42-0.22,0.59-0.38    c0.17-0.16,0.31-0.35,0.41-0.56s0.15-0.44,0.15-0.68V-153.02z"></path>			<path class="st0" d="M-128.6-159.93h1.45v2.7h1.61v1.14h-1.61v5.94c0,0.37,0.06,0.63,0.19,0.8c0.13,0.16,0.38,0.24,0.76,0.24    c0.16,0,0.29-0.01,0.38-0.02c0.09-0.01,0.18-0.02,0.26-0.04v1.19c-0.09,0.02-0.24,0.05-0.43,0.07c-0.2,0.02-0.45,0.04-0.75,0.04    c-0.38,0-0.69-0.04-0.93-0.11c-0.24-0.08-0.43-0.19-0.57-0.35c-0.14-0.16-0.23-0.35-0.29-0.58c-0.05-0.23-0.08-0.49-0.08-0.79    v-6.4h-1.35v-1.14h1.35V-159.93z"></path>			<path class="st0" d="M-124.29-152.6c0-0.66,0.05-1.28,0.15-1.87c0.1-0.59,0.27-1.1,0.52-1.54c0.25-0.45,0.59-0.8,1.02-1.06    c0.43-0.26,0.98-0.4,1.65-0.4c0.67,0,1.22,0.13,1.65,0.4c0.43,0.26,0.77,0.62,1.02,1.06c0.25,0.44,0.42,0.96,0.52,1.54    c0.1,0.59,0.15,1.21,0.15,1.87c0,0.66-0.05,1.28-0.15,1.87c-0.1,0.59-0.28,1.1-0.53,1.55c-0.25,0.44-0.59,0.8-1.02,1.06    c-0.43,0.26-0.98,0.4-1.64,0.4c-0.67,0-1.22-0.13-1.65-0.4c-0.43-0.26-0.77-0.62-1.02-1.06c-0.25-0.45-0.42-0.96-0.52-1.55    C-124.24-151.32-124.29-151.95-124.29-152.6z M-120.99-148.87c0.38,0,0.68-0.1,0.92-0.3c0.24-0.2,0.42-0.47,0.56-0.81    c0.14-0.34,0.22-0.73,0.27-1.18c0.05-0.45,0.07-0.93,0.07-1.43c0-0.5-0.02-0.97-0.07-1.43c-0.05-0.46-0.13-0.85-0.26-1.19    c-0.13-0.34-0.31-0.61-0.55-0.81c-0.24-0.2-0.55-0.3-0.93-0.3c-0.36,0-0.65,0.1-0.88,0.3c-0.23,0.2-0.41,0.47-0.53,0.81    c-0.13,0.34-0.22,0.74-0.26,1.19c-0.05,0.45-0.07,0.93-0.07,1.43c0,0.51,0.02,0.98,0.07,1.43c0.05,0.45,0.13,0.84,0.25,1.18    c0.12,0.34,0.3,0.61,0.53,0.81S-121.35-148.87-120.99-148.87z"></path>			<path class="st0" d="M-115.46-157.24h1.45v1.38h0.03c0.1-0.22,0.22-0.42,0.33-0.62c0.12-0.2,0.26-0.37,0.42-0.52    c0.16-0.15,0.34-0.27,0.55-0.35c0.2-0.09,0.43-0.13,0.7-0.13c0.29,0,0.5,0.04,0.64,0.1v1.42c-0.07-0.01-0.16-0.03-0.27-0.04    c-0.11-0.02-0.28-0.03-0.51-0.03c-0.18,0-0.39,0.04-0.61,0.13c-0.22,0.09-0.42,0.22-0.61,0.4c-0.19,0.18-0.35,0.41-0.49,0.68    c-0.13,0.28-0.2,0.61-0.2,0.99v5.86h-1.45V-157.24z"></path>			<path class="st0" d="M-105.66-154.52c0-0.59-0.09-1.04-0.29-1.35c-0.19-0.31-0.55-0.47-1.08-0.47c-0.12,0-0.26,0.02-0.43,0.04    c-0.17,0.03-0.34,0.09-0.49,0.18c-0.16,0.09-0.29,0.24-0.41,0.42c-0.11,0.19-0.17,0.45-0.17,0.77c0,0.28,0.07,0.5,0.2,0.68    c0.13,0.17,0.31,0.32,0.52,0.44c0.21,0.12,0.45,0.22,0.73,0.3c0.27,0.08,0.55,0.17,0.84,0.26c0.28,0.09,0.55,0.19,0.82,0.3    c0.27,0.11,0.51,0.26,0.73,0.45c0.21,0.19,0.39,0.43,0.52,0.73c0.13,0.29,0.2,0.67,0.2,1.13c0,0.48-0.08,0.91-0.23,1.27    c-0.15,0.36-0.36,0.66-0.62,0.91c-0.26,0.24-0.58,0.42-0.95,0.54c-0.37,0.12-0.77,0.18-1.19,0.18c-0.78,0-1.39-0.13-1.82-0.38    c-0.43-0.25-0.75-0.56-0.95-0.91c-0.2-0.35-0.32-0.71-0.35-1.08c-0.04-0.37-0.05-0.68-0.05-0.92h1.45c0,0.28,0.02,0.55,0.07,0.8    c0.05,0.26,0.13,0.49,0.26,0.69c0.13,0.2,0.3,0.36,0.53,0.48c0.22,0.12,0.52,0.17,0.87,0.17c0.12,0,0.26-0.02,0.43-0.05    s0.34-0.11,0.51-0.22c0.17-0.12,0.31-0.27,0.42-0.47c0.12-0.2,0.17-0.46,0.17-0.8c0-0.31-0.07-0.57-0.2-0.77    c-0.13-0.2-0.31-0.37-0.52-0.5c-0.21-0.13-0.45-0.25-0.72-0.34c-0.27-0.09-0.55-0.18-0.82-0.28c-0.28-0.09-0.55-0.19-0.83-0.3    c-0.28-0.11-0.52-0.26-0.73-0.44c-0.21-0.19-0.39-0.43-0.52-0.73c-0.13-0.3-0.2-0.69-0.2-1.16c0-0.43,0.08-0.8,0.23-1.12    c0.16-0.32,0.37-0.59,0.64-0.8c0.27-0.21,0.58-0.37,0.94-0.48c0.36-0.1,0.74-0.15,1.14-0.15c0.67,0,1.19,0.1,1.57,0.31    c0.38,0.21,0.66,0.46,0.85,0.76c0.18,0.3,0.3,0.62,0.34,0.96c0.04,0.34,0.06,0.65,0.06,0.92H-105.66z"></path>		</g>	</g>	<g>		<g>			<path class="st1" d="M-269.08-226.53h19.92c2.3,0,4.45,0.27,6.47,0.82c2.01,0.55,3.76,1.41,5.26,2.59    c1.49,1.18,2.67,2.71,3.53,4.61c0.86,1.9,1.29,4.2,1.29,6.9c0,7.41-3.02,12.07-9.05,13.97v0.17c1.67,0.29,3.19,0.78,4.57,1.47    c1.38,0.69,2.54,1.65,3.49,2.89c0.95,1.24,1.68,2.79,2.2,4.66c0.52,1.87,0.78,4.09,0.78,6.68c0,2.59-0.45,4.91-1.34,6.98    c-0.89,2.07-2.16,3.84-3.79,5.3c-1.64,1.47-3.64,2.59-5.99,3.36c-2.36,0.78-4.97,1.16-7.85,1.16h-19.49V-226.53z M-251.49-200.58    c2.99,0,5.25-0.89,6.77-2.67c1.52-1.78,2.28-4.14,2.28-7.07c0-1.84-0.26-3.33-0.78-4.48c-0.52-1.15-1.22-2.04-2.11-2.67    c-0.89-0.63-1.94-1.06-3.15-1.3c-1.21-0.23-2.5-0.34-3.88-0.34h-6.9v18.54H-251.49z M-249.51-172.38c2.93,0,5.17-0.9,6.73-2.71    c1.55-1.81,2.33-4.53,2.33-8.15c0-3.33-0.88-5.91-2.63-7.72c-1.75-1.81-4.1-2.71-7.03-2.71h-9.14v21.3H-249.51z"></path>			<path class="st1" d="M-212.35-189.02l-15.86-37.51h10.95l10.35,26.56l10.6-26.56h10.26l-16.47,37.51v24.06h-9.83V-189.02z"></path>			<path class="st1" d="M-182.43-226.53h9.83v53.28h23.8v8.28h-33.63V-226.53z"></path>			<path class="st1" d="M-143.03-226.53h17.5c4.83,0,8.68,0.75,11.55,2.24c2.87,1.5,5.06,3.61,6.55,6.34    c1.49,2.73,2.47,5.98,2.93,9.74c0.46,3.77,0.69,7.92,0.69,12.46s-0.23,8.69-0.69,12.46c-0.46,3.77-1.44,7.01-2.93,9.74    c-1.5,2.73-3.68,4.84-6.55,6.34c-2.88,1.5-6.73,2.24-11.55,2.24h-17.5V-226.53z M-133.2-172.38h8.1c2.01,0,3.75-0.37,5.22-1.12    c1.47-0.75,2.66-2.01,3.58-3.79c0.92-1.78,1.59-4.18,2.03-7.2c0.43-3.02,0.65-6.77,0.65-11.25c0-4.31-0.2-7.96-0.6-10.95    c-0.4-2.99-1.05-5.4-1.94-7.24c-0.89-1.84-2.07-3.16-3.54-3.97c-1.47-0.8-3.26-1.2-5.39-1.2h-8.1V-172.38z"></path>		</g>		<g>			<path class="st2" d="M-311.37-181.74c-2.75,0-4.94,0-6.88,0c0.2,1.19,0.55,2.29,0.52,3.38c-0.03,1.49-0.3,2.99-0.54,4.48    c-0.12,0.72-0.4,1.41-0.7,2.42c-2.24-4.39-4.34-8.4-6.32-12.46c-0.58-1.19-1.26-1.68-2.57-1.42c-3.85,0.78-7.67,1.67-11.11,3.64    c-5.96,3.42-9.09,8.61-9.42,15.48c-0.05,1,0.25,1.52,1.33,1.44c0.5-0.04,1.01,0,1.51,0c20.24,0,40.48,0,60.71,0    c0.6,0,1.21-0.02,1.81,0c0.88,0.03,1.23-0.36,1.21-1.26c-0.08-4.38-1.38-8.33-4.28-11.61c-3.62-4.1-8.46-6.05-13.65-7.11    c-5.01-1.02-3.71-1.52-6.05,2.87c-1.81,3.4-3.56,6.82-5.62,10.77c-0.37-2.9-0.52-5.21-1.02-7.45    C-312.73-179.86-312.4-180.71-311.37-181.74z M-346.33-189.08c4.5,0,8.61,0.01,12.72-0.01c1.07-0.01,0.91-0.87,0.91-1.54    c0.01-4.83,0.13-9.67-0.07-14.49c-0.12-2.89-0.53-5.82-1.23-8.62c-1.02-4.11-3.18-7.65-6.88-9.92c-5.98-3.66-12.4-3.99-18.8-1.46    c-6.81,2.69-9.59,8.46-10.55,15.31c-0.89,6.31-0.42,12.66-0.5,18.99c-0.02,1.68,0.05,1.72,1.64,1.74c2.42,0.03,4.83,0.03,7.25,0    c1.53-0.02,3.08,0.16,4.82-0.19c-3.83-4.59-5.61-9.7-6.21-15.44c5.34-0.47,10.19-1.89,13.84-6.13c2.41,2.55,5.17,4.29,8.42,5.23    c0.62,0.18,1.01,0.54,0.89,1.32c-0.7,4.29-1.86,8.42-4.13,12.17C-344.78-191.18-345.45-190.32-346.33-189.08z M-316.1-226.57    c-5,0.13-9.63,2.91-12.25,8.76c-1,2.23-1.44,4.58-1.43,7.03c0.01,0.97,0.01,1.83-0.85,2.72c-1.58,1.64-1.31,4.28,0.59,5.5    c1.08,0.69,1.41,1.55,1.79,2.58c1.54,4.15,3.9,7.7,7.66,10.19c3.57,2.37,7.11,2.38,10.71,0.05c3.67-2.38,6.24-5.66,7.95-9.63    c0.55-1.28,0.97-2.51,2.14-3.5c1.39-1.17,1.61-3.6,0.48-4.96c-0.93-1.13-0.98-2.36-1.22-3.61c-0.3-1.57-0.41-3.19-0.81-4.74    C-303.02-222.66-308.09-226.53-316.1-226.57z M-359.76-184.22c-1.9,0.27-3.19,0.41-4.46,0.64c-3.99,0.72-7.81,1.92-11.19,4.24    c-4.46,3.07-6.65,7.4-6.9,12.74c-0.08,1.75-0.03,1.75,1.83,1.81c0.2,0.01,0.4,0,0.61,0c7.76,0,15.52,0,23.27-0.01    c0.67,0,1.35-0.09,2.45-0.18c-2.61-2.61-4.97-4.93-7.28-7.3c-0.9-0.92-1.69-1.94-2.52-2.91c0.69-0.85,1.38-1.69,2.06-2.54    c0.05-0.06,0.02-0.17,0.03-0.4c-1.08-0.08-2.16-0.16-3.66-0.27C-363.61-180.32-361.92-182.02-359.76-184.22z"></path>			<path class="st3" d="M-311.37-181.74c-1.04,1.03-1.36,1.89-1.08,3.15c0.5,2.24,0.65,4.55,1.02,7.45    c2.06-3.94,3.81-7.37,5.62-10.77c2.34-4.39,1.04-3.89,6.05-2.87c5.19,1.06,10.04,3.01,13.65,7.11c2.9,3.29,4.2,7.24,4.28,11.61    c0.02,0.9-0.33,1.29-1.21,1.26c-0.6-0.02-1.21,0-1.81,0c-20.24,0-40.48,0-60.71,0c-0.5,0-1.01-0.04-1.51,0    c-1.08,0.09-1.38-0.43-1.33-1.44c0.33-6.88,3.46-12.06,9.42-15.48c3.44-1.97,7.26-2.86,11.11-3.64c1.31-0.26,1.99,0.23,2.57,1.42    c1.98,4.06,4.08,8.06,6.32,12.46c0.3-1.01,0.59-1.7,0.7-2.42c0.24-1.49,0.51-2.98,0.54-4.48c0.02-1.09-0.32-2.19-0.52-3.38    C-316.31-181.74-314.12-181.74-311.37-181.74z"></path>			<path class="st4" d="M-346.33-189.08c0.87-1.25,1.55-2.1,2.11-3.03c2.27-3.75,3.43-7.88,4.13-12.17    c0.13-0.78-0.26-1.14-0.89-1.32c-3.25-0.93-6.01-2.68-8.42-5.23c-3.65,4.25-8.49,5.66-13.84,6.13c0.6,5.74,2.38,10.84,6.21,15.44    c-1.74,0.35-3.29,0.17-4.82,0.19c-2.42,0.03-4.83,0.03-7.25,0c-1.59-0.02-1.66-0.06-1.64-1.74c0.08-6.33-0.39-12.68,0.5-18.99    c0.96-6.84,3.73-12.62,10.55-15.31c6.4-2.53,12.82-2.2,18.8,1.46c3.7,2.26,5.85,5.81,6.88,9.92c0.7,2.8,1.11,5.73,1.23,8.62    c0.2,4.82,0.07,9.66,0.07,14.49c0,0.67,0.17,1.53-0.91,1.54C-337.72-189.06-341.83-189.08-346.33-189.08z"></path>			<path class="st3" d="M-316.1-226.57c8,0.03,13.07,3.91,14.78,10.4c0.41,1.54,0.51,3.17,0.81,4.74c0.24,1.25,0.28,2.49,1.22,3.61    c1.13,1.36,0.9,3.79-0.48,4.96c-1.17,0.99-1.59,2.21-2.14,3.5c-1.71,3.97-4.28,7.25-7.95,9.63c-3.59,2.33-7.14,2.32-10.71-0.05    c-3.76-2.49-6.12-6.04-7.66-10.19c-0.38-1.03-0.71-1.89-1.79-2.58c-1.9-1.22-2.17-3.86-0.59-5.5c0.86-0.89,0.85-1.75,0.85-2.72    c-0.02-2.45,0.43-4.8,1.43-7.03C-325.72-223.66-321.1-226.43-316.1-226.57z"></path>			<path class="st4" d="M-359.76-184.22c-2.16,2.19-3.85,3.9-5.75,5.82c1.5,0.11,2.58,0.19,3.66,0.27c-0.02,0.23,0.01,0.35-0.03,0.4    c-0.68,0.85-1.37,1.69-2.06,2.54c0.84,0.97,1.63,1.99,2.52,2.91c2.31,2.37,4.67,4.69,7.28,7.3c-1.11,0.09-1.78,0.18-2.45,0.18    c-7.76,0.01-15.52,0.01-23.27,0.01c-0.2,0-0.4,0.01-0.61,0c-1.86-0.06-1.91-0.06-1.83-1.81c0.25-5.35,2.44-9.68,6.9-12.74    c3.38-2.32,7.2-3.52,11.19-4.24C-362.95-183.8-361.66-183.94-359.76-184.22z"></path>		</g>	</g></g><g>	<path class="st5" d="M46.17,154.36c0.3,0.46,0.44,0.59,0.47,0.74c1.46,8.72,3.23,17.4,2.66,26.33c-0.18,2.75,0.92,3.68,3.74,3.69  c8.25,0,16.5,0,24.75,0c2.79,0,3.73-0.94,3.73-3.72c0.01-8.31-0.02-16.62,0.01-24.93c0.02-7.39,5.04-12.38,12.46-12.4  c7.33-0.02,14.67-0.03,22,0.02c1.39,0.01,2.82,0.18,4.15,0.57c5.1,1.5,8.3,5.99,8.32,11.63c0.03,8.49,0,16.99,0.01,25.48  c0,2.32,1.56,3.78,3.54,3.3c1.76-0.43,2.33-1.7,2.33-3.45c-0.03-8.43-0.03-16.87-0.01-25.3c0.01-3.71,1.24-6.89,4.28-9.47  c1.78,4.65,4.52,8.41,8.47,11.18c2.9,2.03,5.88,3.95,8.81,5.93c1.33,0.9,2.59,0.83,3.91-0.06c2.88-1.96,5.81-3.83,8.66-5.82  c3.64-2.55,6.29-5.92,8.03-10.01c0.15-0.36,0.35-0.7,0.54-1.07c2.85,2.3,4.23,5.37,4.24,9.45c0.02,8.43,0,16.87,0.01,25.3  c0,2.33,1.51,3.74,3.51,3.35c1.51-0.29,2.34-1.47,2.34-3.43c0.01-8.49-0.01-16.99,0.01-25.48c0.02-6.35-2.63-11.27-7.73-14.99  c-0.55-0.41-0.99-1.31-1.03-2.02c-0.13-2.19-0.02-4.4-0.05-6.6c-0.03-1.99-1.21-3.2-3-3.16c-1.7,0.04-2.8,1.23-2.83,3.14  c-0.03,2.2,0.06,4.4-0.03,6.6c-0.24,5.84-2.61,10.61-7.38,14.06c-2.08,1.5-4.22,2.92-6.4,4.27c-0.43,0.27-1.3,0.27-1.73,0.01  c-2.33-1.46-4.65-2.94-6.84-4.59c-3.71-2.8-6.35-6.52-6.59-11.18c-0.39-7.49-0.64-15.04-0.18-22.51c0.45-7.4,6.11-12.5,13.39-13.22  c6.29-0.63,12.7,3.5,14.81,9.71c0.56,1.65,0.68,3.45,0.95,5.19c0.25,1.6,1.41,2.66,2.98,2.64c1.56-0.03,2.75-1.14,2.85-2.75  c0.05-0.79,0.04-1.59-0.05-2.38c-1.23-11.04-10.62-18.83-22.05-18.29c-10.34,0.48-18.88,9.65-18.93,20.37  c-0.03,6.23,0,12.47-0.02,18.7c0,0.52,0,1.23-0.31,1.51c-1.87,1.7-3.82,3.3-5.78,4.97c-3.46-4.71-8.25-7.22-13.89-7.52  c0.79-2.33,1.78-4.51,2.22-6.8c0.27-1.4,0.72-2.39,1.73-3.38c4.25-4.14,5.46-10.4,3.21-15.88c-2.26-5.5-7.48-9.03-13.45-9.05  c-7.64-0.02-15.28-0.01-22.92,0c-2.35,0-3.6,1.04-3.6,2.93c0.01,1.89,1.26,2.91,3.62,2.92c7.46,0.01,14.91-0.02,22.37,0.01  c5.18,0.03,9.15,3.82,9.2,8.72c0.05,4.94-3.97,8.83-9.23,8.88c-3.61,0.03-7.21,0.03-10.82,0c-5.26-0.04-8.81-3.37-9.28-8.65  c-0.18-2.04-1.32-3.16-3.1-3.07c-1.75,0.09-2.8,1.35-2.74,3.41c0.12,4.12,1.82,7.53,4.79,10.34c0.39,0.37,0.88,0.76,1.01,1.22  c0.8,2.81,1.5,5.65,2.23,8.47c0.21-0.03,0.03,0.01-0.15,0.02c-9.44,0.55-16.65,8.11-16.7,17.53c-0.02,5.13,0,10.27-0.01,15.4  c0,0.58-0.05,1.15-0.08,1.74c-1.49-1.17-2.77-2.4-4.26-3.29c-1.14-0.68-1.57-1.36-1.56-2.7c0.05-24.32,0.03-48.64,0.03-72.97  c0-0.63,0-1.25,0-2c1.26,0.27,2.22,0.45,3.16,0.67c4.73,1.11,9.43,1.48,13.96-0.74c5.15-2.52,10.29-5.05,15.38-7.69  c3.16-1.64,4.68-4.37,4.48-7.96c-0.05-0.82-0.32-1.62-0.51-2.55c0.85,0,1.58,0,2.31,0c20.29,0,40.58,0.01,60.87-0.01  c4.88,0,8.83-3.69,8.86-8.39c0.06-7.88,0.05-15.77-0.03-23.65c-0.01-0.86-0.49-2.07-1.15-2.47c-0.8-0.48-2.25-0.68-2.99-0.25  c-0.81,0.47-1.57,1.78-1.59,2.74c-0.13,7.39-0.07,14.79-0.07,22.18c0,2.95-1.02,3.98-3.96,3.98c-7.7,0.01-15.4,0-23.1,0  c-14.06,0-28.11,0-42.17,0c-3.16,0-4.12-0.98-4.12-4.18c0-2.32,0.01-4.64,0-6.97c-0.02-2.64-1.29-3.78-3.94-3.46  c-2,0.24-3.98,0.6-5.97,0.88c-1.51,0.21-3.02,0.38-5.07,0.63c4.84-4.83,9.24-9.23,13.63-13.64c1.61-1.62,1.77-3.36,0.47-4.66  c-1.29-1.3-3.03-1.14-4.65,0.46c-2.52,2.49-5.01,5.01-7.52,7.52c-4.1,4.11-8.2,8.22-12.32,12.31c-1.01,1.01-1.35,2.18-0.77,3.5  c0.59,1.35,1.72,1.86,3.13,1.7c1.39-0.16,2.78-0.38,4.17-0.58c4.27-0.6,8.54-1.2,12.68-1.79c0.34,3.53,0.67,6.87,1.01,10.4  c-3.23,0.93-6.83,2.06-10.49,2.95c-1.14,0.28-2.5,0.12-3.64-0.23c-4.42-1.35-8.75-3-13.19-4.25c-2.17-0.61-4.53-0.55-6.83-0.8  c3.81-6.33,4.43-8.53,4.09-14.45c-0.1-1.76-1.21-2.92-2.84-2.96c-1.72-0.04-2.93,1.13-3,2.97c-0.04,1.04,0.02,2.08-0.03,3.12  c-0.27,6.24-4.99,11.09-11.16,11.48c-5.78,0.37-11.26-3.81-11.97-9.84c-0.52-4.43-0.1-8.97-0.1-13.62c0.64,0,1.3,0,1.95,0  c7.88,0,15.77,0.01,23.65,0c2.51,0,3.53-1.07,3.49-3.59c-0.1-7.27-6.57-13.85-13.86-13.96c-5.87-0.09-11.73-0.03-17.6-0.03  c-2.79,0-3.71,0.93-3.72,3.73c0,8.56-0.01,17.11,0.01,25.67c0,0.97-0.05,2.01,0.27,2.9c1.04,2.94,2.24,5.82,3.38,8.72  c0,0-0.4,0.04-0.8,0.04C19.96,68.01,11.15,76.9,11.13,88.5c-0.02,11.67-0.02,23.34,0,35.02c0.01,4.99,3.89,8.81,8.84,8.79  c4.85-0.02,8.67-3.84,8.73-8.72c0.01-0.96,0-1.92,0-2.88c11.85,0,23.48,0,35.07,0c0,15.67,0,31.21,0,46.76c-3.07,0-6,0-9.01,0  c-0.14-0.69-0.29-1.34-0.4-2c-1.69-10.04-3.36-20.08-5.07-30.12c-0.36-2.13-1.34-3.03-3.02-3.01c-1.66,0.02-2.58,0.91-2.95,3.09  c-1.22,7.09-2.39,14.19-3.59,21.28c-0.6,3.59-1.21,7.17-1.81,10.69c-3.19,0-6.15,0-9.22,0c0-0.73,0-1.33,0-1.94  c0-7.94,0.01-15.89,0-23.83c0-2.03-0.92-3.23-2.55-3.42c-1.97-0.23-3.29,1.11-3.3,3.41c-0.01,8.37-0.03,16.74,0.02,25.12  c0.01,1.36-0.33,2.13-1.59,2.86c-4.41,2.57-6.85,6.52-7.21,11.63c-0.2,2.86,0.86,3.89,3.72,3.89c7.27,0.01,14.54,0.01,21.82,0  c2.81,0,3.75-0.93,3.76-3.7c0.01-5.73-0.2-11.47,1.07-17.13C45.15,161.11,45.57,157.88,46.17,154.36z M135.74,9.12  c-11.24,0-22.49-0.02-33.73,0.01c-4.9,0.01-8.7,3.82-8.74,8.7c-0.03,2.81-0.02,5.62,0,8.43c0.01,2.16,1.13,3.4,2.97,3.37  c1.76-0.03,2.85-1.25,2.87-3.3c0.02-2.51-0.01-5.01,0.01-7.52c0.02-2.8,1.06-3.84,3.9-3.85c21.88-0.01,43.75-0.01,65.63,0  c2.72,0,3.79,1.07,3.81,3.76c0.02,3.42,0,6.84,0.01,10.27c0.01,2.33,1.07,3.59,2.97,3.57c1.88-0.03,2.88-1.28,2.88-3.65  c0.01-3.54,0.01-7.09,0-10.63c-0.01-5.49-3.69-9.16-9.21-9.16C157.98,9.11,146.86,9.12,135.74,9.12z M132.78,61.91  c7.15,0,14.3,0.01,21.45,0c2.31,0,3.58-1.09,3.54-2.99c-0.04-1.82-1.27-2.85-3.49-2.85c-5.68-0.01-11.37,0-17.05,0  c-8.62,0-17.23,0.02-25.85-0.02c-1.58-0.01-2.78,0.49-3.32,2.02c-0.71,1.99,0.76,3.83,3.09,3.84  C118.36,61.92,125.57,61.91,132.78,61.91z M143.12,26.71c6.66,0,13.32,0.06,19.98-0.06c1.01-0.02,2.31-0.58,2.93-1.34  c0.5-0.61,0.58-2.2,0.12-2.81c-0.62-0.82-1.93-1.56-2.96-1.57c-13.26-0.1-26.52-0.07-39.78-0.07c-2.5,0-3.77,1.02-3.74,2.97  c0.03,1.94,1.28,2.88,3.84,2.88C130.04,26.71,136.58,26.71,143.12,26.71z M131.28,38.44c6.78,0,13.57,0.01,20.35-0.01  c2.01-0.01,3.23-1.17,3.21-2.95c-0.02-1.7-1.21-2.88-3.09-2.88c-13.57-0.02-27.13-0.04-40.7,0.05c-0.92,0.01-2.15,0.69-2.69,1.45  c-1.36,1.93,0.2,4.32,2.75,4.33C117.84,38.46,124.56,38.44,131.28,38.44z M140.09,50.17c6.78,0,13.57,0.01,20.35-0.01  c2.01-0.01,3.22-1.18,3.2-2.96c-0.02-1.7-1.22-2.87-3.1-2.87c-13.57-0.02-27.13-0.04-40.7,0.05c-0.92,0.01-2.15,0.7-2.68,1.46  c-1.36,1.94,0.21,4.31,2.77,4.32C126.65,50.19,133.37,50.17,140.09,50.17z M87.39,174.67c0,2.38-0.02,4.77,0.01,7.15  c0.02,2.04,1.11,3.26,2.88,3.29c1.78,0.02,2.95-1.2,2.96-3.2c0.02-4.71,0.03-9.41,0-14.12c-0.01-2.01-1.18-3.22-2.97-3.19  c-1.77,0.03-2.85,1.24-2.87,3.29C87.38,170.15,87.39,172.41,87.39,174.67z M122.58,174.98c0-2.44,0.03-4.89-0.01-7.33  c-0.03-1.87-1.21-3.05-2.93-3.05c-1.71,0-2.89,1.19-2.9,3.07c-0.03,4.77-0.03,9.53,0,14.3c0.01,1.91,1.13,3.1,2.83,3.14  c1.79,0.05,2.97-1.17,3-3.16C122.6,179.62,122.58,177.3,122.58,174.98z M146.05,174.98c0-2.44,0.03-4.89-0.01-7.33  c-0.03-1.87-1.21-3.05-2.93-3.05c-1.71,0-2.89,1.19-2.9,3.07c-0.03,4.77-0.03,9.53,0,14.3c0.01,1.91,1.13,3.1,2.83,3.14  c1.79,0.05,2.97-1.17,3-3.16C146.07,179.62,146.05,177.3,146.05,174.98z M175.38,174.97c0-2.44,0.03-4.89-0.01-7.33  c-0.03-1.87-1.22-3.05-2.94-3.04c-1.71,0.01-2.88,1.2-2.89,3.08c-0.03,4.77-0.03,9.53,0,14.3c0.01,1.9,1.14,3.1,2.84,3.13  c1.79,0.04,2.96-1.17,2.99-3.17C175.41,179.61,175.38,177.29,175.38,174.97z"></path>	<path class="st1" d="M46.17,154.36c-0.6,3.52-1.01,6.75-1.72,9.92c-1.27,5.67-1.06,11.4-1.07,17.13c0,2.77-0.95,3.7-3.76,3.7  c-7.27,0.01-14.54,0.01-21.82,0c-2.85,0-3.92-1.03-3.72-3.89c0.36-5.11,2.8-9.06,7.21-11.63c1.26-0.73,1.6-1.5,1.59-2.86  c-0.06-8.37-0.04-16.74-0.02-25.12c0-2.3,1.33-3.64,3.3-3.41c1.62,0.19,2.55,1.4,2.55,3.42c0.01,7.94,0,15.89,0,23.83  c0,0.6,0,1.21,0,1.94c3.07,0,6.03,0,9.22,0c0.6-3.52,1.21-7.11,1.81-10.69c1.19-7.09,2.37-14.19,3.59-21.28  c0.38-2.19,1.29-3.07,2.95-3.09c1.68-0.02,2.66,0.88,3.02,3.01c1.71,10.04,3.38,20.08,5.07,30.12c0.11,0.65,0.26,1.3,0.4,2  c3.01,0,5.94,0,9.01,0c0-15.54,0-31.08,0-46.76c-11.59,0-23.22,0-35.07,0c0,0.96,0.01,1.92,0,2.88c-0.06,4.89-3.89,8.71-8.73,8.72  c-4.95,0.02-8.83-3.8-8.84-8.79c-0.02-11.67-0.03-23.34,0-35.02c0.02-11.6,8.83-20.49,20.46-20.71c0.4-0.01,0.8-0.04,0.8-0.04  c-1.14-2.9-2.34-5.78-3.38-8.72c-0.32-0.89-0.27-1.93-0.27-2.9c-0.02-8.56-0.01-17.11-0.01-25.67c0-2.81,0.92-3.73,3.72-3.73  c5.87,0,11.73-0.07,17.6,0.03c7.3,0.12,13.76,6.69,13.86,13.96c0.04,2.52-0.98,3.59-3.49,3.59c-7.88,0.01-15.77,0-23.65,0  c-0.66,0-1.32,0-1.95,0c0,4.64-0.42,9.19,0.1,13.62c0.71,6.03,6.19,10.2,11.97,9.84c6.17-0.39,10.89-5.24,11.16-11.48  c0.04-1.04-0.01-2.08,0.03-3.12c0.07-1.84,1.28-3.02,3-2.97c1.63,0.04,2.74,1.2,2.84,2.96c0.33,5.92-0.29,8.12-4.09,14.45  c2.29,0.25,4.65,0.2,6.83,0.8c4.45,1.24,8.77,2.9,13.19,4.25c1.14,0.35,2.51,0.5,3.64,0.23c3.66-0.89,7.26-2.02,10.49-2.95  c-0.34-3.53-0.67-6.88-1.01-10.4c-4.15,0.58-8.42,1.18-12.68,1.79c-1.39,0.2-2.77,0.42-4.17,0.58c-1.42,0.16-2.54-0.35-3.13-1.7  c-0.58-1.32-0.25-2.48,0.77-3.5c4.11-4.1,8.21-8.21,12.32-12.31c2.51-2.51,5-5.02,7.52-7.52c1.62-1.61,3.36-1.76,4.65-0.46  c1.29,1.3,1.14,3.04-0.47,4.66c-4.39,4.41-8.8,8.8-13.63,13.64c2.05-0.25,3.56-0.42,5.07-0.63c1.99-0.28,3.98-0.64,5.97-0.88  c2.65-0.32,3.92,0.82,3.94,3.46c0.01,2.32,0,4.64,0,6.97c0.01,3.21,0.96,4.18,4.12,4.18c14.06,0,28.11,0,42.17,0  c7.7,0,15.4,0.01,23.1,0c2.93,0,3.95-1.03,3.96-3.98c0.01-7.39-0.05-14.79,0.07-22.18c0.02-0.96,0.78-2.27,1.59-2.74  c0.74-0.43,2.19-0.23,2.99,0.25c0.66,0.4,1.14,1.61,1.15,2.47c0.08,7.88,0.09,15.77,0.03,23.65c-0.04,4.69-3.98,8.39-8.86,8.39  c-20.29,0.01-40.58,0.01-60.87,0.01c-0.73,0-1.46,0-2.31,0c0.19,0.93,0.46,1.73,0.51,2.55c0.2,3.59-1.32,6.32-4.48,7.96  c-5.09,2.64-10.23,5.17-15.38,7.69c-4.53,2.22-9.23,1.85-13.96,0.74c-0.95-0.22-1.9-0.4-3.16-0.67c0,0.75,0,1.37,0,2  c0,24.32,0.01,48.64-0.03,72.97c0,1.34,0.42,2.02,1.56,2.7c1.49,0.88,2.78,2.12,4.26,3.29c0.03-0.59,0.08-1.17,0.08-1.74  c0.01-5.13-0.02-10.27,0.01-15.4c0.05-9.42,7.26-16.98,16.7-17.53c0.18-0.01,0.36-0.06,0.15-0.02c-0.73-2.82-1.44-5.66-2.23-8.47  c-0.13-0.47-0.63-0.86-1.01-1.22c-2.97-2.82-4.67-6.22-4.79-10.34c-0.06-2.06,1-3.32,2.74-3.41c1.78-0.09,2.92,1.04,3.1,3.07  c0.47,5.28,4.02,8.61,9.28,8.65c3.61,0.03,7.21,0.03,10.82,0c5.27-0.05,9.29-3.93,9.23-8.88c-0.05-4.9-4.01-8.69-9.2-8.72  c-7.46-0.04-14.91-0.01-22.37-0.01c-2.36,0-3.61-1.03-3.62-2.92c-0.01-1.89,1.25-2.93,3.6-2.93c7.64-0.01,15.28-0.02,22.92,0  c5.97,0.02,11.19,3.55,13.45,9.05c2.25,5.48,1.04,11.74-3.21,15.88c-1.01,0.99-1.46,1.98-1.73,3.38c-0.44,2.29-1.43,4.47-2.22,6.8  c5.65,0.31,10.43,2.81,13.89,7.52c1.96-1.67,3.92-3.27,5.78-4.97c0.31-0.28,0.31-1,0.31-1.51c0.02-6.23-0.02-12.47,0.02-18.7  c0.05-10.72,8.6-19.88,18.93-20.37c11.43-0.53,20.82,7.25,22.05,18.29c0.09,0.79,0.1,1.59,0.05,2.38c-0.1,1.61-1.29,2.72-2.85,2.75  c-1.57,0.03-2.73-1.04-2.98-2.64c-0.27-1.74-0.39-3.54-0.95-5.19c-2.1-6.21-8.51-10.33-14.81-9.71  c-7.28,0.72-12.93,5.82-13.39,13.22c-0.46,7.48-0.21,15.02,0.18,22.51c0.24,4.66,2.88,8.38,6.59,11.18  c2.19,1.65,4.51,3.13,6.84,4.59c0.42,0.26,1.3,0.26,1.73-0.01c2.18-1.35,4.32-2.77,6.4-4.27c4.77-3.45,7.15-8.22,7.38-14.06  c0.09-2.2,0-4.4,0.03-6.6c0.03-1.91,1.13-3.1,2.83-3.14c1.79-0.04,2.97,1.17,3,3.16c0.03,2.2-0.08,4.4,0.05,6.6  c0.04,0.7,0.48,1.61,1.03,2.02c5.09,3.72,7.74,8.64,7.73,14.99c-0.02,8.49,0,16.99-0.01,25.48c0,1.96-0.82,3.14-2.34,3.43  c-2,0.39-3.5-1.02-3.51-3.35c-0.01-8.43,0.01-16.87-0.01-25.3c-0.01-4.08-1.38-7.15-4.24-9.45c-0.19,0.37-0.39,0.71-0.54,1.07  c-1.74,4.09-4.38,7.47-8.03,10.01c-2.85,1.99-5.78,3.87-8.66,5.82c-1.31,0.89-2.58,0.96-3.91,0.06c-2.93-1.98-5.91-3.9-8.81-5.93  c-3.96-2.77-6.69-6.53-8.47-11.18c-3.04,2.58-4.27,5.76-4.28,9.47c-0.02,8.43-0.02,16.87,0.01,25.3c0.01,1.74-0.57,3.02-2.33,3.45  c-1.98,0.48-3.53-0.98-3.54-3.3c-0.01-8.49,0.02-16.99-0.01-25.48c-0.02-5.63-3.22-10.13-8.32-11.63  c-1.33-0.39-2.76-0.56-4.15-0.57c-7.33-0.05-14.67-0.04-22-0.02c-7.42,0.02-12.44,5.01-12.46,12.4c-0.02,8.31,0,16.62-0.01,24.93  c0,2.79-0.94,3.72-3.73,3.72c-8.25,0.01-16.5,0-24.75,0c-2.82,0-3.92-0.94-3.74-3.69c0.58-8.93-1.2-17.61-2.66-26.33  C46.61,154.95,46.47,154.82,46.17,154.36z M43.27,114.64c0-9.13,0-18.12,0-27.32c-2.52,1.25-4.84,2.46-7.21,3.55  c-2.14,0.99-3.92,0.05-4.4-2.25c-0.29-1.37-0.49-2.76-0.73-4.14c-0.59-3.47-1.17-6.93-1.76-10.45c-0.44,0.04-0.68,0.03-0.91,0.09  c-6.72,1.69-11.22,7.39-11.28,14.44c-0.06,6.97-0.01,13.93-0.01,20.9c0,1.7,0,3.39,0,5.16c2.03,0,3.88,0,5.88,0  c0-0.77,0-1.43,0-2.08c0-5.93-0.01-11.86,0-17.78c0-2.22,1.03-3.45,2.86-3.49c1.9-0.04,2.98,1.23,2.99,3.55  c0.01,4.22,0,8.43,0,12.65c0,2.37,0,4.73,0,7.18C33.64,114.64,38.38,114.64,43.27,114.64z M89.4,77.47  c-1.85,0.52-3.63,0.91-5.33,1.52c-1.84,0.65-3.49,0.44-5.3-0.23c-4.38-1.64-8.83-3.07-13.27-4.57c-1.43-0.48-2.16-0.16-2.39,1.57  c-0.56,4.16-1.32,8.3-2.07,12.43c-0.54,2.97-2.28,3.77-5.04,2.41c-2.17-1.07-4.33-2.15-6.66-3.3c0,9.25,0,18.25,0,27.32  c4.87,0,9.66,0,14.59,0c0-0.76,0-1.42,0-2.08c0-7.81,0-15.63,0-23.44c0-2.99,1.4-4.14,4.28-3.55c2.62,0.54,5.25,1.06,7.87,1.64  c2.56,0.57,5.11,0.67,7.55-0.38c2.29-0.99,4.52-2.13,6.72-3.31c0.36-0.19,0.71-0.99,0.61-1.39C90.55,80.59,89.97,79.12,89.4,77.47z   M34.66,38.31c7.67,0,15.14,0,22.65,0c-1.28-3.54-4.29-5.64-8.22-5.72c-3.24-0.06-6.47-0.02-9.71-0.02c-1.56,0-3.13,0-4.72,0  C34.66,34.63,34.66,36.44,34.66,38.31z M20.54,179.12c5.76,0,11.33,0,16.89,0c0-1.94,0-3.75,0-5.65c-3.3,0-6.54-0.23-9.73,0.06  C24.33,173.84,21.92,175.78,20.54,179.12z M55.2,179.15c5.66,0,11.18,0,16.96,0c-1.31-2.9-3.2-4.99-6.16-5.37  c-3.53-0.45-7.13-0.39-10.8-0.55C55.2,175.38,55.2,177.19,55.2,179.15z M112.97,132.37c-5.33,0-10.64,0-15.96,0  c0.87,3.32,4.33,5.81,7.97,5.82C108.62,138.19,112.03,135.74,112.97,132.37z M41.82,81.38c-2.1-2.79-4.04-5.35-5.97-7.91  c-0.22,0.11-0.43,0.21-0.65,0.32c0.54,3.29,1.08,6.59,1.65,10.08C38.54,83.02,40.04,82.26,41.82,81.38z M50.82,81.38  c1.81,0.89,3.32,1.64,4.97,2.46c0.57-3.47,1.1-6.77,1.64-10.06c-0.21-0.1-0.43-0.2-0.64-0.29C54.85,76.04,52.92,78.6,50.82,81.38z   M16.99,120.66c0.07,2.11-0.61,4.34,1.68,5.35c0.82,0.36,2.26,0.19,2.99-0.34c1.74-1.25,1.18-3.21,1.07-5.02  C20.79,120.66,18.98,120.66,16.99,120.66z M96.69,80.35c1.13-0.58,2.31-0.92,3.11-1.67c0.57-0.54,1.06-1.78,0.82-2.4  c-0.26-0.66-1.42-1.28-2.22-1.32c-1.01-0.05-2.04,0.5-3.21,0.84C95.71,77.4,96.18,78.82,96.69,80.35z M43.4,73.62  c1.08,1.42,1.94,2.56,2.93,3.86c1.01-1.35,1.88-2.51,2.89-3.86C47.14,73.62,45.44,73.62,43.4,73.62z"></path>	<path class="st1" d="M135.74,9.12c11.12,0,22.24-0.01,33.36,0c5.52,0,9.19,3.67,9.21,9.16c0.01,3.54,0.01,7.09,0,10.63  c-0.01,2.38-1,3.63-2.88,3.65c-1.89,0.03-2.96-1.24-2.97-3.57c-0.01-3.42,0.01-6.84-0.01-10.27c-0.01-2.69-1.09-3.76-3.81-3.76  c-21.88-0.01-43.75-0.01-65.63,0c-2.84,0-3.89,1.04-3.9,3.85c-0.01,2.51,0.01,5.01-0.01,7.52c-0.02,2.05-1.1,3.27-2.87,3.3  c-1.84,0.03-2.96-1.22-2.97-3.37c-0.02-2.81-0.03-5.62,0-8.43c0.05-4.88,3.85-8.69,8.74-8.7C113.25,9.1,124.5,9.12,135.74,9.12z"></path>	<path class="st1" d="M132.78,61.91c-7.21,0-14.42,0.02-21.63-0.01c-2.33-0.01-3.8-1.85-3.09-3.84c0.55-1.53,1.74-2.02,3.32-2.02  c8.62,0.03,17.23,0.02,25.85,0.02c5.68,0,11.37-0.01,17.05,0c2.22,0,3.46,1.03,3.49,2.85c0.04,1.9-1.23,2.99-3.54,2.99  C147.08,61.91,139.93,61.91,132.78,61.91z"></path>	<path class="st1" d="M143.12,26.71c-6.54,0-13.08,0-19.62,0c-2.56,0-3.81-0.94-3.84-2.88c-0.03-1.95,1.24-2.97,3.74-2.97  c13.26,0,26.52-0.04,39.78,0.07c1.02,0.01,2.33,0.75,2.96,1.57c0.46,0.61,0.38,2.2-0.12,2.81c-0.62,0.76-1.91,1.33-2.93,1.34  C156.44,26.76,149.78,26.71,143.12,26.71z"></path>	<path class="st1" d="M131.28,38.44c-6.72,0-13.44,0.02-20.17-0.01c-2.55-0.01-4.11-2.4-2.75-4.33c0.54-0.76,1.77-1.44,2.69-1.45  c13.57-0.09,27.13-0.07,40.7-0.05c1.88,0,3.07,1.18,3.09,2.88c0.02,1.78-1.2,2.95-3.21,2.95  C144.85,38.45,138.06,38.44,131.28,38.44z"></path>	<path class="st1" d="M140.09,50.17c-6.72,0-13.44,0.02-20.17-0.01c-2.56-0.01-4.13-2.38-2.77-4.32c0.53-0.76,1.76-1.45,2.68-1.46  c13.57-0.09,27.13-0.07,40.7-0.05c1.89,0,3.08,1.17,3.1,2.87c0.02,1.78-1.19,2.96-3.2,2.96C153.66,50.19,146.88,50.17,140.09,50.17  z"></path>	<path class="st1" d="M87.39,174.67c0-2.26-0.02-4.52,0.01-6.78c0.02-2.05,1.1-3.26,2.87-3.29c1.79-0.03,2.96,1.18,2.97,3.19  c0.03,4.71,0.03,9.41,0,14.12c-0.01,2.01-1.18,3.23-2.96,3.2c-1.77-0.02-2.86-1.24-2.88-3.29  C87.38,179.44,87.39,177.05,87.39,174.67z"></path>	<path class="st1" d="M122.58,174.98c0,2.32,0.03,4.64-0.01,6.97c-0.03,1.99-1.22,3.21-3,3.16c-1.7-0.04-2.82-1.24-2.83-3.14  c-0.03-4.77-0.03-9.53,0-14.3c0.01-1.88,1.19-3.06,2.9-3.07c1.72,0,2.89,1.18,2.93,3.05C122.61,170.09,122.58,172.53,122.58,174.98  z"></path>	<path class="st1" d="M146.05,174.98c0,2.32,0.03,4.64-0.01,6.97c-0.03,1.99-1.22,3.21-3,3.16c-1.7-0.04-2.82-1.24-2.83-3.14  c-0.03-4.77-0.03-9.53,0-14.3c0.01-1.88,1.19-3.06,2.9-3.07c1.72,0,2.89,1.18,2.93,3.05C146.08,170.09,146.05,172.53,146.05,174.98  z"></path>	<path class="st1" d="M175.38,174.97c0,2.32,0.02,4.64-0.01,6.97c-0.03,2-1.2,3.21-2.99,3.17c-1.7-0.04-2.83-1.23-2.84-3.13  c-0.03-4.77-0.03-9.53,0-14.3c0.01-1.88,1.19-3.07,2.89-3.08c1.72-0.01,2.9,1.17,2.94,3.04  C175.41,170.08,175.38,172.52,175.38,174.97z"></path>	<path class="st5" d="M43.27,114.64c-4.88,0-9.63,0-14.56,0c0-2.45,0-4.81,0-7.18c0-4.22,0.01-8.43,0-12.65  c-0.01-2.32-1.09-3.58-2.99-3.55c-1.83,0.03-2.85,1.27-2.86,3.49c-0.01,5.93,0,11.86,0,17.78c0,0.66,0,1.32,0,2.08  c-2,0-3.85,0-5.88,0c0-1.77,0-3.46,0-5.16c0-6.97-0.04-13.93,0.01-20.9c0.06-7.06,4.55-12.76,11.28-14.44  c0.22-0.06,0.47-0.05,0.91-0.09c0.59,3.52,1.18,6.98,1.76,10.45c0.23,1.38,0.44,2.77,0.73,4.14c0.48,2.3,2.26,3.23,4.4,2.25  c2.37-1.09,4.69-2.3,7.21-3.55C43.27,96.51,43.27,105.51,43.27,114.64z"></path>	<path class="st5" d="M89.4,77.47c0.57,1.65,1.15,3.12,1.55,4.63c0.1,0.4-0.24,1.2-0.61,1.39c-2.2,1.18-4.43,2.31-6.72,3.31  c-2.44,1.06-4.99,0.95-7.55,0.38c-2.62-0.58-5.25-1.09-7.87-1.64c-2.88-0.59-4.28,0.56-4.28,3.55c-0.01,7.81,0,15.63,0,23.44  c0,0.66,0,1.32,0,2.08c-4.93,0-9.72,0-14.59,0c0-9.07,0-18.07,0-27.32c2.32,1.15,4.49,2.24,6.66,3.3c2.76,1.36,4.5,0.56,5.04-2.41  c0.76-4.13,1.52-8.27,2.07-12.43c0.23-1.73,0.96-2.05,2.39-1.57c4.43,1.5,8.89,2.93,13.27,4.57c1.81,0.68,3.46,0.89,5.3,0.23  C85.77,78.38,87.55,77.99,89.4,77.47z"></path>	<path class="st5" d="M34.66,38.31c0-1.87,0-3.68,0-5.74c1.59,0,3.16,0,4.72,0c3.24,0,6.48-0.05,9.71,0.02  c3.94,0.08,6.94,2.18,8.22,5.72C49.8,38.31,42.33,38.31,34.66,38.31z"></path>	<path class="st6" d="M20.54,179.12c1.38-3.35,3.78-5.29,7.16-5.59c3.19-0.29,6.43-0.06,9.73-0.06c0,1.9,0,3.71,0,5.65  C31.87,179.12,26.31,179.12,20.54,179.12z"></path>	<path class="st6" d="M55.2,179.15c0-1.97,0-3.78,0-5.92c3.66,0.16,7.26,0.09,10.8,0.55c2.97,0.38,4.85,2.48,6.16,5.37  C66.38,179.15,60.86,179.15,55.2,179.15z"></path>	<path class="st5" d="M112.97,132.37c-0.94,3.37-4.36,5.82-8,5.82c-3.64-0.01-7.09-2.5-7.97-5.82  C102.34,132.37,107.64,132.37,112.97,132.37z"></path>	<path class="st5" d="M41.82,81.38c-1.77,0.89-3.28,1.64-4.96,2.48c-0.57-3.49-1.11-6.78-1.65-10.08c0.22-0.11,0.43-0.21,0.65-0.32  C37.78,76.02,39.71,78.59,41.82,81.38z"></path>	<path class="st5" d="M50.82,81.38c2.1-2.78,4.04-5.34,5.97-7.9c0.21,0.1,0.43,0.2,0.64,0.29c-0.54,3.3-1.07,6.59-1.64,10.06  C54.13,83.02,52.62,82.27,50.82,81.38z"></path>	<path class="st5" d="M16.99,120.66c1.98,0,3.79,0,5.75,0c0.11,1.8,0.67,3.77-1.07,5.02c-0.73,0.53-2.18,0.7-2.99,0.34  C16.38,125,17.06,122.77,16.99,120.66z"></path>	<path class="st5" d="M96.69,80.35c-0.51-1.54-0.98-2.95-1.51-4.55c1.17-0.34,2.21-0.89,3.21-0.84c0.8,0.04,1.96,0.66,2.22,1.32  c0.25,0.62-0.24,1.86-0.82,2.4C98.99,79.43,97.82,79.77,96.69,80.35z"></path>	<path class="st5" d="M43.4,73.62c2.04,0,3.74,0,5.82,0c-1.01,1.35-1.88,2.51-2.89,3.86C45.34,76.18,44.48,75.04,43.4,73.62z"></path></g></svg>