<svg xmlns="http://www.w3.org/2000/svg" xmlns:xlink="http://www.w3.org/1999/xlink" id="Layer_1" x="0px" y="0px" viewBox="0 0 196.22 191.08" style="enable-background:new 0 0 196.22 191.08;" xml:space="preserve"><style type="text/css">	.st0{fill:#FFFFFF;}	.st1{fill:#326FB1;}	.st2{fill:#EB8123;}</style><g>	<path class="st0" d="M99.78,78.19c0.76-0.42,1.09-0.61,1.42-0.78c4.68-2.45,6.48-6.65,4.71-10.99c-1.74-4.25-5.93-6.04-10.86-4.63  c-4.13,1.18-8.27,2.32-12.38,3.57c-1.48,0.45-2.75,0.31-4.19-0.25c-3.82-1.48-7.66-2.98-11.61-4.05c-2.88-0.78-5.94-0.89-9.05-1.31  c0.2-0.28,0.41-0.57,0.62-0.86c2.48-3.37,3.76-7.11,3.72-11.33c-0.05-5.13,0.03-10.27-0.03-15.4c-0.09-7.92-6.81-14.63-14.73-14.7  c-6.08-0.06-12.17-0.02-18.25-0.01c-2.41,0.01-3.48,1.07-3.49,3.47c-0.02,3.68-0.01,7.35,0,11.03c0.01,2.74,1.01,3.73,3.8,3.74  c8.17,0.01,16.35,0,24.52,0c0.67,0,1.33,0,2.06,0c0,4.46,0.18,8.64-0.04,12.81c-0.33,6.33-5.27,11.12-11.53,11.52  c-5.99,0.38-11.4-3.99-12.48-10.2c-0.29-1.67-0.17-3.4-0.28-5.11c-0.11-1.7-1.29-2.86-2.9-2.91c-1.63-0.06-3.01,1.04-3.13,2.67  c-0.39,5.19,0.35,10.11,3.62,14.39c0.24,0.32,0.43,0.68,0.75,1.21c-1.06,0-1.89-0.02-2.71,0C17.08,60.36,7.61,69.67,7.44,79.93  c-0.17,10.52-0.09,21.04,0.02,31.56c0.01,0.99,0.79,2.34,1.63,2.89c2.03,1.34,4.36-0.35,4.36-3.04c0.02-9.57-0.01-19.14,0.02-28.71  c0-1.45,0.12-2.91,0.37-4.34c1.05-5.97,6.67-11.33,12.25-11.65c0.11,0.53,0.23,1.07,0.32,1.62c0.73,4.3,1.42,8.61,2.2,12.9  c0.57,3.11,2.33,3.93,5.22,2.53c2.26-1.1,4.51-2.21,7.01-3.45c0,0.96,0,1.64,0,2.31c0,9.57-0.01,19.14,0.01,28.71  c0,2.37,1.41,3.77,3.44,3.5c1.68-0.21,2.61-1.46,2.62-3.58c0.01-9.57,0-19.14,0-28.71c0-0.66,0-1.32,0-2.27  c2.74,1.37,5.14,2.63,7.59,3.76c2.21,1.03,4.07,0.05,4.57-2.31c0.3-1.42,0.51-2.86,0.75-4.3c0.61-3.6,1.21-7.2,1.84-10.94  c0.86,0.11,1.58,0.08,2.21,0.29c4.43,1.46,8.89,2.86,13.25,4.52c2.12,0.81,4.03,1.15,6.21,0.31c1.67-0.65,3.47-0.96,5.29-1.44  c0.67,2.07,1.26,3.9,1.87,5.78c-2.26,1.13-4.29,2.15-6.32,3.17c-2.74,1.38-5.58,1.91-8.64,1.21c-2.96-0.67-5.95-1.2-8.92-1.8  c-3.02-0.62-4.46,0.54-4.47,3.65c-0.01,9.63-0.01,19.26,0,28.9c0,2.46,1.05,3.75,3.01,3.77c1.96,0.01,3.05-1.3,3.06-3.72  c0.01-5.51,0-11.03,0-16.54c0-3.1,0-6.19,0-9.26c0.28-0.05,0.41-0.1,0.53-0.08c0.81,0.15,1.62,0.28,2.42,0.48  c5.35,1.37,10.62,1.6,15.71-1.05c0.52-0.27,1.23-0.23,1.85-0.23c13.88-0.01,27.76-0.01,41.63,0c0.55,0,1.09,0.07,1.75,0.11  c0,2.78-0.05,5.44,0.02,8.09c0.03,1.03-0.31,1.54-1.23,2.03c-3.79,2.03-5.65,6.13-4.7,10.06c1.02,4.2,4.52,7.05,8.73,7.1  c4.42,0.05,7.93-2.62,9.07-6.89c1.07-4.02-0.77-8.12-4.58-10.3c-0.49-0.28-1.17-0.79-1.19-1.22c-0.1-2.95-0.05-5.91-0.05-8.98  c0.86,0,1.48,0,2.11,0c15.34,0,30.67,0,46.01,0c2.28,0,3.57-1.1,3.59-3c0.02-1.9-1.27-3.04-3.52-3.07c-1.82-0.02-3.63,0-5.6,0  c0-0.9,0-1.58,0-2.27c0-7.86,0-15.72,0-23.57c0-0.44,0.01-0.89,0-1.33c-0.07-1.97-1.2-3.21-2.96-3.25  c-1.86-0.04-3.09,1.21-3.1,3.29c-0.02,7.98-0.01,15.97-0.01,23.95c0,1,0,1.99,0,3.08C149.77,78.19,125.02,78.19,99.78,78.19z   M24.13,157.39c-1.04,0-1.67-0.01-2.29,0c-7.6,0.18-14.3,6.84-14.43,14.42c-0.07,4.18-0.03,8.37-0.01,12.55  c0.01,2.12,1.14,3.39,2.97,3.42c1.91,0.03,3.08-1.26,3.09-3.5c0.02-3.68-0.01-7.35,0.01-11.03c0.03-5.91,3.87-9.78,9.75-9.8  c9.76-0.02,19.52-0.03,29.28,0c5.76,0.02,9.61,3.91,9.65,9.7c0.03,3.61,0,7.22,0.01,10.84c0.01,2.47,1.03,3.76,2.99,3.79  c1.96,0.03,3.07-1.29,3.08-3.7c0.01-3.68-0.02-7.35,0.01-11.03c0.05-5.65,3.92-9.57,9.57-9.59c9.82-0.04,19.65-0.03,29.47,0  c5.76,0.02,9.6,3.91,9.64,9.71c0.03,3.68,0,7.35,0.01,11.03c0.01,2.28,1.1,3.57,3,3.58c1.9,0.02,3.05-1.28,3.06-3.52  c0.02-3.68-0.01-7.35,0.01-11.03c0.03-5.89,3.88-9.76,9.77-9.77c9.7-0.02,19.39-0.02,29.09,0c5.99,0.01,9.79,3.87,9.82,9.92  c0.02,3.61-0.01,7.22,0.01,10.84c0.01,2.27,1.11,3.56,3.01,3.57c1.9,0.01,3.04-1.29,3.05-3.54c0.02-3.99,0.03-7.99,0-11.98  c-0.06-6.9-5.02-13.04-11.75-14.49c-1.51-0.33-3.08-0.39-4.76-0.59c0.52-0.75,1.01-1.39,1.43-2.07c3.19-5.1,3.85-10.49,1.8-16.16  c-0.73-2.02-2.28-2.84-3.95-2.23c-1.74,0.63-2.43,2.18-1.84,4.15c0.09,0.3,0.19,0.6,0.28,0.91c1.91,6.5-1.72,13.28-8.15,15.21  c-6.45,1.94-13.33-1.73-15.25-8.13c-1.95-6.51,1.63-13.21,8.1-15.25c2.78-0.88,5.47-0.61,8.19,0.31c1.8,0.61,3.36-0.2,3.98-1.88  c0.56-1.54-0.19-3.1-1.86-3.85c-0.4-0.18-0.83-0.32-1.25-0.45c-7.4-2.3-15.52,0.38-20.11,6.64c-4.55,6.2-4.71,14.62-0.39,21.01  c0.4,0.6,0.81,1.19,1.36,2c-5.73-0.32-10.11,1.85-13.33,5.63c-2.26-1.56-4.18-3.31-6.43-4.31c-2.22-0.98-4.77-1.21-7.18-1.77  c0.4-0.56,0.9-1.21,1.33-1.9c3.22-5.18,3.78-10.65,1.67-16.36c-0.68-1.83-2.35-2.56-3.95-1.93c-1.68,0.66-2.34,2.14-1.8,4.02  c0.11,0.36,0.24,0.72,0.35,1.08c1.45,5.06-0.43,10.44-4.7,13.42c-4.26,2.98-10.13,2.94-14.23-0.1c-4.24-3.14-6.02-8.51-4.49-13.52  c1.89-6.17,8.82-10.41,16-7.84c2.05,0.73,3.68-0.05,4.28-1.86c0.54-1.61-0.27-3.18-2.16-3.84c-6.55-2.32-12.67-1.37-18,3.06  c-5.33,4.43-7.6,10.3-6.23,17.12c0.63,3.12,2.27,6.03,3.44,9.03c-4.97-0.22-9.4,1.83-12.83,5.93c-5.55-4.78-5.55-4.78-13.55-6.11  c0.61-0.91,1.25-1.76,1.78-2.67c2.9-5.01,3.37-10.26,1.36-15.7c-0.69-1.86-2.28-2.64-3.89-2.07c-1.69,0.61-2.44,2.14-1.93,3.97  c0.1,0.37,0.24,0.72,0.35,1.08c1.45,4.9-0.28,10.25-4.27,13.24c-4.09,3.06-9.62,3.32-13.91,0.65c-4.3-2.68-6.56-7.86-5.52-12.8  c1.5-7.15,8.96-11.73,16.4-9.02c1.95,0.71,3.52-0.05,4.16-1.79c0.59-1.61-0.21-3.17-2.01-3.93c-10.99-4.62-24.3,4-24.7,15.93  C19.38,148.96,20.82,153.26,24.13,157.39z M174.7,11.43c0,8.84,0,17.45,0,26.07c0,2.94,0.98,4.29,3.08,4.26  c2.03-0.03,2.99-1.36,2.99-4.17c0-8.05,0-16.09,0-24.14c0-0.67,0-1.34,0-2.1c2.04,0,3.8,0.01,5.57,0c2.26-0.02,3.55-1.14,3.55-3.04  c0-1.9-1.29-3.02-3.56-3.03c-36.18-0.01-72.35-0.01-108.53,0c-2.24,0-3.52,1.17-3.49,3.09c0.03,1.83,1.3,2.95,3.42,2.97  c1.87,0.02,3.74,0,5.7,0c0,7.18,0,14.08,0,20.98c0,7.48-0.01,14.95,0,22.43c0,2.12,1.12,3.45,2.88,3.54  c1.91,0.1,3.18-1.33,3.18-3.63c0.01-13.68,0-27.37,0-41.05c0-0.73,0-1.46,0-2.18C118.03,11.43,146.26,11.43,174.7,11.43z   M130.96,26.65c-1.1,0.99-1.87,1.62-2.56,2.32c-8.1,8.1-5.4,19.92,5.38,23.65c5.67,1.96,7.38,7.72,3.69,12.48  c-0.66,0.85-1.4,1.65-1.93,2.58c-0.79,1.38-0.54,2.73,0.66,3.77c1.2,1.03,2.57,1.05,3.84,0.11c4.14-3.04,6.46-9.78,5.12-14.87  c-1.33-5.07-4.57-8.35-9.53-9.94c-2.79-0.9-4.74-2.6-5.5-5.5c-0.98-3.69,0.94-7.51,4.97-9.88c0.02,0.34,0.03,0.65,0.05,0.96  c0.1,2.13,1.23,3.35,3.06,3.34c1.83-0.01,2.99-1.28,3-3.39c0.03-2.85,0.03-5.7,0-8.55c-0.02-1.89-1.05-3.17-2.77-3.21  c-3.23-0.08-6.47-0.11-9.69,0.01c-1.67,0.06-2.61,1.18-2.71,2.87c-0.09,1.63,1.03,2.93,2.66,3.13  C129.24,26.6,129.79,26.59,130.96,26.65z M156.43,17.45c-5.1,0-9.12,4.05-9.11,9.17c0.02,5.08,4.08,9.08,9.22,9.07  c4.99-0.02,9.01-4.07,9.01-9.07C165.55,21.48,161.53,17.45,156.43,17.45z M116.88,72.18c5.11-0.01,9.14-4.05,9.12-9.16  c-0.01-5.09-4.08-9.09-9.21-9.07c-5.07,0.02-9.05,4.1-9.02,9.26C107.8,68.19,111.86,72.2,116.88,72.18z M19.55,99.53  c0,3.93-0.01,7.86,0.01,11.79c0.01,2.14,1.11,3.4,2.94,3.45c1.92,0.05,3.11-1.24,3.12-3.47c0.02-7.8,0.01-15.59,0-23.39  c0-2.26-1.14-3.55-3.04-3.54c-1.9,0.01-3.01,1.29-3.02,3.56C19.54,91.8,19.55,95.67,19.55,99.53z M103.48,32.94  c-0.62,0.49-1.21,0.87-1.7,1.36c-1.64,1.64-1.79,3.5-0.44,4.82c1.34,1.31,3.14,1.1,4.84-0.54c0.52-0.51,1.05-1.01,1.56-1.49  c3.51,3.15,4.96,3.69,6.38,2.14c2.76-3.02-0.43-4.63-1.84-6.58c3.07-3.67,3.57-5.09,1.99-6.45c-2.99-2.55-4.56,0.46-6.51,1.97  c-1.96-1.55-3.54-4.53-6.52-1.96C99.69,27.56,100.19,28.94,103.48,32.94z M159.5,49.43c-3.7-3.06-5.11-3.56-6.45-2.01  c-2.57,2.99,0.43,4.56,1.96,6.52c-1.48,1.91-4.61,3.61-2.06,6.32c2.79,2.96,4.59-0.41,6.52-1.82c3.65,3.09,5.1,3.59,6.45,2  c2.53-2.98-0.46-4.56-1.95-6.47c0.88-1.03,1.86-1.89,2.47-2.95c0.73-1.26,0.49-2.59-0.62-3.62C164.33,46,162.98,46.43,159.5,49.43z  "></path>	<path class="st1" d="M99.78,78.19c25.24,0,49.98,0,74.91,0c0-1.09,0-2.09,0-3.08c0-7.98-0.01-15.97,0.01-23.95  c0.01-2.07,1.24-3.33,3.1-3.29c1.76,0.04,2.89,1.28,2.96,3.25c0.01,0.44,0,0.89,0,1.33c0,7.86,0,15.72,0,23.57  c0,0.68,0,1.37,0,2.27c1.97,0,3.79-0.01,5.6,0c2.24,0.02,3.54,1.16,3.52,3.07c-0.02,1.9-1.31,3-3.59,3c-15.34,0.01-30.67,0-46.01,0  c-0.62,0-1.25,0-2.11,0c0,3.08-0.05,6.03,0.05,8.98c0.01,0.43,0.7,0.94,1.19,1.22c3.81,2.18,5.65,6.28,4.58,10.3  c-1.14,4.27-4.65,6.94-9.07,6.89c-4.21-0.05-7.71-2.9-8.73-7.1c-0.95-3.93,0.91-8.04,4.7-10.06c0.92-0.49,1.26-1.01,1.23-2.03  c-0.07-2.65-0.02-5.3-0.02-8.09c-0.66-0.04-1.21-0.11-1.75-0.11c-13.88-0.01-27.76-0.01-41.63,0c-0.62,0-1.33-0.04-1.85,0.23  c-5.1,2.65-10.36,2.42-15.71,1.05c-0.8-0.2-1.61-0.33-2.42-0.48c-0.12-0.02-0.25,0.03-0.53,0.08c0,3.07,0,6.17,0,9.26  c0,5.51,0.01,11.03,0,16.54c0,2.42-1.1,3.73-3.06,3.72c-1.96-0.01-3.01-1.31-3.01-3.77c-0.01-9.63-0.01-19.26,0-28.9  c0-3.1,1.45-4.26,4.47-3.65c2.97,0.61,5.96,1.13,8.92,1.8c3.06,0.7,5.9,0.17,8.64-1.21c2.03-1.02,4.06-2.04,6.32-3.17  c-0.61-1.88-1.2-3.71-1.87-5.78c-1.82,0.48-3.62,0.8-5.29,1.44c-2.17,0.84-4.09,0.5-6.21-0.31c-4.36-1.66-8.81-3.06-13.25-4.52  c-0.64-0.21-1.35-0.18-2.21-0.29c-0.63,3.74-1.23,7.34-1.84,10.94c-0.24,1.43-0.45,2.87-0.75,4.3c-0.5,2.37-2.36,3.34-4.57,2.31  c-2.45-1.14-4.85-2.4-7.59-3.76c0,0.95,0,1.61,0,2.27c0,9.57,0,19.14,0,28.71c0,2.11-0.94,3.36-2.62,3.58  c-2.03,0.26-3.44-1.14-3.44-3.5c-0.01-9.57-0.01-19.14-0.01-28.71c0-0.68,0-1.35,0-2.31c-2.51,1.23-4.76,2.35-7.01,3.45  c-2.89,1.4-4.65,0.59-5.22-2.53c-0.78-4.29-1.47-8.6-2.2-12.9c-0.09-0.55-0.22-1.09-0.32-1.62c-5.58,0.32-11.2,5.68-12.25,11.65  c-0.25,1.43-0.37,2.89-0.37,4.34c-0.03,9.57,0,19.14-0.02,28.71c-0.01,2.7-2.33,4.38-4.36,3.04c-0.84-0.55-1.62-1.9-1.63-2.89  c-0.11-10.52-0.19-21.04-0.02-31.56c0.17-10.25,9.64-19.57,19.89-19.87c0.82-0.02,1.64,0,2.71,0c-0.32-0.53-0.51-0.89-0.75-1.21  c-3.28-4.28-4.01-9.2-3.62-14.39c0.12-1.63,1.5-2.73,3.13-2.67c1.61,0.06,2.79,1.22,2.9,2.91c0.11,1.7-0.01,3.44,0.28,5.11  c1.08,6.22,6.49,10.58,12.48,10.2c6.26-0.39,11.2-5.19,11.53-11.52c0.22-4.17,0.04-8.35,0.04-12.81c-0.73,0-1.39,0-2.06,0  c-8.17,0-16.35,0-24.52,0c-2.79,0-3.79-0.99-3.8-3.74c-0.01-3.68-0.02-7.35,0-11.03c0.01-2.4,1.08-3.46,3.49-3.47  c6.08-0.02,12.17-0.05,18.25,0.01c7.92,0.07,14.64,6.78,14.73,14.7c0.06,5.13-0.02,10.27,0.03,15.4c0.04,4.21-1.23,7.96-3.72,11.33  c-0.21,0.29-0.42,0.57-0.62,0.86c3.11,0.43,6.17,0.53,9.05,1.31c3.95,1.07,7.79,2.57,11.61,4.05c1.44,0.56,2.71,0.7,4.19,0.25  c4.11-1.26,8.25-2.39,12.38-3.57c4.94-1.41,9.13,0.38,10.86,4.63c1.77,4.34-0.02,8.53-4.71,10.99  C100.87,77.58,100.55,77.77,99.78,78.19z M31.79,29.5c7.9,0,15.65,0,23.61,0c-1.44-3.5-3.94-5.63-7.44-5.82  c-5.35-0.29-10.72-0.08-16.17-0.08C31.79,25.59,31.79,27.46,31.79,29.5z M34.07,76.7c1.75-0.88,3.35-1.68,5.12-2.57  c-2.17-2.88-4.1-5.63-6.24-8.2c-0.2,0.12-0.4,0.24-0.6,0.36C32.91,69.69,33.47,73.08,34.07,76.7z M55.41,66.25  c-0.23-0.11-0.46-0.22-0.68-0.34c-2.02,2.69-4.04,5.38-6.16,8.22c1.83,0.91,3.39,1.69,5.13,2.56  C54.29,73.08,54.85,69.66,55.41,66.25z M135.11,99.58c-1.57,0.02-3.02,1.51-3,3.06c0.02,1.57,1.5,3.02,3.06,3  c1.57-0.03,3.01-1.5,3-3.06C138.15,101.01,136.67,99.56,135.11,99.58z M96.07,73.01c4.1-1.85,4.94-2.77,4.15-4.4  c-0.78-1.59-2.46-1.64-5.61-0.07C95.08,69.98,95.56,71.45,96.07,73.01z M43.89,70.1c1.09-1.46,1.98-2.65,2.95-3.96  c-2.09,0-3.88,0-5.93,0C41.95,67.52,42.84,68.71,43.89,70.1z"></path>	<path class="st1" d="M24.13,157.39c-3.31-4.13-4.76-8.43-4.59-13.32c0.4-11.93,13.71-20.54,24.7-15.93  c1.81,0.76,2.61,2.32,2.01,3.93c-0.64,1.74-2.21,2.5-4.16,1.79c-7.44-2.71-14.91,1.87-16.4,9.02c-1.04,4.94,1.23,10.12,5.52,12.8  c4.28,2.67,9.82,2.41,13.91-0.65c3.99-2.99,5.71-8.34,4.27-13.24c-0.11-0.36-0.25-0.72-0.35-1.08c-0.51-1.83,0.24-3.36,1.93-3.97  c1.61-0.58,3.2,0.21,3.89,2.07c2.01,5.43,1.55,10.68-1.36,15.7c-0.53,0.91-1.17,1.76-1.78,2.67c8,1.33,8,1.33,13.55,6.11  c3.43-4.11,7.85-6.15,12.83-5.93c-1.18-3-2.82-5.91-3.44-9.03c-1.37-6.82,0.9-12.69,6.23-17.12c5.33-4.43,11.45-5.38,18-3.06  c1.89,0.67,2.7,2.23,2.16,3.84c-0.61,1.81-2.24,2.59-4.28,1.86c-7.18-2.57-14.11,1.67-16,7.84c-1.54,5.02,0.24,10.38,4.49,13.52  c4.1,3.04,9.97,3.08,14.23,0.1c4.27-2.99,6.15-8.36,4.7-13.42c-0.1-0.36-0.24-0.72-0.35-1.08c-0.55-1.88,0.12-3.37,1.8-4.02  c1.6-0.63,3.28,0.11,3.95,1.93c2.12,5.71,1.55,11.18-1.67,16.36c-0.43,0.69-0.93,1.33-1.33,1.9c2.41,0.56,4.97,0.78,7.18,1.77  c2.25,1,4.17,2.75,6.43,4.31c3.23-3.78,7.6-5.95,13.33-5.63c-0.55-0.81-0.96-1.4-1.36-2c-4.32-6.39-4.17-14.8,0.39-21.01  c4.59-6.26,12.71-8.94,20.11-6.64c0.42,0.13,0.85,0.27,1.25,0.45c1.67,0.74,2.42,2.31,1.86,3.85c-0.61,1.68-2.17,2.49-3.98,1.88  c-2.72-0.92-5.4-1.18-8.19-0.31c-6.47,2.04-10.05,8.75-8.1,15.25c1.92,6.4,8.8,10.07,15.25,8.13c6.43-1.93,10.06-8.71,8.15-15.21  c-0.09-0.3-0.19-0.6-0.28-0.91c-0.59-1.97,0.1-3.52,1.84-4.15c1.67-0.61,3.22,0.22,3.95,2.23c2.05,5.67,1.4,11.07-1.8,16.16  c-0.43,0.68-0.91,1.32-1.43,2.07c1.68,0.2,3.25,0.26,4.76,0.59c6.73,1.45,11.69,7.59,11.75,14.49c0.04,3.99,0.02,7.99,0,11.98  c-0.01,2.25-1.15,3.55-3.05,3.54c-1.9-0.01-3-1.3-3.01-3.57c-0.01-3.61,0.01-7.22-0.01-10.84c-0.03-6.04-3.83-9.9-9.82-9.92  c-9.7-0.02-19.39-0.02-29.09,0c-5.89,0.01-9.74,3.88-9.77,9.77c-0.02,3.68,0.01,7.35-0.01,11.03c-0.01,2.24-1.16,3.54-3.06,3.52  c-1.9-0.02-2.99-1.31-3-3.58c-0.01-3.68,0.02-7.35-0.01-11.03c-0.04-5.8-3.89-9.69-9.64-9.71c-9.82-0.03-19.65-0.03-29.47,0  c-5.64,0.02-9.52,3.94-9.57,9.59c-0.03,3.68,0,7.35-0.01,11.03c-0.01,2.41-1.11,3.73-3.08,3.7c-1.95-0.03-2.98-1.32-2.99-3.79  c-0.01-3.61,0.02-7.22-0.01-10.84c-0.04-5.79-3.89-9.68-9.65-9.7c-9.76-0.03-19.52-0.03-29.28,0c-5.88,0.01-9.71,3.89-9.75,9.8  c-0.02,3.68,0.01,7.35-0.01,11.03c-0.01,2.24-1.18,3.53-3.09,3.5c-1.83-0.03-2.96-1.3-2.97-3.42c-0.02-4.18-0.06-8.37,0.01-12.55  c0.13-7.58,6.84-14.25,14.43-14.42C22.47,157.37,23.09,157.39,24.13,157.39z"></path>	<path class="st1" d="M174.7,11.43c-28.44,0-56.67,0-85.19,0c0,0.73,0,1.45,0,2.18c0,13.68,0,27.37,0,41.05  c0,2.3-1.27,3.72-3.18,3.63c-1.76-0.09-2.88-1.43-2.88-3.54c-0.01-7.48,0-14.95,0-22.43c0-6.9,0-13.8,0-20.98  c-1.96,0-3.83,0.02-5.7,0c-2.12-0.03-3.39-1.14-3.42-2.97c-0.03-1.92,1.24-3.09,3.49-3.09c36.18-0.01,72.35-0.01,108.53,0  c2.26,0,3.55,1.13,3.56,3.03c0,1.9-1.29,3.02-3.55,3.04c-1.77,0.02-3.53,0-5.57,0c0,0.77,0,1.44,0,2.1c0,8.05,0,16.09,0,24.14  c0,2.81-0.95,4.14-2.99,4.17c-2.1,0.03-3.08-1.32-3.08-4.26C174.69,28.88,174.7,20.27,174.7,11.43z"></path>	<path class="st2" d="M130.96,26.65c-1.17-0.06-1.72-0.05-2.26-0.12c-1.63-0.2-2.76-1.51-2.66-3.13c0.1-1.69,1.05-2.81,2.71-2.87  c3.23-0.12,6.46-0.1,9.69-0.01c1.71,0.04,2.75,1.32,2.77,3.21c0.03,2.85,0.03,5.7,0,8.55c-0.02,2.11-1.17,3.38-3,3.39  c-1.83,0.01-2.96-1.21-3.06-3.34c-0.01-0.31-0.03-0.63-0.05-0.96c-4.03,2.37-5.94,6.2-4.97,9.88c0.77,2.9,2.71,4.6,5.5,5.5  c4.95,1.59,8.2,4.87,9.53,9.94c1.34,5.09-0.98,11.83-5.12,14.87c-1.27,0.94-2.64,0.92-3.84-0.11c-1.2-1.03-1.45-2.39-0.66-3.77  c0.53-0.93,1.27-1.73,1.93-2.58c3.68-4.77,1.98-10.52-3.69-12.48c-10.79-3.73-13.48-15.55-5.38-23.65  C129.1,28.27,129.86,27.64,130.96,26.65z"></path>	<path class="st2" d="M156.43,17.45c5.1,0,9.12,4.03,9.12,9.16c0,5-4.02,9.06-9.01,9.07c-5.14,0.02-9.21-3.98-9.22-9.07  C147.31,21.5,151.33,17.45,156.43,17.45z M159.46,26.47c-0.06-1.58-1.57-3-3.12-2.94c-1.58,0.06-2.99,1.56-2.93,3.12  c0.06,1.58,1.55,2.99,3.12,2.94C158.1,29.54,159.52,28.03,159.46,26.47z"></path>	<path d="M116.88,72.18c-5.02,0.01-9.08-4-9.11-8.97c-0.03-5.15,3.95-9.23,9.02-9.26c5.13-0.02,9.19,3.98,9.21,9.07  C126.02,68.13,121.99,72.17,116.88,72.18z M119.92,63.06c0-1.57-1.47-3.03-3.03-3.02c-1.57,0.01-3.02,1.46-3.02,3.03  c0,1.57,1.46,3.02,3.03,3.02C118.46,66.09,119.92,64.62,119.92,63.06z"></path>	<path class="st1" d="M19.55,99.53c0-3.87-0.01-7.73,0-11.6c0.01-2.27,1.12-3.56,3.02-3.56c1.9-0.01,3.04,1.29,3.04,3.54  c0.01,7.8,0.01,15.59,0,23.39c0,2.23-1.2,3.52-3.12,3.47c-1.83-0.05-2.93-1.31-2.94-3.45C19.54,107.39,19.55,103.46,19.55,99.53z"></path>	<path class="st2" d="M103.48,32.94c-3.29-4-3.79-5.39-2.24-6.72c2.98-2.57,4.56,0.41,6.52,1.96c1.95-1.52,3.52-4.52,6.51-1.97  c1.58,1.35,1.09,2.78-1.99,6.45c1.41,1.94,4.6,3.56,1.84,6.58c-1.41,1.55-2.86,1-6.38-2.14c-0.51,0.49-1.04,0.99-1.56,1.49  c-1.69,1.65-3.5,1.85-4.84,0.54c-1.35-1.32-1.2-3.18,0.44-4.82C102.27,33.81,102.86,33.43,103.48,32.94z"></path>	<path class="st2" d="M159.5,49.43c3.48-3,4.83-3.43,6.32-2.04c1.11,1.04,1.35,2.37,0.62,3.62c-0.62,1.06-1.59,1.92-2.47,2.95  c1.5,1.91,4.48,3.49,1.95,6.47c-1.36,1.6-2.81,1.09-6.45-2c-1.93,1.41-3.73,4.79-6.52,1.82c-2.55-2.71,0.58-4.42,2.06-6.32  c-1.54-1.96-4.53-3.53-1.96-6.52C154.39,45.87,155.8,46.37,159.5,49.43z"></path>	<path class="st0" d="M47.97,23.69c3.5,0.19,5.99,2.31,7.44,5.82c-7.96,0-15.71,0-23.61,0c0-2.04,0-3.92,0-5.89"></path>	<path class="st0" d="M34.07,76.7c-0.6-3.61-1.16-7.01-1.72-10.41c0.2-0.12,0.4-0.24,0.6-0.36c2.14,2.57,4.07,5.32,6.24,8.2  C37.41,75.02,35.82,75.82,34.07,76.7z"></path>	<path class="st0" d="M55.41,66.25c-0.56,3.42-1.12,6.83-1.71,10.44c-1.75-0.87-3.31-1.65-5.13-2.56c2.12-2.83,4.14-5.52,6.16-8.22  C54.95,66.02,55.18,66.14,55.41,66.25z"></path>	<path class="st0" d="M135.11,99.58c1.56-0.02,3.04,1.43,3.06,3c0.02,1.57-1.42,3.04-3,3.06c-1.56,0.03-3.04-1.42-3.06-3  C132.09,101.09,133.54,99.6,135.11,99.58z"></path>	<path class="st0" d="M96.07,73.01c-0.51-1.56-0.99-3.02-1.46-4.47c3.15-1.57,4.84-1.52,5.61,0.07  C101.01,70.23,100.17,71.16,96.07,73.01z"></path>	<path class="st0" d="M46.84,66.14c-0.98,1.31-1.86,2.49-2.95,3.96c-1.05-1.39-1.94-2.58-2.98-3.96"></path>	<path class="st0" d="M159.46,26.47c0.06,1.56-1.36,3.07-2.94,3.12c-1.56,0.05-3.06-1.36-3.12-2.94c-0.06-1.56,1.35-3.06,2.93-3.12  C157.9,23.47,159.41,24.89,159.46,26.47z"></path>	<path class="st0" d="M119.92,63.06c0,1.56-1.46,3.03-3.02,3.03c-1.57,0-3.03-1.46-3.03-3.02c0-1.57,1.45-3.03,3.02-3.03  C118.45,60.03,119.91,61.49,119.92,63.06z"></path></g></svg>