<svg xmlns:dc="http://purl.org/dc/elements/1.1/" xmlns:cc="http://creativecommons.org/ns#" xmlns:rdf="http://www.w3.org/1999/02/22-rdf-syntax-ns#" xmlns:svg="http://www.w3.org/2000/svg" xmlns="http://www.w3.org/2000/svg" xmlns:sodipodi="http://sodipodi.sourceforge.net/DTD/sodipodi-0.dtd" xmlns:inkscape="http://www.inkscape.org/namespaces/inkscape" id="svg2" xml:space="preserve" width="243.37334" height="243.26666" viewBox="0 0 243.37334 243.26666" sodipodi:docname="icsv4.eps"><metadata></metadata><defs id="defs6"></defs><g id="g10" inkscape:groupmode="layer" inkscape:label="ink_ext_XXXXXX" transform="matrix(1.3333333,0,0,-1.3333333,0,243.26667)"><g id="g12" transform="scale(0.1)"><path d="m 1174.7,726.699 c 38.2,17.102 71.7,32 100.8,44.903 -18.8,19.097 -37.2,37.699 -55.6,56.398 -13.6,-30.602 -28.3,-63.398 -45.2,-101.301 z m 541.9,460.001 c 23.1,21 44.5,41.5 34.1,76.4 -6.7,22.6 -21.9,36.6 -44.5,40.9 -32.5,6.2 -53.1,-12.8 -70.4,-35.2 27.1,-27.5 53.6,-54.4 80.8,-82.1 z m -56.1,-52.1 c -25.5,25.7 -52.2,52.5 -77.8,78.3 C 1477.2,1107.4 1370.8,1001 1266,896.301 c 25.6,-25.602 52.3,-52.403 77.9,-78 105.2,105 211.3,211.099 316.6,316.299 z m -363.1,-102.1 c 22.9,23.2 42.5,41.9 60.4,62.1 5.9,6.7 10.5,17.2 10.6,26 0.6,190.5 0.5,381.1 0.4,571.6 0,42 -19,61.1 -60.7,61.1 -88.5,0.1 -176.9,0 -265.4,0 -5.8,0 -11.5,-0.5 -17.9,-0.8 0,-23.9 0,-46.6 0,-70.6 7.7,0 14.1,0 20.6,0 68.9,0 137.7,0 206.6,0 34.2,0 45.4,-11.4 45.4,-46.1 0,-192.9 0,-385.8 0,-578.7 0,-6.2 0,-12.4 0,-24.6 z m -345.599,719.8 c -155.801,0 -309.102,0 -463.699,0 0,-45.6 0,-90 0,-134.4 0,-35 14.597,-49.8 49.5,-49.9 53.398,-0.1 106.796,0 160.199,0 69.398,0 138.801,-0.1 208.301,0.1 26.898,0.1 45,14.1 45.398,37.5 1,48.5 0.301,97 0.301,146.7 z M 214.699,213.801 c 7.199,0 13.602,0 20,0 112.301,0 224.5,0 336.801,0 26.199,0 41.602,-13.403 41.5,-35.699 -0.102,-22.204 -15.5,-35.301 -41.898,-35.403 -128.903,0 -257.801,-0.097 -386.704,0 -28.597,0 -41.699,12.801 -41.699,40.903 0,485.796 0,971.598 0,1457.498 0,28.2 13,40.9 41.602,40.9 70.699,0.1 141.398,0 212.097,0 6.301,0 12.5,0 19.204,0 0,24.9 0,47.2 0,70.6 -6.704,0.3 -12.5,0.8 -18.204,0.8 -87.898,0 -175.796,0.1 -263.796,0 -44.0004,0 -62.3012,-18.6 -62.3012,-63.1 0,-518.5 0,-1036.999 0,-1555.499 0,-45.301 18.3008,-63.6018 63.6992,-63.6018 390.301,0 780.602,0 1170.9,0 44.4,0 63,18.4024 63,62.4998 0,194.199 0,388.403 0,582.602 0,5.597 0,11.097 0,18.199 -19.9,-9 -36.7,-17.801 -54.4,-24.102 -13.4,-4.796 -17.4,-11.699 -17.4,-25.898 0.6,-166.301 0.4,-332.602 0.3,-498.898 0,-30.704 -12.4,-43 -43.2,-43 -80.2,0 -160.4,0 -240.6,0 -49.901,0 -99.799,-0.301 -149.702,0.097 -25.597,0.199 -42.597,22.5 -35.796,45.602 4.898,16.597 18.597,25.398 40.199,25.398 112.898,0 225.699,0 338.599,0 6.2,0 12.4,0 18.6,0 0,153.403 0,304 0,456.602 -33.8,-14.903 -66.1,-29.301 -98.5,-43.5 -22.7,-10 -36.8,-8.903 -49,4.398 -13.7,15 -10.7,31.102 -3.1,47.903 29,64.296 58.4,128.398 85.8,193.296 12.7,30.204 29.2,56.301 53.4,78.5 6.7,6.204 11.7,18 11.7,27.204 0.7,204.898 0.5,409.798 0.5,614.698 0,5.7 -0.5,11.4 -0.8,16.8 -68,0 -134.3,0 -200.5,0 -0.7,-2.7 -1.5,-4.4 -1.5,-6 -0.2,-56.7 -51.902,-108.3 -116.602,-107.4 -125.898,1.7 -251.898,0.4 -377.796,0.5 -53.903,0.1 -97.204,34.2 -109.801,86.4 -2,8.5 -2.5,17.3 -3.801,26.3 -67.398,0 -134.102,0 -200.699,0 C 214.699,1144 214.699,679.801 214.699,213.801 Z M 1340.2,0 C 926.699,0 513.301,0 99.8008,0 91,3.19922 82.1016,6.10156 73.3984,9.80078 33.1016,26.8984 11.6992,59.3984 0,99.8008 0,641.5 0,1183.2 0,1724.8 c 0.898438,1.5 2.10156,3 2.60156,4.6 21.29684,66.5 60.39844,95.1 130.19944,95.1 393.097,0 786.199,0 1179.299,0 77.2,0 127.8,-50.8 127.8,-128.3 0,-165.6 0,-331.3 0,-496.9 0,-6.2 0,-12.3 0,-22.4 7.8,7.4 12.5,11.7 17,16.2 49.6,49.4 98.3,100 149.1,148.1 58.8,55.6 150.4,45.2 196.1,-20.3 36.8,-52.8 29.4,-121.4 -19.2,-170.2 -109.4,-109.8 -219,-219.302 -328.9,-328.598 -10,-9.903 -14.4,-19.5 -14.4,-33.903 0.5,-222 0.4,-444.097 0.3,-666.097 0,-56.8012 -35.3,-102.8012 -89.9,-118.30122 -3.4,-0.90234 -6.5,-2.5 -9.8,-3.80078" style="fill:#3e6bb8;fill-opacity:1;fill-rule:nonzero;stroke:none" id="path14"></path><path d="m 386.199,1325 c 0,-52.7 0,-103.9 0,-154.7 52.5,0 103.801,0 154.699,0 0,52.3 0,103.1 0,154.7 -51.796,0 -102.597,0 -154.699,0 z m 78.199,71.9 c 35.602,0 71.204,0.1 106.801,0 28.602,-0.1 41.699,-12.8 41.801,-40.8 0.102,-72.4 0.102,-144.7 0,-217.1 0,-28.3 -12.898,-41.3 -41.199,-41.3 -72.403,-0.1 -144.801,-0.1 -217.102,0 -27.398,0 -40.801,13 -40.801,39.9 -0.097,73 -0.097,145.9 0,218.9 0,27.1 13.204,40.3 40.301,40.4 36.699,0.1 73.5,0 110.199,0" style="fill:#3e6bb8;fill-opacity:1;fill-rule:nonzero;stroke:none" id="path16"></path><path d="m 541.102,932.898 c -52.903,0 -103.704,0 -155.102,0 0,-52.199 0,-103.398 0,-154.796 52.301,0 103.602,0 155.102,0 0,52 0,102.898 0,154.796 z M 462.5,705.699 c -36.199,0 -72.398,-0.097 -108.602,0 -27,0.102 -40.097,13.301 -40.097,40.602 -0.102,73 -0.102,145.898 0,218.898 0,26.102 13.398,39.601 39.199,39.701 73.602,0.2 147.102,0.2 220.699,0 25.903,-0.1 39.199,-13.599 39.301,-39.599 0.102,-73.602 0.199,-147.102 0,-220.699 C 612.898,719.699 599.301,706 574.699,705.801 537.199,705.5 499.898,705.699 462.5,705.699" style="fill:#3e6bb8;fill-opacity:1;fill-rule:nonzero;stroke:none" id="path18"></path><path d="m 386.199,541 c 0,-52.699 0,-103.898 0,-154.699 52.5,0 103.801,0 154.699,0 0,52.301 0,103.097 0,154.699 -51.796,0 -102.597,0 -154.699,0 z m 76.199,-227.301 c -36.199,0 -72.398,-0.097 -108.597,0 -27,0.102 -40,13.301 -40.102,40.699 -0.097,73 -0.097,145.903 0,218.903 0,26.097 13.403,39.5 39.301,39.597 73.602,0.204 147.102,0.204 220.699,0 25.801,-0.097 39.102,-13.597 39.199,-39.699 0.102,-73.597 0.204,-147.097 0,-220.699 -0.097,-24.801 -13.699,-38.602 -38.398,-38.699 -37.301,-0.301 -74.699,-0.102 -112.102,-0.102" style="fill:#3e6bb8;fill-opacity:1;fill-rule:nonzero;stroke:none" id="path20"></path><path d="m 947.102,463 c 19.199,-18.199 36.199,-33.699 52.5,-50 18.998,-18.898 20.598,-38.699 5.198,-54.801 -15.8,-16.597 -36.8,-15.301 -56.101,4.199 -16.199,16.301 -31.597,33.403 -50.301,53.204 -18.296,-19.5 -33.699,-36.704 -49.796,-53 -19.403,-19.602 -40.301,-21 -56.204,-4.704 -15.296,15.704 -13.699,36.403 5,55 16.301,16.204 33.301,31.801 52.903,50.403 C 830,482.602 811.5,499 794.398,516.898 772.602,539.602 782,574.301 811.801,578 c 11,1.398 25.5,-5 34.398,-12.5 18,-15.199 33.199,-33.602 52.5,-53.801 18.5,19.5 34,38.301 52.199,53.903 8.903,7.597 23.5,13.796 34.5,12.5 29.202,-3.602 39.302,-37.5 18.502,-59.704 C 987,500.102 968.301,483.5 947.102,463" style="fill:#eb7217;fill-opacity:1;fill-rule:nonzero;stroke:none" id="path22"></path><path d="m 857.398,1216.9 c 45.5,45.6 88.903,89.5 132.704,132.9 19.998,19.8 46.098,17.8 59.198,-3.5 8.8,-14.4 7.6,-30.6 -5.6,-44 -53.001,-53.6 -106.302,-107 -159.899,-160 -16.301,-16.1 -35.699,-15.7 -52.301,0.3 -26.102,25.1 -51.699,50.7 -76.898,76.8 -16.301,16.8 -16,37.7 -0.903,52.3 15.199,14.7 35.301,14.2 52.301,-2.3 16.898,-16.5 33.199,-33.8 51.398,-52.5" style="fill:#eb7217;fill-opacity:1;fill-rule:nonzero;stroke:none" id="path24"></path><path d="m 857.301,824.898 c 45.398,45.5 88.398,88.903 131.801,132 20.898,20.704 47.198,19.204 60.398,-2.898 8.7,-14.5 7.3,-30.602 -6,-44 -53,-53.602 -106.301,-107 -160,-159.898 -15.699,-15.5 -35,-15.602 -51,-0.301 -27,25.801 -53.602,52.301 -79.301,79.301 -15.199,16 -14,36.898 0.699,50.898 14.801,14.102 34.903,14 51,-1.5 17.5,-16.898 34,-34.801 52.403,-53.602" style="fill:#eb7217;fill-opacity:1;fill-rule:nonzero;stroke:none" id="path26"></path><path d="m 684.5,178 c -0.102,20.199 15.5,35.898 35.699,35.801 19.5,-0.102 34.801,-15 35.403,-34.403 0.597,-20.199 -14.704,-36.296 -34.801,-36.699 C 700.5,142.301 684.602,157.801 684.5,178" style="fill:#3e6bb8;fill-opacity:1;fill-rule:nonzero;stroke:none" id="path28"></path></g></g></svg>