<svg xmlns:dc="http://purl.org/dc/elements/1.1/" xmlns:cc="http://creativecommons.org/ns#" xmlns:rdf="http://www.w3.org/1999/02/22-rdf-syntax-ns#" xmlns:svg="http://www.w3.org/2000/svg" xmlns="http://www.w3.org/2000/svg" xmlns:sodipodi="http://sodipodi.sourceforge.net/DTD/sodipodi-0.dtd" xmlns:inkscape="http://www.inkscape.org/namespaces/inkscape" id="svg2" xml:space="preserve" width="236.75999" height="236.85333" viewBox="0 0 236.75999 236.85333" sodipodi:docname="ic5.eps"><metadata></metadata><defs id="defs6"></defs><g id="g10" inkscape:groupmode="layer" inkscape:label="ink_ext_XXXXXX" transform="matrix(1.3333333,0,0,-1.3333333,0,236.85333)"><g id="g12" transform="scale(0.1)"><path d="m 265.508,1212.88 c -20.363,0 -38.567,0 -57.203,0 0,-19.65 0,-38.3 0,-56.91 19.816,0 38.461,0 57.203,0 0,19.54 0,37.75 0,56.91 z m 1242.792,29.5 c -19.57,0 -38.2,0 -57.01,0 0,-19.75 0,-38.39 0,-56.71 19.92,0 38.58,0 57.01,0 0,19.64 0,37.86 0,56.71 z M 355.043,976.383 C 355.32,1041.81 302.234,1095.31 236.938,1095.4 172.375,1095.5 119.102,1043 118.43,978.641 117.746,913.195 170.516,859.16 235.602,858.664 c 65.375,-0.5 119.168,52.516 119.441,117.719 z m 651.037,266.787 c 0.13,65.4 -53.092,118.73 -118.447,118.68 -64.528,-0.05 -117.633,-52.68 -118.164,-117.11 -0.539,-65.41 52.379,-119.29 117.508,-119.63 65.332,-0.35 118.973,52.82 119.103,118.06 z M 858.32,1065.4 c 0,-22.2 -0.515,-43.02 0.09,-63.81 2.242,-77.039 65.176,-141.629 142.23,-142.473 122,-1.34 244.04,-1.179 366.04,-0.039 68.17,0.633 129.05,51.402 138.4,118.777 6.14,44.215 3.13,89.705 4.05,134.625 0.08,4.03 -1.06,8.07 -1.55,11.51 -19.58,0 -37.84,0 -57.54,0 0,-37.9 0.13,-74.76 -0.03,-111.61 -0.25,-56.732 -37.26,-94.403 -93.39,-94.501 -115.24,-0.199 -230.49,-0.195 -345.73,0 -56.187,0.094 -93.21,37.734 -93.499,94.371 -0.09,17.59 -0.016,35.2 -0.016,53.15 -20.531,0 -38.34,0 -59.055,0 z m 707.54,237.54 c 23.27,-0.67 37.04,15.81 34.01,36.04 -3.65,24.36 -7.66,48.67 -12.17,72.88 -2.19,11.77 -0.6,20.81 8.89,29.59 16.72,15.45 33.23,31.48 47.38,49.22 6.86,8.61 11.86,21.9 11.1,32.6 -1.03,14.24 -14.44,20.15 -28.23,22.17 -21.31,3.13 -42.58,6.61 -63.95,9.29 -11.86,1.49 -19.87,5.53 -24.82,17.87 -8.9,22.25 -18.56,44.5 -30.93,64.91 -5.49,9.07 -18.38,18.93 -27.81,18.83 -9.46,-0.09 -22.03,-10.2 -27.53,-19.35 -12.28,-20.47 -21.78,-42.76 -30.88,-64.94 -4.68,-11.42 -12.05,-15.69 -23.31,-17.14 -21.97,-2.84 -44.3,-4.68 -65.58,-10.33 -10.49,-2.79 -23.92,-11.48 -26.96,-20.54 -2.99,-8.96 2.68,-23.91 9.4,-32.4 14.47,-18.26 31.51,-34.64 48.58,-50.63 8.85,-8.29 10.74,-16.74 8.68,-27.92 -4.57,-24.82 -9.88,-49.66 -11.88,-74.73 -0.75,-9.47 4.2,-23.03 11.32,-28.45 7.05,-5.36 20.18,-3.95 30.51,-3.29 5.59,0.35 10.87,5.36 16.32,8.23 20.62,10.87 41.27,30.22 61.87,30.18 20.62,-0.04 41.14,-19.58 61.81,-30.36 9.17,-4.78 18.61,-9.04 24.18,-11.73 z m -649.434,118.94 c 11.84,110.89 -69.039,180.29 -163.266,177.74 -131.183,-3.54 -262.531,-0.68 -393.812,-0.97 -87.813,-0.19 -151.672,-64.02 -152.141,-151.63 -0.281,-52.41 -0.086,-104.82 -0.008,-157.23 0.008,-5.29 0.672,-10.58 1.028,-15.81 19.828,0 38.078,0 58.109,0 0,6.82 0,12.84 0,18.86 0.008,52.41 -0.367,104.82 0.129,157.23 0.48,50.71 38.461,89.13 89.105,89.29 138.059,0.41 276.118,0.44 414.176,-0.03 49.602,-0.17 87.172,-38.57 88.367,-88.23 0.235,-9.63 0.035,-19.27 0.035,-29.22 20.688,0 38.938,0 58.278,0 z M 1494.25,384.551 c -48.42,-16.949 -73.15,-44.582 -73.5,-85.281 -0.76,-88.731 -0.43,-177.481 -0.18,-266.2192 0.07,-21.6914 11.48,-32.83205 33.46,-32.878925 96.1,-0.2304688 192.19,-0.2421875 288.29,0.007813 21.81,0.058593 33.06,11.359412 33.12,33.250012 0.24,88.1293 0.42,176.2503 -0.1,264.3793 -0.22,37.242 -23.79,68.66 -58.93,81.57 -4.96,1.82 -9.92,3.621 -14.87,5.422 25.02,67.699 14.07,118.461 -32.39,153.777 -41.05,31.203 -97.78,31.981 -139.63,1.91 -48.2,-34.629 -59.82,-85.019 -35.27,-155.937 z m -414.81,0.328 c -1.41,-0.879 -2.79,-2.149 -4.41,-2.688 -47.74,-15.73 -68.83,-44.562 -68.87,-94.55 -0.04,-82.582 -0.05,-165.161 0.01,-247.7308 0.02,-30.28911 9.49,-39.808637 39.65,-39.832075 91.78,-0.046875 183.57,-0.046875 275.35,0 30.39,0.023438 40.04,9.503905 40.07,39.441375 0.07,80.1095 0.02,160.2305 0.02,240.3395 0,59.09 -17.1,83.77 -71.81,103.813 -0.89,0.316 -1.32,1.918 -1.93,2.937 24.85,61.2 14.82,113.219 -28.71,148.903 -40.63,33.297 -97.88,36.09 -141.06,6.859 -49.75,-33.672 -61.62,-82.18 -38.31,-157.492 z M 125.488,442.828 C 55.6914,419.039 29.5977,382.289 29.5938,308.859 29.5938,218.84 29.5469,128.82 29.6211,38.8086 29.6445,9.85938 39.4609,0.101563 68.543,0.0898438 180.711,0.03125 292.879,0.03125 405.051,0.0898438 434.008,0.109375 443.832,9.94922 443.863,38.9492 c 0.082,74.6098 0.52,149.2228 -0.351,223.8128 -0.192,16.558 4.605,28.91 14.843,41.578 70.512,87.23 140.395,174.98 210.395,262.621 16.746,20.969 16.773,32.668 -2.359,51.258 -8.957,8.703 -8.153,15.832 -3.891,25.871 21.66,50.98 42.785,102.191 64.086,153.324 23.133,55.539 46.25,111.086 70.07,168.309 -18.726,7.777 -36.07,14.98 -54.511,22.64 -43.832,-105.105 -87.086,-208.816 -130.883,-313.832 -15.899,8.891 -30.219,8.809 -41.731,-3.82 C 503.598,598.34 438.059,525.609 371.965,453.379 367.176,448.148 359.066,445.961 352.504,442.352 383.219,517.77 371.828,581.18 318.461,623.109 270.23,661 201.77,660.691 154.059,622.371 100.656,579.48 90.4297,517.172 125.488,442.828 Z m 644.688,297.363 c 7.859,0 13.945,0 20.035,0 314.369,0 628.739,-0.011 943.109,0 33.69,0.008 42.23,8.688 42.23,42.891 0.01,316.968 0.01,633.928 0,950.898 0,33.84 -8.62,42.37 -42.72,42.38 -563.4,0 -1126.787,0 -1690.1816,0 -34.0859,-0.01 -42.6366812,-8.51 -42.6405875,-42.42 -0.01171875,-316.97 -0.01171875,-633.94 0,-950.901 0,-34.219 8.4921875,-42.84 42.2421875,-42.84 176.293,-0.019 352.586,-0.008 528.879,-0.008 6.527,0 13.055,0 19.277,0 0,21.161 0,39.856 0,59.848 -177.504,0 -353.562,0 -530.0349,0 0,306.201 0,611.031 0,915.781 552.4729,0 1103.7589,0 1654.4889,0 0,-306.16 0,-611 0,-917.164 -315.64,0 -629.78,0 -944.684,0 0,-19.582 0,-37.836 0,-58.465" style="fill:#ffffff;fill-opacity:1;fill-rule:nonzero;stroke:none" id="path14"></path><path d="m 770.176,740.191 c 0,20.629 0,38.883 0,58.465 314.904,0 629.044,0 944.684,0 0,306.164 0,611.004 0,917.164 -550.73,0 -1102.016,0 -1654.4889,0 0,-304.75 0,-609.58 0,-915.781 176.4729,0 352.5309,0 530.0349,0 0,-19.992 0,-38.687 0,-59.848 -6.222,0 -12.75,0 -19.277,0 -176.293,0 -352.586,-0.011 -528.879,0.008 -33.75,0 -42.2421875,8.621 -42.2421875,42.84 -0.01171875,316.961 -0.01171875,633.931 0,950.901 0.0039063,33.91 8.5546875,42.41 42.6405875,42.42 563.3946,0 1126.7816,0 1690.1816,0 34.1,-0.01 42.72,-8.54 42.72,-42.38 0.01,-316.97 0.01,-633.93 0,-950.898 0,-34.203 -8.54,-42.883 -42.23,-42.891 -314.37,-0.011 -628.74,0 -943.109,0 -6.09,0 -12.176,0 -20.035,0" style="fill:#3e6bb8;fill-opacity:1;fill-rule:nonzero;stroke:none" id="path16"></path><path d="m 310.652,518.73 c -0.277,40.629 -33.812,73.668 -74.488,73.391 -40.609,-0.281 -73.609,-33.812 -73.344,-74.519 0.262,-40.614 33.817,-73.692 74.469,-73.403 40.574,0.281 73.645,33.879 73.363,74.531 z M 384.707,60.1016 c 0,74.2504 0.598,146.3594 -0.391,218.4494 -0.273,19.84 5.473,35.09 17.872,50.328 57.949,71.223 114.972,143.191 172.296,214.91 12.184,15.25 24.239,30.59 33.446,42.223 -5.66,9.258 -10.09,16.508 -16.477,26.957 -57.68,-64.59 -111.871,-125.168 -165.859,-185.93 -4.438,-4.988 -8.899,-10.769 -10.91,-16.969 -6.43,-19.84 -20.2,-25.511 -39.754,-25.359 C 301.605,385.262 228.273,385 154.941,384.898 112.543,384.84 88.8555,361 88.8086,318.352 88.7148,238.211 88.7617,158.07 88.8164,77.9297 c 0.0039,-5.918 0.5274,-11.8281 0.8125,-17.8281 98.8671,0 195.9921,0 295.0781,0 z M 125.488,442.828 c -35.0583,74.344 -24.832,136.652 28.571,179.543 47.711,38.32 116.171,38.629 164.402,0.738 53.367,-41.929 64.758,-105.339 34.043,-180.757 6.562,3.609 14.672,5.796 19.461,11.027 66.094,72.23 131.633,144.961 197.566,217.332 11.512,12.629 25.832,12.711 41.731,3.82 43.797,105.016 87.051,208.727 130.883,313.832 18.441,-7.66 35.785,-14.863 54.511,-22.64 C 772.836,908.5 749.719,852.953 726.586,797.414 705.285,746.281 684.16,695.07 662.5,644.09 c -4.262,-10.039 -5.066,-17.168 3.891,-25.871 19.132,-18.59 19.105,-30.289 2.359,-51.258 C 598.75,479.32 528.867,391.57 458.355,304.34 448.117,291.672 443.32,279.32 443.512,262.762 444.383,188.172 443.945,113.559 443.863,38.9492 443.832,9.94922 434.008,0.109375 405.051,0.0898438 292.879,0.03125 180.711,0.03125 68.543,0.0898438 39.4609,0.101563 29.6445,9.85938 29.6211,38.8086 29.5469,128.82 29.5938,218.84 29.5938,308.859 c 0.0039,73.43 26.0976,110.18 95.8942,133.969" style="fill:#3e6bb8;fill-opacity:1;fill-rule:nonzero;stroke:none" id="path18"></path><path d="m 1183.25,503.301 c -32.16,-0.223 -58.66,-26.922 -58.67,-59.121 0,-32.129 26.55,-58.93 58.63,-59.192 32.84,-0.258 60.08,27.203 59.61,60.071 -0.47,32.089 -27.44,58.461 -59.57,58.242 z M 1302.02,60.0313 c 0,79.6287 0.26,157.1987 -0.17,234.7577 -0.11,20.031 -12.27,30.723 -33.56,30.832 -54.79,0.27 -109.58,0.16 -164.37,0.07 -28.78,-0.05 -38.53,-9.91 -38.56,-39 -0.07,-70.211 -0.05,-140.429 0.02,-210.6402 0.01,-5.2891 0.68,-10.582 1.04,-16.0195 78.86,0 156.22,0 235.6,0 z M 1079.44,384.879 c -23.31,75.312 -11.44,123.82 38.31,157.492 43.18,29.231 100.43,26.438 141.06,-6.859 43.53,-35.684 53.56,-87.703 28.69,-148.91 0.63,-1.012 1.06,-2.614 1.95,-2.93 54.71,-20.043 71.81,-44.723 71.81,-103.813 0,-80.109 0.05,-160.23 -0.02,-240.3395 -0.03,-29.93747 -9.68,-39.417937 -40.07,-39.441375 -91.78,-0.046875 -183.57,-0.046875 -275.35,0 -30.16,0.023438 -39.63,9.542965 -39.65,39.832075 -0.06,82.5698 -0.05,165.1488 -0.01,247.7308 0.04,49.988 21.13,78.82 68.87,94.55 1.62,0.539 3,1.809 4.41,2.688" style="fill:#3e6bb8;fill-opacity:1;fill-rule:nonzero;stroke:none" id="path20"></path><path d="m 1597.61,503.301 c -32.15,-0.192 -58.69,-26.871 -58.73,-59.051 -0.04,-32.129 26.48,-58.969 58.56,-59.262 32.83,-0.289 60.12,27.141 59.67,60 -0.43,32.102 -27.37,58.492 -59.5,58.313 z M 1716.19,60.0313 c 0,80.2887 0.39,159.0197 -0.29,237.7307 -0.15,18.136 -13.47,27.808 -34.45,27.886 -54.79,0.192 -109.58,0.153 -164.37,0.032 -27.37,-0.059 -37.37,-10.328 -37.42,-38.282 -0.09,-59.738 -0.03,-119.476 -0.03,-179.218 0,-15.8206 0,-31.6409 0,-48.1487 79.44,0 156.8,0 236.56,0 z M 1494.25,384.551 c -24.55,70.918 -12.93,121.308 35.27,155.937 41.85,30.071 98.58,29.293 139.63,-1.91 46.46,-35.316 57.41,-86.078 32.39,-153.777 4.95,-1.801 9.91,-3.602 14.87,-5.422 35.14,-12.91 58.71,-44.328 58.93,-81.57 0.52,-88.129 0.34,-176.25 0.1,-264.3793 -0.06,-21.8906 -11.31,-33.191419 -33.12,-33.250012 -96.1,-0.2500005 -192.19,-0.2382818 -288.29,-0.007813 -21.98,0.046875 -33.39,11.187525 -33.46,32.878925 -0.25,88.7382 -0.58,177.4882 0.18,266.2192 0.35,40.699 25.08,68.332 73.5,85.281" style="fill:#3e6bb8;fill-opacity:1;fill-rule:nonzero;stroke:none" id="path22"></path><path d="m 916.426,1421.88 c -19.34,0 -37.59,0 -58.278,0 0,9.95 0.2,19.59 -0.035,29.22 -1.195,49.66 -38.765,88.06 -88.367,88.23 -138.058,0.47 -276.117,0.44 -414.176,0.03 -50.644,-0.16 -88.625,-38.58 -89.105,-89.29 -0.496,-52.41 -0.121,-104.82 -0.129,-157.23 0,-6.02 0,-12.04 0,-18.86 -20.031,0 -38.281,0 -58.109,0 -0.356,5.23 -1.02,10.52 -1.028,15.81 -0.078,52.41 -0.273,104.82 0.008,157.23 0.469,87.61 64.328,151.44 152.141,151.63 131.281,0.29 262.629,-2.57 393.812,0.97 94.227,2.55 175.106,-66.85 163.266,-177.74" style="fill:#eb7217;fill-opacity:1;fill-rule:nonzero;stroke:none" id="path24"></path><path d="m 1531.65,1388.84 c -18.45,45.79 -3.28,78.25 33.7,105.68 -45.38,-1.38 -74.08,17.16 -85.89,62.62 -10.94,-46.47 -40.99,-63.11 -86.26,-63.54 42.19,-25.7 49.58,-61.03 34.97,-105.3 35.28,29.17 68.24,29.92 103.48,0.54 z m 34.21,-85.9 c -5.57,2.69 -15.01,6.95 -24.18,11.73 -20.67,10.78 -41.19,30.32 -61.81,30.36 -20.6,0.04 -41.25,-19.31 -61.87,-30.18 -5.45,-2.87 -10.73,-7.88 -16.32,-8.23 -10.33,-0.66 -23.46,-2.07 -30.51,3.29 -7.12,5.42 -12.07,18.98 -11.32,28.45 2,25.07 7.31,49.91 11.88,74.73 2.06,11.18 0.17,19.63 -8.68,27.92 -17.07,15.99 -34.11,32.37 -48.58,50.63 -6.72,8.49 -12.39,23.44 -9.4,32.4 3.04,9.06 16.47,17.75 26.96,20.54 21.28,5.65 43.61,7.49 65.58,10.33 11.26,1.45 18.63,5.72 23.31,17.14 9.1,22.18 18.6,44.47 30.88,64.94 5.5,9.15 18.07,19.26 27.53,19.35 9.43,0.1 22.32,-9.76 27.81,-18.83 12.37,-20.41 22.03,-42.66 30.93,-64.91 4.95,-12.34 12.96,-16.38 24.82,-17.87 21.37,-2.68 42.64,-6.16 63.95,-9.29 13.79,-2.02 27.2,-7.93 28.23,-22.17 0.76,-10.7 -4.24,-23.99 -11.1,-32.6 -14.15,-17.74 -30.66,-33.77 -47.38,-49.22 -9.49,-8.78 -11.08,-17.82 -8.89,-29.59 4.51,-24.21 8.52,-48.52 12.17,-72.88 3.03,-20.23 -10.74,-36.71 -34.01,-36.04" style="fill:#eb7217;fill-opacity:1;fill-rule:nonzero;stroke:none" id="path26"></path><path d="m 858.32,1065.4 c 20.715,0 38.524,0 59.055,0 0,-17.95 -0.074,-35.56 0.016,-53.15 0.289,-56.637 37.312,-94.277 93.499,-94.371 115.24,-0.195 230.49,-0.199 345.73,0 56.13,0.098 93.14,37.769 93.39,94.501 0.16,36.85 0.03,73.71 0.03,111.61 19.7,0 37.96,0 57.54,0 0.49,-3.44 1.63,-7.48 1.55,-11.51 -0.92,-44.92 2.09,-90.41 -4.05,-134.625 -9.35,-67.375 -70.23,-118.144 -138.4,-118.777 -122,-1.14 -244.04,-1.301 -366.04,0.039 -77.054,0.844 -139.988,65.434 -142.23,142.473 -0.605,20.79 -0.09,41.61 -0.09,63.81" style="fill:#eb7217;fill-opacity:1;fill-rule:nonzero;stroke:none" id="path28"></path><path d="m 946.891,1242.9 c 0.3,32.14 -26.004,59.19 -58.078,59.73 -32.165,0.54 -59.391,-25.54 -60.157,-57.63 -0.785,-32.89 26.157,-60.61 58.981,-60.68 32.078,-0.06 58.953,26.5 59.254,58.58 z m 59.189,0.27 c -0.13,-65.24 -53.771,-118.41 -119.103,-118.06 -65.129,0.34 -118.047,54.22 -117.508,119.63 0.531,64.43 53.636,117.06 118.164,117.11 65.355,0.05 118.577,-53.28 118.447,-118.68" style="fill:#eb7217;fill-opacity:1;fill-rule:nonzero;stroke:none" id="path30"></path><path d="m 295.852,977.754 c -0.368,32.106 -27.243,58.556 -59.372,58.436 -32.14,-0.13 -58.746,-26.76 -58.859,-58.928 -0.117,-32.871 27.422,-60.004 60.274,-59.379 32.027,0.605 58.324,27.769 57.957,59.871 z m 59.191,-1.371 C 354.77,911.18 300.977,858.164 235.602,858.664 170.516,859.16 117.746,913.195 118.43,978.641 119.102,1043 172.375,1095.5 236.938,1095.4 c 65.296,-0.09 118.382,-53.59 118.105,-119.017" style="fill:#eb7217;fill-opacity:1;fill-rule:nonzero;stroke:none" id="path32"></path><path d="m 1508.3,1242.38 c 0,-18.85 0,-37.07 0,-56.71 -18.43,0 -37.09,0 -57.01,0 0,18.32 0,36.96 0,56.71 18.81,0 37.44,0 57.01,0" style="fill:#231f20;fill-opacity:1;fill-rule:nonzero;stroke:none" id="path34"></path><path d="m 265.508,1212.88 c 0,-19.16 0,-37.37 0,-56.91 -18.742,0 -37.387,0 -57.203,0 0,18.61 0,37.26 0,56.91 18.636,0 36.84,0 57.203,0" style="fill:#eb7217;fill-opacity:1;fill-rule:nonzero;stroke:none" id="path36"></path><path d="m 310.652,518.73 c 0.282,-40.652 -32.789,-74.25 -73.363,-74.531 -40.652,-0.289 -74.207,32.789 -74.469,73.403 -0.265,40.707 32.735,74.238 73.344,74.519 40.676,0.277 74.211,-32.762 74.488,-73.391" style="fill:#ffffff;fill-opacity:1;fill-rule:nonzero;stroke:none" id="path38"></path><path d="m 1183.25,503.301 c 32.13,0.219 59.1,-26.153 59.57,-58.242 0.47,-32.868 -26.77,-60.329 -59.61,-60.071 -32.08,0.262 -58.63,27.063 -58.63,59.192 0.01,32.199 26.51,58.898 58.67,59.121" style="fill:#ffffff;fill-opacity:1;fill-rule:nonzero;stroke:none" id="path40"></path><path d="m 1597.61,503.301 c 32.13,0.179 59.07,-26.211 59.5,-58.313 0.45,-32.859 -26.84,-60.289 -59.67,-60 -32.08,0.293 -58.6,27.133 -58.56,59.262 0.04,32.18 26.58,58.859 58.73,59.051" style="fill:#ffffff;fill-opacity:1;fill-rule:nonzero;stroke:none" id="path42"></path><path d="m 1531.65,1388.84 c -35.24,29.38 -68.2,28.63 -103.48,-0.54 14.61,44.27 7.22,79.6 -34.97,105.3 45.27,0.43 75.32,17.07 86.26,63.54 11.81,-45.46 40.51,-64 85.89,-62.62 -36.98,-27.43 -52.15,-59.89 -33.7,-105.68" style="fill:#ffffff;fill-opacity:1;fill-rule:nonzero;stroke:none" id="path44"></path><path d="m 946.891,1242.9 c -0.301,-32.08 -27.176,-58.64 -59.254,-58.58 -32.824,0.07 -59.766,27.79 -58.981,60.68 0.766,32.09 27.992,58.17 60.157,57.63 32.074,-0.54 58.378,-27.59 58.078,-59.73" style="fill:#ffffff;fill-opacity:1;fill-rule:nonzero;stroke:none" id="path46"></path><path d="m 295.852,977.754 c 0.367,-32.102 -25.93,-59.266 -57.957,-59.871 -32.852,-0.625 -60.391,26.508 -60.274,59.379 0.113,32.168 26.719,58.798 58.859,58.928 32.129,0.12 59.004,-26.33 59.372,-58.436" style="fill:#ffffff;fill-opacity:1;fill-rule:nonzero;stroke:none" id="path48"></path></g></g></svg>