<svg xmlns:dc="http://purl.org/dc/elements/1.1/" xmlns:cc="http://creativecommons.org/ns#" xmlns:rdf="http://www.w3.org/1999/02/22-rdf-syntax-ns#" xmlns:svg="http://www.w3.org/2000/svg" xmlns="http://www.w3.org/2000/svg" xmlns:sodipodi="http://sodipodi.sourceforge.net/DTD/sodipodi-0.dtd" xmlns:inkscape="http://www.inkscape.org/namespaces/inkscape" id="svg2" xml:space="preserve" width="233.78667" height="233.09332" viewBox="0 0 233.78667 233.09332" sodipodi:docname="ic6.eps"><metadata></metadata><defs id="defs6"></defs><g id="g10" inkscape:groupmode="layer" inkscape:label="ink_ext_XXXXXX" transform="matrix(1.3333333,0,0,-1.3333333,0,233.09333)"><g id="g12" transform="scale(0.1)"><path d="m 119.645,387.711 c -0.442,-42.68 33.835,-77.762 76.156,-77.961 41.183,-0.191 76.09,34.211 76.972,75.859 0.887,41.911 -34.261,77.512 -76.582,77.582 -42.007,0.071 -76.117,-33.57 -76.546,-75.48 z M 54.4219,53.8906 c 98.8081,0 196.4491,0 294.0001,0 C 353.805,136.84 286.059,208.09 202.094,209.16 118.648,210.23 49.0313,137.648 54.4219,53.8906 Z M 0,86.2695 C 11.1445,113.988 18.8203,143.84 34.1719,169 c 30.6406,50.219 78.6831,77.68 139.5351,90.371 -38.258,11.328 -67.797,30.348 -86.5976,62.551 -19.0352,32.59 -23.1016,67.379 -11.6836,103.758 17.1406,54.629 72.1602,93.82 127.1522,90.289 61.926,-3.981 111.832,-45.739 122.82,-102.789 13.247,-68.758 -16.945,-117.102 -92.16,-151.969 24.942,-11.582 54.403,-21.18 79.34,-37.641 64.129,-42.332 93.078,-104.289 89.93,-180.8395 C 401.363,14.9688 385.273,0.320313 357.156,0.25 253.344,0.0117188 149.531,0.351563 45.7188,0 22.5781,-0.0703125 8.77344,11.5703 0,31.4609 0,49.7305 0,68 0,86.2695" style="fill:#3e6bb8;fill-opacity:1;fill-rule:nonzero;stroke:none" id="path14"></path><path d="m 758.895,1271.9 c 51.285,8.75 98.41,16.84 145.55,24.82 25.59,4.33 37.848,-5.7 38.184,-31.76 0.332,-25.68 -0.031,-51.36 0.125,-77.04 0.113,-19.42 3.242,-22.46 23.125,-22.46 226.481,-0.03 452.971,-0.03 679.451,0 21.36,0 23.07,1.8 23.07,23.82 0.03,160.92 0.03,321.83 0.01,482.75 -0.01,23.24 -0.48,23.68 -24.29,23.68 -225.35,0.01 -450.69,0.01 -676.034,0 -22.809,-0.01 -25.34,-2.54 -25.356,-25.67 -0.05,-71.33 -0.257,-142.66 0.168,-213.99 0.09,-14.91 -4.886,-25.87 -16.152,-35.66 -50.82,-44.15 -101.176,-88.83 -151.668,-133.35 -4.558,-4.02 -8.887,-8.3 -16.183,-15.14 z m 133.941,-32.24 c -56.391,-9.69 -109.672,-18.83 -162.949,-28.02 -15.164,-2.62 -30.305,-5.4 -45.465,-8.06 -14.59,-2.56 -28.41,-0.79 -35.317,13.82 -6.835,14.47 0.208,26.04 11.422,36.08 71.434,63.97 142.418,128.45 214.231,191.99 11.898,10.52 15.992,21.17 15.789,36.71 -0.844,64.5 -0.422,129.02 -0.328,193.53 0.07,47.11 24.781,72.38 71.277,72.4 230.584,0.09 461.174,0.1 691.754,-0.01 44.54,-0.02 73.43,-29.27 73.46,-74.24 0.11,-162.13 0.12,-324.26 -0.01,-486.4 -0.03,-46.51 -25.44,-72.37 -71.82,-72.41 -230.02,-0.19 -460.03,-0.19 -690.048,0 -46.41,0.03 -71.578,25.81 -71.977,72.34 -0.136,16.45 -0.019,32.9 -0.019,52.27" style="fill:#eb7217;fill-opacity:1;fill-rule:nonzero;stroke:none" id="path16"></path><path d="m 658.883,662.988 c 0,65.262 5.414,130.125 -1.442,193.66 -7.652,70.875 -71.058,124.551 -142.789,126.774 -91.754,2.844 -183.652,2.019 -275.476,1.262 -89.61,-0.739 -159.1057,-74.067 -157.1799,-167.731 0.8906,-43.351 0.1523,-86.734 0.1523,-130.101 0,-7.793 0,-15.582 0,-23.864 194.0036,0 385.9536,0 576.7346,0 z M 369.871,609.48 c -93.609,0 -187.219,0 -280.828,0 -49.9219,0 -62.2539,12.481 -62.2071,63.122 0.0469,53.66 -0.8007,107.351 0.4727,160.988 2.6094,110.019 92.1834,201.54 202.2464,204.13 92.984,2.19 186.097,2.12 279.086,0.06 111.367,-2.46 201.437,-95.026 203.519,-206.764 1.074,-57.645 0.375,-115.325 0.262,-172.985 -0.067,-32.84 -15.297,-48.41 -48.027,-48.472 -98.176,-0.2 -196.348,-0.079 -294.524,-0.079" style="fill:#3e6bb8;fill-opacity:1;fill-rule:nonzero;stroke:none" id="path18"></path><path d="m 1490.44,853.363 c 42.56,-0.324 77.72,34.289 77.69,76.469 -0.03,41.34 -34.41,76.008 -76.06,76.708 -41.84,0.71 -77.56,-34.669 -77.52,-76.786 0.03,-41.684 34.2,-76.07 75.89,-76.391 z m 153.95,-256.082 c 0.34,56.481 -21.09,101.199 -67.88,130.77 -52.34,33.062 -107.44,33.179 -159.76,0.051 -46.69,-29.563 -68.66,-74.071 -67.89,-130.821 98.77,0 196.45,0 295.53,0 z m -114.86,207.981 c 24.91,-11.582 53.58,-20.836 77.7,-36.91 66.85,-44.551 92.24,-110.391 87.33,-188.801 -1.48,-23.59 -17.04,-36.711 -41.23,-36.781 -102.69,-0.29 -205.38,-0.34 -308.07,0.011 -31.23,0.11 -46.92,16.789 -47.33,47.969 -1.22,94.789 44.58,165 131.22,200.285 11.43,4.656 23.73,7.18 39.64,11.879 -38.15,10.828 -66.68,29.762 -85.6,60.891 -19,31.261 -23.82,65.004 -13.66,100.215 17.76,61.54 72.98,99.87 135.42,94.69 60.41,-5.02 109.73,-52.46 117.36,-112.909 8.14,-64.434 -28.64,-118.922 -92.78,-140.539" style="fill:#3e6bb8;fill-opacity:1;fill-rule:nonzero;stroke:none" id="path20"></path><path d="m 1120.07,929.805 c -0.02,41.867 -33.65,75.975 -75.63,76.705 -41.77,0.72 -77.764,-34.822 -77.717,-76.752 0.05,-41.543 34.427,-76.074 76.057,-76.41 42.77,-0.344 77.3,33.816 77.29,76.457 z M 898.375,597.602 c 99.414,0 197.605,0 295.775,0 0.59,87.257 -64.2,154.242 -147.87,154.257 -83.651,0.016 -148.417,-66.91 -147.905,-154.257 z m 122.135,205.375 c -74.346,23.976 -112.291,80.644 -102.065,148.476 9.082,60.247 65.094,107.617 127.475,107.797 62.29,0.19 118.36,-46.7 128.09,-107.109 10.9,-67.633 -26.24,-125.286 -96.99,-148.442 15.5,-5.047 29.92,-8.883 43.69,-14.371 84.67,-33.73 135.37,-117.609 126.21,-208.058 -2.4,-23.739 -17.65,-38.45 -41.83,-38.508 -102.66,-0.262 -205.313,-0.364 -307.969,0.039 -30.269,0.109 -45.992,16.558 -47.109,46.621 -3.821,102.949 59.113,185.562 159.628,209.641 2.62,0.625 5.11,1.816 10.87,3.914" style="fill:#3e6bb8;fill-opacity:1;fill-rule:nonzero;stroke:none" id="path22"></path><path d="m 1093.1,463.18 c -41.62,-0.36 -75.84,-34.891 -75.84,-76.52 0,-42.16 35.76,-77.648 77.5,-76.922 41.51,0.731 76,35.614 76.03,76.883 0.03,42.16 -35.26,76.918 -77.69,76.559 z M 1247.12,53.2383 c 0.07,59.2927 -22.47,105.1917 -72.38,134.3317 -54.84,32.008 -110.67,29.27 -162.38,-7.429 -42.684,-30.301 -62.106,-73.422 -60.575,-126.9027 99.085,0 195.905,0 295.335,0 z M 1124.69,258.52 c 60.15,-11.211 106.7,-39.739 140.78,-87.5 27.45,-38.469 39.94,-81.7505 37.55,-128.8794 C 1301.65,15.2695 1285.72,0.359375 1258.75,0.289063 1154.3,-0.0117188 1049.85,0 945.395,0.269531 917.461,0.351563 901.871,16.0586 900.688,43.4297 896.574,138.441 944.68,213.25 1032.85,248.16 c 11.57,4.578 23.96,7.09 38.81,11.379 -36.54,10.422 -65.39,28.539 -84.609,59.18 -19.41,30.941 -25.238,64.679 -15.512,100.031 16.359,59.449 69.211,99.52 127.071,97.441 62.92,-2.25 114.28,-45.89 125.16,-106.351 12.06,-67 -19.75,-116.43 -99.08,-151.32" style="fill:#3e6bb8;fill-opacity:1;fill-rule:nonzero;stroke:none" id="path24"></path><path d="m 1620.56,386.961 c -0.14,42.027 -33.86,75.949 -75.76,76.219 -42.6,0.269 -77.25,-34.27 -77.05,-76.821 0.19,-41.668 34.35,-76.121 75.95,-76.609 41.97,-0.488 77,34.699 76.86,77.211 z M 1399.99,53.8594 c 98.92,0 196.64,0 294.27,0 4.56,84.0316 -65.45,156.6796 -148.36,155.3206 -84.09,-1.379 -152.16,-73.25 -145.91,-155.3206 z m 174.63,205.7496 c 73.9,-16.281 126.66,-54.839 158.44,-120.269 14.97,-30.809 21.53,-63.6681 20.23,-97.8087 -0.94,-24.7618 -16.77,-41.00005 -41.36,-41.101612 -106.71,-0.4492193 -213.43,-0.4414068 -320.15,0.050781 -23.29,0.109375 -38.47,14.558631 -40.33,38.308631 -6.65,84.8319 34.19,163.9219 113.22,201.5119 17.12,8.148 35.79,13.019 53.41,19.277 -80.91,38.891 -112.4,88.344 -97.74,153.973 13.31,59.551 63.37,100.719 124.83,102.668 59.07,1.871 113.81,-40.469 127.83,-100.969 7.87,-33.949 2.64,-66.949 -15.97,-97.059 -18.5,-29.941 -46.03,-48.031 -82.41,-58.582" style="fill:#3e6bb8;fill-opacity:1;fill-rule:nonzero;stroke:none" id="path26"></path><path d="m 646.91,463.18 c -42.394,0.289 -77.734,-34.719 -77.484,-76.782 0.246,-41.277 34.965,-76.187 76.281,-76.687 41.234,-0.5 76.441,33.988 77.07,75.488 0.649,42.699 -33.39,77.692 -75.867,77.981 z M 797.563,53.3281 C 795.543,117.18 770.645,165.59 713.734,193.32 661.152,218.941 609.258,213.988 561.875,180.102 519.184,149.57 500.57,106.25 501.129,53.3281 c 99.336,0 196.703,0 296.434,0 z M 679.648,259.281 c 84.997,-20.519 142.801,-69.25 167.317,-153.062 5.832,-19.9299 8.004,-41.4885 8.316,-62.3596 C 855.695,16.2891 838.719,0.371094 811.242,0.289063 706.816,-0.0195313 602.391,-0.0117188 497.969,0.269531 469.055,0.351563 453.59,16.8086 452.645,46.5898 449.367,149.699 510.555,230.41 611.094,255.621 c 3.301,0.82 6.535,1.891 13.566,3.949 -38.246,10.41 -66.965,29.539 -86.219,60.739 -19.25,31.203 -23.89,65.121 -14.07,100.32 16.152,57.902 69.637,97.769 126.77,95.562 62.058,-2.41 113.175,-45.16 125.148,-104.679 13.09,-65.09 -19.644,-117.223 -96.641,-152.231" style="fill:#3e6bb8;fill-opacity:1;fill-rule:nonzero;stroke:none" id="path28"></path><path d="m 366.309,1123.62 c 85.812,-0.9 159.312,72.34 160.769,160.19 1.457,87.72 -70.633,160.92 -159.937,162.39 -89.243,1.47 -162.192,-70.72 -162.633,-160.96 -0.445,-90.05 70.254,-160.67 161.801,-161.62 z m 213.371,163.41 c -0.336,-119.12 -95.364,-214.14 -214.168,-214.16 -119.203,-0.02 -215.332,96.68 -214.567,215.84 0.766,118.91 96.45,213.51 215.391,212.96 119.379,-0.56 213.68,-95.43 213.344,-214.64" style="fill:#3e6bb8;fill-opacity:1;fill-rule:nonzero;stroke:none" id="path30"></path><path d="m 1576.51,728.051 c 46.79,-29.571 68.22,-74.289 67.88,-130.77 -99.08,0 -196.76,0 -295.53,0" style="fill:#ffffff;fill-opacity:1;fill-rule:nonzero;stroke:none" id="path32"></path><path d="m 646.91,463.18 c 42.477,-0.289 76.516,-35.282 75.867,-77.981 -0.629,-41.5 -35.836,-75.988 -77.07,-75.488 -41.316,0.5 -76.035,35.41 -76.281,76.687" style="fill:#ffffff;fill-opacity:1;fill-rule:nonzero;stroke:none" id="path34"></path><path d="m 1323.71,1531.48 c -83.3,-0.01 -166.61,-0.2 -249.91,0.27 -8.64,0.05 -20.1,1.4 -25.12,6.86 -5.86,6.37 -9.65,18.8 -7.65,26.96 1.75,7.11 12.19,13.02 19.95,17.38 4.41,2.48 11.17,0.94 16.86,0.94 163.19,0.04 326.38,0.03 489.57,0.02 3.99,0 7.99,0.12 11.98,-0.09 18.3,-0.94 27.51,-9.48 27.78,-25.57 0.28,-16.81 -9.36,-26.57 -28.4,-26.63 -85.02,-0.27 -170.04,-0.12 -255.06,-0.14" style="fill:#eb7217;fill-opacity:1;fill-rule:nonzero;stroke:none" id="path36"></path><path d="m 1321.96,1277.03 c -81.02,0 -162.05,-0.03 -243.07,0.06 -6.82,0 -13.84,-0.1 -20.41,1.4 -13.63,3.11 -20,13.21 -19.7,26.39 0.29,12.66 7.45,21.35 20.35,24.07 3.86,0.81 7.94,0.82 11.92,0.82 168.32,0.03 336.63,0.08 504.95,-0.04 20.68,-0.02 30.94,-8.96 31.2,-25.84 0.24,-15.73 -8.16,-25.41 -25.09,-26.26 -19.92,-1 -39.92,-0.57 -59.88,-0.58 -66.76,-0.05 -133.52,-0.02 -200.27,-0.02" style="fill:#eb7217;fill-opacity:1;fill-rule:nonzero;stroke:none" id="path38"></path><path d="m 1321.92,1456.82 c 82.16,0 164.33,0.01 246.49,-0.03 6.26,-0.01 12.69,0.37 18.76,-0.85 13.76,-2.77 20.17,-12.17 19.92,-25.84 -0.26,-13.62 -6.68,-22.88 -20.81,-24.94 -6.17,-0.91 -12.52,-0.8 -18.78,-0.8 -162.62,-0.04 -325.24,-0.03 -487.85,-0.02 -28.51,0 -41.37,8.44 -41.2,26.94 0.17,18.04 11.99,25.53 40.4,25.53 81.02,0.01 162.04,0.01 243.07,0.01" style="fill:#eb7217;fill-opacity:1;fill-rule:nonzero;stroke:none" id="path40"></path></g></g></svg>