<svg xmlns:dc="http://purl.org/dc/elements/1.1/" xmlns:cc="http://creativecommons.org/ns#" xmlns:rdf="http://www.w3.org/1999/02/22-rdf-syntax-ns#" xmlns:svg="http://www.w3.org/2000/svg" xmlns="http://www.w3.org/2000/svg" xmlns:sodipodi="http://sodipodi.sourceforge.net/DTD/sodipodi-0.dtd" xmlns:inkscape="http://www.inkscape.org/namespaces/inkscape" id="svg2" xml:space="preserve" width="233.90668" height="233.85333" viewBox="0 0 233.90668 233.85333" sodipodi:docname="ic7.eps"><metadata></metadata><defs id="defs6"></defs><g id="g10" inkscape:groupmode="layer" inkscape:label="ink_ext_XXXXXX" transform="matrix(1.3333333,0,0,-1.3333333,0,233.85333)"><g id="g12" transform="scale(0.1)"><path d="m 1695.43,115.82 c -546.72,0 -1091.211,0 -1635.5902,0 -4.914,-48.9216 2.5743,-57.3317 49.9302,-57.3317 512.566,0 1025.13,0 1537.69,0 5.48,0 10.97,-0.1797 16.44,0.0703 19.57,0.8828 30.47,11.3398 31.46,30.5 0.43,8.4414 0.07,16.9214 0.07,26.7614 z m -685.36,1403.95 c 19.63,0 37.84,0.27 56.04,-0.06 27.44,-0.5 40.64,-18.65 30.21,-43.86 -109.757,-265.21 -307.125,-415.79 -592.425,-448.91 -40.071,-4.65 -81.149,-0.64 -122.649,-0.64 0,-107.542 0,-213.624 0,-320.21 8.445,1 15.672,1.859 22.902,2.711 86.54,10.121 172.711,23.058 253.598,57.019 319.52,134.172 499.134,373.61 537.544,718.32 2.96,26.59 11.96,35.52 38.4,35.61 31.38,0.12 62.76,0.03 92.65,0.03 -53.16,53.28 -106.09,106.31 -157.84,158.17 -51.38,-51.3 -104.15,-103.99 -158.43,-158.18 z m -891.777,-322.1 c 0,-341.553 0,-681.451 0,-1021.369 19.355,0 37.391,0 57.148,0 0,8.008 0,15.148 0,22.289 0,298.301 0,596.605 0.012,894.91 0,6.69 -0.519,13.47 0.371,20.06 1.918,14.25 10.375,24.81 24.528,25.45 30.164,1.36 60.429,0.42 90.711,0.42 0,-20.22 0,-38.67 0,-58.46 -19.336,0 -37.387,0 -56.079,0 0,-302.298 0,-603.24 0,-904.329 428.739,0 856.386,0 1283.676,0 0,302.187 0,603.125 0,905.409 -97.4,0 -193.38,0 -289.64,0 0,19.83 0,38.28 0,57.8 7.22,0 13.24,0 19.26,0 95.59,0 191.19,0.01 286.79,-0.01 35.75,0 43.48,-7.87 43.48,-44.2 0.01,-299.519 0.01,-599.038 0.01,-898.55 0,-7 0,-14 0,-20.699 20.86,0 38.9,0 57.28,0 0,340.898 0,680.8 0,1021.359 -4.69,0.22 -8.26,0.52 -11.84,0.52 -140.65,0.03 -281.31,-0.21 -421.96,0.4 -13.85,0.06 -19.81,-4.7 -25.41,-16.75 -108.7,-234.354 -285.157,-394.572 -528.29,-481.842 -94.848,-34.039 -194.32,-43.5 -293.121,-56.566 -20.215,-2.684 -33.438,10.418 -33.477,31.629 -0.25,126.621 -0.242,253.25 -0.027,379.879 0.039,23.64 14.379,35.62 37.871,32.5 119.422,-15.9 234.285,0.87 343.898,50.25 35.36,15.92 68.629,36.48 102.856,54.92 -0.817,1.66 -1.633,3.32 -2.449,4.98 -228.114,0 -456.223,0 -685.598,0 z m 908.907,263.66 c -28.637,0 -55.184,0.3 -81.716,-0.12 -15.507,-0.24 -29.429,1.76 -36.543,17.91 -7.199,16.34 1.2,27.65 12.188,38.6 73.754,73.5 147.311,147.2 221.001,220.76 20.53,20.5 33.8,20.61 54.25,0.2 73.7,-73.55 147.24,-147.26 220.97,-220.79 10.94,-10.91 19.5,-22.21 12.39,-38.59 -7.01,-16.16 -20.87,-18.21 -36.42,-18.09 -46.23,0.34 -92.46,0.12 -136.63,0.12 -15.23,-68.81 -30.12,-136.12 -45.27,-204.58 5.25,0 11.82,0 18.39,0 141.29,0 282.57,0.01 423.85,-0.01 33.39,0 41.82,-8.51 41.82,-42.22 0.01,-338.528 0,-677.051 0,-1015.571 0,-7.179 0,-14.359 0,-23.609 10.38,0 19.33,0.39 28.23,-0.078 18.37,-0.961 29.48,-11.59 30.02,-29.953 0.62,-21.289 1,-42.661 -0.2,-63.9106 -2.47,-43.457 -38.4,-78.52731 -81.95,-81.136681 -6.68,-0.402344 -13.39,-0.2109377 -20.09,-0.2109377 C 1135.08,0.0390625 618.668,0.0390625 102.258,0.0390625 33.5703,0.0390625 0.0703125,33.3789 0.0546875,101.73 0.0507813,114.512 -0.0820313,127.301 0.0859375,140.078 0.414063,164.98 10.707,175.039 35.9766,175.379 c 6.6523,0.09 13.3125,0.012 22.539,0.012 0,7.847 0,14.89 0,21.937 0,338.524 -0.0039,677.043 0.0039,1015.562 0,36.08 7.7696,43.86 43.8165,43.86 253.941,0 507.887,0.09 761.828,-0.26 13.137,-0.02 22.496,3.39 31.891,12.9 51.828,52.49 93.855,111.67 125.245,178.41 1.75,3.72 3.3,7.54 5.9,13.53" style="fill:#3e6bb8;fill-opacity:1;fill-rule:nonzero;stroke:none" id="path14"></path><path d="m 731.125,1694.89 c 0,18.72 0,37.43 0,57.42 19.074,0 37.477,0 57.898,0 0,-19.11 0,-38.26 0,-57.42 l 0.536,0.5 c -19.657,0 -39.313,0 -58.973,0 l 0.539,-0.5" style="fill:#eb7217;fill-opacity:1;fill-rule:nonzero;stroke:none" id="path16"></path><path d="m 731.09,1636.97 c -18.723,0 -37.445,0 -57.438,0 0,19.08 0,37.48 0,57.92 19.141,0 38.309,0 57.473,0 l -0.539,0.5 c 0,-19.65 0,-39.3 0,-58.96 l 0.504,0.54" style="fill:#eb7217;fill-opacity:1;fill-rule:nonzero;stroke:none" id="path18"></path><path d="m 789.023,1694.89 c 18.727,0 37.45,0 57.457,0 0,-19.09 0,-37.5 0,-57.92 -19.097,0 -38.261,0 -57.421,0 l 0.5,-0.54 c 0,19.66 0,39.31 0,58.96 l -0.536,-0.5" style="fill:#eb7217;fill-opacity:1;fill-rule:nonzero;stroke:none" id="path20"></path><path d="m 789.059,1636.97 c 0,-18.73 0,-37.45 0,-57.45 -19.11,0 -37.516,0 -57.969,0 0,19.12 0,38.28 0,57.45 l -0.504,-0.54 c 19.66,0 39.316,0 58.973,0 l -0.5,0.54" style="fill:#eb7217;fill-opacity:1;fill-rule:nonzero;stroke:none" id="path22"></path><path d="m 1520.84,1579.59 c 0,19.08 0,37.05 0,56.06 19.14,0 37.55,0 56.84,0 0,-18.72 0,-36.71 0,-56.06 -18.32,0 -36.75,0 -56.84,0" style="fill:#eb7217;fill-opacity:1;fill-rule:nonzero;stroke:none" id="path24"></path><path d="m 671.402,1462.15 c -18.918,0 -36.898,0 -56.187,0 0,18.51 0,36.92 0,56.49 18.375,0 36.785,0 56.187,0 0,-18.4 0,-36.38 0,-56.49" style="fill:#eb7217;fill-opacity:1;fill-rule:nonzero;stroke:none" id="path26"></path><path d="m 1637.3,1461.09 c 0,18.71 0,37.43 0,57.41 19.08,0 37.48,0 57.9,0 0,-19.11 0,-38.26 0,-57.41 l 0.54,0.5 c -19.66,0 -39.32,0 -58.97,0 l 0.53,-0.5" style="fill:#eb7217;fill-opacity:1;fill-rule:nonzero;stroke:none" id="path28"></path><path d="m 1637.27,1403.16 c -18.72,0 -37.45,0 -57.44,0 0,19.09 0,37.49 0,57.93 19.14,0 38.31,0 57.47,0 l -0.53,0.5 c 0,-19.66 0,-39.31 0,-58.96 l 0.5,0.53" style="fill:#eb7217;fill-opacity:1;fill-rule:nonzero;stroke:none" id="path30"></path><path d="m 1695.2,1461.09 c 18.73,0 37.45,0 57.46,0 0,-19.1 0,-37.5 0,-57.93 -19.1,0 -38.26,0 -57.42,0 l 0.5,-0.53 c 0,19.65 0,39.3 0,58.96 l -0.54,-0.5" style="fill:#eb7217;fill-opacity:1;fill-rule:nonzero;stroke:none" id="path32"></path><path d="m 1695.24,1403.16 c 0,-18.72 0,-37.45 0,-57.45 -19.11,0 -37.51,0 -57.97,0 0,19.12 0,38.29 0,57.45 l -0.5,-0.53 c 19.65,0 39.31,0 58.97,0 l -0.5,0.53" style="fill:#eb7217;fill-opacity:1;fill-rule:nonzero;stroke:none" id="path34"></path><path d="m 1695.43,115.82 c 0,-9.84 0.36,-18.32 -0.07,-26.7614 -0.99,-19.1602 -11.89,-29.6172 -31.46,-30.5 -5.47,-0.25 -10.96,-0.0703 -16.44,-0.0703 -512.56,0 -1025.124,0 -1537.69,0 -47.3559,0 -54.8442,8.4101 -49.9302,57.3317 544.3792,0 1088.8702,0 1635.5902,0" style="fill:#ffffff;fill-opacity:1;fill-rule:nonzero;stroke:none" id="path36"></path><path d="m 789.559,1636.43 c -19.657,0 -39.313,0 -58.973,0 0,19.66 0,39.31 0,58.96 19.66,0 39.316,0 58.973,0 0,-19.65 0,-39.3 0,-58.96" style="fill:#ffffff;fill-opacity:1;fill-rule:nonzero;stroke:none" id="path38"></path><path d="m 1695.74,1402.63 c -19.66,0 -39.32,0 -58.97,0 0,19.65 0,39.3 0,58.96 19.65,0 39.31,0 58.97,0 0,-19.66 0,-39.31 0,-58.96" style="fill:#ffffff;fill-opacity:1;fill-rule:nonzero;stroke:none" id="path40"></path><path d="m 469.051,525.289 c 0,-88.09 0,-174.668 0,-260.73 39.234,0 77.164,0 114.664,0 0,87.632 0,173.781 0,260.73 -38.449,0 -75.934,0 -114.664,0 z m 465.14,-261.391 c 0,136.762 0,272.043 0,406.864 -39.222,0 -77.16,0 -114.703,0 0,-136.332 0,-271.184 0,-406.864 38.434,0 75.93,0 114.703,0 z m 350.739,-0.027 c 0,214.82 0,428.027 0,641.289 -38.82,0 -76.32,0 -114.63,0 0,-214.09 0,-427.289 0,-641.289 38.49,0 75.99,0 114.63,0 z m -174.08,653.582 c 0,40.711 6.45,47.035 47.93,47.039 48.7,0 97.41,0.039 146.12,-0.015 30.77,-0.036 39.79,-9.215 39.79,-40.571 0.03,-212.445 0.02,-424.894 0.02,-637.336 0,-7.172 0,-14.34 0,-22.84 39.03,0 76.55,0 115.49,0 0,-19.761 0,-38.23 0,-57.91 -388.39,0 -777.055,0 -1166.774,0 0,18.239 0,36.27 0,56.321 37.445,0 75.426,0 115.867,0 0,8.398 0,14.828 0,21.269 0.004,87.039 -0.027,174.09 0.016,261.141 0.015,30.98 9.097,39.969 40.332,39.988 52.363,0.051 104.722,0.121 157.086,-0.027 26.14,-0.071 36.343,-10.313 36.375,-36.621 0.113,-87.653 0.046,-175.313 0.046,-262.969 0,-6.582 0,-13.172 0,-20.774 38.903,0 76.418,0 116.926,0 0,6.442 0,13.411 0,20.383 0,135.141 -0.015,270.278 0.012,405.418 0.004,32.082 8.809,40.711 41.426,40.731 51.75,0.031 103.504,0.09 155.254,-0.032 27.195,-0.058 37.113,-10.117 37.129,-37.718 0.07,-135.129 0.031,-270.27 0.031,-405.41 0,-7.25 0,-14.508 0,-23.75 39.674,0 77.184,0 116.924,0 0,7.671 0,14.742 0,21.82" style="fill:#3e6bb8;fill-opacity:1;fill-rule:nonzero;stroke:none" id="path42"></path><path d="m 466.918,821.195 c 56.883,3.203 105.645,20.883 219.066,78.711 10.2,-15.172 20.559,-30.582 33.77,-50.234 -37.969,-18.473 -73.75,-37.625 -110.918,-53.547 -51.313,-21.977 -105.781,-32.098 -161.356,-35.758 -26.738,-1.758 -37.996,9.387 -38.152,36.27 -0.148,26.047 -0.031,52.093 -0.031,79.148 19.496,0 37.527,0 57.621,0 0,-17.441 0,-35.332 0,-54.59" style="fill:#3e6bb8;fill-opacity:1;fill-rule:nonzero;stroke:none" id="path44"></path><path d="m 410.152,936.289 c 0,18.774 0,36.754 0,56.09 18.379,0 36.805,0 56.426,0 0,-18.242 0,-36.645 0,-56.09 -18.281,0 -36.269,0 -56.426,0" style="fill:#3e6bb8;fill-opacity:1;fill-rule:nonzero;stroke:none" id="path46"></path><path d="m 1284.93,263.871 c -38.64,0 -76.14,0 -114.63,0 0,214 0,427.199 0,641.289 38.31,0 75.81,0 114.63,0 0,-213.262 0,-426.469 0,-641.289" style="fill:#ffffff;fill-opacity:1;fill-rule:nonzero;stroke:none" id="path48"></path><path d="m 934.191,263.898 c -38.773,0 -76.269,0 -114.703,0 0,135.68 0,270.532 0,406.864 37.543,0 75.481,0 114.703,0 0,-134.821 0,-270.102 0,-406.864" style="fill:#ffffff;fill-opacity:1;fill-rule:nonzero;stroke:none" id="path50"></path><path d="m 469.051,525.289 c 38.73,0 76.215,0 114.664,0 0,-86.949 0,-173.098 0,-260.73 -37.5,0 -75.43,0 -114.664,0 0,86.062 0,172.64 0,260.73" style="fill:#ffffff;fill-opacity:1;fill-rule:nonzero;stroke:none" id="path52"></path></g></g></svg>