<svg xmlns:dc="http://purl.org/dc/elements/1.1/" xmlns:cc="http://creativecommons.org/ns#" xmlns:rdf="http://www.w3.org/1999/02/22-rdf-syntax-ns#" xmlns:svg="http://www.w3.org/2000/svg" xmlns="http://www.w3.org/2000/svg" xmlns:sodipodi="http://sodipodi.sourceforge.net/DTD/sodipodi-0.dtd" xmlns:inkscape="http://www.inkscape.org/namespaces/inkscape" id="svg2" xml:space="preserve" width="248.34666" height="233.24001" viewBox="0 0 248.34666 233.24001" sodipodi:docname="ic8.eps"><metadata></metadata><defs id="defs6"></defs><g id="g10" inkscape:groupmode="layer" inkscape:label="ink_ext_XXXXXX" transform="matrix(1.3333333,0,0,-1.3333333,0,233.24)"><g id="g12" transform="scale(0.1)"><path d="m 1523.97,510.672 c 78.75,-0.293 144.59,64.969 145.68,144.398 1.1,79.239 -65.4,146.582 -145.03,146.879 -78.74,0.293 -144.58,-64.969 -145.68,-144.41 -1.1,-79.23 65.41,-146.578 145.03,-146.867 z M 483.898,655.98 c 0.301,78.899 -64.828,144.864 -144.117,145.969 -79.07,1.106 -146.293,-65.527 -146.593,-145.308 -0.301,-78.903 64.828,-144.871 144.117,-145.969 79.07,-1.113 146.293,65.519 146.593,145.308 z M 1792.44,74.0313 c -3.17,31.2387 -2.64,60.9377 -9.66,88.7387 -25.14,99.609 -89.58,163.992 -187.44,191.21 -100.86,28.051 -189.9,1.5 -266.36,-69.492 -7.99,-7.418 -7.91,-13.488 -4.55,-23.578 13.53,-40.621 26.75,-81.449 37.45,-122.879 5.33,-20.633 4.96,-42.7419 7.15,-63.9997 140.69,0 279.79,0 423.41,0 z M 74.0898,74.3516 c 140.7582,0 280.3442,0 420.9372,0 1.528,67.3084 15.836,130.5894 43.907,190.7964 2.164,4.641 -1.563,14.813 -5.829,19.274 C 458.414,362.52 330.328,386.609 230.949,341.891 123.629,293.602 64.5977,193.539 74.0898,74.3516 Z M 931.93,1020.69 C 811.738,1020.96 713.266,922.547 713.238,802.141 713.215,682.43 810.59,584.199 930,583.48 c 120.22,-0.73 219.1,97.27 219.6,217.637 0.49,120.434 -97.52,219.313 -217.67,219.573 z M 1296,74.0117 C 1288.2,218.172 1226.9,329.039 1100.05,394.82 964.543,465.09 830.941,452.16 709.016,360.121 615.484,289.52 571.023,191.781 567.668,74.0117 c 243.52,0 484.492,0 728.332,0 z M 1862.56,25.8281 C 1851.24,5.46875 1833.64,-0.0117188 1811.05,0 1224.91,0.398438 638.766,0.320313 52.625,0.320313 10.9063,0.320313 0.640625,11.1484 0.191406,53.582 -0.417969,110.781 -0.96875,167.922 22.0078,221.969 72.8633,341.609 163.176,411.211 290.371,433.84 c 5.754,1.031 11.52,2.012 17.453,4.398 -60.437,11.512 -109.828,40.321 -145.738,90.141 -36.176,50.18 -48.098,106.199 -38.164,167.371 17.082,105.203 115.605,183.523 225.894,178.879 107.579,-4.531 198.039,-92.742 206.372,-201.25 8.777,-114.277 -67.536,-209.91 -187.383,-235.43 81.289,-11.051 153.562,-41.488 214.883,-100.32 80.242,101.09 184.14,158.601 311.894,172.351 -197.32,32.27 -275.625,214.102 -250.828,344.27 26.672,140.012 151.777,243.06 294.562,239.16 C 1085.64,1089.42 1204.97,978.531 1220.96,829.473 1235.65,692.52 1143.23,538.66 966.996,510.32 1094.23,496.41 1197.95,439.762 1278.78,337.801 c 60.73,57.648 133.07,89.289 215.05,99.84 -140.48,28.097 -198.42,146.929 -186.25,242.269 14.67,114.926 107.3,196.203 219.3,194.985 111.01,-1.211 203.5,-85.911 214.64,-198.305 10.05,-101.289 -54.2,-213.41 -190.68,-238.27 20.3,-4.16 36.93,-6.449 52.92,-11.011 141.09,-40.25 229.01,-130.039 255.59,-276.649 0.51,-2.84 2.12,-5.48 3.21,-8.211 0,-38.867 0,-77.7498 0,-116.6209" style="fill:#3e6bb8;fill-opacity:1;fill-rule:nonzero;stroke:none" id="path14"></path><path d="m 930.023,1630.06 c -15.293,-31.42 -29.394,-60.16 -43.265,-89.01 -7.098,-14.75 -17.903,-23.47 -34.641,-25.7 -31.48,-4.19 -62.828,-9.38 -93.863,-14.1 18.82,-19.95 35.535,-40.83 55.457,-57.97 22.641,-19.47 28.699,-40.9 21.562,-69.38 -6.335,-25.29 -9.031,-51.5 -13.832,-80.31 19.418,10.12 35.469,18.45 51.489,26.84 64.164,33.62 50.004,33.67 113.625,0.37 16.245,-8.5 32.535,-16.9 52.295,-27.16 -5.33,31.73 -8.93,59.31 -14.84,86.38 -5.17,23.63 -0.34,41.77 17.92,58.67 21.08,19.52 39.51,41.91 58.9,62.85 -28.71,4.29 -59.02,9.49 -89.52,13.14 -19.658,2.36 -31.611,12.52 -39.705,29.94 -12.964,27.9 -26.878,55.36 -41.582,85.44 z m 193.617,-400.18 c 0.65,-31.43 -27.92,-48.17 -56.58,-33.57 -41,20.88 -81.689,42.4 -122.056,64.48 -10.758,5.89 -19.172,5.75 -29.813,-0.05 -38.796,-21.17 -78.175,-41.26 -117.14,-62.12 -15.387,-8.24 -30.688,-12.18 -46.121,-1.37 -15.641,10.96 -16.516,26.82 -13.516,44.03 7.813,44.81 14.719,89.78 23.156,134.46 2,10.58 -0.613,16.78 -7.828,23.7 -32.812,31.51 -64.988,63.69 -97.812,95.19 -12.864,12.34 -20.278,26.14 -14.207,43.8 6.117,17.79 21.007,23.27 38.375,25.58 43.808,5.83 87.492,12.6 131.277,18.6 11.059,1.51 17.934,5.78 23.02,16.74 19.128,41.22 39.835,81.71 59.468,122.7 7.676,16.04 18.313,27.53 37.071,27.2 17.945,-0.31 28.035,-11.82 35.363,-27.07 19.703,-40.96 40.193,-81.55 59.443,-122.72 5.02,-10.74 11.8,-15.36 23.03,-16.87 43.8,-5.92 87.48,-12.71 131.28,-18.59 17.29,-2.32 32.15,-7.58 38.41,-25.49 6.57,-18.75 -2.2,-32.52 -15.33,-45.14 -31.05,-29.84 -61.13,-60.72 -92.79,-89.89 -11.46,-10.57 -13.4,-20.87 -10.71,-35.15 8.31,-44.1 15.59,-88.38 23.25,-132.6 0.41,-2.38 0.63,-4.8 0.76,-5.85" style="fill:#eb7217;fill-opacity:1;fill-rule:nonzero;stroke:none" id="path16"></path><path d="m 369.93,1106.33 c 1.082,3.37 39.207,121.43 40.121,124.27 -53.297,-6.2 -84.969,19.31 -99.738,71.94 -14.051,-53.71 -47.461,-77.18 -102.68,-74.93 47.051,-29.93 58.148,-69.68 39.906,-120.94 42.82,34.82 83.098,34.63 122.391,-0.34 z m -206.992,-59.26 c 4.039,23.97 7.398,52.4 13.992,80.06 4.379,18.36 0.297,30.54 -13.762,42.63 -18.813,16.18 -35.566,34.74 -53.703,51.75 -13.0705,12.25 -19.8712,26.29 -13.9884,43.93 5.7344,17.19 19.9724,22.92 36.6444,25.11 27.609,3.62 55.109,8.1 82.734,11.57 11.309,1.42 17.989,6.17 22.86,17.04 11.64,25.98 25.101,51.12 37.461,76.78 7.125,14.79 17.543,25.01 34.582,25.33 17.933,0.34 28.777,-10.24 36.191,-25.66 12.336,-25.67 25.668,-50.88 37.328,-76.85 4.891,-10.89 11.938,-15.26 23.082,-16.67 27.625,-3.49 55.121,-7.98 82.735,-11.58 16.785,-2.19 30.48,-8.5 36.519,-25.44 6.106,-17.12 -0.824,-30.61 -13.015,-42.41 -21.356,-20.66 -43.004,-41.06 -63.528,-62.53 -4.449,-4.67 -7.242,-13.77 -6.351,-20.2 4.054,-29.42 9.586,-58.63 14.808,-87.88 2.879,-16.13 0.254,-30.53 -13.304,-40.89 -13.571,-10.36 -28.02,-9.34 -42.641,-1.53 -26.707,14.24 -53.285,28.77 -80.512,41.96 -5.804,2.82 -15.293,2.84 -21.093,0.03 -28.309,-13.74 -55.567,-29.66 -83.914,-43.3 -27.77,-13.359 -54.286,4.45 -53.125,38.75" style="fill:#eb7217;fill-opacity:1;fill-rule:nonzero;stroke:none" id="path18"></path><path d="m 1483.44,1105.96 c 42.93,36.52 83.79,34.75 127,0.95 -19.69,51.77 -6.71,90.61 40.16,118.3 -25.9,6.41 -51.09,6.42 -67.54,18.45 -16.63,12.15 -24.6,36.2 -38.27,58.09 -12.32,-51.1 -44.14,-77.62 -100.5,-74.16 47.34,-30.33 58.62,-69.67 39.15,-121.63 z m -83.84,-58.21 c 4.3,24.72 9.06,54.67 14.89,84.41 2.66,13.62 0.74,23.69 -10.46,33.54 -20.47,18 -39.11,38.06 -58.91,56.84 -12.56,11.92 -18.52,25.72 -13.08,42.55 5.58,17.25 19.7,23.2 36.39,25.41 27.61,3.66 55.12,8.03 82.73,11.6 11.08,1.42 18.17,5.67 23.1,16.72 11.86,26.54 25.55,52.25 38.28,78.4 7.25,14.92 18.36,24.31 35.34,24.08 16.22,-0.23 26.87,-9.64 33.8,-23.73 12.83,-26.1 26.11,-52 38.14,-78.48 4.83,-10.63 11.44,-15.59 22.85,-16.98 27.64,-3.36 55.12,-8.04 82.74,-11.54 17.61,-2.23 31.74,-9.06 37.41,-26.84 5.48,-17.19 -2.38,-30.47 -14.54,-42.13 -20.58,-19.72 -41.45,-39.21 -60.93,-59.99 -5.1,-5.45 -8.47,-15.7 -7.53,-23.09 3.64,-28.85 9.19,-57.47 14.32,-86.12 2.88,-16.09 0.5,-30.49 -12.96,-41.02 -14.23,-11.14 -29.19,-9.23 -44.25,-1.17 -24.02,12.85 -48.68,24.61 -72.02,38.59 -13.27,7.96 -23.46,6.91 -36.32,-0.57 -24.58,-14.28 -49.88,-27.45 -75.52,-39.75 -27.87,-13.382 -54.47,4.01 -53.47,39.27" style="fill:#eb7217;fill-opacity:1;fill-rule:nonzero;stroke:none" id="path20"></path><path d="m 1075.6,322.16 c 3.97,-1.711 12.36,-3.82 19.05,-8.422 41.64,-28.578 74.05,-65.5 96.91,-110.656 10.75,-21.23 5.48,-41.973 -12.84,-52.051 -17.88,-9.832 -38.46,-4.75 -49.41,15.649 -19.6,36.5 -45.95,66.261 -79.18,90.621 -14.09,10.328 -18.69,25.269 -12.48,42 5.64,15.168 17.32,22.679 37.95,22.859" style="fill:#231f20;fill-opacity:1;fill-rule:nonzero;stroke:none" id="path22"></path><path d="m 967.5,328.93 c 0.391,-19.071 -16.309,-36.379 -35.465,-36.77 -19.039,-0.379 -36.305,16.34 -36.695,35.539 -0.391,19.071 16.297,36.36 35.465,36.762 19.023,0.398 36.3,-16.332 36.695,-35.531" style="fill:#231f20;fill-opacity:1;fill-rule:nonzero;stroke:none" id="path24"></path></g></g></svg>