<svg xmlns="http://www.w3.org/2000/svg" xmlns:xlink="http://www.w3.org/1999/xlink" width="606" height="304" viewBox="0 0 606 304"><defs><clipPath id="a"><rect width="606" height="304" transform="translate(0 0)" fill="none"/></clipPath></defs><g transform="translate(1203.647 -432.882)" opacity="0.55"><g transform="translate(-1203.647 432.882)" clip-path="url(#a)"><g transform="translate(-58.294 -59.432)"><path d="M-1258.412,629.294s52.236,147.266,175.059,233.523" transform="translate(1261.941 -374.734)" fill="none" stroke="#d1cabf" stroke-miterlimit="10" stroke-width="1"/><path d="M-1242.882,603.882s52.235,147.267,175.058,233.523" transform="translate(1261.941 -374.568)" fill="none" stroke="#d1cabf" stroke-miterlimit="10" stroke-width="1"/><path d="M-1242.176,556.588s68.47,169.357,191.294,255.612" transform="translate(1261.941 -374.259)" fill="none" stroke="#d1cabf" stroke-miterlimit="10" stroke-width="1"/><path d="M-1226.647,541.059s12,55.4,91.059,149.37S-966.882,829.28-966.882,829.28" transform="translate(1261.941 -374.157)" fill="none" stroke="#d1cabf" stroke-miterlimit="10" stroke-width="1"/><path d="M-973.941,799.412" transform="translate(1261.941 -375.846)" fill="none" stroke="#d1cabf" stroke-width="1"/><path d="M-994.059,425.64s53.684,20.92,196.235,10.87c37.989-2.678,59.026-4.322,115.765-11.922" transform="translate(1261.941 -373.396)" fill="none" stroke="#d1cabf" stroke-miterlimit="10" stroke-width="1"/><path d="M-1224.529,509.294s1.423,17.011,24,54c31.232,51.169,98.913,136.828,223.058,234.925" transform="translate(1261.941 -373.949)" fill="none" stroke="#d1cabf" stroke-miterlimit="10" stroke-width="1"/><path d="M-1229.471,471.176s1.424,17.011,24,54c31.233,51.17,116.471,152.877,250.589,248.951" transform="translate(1261.941 -373.7)" fill="none" stroke="#d1cabf" stroke-miterlimit="10" stroke-width="1"/><path d="M-1223.824,454.941s-3.6,11.64,20.471,47.686c47.294,70.828,166.588,182.331,324.706,282.612" transform="translate(1261.941 -373.594)" fill="none" stroke="#d1cabf" stroke-miterlimit="10" stroke-width="1"/><path d="M-1220.294,449.294s17.647,74.335,212.47,213.186,291.53,167.6,291.53,167.6" transform="translate(1261.941 -373.557)" fill="none" stroke="#d1cabf" stroke-miterlimit="10" stroke-width="1"/><path d="M-1239.353,413.294s27.529,75.737,222.353,214.588S-692.294,797.59-692.294,797.59" transform="translate(1261.941 -373.322)" fill="none" stroke="#d1cabf" stroke-miterlimit="10" stroke-width="1"/><path d="M-1198.412,420.353s80.471,60.309,162.353,93.268,186.353,70.128,331.765,119.216S-469.941,757.663-468.529,755.56" transform="translate(1261.941 -373.368)" fill="none" stroke="#d1cabf" stroke-miterlimit="10" stroke-width="1"/><path d="M-1216.059,409.765s89.647,82.048,171.53,115.007S-886.4,591.863-743.118,646.794c210.353,80.645,268.236,154.279,269.647,152.175" transform="translate(1261.941 -373.299)" fill="none" stroke="#d1cabf" stroke-miterlimit="10" stroke-width="1"/><path d="M-1225.941,418.941s62.117,105.191,309.882,237.73,290.118,161.993,290.118,161.993" transform="translate(1261.941 -373.359)" fill="none" stroke="#d1cabf" stroke-width="1"/><path d="M-633.706,780.625s-142.588-82.75-300.706-161.291c-154.266-76.63-261.5-163.272-316.453-222.153q-2.058-2.2-4.017-4.356" transform="translate(1261.941 -373.188)" fill="none" stroke="#d1cabf" stroke-miterlimit="10" stroke-width="1"/><path d="M-561.706,772.782s-100.941-57.5-218.118-108.7-284.47-118.514-364.941-184.434-117.176-106.593-117.176-106.593" transform="translate(1261.941 -373.059)" fill="none" stroke="#d1cabf" stroke-miterlimit="10" stroke-width="1"/><path d="M-1182.882,416.824s-5.177,9.349,36.235,30.855,136,73.867,326.118,123.424,305.411,100.048,293.647,120.151" transform="translate(1261.941 -373.345)" fill="none" stroke="#d1cabf" stroke-miterlimit="10" stroke-width="1"/><path d="M-526.412,644.459s-24.47-27.116-187.764-69.66-232-51.894-312-81.347S-1159.824,437.819-1189,410.235" transform="translate(1261.941 -373.302)" fill="none" stroke="#d1cabf" stroke-miterlimit="10" stroke-width="1"/><path d="M-1158.882,424.353s57.882,43.479,178.823,71.529,392,63.582,458.824,121.085" transform="translate(1261.941 -373.394)" fill="none" stroke="#d1cabf" stroke-miterlimit="10" stroke-width="1"/><path d="M-519.824,581.361s-56.941-36-312.941-69.192-337.882-99.581-337.882-99.581" transform="translate(1261.941 -373.317)" fill="none" stroke="#d1cabf" stroke-miterlimit="10" stroke-width="1"/><path d="M-527.824,548.253s21.177-.935-131.764-26.649c-88.021-14.8-200.824-19.549-298.353-38.336-71.934-13.856-134.278-40.636-178.824-57.5" transform="translate(1261.941 -373.404)" fill="none" stroke="#d1cabf" stroke-miterlimit="10" stroke-width="1"/><path d="M-531.118,519.716s-104-21.506-252.235-26.181-310.588-43.946-336.941-70.595" transform="translate(1261.941 -373.385)" fill="none" stroke="#d1cabf" stroke-miterlimit="10" stroke-width="1"/><path d="M-525.941,496.867S-613,482.374-748.529,481.439s-278.589-23.376-346.353-49.557" transform="translate(1261.941 -373.443)" fill="none" stroke="#d1cabf" stroke-miterlimit="10" stroke-width="1"/><path d="M-1087.824,423.882s-6.588,7.013,64.471,23.376,101.647,20.571,200,23.375,283.765-1.4,300.235,8.416" transform="translate(1261.941 -373.391)" fill="none" stroke="#d1cabf" stroke-miterlimit="10" stroke-width="1"/><path d="M-529.706,457.565s-121.412,0-222.118,5.61-265.882-9.818-317.647-36" transform="translate(1261.941 -373.413)" fill="none" stroke="#d1cabf" stroke-miterlimit="10" stroke-width="1"/><path d="M-528.765,442.608c-6.117-.935-98.353,2.8-197.176,13.09s-289.883-5.142-328.941-28.05" transform="translate(1261.941 -373.416)" fill="none" stroke="#d1cabf" stroke-miterlimit="10" stroke-width="1"/><path d="M-597.941,423.123s-73.412,22.908-174.588,25.246-183.53,1.4-238.118-14.026-79.059-55.167-79.059-55.167" transform="translate(1261.941 -373.099)" fill="none" stroke="#d1cabf" stroke-miterlimit="10" stroke-width="1"/><path d="M-641.706,421.529s-54.588,18.7-156.235,22.441S-988.059,440.7-1020.059,423.4" transform="translate(1261.941 -373.376)" fill="none" stroke="#d1cabf" stroke-miterlimit="10" stroke-width="1"/></g></g></g></svg>