<?xml version="1.0" encoding="utf-8"?>
<!-- Generator: Adobe Illustrator 26.0.2, SVG Export Plug-In . SVG Version: 6.00 Build 0)  -->
<svg version="1.1" id="Layer_1" xmlns="http://www.w3.org/2000/svg" xmlns:xlink="http://www.w3.org/1999/xlink" x="0px" y="0px"
	 viewBox="0 0 400 133.87" style="enable-background:new 0 0 400 133.87;" xml:space="preserve">
<style type="text/css">
	.st0{fill:#FFFFFF;}
	.st1{fill-rule:evenodd;clip-rule:evenodd;fill:#FFFFFF;}
	.st2{fill-rule:evenodd;clip-rule:evenodd;fill:#676868;}
	.st3{fill-rule:evenodd;clip-rule:evenodd;fill:#E98025;}
</style>
<g>
	<g>
		<g>
			<path class="st0" d="M6.2,106.16h5.2c0.55,0,1.09,0.07,1.61,0.22c0.52,0.14,0.98,0.39,1.39,0.73c0.4,0.35,0.73,0.8,0.97,1.36
				c0.25,0.56,0.37,1.26,0.37,2.09c0,0.39-0.06,0.77-0.17,1.16c-0.11,0.38-0.27,0.74-0.48,1.05c-0.21,0.32-0.47,0.6-0.78,0.84
				c-0.31,0.24-0.65,0.42-1.03,0.53v0.05c1.04,0.26,1.8,0.76,2.28,1.51c0.48,0.75,0.72,1.66,0.72,2.71c0,1.75-0.47,3-1.41,3.76
				c-0.94,0.76-2.3,1.14-4.07,1.14H6.2V106.16z M8.33,113.56h2.4c0.22,0,0.49-0.02,0.82-0.07c0.32-0.05,0.64-0.17,0.95-0.36
				c0.31-0.19,0.57-0.48,0.78-0.86c0.21-0.39,0.32-0.9,0.32-1.56c0-0.91-0.23-1.61-0.68-2.09c-0.45-0.48-1.2-0.72-2.24-0.72H8.33
				V113.56z M8.33,121.58h2.85c0.55,0,1.02-0.09,1.4-0.26c0.38-0.18,0.68-0.41,0.91-0.7c0.23-0.29,0.39-0.62,0.5-1.01
				c0.1-0.38,0.15-0.78,0.15-1.2c0-0.59-0.09-1.09-0.26-1.5c-0.17-0.41-0.41-0.74-0.71-1.01c-0.3-0.26-0.65-0.45-1.05-0.57
				c-0.4-0.12-0.83-0.18-1.29-0.18H8.33V121.58z"/>
			<path class="st0" d="M27.79,123.31h-1.9v-1.51h-0.05c-0.27,0.59-0.7,1.05-1.28,1.37c-0.58,0.32-1.19,0.48-1.8,0.48
				c-0.84,0-1.48-0.14-1.94-0.42c-0.45-0.28-0.78-0.63-1-1.04c-0.21-0.42-0.34-0.86-0.37-1.33c-0.03-0.47-0.05-0.9-0.05-1.29v-9.13
				h1.99v8.89c0,0.24,0.01,0.51,0.04,0.82c0.02,0.3,0.1,0.59,0.23,0.85c0.13,0.27,0.31,0.48,0.56,0.66c0.24,0.18,0.6,0.27,1.05,0.27
				c0.27,0,0.55-0.05,0.84-0.15c0.29-0.09,0.57-0.25,0.82-0.45c0.25-0.21,0.46-0.48,0.62-0.81c0.16-0.33,0.24-0.72,0.24-1.19v-8.89
				h1.99V123.31z"/>
			<path class="st0" d="M31.5,106.16h1.99v2.31H31.5V106.16z M31.5,110.44h1.99v12.88H31.5V110.44z"/>
			<path class="st0" d="M37.31,106.16h1.99v17.15h-1.99V106.16z"/>
			<path class="st0" d="M51.38,123.31h-1.9v-1.59h-0.05c-0.06,0.24-0.18,0.48-0.34,0.71c-0.17,0.23-0.37,0.44-0.62,0.61
				c-0.24,0.18-0.52,0.32-0.82,0.44c-0.3,0.11-0.63,0.17-0.97,0.17c-0.76,0-1.4-0.16-1.92-0.49c-0.52-0.33-0.95-0.79-1.28-1.38
				c-0.33-0.59-0.57-1.31-0.73-2.14c-0.15-0.83-0.22-1.76-0.22-2.76c0-0.68,0.04-1.41,0.12-2.2c0.08-0.79,0.26-1.52,0.53-2.2
				c0.28-0.67,0.68-1.23,1.21-1.69c0.53-0.45,1.25-0.68,2.15-0.68c0.57,0,1.12,0.16,1.66,0.48c0.54,0.32,0.92,0.76,1.14,1.32h0.05
				v-5.74h1.99V123.31z M44.67,116.88c0,0.77,0.04,1.46,0.11,2.09c0.07,0.63,0.19,1.16,0.36,1.59c0.17,0.43,0.41,0.77,0.71,1.01
				c0.3,0.24,0.67,0.36,1.13,0.36c0.53,0,0.97-0.12,1.3-0.38c0.34-0.25,0.6-0.6,0.78-1.04c0.18-0.45,0.3-0.98,0.36-1.6
				c0.06-0.62,0.09-1.29,0.09-2.03c0-0.63-0.03-1.24-0.09-1.84c-0.06-0.6-0.19-1.14-0.38-1.62c-0.19-0.48-0.44-0.86-0.77-1.15
				c-0.33-0.29-0.76-0.43-1.29-0.43c-0.45,0-0.83,0.12-1.13,0.36c-0.3,0.24-0.53,0.57-0.71,1.01c-0.17,0.44-0.29,0.96-0.36,1.59
				C44.7,115.41,44.67,116.11,44.67,116.88z"/>
			<path class="st0" d="M55.08,106.16h1.99v2.31h-1.99V106.16z M55.08,110.44h1.99v12.88h-1.99V110.44z"/>
			<path class="st0" d="M60.78,110.44h1.9v1.52h0.05c0.27-0.59,0.7-1.05,1.28-1.37c0.58-0.32,1.19-0.48,1.8-0.48
				c0.84,0,1.48,0.14,1.94,0.42c0.45,0.28,0.78,0.63,1,1.04c0.21,0.42,0.34,0.86,0.37,1.33c0.03,0.47,0.05,0.9,0.05,1.29v9.13h-1.99
				v-8.89c0-0.24-0.01-0.51-0.04-0.82c-0.02-0.3-0.1-0.59-0.23-0.85c-0.13-0.26-0.32-0.48-0.57-0.66c-0.25-0.18-0.6-0.26-1.04-0.26
				c-0.27,0-0.55,0.04-0.84,0.14c-0.29,0.1-0.57,0.25-0.82,0.46c-0.25,0.21-0.46,0.48-0.62,0.8s-0.24,0.72-0.24,1.19v8.89h-1.99
				V110.44z"/>
			<path class="st0" d="M81.11,122.5c0,0.96-0.11,1.78-0.32,2.44c-0.21,0.66-0.51,1.2-0.89,1.62c-0.38,0.42-0.83,0.72-1.36,0.9
				c-0.53,0.18-1.11,0.27-1.74,0.27c-0.19,0-0.5-0.01-0.94-0.04c-0.44-0.03-0.88-0.15-1.33-0.35c-0.45-0.2-0.86-0.52-1.23-0.96
				c-0.37-0.44-0.6-1.06-0.68-1.86h1.99c0.05,0.59,0.27,1.01,0.66,1.26c0.4,0.25,0.85,0.37,1.38,0.37c0.63,0,1.12-0.11,1.46-0.32
				c0.34-0.22,0.59-0.48,0.74-0.78c0.15-0.31,0.23-0.62,0.25-0.95c0.02-0.33,0.02-0.6,0.02-0.83v-1.68h-0.05
				c-0.22,0.54-0.6,0.97-1.13,1.27c-0.53,0.3-1.11,0.46-1.74,0.46c-0.62,0-1.14-0.12-1.58-0.36c-0.43-0.24-0.8-0.55-1.09-0.94
				c-0.29-0.38-0.52-0.81-0.69-1.28c-0.16-0.47-0.29-0.95-0.38-1.43c-0.09-0.48-0.14-0.93-0.17-1.36c-0.02-0.42-0.04-0.78-0.04-1.07
				c0-0.87,0.06-1.71,0.19-2.52c0.13-0.82,0.35-1.54,0.68-2.18c0.32-0.63,0.75-1.14,1.28-1.51c0.53-0.38,1.2-0.56,2.01-0.56
				c0.35,0,0.68,0.06,0.98,0.17c0.31,0.11,0.58,0.26,0.82,0.43c0.24,0.18,0.44,0.38,0.6,0.62c0.17,0.24,0.28,0.49,0.34,0.75h0.05
				v-1.64h1.9V122.5z M76.7,111.83c-0.45,0-0.83,0.12-1.13,0.36c-0.3,0.24-0.53,0.57-0.71,1.01c-0.17,0.44-0.29,0.96-0.36,1.59
				c-0.07,0.62-0.11,1.32-0.11,2.09c0,0.53,0.03,1.07,0.08,1.62c0.06,0.55,0.16,1.05,0.32,1.51c0.16,0.45,0.38,0.83,0.68,1.13
				c0.3,0.3,0.7,0.44,1.2,0.44c0.53,0,0.97-0.12,1.31-0.36c0.34-0.24,0.6-0.57,0.79-1c0.19-0.42,0.31-0.92,0.38-1.5
				c0.06-0.57,0.09-1.19,0.09-1.85c0-0.63-0.03-1.24-0.09-1.84c-0.06-0.6-0.19-1.14-0.38-1.62c-0.19-0.48-0.44-0.86-0.77-1.15
				C77.67,111.98,77.23,111.83,76.7,111.83z"/>
			<path class="st0" d="M89.14,106.16h2.3l3.25,8.02l3.42-8.02h2.14l-4.48,10.43v6.73h-2.14v-6.73L89.14,106.16z"/>
			<path class="st0" d="M100.03,116.88c0-0.92,0.07-1.78,0.2-2.6c0.13-0.81,0.37-1.53,0.71-2.15c0.34-0.62,0.8-1.11,1.4-1.48
				c0.59-0.37,1.35-0.55,2.27-0.55c0.92,0,1.67,0.18,2.27,0.55c0.59,0.37,1.06,0.86,1.4,1.48c0.34,0.62,0.58,1.33,0.71,2.15
				c0.14,0.82,0.2,1.68,0.2,2.6c0,0.91-0.07,1.78-0.2,2.59c-0.13,0.81-0.37,1.53-0.72,2.15c-0.35,0.62-0.82,1.11-1.4,1.47
				c-0.59,0.37-1.34,0.55-2.25,0.55c-0.92,0-1.68-0.18-2.27-0.55c-0.59-0.37-1.06-0.86-1.4-1.47c-0.34-0.62-0.58-1.34-0.71-2.15
				C100.09,118.65,100.03,117.79,100.03,116.88z M104.56,122.06c0.51,0,0.93-0.14,1.26-0.42s0.58-0.66,0.77-1.13
				c0.19-0.47,0.31-1.02,0.37-1.64c0.06-0.63,0.09-1.29,0.09-1.99c0-0.69-0.03-1.35-0.09-1.98c-0.06-0.63-0.19-1.19-0.36-1.66
				c-0.18-0.47-0.43-0.85-0.76-1.13c-0.33-0.28-0.75-0.42-1.28-0.42c-0.5,0-0.9,0.14-1.21,0.42c-0.31,0.28-0.55,0.66-0.73,1.13
				c-0.18,0.47-0.3,1.02-0.36,1.66c-0.06,0.63-0.09,1.29-0.09,1.98c0,0.7,0.03,1.37,0.09,1.99c0.06,0.62,0.18,1.17,0.35,1.64
				c0.17,0.47,0.42,0.85,0.73,1.13C103.66,121.93,104.06,122.06,104.56,122.06z"/>
			<path class="st0" d="M120.53,123.31h-1.9v-1.51h-0.05c-0.27,0.59-0.7,1.05-1.28,1.37c-0.59,0.32-1.19,0.48-1.81,0.48
				c-0.84,0-1.48-0.14-1.93-0.42c-0.45-0.28-0.79-0.63-1-1.04c-0.22-0.42-0.34-0.86-0.37-1.33c-0.03-0.47-0.05-0.9-0.05-1.29v-9.13
				h1.99v8.89c0,0.24,0.01,0.51,0.04,0.82c0.02,0.3,0.1,0.59,0.23,0.85c0.13,0.27,0.31,0.48,0.56,0.66c0.24,0.18,0.6,0.27,1.06,0.27
				c0.27,0,0.55-0.05,0.84-0.15c0.29-0.09,0.57-0.25,0.82-0.45c0.25-0.21,0.46-0.48,0.62-0.81c0.16-0.33,0.24-0.72,0.24-1.19v-8.89
				h1.99V123.31z"/>
			<path class="st0" d="M124.11,110.44h1.99v1.92h0.05c0.14-0.3,0.3-0.59,0.46-0.86c0.17-0.27,0.36-0.51,0.58-0.72
				c0.22-0.21,0.47-0.37,0.75-0.49c0.27-0.12,0.6-0.18,0.96-0.18c0.4,0,0.69,0.05,0.88,0.14v1.97c-0.1-0.01-0.22-0.04-0.37-0.06
				c-0.15-0.02-0.39-0.04-0.7-0.04c-0.25,0-0.53,0.06-0.83,0.18c-0.3,0.12-0.58,0.3-0.84,0.56c-0.26,0.25-0.49,0.56-0.67,0.95
				c-0.18,0.39-0.27,0.84-0.27,1.37v8.14h-1.99V110.44z"/>
			<path class="st0" d="M138.85,106.16h2.14v15.28h6.84v1.87h-8.97V106.16z"/>
			<path class="st0" d="M152,117.12c0,0.5,0.01,1.03,0.03,1.61c0.03,0.58,0.11,1.11,0.27,1.61c0.15,0.5,0.39,0.91,0.71,1.24
				c0.32,0.33,0.78,0.49,1.38,0.49c0.46,0,0.83-0.11,1.11-0.32c0.28-0.22,0.49-0.48,0.64-0.8c0.15-0.31,0.24-0.64,0.29-0.98
				c0.05-0.35,0.07-0.64,0.07-0.88h2.04c0,0.34-0.06,0.77-0.18,1.29c-0.12,0.52-0.33,1.02-0.65,1.51c-0.32,0.49-0.75,0.9-1.31,1.25
				c-0.55,0.34-1.26,0.51-2.14,0.51c-1.56,0-2.69-0.54-3.38-1.63c-0.69-1.09-1.03-2.75-1.03-4.97c0-0.8,0.05-1.61,0.16-2.44
				c0.1-0.83,0.32-1.57,0.64-2.23c0.33-0.66,0.79-1.21,1.38-1.64s1.38-0.63,2.36-0.63c0.97,0,1.74,0.19,2.3,0.57
				c0.57,0.39,1,0.88,1.28,1.48c0.29,0.6,0.47,1.27,0.55,2c0.08,0.74,0.12,1.45,0.12,2.14v0.82H152z M156.5,115.53v-0.69
				c0-0.35-0.03-0.72-0.09-1.1c-0.06-0.38-0.17-0.72-0.34-1.02c-0.16-0.3-0.38-0.55-0.66-0.74c-0.28-0.19-0.64-0.29-1.07-0.29
				c-0.51,0-0.92,0.14-1.22,0.42c-0.3,0.28-0.53,0.6-0.69,0.97c-0.15,0.37-0.25,0.74-0.3,1.12c-0.05,0.38-0.07,0.66-0.07,0.85v0.48
				H156.5z"/>
			<path class="st0" d="M161.49,114.33c0-1.46,0.33-2.53,1-3.21c0.66-0.68,1.75-1.02,3.27-1.02c0.96,0,1.71,0.13,2.23,0.38
				c0.52,0.26,0.9,0.58,1.15,0.96c0.24,0.39,0.39,0.79,0.43,1.21c0.04,0.42,0.06,0.81,0.06,1.14v7.18c0,0.27,0.03,0.51,0.07,0.72
				c0.05,0.21,0.23,0.31,0.55,0.31c0.13,0,0.22-0.01,0.3-0.03c0.07-0.03,0.13-0.05,0.18-0.09v1.44c-0.08,0.02-0.23,0.04-0.45,0.07
				c-0.22,0.03-0.46,0.05-0.71,0.05c-0.19,0-0.38-0.01-0.58-0.02c-0.2-0.02-0.39-0.08-0.57-0.18c-0.18-0.11-0.33-0.27-0.45-0.49
				c-0.12-0.23-0.19-0.54-0.2-0.96h-0.05c-0.32,0.57-0.76,1.03-1.32,1.35c-0.56,0.33-1.15,0.49-1.75,0.49
				c-1.19,0-2.06-0.33-2.62-1.01c-0.56-0.68-0.84-1.59-0.84-2.74c0-0.91,0.19-1.67,0.58-2.27c0.39-0.6,0.99-1.03,1.81-1.28
				l2.68-0.82c0.37-0.11,0.65-0.23,0.85-0.35c0.2-0.12,0.34-0.25,0.43-0.39c0.09-0.15,0.14-0.31,0.15-0.51
				c0.02-0.19,0.03-0.42,0.03-0.69c0-1.26-0.68-1.9-2.04-1.9c-0.55,0-0.98,0.11-1.27,0.33c-0.29,0.21-0.51,0.47-0.64,0.75
				c-0.13,0.29-0.21,0.57-0.24,0.85c-0.02,0.28-0.03,0.48-0.03,0.59v0.12H161.49z M167.63,116.3c-0.19,0.19-0.43,0.35-0.72,0.48
				c-0.29,0.13-0.6,0.24-0.92,0.35c-0.32,0.11-0.63,0.21-0.94,0.31c-0.3,0.11-0.57,0.23-0.79,0.37c-0.31,0.21-0.55,0.46-0.72,0.76
				c-0.16,0.3-0.24,0.72-0.24,1.28c0,0.67,0.13,1.21,0.39,1.61c0.26,0.4,0.72,0.6,1.4,0.6c0.33,0,0.65-0.06,0.95-0.19
				c0.31-0.13,0.57-0.3,0.81-0.53c0.23-0.23,0.42-0.48,0.56-0.78c0.14-0.3,0.21-0.61,0.21-0.95V116.3z"/>
			<path class="st0" d="M181.68,123.31h-1.9v-1.59h-0.05c-0.06,0.24-0.18,0.48-0.34,0.71c-0.16,0.23-0.37,0.44-0.62,0.61
				c-0.24,0.18-0.52,0.32-0.82,0.44c-0.3,0.11-0.62,0.17-0.97,0.17c-0.76,0-1.4-0.16-1.92-0.49c-0.52-0.33-0.95-0.79-1.28-1.38
				c-0.33-0.59-0.57-1.31-0.72-2.14c-0.15-0.83-0.23-1.76-0.23-2.76c0-0.68,0.04-1.41,0.12-2.2c0.08-0.79,0.26-1.52,0.53-2.2
				c0.27-0.67,0.68-1.23,1.21-1.69c0.53-0.45,1.25-0.68,2.15-0.68c0.57,0,1.12,0.16,1.66,0.48c0.54,0.32,0.92,0.76,1.14,1.32h0.04
				v-5.74h1.99V123.31z M174.97,116.88c0,0.77,0.03,1.46,0.1,2.09c0.07,0.63,0.19,1.16,0.36,1.59c0.17,0.43,0.41,0.77,0.71,1.01
				c0.3,0.24,0.67,0.36,1.13,0.36c0.53,0,0.97-0.12,1.31-0.38c0.33-0.25,0.59-0.6,0.77-1.04c0.18-0.45,0.3-0.98,0.36-1.6
				c0.06-0.62,0.09-1.29,0.09-2.03c0-0.63-0.03-1.24-0.09-1.84c-0.06-0.6-0.19-1.14-0.37-1.62c-0.19-0.48-0.45-0.86-0.78-1.15
				c-0.33-0.29-0.76-0.43-1.29-0.43c-0.46,0-0.83,0.12-1.13,0.36c-0.3,0.24-0.53,0.57-0.71,1.01c-0.17,0.44-0.29,0.96-0.36,1.59
				C175,115.41,174.97,116.11,174.97,116.88z"/>
			<path class="st0" d="M186.98,117.12c0,0.5,0.01,1.03,0.03,1.61c0.02,0.58,0.11,1.11,0.27,1.61c0.16,0.5,0.39,0.91,0.71,1.24
				c0.32,0.33,0.78,0.49,1.38,0.49c0.46,0,0.84-0.11,1.12-0.32c0.28-0.22,0.49-0.48,0.64-0.8c0.15-0.31,0.24-0.64,0.29-0.98
				c0.04-0.35,0.07-0.64,0.07-0.88h2.04c0,0.34-0.06,0.77-0.18,1.29c-0.12,0.52-0.34,1.02-0.65,1.51c-0.32,0.49-0.75,0.9-1.31,1.25
				c-0.55,0.34-1.26,0.51-2.14,0.51c-1.56,0-2.69-0.54-3.38-1.63c-0.69-1.09-1.03-2.75-1.03-4.97c0-0.8,0.05-1.61,0.15-2.44
				c0.1-0.83,0.32-1.57,0.64-2.23c0.32-0.66,0.78-1.21,1.38-1.64c0.59-0.42,1.38-0.63,2.36-0.63c0.96,0,1.73,0.19,2.3,0.57
				c0.57,0.39,1,0.88,1.28,1.48c0.29,0.6,0.47,1.27,0.55,2c0.08,0.74,0.12,1.45,0.12,2.14v0.82H186.98z M191.48,115.53v-0.69
				c0-0.35-0.03-0.72-0.1-1.1c-0.06-0.38-0.17-0.72-0.33-1.02c-0.16-0.3-0.39-0.55-0.66-0.74s-0.63-0.29-1.07-0.29
				c-0.51,0-0.92,0.14-1.22,0.42c-0.3,0.28-0.53,0.6-0.69,0.97c-0.16,0.37-0.26,0.74-0.3,1.12c-0.05,0.38-0.07,0.66-0.07,0.85v0.48
				H191.48z"/>
			<path class="st0" d="M196.77,110.44h1.99v1.92h0.05c0.14-0.3,0.3-0.59,0.46-0.86c0.17-0.27,0.36-0.51,0.58-0.72
				c0.22-0.21,0.47-0.37,0.75-0.49c0.27-0.12,0.6-0.18,0.96-0.18c0.4,0,0.69,0.05,0.88,0.14v1.97c-0.1-0.01-0.22-0.04-0.37-0.06
				c-0.15-0.02-0.39-0.04-0.7-0.04c-0.25,0-0.53,0.06-0.83,0.18c-0.3,0.12-0.58,0.3-0.84,0.56c-0.26,0.25-0.49,0.56-0.67,0.95
				c-0.18,0.39-0.27,0.84-0.27,1.37v8.14h-1.99V110.44z"/>
			<path class="st0" d="M210.23,114.21c0-0.81-0.13-1.44-0.39-1.87c-0.26-0.43-0.76-0.65-1.48-0.65c-0.16,0-0.36,0.02-0.59,0.06
				c-0.24,0.04-0.46,0.12-0.68,0.25c-0.21,0.13-0.4,0.33-0.56,0.59c-0.16,0.27-0.24,0.62-0.24,1.07c0,0.38,0.09,0.7,0.27,0.94
				c0.18,0.24,0.42,0.44,0.71,0.61c0.29,0.17,0.63,0.31,1,0.42c0.37,0.11,0.76,0.23,1.15,0.36c0.38,0.13,0.75,0.27,1.13,0.42
				c0.37,0.15,0.7,0.36,0.99,0.62c0.29,0.27,0.53,0.6,0.71,1.01c0.18,0.41,0.27,0.93,0.27,1.57c0,0.67-0.1,1.26-0.31,1.77
				c-0.21,0.5-0.49,0.92-0.86,1.26c-0.36,0.33-0.8,0.59-1.31,0.75c-0.5,0.17-1.05,0.25-1.64,0.25c-1.08,0-1.91-0.18-2.5-0.53
				c-0.59-0.35-1.03-0.77-1.31-1.26c-0.28-0.49-0.44-0.99-0.49-1.5c-0.04-0.51-0.07-0.94-0.07-1.28h1.99c0,0.39,0.03,0.76,0.09,1.12
				c0.06,0.36,0.18,0.68,0.36,0.96c0.17,0.28,0.42,0.5,0.73,0.66c0.31,0.16,0.71,0.24,1.2,0.24c0.16,0,0.36-0.02,0.59-0.07
				s0.47-0.15,0.7-0.31c0.23-0.16,0.42-0.38,0.58-0.65c0.16-0.27,0.24-0.64,0.24-1.11c0-0.43-0.09-0.79-0.27-1.07
				c-0.18-0.28-0.42-0.51-0.71-0.7c-0.29-0.18-0.63-0.34-1-0.47s-0.75-0.26-1.13-0.38c-0.38-0.13-0.76-0.27-1.14-0.42
				c-0.38-0.15-0.72-0.36-1.01-0.61c-0.29-0.26-0.53-0.59-0.71-1.01c-0.18-0.42-0.27-0.95-0.27-1.61c0-0.59,0.11-1.11,0.32-1.56
				c0.21-0.45,0.5-0.82,0.88-1.12c0.37-0.3,0.8-0.51,1.29-0.66c0.49-0.14,1.01-0.21,1.57-0.21c0.92,0,1.64,0.14,2.16,0.43
				c0.52,0.29,0.91,0.64,1.16,1.06c0.25,0.42,0.4,0.86,0.46,1.33c0.06,0.47,0.09,0.9,0.09,1.28H210.23z"/>
			<path class="st0" d="M215.4,106.16h1.99v5.74h0.05c0.13-0.26,0.3-0.5,0.53-0.72c0.23-0.23,0.48-0.42,0.76-0.58
				c0.28-0.16,0.57-0.29,0.88-0.37c0.31-0.09,0.6-0.13,0.89-0.13c0.82,0,1.46,0.14,1.9,0.42c0.44,0.28,0.77,0.63,0.98,1.04
				c0.2,0.42,0.32,0.86,0.36,1.33c0.03,0.47,0.04,0.9,0.04,1.29v9.13h-1.99v-8.89c0-0.24-0.01-0.51-0.04-0.82
				c-0.02-0.3-0.1-0.59-0.23-0.85c-0.13-0.26-0.32-0.48-0.57-0.66c-0.25-0.18-0.6-0.26-1.05-0.26c-0.27,0-0.55,0.04-0.84,0.14
				c-0.29,0.1-0.57,0.25-0.82,0.46c-0.25,0.21-0.46,0.48-0.62,0.8c-0.16,0.33-0.24,0.72-0.24,1.19v8.89h-1.99V106.16z"/>
			<path class="st0" d="M227.48,106.16h1.99v2.31h-1.99V106.16z M227.48,110.44h1.99v12.88h-1.99V110.44z"/>
			<path class="st0" d="M233.17,110.44h1.9v1.59h0.05c0.06-0.24,0.18-0.48,0.34-0.71c0.17-0.23,0.37-0.44,0.62-0.61
				s0.52-0.32,0.82-0.43c0.3-0.11,0.62-0.17,0.97-0.17c0.76,0,1.4,0.16,1.92,0.48c0.52,0.32,0.95,0.77,1.28,1.34
				c0.33,0.58,0.57,1.26,0.72,2.07c0.15,0.8,0.23,1.68,0.23,2.64c0,0.74-0.06,1.51-0.19,2.33c-0.13,0.82-0.34,1.58-0.65,2.27
				c-0.31,0.7-0.73,1.27-1.27,1.73c-0.54,0.46-1.22,0.68-2.04,0.68c-0.57,0-1.1-0.16-1.59-0.48c-0.49-0.32-0.85-0.76-1.07-1.32
				h-0.05v5.69h-1.99V110.44z M235.05,116.88c0,0.62,0.03,1.23,0.1,1.84c0.06,0.6,0.19,1.14,0.37,1.62s0.44,0.87,0.77,1.15
				c0.33,0.29,0.76,0.44,1.29,0.44c0.45,0,0.83-0.12,1.13-0.36c0.3-0.24,0.53-0.59,0.7-1.04c0.17-0.45,0.29-1,0.36-1.66
				c0.07-0.66,0.11-1.4,0.11-2.23c0-0.71-0.04-1.35-0.11-1.95c-0.07-0.59-0.19-1.1-0.36-1.52c-0.17-0.42-0.41-0.75-0.7-0.99
				c-0.3-0.23-0.67-0.35-1.13-0.35c-0.55,0-0.99,0.12-1.32,0.37c-0.33,0.25-0.58,0.6-0.76,1.04c-0.18,0.45-0.3,0.98-0.36,1.6
				C235.08,115.46,235.05,116.14,235.05,116.88z"/>
			<path class="st0" d="M252.09,106.16h4.53c1.31,0,2.36,0.23,3.14,0.67c0.78,0.45,1.38,1.06,1.79,1.84
				c0.41,0.78,0.68,1.69,0.81,2.72c0.13,1.04,0.19,2.15,0.19,3.34c0,1.09-0.08,2.15-0.24,3.17c-0.16,1.02-0.45,1.94-0.88,2.74
				c-0.43,0.8-1.01,1.45-1.75,1.94c-0.75,0.49-1.69,0.73-2.85,0.73h-4.75V106.16z M254.22,121.58h2.18c0.9,0,1.62-0.21,2.15-0.64
				c0.53-0.42,0.93-0.96,1.21-1.62c0.28-0.66,0.46-1.39,0.53-2.2c0.08-0.81,0.12-1.6,0.12-2.37c0-0.83-0.03-1.66-0.1-2.47
				c-0.06-0.81-0.22-1.55-0.49-2.2c-0.26-0.65-0.66-1.18-1.2-1.59c-0.54-0.41-1.28-0.61-2.23-0.61h-2.18V121.58z"/>
			<path class="st0" d="M266.09,106.16h1.99v2.31h-1.99V106.16z M266.09,110.44h1.99v12.88h-1.99V110.44z"/>
			<path class="st0" d="M272.38,112.03h-1.85v-1.59h1.85v-1.51c0-0.98,0.22-1.71,0.65-2.21c0.43-0.5,1.13-0.74,2.1-0.74h1.45v1.73
				h-0.93c-0.43,0-0.75,0.09-0.96,0.27c-0.22,0.18-0.32,0.5-0.32,0.95v1.51h2.18v1.59h-2.18v11.29h-1.99V112.03z"/>
			<path class="st0" d="M279.49,112.03h-1.85v-1.59h1.85v-1.51c0-0.98,0.22-1.71,0.65-2.21c0.44-0.5,1.13-0.74,2.1-0.74h1.45v1.73
				h-0.93c-0.43,0-0.75,0.09-0.96,0.27c-0.21,0.18-0.32,0.5-0.32,0.95v1.51h2.18v1.59h-2.18v11.29h-1.99V112.03z"/>
			<path class="st0" d="M287.73,117.12c0,0.5,0.01,1.03,0.03,1.61c0.03,0.58,0.12,1.11,0.27,1.61c0.15,0.5,0.39,0.91,0.71,1.24
				c0.32,0.33,0.78,0.49,1.38,0.49c0.46,0,0.83-0.11,1.11-0.32c0.28-0.22,0.49-0.48,0.64-0.8c0.15-0.31,0.24-0.64,0.29-0.98
				c0.05-0.35,0.07-0.64,0.07-0.88h2.04c0,0.34-0.06,0.77-0.18,1.29c-0.12,0.52-0.33,1.02-0.65,1.51c-0.32,0.49-0.75,0.9-1.31,1.25
				c-0.55,0.34-1.26,0.51-2.14,0.51c-1.56,0-2.69-0.54-3.38-1.63c-0.69-1.09-1.03-2.75-1.03-4.97c0-0.8,0.05-1.61,0.16-2.44
				c0.1-0.83,0.32-1.57,0.64-2.23c0.33-0.66,0.79-1.21,1.38-1.64s1.38-0.63,2.36-0.63c0.97,0,1.74,0.19,2.3,0.57
				c0.57,0.39,1,0.88,1.28,1.48c0.29,0.6,0.47,1.27,0.55,2c0.08,0.74,0.12,1.45,0.12,2.14v0.82H287.73z M292.24,115.53v-0.69
				c0-0.35-0.03-0.72-0.09-1.1c-0.06-0.38-0.17-0.72-0.34-1.02c-0.16-0.3-0.38-0.55-0.66-0.74c-0.28-0.19-0.64-0.29-1.07-0.29
				c-0.51,0-0.92,0.14-1.22,0.42c-0.3,0.28-0.53,0.6-0.69,0.97c-0.15,0.37-0.25,0.74-0.3,1.12c-0.05,0.38-0.07,0.66-0.07,0.85v0.48
				H292.24z"/>
			<path class="st0" d="M297.53,110.44h1.99v1.92h0.05c0.14-0.3,0.3-0.59,0.46-0.86c0.17-0.27,0.36-0.51,0.58-0.72
				c0.22-0.21,0.47-0.37,0.75-0.49c0.27-0.12,0.6-0.18,0.96-0.18c0.4,0,0.69,0.05,0.88,0.14v1.97c-0.1-0.01-0.22-0.04-0.37-0.06
				c-0.15-0.02-0.39-0.04-0.7-0.04c-0.25,0-0.53,0.06-0.83,0.18c-0.3,0.12-0.58,0.3-0.84,0.56c-0.26,0.25-0.49,0.56-0.67,0.95
				c-0.18,0.39-0.27,0.84-0.27,1.37v8.14h-1.99V110.44z"/>
			<path class="st0" d="M307.24,117.12c0,0.5,0.01,1.03,0.03,1.61c0.03,0.58,0.12,1.11,0.27,1.61c0.15,0.5,0.39,0.91,0.71,1.24
				c0.32,0.33,0.78,0.49,1.38,0.49c0.46,0,0.83-0.11,1.11-0.32c0.28-0.22,0.49-0.48,0.64-0.8c0.15-0.31,0.24-0.64,0.29-0.98
				c0.05-0.35,0.07-0.64,0.07-0.88h2.04c0,0.34-0.06,0.77-0.18,1.29c-0.12,0.52-0.33,1.02-0.65,1.51c-0.32,0.49-0.75,0.9-1.31,1.25
				c-0.55,0.34-1.26,0.51-2.14,0.51c-1.56,0-2.69-0.54-3.38-1.63c-0.69-1.09-1.03-2.75-1.03-4.97c0-0.8,0.05-1.61,0.16-2.44
				c0.1-0.83,0.32-1.57,0.64-2.23c0.33-0.66,0.79-1.21,1.38-1.64s1.38-0.63,2.36-0.63c0.97,0,1.74,0.19,2.3,0.57
				c0.57,0.39,1,0.88,1.28,1.48c0.29,0.6,0.47,1.27,0.55,2c0.08,0.74,0.12,1.45,0.12,2.14v0.82H307.24z M311.74,115.53v-0.69
				c0-0.35-0.03-0.72-0.09-1.1c-0.06-0.38-0.17-0.72-0.34-1.02c-0.16-0.3-0.38-0.55-0.66-0.74c-0.28-0.19-0.64-0.29-1.07-0.29
				c-0.51,0-0.92,0.14-1.22,0.42c-0.3,0.28-0.53,0.6-0.69,0.97c-0.15,0.37-0.25,0.74-0.3,1.12c-0.05,0.38-0.07,0.66-0.07,0.85v0.48
				H311.74z"/>
			<path class="st0" d="M317.04,110.44h1.9v1.52h0.05c0.27-0.59,0.69-1.05,1.28-1.37c0.59-0.32,1.19-0.48,1.81-0.48
				c0.84,0,1.48,0.14,1.93,0.42c0.45,0.28,0.78,0.63,1,1.04c0.22,0.42,0.34,0.86,0.37,1.33c0.03,0.47,0.05,0.9,0.05,1.29v9.13h-1.99
				v-8.89c0-0.24-0.01-0.51-0.03-0.82c-0.03-0.3-0.1-0.59-0.23-0.85c-0.13-0.26-0.32-0.48-0.57-0.66c-0.25-0.18-0.6-0.26-1.04-0.26
				c-0.27,0-0.55,0.04-0.84,0.14c-0.29,0.1-0.57,0.25-0.82,0.46c-0.26,0.21-0.46,0.48-0.62,0.8c-0.16,0.33-0.24,0.72-0.24,1.19v8.89
				h-1.99V110.44z"/>
			<path class="st0" d="M329.59,106.69h1.99v3.75h2.21v1.59h-2.21v8.26c0,0.51,0.09,0.88,0.26,1.11c0.17,0.23,0.52,0.33,1.04,0.33
				c0.22,0,0.4-0.01,0.52-0.02c0.13-0.01,0.24-0.03,0.36-0.05v1.66c-0.13,0.03-0.32,0.06-0.59,0.09c-0.27,0.03-0.61,0.05-1.02,0.05
				c-0.52,0-0.95-0.05-1.28-0.15c-0.33-0.11-0.59-0.27-0.78-0.48c-0.19-0.22-0.32-0.48-0.39-0.81c-0.07-0.32-0.11-0.69-0.11-1.1
				v-8.89h-1.85v-1.59h1.85V106.69z"/>
			<path class="st0" d="M336.23,106.16h1.99v2.31h-1.99V106.16z M336.23,110.44h1.99v12.88h-1.99V110.44z"/>
			<path class="st0" d="M341.62,114.33c0-1.46,0.33-2.53,1-3.21c0.66-0.68,1.75-1.02,3.27-1.02c0.96,0,1.71,0.13,2.23,0.38
				c0.52,0.26,0.9,0.58,1.15,0.96c0.24,0.39,0.39,0.79,0.43,1.21c0.04,0.42,0.06,0.81,0.06,1.14v7.18c0,0.27,0.03,0.51,0.07,0.72
				c0.05,0.21,0.23,0.31,0.55,0.31c0.13,0,0.22-0.01,0.3-0.03c0.07-0.03,0.13-0.05,0.18-0.09v1.44c-0.08,0.02-0.23,0.04-0.45,0.07
				c-0.22,0.03-0.46,0.05-0.71,0.05c-0.19,0-0.38-0.01-0.58-0.02c-0.2-0.02-0.39-0.08-0.57-0.18c-0.18-0.11-0.33-0.27-0.45-0.49
				c-0.12-0.23-0.19-0.54-0.2-0.96h-0.05c-0.32,0.57-0.76,1.03-1.32,1.35c-0.56,0.33-1.15,0.49-1.75,0.49
				c-1.19,0-2.06-0.33-2.62-1.01c-0.56-0.68-0.84-1.59-0.84-2.74c0-0.91,0.19-1.67,0.58-2.27c0.39-0.6,0.99-1.03,1.81-1.28
				l2.68-0.82c0.37-0.11,0.65-0.23,0.85-0.35c0.2-0.12,0.34-0.25,0.43-0.39c0.09-0.15,0.14-0.31,0.15-0.51
				c0.02-0.19,0.03-0.42,0.03-0.69c0-1.26-0.68-1.9-2.04-1.9c-0.55,0-0.98,0.11-1.27,0.33c-0.29,0.21-0.51,0.47-0.64,0.75
				c-0.13,0.29-0.21,0.57-0.24,0.85c-0.02,0.28-0.03,0.48-0.03,0.59v0.12H341.62z M347.77,116.3c-0.19,0.19-0.43,0.35-0.72,0.48
				c-0.29,0.13-0.6,0.24-0.92,0.35c-0.32,0.11-0.63,0.21-0.94,0.31c-0.3,0.11-0.57,0.23-0.79,0.37c-0.31,0.21-0.55,0.46-0.72,0.76
				c-0.16,0.3-0.24,0.72-0.24,1.28c0,0.67,0.13,1.21,0.39,1.61c0.26,0.4,0.72,0.6,1.4,0.6c0.33,0,0.65-0.06,0.95-0.19
				c0.31-0.13,0.57-0.3,0.81-0.53c0.23-0.23,0.42-0.48,0.56-0.78c0.14-0.3,0.21-0.61,0.21-0.95V116.3z"/>
			<path class="st0" d="M354.27,106.69h1.99v3.75h2.21v1.59h-2.21v8.26c0,0.51,0.09,0.88,0.26,1.11c0.17,0.23,0.52,0.33,1.05,0.33
				c0.22,0,0.39-0.01,0.52-0.02c0.13-0.01,0.24-0.03,0.36-0.05v1.66c-0.13,0.03-0.33,0.06-0.59,0.09c-0.27,0.03-0.61,0.05-1.02,0.05
				c-0.52,0-0.95-0.05-1.28-0.15c-0.33-0.11-0.59-0.27-0.78-0.48c-0.19-0.22-0.32-0.48-0.39-0.81c-0.07-0.32-0.11-0.69-0.11-1.1
				v-8.89h-1.85v-1.59h1.85V106.69z"/>
			<path class="st0" d="M360.18,116.88c0-0.92,0.07-1.78,0.2-2.6c0.13-0.81,0.37-1.53,0.71-2.15c0.34-0.62,0.81-1.11,1.4-1.48
				c0.59-0.37,1.35-0.55,2.27-0.55c0.92,0,1.67,0.18,2.27,0.55c0.59,0.37,1.06,0.86,1.4,1.48c0.34,0.62,0.58,1.33,0.71,2.15
				c0.13,0.82,0.2,1.68,0.2,2.6c0,0.91-0.07,1.78-0.2,2.59c-0.13,0.81-0.38,1.53-0.72,2.15c-0.35,0.62-0.82,1.11-1.4,1.47
				c-0.59,0.37-1.34,0.55-2.25,0.55c-0.92,0-1.67-0.18-2.27-0.55c-0.59-0.37-1.06-0.86-1.4-1.47c-0.34-0.62-0.58-1.34-0.71-2.15
				C360.24,118.65,360.18,117.79,360.18,116.88z M364.71,122.06c0.52,0,0.93-0.14,1.26-0.42c0.33-0.28,0.58-0.66,0.77-1.13
				c0.19-0.47,0.31-1.02,0.37-1.64c0.06-0.63,0.09-1.29,0.09-1.99c0-0.69-0.03-1.35-0.09-1.98c-0.06-0.63-0.18-1.19-0.36-1.66
				c-0.18-0.47-0.43-0.85-0.76-1.13c-0.33-0.28-0.75-0.42-1.28-0.42c-0.5,0-0.9,0.14-1.21,0.42c-0.31,0.28-0.56,0.66-0.73,1.13
				c-0.18,0.47-0.3,1.02-0.36,1.66c-0.06,0.63-0.09,1.29-0.09,1.98c0,0.7,0.03,1.37,0.09,1.99c0.06,0.62,0.18,1.17,0.35,1.64
				c0.17,0.47,0.42,0.85,0.73,1.13C363.81,121.93,364.21,122.06,364.71,122.06z"/>
			<path class="st0" d="M372.3,110.44h1.99v1.92h0.05c0.14-0.3,0.3-0.59,0.46-0.86c0.17-0.27,0.36-0.51,0.58-0.72
				c0.22-0.21,0.47-0.37,0.75-0.49c0.27-0.12,0.6-0.18,0.96-0.18c0.4,0,0.69,0.05,0.88,0.14v1.97c-0.1-0.01-0.22-0.04-0.37-0.06
				c-0.15-0.02-0.39-0.04-0.7-0.04c-0.25,0-0.53,0.06-0.83,0.18c-0.3,0.12-0.58,0.3-0.84,0.56c-0.26,0.25-0.49,0.56-0.67,0.95
				c-0.18,0.39-0.27,0.84-0.27,1.37v8.14h-1.99V110.44z"/>
			<path class="st0" d="M385.76,114.21c0-0.81-0.13-1.44-0.39-1.87c-0.26-0.43-0.76-0.65-1.48-0.65c-0.16,0-0.36,0.02-0.59,0.06
				c-0.24,0.04-0.46,0.12-0.67,0.25c-0.22,0.13-0.4,0.33-0.56,0.59c-0.16,0.27-0.24,0.62-0.24,1.07c0,0.38,0.09,0.7,0.27,0.94
				c0.18,0.24,0.42,0.44,0.71,0.61c0.29,0.17,0.62,0.31,1,0.42c0.37,0.11,0.75,0.23,1.15,0.36c0.38,0.13,0.76,0.27,1.13,0.42
				c0.37,0.15,0.7,0.36,1,0.62c0.29,0.27,0.53,0.6,0.71,1.01s0.27,0.93,0.27,1.57c0,0.67-0.1,1.26-0.31,1.77
				c-0.2,0.5-0.49,0.92-0.85,1.26c-0.36,0.33-0.8,0.59-1.31,0.75c-0.51,0.17-1.05,0.25-1.64,0.25c-1.08,0-1.91-0.18-2.5-0.53
				c-0.59-0.35-1.03-0.77-1.31-1.26c-0.28-0.49-0.44-0.99-0.49-1.5c-0.05-0.51-0.07-0.94-0.07-1.28h1.99c0,0.39,0.03,0.76,0.1,1.12
				c0.06,0.36,0.18,0.68,0.36,0.96c0.17,0.28,0.42,0.5,0.72,0.66c0.31,0.16,0.71,0.24,1.2,0.24c0.16,0,0.36-0.02,0.59-0.07
				s0.47-0.15,0.7-0.31c0.23-0.16,0.42-0.38,0.58-0.65c0.16-0.27,0.24-0.64,0.24-1.11c0-0.43-0.09-0.79-0.27-1.07
				c-0.18-0.28-0.42-0.51-0.71-0.7c-0.29-0.18-0.62-0.34-0.99-0.47c-0.37-0.13-0.75-0.26-1.13-0.38c-0.38-0.13-0.76-0.27-1.14-0.42
				c-0.38-0.15-0.72-0.36-1.01-0.61c-0.29-0.26-0.53-0.59-0.71-1.01c-0.18-0.42-0.27-0.95-0.27-1.61c0-0.59,0.11-1.11,0.32-1.56
				c0.22-0.45,0.51-0.82,0.88-1.12s0.8-0.51,1.29-0.66c0.49-0.14,1.01-0.21,1.56-0.21c0.92,0,1.64,0.14,2.16,0.43
				c0.52,0.29,0.91,0.64,1.16,1.06c0.25,0.42,0.41,0.86,0.46,1.33c0.06,0.47,0.08,0.9,0.08,1.28H385.76z"/>
		</g>
	</g>
	<g>
		<g>
			<path class="st0" d="M161.42,14.15h27.34c3.15,0,6.11,0.38,8.88,1.14c2.76,0.76,5.17,1.96,7.22,3.6
				c2.05,1.64,3.67,3.77,4.85,6.41c1.18,2.63,1.78,5.83,1.78,9.58c0,10.3-4.14,16.77-12.43,19.41v0.24c2.29,0.4,4.38,1.08,6.27,2.04
				c1.89,0.96,3.49,2.29,4.79,4.01c1.3,1.72,2.31,3.88,3.02,6.47c0.71,2.6,1.07,5.69,1.07,9.29c0,3.59-0.61,6.83-1.84,9.7
				c-1.22,2.87-2.96,5.33-5.21,7.37c-2.25,2.04-4.99,3.6-8.23,4.67c-3.24,1.08-6.83,1.62-10.77,1.62h-26.75V14.15z M185.56,50.22
				c4.1,0,7.2-1.24,9.29-3.71c2.09-2.48,3.14-5.75,3.14-9.83c0-2.56-0.35-4.63-1.06-6.23c-0.71-1.6-1.68-2.83-2.9-3.71
				c-1.22-0.88-2.66-1.48-4.32-1.8c-1.66-0.32-3.43-0.48-5.33-0.48h-9.47v25.76H185.56z M188.28,89.39c4.02,0,7.1-1.26,9.23-3.77
				c2.13-2.52,3.19-6.29,3.19-11.32c0-4.63-1.2-8.21-3.61-10.73c-2.41-2.51-5.62-3.77-9.65-3.77h-12.55v29.59H188.28z"/>
			<path class="st0" d="M239.3,66.27l-21.78-52.12h15.03l14.2,36.9l14.56-36.9h14.09l-22.61,52.12V99.7H239.3V66.27z"/>
			<path class="st0" d="M280.37,14.15h13.49V88.2h32.67v11.5h-46.16V14.15z"/>
			<path class="st0" d="M334.46,14.15h24.03c6.63,0,11.91,1.04,15.86,3.12c3.94,2.08,6.94,5.01,9,8.8
				c2.05,3.79,3.39,8.31,4.02,13.54c0.63,5.23,0.95,11,0.95,17.32s-0.32,12.08-0.95,17.31c-0.63,5.23-1.97,9.75-4.02,13.54
				c-2.05,3.79-5.05,6.73-9,8.81c-3.95,2.08-9.23,3.12-15.86,3.12h-24.03V14.15z M347.95,89.39h11.13c2.76,0,5.15-0.52,7.16-1.56
				c2.01-1.04,3.65-2.8,4.91-5.27c1.26-2.48,2.19-5.81,2.78-10.01c0.59-4.19,0.89-9.4,0.89-15.63c0-5.99-0.28-11.06-0.83-15.22
				c-0.55-4.15-1.44-7.51-2.66-10.07c-1.23-2.56-2.84-4.39-4.85-5.51c-2.01-1.12-4.48-1.67-7.4-1.67h-11.13V89.39z"/>
		</g>
		<g>
			<path class="st1" d="M103.36,76.39c-3.78,0-6.78,0-9.44,0c0.27,1.66,0.75,3.19,0.72,4.7c-0.04,2.08-0.41,4.16-0.75,6.22
				c-0.16,1-0.55,1.96-0.97,3.36c-3.08-6.11-5.96-11.67-8.68-17.31c-0.8-1.65-1.73-2.34-3.53-1.97c-5.28,1.08-10.53,2.32-15.25,5.06
				c-8.18,4.76-12.48,11.96-12.94,21.51c-0.07,1.4,0.34,2.12,1.82,1.99c0.68-0.05,1.38,0,2.07,0c27.78,0,55.57,0,83.35,0
				c0.83,0,1.66-0.03,2.49,0c1.21,0.04,1.69-0.5,1.66-1.75c-0.1-6.08-1.89-11.57-5.88-16.14c-4.96-5.7-11.61-8.41-18.74-9.88
				c-6.88-1.42-5.09-2.12-8.31,3.98c-2.49,4.72-4.89,9.48-7.71,14.96c-0.51-4.03-0.71-7.25-1.4-10.35
				C101.49,79.01,101.94,77.82,103.36,76.39z M55.37,66.2c6.18,0,11.82,0.02,17.46-0.01c1.48-0.01,1.24-1.21,1.24-2.14
				c0.01-6.71,0.18-13.43-0.09-20.14c-0.17-4.02-0.73-8.08-1.69-11.97c-1.41-5.7-4.37-10.63-9.44-13.78
				c-8.22-5.08-17.02-5.54-25.81-2.02c-9.35,3.73-13.16,11.76-14.48,21.27c-1.22,8.76-0.58,17.59-0.68,26.38
				c-0.03,2.34,0.07,2.39,2.25,2.42c3.32,0.04,6.63,0.04,9.95,0c2.1-0.03,4.23,0.22,6.62-0.26c-5.25-6.38-7.7-13.47-8.53-21.45
				c7.34-0.65,13.98-2.62,19-8.52c3.3,3.55,7.09,5.97,11.56,7.26c0.86,0.25,1.39,0.75,1.22,1.84c-0.96,5.96-2.55,11.7-5.67,16.92
				C57.5,63.28,56.57,64.47,55.37,66.2z M96.87,14.1C90,14.28,83.65,18.15,80.06,26.28c-1.37,3.1-1.98,6.37-1.96,9.77
				c0.01,1.34,0.01,2.54-1.17,3.77c-2.17,2.27-1.79,5.94,0.81,7.64c1.48,0.96,1.93,2.15,2.46,3.59c2.12,5.77,5.35,10.7,10.52,14.16
				c4.9,3.29,9.77,3.31,14.7,0.08c5.04-3.3,8.57-7.87,10.91-13.38c0.76-1.78,1.33-3.48,2.94-4.86c1.9-1.63,2.21-5,0.66-6.89
				c-1.28-1.57-1.34-3.28-1.67-5.02c-0.42-2.19-0.56-4.44-1.11-6.58C114.81,19.53,107.85,14.14,96.87,14.1z M36.93,72.95
				c-2.61,0.38-4.38,0.57-6.12,0.89c-5.48,1-10.72,2.67-15.36,5.89c-6.13,4.26-9.13,10.28-9.47,17.71
				c-0.11,2.43-0.04,2.43,2.51,2.51c0.28,0.01,0.55,0,0.83,0c10.65,0,21.3,0,31.95-0.01c0.92,0,1.85-0.13,3.36-0.25
				c-3.59-3.63-6.82-6.86-10-10.14c-1.23-1.28-2.31-2.69-3.46-4.04c0.95-1.18,1.9-2.35,2.83-3.53c0.06-0.08,0.03-0.24,0.05-0.56
				c-1.48-0.11-2.97-0.23-5.03-0.38C31.64,78.37,33.95,76,36.93,72.95z"/>
			<path class="st2" d="M103.36,76.39c-1.42,1.43-1.87,2.62-1.48,4.38c0.69,3.11,0.89,6.33,1.4,10.35
				c2.82-5.48,5.23-10.24,7.71-14.96c3.22-6.1,1.43-5.4,8.31-3.98c7.13,1.47,13.78,4.18,18.74,9.88c3.98,4.57,5.77,10.06,5.88,16.14
				c0.02,1.26-0.45,1.79-1.66,1.75c-0.83-0.03-1.66,0-2.49,0c-27.78,0-55.57,0-83.35,0c-0.69,0-1.39-0.05-2.07,0
				c-1.48,0.12-1.89-0.6-1.82-1.99c0.46-9.56,4.75-16.76,12.94-21.51c4.72-2.74,9.96-3.98,15.25-5.06c1.8-0.37,2.73,0.32,3.53,1.97
				c2.72,5.64,5.6,11.2,8.68,17.31c0.41-1.4,0.8-2.36,0.97-3.36c0.33-2.06,0.71-4.15,0.75-6.22c0.03-1.51-0.44-3.04-0.72-4.7
				C96.58,76.39,99.58,76.39,103.36,76.39z"/>
			<path class="st3" d="M55.37,66.2c1.2-1.73,2.13-2.92,2.9-4.21c3.12-5.21,4.71-10.96,5.67-16.92c0.18-1.08-0.36-1.59-1.22-1.84
				c-4.46-1.3-8.26-3.72-11.56-7.26c-5.01,5.9-11.66,7.87-19,8.52c0.83,7.98,3.27,15.07,8.53,21.45c-2.39,0.48-4.52,0.23-6.62,0.26
				c-3.32,0.04-6.63,0.04-9.95,0c-2.19-0.03-2.28-0.08-2.25-2.42c0.1-8.8-0.53-17.62,0.68-26.38c1.32-9.51,5.13-17.54,14.48-21.27
				c8.79-3.51,17.6-3.06,25.81,2.02c5.08,3.15,8.04,8.07,9.44,13.78c0.96,3.89,1.53,7.96,1.69,11.97c0.28,6.7,0.1,13.42,0.09,20.14
				c0,0.93,0.23,2.13-1.24,2.14C67.18,66.22,61.54,66.2,55.37,66.2z"/>
			<path class="st2" d="M96.87,14.1c10.98,0.04,17.94,5.43,20.28,14.45c0.56,2.15,0.7,4.4,1.11,6.58c0.33,1.74,0.39,3.45,1.67,5.02
				c1.55,1.89,1.24,5.27-0.66,6.89c-1.61,1.38-2.18,3.08-2.94,4.86c-2.34,5.52-5.87,10.08-10.91,13.38
				c-4.93,3.23-9.8,3.22-14.7-0.08c-5.17-3.47-8.4-8.39-10.52-14.16c-0.53-1.44-0.98-2.63-2.46-3.59c-2.6-1.69-2.98-5.36-0.81-7.64
				c1.18-1.23,1.17-2.43,1.17-3.77c-0.02-3.4,0.59-6.67,1.96-9.77C83.65,18.15,90,14.28,96.87,14.1z"/>
			<path class="st3" d="M36.93,72.95c-2.97,3.05-5.29,5.42-7.9,8.09c2.06,0.16,3.55,0.27,5.03,0.38c-0.02,0.32,0.02,0.48-0.05,0.56
				c-0.93,1.18-1.89,2.35-2.83,3.53c1.15,1.35,2.23,2.77,3.46,4.04c3.17,3.29,6.41,6.51,10,10.14c-1.52,0.12-2.44,0.25-3.36,0.25
				c-10.65,0.01-21.3,0.01-31.95,0.01c-0.28,0-0.55,0.01-0.83,0c-2.56-0.08-2.63-0.08-2.51-2.51c0.34-7.43,3.35-13.45,9.47-17.71
				c4.64-3.22,9.88-4.9,15.36-5.89C32.55,73.52,34.31,73.33,36.93,72.95z"/>
		</g>
	</g>
</g>
</svg>
