<svg xmlns="http://www.w3.org/2000/svg" viewBox="0 0 196.62 196.62"><defs><style>.cls-1{fill:#fff;stroke:#2c6eb5;stroke-miterlimit:10;stroke-width:3px;}.cls-2{fill:#f4822a;}.cls-3{fill:#fefefe;}</style></defs><g id="Background"><rect class="cls-1" x="1.5" y="1.5" width="193.62" height="193.62"></rect></g><g id="BE_CLEAR_ABOUT_PATH" data-name="BE CLEAR ABOUT PATH"><path class="cls-2" d="M88.9,54.09c-1.9,1.25-3.58,2.34-5.65,2.55a9.49,9.49,0,0,1-10-5.65,9.87,9.87,0,0,1,2.94-11.57C81.48,35.16,86.78,31,92.06,26.75c1.35-1.08,2.68-2.2,4.06-3.24a6.11,6.11,0,0,1,7.71,0c6.76,5.33,13.52,10.67,20.15,16.15A9.71,9.71,0,0,1,125.51,53c-3.06,4-8.53,4.84-13,1.95l-1.39-.91V166c0,5.79-3.18,10.1-8.41,11.45a11.11,11.11,0,0,1-13.77-10.18c0-.69,0-1.38,0-2.08V54.09Z" transform="translate(-1.69 -1.69)"></path><path d="M158.46,86.94c-3.39,4.15-6.67,8.18-10,12.19-3.91,4.79-7.8,9.59-11.75,14.35a4.06,4.06,0,0,0-1,2.8q0,24.79-.15,49.59c0,6-3.15,10.21-8.46,11.6a11,11,0,0,1-13.66-9.69c-.1-1.32-.06-2.66-.06-4,.06-17.28.15-34.56.15-51.84A14.08,14.08,0,0,1,117,102.6c8.54-10.33,17-20.74,25.45-31.12a3.91,3.91,0,0,0,1.08-1.59c-1.08-.24-2.15-.45-3.2-.72a9.48,9.48,0,0,1-7.27-10,9.72,9.72,0,0,1,9.38-8.76c4.11-.07,8.16.76,12.24,1.14,4.72.44,9.42,1,14.12,1.6,3.57.42,5.67,2.42,6.08,6q1.46,12.48,2.76,25a9.94,9.94,0,0,1-7.7,10.66,9.48,9.48,0,0,1-11-6.69C158.76,87.74,158.64,87.44,158.46,86.94Z" transform="translate(-1.69 -1.69)"></path><path d="M41.53,86.91a13.08,13.08,0,0,1-1.94,4.27,9.55,9.55,0,0,1-10.88,3.15A10,10,0,0,1,22.4,84.18Q23.69,71.61,25.17,59c.42-3.57,2.58-5.52,6.14-5.91Q43,51.83,54.72,50.47c6.25-.74,11,2.25,12.06,7.72a9.42,9.42,0,0,1-6.62,10.89c-1.16.33-2.36.53-3.59.8,0,.71.59,1.06,1,1.51C66,81.79,74.44,92.19,83,102.52a14.29,14.29,0,0,1,3.46,9.5q0,27,.16,54.1c0,4.55-1.77,8.1-5.77,10.3A10.5,10.5,0,0,1,69.5,176c-3.68-2.37-5.11-5.92-5.11-10.19,0-15.84-.15-31.67-.1-47.51A9.1,9.1,0,0,0,62,111.92C55.16,103.74,48.47,95.42,41.53,86.91Z" transform="translate(-1.69 -1.69)"></path><path class="cls-3" d="M105.55,108.15v58.07c0,3.48-2.2,5.92-5.35,6A5.54,5.54,0,0,1,94.46,167c0-.58,0-1.16,0-1.73V50.64c0-.52,0-1,0-1.56-.11-2.57-2.32-3.79-4.49-2.42-1.8,1.13-3.53,2.39-5.31,3.56-2.23,1.46-4.46,1.19-5.83-.68a4.22,4.22,0,0,1,1-5.86C86.18,38.52,92.61,33.42,99,28.27a1.43,1.43,0,0,1,2.11.07c6.29,5.08,12.63,10.1,18.92,15.18a4.34,4.34,0,0,1,1.61,5.22,3.91,3.91,0,0,1-4.18,2.39,4.54,4.54,0,0,1-2-.87c-1.49-1-3-2-4.45-3-1.22-.87-2.45-1.63-4-.81s-1.45,2.19-1.45,3.62Q105.57,79.11,105.55,108.15Z" transform="translate(-1.69 -1.69)"></path><path class="cls-3" d="M119.14,138.91c0-9.07,0-18.14,0-27.22a7.8,7.8,0,0,1,1.87-5.23q14.63-17.8,29.17-35.68c2.37-2.9,1.73-4.86-1.89-5.63-2.08-.44-4.19-.81-6.28-1.24a4,4,0,0,1-3.45-4.28,4.12,4.12,0,0,1,4.3-3.7c3.74.24,7.47.7,11.2,1.11,4.59.5,9.18,1.08,13.77,1.55,1.07.11,1.46.51,1.57,1.58.85,8,1.75,16,2.65,23.93.3,2.63-1.16,4.86-3.44,5.19s-4.09-1-4.67-3.76c-.35-1.69-.67-3.39-1-5.1a2.86,2.86,0,0,0-2.17-2.61,3,3,0,0,0-3.14,1.33c-7.66,9.41-15.16,18.95-23.09,28.12a17.23,17.23,0,0,0-4.44,12.46c.23,15.43,0,30.86-.06,46.29,0,3.81-2.32,6.28-5.69,6.22a5.42,5.42,0,0,1-5.39-5.59c0-3.64,0-7.28,0-10.92,0-5.61,0-11.21,0-16.82Z" transform="translate(-1.69 -1.69)"></path><path class="cls-3" d="M56.1,55.92c3.12-.11,5.11,1.44,5.35,3.71s-1.24,3.81-3.8,4.33c-2,.41-4.07.81-6.1,1.24-3.33.71-4,2.7-1.93,5.31Q62.88,86.76,76.14,103c5.34,6.58,4.69,4.5,4.73,13Q81,141,81,166c0,4.07-2.47,6.59-6.1,6.25a5.39,5.39,0,0,1-4.8-4.31,12.85,12.85,0,0,1-.19-2.41q-.11-25.22-.15-50.45a6,6,0,0,0-1.45-4.1Q55.42,95.22,42.58,79.42c-.9-1.11-1.86-2-3.37-1.6s-2,1.59-2.25,3c-.31,1.64-.59,3.29-.94,4.93-.58,2.65-2.27,3.93-4.63,3.58a4.38,4.38,0,0,1-3.45-5q.68-6.2,1.37-12.39c.44-3.91.91-7.8,1.31-11.71.1-.94.34-1.44,1.4-1.55C40.23,57.73,48.43,56.78,56.1,55.92Z" transform="translate(-1.69 -1.69)"></path></g></svg>