<svg xmlns="http://www.w3.org/2000/svg" viewBox="0 0 196.62 196.62"><defs><style>.cls-1{fill:#fff;stroke:#2c6eb5;stroke-miterlimit:10;stroke-width:3px;}.cls-2{fill:#4d4d4d;}.cls-3{fill:#727272;}.cls-4{fill:#f4822a;}</style></defs><g id="Background"><rect class="cls-1" x="1.5" y="1.5" width="193.62" height="193.62"></rect></g><g id="BEGIN_WITH_YOUR_HEART" data-name="BEGIN WITH YOUR HEART"><path d="M86.18,182.26a3.32,3.32,0,0,1-1.66-3.34c.06-6.1,0-12.2,0-18.3,0-3.6-1.71-5.33-5.28-5.35-7.65,0-15.31,0-23-.1a10.85,10.85,0,0,1-10.82-8.33c-.31-1.29-.49-2.62-.72-3.94q-1.48-8.68-2.94-17.38c-.14-.85-.44-1.17-1.33-1.13-1.82.07-3.64,0-5.46,0-3,0-4.78-1.81-4.77-4.81a39.09,39.09,0,0,1,6.32-21.86,16.07,16.07,0,0,0,2.84-11.8,70.78,70.78,0,0,1-.79-15.05c1.69-22.76,13-38.95,33.62-48.61A50.76,50.76,0,0,1,88,18.08c.28,0,.66.11.78-.34H90a.4.4,0,0,0,.64,0h6.43a.71.71,0,0,0,1,0h1.29c2.37.43,4.76.81,7.13,1.28C129,23.48,147.8,42.58,152.08,65.09c2.14,11.24.92,22.13-2.7,32.86-.54,1.62-1,3.27-1.5,4.9-.6,2-1.65,2.73-3.18,2.32s-2-1.7-1.45-3.65c1.36-4.83,3.13-9.54,4-14.49,3.33-18.34-1.48-34.34-14.17-47.89-8.72-9.32-19.66-14.51-32.3-16.19A51.07,51.07,0,0,0,44.15,64.21c-1.1,6.07-.79,12.16-.24,18.25.27,3,.51,6.08.72,9.12a7,7,0,0,1-1.37,4.35c-2.57,4-5.06,8-6.45,12.66a40.3,40.3,0,0,0-1.72,9.92c0,.85.19,1.11,1,1.08,2.36,0,4.72,0,7.07,0,1.79,0,2.54.63,2.85,2.37,1.29,7.37,2.58,14.74,3.81,22.13.74,4.43,2.84,6.27,7.39,6.29l22.16.07c6,0,9.94,3.95,10,10s0,12.31,0,18.47a3.65,3.65,0,0,1-1.61,3.39Z" transform="translate(-1.69 -1.69)"></path><path class="cls-2" d="M98.07,17.74c-.32.49-.64.39-1,0Z" transform="translate(-1.69 -1.69)"></path><path class="cls-3" d="M90.68,17.74c-.21.37-.43.46-.64,0Z" transform="translate(-1.69 -1.69)"></path><path d="M52.72,76.75c.07-22.06,15.61-40.1,36.7-43.16a42.08,42.08,0,0,1,30,6.72,6.13,6.13,0,0,1,1.14.87,2.24,2.24,0,0,1,.26,3.07,2.2,2.2,0,0,1-2.83.82,8.58,8.58,0,0,1-1.24-.73,38,38,0,0,0-43.63,1C61,54.21,54.89,69.86,58.45,84.2c4,16.06,14.2,26.14,30.47,29.27a37.81,37.81,0,0,0,44.41-31.91,37.43,37.43,0,0,0-7.88-29.2l-.4-.5c-1-1.39-1-2.79.1-3.7s2.52-.7,3.63.65a41.83,41.83,0,0,1,7.51,13.51A42.92,42.92,0,1,1,53.35,83.45,37.9,37.9,0,0,1,52.72,76.75Z" transform="translate(-1.69 -1.69)"></path><path class="cls-4" d="M83.67,51.38A14.94,14.94,0,0,1,94.32,55.5c1,1,1.53,1,2.58,0A15.85,15.85,0,0,1,119,78.23q-9.26,10.14-18.51,20.28c-2.83,3.08-6.52,3.07-9.36,0-2-2.11-3.92-4.24-5.88-6.37-1.26-1.37-1.34-2.78-.26-3.8s2.51-.83,3.78.52c1.94,2.07,3.88,4.14,5.78,6.25.87,1,1.58,1,2.49,0,6.22-6.86,12.52-13.64,18.68-20.55a10.85,10.85,0,0,0-.55-15.32,11,11,0,0,0-15.47.17c-.78.74-1.5,1.54-2.29,2.26a2.39,2.39,0,0,1-3.57,0C93,60.91,92.16,60,91.3,59.23a11,11,0,0,0-15.24,0,10.88,10.88,0,0,0-.69,15.07c1.77,2.08,3.68,4,5.52,6,1.31,1.44,1.41,2.75.32,3.81s-2.5.92-3.88-.56c-2-2.12-4-4.16-5.83-6.41a15.18,15.18,0,0,1-2.07-16.83A15.57,15.57,0,0,1,83.67,51.38Z" transform="translate(-1.69 -1.69)"></path><path d="M134.81,154.78q0-11.88,0-23.76a9.38,9.38,0,0,1,.42-2.83q2.34-7.74,4.64-15.48c.38-1.3,1-2.25,2.52-2.27,1.78,0,2.73,1.57,2.13,3.6-1.25,4.25-2.46,8.51-3.84,12.71a22,22,0,0,0-1.06,7.07c0,14.82,0,29.65,0,44.47,0,2.53-.71,3.61-2.36,3.64s-2.47-1.12-2.48-3.71Z" transform="translate(-1.69 -1.69)"></path><path class="cls-4" d="M164.56,58.22c-.91,0-1.82.05-2.73,0a2.37,2.37,0,0,1-2.39-2.47,2.35,2.35,0,0,1,2.38-2.31q2.81-.09,5.61,0a2.33,2.33,0,0,1,2.31,2.38,2.38,2.38,0,0,1-2.3,2.4C166.49,58.28,165.52,58.22,164.56,58.22Z" transform="translate(-1.69 -1.69)"></path><path class="cls-4" d="M147.34,34.58a2.37,2.37,0,0,1-2.27-3c.51-1.79,1.13-3.56,1.8-5.3a2.25,2.25,0,0,1,3-1.44,2.17,2.17,0,0,1,1.54,2.79c-.51,1.9-1.18,3.76-1.87,5.61A2.16,2.16,0,0,1,147.34,34.58Z" transform="translate(-1.69 -1.69)"></path><path class="cls-4" d="M164.25,38.57a2.56,2.56,0,0,1-1,2.07c-1.19,1-2.36,2-3.57,3a2.41,2.41,0,1,1-3.08-3.69q1.88-1.62,3.82-3.15a2.3,2.3,0,0,1,2.56-.22A2.34,2.34,0,0,1,164.25,38.57Z" transform="translate(-1.69 -1.69)"></path></g></svg>