<svg xmlns="http://www.w3.org/2000/svg" xmlns:xlink="http://www.w3.org/1999/xlink" width="91px" height="73px" viewBox="0 0 91 73"><title>Group 3</title><g id="Main" stroke="none" stroke-width="1" fill="none" fill-rule="evenodd"><g id="Group-3" transform="translate(-0.000718, 0.000541)" fill="#FFFFFF"><path d="M73.5353216,58.8098144 C75.6619166,55.368239 76.8876249,51.5027798 76.8876249,47.3992241 C76.8876249,33.2829928 62.7228872,21.7984483 45.3099326,21.7984483 C27.8987727,21.7984483 13.7358295,33.2829928 13.7358295,47.3992241 C13.7358295,51.500976 14.9597433,55.3664352 17.0845437,58.8080107 C9.69799097,53.1171456 5.10921175,45.2202812 5.10921175,36.4990981 C5.10921175,19.2028366 23.1430961,5.133503 45.3099326,5.133503 C67.4803583,5.133503 85.5160373,19.2028366 85.5160373,36.4990981 C85.5160373,45.2202812 80.9254635,53.1189494 73.5353216,58.8098144 M62.0983681,63.2091868 C62.7605737,61.6741865 63.1392332,60.0291567 63.1392332,58.3101727 C63.1392332,50.2094833 55.1425182,43.6203454 45.3099326,43.6203454 C35.4791416,43.6203454 27.4824267,50.2094833 27.4824267,58.3101727 C27.4824267,60.0291567 27.8610862,61.6741865 28.5232917,63.2091868 C22.6172798,59.4519533 18.8414521,53.7610882 18.8414521,47.3992241 C18.8414521,36.1130933 30.7162867,26.933755 45.3099326,26.933755 C59.9053731,26.933755 71.7784132,36.1130933 71.7784132,47.3992241 C71.7784132,53.7610882 68.00438,59.4519533 62.0983681,63.2091868 M43.9927,67.8141879 C37.5949691,67.31635 32.5898438,63.2434583 32.5898438,58.3101727 C32.5898438,53.0395839 38.2948611,48.7538484 45.3099326,48.7538484 C52.3267988,48.7538484 58.031816,53.0395839 58.031816,58.3101727 C58.031816,63.2434583 53.0266908,67.31635 46.6307545,67.8141879 C46.1892841,67.8304218 45.7567868,67.866497 45.3099326,67.866497 C44.8648731,67.866497 44.4323757,67.8304218 43.9927,67.8141879 M45.3099326,0 C20.3273767,0 0,16.372736 0,36.4990981 C0,56.6254602 20.3273767,73 45.3099326,73 C70.2960777,73 90.6216598,56.6254602 90.6216598,36.4990981 C90.6216598,16.372736 70.2960777,0 45.3099326,0" id="Fill-1"></path></g></g></svg>