<svg xmlns="http://www.w3.org/2000/svg" xmlns:xlink="http://www.w3.org/1999/xlink" width="91px" height="73px" viewBox="0 0 91 73"><title>Group 3</title><defs><polygon id="path-1" points="0 0 91 0 91 73 0 73"></polygon></defs><g id="Main" stroke="none" stroke-width="1" fill="none" fill-rule="evenodd"><g id="Homepage_Desktop_R3" transform="translate(-1005.000000, -7599.000000)"><g id="Group-3" transform="translate(1005.000000, 7599.000000)"><mask id="mask-2" fill="white"><use xlink:href="#path-1"></use></mask><g id="Clip-2"></g><path d="M85.8673129,48.2074451 C85.8673129,58.864511 67.3791829,67.8680187 45.498107,67.8680187 C23.6170311,67.8680187 5.1325068,58.864511 5.1325068,48.2074451 C5.1325068,45.2357286 6.57297641,42.3902379 9.12219297,39.8350666 C17.6279947,45.9696416 31.0050717,49.586913 45.498107,49.586913 C63.2669036,49.586913 78.3440592,44.3016575 85.8673129,36.399921 L85.8673129,48.2074451 Z M77.6625855,36.5081145 C70.2204597,41.2956797 58.4551221,44.4531285 45.498107,44.4531285 C32.9232941,44.4531285 20.9938981,41.4507571 13.3354314,36.4918855 C20.7775572,31.7043203 32.5410919,28.5468715 45.498107,28.5468715 C58.0729199,28.5468715 70.0059216,31.5510461 77.6625855,36.5081145 L77.6625855,36.5081145 Z M5.1325068,24.7943581 C5.1325068,14.135489 23.6170311,5.13198133 45.498107,5.13198133 C67.3791829,5.13198133 85.8673129,14.135489 85.8673129,24.7943581 C85.8673129,27.7660746 84.4250405,30.6097621 81.8758239,33.1649334 C73.3700221,27.0321616 59.9911423,23.413087 45.498107,23.413087 C27.7311133,23.413087 12.6539576,28.6983425 5.1325068,36.600079 L5.1325068,24.7943581 Z M45.498107,0 C19.9861102,0 -0.000180284056,10.8914853 -0.000180284056,24.7943581 L-0.000180284056,48.2074451 C-0.000180284056,62.1085147 19.9861102,73 45.498107,73 C71.0137095,73 91,62.1085147 91,48.2074451 L91,24.7943581 C91,10.8914853 71.0137095,0 45.498107,0 L45.498107,0 Z" id="Fill-1" fill="#FFFFFF" mask="url(#mask-2)"></path></g></g></g></svg>