<svg xmlns="http://www.w3.org/2000/svg" id="Layer_1" data-name="Layer 1" viewBox="0 0 673.39 850.22"><defs><style>.cls-1{fill:#16222c;}.cls-2{fill:#ea8023;}.cls-3{fill:#fff;}.cls-4{fill:#fafcfc;}.cls-5{fill:#fafafa;}.cls-6{fill:#f9f9fa;}.cls-7{fill:#f7f7f7;}.cls-8{fill:#f7f8f8;}.cls-9{fill:#f4f3f4;}.cls-10{fill:#f2f2f2;}.cls-11{fill:#f4f5f5;}.cls-12{fill:#f1f0f1;}.cls-13{fill:#f2f1f1;}.cls-14{fill:#f2f2f3;}.cls-15{fill:#ececed;}.cls-16{fill:#e8e7e8;}.cls-17{fill:#e9e8e9;}.cls-18{fill:#e5e4e6;}.cls-19{fill:#eae9ea;}.cls-20{fill:#e0dfe0;}.cls-21{fill:#dbdbdd;}.cls-22{fill:#c8c8cb;}.cls-23{fill:#c0c0c4;}.cls-24{fill:#828289;}.cls-25{fill:#fafafb;}.cls-26{fill:#f3f3f4;}.cls-27{fill:#232b34;}.cls-28{fill:#f0eff0;}.cls-29{fill:#ededee;}.cls-30{fill:#3e4149;}.cls-31{fill:#41444c;}.cls-32{fill:#e3e2e4;}.cls-33{fill:#e4e3e4;}.cls-34{fill:#2d333c;}.cls-35{fill:#eaeaeb;}.cls-36{fill:#e1e1e2;}.cls-37{fill:#dfdee0;}.cls-38{fill:#d3d3d5;}.cls-39{fill:#afaeb2;}.cls-40{fill:#353a43;}.cls-41{fill:#dad9db;}.cls-42{fill:#4e5058;}.cls-43{fill:#dddddf;}.cls-44{fill:#ddddde;}.cls-45{fill:#464951;}.cls-46{fill:#40444c;}.cls-47{fill:#51535b;}.cls-48{fill:#62636b;}.cls-49{fill:#d9d8da;}.cls-50{fill:#d1d0d3;}.cls-51{fill:#b1b1b5;}.cls-52{fill:#606269;}.cls-53{fill:#c3c3c7;}.cls-54{fill:#cac8cb;}.cls-55{fill:#e6e5e6;}.cls-56{fill:#e0dfe1;}.cls-57{fill:#c2c2c5;}.cls-58{fill:#bcbbbf;}.cls-59{fill:#e5e4e5;}.cls-60{fill:#cfced0;}.cls-61{fill:#383d46;}.cls-62{fill:#cdcccf;}.cls-63{fill:#bdbcc0;}.cls-64{fill:#6f6f77;}.cls-65{fill:#c4c4c8;}.cls-66{fill:#c0bfc3;}.cls-67{fill:#bfbec2;}.cls-68{fill:#c6c5c9;}.cls-69{fill:#202932;}.cls-70{fill:#222a33;}.cls-71{fill:#3c4048;}.cls-72{fill:#3e424a;}.cls-73{fill:#494c54;}.cls-74{fill:#4c4e56;}.cls-75{fill:#44474f;}.cls-76{fill:#3f434b;}.cls-77{fill:#18232d;}.cls-78{fill:#17232c;}.cls-79{fill:#18242e;}.cls-80{fill:#19242e;}.cls-81{fill:#242c35;}.cls-82{fill:#1f2832;}.cls-83{fill:#212a33;}.cls-84{fill:#1b252f;}.cls-85{fill:#1a252e;}.cls-86{fill:#3d4149;}.cls-87{fill:#383c44;}.cls-88{fill:#343941;}.cls-89{fill:#353a42;}.cls-90{fill:#373b44;}.cls-91{fill:#383d45;}.cls-92{fill:#4a4d55;}.cls-93{fill:#43464e;}.cls-94{fill:#393d45;}.cls-95{fill:#40434b;}.cls-96{fill:#293139;}.cls-97{fill:#cccbce;}.cls-98{fill:#32373f;}.cls-99{fill:#474951;}.cls-100{fill:#1b262f;}.cls-101{fill:#43464d;}.cls-102{fill:#454850;}.cls-103{fill:#77787f;}.cls-104{fill:#17222c;}.cls-105{fill:#212a34;}.cls-106{fill:#3a3e47;}.cls-107{fill:#272f37;}.cls-108{fill:#272e37;}.cls-109{fill:#363b43;}.cls-110{fill:#282f39;}.cls-111{fill:#262d36;}.cls-112{fill:#242b34;}.cls-113{fill:#8e8e94;}.cls-114{fill:#2a3139;}.cls-115{fill:#323840;}.cls-116{fill:#a1a0a5;}.cls-117{fill:#2e333c;}.cls-118{fill:#494b53;}.cls-119{fill:#3a3e46;}.cls-120{fill:#262e37;}.cls-121{fill:#41454c;}.cls-122{fill:#323740;}.cls-123{fill:#484a52;}.cls-124{fill:#2d323b;}.cls-125{fill:#282f38;}.cls-126{fill:#54565e;}.cls-127{fill:#45474f;}.cls-128{fill:#52545c;}.cls-129{fill:#66676f;}.cls-130{fill:#393e46;}.cls-131{fill:#333840;}.cls-132{fill:#50525a;}.cls-133{fill:#2d343c;}.cls-134{fill:#222b34;}.cls-135{fill:#53555c;}.cls-136{fill:#1a242e;}.cls-137{fill:#3d4048;}.cls-138{fill:#3c4149;}.cls-139{fill:#5a5c64;}.cls-140{fill:#595b63;}.cls-141{fill:#444850;}.cls-142{fill:#474a52;}.cls-143{fill:#1b2630;}.cls-144{fill:#17232d;}.cls-145{fill:#ebebeb;}.cls-146{fill:#d7d7d9;}.cls-147{fill:#d7d6d8;}.cls-148{fill:#c3c2c5;}</style></defs><path class="cls-1" d="M203.31,384.24c3.43-12.87,5.58-26,9.47-38.82,1.2-3.95,2.6-5.27,6.5-4.83,14.42,1.63,28.85,3.1,43.27,4.66,2.74.29,5.46.94,8.58.2-5.67-21.43-11.2-42.79-15.61-64.43-4.31-21.11-8.06-42.3-10.19-63.75-.25-2.53-1.26-5.26,2.12-6.5,2.86-1.05,5.12.46,6.74,2.45,3.64,4.47,6.9,9.23,10.45,13.77q55.91,71.34,111.81,142.68c7.87,10.09,15.13,20.66,22.82,30.9,2.68,3.56,3.38,6.94,1.63,11.23q-4.44,10.93-8,22.21c-1.72,5.47-4.63,7.12-10.43,6.26-14.11-2.11-28.33-3.5-42.57-5.18-.69,2.8,1.11,4.33,2,6C369.56,492,397.71,542.69,427,592.71c.86,1.47,1.66,3,2.48,4.47,1.2,2.17,0,3.69-1.47,5-1.6,1.49-3.39,1.7-5.14.12-2.54-2.29-5.09-4.57-7.59-6.89C355.7,540.25,298.19,482.91,239.11,427.22c-11.77-11.09-23.08-22.68-35.8-32.72Z" transform="translate(-203.31 -114.89)"></path><path class="cls-2" d="M398.17,114.89c7.34,4.91,8.22,13,10,20.59,2.34,9.77,2.79,10.26,12.66,10.28,4.69,0,9.4-.26,14.07.06,3.86.27,7.81,1.2,9.35,5.47,1.59,4.43-.31,8-3.69,10.72-4,3.2-8.1,6.26-12.33,9.12-4.91,3.31-6.58,7.17-4.2,13,2.32,5.69,3.84,11.72,5.55,17.64,1,3.53.39,6.86-2.44,9.37-3.15,2.8-6.75,2.19-10.2.65-4.93-2.22-8.58-6.28-12.92-9.36-7.77-5.5-9.21-5.49-16.89,0-4.16,3-8.3,6-12.66,8.64-3.57,2.16-7.57,3.45-11.3.32-3.35-2.8-3.6-6.59-2.4-10.54,1.72-5.7,3.12-11.54,5.35-17,2.29-5.65.56-9.33-4-12.55-4.36-3-8.67-6.19-12.79-9.54-3.16-2.57-5.05-6-3.56-10.17S351,146,355,145.82c5.53-.31,11.09-.2,16.63,0,5.85.15,8.86-2.33,9.94-8.29,1.5-8.29,2.67-17,10.24-22.59Z" transform="translate(-203.31 -114.89)"></path><path class="cls-1" d="M658.6,176.77c50.22.93,98.21,14.17,138.7,48.1,39.34,33,62.56,75.89,73.9,125.57a218.3,218.3,0,0,1,1,92.82c-5.26,25.82-16.14,49.68-29.72,72.29-17.14,28.56-37.47,55-55.32,83.08-20.21,31.77-37.56,64.85-46.25,101.87a9.54,9.54,0,0,0,1.57,8.71c4.59,6.52,7.84,13.91,12,20.77,5.12,8.49,2.8,17.33-2.58,25.27-4,6-4.09,16.29.09,21.81,6.64,8.77,6.76,19.89.32,29.22-4.56,6.6-4.54,16.67,0,22.86,6.42,8.67,6.29,19.88-.4,29.21-1.49,2.07-3,3.94-3.37,6.71-3.36,24.33-19.14,37.52-41,44.84-3.68,1.23-6.46,2.76-8.45,6.11-6.49,10.92-16.57,16.52-28.83,17.75-11.48,1.15-23.07,1-34.36-1.92-9.71-2.55-17.45-8-22-17.1-1.29-2.57-2.86-4-5.57-4.52-10.88-2.09-19.51-8.22-27.52-15.43-5.37-4.82-9.93-10.39-15.64-15-8-6.45-9-23.11-2.78-31.94,3.39-4.86,3.56-17,.31-22.13-5.75-9-5.17-21.38.17-30.31a20.92,20.92,0,0,0,.21-20.56c-5.76-11-6.78-21.36.67-31.74,1.3-1.81,1.15-3.59,1.13-5.45-.15-11,.35-21.88,8-30.82,1.56-1.81.17-3.15-.17-4.7-9.11-41.8-29.39-78.28-53.48-113-19.69-28.36-40.65-55.91-56.59-86.74C410.47,401.49,442.14,273.61,534.53,212,571.58,187.29,612.87,177.46,658.6,176.77Z" transform="translate(-203.31 -114.89)"></path><path class="cls-2" d="M860.17,921.81c.06,7.1-2.47,13.33-6.46,19.05-6.71,9.62-16.06,16.38-25.35,23.2-2.06,1.51-3.81,1.31-5.79-.1-10.63-7.61-20.75-15.72-27.51-27.23-2.85-4.86-4.8-10.05-4.33-15.77,1.27-15.45,16.09-23.47,29.95-16,3.69,2,6.18,2.79,10-.05,6.46-4.79,13.58-4,20.43-.15C857.74,908.53,860.44,914.39,860.17,921.81Z" transform="translate(-203.31 -114.89)"></path><path class="cls-2" d="M394.41,334.58c2.17-3.24.56-5.62-2.5-8-2.74-2.15-1.66-4.49,1.45-4.68,3.85-.24,6.32-1.34,7.08-5.37a2.92,2.92,0,0,1,2.47-2.59c1.81-.1,2.61,1.47,2.94,2.87.84,3.6,2.79,5,6.59,5,3.28,0,4.91,2.2,1.73,4.81-2.81,2.3-3.74,4.42-2.66,8.11s-1.63,5-4.37,3.14c-3.22-2.25-5.46-1.68-8.39.22C395.53,340.17,394.05,338.68,394.41,334.58Z" transform="translate(-203.31 -114.89)"></path><path class="cls-2" d="M501.13,751.44c-3.73-3.93-7.68-1.52-12,.23-2,.8-2.79-1.89-2.11-3.5,1.59-3.71.75-6.18-2.4-8.72-3.3-2.65-1.31-4.66,1.87-4.77,3.37-.12,5.58-.79,6.26-4.48.3-1.58,1.06-3.53,3.22-3.34,1.68.15,2.44,1.83,2.71,3.22.69,3.58,2.68,4.57,6.21,4.58,3.18,0,5.27,2,2,4.72-3.11,2.54-4,4.93-2.53,8.65C505,749.82,504,751.34,501.13,751.44Z" transform="translate(-203.31 -114.89)"></path><path class="cls-3" d="M387.89,547.14c-30-34.78-59-70.33-88-105.93-24.1-29.63-47.89-59.51-72.42-90,7.64-1.12,14.19.72,20.74,1.29,18.27,1.61,36.5,3.75,54.75,5.63,5.63.58,7.49-1.93,5.62-7.93-6.28-20.13-14.5-39.52-22.74-58.9-6.31-14.82-12.63-29.64-19.41-45.57,8.67,7.05,116.69,145.8,120.8,154.66q-35.07-3.06-70.14-6.12c-2.56-.23-5.35-1-6.89,1.78s.3,5.29,1.6,7.73q35.55,66.86,72.78,132.79c1.67,3,3.18,6,4.76,9C389.93,547.05,389.17,547.34,387.89,547.14Z" transform="translate(-203.31 -114.89)"></path><path class="cls-4" d="M243.12,385.53c-7.41,2.55-14.77,5.16-22.19,7.61-4,1.31-7.43.19-8.54-4-1.25-4.68,3-4.76,5.87-5.64,3.85-1.17,8.14-1.53,11.51-3.5C236.74,375.94,240.16,379.2,243.12,385.53Z" transform="translate(-203.31 -114.89)"></path><path class="cls-5" d="M357,428.63c7-6.87,12.75-12.67,18.16-18.79,3-3.45,7.36-.43,12.06-.84A78.26,78.26,0,0,1,371,428.11C367.4,431.36,362.72,428.55,357,428.63Z" transform="translate(-203.31 -114.89)"></path><path class="cls-5" d="M357.79,406.94c-6.12,7-11.71,13.28-19.4,17.25-2,1-3.92,2.54-5.93-.48s-.12-4.07,1.78-5.57c3.16-2.49,6.34-5,9.28-7.73C348.87,405.42,348.8,405.34,357.79,406.94Z" transform="translate(-203.31 -114.89)"></path><path class="cls-6" d="M342.12,426.64c6.79-4.94,12.09-9.56,16.41-15.05,3.38-4.29,7.17-5.27,12.84-3.43A94.11,94.11,0,0,1,352.3,427C349.59,429,346.61,426.5,342.12,426.64Z" transform="translate(-203.31 -114.89)"></path><path class="cls-5" d="M278,334.37c-2.24-2.47-2.31-6.15-3-9.53-.23-1.1,10.32-7.46,11.49-6.66,3.27,2.24,3.58,6.27,4.73,9.71C291.55,328.9,280.18,334.76,278,334.37Z" transform="translate(-203.31 -114.89)"></path><path class="cls-7" d="M235.52,410.35c6.14-2.27,12.44-4.21,18.37-6.92,3.41-1.55,4.69.22,6,2.33,2.12,3.33-1.49,3.49-2.89,4.1-4.63,2-9.52,3.45-14.2,5.39C238.37,417.1,237.87,412.61,235.52,410.35Z" transform="translate(-203.31 -114.89)"></path><path class="cls-8" d="M270.08,417.19c-9.63,1.63-17,9.68-26.81,2.4,6.53-3.59,13.08-4.81,18.85-8C265.75,409.57,266.08,414.86,270.08,417.19Z" transform="translate(-203.31 -114.89)"></path><path class="cls-8" d="M252.3,427c5.56-2,11-4,16.57-5.87,2.74-.94,2.77-.86,6,3.53C262.88,433.64,258.53,434.12,252.3,427Z" transform="translate(-203.31 -114.89)"></path><path class="cls-7" d="M213.39,380.81c.78-3.34.28-6.24,3.08-7.54,4.22-1.94,8.44-4,12.89-5.19,1-.26,3.4,3,4.3,5,1.2,2.69-1.88,2.27-3.08,2.78a92.09,92.09,0,0,1-9.65,3.14C218.74,379.63,216.49,380.07,213.39,380.81Z" transform="translate(-203.31 -114.89)"></path><path class="cls-5" d="M269.45,443.39c4.5-1.67,8.63-2.8,12.38-4.7,4-2,5.65.51,7.06,3.07,2.11,3.85-2.08,3.4-3.62,4.17C274.79,451.21,276.93,451.28,269.45,443.39Z" transform="translate(-203.31 -114.89)"></path><path class="cls-6" d="M253.91,399.48c-6.3,2.45-12.63,4.83-18.9,7.37-3.53,1.43-5.6-.23-8-3.89,9.44-1.16,17.29-8.27,26.91-5.84Z" transform="translate(-203.31 -114.89)"></path><path class="cls-9" d="M261,436.42c4.09-1.92,7.42-3.28,10.57-5,6.58-3.57,6.54-3.65,11.25,3.32C275.55,435.73,269.58,443.18,261,436.42Z" transform="translate(-203.31 -114.89)"></path><path class="cls-10" d="M220.63,397.25c7.63-2.65,15.17-5.3,22.73-7.85,1.66-.57,3.69-.74,4.37,1.28.84,2.49-1.58,2.36-3,2.84-6,2-12,4-18.06,5.93C224.41,400.18,222.15,400.38,220.63,397.25Z" transform="translate(-203.31 -114.89)"></path><path class="cls-11" d="M287.9,460.69c3.12-1.24,6.14-1.93,8.56-3.53,4.68-3.09,6.5.87,7.65,3.46,1.36,3.08-2.5,2.88-4.2,3.86C294.8,467.44,290.74,466.48,287.9,460.69Z" transform="translate(-203.31 -114.89)"></path><path class="cls-11" d="M292,332.68c1.52.16,1.89,1.39,2.3,2.57.61,1.7.84,3.19-1.29,4.15-3.05,1.39-6,3.06-9,4.41-1.36.6-3.22,2.89-4.17-.56-.58-2.1-2.32-4.23,1.29-5.58S288.33,334.38,292,332.68Z" transform="translate(-203.31 -114.89)"></path><path class="cls-7" d="M279.77,452.86c3.27-1.59,6.62-2.85,9.56-4.74,3.84-2.47,5.61.19,6.91,2.69,1.85,3.59-1.92,3.44-3.64,4.09C288.12,456.62,283.17,460,279.77,452.86Z" transform="translate(-203.31 -114.89)"></path><path class="cls-9" d="M279.36,297.24c-2.4,2.69-5.77,4.55-8.59,4.56-3.61,0-3-4.54-3.13-6.9-.14-4.06,4.61-4.78,6.93-4.83C277.74,290,277.09,294.72,279.36,297.24Z" transform="translate(-203.31 -114.89)"></path><path class="cls-12" d="M342.6,405.61c-3,4.58-7.7,7.15-11.62,10.53-1.38,1.18-2.45.54-2.9-.74s-2.93-2.83-.63-4.32C331.94,408.17,335.39,402.3,342.6,405.61Z" transform="translate(-203.31 -114.89)"></path><path class="cls-11" d="M389.49,416.68a62,62,0,0,0-2.1,6.67c-1.41,6.88-4.81,10-12.12,6.43,4.19-4.84,8.48-9.77,12.76-14.7C389.31,414.89,390,415.27,389.49,416.68Z" transform="translate(-203.31 -114.89)"></path><path class="cls-12" d="M269.09,275.69a16.31,16.31,0,0,1,4.28,9.35c.18,2.62-4.56,4.08-5.81,3.55-3.62-1.54-2.73-5.94-3.34-9.16C263.67,276.57,267.11,277.18,269.09,275.69Z" transform="translate(-203.31 -114.89)"></path><path class="cls-13" d="M273.56,312.55c-3.48-.33-3-3.4-2.79-4.43.94-4.45,5.5-4.67,8.77-5.76,2.74-.91,3.51,3.18,3.14,4.3C281.25,311,276,309.88,273.56,312.55Z" transform="translate(-203.31 -114.89)"></path><path class="cls-12" d="M297,469.21c5.27.09,11.09-8.8,15.22,1.68C301.12,475,301.12,475,297,469.21Z" transform="translate(-203.31 -114.89)"></path><path class="cls-10" d="M215.87,368.21c1-4.08,2.07-8.15,3.22-12.65,3.51,2.12,7.2,5.64,6.85,8.37C225.47,367.62,219.92,367.3,215.87,368.21Z" transform="translate(-203.31 -114.89)"></path><path class="cls-14" d="M305.3,477c5.06-.53,11-6.32,14.18,2.66C311.4,484.62,309.86,484.35,305.3,477Z" transform="translate(-203.31 -114.89)"></path><path class="cls-12" d="M314.19,485.84c4.15,0,7.92-4.78,11.47.64,1,1.48.52,2.13-.8,2.87C320.6,491.74,317,491.75,314.19,485.84Z" transform="translate(-203.31 -114.89)"></path><path class="cls-15" d="M333.48,496.52c-6.07,3.56-6.07,3.56-10.84-1.89C327,491.52,330.87,490.12,333.48,496.52Z" transform="translate(-203.31 -114.89)"></path><path class="cls-16" d="M287.14,346.57c2.19-1.15,4.34-2.4,6.61-3.38.92-.4,2.11-2.15,3.08-.34a8.65,8.65,0,0,1,1.24,4.74c-.19,1.58-2.05.87-3.18.83-2.47-.08-4.93-.34-7.39-.52Z" transform="translate(-203.31 -114.89)"></path><path class="cls-17" d="M264,263.62c1.93,1.73,2.5,4.4,3.44,6.78s-1.5,3.28-2.72,3.19c-4.28-.33-1.77-4.39-3.06-6.5C260.56,265.36,262,264.43,264,263.62Z" transform="translate(-203.31 -114.89)"></path><path class="cls-18" d="M285.4,313.44c-.15.3-.3,1.16-.69,1.3-3.74,1.26-6.71,4.55-11,4.17-.31,0-.88-1.38-.73-1.54,2.87-3,6.83-3.83,10.53-5.19C284.37,311.86,285.16,312,285.4,313.44Z" transform="translate(-203.31 -114.89)"></path><path class="cls-16" d="M330.37,502.72c3.37-1.69,5.87-4.62,8.54-.34.79,1.28,1.95,2.09,0,3.49C334.61,509,333.17,504.87,330.37,502.72Z" transform="translate(-203.31 -114.89)"></path><path class="cls-19" d="M348.45,513.8c.17,2-.92,2.48-1.93,2.46-3.66-.07-5.48-3-7.07-5.55-.84-1.32,1.57-2.32,2.91-2.2C345.84,508.8,346.35,512.5,348.45,513.8Z" transform="translate(-203.31 -114.89)"></path><path class="cls-20" d="M348.05,520.09c4.7-2.78,5.88.5,7.59,2.53a1.18,1.18,0,0,1-.61,2C351.35,525.08,351,521.36,348.05,520.09Z" transform="translate(-203.31 -114.89)"></path><path class="cls-21" d="M322.5,403.81c2.22-.92,4.35-.05,6.93,0-1,2.75-2.87,4.24-5.06,4.15C323.34,407.88,322.22,405.7,322.5,403.81Z" transform="translate(-203.31 -114.89)"></path><path class="cls-22" d="M261.49,261.25c-2.61-2.45-1.59-5.2-1.92-7.61C261.31,255.68,263.44,257.61,261.49,261.25Z" transform="translate(-203.31 -114.89)"></path><path class="cls-21" d="M387.89,547.14l1.49-1.6a8.68,8.68,0,0,1,2.92,5.72C389.65,550.78,388.89,548.81,387.89,547.14Z" transform="translate(-203.31 -114.89)"></path><path class="cls-23" d="M389.49,416.68l-1.46-1.6c.43-1.38,1-2.68,2.83-3.17A4.71,4.71,0,0,1,389.49,416.68Z" transform="translate(-203.31 -114.89)"></path><path class="cls-3" d="M359,526.86a19.06,19.06,0,0,1,1.89,2.42c.56,1-.5.88-.95.91a2.19,2.19,0,0,1-2.21-1.68C357.58,528.23,358.31,527.66,359,526.86Z" transform="translate(-203.31 -114.89)"></path><path class="cls-24" d="M369.92,541.06,366,537.39C368.72,536.64,369.27,538,369.92,541.06Z" transform="translate(-203.31 -114.89)"></path><path class="cls-3" d="M368.18,204.58c2.39-6.65,4.38-12,6.24-17.42,4.18-12.17,2.9-16-7.62-23.19-4-2.7-8.24-5-12.87-9.6h15.14c14.56,0,17.86-2.57,21-16.57,1.08-4.74,2-9.51,4.5-14.42,4,4,3.89,8.87,4.74,13.21,2.88,14.64,6.55,17.8,21.55,17.78h14.88c-4.28,5.11-9.16,7.3-13.39,10.31-9.34,6.64-10.7,10.31-7.18,21.17,1.89,5.84,4.15,11.57,6.72,18.67-5.68-2.42-8.91-6-12.58-8.82-11-8.51-16-8.61-27.43-.44C377.76,198.23,374.13,202,368.18,204.58Z" transform="translate(-203.31 -114.89)"></path><path class="cls-3" d="M622.7,188c-12.42,34-8.21,63.9,18.94,87.62,22.87,20,49.42,22.76,77.05,10.32,31.45-14.17,43.63-39.61,40.82-74.62,34.86,19.65,61,46.22,80.52,80.58-29.48,1.71-50,15.1-58.9,42.88-7.09,22.1-4,43.2,13.59,59.55,21.27,19.83,46,20.84,72.64,9.46-.88,8.81-1.81,17.18-2.53,25.57-.41,4.87-1.7,6.59-7.32,5C808,419.83,754.38,440,726.74,483.08,702.31,521.18,706.35,575,736.48,613c5.06,6.39,10.43,12.51,17,17.35,3.15,2.33,2.92,4.17,1.36,7.29-9.71,19.49-17.84,39.59-22.3,61-1.23,5.95-5.78,7.66-10.61,8.73a212.22,212.22,0,0,1-38.62,5.2c-10.32.37-20.64,2.05-32,1,13.75-13.4,22.34-28.73,25.64-46.83,9-49.28-26.12-98.78-80.43-96.33-21.51,1-40,9.64-55.72,24.17-3.21,3-4.51,3.44-7.23-.77C523.07,577.51,512,561.56,501,545.26q17-7.35,34.12-14.71c2-.88,3.69.26,5.41,1.09,61.75,29.73,144.38-6,160.66-80.6a108.8,108.8,0,0,0,1.43-38.19c-.5-3.64.14-5.89,2.54-8.41a393.64,393.64,0,0,0,40-49.11c6.52-9.5,12.38-19.39,15-30.85,3.48-15.22-5.19-26.78-20.92-27.46-18.1-.78-34.76,5.59-51.55,11a148.79,148.79,0,0,0-39.53,19.12c-2.26,1.57-3.92,1.55-6.27.37a104,104,0,0,0-30.17-10.05c-4.24-.67-4-2.34-2.88-5.83,9.56-29-8.82-60.26-37.29-63.11-21.08-2.11-38,6.3-48.8,24.17-10.33,17.11-7,34.72,3.84,50.55,3.91,5.74,2.74,7.41-2.24,11.1-35.31,26.16-49.86,62-45.38,105,1.31,12.49.62,22.06-9.77,29.83-2.84,2.13-4.92,5.28-8.22,8.91C437.61,415,441.21,353.8,471.62,295.23,503.21,234.4,555.46,200.8,622.7,188Z" transform="translate(-203.31 -114.89)"></path><path class="cls-3" d="M486.59,434.89c0-51.18,29.42-94.32,69.34-107.47,44.15-14.54,100.8,6.57,124.61,46.27,2.33,3.89,2.48,6.15-1.19,9.55-48.78,45.17-103.84,81.57-160.46,115.84-3.77,2.29-5.4,1.08-7.69-1.73C494.92,477.45,486.91,454.62,486.59,434.89Z" transform="translate(-203.31 -114.89)"></path><path class="cls-3" d="M785.41,568.67l11.24.6c-1.37,2.08-2.77,3.88-3.83,5.86-4.44,8.35-8.1,8.3-18.3,5.3-6-1.76-10.51-6.39-15.75-9.64-11-6.86-22.64-10.81-35.75-6-1.94-6.4-1.89-13.06-2.89-19.57-.63-4.1,1.28-5.77,4.79-6.87,6.79-2.13,13.5-1.28,20.2.29,5.82,1.36,11.65,2.89,17.63,2.87,12.82-.06,22.74-7.33,27.68-20,4.66-12,4.62-24.63,4.61-37.22,0-10-.51-20.08,1.75-30,2.71-11.82,5.64-14.29,17.55-15.17,6.32-.47,12.66-1.54,19.11.28-12.42,18-15.45,37.74-12.24,58.72a40.42,40.42,0,0,0,7.23,17.55c2.17,3,1.84,5-.12,7.84-5.59,8.05-11.07,16.19-16.28,24.49-4.32,6.87-9.24,12.7-18.33,13.39,1.71,2.68,3.94.36,5.46,1.66-2.48,2.22-5.63,2.74-8.69,3.5-1.79.77-3.75,0-5.55.69-.56.21-1.17-.22-1.7.2A5.22,5.22,0,0,1,785.41,568.67Z" transform="translate(-203.31 -114.89)"></path><path class="cls-3" d="M667.31,426.37c-1.41-4.75-3.16-.95-4.35,0-12.53,9.95-24.75,20.32-37.5,30-38.85,29.41-79.59,55.64-125.47,73-8.48,3.21-8.47,3.24-12.75-4.28,67.64-32.64,128.3-75.72,185.26-124.26a416.32,416.32,0,0,0,48.16-48.69c5.08-6,9.75-12.4,12.25-20.06,3.09-9.49-1.56-15.61-11.58-15.05-8,.45-15.36,3.28-22.61,6.38a261.07,261.07,0,0,0-26.13,13.35c-9.48,5.4-9.49,5.38-18.22-3.41A239.3,239.3,0,0,1,729,306.17a36.6,36.6,0,0,1,12.73.3c9.19,1.56,12.16,6.47,9.87,15.61a68.9,68.9,0,0,1-8.2,18.63C728.87,364.81,710.72,386,691.11,406c-7.3,7.46-14.44,15.1-22.52,21.76C667.46,428,666.79,427.69,667.31,426.37Z" transform="translate(-203.31 -114.89)"></path><path class="cls-3" d="M694.61,415.7c2.83,42.9-13.9,75.14-47.05,99.08-28.68,20.72-70.69,24.55-100.12,9.87C601.82,496.12,649.38,458.78,694.61,415.7Z" transform="translate(-203.31 -114.89)"></path><path class="cls-3" d="M594.17,284.51c.56,9,.91,17.88-3.53,26.22-1.54,2.92-3.33,4.36-6.89,4.36a99.7,99.7,0,0,0-40.29,8.47c-2.89,1.26-4.66,1.3-7-1.33-12.66-14.29-13.81-36.34-2.34-50.57s34.27-19.13,49.15-10.39c16.42,9.64,23.82,31.09,16.9,49-.31.8-.6,1.6-.94,2.38-.73,1.71-1.9,3.06-3.89,2.32-2.83-1-.5-2.71-.14-4,2.77-9.76,4.76-19.49.15-29.28a13.81,13.81,0,0,0-1.4-.91A4.9,4.9,0,0,0,594.17,284.51Z" transform="translate(-203.31 -114.89)"></path><path class="cls-3" d="M607.18,879.76c-7.9-.14-18.38-.16-28.62-2.66a15.38,15.38,0,0,1-10.83-20.36c.83-2.23,2.07-2.51,4.38-2.22a313.53,313.53,0,0,0,61.4,1.53c33.79-2.34,67.72-4.21,99.93-16.4,2.58-1,5.38-1.7,7.61-3.23,4.59-3.14,5.84-.22,6.81,3.33C750,847.47,745,856,736.18,859.27c-15.62,5.85-31.89,9.15-48.31,11.7C662,875,636.1,879.68,607.18,879.76Z" transform="translate(-203.31 -114.89)"></path><path class="cls-3" d="M604.08,828.24A119.81,119.81,0,0,1,579,825.58a15.37,15.37,0,0,1-11.14-20.67c.7-1.83,1.57-2.6,3.76-2.31C612.42,808,653,804,693.42,798.33c16.47-2.32,32.7-6.14,47.67-13.69,4.44-2.24,5.56-.57,6.63,3.05,2.35,8-2.62,16.61-11.73,20-16.24,6.06-33.17,9.36-50.22,12C660.27,823.62,634.82,828.13,604.08,828.24Z" transform="translate(-203.31 -114.89)"></path><path class="cls-3" d="M738.05,873.29c-7.36,16.05-20.17,24.77-36.32,29-4.39,1.15-7.65,2.4-9.49,7.09-2.36,6-7.51,9.76-13.32,12.27-14.62,6.32-29.36,6.4-44,.09-6.25-2.69-11.49-6.78-14-13.3-1.44-3.72-3.93-5.18-7.52-5.85-9.17-1.72-17-6.06-24.1-12.82C639.7,893.35,688.21,881.37,738.05,873.29Z" transform="translate(-203.31 -114.89)"></path><path class="cls-3" d="M609.16,776.77a161.31,161.31,0,0,1-29.92-2.67c-9.4-1.67-14.73-11.47-11.58-20.52,1.11-3.18,3.34-2.61,5.67-2.35,48,5.45,95.34.75,142.33-9.17a94.7,94.7,0,0,0,25.18-8.92c4.6-2.46,6-.48,7,3.38,2,7.76-3,16.43-11.68,19.58-14.45,5.22-29.41,8.51-44.55,11C664.29,771.52,637,776,609.16,776.77Z" transform="translate(-203.31 -114.89)"></path><path class="cls-3" d="M612.36,744.77c-11.13.44-22.18-.69-33.26-1.36-4.43-.27-5.74-2-5.55-6.29.31-6.6-.08-13.21,2.78-19.46,1.45-3.18,2.75-4.6,6.59-2.5,8.63,4.71,18.44,5,27.92,6,30.49,3.23,60.94,1.9,91.34-1.57,9.93-1.13,19.84-2,29.16-6.36,4.88-2.27,5.1,3,6.62,5.6s2.41,5.18-1.84,7.06a151.33,151.33,0,0,1-36,10.8A557.11,557.11,0,0,1,612.36,744.77Z" transform="translate(-203.31 -114.89)"></path><path class="cls-3" d="M728.76,197.06c-2,4.92-4.73,8.23-7.28,11.63-17.4,23.16-16.45,41.53,3.6,63a48.81,48.81,0,0,1-19,9.56c-3.88,1.08-7.58-.94-10.38-3.72a26.11,26.11,0,0,1-4.43-6.2c-12.09-22.59-24-28.49-49-24.26-3.66.62-7.92,4.16-10.7,1.73-3.37-2.95-4-8.26-4.76-13.12a56.76,56.76,0,0,1,16.64.33c27.8,5.25,54.7-16.62,60.65-41.53.76-3.22,1.2-4.28,4.74-3.07C715.31,193.58,721.94,195.15,728.76,197.06Z" transform="translate(-203.31 -114.89)"></path><path class="cls-3" d="M651.6,603.15c14.86,16.19,15.74,25,4.07,42-17.73,25.77-43.08,39.09-73.31,44.3-2.36.41-3.42-.19-4-2.57a66.73,66.73,0,0,0-3.45-10.93c-1.86-4.2-1.49-5.95,3.57-7.36A122.39,122.39,0,0,0,630.72,639C640.86,629.31,649.15,618.41,651.6,603.15Z" transform="translate(-203.31 -114.89)"></path><path class="cls-3" d="M620.24,582.65c10.94,1.73,19.14,7.45,25.86,14.78,2.86,3.12,1.37,8.58,0,12.9-4.43,14.36-14.87,24.15-26,33.18-13.24,10.73-28.52,17.51-44.88,22.15-3,.87-4.16.26-5.15-2.39-1.58-4.17-5.28-8.64-4.55-12.28.82-4.15,7.29-3.47,11.19-5.12,17.6-7.43,32.11-18.48,41.49-35.39C622.92,602,624.86,593.05,620.24,582.65Z" transform="translate(-203.31 -114.89)"></path><path class="cls-3" d="M792.88,348.26c7.2-24,25-34.75,48.36-38.25,2.65-.4,5.89-1.65,8.34,1.06-.36,3.13-2.45,1.71-4.06,1.54-13.48,0-24.69,5.3-34.19,14.73,12.95-7.74,26.41-12.22,41.52-8.37-4.31,2.68-9.67,1.43-15.38,4.31,6.45,1.47,12-.53,16.91,2.44-7.62,1-15.36,0-22.77,2.16-1.16.63-1.53-.08-1.77-1,0-.17,0-.44.18-.57.43-.4.39-1,0-.94a36.08,36.08,0,0,0-13.66,6.5,25.46,25.46,0,0,0-4.58,4,3.58,3.58,0,0,1,3.45-1,2.38,2.38,0,0,1,1.52,2.18c-1.34,4.2-4.72,7.47-5.23,12.09-.83,7.65.21,14.76,5.05,21,1.27,1.65,3,3.06,2.65,5.5l-.49.83c-5.77-.54-6.83-7.71-12.46-9.12,8.07,17.79,27.86,24.82,47.87,17.32,2.36-.88,4.64-2,7-3,1.22-.46,1.5,0,1.1,1.14-3.06,3.52-7.45,4.76-11.47,6.63-4.87,4-10.79,2.35-16.26,3a8.93,8.93,0,0,1-1.77-.22c-.83-.2.29-.19-.57-.19.09.24.34.15.55.28a76,76,0,0,0,19.46-1.7c5.34.14,9.45-3.17,14.09-5.33,2.52,5.54.69,8.5-4.44,10.92a58.69,58.69,0,0,1-30.18,5.82c-1.62-.13-4.21.7-4-2.53,3.18-2.83,7-.72,10.44-1.25,3.15-.49,6.34-.69,9.54-1.46-19.11,4.12-34.93-1.54-47.79-16-.56-.63.33-.23-.42-.42-1.19-.32-.15.88-.57,1.23-.33.9-.82,1.5-1.88,1.18a49.51,49.51,0,0,1-.07-61C809,306.21,832.1,297,846.52,303.15c-13.79.82-25.58,4.29-35.69,12.13-9.25,7.17-17.09,15.44-19.29,27.59C790.75,347.73,790.76,347.78,792.88,348.26Z" transform="translate(-203.31 -114.89)"></path><path class="cls-3" d="M614.7,602.22a25.13,25.13,0,0,0,1.66-18.1c3.12,2.85,3.9,5.43,3,10.61-3.12,17.91-14.51,29.92-28.92,39.5-7.45,5-16.1,7.56-24.35,10.95-2.22.92-3.37.83-4.44-1.49-2.28-5-4.81-9.87-7.3-14.92,19.31-4.76,31.48-17.19,39.12-34.61,1.09-2.49,1.17-5.45,2.39-7.86s-2.93-6.86,2.47-6.94c5.22-.07,11.27-1.89,14.64,4.71,2.66,5.21,1.47,10.36.56,15.6a1.77,1.77,0,0,0-.56,1.72c.28.9-.57,1.73,0,2.59A4.47,4.47,0,0,1,614.7,602.22Z" transform="translate(-203.31 -114.89)"></path><path class="cls-3" d="M739.73,819.6c2.15,6.24-1.11,8.65-6,10.68-17.28,7.15-35.44,10.58-53.82,12.84-24.13,3-48.35,5.32-72.7,5-10-.13-20-.78-30-1.83-5.79-.61-3.37-4.42-3.46-7-.15-4.18,2.73-1.83,4.43-1.49,19.31,3.86,38.66,2.39,58,.21,29.19-3.29,58.34-6.93,87-13.92C728.64,822.78,734.13,821.13,739.73,819.6Z" transform="translate(-203.31 -114.89)"></path><path class="cls-3" d="M739.65,767.37c2,6.48-.72,9-5.83,11.16-18.28,7.73-37.56,11-57,13.34-26.92,3.27-53.93,5.45-81.1,4.18-6.17-.29-12.33-.93-18.5-1.36-6.58-.45-3.35-5.47-3.39-8.28-.05-3.89,2.87-1.5,4.58-1.09,19.19,4.59,38.53,3.77,57.9,1.63,27.1-3,54.29-5.36,80.93-11.55A104.12,104.12,0,0,0,739.65,767.37Z" transform="translate(-203.31 -114.89)"></path><path class="cls-3" d="M667.19,633.56c5.09,13.92,3.23,27.08-8.62,39-17,17.11-38,26.25-60.58,32.58-11.55,3.23-14.2,1.68-17.31-10.16C619.37,687.88,650.64,670.57,667.19,633.56Z" transform="translate(-203.31 -114.89)"></path><path class="cls-25" d="M816.09,336.67l-1.42-1.23c1.39-4.36,4.78-5.72,8.92-5.95,1,.35,1.75.83,1.45,2.08,3.85,2.71,7.42-.37,11.09-.71,5.49-.51,10.9-1.3,16.46-.79,3.22.29,5.17,1.39,5.56,5.34-5.43-1.49-10.43-4.77-16.29-3.18,0,2.86,2.56,1.35,3.67,2.22,0,2.56-2.36,2.45-3.86,3.3A26.53,26.53,0,0,0,829.48,343c-8.48,5.58-10.13,11-6,19.48-3.36-8.53-2.49-12.69,3.38-16.12,1.11.19,1.86,2.07,3.31.69,1.76-1.64,5.72-1.9,3.56-5.89.75-1.72,2.3-1.79,3.84-1.9,2,0,3.45,1.24,5.12,2,3.56.78,7.11,1.56,10.34,3.35a52.74,52.74,0,0,1,5.45,4.46,3.23,3.23,0,0,1,.53,1.57c-.2,2.07-.77,4.17.44,6.15.52.91,1,1.83,1.43,2.77.61,1.89,3.14,0,3.73,1.89-.8,2-1.61,4-2.41,6-.39.61-.77,1.37-.19,1.89.4.35.94-.35,1.42-.58,4-.78,1.79,1.94,1.32,2.81-3.25,6-8.43,9.26-15.15,10.15a2.34,2.34,0,0,1-3.13-.33c-3.71-1.8-7.12-1.83-10,1.66a7.12,7.12,0,0,1-5.33,0L829,382.8c-.48-.92.69-2.06-.43-2.88-14.48-5.34-22.5-25.9-12.44-41A1.72,1.72,0,0,0,816.09,336.67Z" transform="translate(-203.31 -114.89)"></path><path class="cls-3" d="M557.24,621.71c6.27-4,13.31-7,17.59-13.72-6.63,3.09-12.66,7.11-19.31,10-4.77,2.11-6.73,1.49-9.11-3.08-5-9.6-5.27-9.43,3.26-16.52A82.63,82.63,0,0,1,584.79,581c6.86-1.54,8.43,0,7.4,7.1-.67,4.58-2.87,8.47-5.5,12.08-7.08,9.76-15,18.64-26.89,22.68C558.51,623.45,557.22,624,557.24,621.71Z" transform="translate(-203.31 -114.89)"></path><path class="cls-3" d="M671.43,347.8c15.13-7.89,29.87-15,45.37-20.35,2.15-.75,4.7-2.66,6.49-1,2.09,2-.34,4.38-1.34,6.3-7.86,15.13-19,27.71-31.65,39.86A117.44,117.44,0,0,0,671.43,347.8Z" transform="translate(-203.31 -114.89)"></path><path class="cls-3" d="M784.32,520.58c-5.36,11.9-16,17.22-29.3,14.63-6.26-1.22-12.52-2.39-18.75-3.76-5.15-1.13-10.06-.24-15.3,1.86-.18-3.68,2.39-4.27,4.23-5.15,7-3.36,14.33-3.17,21.83-1.52,22.24,4.88,33.05-3.59,34.39-26.74.77-13.19.34-26.46,2.6-39.55a56.11,56.11,0,0,1,4.43-13.93c1.29-2.79,3.61-3.32,7-3.53-8.53,17.38-5.92,35.75-6.26,53.82-.1,5,0,10.06-2.54,14.65a3.38,3.38,0,0,1-1.08-1.4c-.6-2.72,0-5.4.26-7.11a18,18,0,0,0-.52,4.52,15.29,15.29,0,0,1-1,6c-.5,1.62-1.39,3.2-.29,4.91A2.63,2.63,0,0,1,784.32,520.58Z" transform="translate(-203.31 -114.89)"></path><path class="cls-3" d="M754.34,524.28c-4-.77-7.92-1.57-11.88-2.3a37.86,37.86,0,0,0-20.64,2c7.3-7,15.92-10.26,25.81-9.09,15.88,1.87,20.31-4.36,22.47-20.48,1.58-11.85-.62-24,2.37-35.68,1-4.12,1.64-8.85,6.29-10.33,2,11.23-1.11,22.15-1,33.22A152.3,152.3,0,0,1,776,505.9,34.06,34.06,0,0,1,771.27,519c-5.23.62-10,3.4-15.43,3.24-1,0,.84.52.36,1.11C755.9,524.29,755.37,524.77,754.34,524.28Z" transform="translate(-203.31 -114.89)"></path><path class="cls-3" d="M658.63,681.75c1.14-1.08,2.41-2.31,4-1.2,1.89,1.3.15,2.75-.39,3.89a72.75,72.75,0,0,1-23.68,28,8.44,8.44,0,0,1-5.38,1.51,221.87,221.87,0,0,1-32.89-3.27c1.74-2.64,4.31-2.5,6.22-3.07A142.75,142.75,0,0,0,638.68,694c1.64-1,3.2-2.18,5.31-1.63a1.72,1.72,0,0,0,2.11-.26c.45-.59.84-1.22,1.26-1.83a5.83,5.83,0,0,1,2.09-2c.92-.34,2.17.48,2.82-.8A18.13,18.13,0,0,0,658.63,681.75Z" transform="translate(-203.31 -114.89)"></path><path class="cls-3" d="M491.73,484a150.59,150.59,0,0,0,14.7,21.37c-7,4.21-14.25,7.11-21.35,10.35-2.13,1-3.34.7-4.8-1.18-7.2-9.29-7.18-10.78.89-19.3C484.53,491.72,487.86,488.15,491.73,484Z" transform="translate(-203.31 -114.89)"></path><path class="cls-3" d="M759.46,463.3c.41-6.37,6-7.22,10.28-9.81-5.11,14.56-3.17,29.59-4.82,44.24a17.12,17.12,0,0,1-3.59,9.31,18.46,18.46,0,0,0-2.84-.72c-.48,0-.93.17-.87.3a1.77,1.77,0,0,0,.9.73c-.5,4.91-4.47,3-6.71,2.84-9.47-.63-18.61,0-27.35,4.48,4.69-6.61,11.43-9.67,19-11.39,6.29-1.43,12-3.44,12.63-11.25,1.6-2.44-1.3-6,2-8,1.19.82,1.23,1.82,1,2.16a129.46,129.46,0,0,1,2-20.79.43.43,0,0,0-.13-.28c-.2.07-.39.16-.59.24C759.4,465,759,464.34,759.46,463.3Z" transform="translate(-203.31 -114.89)"></path><path class="cls-3" d="M643.31,229.06c-4.91,0-9.81,0-14.72,0-1.43,0-3.17.34-3.37-1.88-.28-3,2-2.17,3.5-2.17,5.55,0,11.1.15,16.64.3,22,.55,39.7-12.64,45.13-33.94.8-3.15,2-3.58,4.83-2.93,3.49.79,2.9,2.65,2.26,5.18-5.31,21-26.39,36.74-48.51,36-1.92-.06-3.84-.2-5.75-.31Z" transform="translate(-203.31 -114.89)"></path><path class="cls-25" d="M762.3,586.76c5.68,4.1,12.56,3.06,19,4.33-4.76,4.57-13.43,4.71-20.28,0-3.48-2.39-6.53-5.43-9.75-8.2-6.45-5.55-13.41-10-22.4-8.71-3.24.44-4.24-1.2-4.52-3.68-.33-3,2.33-2.56,4-2.77,7.65-1,14.81.9,21.41,4.63,6.82,3.86,13.43,8.11,20.14,12.19,0,2.42-1.43,1.57-2.66,1.22l-3.22-.38C763,585.36,761.23,584.35,762.3,586.76Z" transform="translate(-203.31 -114.89)"></path><path class="cls-5" d="M691.56,283c-4.71-.13-7.67-3-10.7-5.48a77.4,77.4,0,0,1-8.8-8.38c-8.64-9.52-18.93-14.24-32-11.79-2,.37-5,1.11-5.21-1.74-.15-2,2.88-1.93,4.72-2.13,3.39-.38,6.8-.56,10.2-.89,14.94-1.47,26,4.2,33.3,17.52C685.49,274.43,688.56,278.43,691.56,283Z" transform="translate(-203.31 -114.89)"></path><path class="cls-25" d="M627.93,216.37c-2.5.64-3.1-.63-2.72-2.74s-.08-4.73,3.88-4c6.82,1.17,13.45-.28,20.13-2,9.87-2.6,16.41-8.75,20.44-17.71,1.44-3.21,3-5.4,6.43-3.59s.1,3.94-.6,5.6c-6.62,15.66-18.86,22.95-35.55,23.17A58.1,58.1,0,0,0,627.93,216.37Z" transform="translate(-203.31 -114.89)"></path><path class="cls-5" d="M730.63,265.57c-7.34-5.9-14.33-12.24-14.51-22.77a42.89,42.89,0,0,1,7.23-25.32c3.33-4.93,6.87-9.72,10.21-14.65,1-1.39,1.35-3.24,3.7-2.16,3.31,1.52.5,3.34,0,4.59a34.13,34.13,0,0,1-4.53,7.65C718.67,230.77,719.37,246.3,730.63,265.57Z" transform="translate(-203.31 -114.89)"></path><path class="cls-7" d="M625.22,220.22c6.3-.47,12.59-1,18.89-1.38,17.48-1.07,31.55-12.18,36-29,.9-3.36,2.64-3.61,5-2.84,3,1,1.15,3,.52,4.58-8,20.36-19.79,31.62-43.79,30.52-5.54-.25-11.11,0-16.67,0Z" transform="translate(-203.31 -114.89)"></path><path class="cls-5" d="M726.29,505.11c1.27-2.47,1.26-4.06,3-4.78,11.28-4.78,15.83-14.33,17.24-25.62.61-4.9,3.47-7.3,7.56-10.33,1,5.1-1.49,9.19-1.15,13.4,1.1,13.69-3.95,22.33-18.61,23.76C731.93,501.77,729.73,503.52,726.29,505.11Z" transform="translate(-203.31 -114.89)"></path><path class="cls-5" d="M736.81,579.06c7.59,2,12.49,7.81,18,12.69,6.07,5.36,12.76,8.23,21,6.91-1.68,4.75-1.69,4.68-5.51,5-6.54.53-12-1.82-17-5.89-6-4.89-12.21-9.21-20.39-9.44-3.51-.1-3.17-3.32-4.12-5.6,2.48-1.56,4.54.76,6.75.44.73-.11,2.07.52,1.92-.76-.09-.79-1.29-1.44-2-2.15C735.29,579.14,735.43,578.38,736.81,579.06Z" transform="translate(-203.31 -114.89)"></path><path class="cls-5" d="M726.26,239.57a32.81,32.81,0,0,1,5.49-19.34c3.1-4.81,6.75-9.31,8.68-14.82.42-1.21.7-2.69,2.41-2.25,2.37.62,1.06,2.24.75,3.58C742,213.21,739,219.09,736.13,225c-5.46,11.15-7.21,22.22-.24,33.39.78,1.23,1.32,2.46-.13,3.22-1.68.89-2-1.06-2.68-1.91A30.72,30.72,0,0,1,726.26,239.57Z" transform="translate(-203.31 -114.89)"></path><path class="cls-10" d="M549.49,511.41c28.2-15.57,54.48-34.07,80.55-52.88,1.33-.46,1.65.16,1.45,1.35-25,20.3-51.52,38.34-80.37,52.8C549.78,513.27,549.4,512.65,549.49,511.41Z" transform="translate(-203.31 -114.89)"></path><path class="cls-8" d="M843.23,450a155.43,155.43,0,0,0-5,58.09c-10.4-20.79-5.34-40.41,3.71-59.73C843.16,448.28,843.82,448.65,843.23,450Z" transform="translate(-203.31 -114.89)"></path><path class="cls-5" d="M680.59,282.63c-5.69.78-9.56-.48-12.91-3.59s-7-6.26-10.47-9.44c-3.76-3.43-8.06-5.76-13.21-5.53-2.86.13-4.37-.91-5.47-3.4C658.82,255.69,668.15,271.07,680.59,282.63Z" transform="translate(-203.31 -114.89)"></path><path class="cls-6" d="M739.66,255.93c-5.35-8.18-5.84-16.65-1.49-25.32,3.65-7.26,7.28-14.47,7.75-22.8.05-1-.12-2.48,1.26-2.54a2.8,2.8,0,0,1,2.89,2.08c.87,3.54,1.45,7.06-.45,10.56-2.13,3.94-4.1,8-6,12-2.7,5.75-4,11.65-2,18C742.41,250.72,743.17,253.82,739.66,255.93Z" transform="translate(-203.31 -114.89)"></path><path class="cls-25" d="M469.73,494.5c-4.7-5-4.31-9.13.49-13.57s8.72-9.29,13.35-14.3c3.37,4.89,5.17,9-.19,13.67C478.47,484.62,474.26,489.73,469.73,494.5Z" transform="translate(-203.31 -114.89)"></path><path class="cls-26" d="M832.7,515.48c-3.38-7.67-6.14-15-6.8-23.1-1.46-18.05,2.7-34.69,11.63-50.29.85-1.49,1.6-3.66,3.62-2.23,1.73,1.23-.39,2.58-1,3.68-11.75,20.95-15.47,42.68-6.65,65.7C834.22,511.15,835.31,513.09,832.7,515.48Z" transform="translate(-203.31 -114.89)"></path><path class="cls-11" d="M841.52,498c-.1-19.27,0-36.79,8.86-52.9.9-1.63,1.47-4.17,4-2.64,2.13,1.31,0,3-.58,4.36-6.24,13.73-9.75,28-8.21,43.18C845.82,492.74,844.72,494.78,841.52,498Z" transform="translate(-203.31 -114.89)"></path><path class="cls-27" d="M798.21,381.57q-1.35-2.81-2.72-5.62c.26-.55.52-1.09.77-1.64C810.84,394,829.71,400.82,853.63,394c-4.73,5.41-12.07,6.78-26,5.61l-2.06,0a11.12,11.12,0,0,1-6.14-1.57C810.53,394.89,802.62,390.49,798.21,381.57Z" transform="translate(-203.31 -114.89)"></path><path class="cls-28" d="M749.54,604.69A29.39,29.39,0,0,0,770.7,607c-2.57,7.16-3,7.45-9.48,5.64-6.1-1.7-12-4.08-17.91-6.29-4.84-1.83-6.65-7.64-9.37-12.95,7,1.34,12.83,3.21,16.7,8.82C750.41,603.13,747.1,602.61,749.54,604.69Z" transform="translate(-203.31 -114.89)"></path><path class="cls-28" d="M668.32,185.87a38.42,38.42,0,0,1-39,19.88c-1.17-.16-2.61.25-2.24-1.92.41-2.33,1.32-3.08,3.82-2.69,7.63,1.18,14.75-.8,21.56-4.15,4.26-2.1,8.22-4.73,10.38-9.08C664.2,185.16,665.85,184.89,668.32,185.87Z" transform="translate(-203.31 -114.89)"></path><path class="cls-26" d="M659.53,185.22c-4.64,7.83-21.68,15.64-29,13.91-1-.24-1.59-.61-1.52-1.55.12-1.56.72-3.19,2.51-3.13a27.33,27.33,0,0,0,21.12-8.58C653.72,184.74,656.66,185.42,659.53,185.22Z" transform="translate(-203.31 -114.89)"></path><path class="cls-17" d="M859.79,360.06l-1.38-2.58c0-2.35,0-4.7,0-7.05l.09-.34a31.11,31.11,0,0,0-4.57-4.95c-3.76-1.48-7.18-4.7-11.69-2.2l-4.44-2.36c2.32-4.35,6.63-2.26,10-3.12,1.64,0,3-1.57,4.73-.93,8.21,3.36,10.92,9.16,9.6,20.58C861.29,358,862.09,360.29,859.79,360.06Z" transform="translate(-203.31 -114.89)"></path><path class="cls-12" d="M851.86,463.37c.41-6.25,3.95-11.53,5.42-17.46.31-1.29,1-2.33,2.74-1.71a1.73,1.73,0,0,1,1.24,2.42c-2,6.84-1.71,14.66-8.16,19.66C850.66,466.18,851.53,464.66,851.86,463.37Z" transform="translate(-203.31 -114.89)"></path><path class="cls-29" d="M764.57,618.4c-3.33,7.5-3.37,7.54-8.66,2.71-2.31-2.09-4.95-3.89-6.68-7.1,3.16-.54,5.24,1.64,7.73,2.25S761.8,617.62,764.57,618.4Z" transform="translate(-203.31 -114.89)"></path><path class="cls-30" d="M760.67,464.93c3.07-.14,1.51,2.17,1.41,3.19-.67,6.94-1.57,13.87-2.42,21-2.11-1.32-1-3.23-1.53-4.66-1.54-2.68-.79-5.27.28-7.86v-3.94A7,7,0,0,1,760.67,464.93Z" transform="translate(-203.31 -114.89)"></path><path class="cls-20" d="M798.21,381.57A53.18,53.18,0,0,0,819.9,397.4c0,1.51-.93,1.42-2,1.17-9.21-2.25-15.64-8.23-21-15.64C797.36,382.48,797.79,382,798.21,381.57Z" transform="translate(-203.31 -114.89)"></path><path class="cls-31" d="M755.73,523l-1.62-.64c5.6-1.73,10.87-5.15,17.16-3.34-1,2.67-2.7,4-5.67,2.76-1,2.36-3.45,1.38-5.12,2.19C758.81,524,757.14,524.14,755.73,523Z" transform="translate(-203.31 -114.89)"></path><path class="cls-32" d="M631.46,190.41c3.22-6.24,9.09-3.3,13.55-4.5C641.65,190.3,637.08,191.15,631.46,190.41Z" transform="translate(-203.31 -114.89)"></path><path class="cls-33" d="M549.49,511.41l1.63,1.27A82.36,82.36,0,0,1,534,521.32a2.23,2.23,0,0,1-1.33-1.17Z" transform="translate(-203.31 -114.89)"></path><path class="cls-34" d="M852.17,390.73c-6.93,4-14.42,2.54-21.79,2.21,0-2.42,1.45-1.46,2.62-1.2,6-.34,12-.62,17.76-2.22Z" transform="translate(-203.31 -114.89)"></path><path class="cls-35" d="M749.68,232.05c.06,4.28-1.77,8-3.67,13.57-1.21-7-.24-11.9,2.28-16.53C750.82,229.1,749.88,230.75,749.68,232.05Z" transform="translate(-203.31 -114.89)"></path><path class="cls-32" d="M740.71,482.12a16,16,0,0,1-7.27,9.61c.44-4.58,3.18-7.9,5.74-11.3C740.53,480.23,741.32,480.54,740.71,482.12Z" transform="translate(-203.31 -114.89)"></path><path class="cls-32" d="M667.31,426.37c.42.48.85.95,1.28,1.43a90.68,90.68,0,0,1-12.83,11.72l-1.29-1.29Z" transform="translate(-203.31 -114.89)"></path><path class="cls-36" d="M843.23,450l-1.33-1.64c1.75-3,.73-8.58,7.73-7.42Z" transform="translate(-203.31 -114.89)"></path><path class="cls-37" d="M655.74,276l-10.61-6.73c5.41-1.3,8.15,1.54,10.85,4.49A1.79,1.79,0,0,1,655.74,276Z" transform="translate(-203.31 -114.89)"></path><path class="cls-38" d="M831.2,383.11c1.72-.68,3.8.44,5.35-1.07a16.27,16.27,0,0,1,10.38-1.48l2.7,1.21C843.59,383.62,837.55,385.45,831.2,383.11Z" transform="translate(-203.31 -114.89)"></path><path class="cls-39" d="M758.41,476.62c-.09,2.62-.19,5.24-.28,7.86-1.79,2.22.13,5.45-2.08,7.55C756.8,486.89,754,481.2,758.41,476.62Z" transform="translate(-203.31 -114.89)"></path><path class="cls-40" d="M785.41,568.67c-2.73,0-5.18-.79-8.77-3.28l13.84,1.21Z" transform="translate(-203.31 -114.89)"></path><path class="cls-18" d="M851.86,463.37l1.24,2.91-1.38,11.47c-3.32-1.72-1.15-4.42-1.2-6.72C850.67,468.43,850.13,465.7,851.86,463.37Z" transform="translate(-203.31 -114.89)"></path><path class="cls-41" d="M631.49,459.88,630,458.53c2.09-2,4-4.3,7.07-4.85.54-.13.76.08.64.63C636.45,457.05,633.92,458.41,631.49,459.88Z" transform="translate(-203.31 -114.89)"></path><path class="cls-42" d="M614.7,602.22c-.42,2.55-1.79,4.51-4.2,7.11-.42-4.41,1.79-6.89,3-9.66Z" transform="translate(-203.31 -114.89)"></path><path class="cls-43" d="M852.55,336.53l-3.42,2.65c-2-2.3-5.65.2-7.41-2.67l3.81-2.06C848,334.79,850.48,334.93,852.55,336.53Z" transform="translate(-203.31 -114.89)"></path><path class="cls-44" d="M760.67,464.93c-.75,2.59-1.51,5.17-2.26,7.75-2.58-3.45-1-6.44,1.05-9.38C759.86,463.84,760.26,464.39,760.67,464.93Z" transform="translate(-203.31 -114.89)"></path><path class="cls-45" d="M859.79,360.06l2.36-2.95c-.77,2.37,4.08,1.53,2.49,4.37-.73-.08-1.56-.76-2.12.31s-1.34,2.09-2.24,1.62C859,362.77,859.88,361.21,859.79,360.06Z" transform="translate(-203.31 -114.89)"></path><path class="cls-46" d="M658.63,681.75c-.55,3.66-2.48,5.78-6.36,5.73C654,685.12,655.2,682.22,658.63,681.75Z" transform="translate(-203.31 -114.89)"></path><path class="cls-47" d="M792.88,348.26c.13,1.8.4,3.67-2.18,5.22-.14-4-1.08-7.33.84-10.61C792.34,344.58,790.89,346.85,792.88,348.26Z" transform="translate(-203.31 -114.89)"></path><path class="cls-48" d="M758.52,507.35c-1.48.72-2.88,2-4.84.63,2.36-2.36,4.6-4.56,7.65-.94C760.43,507.45,759.54,508,758.52,507.35Z" transform="translate(-203.31 -114.89)"></path><path class="cls-49" d="M831.28,379.21c3,3.62-2.36,1.86-2.29,3.59a8.36,8.36,0,0,1-5.44-2.28,3.32,3.32,0,0,1,1.44-1.16C827.07,378.38,829.22,380.53,831.28,379.21Z" transform="translate(-203.31 -114.89)"></path><path class="cls-50" d="M784.32,520.58l-1.66-1.74c-.4-1.47.31-2.7.83-4,.7-1.53.76-3.27,1.44-4.81a1.36,1.36,0,0,1,1.49-.42l.25,1.73C787.3,514.8,786.14,517.78,784.32,520.58Z" transform="translate(-203.31 -114.89)"></path><path class="cls-51" d="M755.73,523l5.34,0c.63.38,1.5.46,1.69,1.38a8.47,8.47,0,0,1-8.42-.1Z" transform="translate(-203.31 -114.89)"></path><path class="cls-50" d="M825,331.57l-1.6-1.45c1.33-3.05,3.42-4.54,6.83-3.37l1.34,1.13Z" transform="translate(-203.31 -114.89)"></path><path class="cls-52" d="M749.54,604.69a9.46,9.46,0,0,1-5.16-3.16c2.55-1.53,4.17,1.16,6.26.73C752.45,604.06,748.94,603.44,749.54,604.69Z" transform="translate(-203.31 -114.89)"></path><path class="cls-53" d="M557.24,621.71l2.56,1.15c-2.15,1.86-4.83,1.84-7.92,2.66C552.73,621.93,555.56,622.7,557.24,621.71Z" transform="translate(-203.31 -114.89)"></path><path class="cls-54" d="M850.52,471c.86,2.16-.72,4.75,1.2,6.72l-1.88,5.32C849.19,477.76,849.21,474.38,850.52,471Z" transform="translate(-203.31 -114.89)"></path><path class="cls-20" d="M817.94,398.57l2-1.17,5.65,2.23C822.62,402.16,820.38,399.65,817.94,398.57Z" transform="translate(-203.31 -114.89)"></path><path class="cls-40" d="M594.17,284.51c-.87-2.31-1.74-4.61-2.77-7.32,3,.66,3.24,2.77,4,4.51Z" transform="translate(-203.31 -114.89)"></path><path class="cls-55" d="M645.18,447.34c2.13-3.3,4.19-5,8.09-7.22C651.14,444.4,649.2,446.23,645.18,447.34Z" transform="translate(-203.31 -114.89)"></path><path class="cls-56" d="M637.75,454.31a.66.66,0,0,0-.64-.63c1.09-2.64,3.5-3.7,6.85-6C642.47,451.86,640.64,453.59,637.75,454.31Z" transform="translate(-203.31 -114.89)"></path><path class="cls-57" d="M509.9,532.12c0-3.45,2.74-3.45,5-4.09a2.31,2.31,0,0,1,1.31,1.2c-1.78,1.75-4.2,2-6.41,2.77Z" transform="translate(-203.31 -114.89)"></path><path class="cls-58" d="M509.81,532c-1.75,1.15-3.56,2.13-7.75,1.69,3.46-2.25,5.12-3.86,7.84-1.58Z" transform="translate(-203.31 -114.89)"></path><path class="cls-43" d="M862.23,382.89l-1.1-1.14,5.15-4.67C866.34,380.92,864.26,381.89,862.23,382.89Z" transform="translate(-203.31 -114.89)"></path><path class="cls-57" d="M736.81,579.06l-1.36,1.18-7.2-1.88C732.14,577.69,734.56,577.21,736.81,579.06Z" transform="translate(-203.31 -114.89)"></path><path class="cls-55" d="M825.66,380.15l-2.11.37c-2.2-.61-4.26-1.4-4.79-4l-.17.08C822.47,374.74,823.93,377.71,825.66,380.15Z" transform="translate(-203.31 -114.89)"></path><path class="cls-45" d="M863.46,368.81c-.89,1.9-1.94,3.58-5.48,3.79l4.25-5.1Z" transform="translate(-203.31 -114.89)"></path><path class="cls-59" d="M519.81,526l4.91-2.14c1.28-.55,1.71,0,1.59,1.25l-6.37,2.61A1.05,1.05,0,0,1,519.81,526Z" transform="translate(-203.31 -114.89)"></path><path class="cls-3" d="M532.7,520.15l1.33,1.17-3.56,1.6c-1.36.63-1.59-.07-1.45-1.23Z" transform="translate(-203.31 -114.89)"></path><path class="cls-60" d="M529,521.69l1.45,1.23c-1,1.46-2.7,1.59-4.16,2.16l-1.59-1.25C525.83,522.47,527.45,522.12,529,521.69Z" transform="translate(-203.31 -114.89)"></path><path class="cls-61" d="M762.3,586.76a5.73,5.73,0,0,1-3.7-3.24c2.43-1,3.78.79,5.36,1.86Z" transform="translate(-203.31 -114.89)"></path><path class="cls-62" d="M749.68,232.05c-.46-1-.93-2-1.39-3,.28-1.34.57-2.68,2.12-3.42A6.94,6.94,0,0,1,749.68,232.05Z" transform="translate(-203.31 -114.89)"></path><path class="cls-63" d="M767.18,585.76l2.66-1.22,3.95,1.46C771.08,587.58,769.11,587.15,767.18,585.76Z" transform="translate(-203.31 -114.89)"></path><path class="cls-3" d="M519.81,526l.13,1.72-3.72,1.54-1.31-1.2Z" transform="translate(-203.31 -114.89)"></path><path class="cls-64" d="M845.52,312.61c1.26-.76,3.3.54,4.06-1.54.71.58,1.28,1.65.61,2.1C848.64,314.2,847,313.67,845.52,312.61Z" transform="translate(-203.31 -114.89)"></path><path class="cls-65" d="M762.76,524.38,761.07,523c1.47-.55,3.28.1,4.53-1.26C766.56,524.67,764.22,524.05,762.76,524.38Z" transform="translate(-203.31 -114.89)"></path><path class="cls-66" d="M655.74,276l.24-2.24,4,3.51A4.37,4.37,0,0,1,655.74,276Z" transform="translate(-203.31 -114.89)"></path><path class="cls-67" d="M494.49,536.44c1.16-1.22,2.68-2.41,3.6-1,1.3,2-1.12,1.36-2,1.67C495.76,537.25,495.15,536.73,494.49,536.44Z" transform="translate(-203.31 -114.89)"></path><path class="cls-68" d="M740.71,482.12l-1.53-1.69c.58-1.17,1.13-3.34,2.55-2.34S741.9,480.94,740.71,482.12Z" transform="translate(-203.31 -114.89)"></path><path class="cls-48" d="M646.93,692.37c-1,1.13-2,2.93-2.94,0l1.71-1.67.76-.41.71.51A1.8,1.8,0,0,1,646.93,692.37Z" transform="translate(-203.31 -114.89)"></path><path class="cls-55" d="M649.45,688.28c-.44.85-.87,1.71-1.31,2.57a1.12,1.12,0,0,1-1.27.13l.29-.31-.21-.37-.06-.79A1.76,1.76,0,0,1,649.45,688.28Z" transform="translate(-203.31 -114.89)"></path><path class="cls-4" d="M646.89,689.51a1.34,1.34,0,0,0,.06.79l-1.25.35C645.67,689.82,646,689.41,646.89,689.51Z" transform="translate(-203.31 -114.89)"></path><path class="cls-3" d="M851.18,921.72c-.69,11.51-7.18,19.58-15.64,26.16-11.89,9.23-7.87,9.79-20-.26a48.42,48.42,0,0,1-14.58-20c-2-5.07-2.49-10.25,2.31-14s10.69-3.72,14.81.07c6.13,5.63,10.37,4.94,15.86-.72,3.41-3.53,8.58-3.84,13.13-1.27C851,913.9,851.21,917.89,851.18,921.72Z" transform="translate(-203.31 -114.89)"></path><path class="cls-69" d="M248.14,366.3c19.33,23,38.63,46.11,56.62,70.23.38,1.39-.22,1.85-1.54,1.62-18.12-20-33.84-41.86-50.91-62.67-2-2.44-3.69-5.13-5.53-7.71C246.32,366.43,247,366.12,248.14,366.3Z" transform="translate(-203.31 -114.89)"></path><path class="cls-70" d="M318.76,318.79c17.29,21.59,35.73,42.27,51.4,65.14.4,1.37-.23,1.78-1.49,1.6-17.42-21.53-35.23-42.75-51.31-65.34C316.9,318.8,317.51,318.48,318.76,318.79Z" transform="translate(-203.31 -114.89)"></path><path class="cls-71" d="M322.53,463.76q-3.24-4.42-6.47-8.84c-.56-1.42.12-1.68,1.34-1.42,2.54,2.61,5,5.28,6.6,8.63C324.44,463.52,323.79,463.92,322.53,463.76Z" transform="translate(-203.31 -114.89)"></path><path class="cls-72" d="M248.14,366.3l-1.36,1.47a15.22,15.22,0,0,1-4.63-7.18C245.05,361.53,246.61,363.89,248.14,366.3Z" transform="translate(-203.31 -114.89)"></path><path class="cls-46" d="M303.22,438.15l1.54-1.62c2.24,1.71,3.53,4.1,5.42,7.62A13.74,13.74,0,0,1,303.22,438.15Z" transform="translate(-203.31 -114.89)"></path><path class="cls-73" d="M368.67,385.53l1.49-1.6c1.82,1.47,2.84,3.38,3.75,6.19C370.61,389.57,369.75,387.42,368.67,385.53Z" transform="translate(-203.31 -114.89)"></path><path class="cls-74" d="M322.53,463.76l1.47-1.63c1.91,1.71,2.89,3.88,3.83,6.85A11.34,11.34,0,0,1,322.53,463.76Z" transform="translate(-203.31 -114.89)"></path><path class="cls-75" d="M313.73,314.91c-2-1-2.78-3-4-5.29,3.51,0,4.18,2.35,4.93,4.6C314.66,314.88,314.35,315.09,313.73,314.91Z" transform="translate(-203.31 -114.89)"></path><path class="cls-76" d="M313.73,314.91a1.06,1.06,0,0,0,.9-.69c2.3.69,3.06,2.77,4.13,4.57l-1.4,1.4A10.28,10.28,0,0,1,313.73,314.91Z" transform="translate(-203.31 -114.89)"></path><path class="cls-75" d="M317.4,453.5l-1.34,1.42a12.62,12.62,0,0,1-3.62-5.41C315.51,449.49,316.21,451.81,317.4,453.5Z" transform="translate(-203.31 -114.89)"></path><path class="cls-77" d="M758.84,426.54c-2.58-2.38-2.82-5.05-3.53-7.41-2-6.81-6.22-11.52-12.88-14-1.59-.59-3.49-1.13-3.44-3.24,0-1.77,1.77-2.34,3.13-2.78,8.23-2.7,11.86-9.1,14-16.87.41-1.47.42-4,2.45-4s2.06,2.3,2.47,3.87c2.22,8.3,6.61,14.62,15.16,17.53,3.16,1.07,3.53,3.75.34,4.77-9.85,3.16-13.71,10.76-16.07,19.81C760.31,424.94,759.55,425.55,758.84,426.54Z" transform="translate(-203.31 -114.89)"></path><path class="cls-77" d="M689.05,556.09a3.67,3.67,0,0,1-3,3.39c-8.63,2.56-12.18,9.31-14.61,17.11-.46,1.5-.2,3.9-2.53,3.8s-2.05-2.6-2.41-4c-2.11-8.15-6.33-14.19-14.66-17-3.28-1.11-4-3.92-.37-5.16,9-3,13-9.69,15.32-18.09.36-1.27.34-3.39,2.4-3.23,1.38.11,1.7,1.63,2,2.91,2.13,8.76,6.45,15.65,15.61,18.52C687.75,554.59,688.44,555.57,689.05,556.09Z" transform="translate(-203.31 -114.89)"></path><path class="cls-77" d="M714.71,684.44c-.08,6.57-6.23,12.48-13,12.48-6.3,0-12.34-6.37-12.45-13.12-.1-6.26,6.35-12.27,13.12-12.24A12.54,12.54,0,0,1,714.71,684.44Z" transform="translate(-203.31 -114.89)"></path><path class="cls-77" d="M483.62,360.55c-.17,6.62-6.28,12.23-13.21,12.12s-12.4-6.43-12.06-13.79c.28-5.91,6.9-11.76,13.13-11.59C478.12,347.47,483.79,353.66,483.62,360.55Z" transform="translate(-203.31 -114.89)"></path><path class="cls-77" d="M584.51,212.11a12.36,12.36,0,0,1,12.31,12.77,12.66,12.66,0,0,1-12.89,12.3c-6.54,0-12.38-6-12.54-12.84C571.25,218.12,577.69,212.11,584.51,212.11Z" transform="translate(-203.31 -114.89)"></path><path class="cls-77" d="M723.33,457.1c-6.37.12-12.29-6-12.45-13-.16-6.53,5.82-12.36,12.74-12.43a12.58,12.58,0,0,1,12.49,12.7C736.15,451,730.17,457,723.33,457.1Z" transform="translate(-203.31 -114.89)"></path><path class="cls-77" d="M554.66,557.87a12.27,12.27,0,0,1-12.42,12.55c-6.79.14-12.93-6.15-12.84-13.15.07-5.87,6.44-11.82,12.83-12C549.11,545.12,554.57,550.65,554.66,557.87Z" transform="translate(-203.31 -114.89)"></path><path class="cls-78" d="M707.34,604.06A12.32,12.32,0,0,1,695,616.7c-6.85.2-12.83-5.92-12.8-13.08,0-6,6.09-11.79,12.64-12C701.83,591.47,707.21,596.8,707.34,604.06Z" transform="translate(-203.31 -114.89)"></path><path class="cls-79" d="M732.7,643.35c0,2.61-.81,3.42-1.77,3.82-5.2,2.13-7.5,6.6-9.56,11.36-1.63,3.76-3.18,2.7-4.37-.29-1.85-4.67-4.34-8.63-9.16-10.92-3-1.41-2.85-3.85,0-5.22,4.61-2.18,7-5.89,8.82-10.38.5-1.27.93-3.2,2.73-3.07,1.35.09,1.79,1.66,2.24,2.86,1.69,4.51,4.15,8.35,8.8,10.39A11.49,11.49,0,0,1,732.7,643.35Z" transform="translate(-203.31 -114.89)"></path><path class="cls-80" d="M490.45,306c2.71.73,3.11,2.13,3.5,3.22,1.65,4.58,4.16,8.23,8.74,10.44,3.28,1.6,3.18,4.07-.05,5.58-4.67,2.18-6.89,6.07-8.64,10.53-.44,1.12-.94,2.64-2.45,2.66s-1.94-1.41-2.37-2.59c-1.73-4.77-4.39-8.63-9.26-10.8-1.87-.84-3.35-3.11-.81-4.38,5.58-2.8,8.52-7.43,10.67-12.89C490.09,307,490.39,306.18,490.45,306Z" transform="translate(-203.31 -114.89)"></path><path class="cls-80" d="M782,260.34c3.32,6.76,5.58,12.91,12.13,15.57,1.53.62,2.09,2.81.35,3.59-6.56,2.93-9.15,9.05-12.57,16-3.72-6.57-5.78-13.19-12.6-15.74-1.16-.44-1.54-2.76-.34-3.28C775.74,273.61,778.06,266.92,782,260.34Z" transform="translate(-203.31 -114.89)"></path><path class="cls-27" d="M628.77,555.67c-.66,4-3.1,6.63-7.24,6.58s-6.28-2.93-6.38-6.7c-.1-4,2.63-6.47,6.4-6.69C625.83,548.61,628,551.55,628.77,555.67Z" transform="translate(-203.31 -114.89)"></path><path class="cls-81" d="M501.17,274.09c4.29.5,6.84,3.09,6.82,7,0,4.11-3.07,6.62-7.06,6.56-3.83-.05-6.26-2.79-6.37-6.57C494.43,276.86,497.32,274.82,501.17,274.09Z" transform="translate(-203.31 -114.89)"></path><path class="cls-82" d="M818.68,277.76c-.19,4.63-2.93,6.93-6.88,7.05s-6.36-2.64-6.5-6.47,2.16-6.5,6.1-6.81C815.78,271.19,817.83,274,818.68,277.76Z" transform="translate(-203.31 -114.89)"></path><path class="cls-83" d="M604.45,253.36c-4.17-.37-6.56-2.65-6.81-6.48-.28-4.34,2.5-6.92,6.56-7,3.81-.12,6.41,2.39,6.67,6.32C611.16,250.61,608.09,252.41,604.45,253.36Z" transform="translate(-203.31 -114.89)"></path><path class="cls-69" d="M463.27,397.44c3.93.63,6.65,2.75,6.59,7.05-.05,4.07-2.86,6.28-6.55,6.44-4.35.2-6.66-2.76-6.68-6.87S459.4,398.12,463.27,397.44Z" transform="translate(-203.31 -114.89)"></path><path class="cls-84" d="M697.22,520.92c-.39,4.11-3.05,6.28-6.7,6.26-4.12,0-6.62-2.65-6.41-7,.19-4,2.77-6.22,6.59-6.22C695,514,697,516.79,697.22,520.92Z" transform="translate(-203.31 -114.89)"></path><path class="cls-85" d="M785.45,244.43c-.83,4.6-3.27,6.86-7.48,6.66s-6.1-3.05-6-6.77,2.47-6.22,6.53-6.28C783.07,238,784.5,241.13,785.45,244.43Z" transform="translate(-203.31 -114.89)"></path><path class="cls-84" d="M640.54,299.37c-.51,4.87-3.1,7.15-7.18,7.12s-6.25-2.84-6.26-6.63,2.34-6.37,6.31-6.58C637.88,293.06,639.56,296.16,640.54,299.37Z" transform="translate(-203.31 -114.89)"></path><path class="cls-85" d="M783.84,416.41c.26-4,2.69-6.43,6.85-6.31,3.86.11,6.12,2.63,6.22,6.61.12,4.58-3,6.67-6.81,6.67S784,420.79,783.84,416.41Z" transform="translate(-203.31 -114.89)"></path><path class="cls-84" d="M572.27,549.12c4.5.62,6.89,3,6.57,7.25-.3,4-3,6.08-6.82,6-4.4-.07-6.42-3-6.24-7.14S568.77,549.51,572.27,549.12Z" transform="translate(-203.31 -114.89)"></path><path class="cls-77" d="M509.63,371.26c15.09-24.39,37.59-37.25,65.47-40.69,31.75-3.92,59.92,4.83,84.09,26,6.12,5.37,11.72,11.07,14.41,19.29-3.34,1.47-4.35-1.41-5.78-2.8C657,362.67,645.53,353.16,632.31,346c-31.46-17.1-90.88-14.34-121.32,26.71C509.76,373,509.1,372.68,509.63,371.26Z" transform="translate(-203.31 -114.89)"></path><path class="cls-69" d="M499.4,395c-6.89,26.67-2.78,52.6,4.88,78.32C491.7,461.31,488.51,409.65,499.4,395Z" transform="translate(-203.31 -114.89)"></path><path class="cls-81" d="M630,381.59c-7.67-4.76-16.27-3.72-24.67-4.16,9.48-2.86,18.87-4,27.92,1.47,1.36.82,4.2,2.16-.14,2.91A2.35,2.35,0,0,1,630,381.59Z" transform="translate(-203.31 -114.89)"></path><path class="cls-86" d="M527.45,435.73c1.69,5.82,4.74,11,7.47,16.24.47.91.73,2.19-.5,2.71s-2.16-.53-2.56-1.36C529.23,447.81,525.55,442.55,527.45,435.73Z" transform="translate(-203.31 -114.89)"></path><path class="cls-87" d="M505.39,477.78c3.51,5.57,7,11.15,11.19,17.79C509.83,492.86,505.42,485.88,505.39,477.78Z" transform="translate(-203.31 -114.89)"></path><path class="cls-88" d="M558,376.8c.91-5.69,6.8-5.89,10-9.06,1.12-1.78,2.85-1.57,4.57-1.41,2.13.92,1.84,2.09.11,3-4.87,2.52-9.37,5.75-14.67,7.42Z" transform="translate(-203.31 -114.89)"></path><path class="cls-89" d="M570,432.89c7.58.93,13.91-3.55,20.93-5.09-5.64,6.82-12.91,7.83-20.92,6.29-.44-.26-.59-.53-.45-.79S569.81,432.89,570,432.89Z" transform="translate(-203.31 -114.89)"></path><path class="cls-90" d="M520.77,404.1c2.34-5.46,5.29-7.88,9.22-9.19a2,2,0,0,1,2.69.95c.51,1.2-.12,2-1.16,2.52Z" transform="translate(-203.31 -114.89)"></path><path class="cls-91" d="M603.33,352.35c5.67-1.2,11.37-3.36,16.83,1.29H606.42C605.14,353.81,603.47,354.9,603.33,352.35Z" transform="translate(-203.31 -114.89)"></path><path class="cls-92" d="M630,381.59l3.11.22c.88,2,3.84,1.68,4.61,4.64-4.28,1.87-7.28-1.86-10.55-3C626.11,383.07,628.68,381.92,630,381.59Z" transform="translate(-203.31 -114.89)"></path><path class="cls-93" d="M558.14,445.9c6.17-.28,9.87,1.41,15.27,3.24C567,451,563.46,448.79,558.14,445.9Z" transform="translate(-203.31 -114.89)"></path><path class="cls-94" d="M623.87,411.32a17.44,17.44,0,0,0-.07,2.5c.18,1.62-.13,3-1.78,3.58a1.88,1.88,0,0,1-1.66-.2c-1.14-1.31-.52-2.79.06-4.1.67-1.53,1.56-3,2.35-4.43C625.06,408.75,624.45,410,623.87,411.32Z" transform="translate(-203.31 -114.89)"></path><path class="cls-95" d="M530,454.66c2.6,1.36,5.29,2.47,5.36,6.7C531.43,460.08,530.23,457.64,530,454.66Z" transform="translate(-203.31 -114.89)"></path><path class="cls-1" d="M567.47,364.87a5.51,5.51,0,0,1,5.24-2.39c1.24.15,3.47-1,3.44,1.3s-2.43.72-3.56,1.44C570.8,366.29,569.08,366.5,567.47,364.87Z" transform="translate(-203.31 -114.89)"></path><path class="cls-69" d="M575.6,452.39c-3.05,2.17-5.34,1.09-8.07.5C570.2,449.71,572.5,451.54,575.6,452.39Z" transform="translate(-203.31 -114.89)"></path><path class="cls-96" d="M507.3,378.12l-3.14,6.08c-.81-3.2.87-5.29,2.09-7.55C507.17,376.73,508.09,376.81,507.3,378.12Z" transform="translate(-203.31 -114.89)"></path><path class="cls-97" d="M567.47,364.87l5.12.35a3.19,3.19,0,0,1-.05,1.11c-1.28,1.26-2.91,1.37-4.57,1.41C565.52,367.18,567.22,365.9,567.47,364.87Z" transform="translate(-203.31 -114.89)"></path><path class="cls-31" d="M507.3,378.12l-1.05-1.47c.86-2,1.57-4,3.38-5.39l1.36,1.43A14.15,14.15,0,0,1,507.3,378.12Z" transform="translate(-203.31 -114.89)"></path><path class="cls-98" d="M534.44,395.43c1.74-2.32,3.5-2.71,5.45-2.08a1.87,1.87,0,0,1,.5,1.58C538.68,396.68,536.68,396.43,534.44,395.43Z" transform="translate(-203.31 -114.89)"></path><path class="cls-99" d="M597.7,423.12c-.68,2-1.67,3.32-3.66,3.24-.31,0-.95-1.07-.82-1.32C594,423.49,595.15,422.29,597.7,423.12Z" transform="translate(-203.31 -114.89)"></path><path class="cls-100" d="M634.63,389.08c2-.1,4.11-.63,4.75,2.08C636.72,392.4,635.76,390.34,634.63,389.08Z" transform="translate(-203.31 -114.89)"></path><path class="cls-101" d="M603.33,352.35l3.08,1.29c-2.75,1.42-5.66,1.52-10.11.87Z" transform="translate(-203.31 -114.89)"></path><path class="cls-102" d="M623.87,411.32l-1.1-2.65,1.26-5.06c3,.49,1.34,2.45,1.23,3.92S625.07,410.32,623.87,411.32Z" transform="translate(-203.31 -114.89)"></path><path class="cls-103" d="M625.26,407.53c-.38-1.32.28-3-1.23-3.92-.11-1.08-.19-2.25,1.14-2.55s1.2.87,1.23,1.63C626.47,404.39,626.42,406.1,625.26,407.53Z" transform="translate(-203.31 -114.89)"></path><path class="cls-104" d="M533.08,464.06c1.67-.32,3.31-1,4.76.27.17.14-.26,1.49-.55,1.55A3.7,3.7,0,0,1,533.08,464.06Z" transform="translate(-203.31 -114.89)"></path><path class="cls-105" d="M558,376.8v-.06a3.55,3.55,0,0,1-2.38,3.64C555.63,378.33,555.94,377,558,376.8Z" transform="translate(-203.31 -114.89)"></path><path class="cls-106" d="M570,432.89c0,.4,0,.8,0,1.2a3.74,3.74,0,0,1-4.1-1.84C567.5,431.24,568.72,432.12,570,432.89Z" transform="translate(-203.31 -114.89)"></path><path class="cls-80" d="M565.86,525.36c45.57.79,82.28-16.77,109.87-53.21C667.55,505.2,610.17,537.27,565.86,525.36Z" transform="translate(-203.31 -114.89)"></path><path class="cls-107" d="M633.13,488.16c-2.91,11.58-18.29,22.28-30.86,21.12C614.32,503.38,625.69,498.58,633.13,488.16Z" transform="translate(-203.31 -114.89)"></path><path class="cls-98" d="M679.23,468.45c1.09-5.13,1.15-10.59,5-16.31C686.2,459.68,684.38,464.58,679.23,468.45Z" transform="translate(-203.31 -114.89)"></path><path class="cls-108" d="M665,466.72c-1.28,3.51-3.52,5.8-9.07,6.53l7.73-8.18C665,465,665.63,465.31,665,466.72Z" transform="translate(-203.31 -114.89)"></path><path class="cls-104" d="M596.85,511.59c1.18-2.11,2.62-2.76,4.36-2.59.31,0,.89,1.25.73,1.51C600.78,512.31,599.19,512.92,596.85,511.59Z" transform="translate(-203.31 -114.89)"></path><path class="cls-109" d="M665,466.72l-1.34-1.65c.78-1.78,1.57-3.55,2.35-5.33.75.18.81.91,1.14,1.42A8.39,8.39,0,0,1,665,466.72Z" transform="translate(-203.31 -114.89)"></path><path class="cls-110" d="M667.17,461.16,666,459.74c.17-1.35.35-2.71.63-5C668.91,457.49,667.29,459.35,667.17,461.16Z" transform="translate(-203.31 -114.89)"></path><path class="cls-111" d="M544.61,269.25c12.83-10.68,33.17-10.65,41.73,1.39C571.54,264.79,558.08,264.7,544.61,269.25Z" transform="translate(-203.31 -114.89)"></path><path class="cls-112" d="M578.47,859.22a373.93,373.93,0,0,0,81.36-3.46C650.77,863.5,591.69,866,578.47,859.22Z" transform="translate(-203.31 -114.89)"></path><path class="cls-108" d="M644.44,809c25.14-.72,49.7-5.33,74.14-10.82-24,11-49.45,13.18-75.36,13C642.36,809.7,643.63,809.46,644.44,809Z" transform="translate(-203.31 -114.89)"></path><path class="cls-113" d="M644.44,809l-1.22,2.18a35.33,35.33,0,0,1-3.7.11c-.46,0-.88-.55-1.8-1.17C640.08,808.38,642.23,808.51,644.44,809Z" transform="translate(-203.31 -114.89)"></path><path class="cls-108" d="M656.4,919.31c11.57-1.61,21.23-6.7,30.05-16.58C683.65,915.49,671.64,921.66,656.4,919.31Z" transform="translate(-203.31 -114.89)"></path><path class="cls-89" d="M643.39,918.41c3.62-.67,6.07-1.38,8.28.41a1.82,1.82,0,0,1-.47,1.49C648.7,921.4,646.48,920.83,643.39,918.41Z" transform="translate(-203.31 -114.89)"></path><path class="cls-114" d="M628.93,756.41c16.89-1,33.59-4.48,50.59-3.85-29.39,6.05-59,9.15-89,6,1-3.16,3.54-1.52,5.31-1.59C606.88,756.49,617.92,757.43,628.93,756.41Z" transform="translate(-203.31 -114.89)"></path><path class="cls-86" d="M628.93,756.41c-8.54,2.42-17.27.51-25.88,1.18-4.17.32-8.47-1.15-12.5.92a7.88,7.88,0,0,1-5.48-.9c.63-1.12,2-.51,2.8-1.2Z" transform="translate(-203.31 -114.89)"></path><path class="cls-115" d="M587.87,756.41l-2.8,1.2-5.93-.33c-.42-1.15-.15-1.67,1.15-1.23Z" transform="translate(-203.31 -114.89)"></path><path class="cls-116" d="M580.29,756.05l-1.15,1.23c-1.07.21-2.64.2-2.23-1.1C577.58,754,579.1,755.16,580.29,756.05Z" transform="translate(-203.31 -114.89)"></path><path class="cls-81" d="M627,727.29c-14.66,3.32-28.93,2.83-42.53-4.27C598.56,725.26,613,723.82,627,727.29Z" transform="translate(-203.31 -114.89)"></path><path class="cls-117" d="M628.75,727.28c4.28-.87,6.75-1.59,9.5-.07C635.65,730.76,633.08,729.21,628.75,727.28Z" transform="translate(-203.31 -114.89)"></path><path class="cls-118" d="M705.38,255.05c-2.94-2.46-4-4.43-3.94-6.91C703.28,249.75,705.46,251.14,705.38,255.05Z" transform="translate(-203.31 -114.89)"></path><path class="cls-119" d="M709.6,260.08c.21.82-.44,1.25-.91,1.09a5,5,0,0,1-2.51-1.44c-.8-1.09.33-1.22,1.08-1.22A2.25,2.25,0,0,1,709.6,260.08Z" transform="translate(-203.31 -114.89)"></path><path class="cls-120" d="M657.31,637.26c-5,7.78-9.44,16.13-18.78,20,5.75-7.23,12.58-13.58,17.15-21.69C657.09,635.28,657.9,635.61,657.31,637.26Z" transform="translate(-203.31 -114.89)"></path><path class="cls-88" d="M657.31,637.26l-1.63-1.73,2.88-6.29c2.38,0,1.78,1.4,1.24,2.75A7.67,7.67,0,0,1,657.31,637.26Z" transform="translate(-203.31 -114.89)"></path><path class="cls-121" d="M659.8,632c-.15-1-.19-2.12-1.24-2.75.48-2,1-4,1.43-5.92C661.39,626.35,661.66,629.24,659.8,632Z" transform="translate(-203.31 -114.89)"></path><path class="cls-122" d="M603.31,648.5l16-11.51c-2.61,6.73-8.39,9.92-14.28,13C603.56,650.48,603.24,649.72,603.31,648.5Z" transform="translate(-203.31 -114.89)"></path><path class="cls-123" d="M603.31,648.5,605,650l-8.49,5-1-1.52Z" transform="translate(-203.31 -114.89)"></path><path class="cls-108" d="M801,343.6c-3.93,19.66,3.48,34.11,20.27,44.28a19.65,19.65,0,0,1,2.06,1.5c.13.11.14.38.21.57-17.34,1.67-32.63-27.94-23.94-48C800.89,341.78,801.49,342.21,801,343.6Z" transform="translate(-203.31 -114.89)"></path><path class="cls-124" d="M825.66,380.15c-2.3-1.3-4.14-3.53-7.07-3.55,0-2.18-1.73-3.33-2.86-4.82-8.52-11.32-8.41-24,.36-35.11,3.83-1.76,3,0,1.57,2.12a25.51,25.51,0,0,0-4.23,19.43c1.79,10.47,7.35,17.87,17.85,21C829.83,382.07,827.5,379.6,825.66,380.15Z" transform="translate(-203.31 -114.89)"></path><path class="cls-125" d="M830.27,326.75c-2.46.75-4.92,1.49-6.83,3.37a23,23,0,0,0-8.77,5.32c-2.63.64-3.86,3.75-8.21,4.24,7.55-9.64,16-15,27.37-16.36C833.6,326.06,831.41,325.8,830.27,326.75Z" transform="translate(-203.31 -114.89)"></path><path class="cls-126" d="M804.26,349.69v11.2c-3.47-4.33-1.71-7.78-1.9-11.06Z" transform="translate(-203.31 -114.89)"></path><path class="cls-31" d="M793,368.88a11.45,11.45,0,0,1-2.12-9.83,13.7,13.7,0,0,1,3.58,8.34C794.9,368.84,794.23,369.16,793,368.88Z" transform="translate(-203.31 -114.89)"></path><path class="cls-127" d="M801,343.6l-1.4-1.65c.23-2,.7-3.81,3.6-4.82A13.16,13.16,0,0,1,801,343.6Z" transform="translate(-203.31 -114.89)"></path><path class="cls-46" d="M856.18,394.11c1.31-1.37,2.4-2.37,4-1.86.32.1.66,1.41.49,1.55C859.46,394.78,858.07,394.94,856.18,394.11Z" transform="translate(-203.31 -114.89)"></path><path class="cls-128" d="M793,368.88c.49-.49,1-1,1.46-1.49,1.72,1.42,2,3.68.37,4.51C793.39,372.6,792.79,370.45,793,368.88Z" transform="translate(-203.31 -114.89)"></path><path class="cls-129" d="M833,391.74l-2.62,1.2c-1.07-.07-2.69-.89-2.22-1.42C829.56,389.93,831.39,391.07,833,391.74Z" transform="translate(-203.31 -114.89)"></path><path class="cls-130" d="M606.9,613.79c.55,2.91-1.08,3.5-2.8,5C603.66,615.8,605.28,614.94,606.9,613.79Z" transform="translate(-203.31 -114.89)"></path><path class="cls-87" d="M594.37,696.93l19.89-7.84c-5.27,6.33-12.15,8.56-19.53,9.52Z" transform="translate(-203.31 -114.89)"></path><path class="cls-88" d="M854.84,367.43c1,.51,2.22,1.3,1.68,2.32-4.71,8.9-26,9.59-33.62-.41,8.26,4,15.31,7.75,22.62,2.09C848.09,368.86,851,367,854.84,367.43Z" transform="translate(-203.31 -114.89)"></path><path class="cls-88" d="M827.55,347.29c-6.08,4.12-6.16,8.31-.16,18.84-4.62.83-6-2.35-6.92-5.53-2.15-7.26.89-14,8.19-18.82.88-.54,1.46-.15,1.92.62a3.76,3.76,0,0,1-.33,2.31,7,7,0,0,1-.79,1.35A3.31,3.31,0,0,1,827.55,347.29Z" transform="translate(-203.31 -114.89)"></path><path class="cls-75" d="M854.84,367.43a22.53,22.53,0,0,1-9.32,4l-5.08-.22a1.49,1.49,0,0,1-.67-1.1,1.43,1.43,0,0,1,.72-1c5.68-.42,10.38-3.11,14.7-6.63C856.75,364.48,854.23,365.78,854.84,367.43Z" transform="translate(-203.31 -114.89)"></path><path class="cls-86" d="M830.2,343l-1.54-1.23c3.69-3.38,8.3-4.52,13.06-5.27,2.26,1.46,6.45-2.41,7.41,2.67-3.84-.07-7.75-.61-11.34,1.4-1.23.35-3-.75-3.61,1.29A3.13,3.13,0,0,1,833.1,343C832.14,343.4,831.17,343.93,830.2,343Z" transform="translate(-203.31 -114.89)"></path><path class="cls-120" d="M840.49,364q5.37-2.86,10.76-5.71c-4,6.69-9.68,9.18-17.06,7.66C835.48,362.69,838.61,365.38,840.49,364Z" transform="translate(-203.31 -114.89)"></path><path class="cls-131" d="M842.23,342.94c.49-4,3.42-2.1,5.16-1.81,2.59.44,5.29,1.15,7.2,3.31.18,1.27-.21,1.91-1.6,1.47C849.41,344.89,846.09,343,842.23,342.94Z" transform="translate(-203.31 -114.89)"></path><path class="cls-132" d="M846.93,380.56c-3.38,1.05-6.66,2.78-10.38,1.48l-1-1.42c3.88-.85,7.74-2,11.67-2.36C848.52,378.14,847.52,379.78,846.93,380.56Z" transform="translate(-203.31 -114.89)"></path><path class="cls-88" d="M824.86,338c3.65-3.36,7.69-5.61,13.2-4l-11.72,5.19C825.77,338.86,825,338.77,824.86,338Z" transform="translate(-203.31 -114.89)"></path><path class="cls-75" d="M832.69,342l1.49-.08c1.2.27,3,.17,3.45.89.85,1.47-1,2-2,2.59-1.75,1.13-3.58,2.12-5.38,3.17a2,2,0,0,1-1.46-2.69l.28-.21C830.34,344.43,832,343.63,832.69,342Z" transform="translate(-203.31 -114.89)"></path><path class="cls-133" d="M824.86,338l1.48,1.2a33.8,33.8,0,0,0-8,9.07c-.95.06-1.69-.05-.95-1.27C818.58,342.9,821.4,340.17,824.86,338Z" transform="translate(-203.31 -114.89)"></path><path class="cls-134" d="M848,349.74h-9.13c4-2.86,7.14-3.2,10.56-1.36C849.64,349.57,849.4,350.28,848,349.74Z" transform="translate(-203.31 -114.89)"></path><path class="cls-135" d="M840.49,369.07c0,.35,0,.7,0,1.05-1.92,1.45-4.35-.08-6.32,1.07-2,.15-3.56-.71-6-3.58C833.08,369.22,836.79,368.8,840.49,369.07Z" transform="translate(-203.31 -114.89)"></path><path class="cls-136" d="M818.44,361.23q2.05,3.3,4.13,6.58c-3.48-.21-4.56-2.52-5.35-5.12C816.61,361.36,817.28,361.09,818.44,361.23Z" transform="translate(-203.31 -114.89)"></path><path class="cls-42" d="M840.49,364c-1.64,2.12-4.55.16-6.3,2-2-.45-4.11-.7-4.84-3.66A24.28,24.28,0,0,0,840.49,364Z" transform="translate(-203.31 -114.89)"></path><path class="cls-1" d="M858.4,350.43c2.16,2.35,2.14,4.7,0,7.05C856.25,355.13,856.44,352.78,858.4,350.43Z" transform="translate(-203.31 -114.89)"></path><path class="cls-93" d="M853,345.91l1.6-1.47c2.21,1.26,4.2,2.66,3.9,5.65C856.11,349.42,854.58,347.63,853,345.91Z" transform="translate(-203.31 -114.89)"></path><path class="cls-136" d="M827.79,361.14c-2.22-3.22-1.88-5.27-.9-8.05C828.68,355.46,829.13,357.42,827.79,361.14Z" transform="translate(-203.31 -114.89)"></path><path class="cls-137" d="M834.9,350.51c.16,2.94-.26,4.76-2.87,5.94C831.14,353.57,832.4,352.17,834.9,350.51Z" transform="translate(-203.31 -114.89)"></path><path class="cls-138" d="M832.94,359c3.3-.3,5.45-1.23,7,1.34C837.79,361.65,836.13,360.64,832.94,359Z" transform="translate(-203.31 -114.89)"></path><path class="cls-93" d="M845.41,355.27c1.22.17,2.92-1.86,3.53.16.4,1.32-1.45,2.42-2.74,2.9-2.61.95-2-1-1.8-2.34A1.21,1.21,0,0,1,845.41,355.27Z" transform="translate(-203.31 -114.89)"></path><path class="cls-139" d="M848,349.74c.47-.46,1-.91,1.43-1.36,2,.39,2.92,1.88,3.8,4.22C850.8,352.29,849.44,350.93,848,349.74Z" transform="translate(-203.31 -114.89)"></path><path class="cls-140" d="M845.41,355.27l-1,.72c-1.44,0-2.87,0-4.31,0-.87,0-1.73-.1-1.46-1.24a1.62,1.62,0,0,1,1.89-1.17c1.57.62,3.55-.37,4.87,1.23l.26.24Z" transform="translate(-203.31 -114.89)"></path><path class="cls-141" d="M828.84,345.83c.48.9,1,1.79,1.46,2.69-.8,1.05-1.06,3.3-3,2.2-1.24-.72.27-2.24.22-3.43Z" transform="translate(-203.31 -114.89)"></path><path class="cls-1" d="M845.39,354.77c-1.56-.66-3.6.57-4.87-1.23C842.45,352.74,844.52,351.39,845.39,354.77Z" transform="translate(-203.31 -114.89)"></path><path class="cls-72" d="M817.36,347c.32.42.64.84.95,1.27-.89,1.19-.17,3.52-3.29,3.78Z" transform="translate(-203.31 -114.89)"></path><path class="cls-142" d="M818.44,361.23l-1.22,1.46c-1.74-1.82-1.63-3.93-1-6.34C817.92,357.7,817.8,359.64,818.44,361.23Z" transform="translate(-203.31 -114.89)"></path><path class="cls-81" d="M834.15,371.19c1.87-1.77,4.22-.69,6.32-1.07,0,.36,0,.73,0,1.09Z" transform="translate(-203.31 -114.89)"></path><path class="cls-74" d="M576,606.36c1-3.23,2.2-4.68,5-6C580.24,603.46,579.3,605.18,576,606.36Z" transform="translate(-203.31 -114.89)"></path><path class="cls-141" d="M786.42,509.63a3.89,3.89,0,0,0-1,.36c-1-.6-.44-1.82-1.07-2.55-.34-2.55.44-4.85,2.11-8.83Z" transform="translate(-203.31 -114.89)"></path><path class="cls-134" d="M785.88,488c2.41,3.4,1.23,5.93.19,8.47C785.16,494,784.54,491.45,785.88,488Z" transform="translate(-203.31 -114.89)"></path><path class="cls-143" d="M784.31,507.44c.35.85.71,1.7,1.07,2.55-.23,1.72.29,3.65-1.35,5a1.48,1.48,0,0,1-1-1.17Z" transform="translate(-203.31 -114.89)"></path><path class="cls-144" d="M783,513.8l1,1.17-1.37,3.87C779.88,516.94,783,515.48,783,513.8Z" transform="translate(-203.31 -114.89)"></path><path class="cls-1" d="M646.87,691l1.27-.13-1.21,1.52Z" transform="translate(-203.31 -114.89)"></path><path class="cls-26" d="M752.31,402.21c2.28-2.43,4.59-4.87,6.7-7.11,6.08,4.52,8.18,9.32,0,13.31Z" transform="translate(-203.31 -114.89)"></path><path class="cls-11" d="M663,556.52l6.74-6.65c1.66,2,3.55,4.76,6.92,6.7-2.74,2.37-5.68,4.12-7,7.41Z" transform="translate(-203.31 -114.89)"></path><path class="cls-15" d="M701.49,680.43c2.77-.11,4.1,1.28,4.21,3.29A3.82,3.82,0,0,1,702,688a3.46,3.46,0,0,1-3.73-3.42C698.15,682.19,699.43,680.63,701.49,680.43Z" transform="translate(-203.31 -114.89)"></path><path class="cls-145" d="M474.53,360.08c-.53,2-1.3,3.71-3.68,3.7a3.2,3.2,0,0,1-3.57-3.51c0-2.52,1.39-4.09,3.85-4C473.37,356.27,474.32,358,474.53,360.08Z" transform="translate(-203.31 -114.89)"></path><path class="cls-12" d="M585.47,221.07c1,0,2.4,1.22,2.39,3.43a3.53,3.53,0,0,1-3.49,3.73c-2.42.11-4.13-1.25-3.91-3.8C580.64,222.42,581.92,221,585.47,221.07Z" transform="translate(-203.31 -114.89)"></path><path class="cls-145" d="M723,440.58c2.86,0,4,1.48,4,3.57s-1.15,3.85-3.35,4c-2.48.13-3.92-1.36-3.79-4C720,441.91,721.18,440.68,723,440.58Z" transform="translate(-203.31 -114.89)"></path><path class="cls-29" d="M543.07,554.29c1.34.17,2.75,1.14,2.65,3.5-.09,2.53-1.45,3.85-4,3.71-2.33-.13-3.28-1.65-3.11-3.8S540,554.24,543.07,554.29Z" transform="translate(-203.31 -114.89)"></path><path class="cls-9" d="M698.37,604.15a3.46,3.46,0,0,1-3.55,3.66c-2.24.06-3.54-1.33-3.47-3.6s1.24-3.62,3.53-3.61S698.39,601.81,698.37,604.15Z" transform="translate(-203.31 -114.89)"></path><path class="cls-12" d="M719.41,642.07c.67.86,1.61,1.56,1.81,2.43a2.12,2.12,0,0,1-2.07,2.42c-.59.06-1.75-1.2-1.9-2C717,643.57,718.39,643,719.41,642.07Z" transform="translate(-203.31 -114.89)"></path><path class="cls-146" d="M491.4,324.82a2.3,2.3,0,0,1-2-2.41,3,3,0,0,1,1.77-2.17,2.3,2.3,0,0,1,2.67,1.92C493.94,323.41,492.81,324.33,491.4,324.82Z" transform="translate(-203.31 -114.89)"></path><path class="cls-147" d="M781.8,275.45c1.35.54,2.41,1.36,2.17,2.64a3,3,0,0,1-1.9,2,2.19,2.19,0,0,1-2.49-2C779.55,276.73,780.81,276.09,781.8,275.45Z" transform="translate(-203.31 -114.89)"></path><path class="cls-148" d="M832.69,342c.89,3.26-1.76,3.06-3.57,3.67L830.2,343Z" transform="translate(-203.31 -114.89)"></path></svg>