<svg xmlns="http://www.w3.org/2000/svg" viewBox="0 0 1260 1315" width="300" height="313"><title>cc2-icon-ai</title><style>
		tspan { white-space:pre }
		.s0 { fill: #f3f5f5 } 
		.s1 { fill: none;stroke: #2c2e35;stroke-width: 5 } 
		.s2 { fill: none;stroke: #2c2e35;stroke-width: 5;stroke-dasharray: 60,60 } 
		.s3 { fill: #ff3026 } 
	</style><g id="Layer 1"><g id="&lt;Group&gt;"><g id="&lt;Group&gt;"><path id="&lt;Path&gt;" class="s0" d="m3136.5 641.75h-1019.46v-1019.46h1019.46v1019.46z"></path></g><g id="&lt;Group&gt;"><g id="&lt;Group&gt;"><path id="&lt;Path&gt;" class="s1" d="m3197.54 703.83v30h-30"></path><path id="&lt;Path&gt;" class="s2" d="m3108.39 733.83h-1035.12"></path><path id="&lt;Path&gt;" class="s2" d="m2043.7 733.83h-30v-30"></path><path id="&lt;Path&gt;" class="s2" d="m2013.7 644.68v-1035.12"></path><path id="&lt;Path&gt;" class="s2" d="m2013.7-420.01v-30h30"></path><path id="&lt;Path&gt;" class="s2" d="m2102.85-450.01h1035.12"></path><path id="&lt;Path&gt;" class="s2" d="m3167.54-450.01h30v30"></path><path id="&lt;Path&gt;" class="s2" d="m3197.54-360.86v1035.12"></path></g></g><g id="Main"><path id="Fill-1-Copy-4" fill-rule="evenodd" class="s3" d="m3044-107.33v429.32c0 13.42-8.14 25.06-20.72 29.65c-3.59 1.31-7.28 1.95-10.92 1.95c-9.08 0-17.82-3.97-23.96-11.32l-81.7-97.79c-8.03-9.65-19.84-15.17-32.38-15.17h-97.25v237.34c0 13.42-8.14 25.07-20.75 29.65c-3.57 1.31-7.26 1.95-10.89 1.95c-9.07 0-17.83-3.99-23.98-11.35l-81.66-97.77c-8.04-9.64-19.86-15.16-32.39-15.16h-339.32c-46.61 0-84.55-38.01-84.55-84.71v-251.91c0-46.72 37.94-84.71 84.55-84.71h182.39v-59.93c0-46.72 37.92-84.71 84.53-84.71h424.46c46.62 0 84.55 38 84.55 84.71zm-315.37 336.63h-193.64c-46.61 0-84.53-38.01-84.53-84.71v-143.45h-182.39c-19.91 0-36.12 16.23-36.12 36.18v251.91c0 19.95 16.21 36.18 36.12 36.18h339.32c26.91 0 52.26 11.86 69.54 32.54l51.7 61.92v-190.58zm266.94-336.63c0-19.95-16.2-36.18-36.12-36.18h-424.46c-19.91 0-36.1 16.24-36.1 36.18v59.93h193.62c46.62 0 84.55 38 84.55 84.71v143.45h97.25c26.93 0 52.27 11.88 69.53 32.56l51.72 61.92v-382.58zm-266.94 144.65c0-19.96-16.2-36.18-36.12-36.18h-193.62v143.45c0 19.95 16.19 36.18 36.1 36.18h193.64v-143.45z"></path></g></g><g id="&lt;Group&gt;"><g id="&lt;Group&gt;"><path id="&lt;Path&gt;" class="s0" d="m1134.68 1150.89h-999.17v-999.17h999.17v999.17z"></path></g><g id="&lt;Group&gt;"><g id="&lt;Group&gt;"><path id="&lt;Path&gt;" class="s2" d="m1194.51 1211.15v30h-30"></path><path id="&lt;Path&gt;" class="s2" d="m1106.6 1241.15h-1013.41"></path><path id="&lt;Path&gt;" class="s2" d="m64.23 1241.15h-30v-30"></path><path id="&lt;Path&gt;" class="s2" d="m34.23 1153.24v-1013.41"></path><path id="&lt;Path&gt;" class="s2" d="m34.23 110.87v-30h30"></path><path id="&lt;Path&gt;" class="s2" d="m122.14 80.87h1013.41"></path><path id="&lt;Path&gt;" class="s2" d="m1164.51 80.87h30v30"></path><path id="&lt;Path&gt;" class="s2" d="m1194.51 168.78v1013.41"></path></g></g><g id="Main 00000089565321780653666960000007963278833580118172 "><path id="Fill-1-Copy-4 00000077306148901899500700000016375803007814294167 " fill-rule="evenodd" class="s3" d="m1044.01 416.73v420.77c0 13.15-7.98 24.56-20.31 29.06c-3.52 1.28-7.14 1.91-10.71 1.91c-8.9 0-17.46-3.89-23.48-11.09l-80.07-95.85c-7.87-9.46-19.45-14.87-31.74-14.87h-95.32v232.61c0 13.15-7.98 24.57-20.34 29.06c-3.5 1.28-7.12 1.91-10.68 1.91c-8.89 0-17.47-3.91-23.5-11.12l-80.03-95.83c-7.88-9.45-19.47-14.86-31.75-14.86h-332.56c-45.68 0-82.87-37.25-82.87-83.03v-246.9c0-45.79 37.18-83.03 82.87-83.03h178.76v-58.74c0-45.79 37.16-83.03 82.85-83.03h416.01c45.69 0 82.87 37.24 82.87 83.03zm-309.09 329.93h-189.79c-45.68 0-82.85-37.25-82.85-83.03v-140.59h-178.76c-19.51 0-35.4 15.9-35.4 35.46v246.9c0 19.55 15.89 35.46 35.4 35.46h332.56c26.38 0 51.22 11.63 68.16 31.9l50.67 60.69v-186.79zm261.62-329.93c0-19.55-15.88-35.46-35.4-35.46h-416.01c-19.51 0-35.38 15.91-35.38 35.46v58.74h189.77c45.69 0 82.87 37.24 82.87 83.03v140.59h95.32c26.4 0 51.23 11.64 68.15 31.92l50.69 60.69v-374.96zm-261.62 141.77c0-19.56-15.88-35.46-35.4-35.46h-189.77v140.59c0 19.55 15.87 35.46 35.38 35.46h189.79v-140.59z"></path></g></g></g></svg>