<svg xmlns="http://www.w3.org/2000/svg" id="Layer_1" data-name="Layer 1" viewBox="0 0 224.64 42.68"><defs><style>.cls-1{fill:#ec1e31;}</style></defs><path class="cls-1" d="M48,0H21.47a5.24,5.24,0,0,0-5.23,5.24v3.7h-11A5.25,5.25,0,0,0,0,14.18V29.76A5.24,5.24,0,0,0,5.24,35H26.47a2.62,2.62,0,0,1,2,.94l5.06,6A2,2,0,0,0,37,40.72V26.05H42.7a2.6,2.6,0,0,1,2,.94l5.06,6a1.91,1.91,0,0,0,1.49.7,1.76,1.76,0,0,0,.67-.12,1.93,1.93,0,0,0,1.29-1.83V5.24A5.25,5.25,0,0,0,48,0ZM34,37.83,30.78,34a5.64,5.64,0,0,0-4.31-2H5.24A2.23,2.23,0,0,1,3,29.76V14.18a2.24,2.24,0,0,1,2.24-2.24h11v8.87a5.24,5.24,0,0,0,5.23,5.24H34Zm0-14.78H21.47a2.23,2.23,0,0,1-2.23-2.24V11.94h12.5A2.24,2.24,0,0,1,34,14.18Zm16.24,5.84L47,25.06a5.6,5.6,0,0,0-4.31-2H37V14.18a5.25,5.25,0,0,0-5.24-5.24H19.24V5.24A2.23,2.23,0,0,1,21.47,3H48a2.24,2.24,0,0,1,2.24,2.24Z"></path><path d="M67.37,17.51V8.05c0-2.27,1.59-3.74,4-3.74s3.73,1.4,3.73,3.33V9.5H73.4V7.92a1.84,1.84,0,0,0-2.05-2,1.93,1.93,0,0,0-2.07,2.18V17.3a2,2,0,0,0,2.12,2.21,1.86,1.86,0,0,0,2-2V15.94h1.7v1.71a3.43,3.43,0,0,1-3.73,3.54C69,21.19,67.37,19.88,67.37,17.51Z"></path><path d="M77.4,8.91h1.75v1.35h0a2.21,2.21,0,0,1,2.1-1.45,2.52,2.52,0,0,1,.62,0v1.73c-.3,0-.65-.07-.83-.07a1.74,1.74,0,0,0-1.89,1.86V21H77.4Z"></path><path d="M83.54,19v-10h1.77v9.36c0,.89.42,1.4,1.27,1.4s1.66-1.13,1.66-2.21V8.91H90V21H88.3V19.65h0a2.82,2.82,0,0,1-2.53,1.56A2.13,2.13,0,0,1,83.54,19Z"></path><path d="M92.38,17.88V12a3.09,3.09,0,0,1,3.26-3.31c2,0,3,1.21,3,2.73v1.22H97.09v-1.1a1.28,1.28,0,0,0-1.42-1.38c-1.11,0-1.5.8-1.5,1.7v6.09c0,.95.37,1.75,1.5,1.75a1.31,1.31,0,0,0,1.42-1.47v-1h1.59v1.17c0,1.7-1.13,2.83-3.08,2.83A3,3,0,0,1,92.38,17.88Z"></path><path d="M100.89,4.33h1.77V6.88h-1.77Zm0,4.58h1.77V21h-1.77Z"></path><path d="M104.82,17.55a3.6,3.6,0,0,1,3.61-3.88h1V11.34a1.18,1.18,0,0,0-1.33-1.24c-.86,0-1.36.44-1.36,1.22v1.22h-1.64V11.3c0-1.57,1.22-2.62,3.16-2.62s2.94,1,2.94,2.66V18c0,.87.07,2.41.09,2.92h-1.61c0-.19-.07-.78-.07-1.31h-.07a2.39,2.39,0,0,1-2.2,1.51C106,21.16,104.82,20.06,104.82,17.55Zm4.58.23V14.84h-.92c-.92,0-1.86.62-1.86,2.51,0,1.7.5,2.39,1.24,2.39A1.82,1.82,0,0,0,109.4,17.78Z"></path><path d="M113.68,19.19V4.56h1.77V18.73a.67.67,0,0,0,.76.73,2.46,2.46,0,0,0,.6-.07v1.5a3.53,3.53,0,0,1-1.2.21A1.72,1.72,0,0,1,113.68,19.19Z"></path><path d="M121.68,17.51V8.05c0-2.27,1.59-3.74,4-3.74s3.72,1.4,3.72,3.33V9.5h-1.7V7.92a1.84,1.84,0,0,0-2-2,1.93,1.93,0,0,0-2.07,2.18V17.3a2,2,0,0,0,2.12,2.21,1.86,1.86,0,0,0,2-2V15.94h1.7v1.71a3.43,3.43,0,0,1-3.72,3.54C123.29,21.19,121.68,19.88,121.68,17.51Z"></path><path d="M131.41,17.83V12a3.13,3.13,0,0,1,3.34-3.31A3,3,0,0,1,138,11.9v5.91a3.11,3.11,0,0,1-3.34,3.38A3,3,0,0,1,131.41,17.83Zm4.83.09V11.87a1.52,1.52,0,0,0-1.54-1.72c-1.08,0-1.49.83-1.49,1.75v6c0,.92.44,1.77,1.54,1.77S136.24,18.82,136.24,17.92Z"></path><path d="M140.41,8.91h1.7v1.26h0a2.76,2.76,0,0,1,2.53-1.49,2.1,2.1,0,0,1,2.21,2.2V21H145.1V11.62c0-.92-.41-1.45-1.26-1.45s-1.66,1.13-1.66,2.23V21h-1.77Z"></path><path d="M148.48,8.91h1.87L152,18h.05l1.72-9.08h1.66L152.88,21H151Z"></path><path d="M156.72,17.76V12.17A3.17,3.17,0,0,1,160,8.68c2,0,3,1.31,3,3.24v3.54h-4.53v2.05c0,1.42.53,2.16,1.93,2.16a5.8,5.8,0,0,0,2.08-.48l.41,1.28a5.6,5.6,0,0,1-2.78.72A3.09,3.09,0,0,1,156.72,17.76Zm4.69-3.66V11.83c0-.83-.34-1.68-1.45-1.68s-1.45.87-1.45,1.72V14.1Z"></path><path d="M165.32,8.91h1.75v1.35h0a2.22,2.22,0,0,1,2.1-1.45,2.52,2.52,0,0,1,.62,0v1.73c-.3,0-.65-.07-.83-.07a1.74,1.74,0,0,0-1.89,1.86V21h-1.77Z"></path><path d="M170.66,18l1.7,0c.12,1.08.48,1.73,1.43,1.73.76,0,1.24-.46,1.24-1.38a4.17,4.17,0,0,0-1.43-2.51l-1-1.17a4.69,4.69,0,0,1-1.59-3.2,2.7,2.7,0,0,1,2.94-2.8c1.59,0,2.74.94,2.83,3.05l-1.59.07c-.11-1.24-.48-1.74-1.31-1.74a1.15,1.15,0,0,0-1.22,1.24,3.16,3.16,0,0,0,1.09,2L175,14.75a5.31,5.31,0,0,1,1.72,3.49,2.78,2.78,0,0,1-3,2.92C172,21.16,170.8,20.08,170.66,18Z"></path><path d="M178.25,17.55a3.6,3.6,0,0,1,3.61-3.88h1V11.34a1.18,1.18,0,0,0-1.34-1.24c-.85,0-1.35.44-1.35,1.22v1.22H178.5V11.3c0-1.57,1.22-2.62,3.15-2.62s2.95,1,2.95,2.66V18c0,.87.07,2.41.09,2.92h-1.61c0-.19-.07-.78-.07-1.31h-.07a2.39,2.39,0,0,1-2.21,1.51C179.38,21.16,178.25,20.06,178.25,17.55Zm4.58.23V14.84h-.92c-.92,0-1.86.62-1.86,2.51,0,1.7.5,2.39,1.24,2.39A1.82,1.82,0,0,0,182.83,17.78Z"></path><path d="M187.71,19.23V10.42h-1.2V9h1.2V6.22h1.74V9h1.91v1.47h-1.91v8.31c0,.59.23.82.74.82a3,3,0,0,0,1-.16v1.45a4.67,4.67,0,0,1-1.47.28A1.77,1.77,0,0,1,187.71,19.23Z"></path><path d="M193.2,4.33H195V6.88H193.2Zm0,4.58H195V21H193.2Z"></path><path d="M197.34,17.83V12a3.13,3.13,0,0,1,3.34-3.31A3,3,0,0,1,204,11.9v5.91a3.11,3.11,0,0,1-3.34,3.38A3,3,0,0,1,197.34,17.83Zm4.83.09V11.87a1.52,1.52,0,0,0-1.54-1.72c-1.08,0-1.49.83-1.49,1.75v6c0,.92.43,1.77,1.54,1.77S202.17,18.82,202.17,17.92Z"></path><path d="M206.34,8.91H208v1.26h0a2.76,2.76,0,0,1,2.53-1.49,2.1,2.1,0,0,1,2.21,2.2V21H211V11.62c0-.92-.41-1.45-1.27-1.45s-1.65,1.13-1.65,2.23V21h-1.77Z"></path><path d="M214.76,18l1.7,0c.11,1.08.48,1.73,1.43,1.73.76,0,1.24-.46,1.24-1.38a4.22,4.22,0,0,0-1.43-2.51l-1.06-1.17a4.72,4.72,0,0,1-1.58-3.2A2.69,2.69,0,0,1,218,8.68c1.59,0,2.74.94,2.83,3.05l-1.59.07c-.11-1.24-.48-1.74-1.31-1.74a1.15,1.15,0,0,0-1.22,1.24,3.18,3.18,0,0,0,1.08,2l1.32,1.45a5.36,5.36,0,0,1,1.72,3.49,2.78,2.78,0,0,1-3,2.92C216.09,21.16,214.9,20.08,214.76,18Z"></path><path d="M68.06,28.76h5.1V30.1h-3.5v1.66h3v1.33h-3v3h-1.6Z"></path><path d="M74.34,33.58V31.37a3,3,0,0,1,6,0v2.11a2.78,2.78,0,0,1-3,2.74C75.77,36.19,74.34,35.35,74.34,33.58Zm4.45-.06V31.27A1.32,1.32,0,0,0,77.34,30a1.29,1.29,0,0,0-1.42,1.31v2.23a1.32,1.32,0,0,0,1.46,1.3A1.3,1.3,0,0,0,78.79,33.52Z"></path><path d="M82.09,28.76h3a2.27,2.27,0,0,1,2.54,2.3,2.23,2.23,0,0,1-1.41,2.14L88,36.06H86.26l-1.58-2.65h-1v2.65H82.09Zm2.83,3.39c.73,0,1.19-.38,1.19-1s-.49-1.05-1.2-1.05H83.67v2.1Z"></path><path d="M94.43,28.75H96l2.62,7.31H97l-.49-1.46h-2.7l-.5,1.46H91.77Zm1.67,4.56-.92-2.8h0l-.94,2.8Z"></path><path d="M99.58,33.61V31.33a2.72,2.72,0,0,1,3-2.7c1.4,0,2.88.75,2.88,2.41v.29h-1.51v-.14a1.25,1.25,0,0,0-1.36-1.2,1.29,1.29,0,0,0-1.42,1.29v2.27a1.32,1.32,0,0,0,1.46,1.28,1.21,1.21,0,0,0,1.32-1.2v-.14h1.51v.29c0,1.66-1.43,2.41-2.84,2.41C101,36.19,99.58,35.34,99.58,33.61Z"></path><path d="M106.92,33.61V31.33a2.72,2.72,0,0,1,3-2.7c1.4,0,2.88.75,2.88,2.41v.29h-1.51v-.14a1.25,1.25,0,0,0-1.36-1.2,1.29,1.29,0,0,0-1.42,1.29v2.27A1.32,1.32,0,0,0,110,34.83a1.21,1.21,0,0,0,1.32-1.2v-.14h1.51v.29c0,1.66-1.43,2.41-2.84,2.41C108.35,36.19,106.92,35.34,106.92,33.61Z"></path><path d="M114.26,33.58V31.37a3,3,0,0,1,6,0v2.11a2.78,2.78,0,0,1-3,2.74C115.69,36.19,114.26,35.35,114.26,33.58Zm4.45-.06V31.27A1.32,1.32,0,0,0,117.26,30a1.29,1.29,0,0,0-1.42,1.31v2.23a1.32,1.32,0,0,0,1.46,1.3A1.3,1.3,0,0,0,118.71,33.52Z"></path><path d="M122,33.51V28.76h1.6v4.61a1.28,1.28,0,0,0,1.38,1.44c.88,0,1.35-.49,1.35-1.44V28.76h1.58v4.66a2.68,2.68,0,0,1-3,2.77C123.12,36.19,122,35.31,122,33.51Z"></path><path d="M129.69,28.76h1.55l3,4.55h0V28.76h1.51v7.3h-1.52l-3-4.64h0v4.64h-1.5Z"></path><path d="M139.28,30.08H137.2V28.76H143v1.32h-2.08v6h-1.6Z"></path><path d="M145.62,28.75h1.6l2.63,7.31h-1.66l-.49-1.46H145l-.5,1.46H143Zm1.67,4.56-.93-2.8h0l-.93,2.8Z"></path><path d="M151.15,28.76h3.43c1.43,0,2.22.68,2.22,1.86a1.64,1.64,0,0,1-1.07,1.6v0A1.7,1.7,0,0,1,157,34a2.09,2.09,0,0,1-2.27,2.09h-3.57Zm3.1,2.95c.63,0,1-.34,1-.86s-.4-.81-1-.81h-1.46v1.67Zm.08,3c.65,0,1-.35,1-.92s-.37-.87-1-.87h-1.58v1.79Z"></path><path d="M158.59,28.76h1.59v7.3h-1.59Z"></path><path d="M162.07,28.76h1.59v6h3.51v1.34h-5.1Z"></path><path d="M168.63,28.76h1.59v7.3h-1.59Z"></path><path d="M173.77,30.08h-2.08V28.76h5.76v1.32h-2.08v6h-1.6Z"></path><path d="M180.65,33.15l-2.43-4.39H180l1.54,3,1.51-3h1.64l-2.44,4.41v2.89h-1.56Z"></path><path d="M222.61,19.74c0-.72.39-1.27,1-1.27s1,.54,1,1.27-.38,1.27-1,1.27S222.61,20.43,222.61,19.74Zm1.8,0c0-.67-.37-1.08-.79-1.08s-.78.4-.78,1.08.36,1.07.78,1.07S224.41,20.41,224.41,19.74Zm-1.18-.81h.41c.27,0,.42.17.42.46a.44.44,0,0,1-.23.43l.27.69h-.26l-.24-.64h-.12v.64h-.25Zm.39.74c.13,0,.19-.09.19-.26s-.06-.28-.2-.28h-.13v.54Z"></path></svg>