<svg xmlns="http://www.w3.org/2000/svg" xmlns:xlink="http://www.w3.org/1999/xlink" id="Layer_1" x="0px" y="0px" viewBox="0 0 916.46 144.2" style="enable-background:new 0 0 916.46 144.2;" xml:space="preserve">
<style type="text/css">
	.st0{fill:#231F20;}
	.st1{fill:#EB2333;}
	.st2{fill:none;stroke:#3C3A36;stroke-width:0.75;stroke-miterlimit:10;}
	.st3{fill:#646969;}
	.st4{fill:#326FB1;}
	.st5{fill-rule:evenodd;clip-rule:evenodd;fill:#FFFFFF;}
	.st6{fill-rule:evenodd;clip-rule:evenodd;fill:#676868;}
	.st7{fill-rule:evenodd;clip-rule:evenodd;fill:#EB8123;}
	.st8{fill:#010101;}
</style>
<g>
	<path class="st0" d="M903.62,85.19c0-2,1.6-3.46,3.46-3.46c2,0,3.46,1.6,3.46,3.46c0,2-1.6,3.46-3.46,3.46s-3.46-1.47-3.46-3.33   l0,0V85.19z M910.15,85.19c0-1.73-1.47-2.93-3.06-2.93s-2.93,1.47-2.93,3.06c0,1.6,1.33,2.93,2.93,2.93   c1.6,0.13,2.93-1.07,3.06-2.66V85.19z M906.82,86.39c0,0.13,0.13,0.27,0.53,0.27v0.4h-1.73v-0.27c0.4,0,0.53,0,0.53-0.27v-2.53   c0-0.13-0.13-0.27-0.53-0.27v-0.27h1.73c1.07,0,1.47,0.4,1.47,0.93s-0.27,0.67-1.07,0.93v0.13c0.67,0,0.93,0.27,0.93,0.67v0.53   c0,0.27,0.13,0.4,0.53,0.4v0h-0.4c-0.8,0-0.93-0.27-0.93-0.67v-0.4c0-0.4-0.13-0.53-0.93-0.53h-0.27L906.82,86.39L906.82,86.39z    M907.22,85.05c0.53,0,0.8-0.27,0.8-0.8c0-0.53-0.27-0.67-0.8-0.67h-0.4v1.33L907.22,85.05z"></path>
	<path class="st0" d="M523.39,86.39c-6.66,0-13.59-5.46-13.59-16.25c0-11.46,5.86-17.59,12.52-17.59c2.8,0,5.46,1.07,7.33,3.06   c-1.33,0.67-2.13,2.13-2,3.6c0,2.13,1.6,4,3.86,4c0.13,0,0.27,0,0.4,0c2.26,0,4-1.87,3.86-4.13c0-0.13,0-0.13,0-0.27   c-0.13-2.53-1.47-4.8-3.6-6.13l0,0h-0.13l0,0c-2.66-1.73-5.86-2.66-9.06-2.66c-10.92,0-19.45,8.79-19.45,20.25   s7.59,19.45,18.39,19.45c8.39,0,13.32-5.46,15.72-10.92l-2.13-1.07C533.11,82.65,529.92,86.39,523.39,86.39z"></path>
	<path class="st0" d="M556.56,62c-2.93,0-5.6,2.13-7.46,4.66v-4.53l-9.19,0.27v2.13c3.33,0,4.26,1.07,4.26,2.8v17.19   c0,1.33-0.93,2-4.26,2v2.13h14.12v-2.13c-3.86,0-4.8-0.67-4.8-2V68.8c1.2-2,3.33-3.2,5.6-3.33c-0.13,0.27-0.13,0.67-0.13,0.93   c0,1.6,1.2,3.06,2.93,3.06c0.13,0,0.27,0,0.4,0c1.73,0,3.06-1.47,3.06-3.33l0,0c0.13-2.26-1.6-4.13-3.86-4.13   C556.96,62,556.7,62,556.56,62z"></path>
	<path class="st0" d="M589.2,84.65V62.14l-9.33,0.27v2.13c3.2,0.13,4.26,0.53,4.26,2.26v16.65c-1.73,1.2-3.86,1.87-6,1.87   c-3.73,0-5.6-1.33-5.6-6.26V62.14l-9.33,0.27v2.13c3.33,0.13,4.26,0.53,4.26,2.26v14.39c0,5.2,2.8,7.99,6.93,7.99   c3.6-0.13,7.06-1.47,9.86-3.86v3.33h9.19v-2.13C590.14,86.52,589.2,86.12,589.2,84.65z"></path>
	<path class="st0" d="M607.85,85.85c-5.6,0-8.79-4.4-8.79-11.32c0-7.33,3.2-10.53,7.59-10.53c1.73,0,3.46,0.53,4.8,1.73   c-1.07,0.67-1.87,1.87-1.87,3.2c0,1.6,1.2,2.93,2.8,2.93c0.13,0,0.27,0,0.4,0c1.87-0.13,3.2-1.6,3.2-3.46v-0.13   c0-3.06-3.33-6.26-9.33-6.26c-7.19,0-12.79,5.86-12.79,13.99c0,7.59,4.66,13.32,12.26,13.32c5.33,0,8.26-2.66,10.66-6.13l-1.33-1.2   C613.58,84.25,610.79,85.72,607.85,85.85z"></path>
	<path class="st0" d="M624.77,55.88c1.87,0,3.33-1.33,3.33-3.2v-0.13v-0.27c0.13-1.73-1.2-3.33-3.06-3.46h-0.4   c-1.87,0-3.33,1.33-3.33,3.2c0,0,0,0,0,0.13v0.27c-0.13,1.73,1.2,3.33,3.06,3.46H624.77z"></path>
	<path class="st0" d="M627.44,84.65V62.27l-9.19,0.27v2.13c3.33,0,4.13,1.07,4.13,2.8v17.19c0,1.33-0.8,2-4.13,2v2.13h13.32v-2.13   C628.24,86.52,627.44,85.99,627.44,84.65z"></path>
	<path class="st0" d="M654.22,83.19V70.4c0-5.6-3.46-8.26-9.46-8.26c-5.6,0-10.13,2.66-10.13,6.13c0,1.73,1.2,3.06,2.93,3.2h0.13   c1.6,0,3.06-1.2,3.06-2.8l0,0V68.4c0-0.93-0.27-1.87-0.67-2.66c1.07-0.93,2.4-1.47,3.86-1.33c3.73,0,5.2,1.73,5.2,7.33v1.6   c-0.93,0.67-7.73,1.6-12.12,4c-2.26,1.2-3.6,3.46-3.6,6c0,3.2,2.26,6,7.06,6c3.33,0,6.26-2,8.53-4.53h0.4   c0.27,3.2,1.07,4.4,4.13,4.4c1.73,0,3.46-0.4,5.06-1.07l-0.13-1.73C654.75,86.65,654.22,85.99,654.22,83.19z M649.29,82.25   c-1.33,2-3.33,3.33-5.73,3.46c-2.13,0.27-4-1.2-4.13-3.33c0-0.27,0-0.53,0-0.8c0-3.6,1.73-4.8,9.86-6.66V82.25L649.29,82.25z"></path>
	<path class="st0" d="M669.81,84.65V48.68l-9.46,0.27v2.13c3.33,0,4.4,1.07,4.4,2.8v30.64c0,1.33-0.93,2-4.13,2v2.13h13.46v-2.13   C670.61,86.52,669.81,85.99,669.81,84.65z"></path>
	<path class="st0" d="M704.98,86.25h-6V55.61c0-1.73,1.2-2.26,6.13-2.53v-2.13h-17.59v2.26c4.8,0.13,6,0.67,6,2.53v28.51   c0,1.73-1.2,2.26-6,2.53v2.26h30.78l0.4-13.06l-2-0.13C714.3,83.45,712.57,86.25,704.98,86.25z"></path>
	<path class="st0" d="M735.22,85.99c-5.6,0-8.66-4.53-8.66-10.79v-0.27h17.59c0.4-6.39-2.8-13.06-10.66-13.06   c-7.46,0-12.39,6-12.39,13.86c0,7.59,4.4,13.32,12.39,13.32c5.86,0,8.93-3.2,11.06-6.79l-1.33-1.2   C741.08,83.99,738.55,85.99,735.22,85.99z M733.22,63.87c4.13,0,6,4,5.6,8.79l-12.12,0.27C727.09,66.4,729.89,63.87,733.22,63.87z"></path>
	<path class="st0" d="M768.13,83.19V70.4c0-5.6-3.46-8.26-9.46-8.26c-5.6,0-10.13,2.66-10.13,6.13c-0.13,1.73,1.2,3.06,2.8,3.2h0.13   c1.6,0,2.93-1.2,3.06-2.8l0,0V68.4c0-0.93-0.27-1.87-0.67-2.66c1.07-0.93,2.4-1.47,3.86-1.33c3.73,0,5.2,1.73,5.2,7.33v1.6   c-0.93,0.67-7.73,1.6-12.12,4c-2.13,1.2-3.46,3.46-3.46,6c0,3.2,2.26,6,7.06,6c3.33,0,6.26-2,8.53-4.53h0.27   c0.27,3.2,1.07,4.4,4.13,4.4c1.73,0,3.46-0.4,5.06-1.07l-0.13-1.6C768.53,86.65,768.13,85.99,768.13,83.19z M763.07,82.25   c-1.33,2-3.33,3.33-5.73,3.46c-2.13,0.27-4-1.2-4.26-3.33c0-0.27,0-0.53,0-0.8c0-3.6,1.73-4.8,9.99-6.66V82.25z"></path>
	<path class="st0" d="M790.91,62c-2.93,0-5.6,2.13-7.46,4.66v-4.53l-9.19,0.27v2.13c3.33,0,4.26,1.07,4.26,2.8v17.19   c0,1.33-0.93,2-4.26,2v2.13h14.12v-2.13c-3.86,0-4.8-0.67-4.8-2V68.8c1.2-2,3.33-3.2,5.6-3.33c-0.13,0.27-0.13,0.67-0.13,0.93   c-0.13,1.6,1.2,2.93,2.8,3.06c0.13,0,0.27,0,0.4,0c1.73,0,3.06-1.47,3.06-3.2l0,0v-0.13c0.13-2.13-1.6-4-3.73-4.13   C791.18,62,791.04,62,790.91,62z"></path>
	<path class="st0" d="M822.75,84.65V70.13c0-5.2-2.66-7.99-6.66-7.99s-7.33,2-10.26,4.13v-4l-9.19,0.27v2c3.33,0,4.13,1.07,4.13,2.8   v17.19c0,1.33-0.93,2-4.13,2v2.13h12.79v-2.13c-2.8,0-3.6-0.67-3.6-2V68.13c1.87-1.47,4.13-2.26,6.39-2.26   c3.33,0,5.33,1.33,5.33,6.26v12.52c0,1.33-0.8,2-3.73,2v2.13h12.92v-2.13C823.55,86.52,822.75,85.99,822.75,84.65z"></path>
	<path class="st0" d="M838.61,84.65V62.27l-9.19,0.27v2.13c3.33,0,4.13,1.07,4.13,2.8v17.19c0,1.33-0.8,2-4.13,2v2.13h13.32v-2.13   C839.27,86.52,838.61,85.99,838.61,84.65z"></path>
	<path class="st0" d="M835.94,55.88c1.87,0,3.33-1.33,3.33-3.2v-0.13v-0.27c0.13-1.73-1.33-3.33-3.06-3.46h-0.4   c-1.87,0-3.33,1.47-3.33,3.2c0,0,0,0,0,0.13v0.27c-0.13,1.73,1.2,3.33,3.06,3.46H835.94z"></path>
	<path class="st0" d="M871.11,84.65V70.13c0-5.2-2.66-7.99-6.66-7.99c-4,0-7.33,2-10.26,4.13v-4L845,62.54v2   c3.33,0,4.13,1.07,4.13,2.8v17.19c0,1.33-0.93,2-4.13,2v2.13h12.79v-2.13c-2.8,0-3.6-0.67-3.6-2V68.13   c1.87-1.47,4.13-2.26,6.39-2.26c3.33,0,5.33,1.33,5.33,6.26v12.52c0,1.33-0.8,2-3.73,2v2.13h12.92v-2.13   C871.91,86.52,871.11,85.99,871.11,84.65z"></path>
	<path class="st0" d="M897.49,60.94c-0.13,1.33,0.93,2.53,2.26,2.66h0.13c1.2,0,2.26-1.07,2.26-2.26V61.2c0-1.6-1.2-2.93-2.8-2.93   c-0.13,0-0.27,0-0.4,0c-2.8,0-4.93,2.13-6.13,4.4c-1.47-0.53-3.2-0.93-4.8-0.93c-6,0-10.39,3.46-10.39,8.93   c-0.13,3.33,1.87,6.39,4.8,7.73c-2.53,1.33-4.13,2.93-4.13,4.66c0,2.4,1.2,3.86,4.66,4.4v0.4c-4.53,0.67-7.06,3.2-7.06,5.73   c0,3.33,4.13,6.26,11.46,6.26c9.19,0,13.72-4.66,13.72-9.19c0-4.93-3.6-6.93-10.92-6.93h-2.53c-4.66,0-5.73-1.07-5.73-2.26   c0-1.2,0.93-1.87,2.53-2.66c1.07,0.27,2.26,0.4,3.46,0.4c5.86,0,10.39-3.46,10.39-9.06c0.13-2.93-1.47-5.73-4.13-7.19   C895.23,62.27,896.29,61.47,897.49,60.94z M890.03,88.92c5.86,0,7.33,1.6,7.33,3.86c0,3.2-3.33,5.6-8.26,5.6   c-6.13,0-8.66-2.13-8.66-4.8c0-2.66,2-3.86,5.06-4.53L890.03,88.92z M888.3,77.99c-2.93,0-5.33-1.73-5.33-7.06s2-6.93,4.8-6.93   c2.8,0,5.33,2.4,5.33,6.93C893.23,76.13,891.1,77.99,888.3,77.99L888.3,77.99z"></path>
	<path class="st1" d="M461.44,72.13c-6.79,0-11.59,2.13-19.05,13.86c-3.46,5.06-7.33,10.39-12.39,13.72   c-16.52-8.66-22.92-29.18-14.12-45.83c3.2-6,8.13-11.06,14.26-14.26c4.93,3.46,8.79,8.79,12.12,13.99   c5.86,9.19,10.39,13.86,19.05,13.86s15.72-7.06,15.72-15.72c0-8.26-8.39-21.45-31.18-21.45c-5.33,0-10.66,1.07-15.59,3.2   c-3.86-2.13-8.13-3.2-12.52-3.2c-21.85-0.27-39.7,17.19-39.97,39.04s17.19,39.7,39.04,39.97l0,0h1.07c4.4,0,8.66-1.07,12.52-3.2   c4.93,2.13,10.26,3.2,15.59,3.2c22.78,0,31.18-13.19,31.18-21.45C477.02,79.06,470.1,72.13,461.44,72.13z M445.85,35.76   c17.72,0,25.71,9.33,25.71,15.99c0,5.6-4.53,10.13-10.26,10.26c-5.73,0-8.66-2.26-14.39-11.32c-3.06-4.93-6.66-9.46-11.06-13.32   C439.19,36.29,442.52,35.76,445.85,35.76z M417.87,103.7c-18.79,0.27-34.11-14.79-34.37-33.44s14.79-34.24,33.44-34.51h0.93   c2.13,0,4.26,0.27,6.26,0.93c-18.25,11.99-23.31,36.5-11.32,54.76c2.93,4.53,6.79,8.39,11.32,11.32   C422.13,103.44,420,103.7,417.87,103.7L417.87,103.7z M445.85,103.7c-3.33,0-6.66-0.53-9.99-1.47c4.26-3.86,7.99-8.39,11.06-13.32   c5.73-8.93,8.66-11.32,14.39-11.32c5.6,0,10.13,4.53,10.26,10.26C471.56,98.78,456.51,103.7,445.85,103.7z"></path>
</g>
<line class="st2" x1="365.91" y1="7.9" x2="365.91" y2="134.9"></line>
<g>
	<g>
		<g>
			<g>
				<path class="st3" d="M7.83,89.03h4.6c0.49,0,0.97,0.06,1.43,0.19c0.46,0.12,0.87,0.34,1.23,0.64c0.36,0.3,0.64,0.7,0.86,1.19      c0.22,0.49,0.33,1.1,0.33,1.82c0,0.34-0.05,0.67-0.15,1.01c-0.1,0.33-0.24,0.64-0.43,0.92c-0.19,0.28-0.42,0.53-0.69,0.74      c-0.27,0.21-0.57,0.36-0.91,0.46v0.04c0.92,0.22,1.59,0.66,2.02,1.32c0.42,0.66,0.64,1.45,0.64,2.37c0,1.53-0.42,2.62-1.25,3.29      c-0.83,0.66-2.03,1-3.6,1H7.83V89.03z M9.72,95.5h2.12c0.2,0,0.44-0.02,0.73-0.06c0.29-0.04,0.57-0.15,0.84-0.32      c0.27-0.17,0.5-0.42,0.69-0.75c0.19-0.34,0.28-0.79,0.28-1.37c0-0.8-0.2-1.41-0.6-1.83c-0.4-0.42-1.06-0.63-1.99-0.63H9.72V95.5      z M9.72,102.51h2.52c0.49,0,0.9-0.08,1.24-0.23c0.34-0.15,0.61-0.36,0.81-0.61c0.2-0.25,0.35-0.54,0.44-0.88      c0.09-0.33,0.14-0.69,0.14-1.05c0-0.52-0.08-0.96-0.23-1.31c-0.15-0.36-0.36-0.65-0.63-0.88c-0.27-0.23-0.58-0.4-0.93-0.5      c-0.36-0.11-0.74-0.16-1.15-0.16H9.72V102.51z"></path>
				<path class="st3" d="M26.95,104.03h-1.68v-1.32h-0.04c-0.24,0.52-0.62,0.92-1.14,1.19c-0.52,0.28-1.05,0.42-1.6,0.42      c-0.74,0-1.31-0.12-1.71-0.37c-0.4-0.24-0.69-0.55-0.88-0.91c-0.19-0.36-0.3-0.75-0.33-1.17s-0.04-0.79-0.04-1.13v-7.98h1.76      v7.77c0,0.21,0.01,0.45,0.03,0.72c0.02,0.27,0.09,0.52,0.2,0.75c0.11,0.23,0.28,0.42,0.49,0.58c0.22,0.15,0.53,0.23,0.93,0.23      c0.24,0,0.49-0.04,0.75-0.13c0.26-0.08,0.5-0.22,0.72-0.4c0.22-0.18,0.41-0.42,0.55-0.71c0.14-0.29,0.21-0.63,0.21-1.04v-7.77      h1.76V104.03z"></path>
				<path class="st3" d="M30.22,89.03h1.76v2.02h-1.76V89.03z M30.22,92.77h1.76v11.26h-1.76V92.77z"></path>
				<path class="st3" d="M35.37,89.03h1.76v15h-1.76V89.03z"></path>
				<path class="st3" d="M47.83,104.03h-1.68v-1.39H46.1c-0.06,0.21-0.16,0.42-0.31,0.62c-0.15,0.2-0.33,0.38-0.55,0.53      c-0.22,0.15-0.46,0.28-0.72,0.38c-0.27,0.1-0.55,0.14-0.86,0.14c-0.67,0-1.24-0.14-1.7-0.43c-0.46-0.29-0.84-0.69-1.13-1.21      c-0.29-0.52-0.51-1.14-0.64-1.87c-0.13-0.73-0.2-1.54-0.2-2.42c0-0.59,0.03-1.23,0.11-1.92c0.07-0.69,0.23-1.33,0.47-1.92      c0.24-0.59,0.6-1.08,1.07-1.48c0.47-0.4,1.1-0.6,1.9-0.6c0.5,0,0.99,0.14,1.47,0.42c0.48,0.28,0.81,0.66,1.01,1.16h0.04v-5.02      h1.76V104.03z M41.88,98.4c0,0.67,0.03,1.28,0.09,1.82c0.06,0.55,0.17,1.01,0.32,1.39c0.15,0.38,0.36,0.67,0.63,0.88      c0.26,0.21,0.6,0.32,1,0.32c0.47,0,0.86-0.11,1.15-0.33c0.3-0.22,0.53-0.52,0.69-0.91c0.16-0.39,0.27-0.86,0.32-1.4      c0.06-0.54,0.08-1.13,0.08-1.77c0-0.55-0.03-1.08-0.08-1.61c-0.06-0.53-0.17-1-0.33-1.42c-0.17-0.42-0.39-0.75-0.69-1.01      c-0.29-0.25-0.67-0.38-1.14-0.38c-0.4,0-0.74,0.11-1,0.32c-0.26,0.21-0.47,0.5-0.63,0.88c-0.15,0.38-0.26,0.84-0.32,1.39      C41.91,97.11,41.88,97.73,41.88,98.4z"></path>
				<path class="st3" d="M51.1,89.03h1.76v2.02H51.1V89.03z M51.1,92.77h1.76v11.26H51.1V92.77z"></path>
				<path class="st3" d="M56.14,92.77h1.68v1.33h0.04c0.24-0.52,0.62-0.92,1.14-1.2c0.52-0.28,1.05-0.42,1.6-0.42      c0.74,0,1.31,0.12,1.71,0.37c0.4,0.24,0.69,0.55,0.88,0.91c0.19,0.36,0.3,0.76,0.33,1.17c0.03,0.41,0.04,0.79,0.04,1.13v7.98      h-1.76v-7.77c0-0.21-0.01-0.45-0.03-0.72c-0.02-0.27-0.09-0.52-0.2-0.74c-0.11-0.23-0.28-0.42-0.5-0.58      c-0.22-0.15-0.53-0.23-0.92-0.23c-0.24,0-0.49,0.04-0.75,0.12c-0.26,0.09-0.5,0.22-0.72,0.4c-0.22,0.18-0.41,0.42-0.55,0.7      s-0.21,0.63-0.21,1.04v7.77h-1.76V92.77z"></path>
				<path class="st3" d="M74.15,103.31c0,0.84-0.09,1.55-0.28,2.13c-0.19,0.58-0.45,1.05-0.79,1.42c-0.33,0.36-0.74,0.63-1.21,0.79      s-0.98,0.24-1.54,0.24c-0.17,0-0.44-0.01-0.83-0.04c-0.39-0.03-0.78-0.13-1.18-0.31c-0.4-0.18-0.76-0.46-1.09-0.84      c-0.33-0.39-0.53-0.93-0.6-1.63h1.76c0.04,0.52,0.24,0.89,0.59,1.1c0.35,0.22,0.76,0.32,1.22,0.32c0.56,0,0.99-0.1,1.29-0.28      c0.3-0.19,0.52-0.42,0.65-0.68c0.13-0.27,0.21-0.54,0.22-0.83c0.01-0.29,0.02-0.53,0.02-0.73v-1.47h-0.04      c-0.2,0.48-0.53,0.85-1,1.11c-0.47,0.27-0.98,0.4-1.54,0.4c-0.55,0-1.01-0.11-1.4-0.32c-0.38-0.21-0.71-0.48-0.96-0.82      c-0.26-0.33-0.46-0.71-0.61-1.12c-0.15-0.41-0.26-0.83-0.33-1.25c-0.08-0.42-0.13-0.82-0.15-1.19      c-0.02-0.37-0.03-0.68-0.03-0.93c0-0.76,0.06-1.49,0.17-2.21c0.11-0.72,0.31-1.35,0.6-1.9c0.29-0.55,0.66-0.99,1.13-1.32      c0.47-0.33,1.06-0.49,1.78-0.49c0.31,0,0.6,0.05,0.87,0.15c0.27,0.1,0.52,0.22,0.73,0.38c0.21,0.15,0.39,0.33,0.53,0.54      c0.15,0.21,0.25,0.43,0.31,0.65h0.04v-1.43h1.68V103.31z M70.24,93.99c-0.4,0-0.74,0.11-1,0.32c-0.26,0.21-0.47,0.5-0.63,0.88      c-0.15,0.38-0.26,0.84-0.32,1.39c-0.06,0.54-0.09,1.16-0.09,1.83c0,0.46,0.02,0.93,0.07,1.42c0.05,0.48,0.14,0.92,0.28,1.32      c0.14,0.4,0.34,0.73,0.6,0.99c0.26,0.26,0.62,0.39,1.06,0.39c0.47,0,0.86-0.11,1.16-0.32c0.3-0.21,0.53-0.5,0.7-0.87      c0.17-0.37,0.28-0.81,0.33-1.31c0.06-0.5,0.08-1.04,0.08-1.61c0-0.55-0.03-1.08-0.08-1.61s-0.17-1-0.33-1.42      c-0.17-0.42-0.39-0.75-0.69-1.01C71.09,94.11,70.71,93.99,70.24,93.99z"></path>
				<path class="st3" d="M81.25,89.03h2.04l2.88,7.02l3.02-7.02h1.89l-3.97,9.12v5.88h-1.89v-5.88L81.25,89.03z"></path>
				<path class="st3" d="M90.89,98.4c0-0.8,0.06-1.56,0.18-2.27c0.12-0.71,0.33-1.34,0.63-1.88c0.3-0.54,0.71-0.97,1.24-1.29      c0.53-0.32,1.19-0.48,2.01-0.48c0.81,0,1.48,0.16,2.01,0.48c0.53,0.32,0.94,0.75,1.24,1.29c0.3,0.54,0.51,1.17,0.63,1.88      C98.94,96.84,99,97.6,99,98.4c0,0.8-0.06,1.55-0.18,2.27c-0.12,0.71-0.33,1.34-0.64,1.88c-0.31,0.54-0.72,0.97-1.24,1.29      c-0.52,0.32-1.18,0.48-2,0.48c-0.81,0-1.48-0.16-2.01-0.48s-0.94-0.75-1.24-1.29c-0.3-0.54-0.51-1.17-0.63-1.88      C90.95,99.95,90.89,99.2,90.89,98.4z M94.9,102.93c0.45,0,0.82-0.12,1.11-0.37c0.29-0.25,0.52-0.57,0.68-0.99      c0.16-0.41,0.28-0.89,0.33-1.44c0.05-0.55,0.08-1.13,0.08-1.74c0-0.6-0.03-1.18-0.08-1.73c-0.06-0.55-0.16-1.04-0.32-1.45      c-0.16-0.41-0.38-0.74-0.67-0.99c-0.29-0.24-0.67-0.37-1.13-0.37c-0.44,0-0.8,0.12-1.07,0.37c-0.27,0.25-0.49,0.57-0.65,0.99      c-0.16,0.41-0.27,0.9-0.32,1.45c-0.05,0.55-0.08,1.13-0.08,1.73c0,0.61,0.03,1.19,0.08,1.74c0.06,0.54,0.16,1.02,0.31,1.44      c0.15,0.41,0.37,0.74,0.65,0.99C94.1,102.81,94.46,102.93,94.9,102.93z"></path>
				<path class="st3" d="M109.04,104.03h-1.68v-1.32h-0.04c-0.24,0.52-0.62,0.92-1.13,1.19c-0.52,0.28-1.05,0.42-1.6,0.42      c-0.74,0-1.31-0.12-1.71-0.37c-0.4-0.24-0.7-0.55-0.88-0.91c-0.19-0.36-0.3-0.75-0.32-1.17c-0.03-0.41-0.04-0.79-0.04-1.13      v-7.98h1.76v7.77c0,0.21,0.01,0.45,0.03,0.72s0.09,0.52,0.2,0.75c0.11,0.23,0.28,0.42,0.49,0.58c0.22,0.15,0.53,0.23,0.94,0.23      c0.24,0,0.49-0.04,0.74-0.13c0.26-0.08,0.5-0.22,0.73-0.4c0.22-0.18,0.41-0.42,0.54-0.71c0.14-0.29,0.21-0.63,0.21-1.04v-7.77      h1.77V104.03z"></path>
				<path class="st3" d="M112.21,92.77h1.77v1.68h0.04c0.12-0.27,0.26-0.52,0.41-0.75c0.15-0.24,0.32-0.45,0.52-0.63      c0.2-0.18,0.42-0.32,0.66-0.43c0.24-0.11,0.53-0.16,0.85-0.16c0.35,0,0.61,0.04,0.78,0.12v1.72c-0.09-0.01-0.19-0.03-0.32-0.05      c-0.13-0.02-0.34-0.03-0.62-0.03c-0.22,0-0.47,0.05-0.74,0.16c-0.27,0.11-0.52,0.27-0.75,0.49c-0.23,0.22-0.43,0.49-0.59,0.83      c-0.16,0.34-0.24,0.74-0.24,1.2v7.12h-1.77V92.77z"></path>
				<path class="st3" d="M125.25,89.03h1.89v13.36h6.05v1.64h-7.94V89.03z"></path>
				<path class="st3" d="M136.89,98.61c0,0.43,0.01,0.9,0.03,1.4c0.02,0.51,0.1,0.97,0.24,1.41c0.13,0.43,0.34,0.79,0.63,1.08      c0.28,0.29,0.69,0.43,1.22,0.43c0.41,0,0.74-0.1,0.98-0.28c0.25-0.19,0.44-0.42,0.57-0.7c0.13-0.27,0.22-0.56,0.26-0.86      c0.04-0.3,0.06-0.56,0.06-0.77h1.81c0,0.3-0.05,0.67-0.16,1.13c-0.11,0.45-0.3,0.9-0.58,1.32c-0.28,0.43-0.66,0.79-1.16,1.09      c-0.49,0.3-1.12,0.45-1.89,0.45c-1.39,0-2.38-0.48-2.99-1.43c-0.61-0.95-0.91-2.4-0.91-4.35c0-0.7,0.05-1.41,0.14-2.13      c0.09-0.72,0.28-1.37,0.56-1.95c0.29-0.58,0.7-1.06,1.22-1.43c0.53-0.37,1.22-0.55,2.09-0.55c0.86,0,1.54,0.17,2.04,0.5      c0.51,0.34,0.88,0.77,1.14,1.29c0.25,0.53,0.41,1.11,0.48,1.75c0.07,0.65,0.11,1.27,0.11,1.87v0.72H136.89z M140.88,97.22v-0.61      c0-0.31-0.03-0.63-0.08-0.96c-0.06-0.33-0.15-0.63-0.3-0.89c-0.14-0.27-0.34-0.48-0.58-0.65c-0.25-0.17-0.56-0.25-0.95-0.25      c-0.45,0-0.81,0.12-1.08,0.37c-0.27,0.25-0.47,0.53-0.61,0.85c-0.13,0.33-0.22,0.65-0.27,0.98c-0.04,0.33-0.06,0.58-0.06,0.74      v0.42H140.88z"></path>
				<path class="st3" d="M145.29,96.17c0-1.27,0.3-2.21,0.88-2.8c0.59-0.6,1.55-0.89,2.9-0.89c0.85,0,1.51,0.11,1.98,0.33      c0.46,0.22,0.8,0.51,1.02,0.84c0.22,0.34,0.34,0.69,0.38,1.06c0.04,0.37,0.05,0.71,0.05,1v6.28c0,0.24,0.02,0.45,0.06,0.63      c0.04,0.18,0.2,0.27,0.49,0.27c0.11,0,0.2-0.01,0.26-0.03c0.06-0.02,0.11-0.05,0.16-0.08v1.26c-0.07,0.01-0.2,0.04-0.4,0.06      c-0.2,0.03-0.41,0.04-0.63,0.04c-0.17,0-0.34-0.01-0.52-0.02c-0.17-0.02-0.34-0.07-0.5-0.16c-0.16-0.09-0.3-0.24-0.4-0.43      c-0.11-0.2-0.16-0.48-0.18-0.84h-0.04c-0.28,0.5-0.67,0.9-1.17,1.18c-0.5,0.29-1.01,0.43-1.55,0.43c-1.05,0-1.82-0.29-2.32-0.88      c-0.5-0.59-0.74-1.39-0.74-2.4c0-0.8,0.17-1.46,0.52-1.99c0.34-0.53,0.88-0.9,1.61-1.12l2.37-0.72c0.32-0.1,0.57-0.2,0.75-0.31      c0.17-0.11,0.3-0.22,0.38-0.34c0.08-0.13,0.12-0.27,0.13-0.44c0.02-0.17,0.02-0.37,0.02-0.61c0-1.11-0.6-1.66-1.81-1.66      c-0.49,0-0.86,0.1-1.12,0.29c-0.26,0.19-0.45,0.41-0.57,0.66c-0.12,0.25-0.19,0.5-0.21,0.75c-0.02,0.25-0.03,0.42-0.03,0.52      v0.11H145.29z M150.73,97.89c-0.17,0.17-0.38,0.31-0.63,0.42c-0.26,0.11-0.53,0.21-0.81,0.31c-0.29,0.09-0.56,0.18-0.83,0.27      c-0.27,0.09-0.5,0.2-0.7,0.32c-0.28,0.18-0.49,0.4-0.63,0.66c-0.14,0.26-0.22,0.63-0.22,1.12c0,0.59,0.11,1.06,0.34,1.41      c0.23,0.35,0.64,0.53,1.24,0.53c0.29,0,0.57-0.06,0.84-0.17c0.27-0.11,0.51-0.27,0.72-0.46c0.21-0.2,0.37-0.42,0.5-0.68      c0.12-0.26,0.19-0.54,0.19-0.83V97.89z"></path>
				<path class="st3" d="M163.17,104.03h-1.68v-1.39h-0.04c-0.06,0.21-0.16,0.42-0.31,0.62c-0.14,0.2-0.33,0.38-0.54,0.53      c-0.22,0.15-0.46,0.28-0.73,0.38c-0.27,0.1-0.55,0.14-0.86,0.14c-0.67,0-1.24-0.14-1.7-0.43c-0.46-0.29-0.84-0.69-1.13-1.21      c-0.3-0.52-0.51-1.14-0.64-1.87c-0.13-0.73-0.2-1.54-0.2-2.42c0-0.59,0.03-1.23,0.11-1.92c0.07-0.69,0.23-1.33,0.47-1.92      c0.24-0.59,0.6-1.08,1.07-1.48c0.47-0.4,1.1-0.6,1.9-0.6c0.51,0,0.99,0.14,1.47,0.42c0.48,0.28,0.81,0.66,1.01,1.16h0.04v-5.02      h1.77V104.03z M157.22,98.4c0,0.67,0.03,1.28,0.09,1.82c0.06,0.55,0.17,1.01,0.32,1.39c0.15,0.38,0.36,0.67,0.63,0.88      c0.26,0.21,0.59,0.32,1,0.32c0.47,0,0.86-0.11,1.16-0.33c0.3-0.22,0.53-0.52,0.69-0.91c0.16-0.39,0.27-0.86,0.32-1.4      c0.06-0.54,0.08-1.13,0.08-1.77c0-0.55-0.03-1.08-0.08-1.61c-0.06-0.53-0.17-1-0.33-1.42c-0.17-0.42-0.4-0.75-0.69-1.01      c-0.29-0.25-0.67-0.38-1.14-0.38c-0.4,0-0.74,0.11-1,0.32c-0.27,0.21-0.47,0.5-0.63,0.88c-0.15,0.38-0.26,0.84-0.32,1.39      C157.25,97.11,157.22,97.73,157.22,98.4z"></path>
				<path class="st3" d="M167.85,98.61c0,0.43,0.01,0.9,0.03,1.4c0.02,0.51,0.1,0.97,0.24,1.41c0.14,0.43,0.35,0.79,0.63,1.08      c0.28,0.29,0.69,0.43,1.22,0.43c0.41,0,0.74-0.1,0.99-0.28c0.25-0.19,0.44-0.42,0.56-0.7c0.13-0.27,0.22-0.56,0.26-0.86      c0.04-0.3,0.06-0.56,0.06-0.77h1.81c0,0.3-0.05,0.67-0.16,1.13c-0.11,0.45-0.3,0.9-0.58,1.32s-0.67,0.79-1.16,1.09      c-0.49,0.3-1.12,0.45-1.89,0.45c-1.39,0-2.38-0.48-2.99-1.43c-0.61-0.95-0.91-2.4-0.91-4.35c0-0.7,0.04-1.41,0.13-2.13      c0.09-0.72,0.28-1.37,0.57-1.95c0.29-0.58,0.69-1.06,1.22-1.43c0.53-0.37,1.22-0.55,2.09-0.55c0.85,0,1.53,0.17,2.04,0.5      c0.5,0.34,0.88,0.77,1.13,1.29c0.25,0.53,0.41,1.11,0.49,1.75c0.07,0.65,0.11,1.27,0.11,1.87v0.72H167.85z M171.85,97.22v-0.61      c0-0.31-0.03-0.63-0.09-0.96c-0.05-0.33-0.15-0.63-0.3-0.89c-0.14-0.27-0.34-0.48-0.59-0.65c-0.25-0.17-0.56-0.25-0.95-0.25      c-0.45,0-0.81,0.12-1.08,0.37c-0.27,0.25-0.47,0.53-0.61,0.85c-0.14,0.33-0.23,0.65-0.27,0.98c-0.04,0.33-0.06,0.58-0.06,0.74      v0.42H171.85z"></path>
				<path class="st3" d="M176.53,92.77h1.77v1.68h0.04c0.12-0.27,0.26-0.52,0.41-0.75c0.15-0.24,0.32-0.45,0.52-0.63      c0.2-0.18,0.42-0.32,0.66-0.43c0.24-0.11,0.53-0.16,0.85-0.16c0.35,0,0.61,0.04,0.78,0.12v1.72c-0.09-0.01-0.19-0.03-0.32-0.05      c-0.13-0.02-0.34-0.03-0.62-0.03c-0.22,0-0.47,0.05-0.74,0.16c-0.27,0.11-0.52,0.27-0.74,0.49c-0.23,0.22-0.43,0.49-0.59,0.83      c-0.16,0.34-0.24,0.74-0.24,1.2v7.12h-1.77V92.77z"></path>
				<path class="st3" d="M188.44,96.06c0-0.71-0.11-1.26-0.34-1.64c-0.23-0.38-0.67-0.57-1.31-0.57c-0.14,0-0.32,0.02-0.53,0.05      c-0.21,0.04-0.41,0.11-0.6,0.22c-0.19,0.11-0.35,0.29-0.49,0.52c-0.14,0.23-0.21,0.54-0.21,0.94c0,0.33,0.08,0.61,0.24,0.82      c0.16,0.21,0.37,0.39,0.63,0.54c0.26,0.15,0.55,0.27,0.88,0.37c0.33,0.1,0.67,0.2,1.02,0.32c0.33,0.11,0.67,0.23,1,0.37      c0.33,0.13,0.62,0.32,0.88,0.54c0.26,0.23,0.47,0.53,0.63,0.88c0.16,0.36,0.24,0.82,0.24,1.38c0,0.59-0.09,1.1-0.27,1.55      c-0.18,0.44-0.43,0.81-0.76,1.1c-0.32,0.29-0.71,0.51-1.16,0.66c-0.45,0.15-0.93,0.22-1.45,0.22c-0.95,0-1.69-0.15-2.22-0.46      c-0.53-0.31-0.91-0.68-1.16-1.1c-0.25-0.43-0.39-0.87-0.43-1.31c-0.04-0.45-0.06-0.82-0.06-1.12h1.77      c0,0.34,0.03,0.66,0.08,0.98c0.06,0.32,0.16,0.59,0.32,0.84s0.37,0.44,0.64,0.58c0.27,0.14,0.63,0.21,1.06,0.21      c0.14,0,0.32-0.02,0.53-0.06c0.21-0.04,0.42-0.13,0.62-0.27c0.2-0.14,0.37-0.33,0.51-0.57c0.14-0.24,0.21-0.56,0.21-0.97      c0-0.38-0.08-0.69-0.24-0.93c-0.16-0.25-0.37-0.45-0.63-0.61c-0.26-0.16-0.55-0.3-0.88-0.41c-0.33-0.11-0.66-0.22-1-0.33      c-0.33-0.11-0.67-0.24-1.01-0.37c-0.34-0.13-0.63-0.31-0.89-0.54c-0.26-0.23-0.47-0.52-0.63-0.88      c-0.16-0.36-0.24-0.83-0.24-1.41c0-0.52,0.1-0.97,0.29-1.37c0.19-0.39,0.45-0.72,0.77-0.98c0.33-0.26,0.71-0.45,1.15-0.58      c0.43-0.12,0.9-0.19,1.39-0.19c0.81,0,1.45,0.12,1.91,0.38c0.46,0.25,0.8,0.56,1.03,0.93c0.22,0.36,0.36,0.75,0.41,1.17      c0.05,0.41,0.08,0.79,0.08,1.12H188.44z"></path>
				<path class="st3" d="M193.02,89.03h1.77v5.02h0.04c0.11-0.22,0.27-0.43,0.47-0.63c0.2-0.2,0.43-0.36,0.67-0.51      c0.25-0.14,0.51-0.25,0.78-0.32c0.27-0.08,0.53-0.11,0.79-0.11c0.73,0,1.29,0.12,1.68,0.37c0.39,0.24,0.68,0.55,0.86,0.91      c0.18,0.36,0.29,0.76,0.32,1.17c0.03,0.41,0.04,0.79,0.04,1.13v7.98h-1.76v-7.77c0-0.21-0.01-0.45-0.03-0.72      c-0.02-0.27-0.09-0.52-0.2-0.74c-0.11-0.23-0.28-0.42-0.5-0.58c-0.22-0.15-0.53-0.23-0.93-0.23c-0.24,0-0.49,0.04-0.74,0.12      c-0.26,0.09-0.5,0.22-0.73,0.4c-0.22,0.18-0.41,0.42-0.54,0.7c-0.14,0.29-0.21,0.63-0.21,1.04v7.77h-1.77V89.03z"></path>
				<path class="st3" d="M203.71,89.03h1.76v2.02h-1.76V89.03z M203.71,92.77h1.76v11.26h-1.76V92.77z"></path>
				<path class="st3" d="M208.75,92.77h1.68v1.39h0.04c0.06-0.21,0.16-0.42,0.3-0.62c0.15-0.2,0.33-0.38,0.55-0.54      c0.22-0.15,0.46-0.28,0.73-0.38c0.27-0.1,0.55-0.15,0.86-0.15c0.67,0,1.24,0.14,1.7,0.42c0.46,0.28,0.84,0.67,1.14,1.17      c0.3,0.51,0.51,1.11,0.64,1.81c0.13,0.7,0.2,1.47,0.2,2.31c0,0.64-0.06,1.32-0.17,2.03c-0.11,0.72-0.31,1.38-0.58,1.99      c-0.27,0.61-0.65,1.11-1.13,1.51c-0.48,0.4-1.08,0.6-1.81,0.6c-0.51,0-0.97-0.14-1.41-0.42c-0.43-0.28-0.75-0.66-0.95-1.16      h-0.04v4.98h-1.76V92.77z M210.41,98.4c0,0.54,0.03,1.08,0.09,1.61c0.06,0.53,0.16,1,0.33,1.42c0.17,0.42,0.39,0.76,0.69,1.01      c0.29,0.25,0.67,0.38,1.15,0.38c0.4,0,0.74-0.11,1-0.32c0.26-0.21,0.47-0.51,0.62-0.91c0.15-0.39,0.26-0.87,0.32-1.45      c0.06-0.57,0.1-1.23,0.1-1.95c0-0.62-0.03-1.18-0.1-1.7c-0.06-0.52-0.17-0.96-0.32-1.33c-0.15-0.37-0.36-0.66-0.62-0.86      c-0.26-0.2-0.6-0.3-1-0.3c-0.49,0-0.87,0.11-1.17,0.33c-0.29,0.22-0.52,0.52-0.68,0.91c-0.16,0.39-0.27,0.86-0.32,1.4      C210.44,97.16,210.41,97.75,210.41,98.4z"></path>
				<path class="st3" d="M225.49,89.03h4.01c1.16,0,2.09,0.2,2.78,0.59c0.69,0.39,1.22,0.93,1.59,1.61c0.36,0.68,0.6,1.47,0.72,2.38      c0.11,0.91,0.17,1.88,0.17,2.92c0,0.95-0.07,1.88-0.21,2.77c-0.14,0.9-0.4,1.69-0.78,2.39c-0.38,0.7-0.9,1.26-1.55,1.69      c-0.66,0.43-1.5,0.64-2.52,0.64h-4.2V89.03z M227.38,102.51h1.93c0.8,0,1.43-0.19,1.9-0.56c0.47-0.37,0.82-0.84,1.07-1.42      c0.25-0.57,0.4-1.21,0.47-1.92c0.07-0.71,0.11-1.4,0.11-2.07c0-0.73-0.03-1.45-0.09-2.16c-0.06-0.71-0.2-1.36-0.43-1.92      c-0.23-0.57-0.58-1.03-1.06-1.39c-0.48-0.36-1.14-0.54-1.98-0.54h-1.93V102.51z"></path>
				<path class="st3" d="M237.89,89.03h1.76v2.02h-1.76V89.03z M237.89,92.77h1.76v11.26h-1.76V92.77z"></path>
				<path class="st3" d="M243.45,94.15h-1.64v-1.39h1.64v-1.32c0-0.85,0.19-1.5,0.58-1.93c0.38-0.43,1-0.65,1.86-0.65h1.28v1.51      h-0.82c-0.38,0-0.66,0.08-0.85,0.24c-0.19,0.16-0.29,0.44-0.29,0.83v1.32h1.93v1.39h-1.93v9.87h-1.76V94.15z"></path>
				<path class="st3" d="M249.75,94.15h-1.64v-1.39h1.64v-1.32c0-0.85,0.19-1.5,0.58-1.93c0.39-0.43,1-0.65,1.86-0.65h1.28v1.51      h-0.82c-0.38,0-0.66,0.08-0.85,0.24c-0.19,0.16-0.28,0.44-0.28,0.83v1.32h1.93v1.39h-1.93v9.87h-1.77V94.15z"></path>
				<path class="st3" d="M257.04,98.61c0,0.43,0.01,0.9,0.03,1.4c0.02,0.51,0.1,0.97,0.24,1.41c0.13,0.43,0.34,0.79,0.63,1.08      c0.28,0.29,0.69,0.43,1.22,0.43c0.41,0,0.74-0.1,0.98-0.28c0.25-0.19,0.44-0.42,0.57-0.7c0.13-0.27,0.22-0.56,0.26-0.86      c0.04-0.3,0.06-0.56,0.06-0.77h1.81c0,0.3-0.05,0.67-0.16,1.13c-0.11,0.45-0.3,0.9-0.58,1.32c-0.28,0.43-0.66,0.79-1.16,1.09      c-0.49,0.3-1.12,0.45-1.89,0.45c-1.39,0-2.38-0.48-2.99-1.43c-0.61-0.95-0.91-2.4-0.91-4.35c0-0.7,0.05-1.41,0.14-2.13      c0.09-0.72,0.28-1.37,0.56-1.95c0.29-0.58,0.7-1.06,1.22-1.43c0.53-0.37,1.22-0.55,2.09-0.55c0.86,0,1.54,0.17,2.04,0.5      c0.51,0.34,0.88,0.77,1.14,1.29c0.25,0.53,0.41,1.11,0.48,1.75c0.07,0.65,0.11,1.27,0.11,1.87v0.72H257.04z M261.03,97.22v-0.61      c0-0.31-0.03-0.63-0.08-0.96c-0.06-0.33-0.15-0.63-0.3-0.89c-0.14-0.27-0.34-0.48-0.58-0.65c-0.25-0.17-0.56-0.25-0.95-0.25      c-0.45,0-0.81,0.12-1.08,0.37c-0.27,0.25-0.47,0.53-0.61,0.85c-0.13,0.33-0.22,0.65-0.27,0.98s-0.06,0.58-0.06,0.74v0.42H261.03      z"></path>
				<path class="st3" d="M265.72,92.77h1.77v1.68h0.04c0.12-0.27,0.26-0.52,0.41-0.75c0.15-0.24,0.32-0.45,0.52-0.63      c0.2-0.18,0.42-0.32,0.66-0.43c0.24-0.11,0.53-0.16,0.85-0.16c0.35,0,0.61,0.04,0.78,0.12v1.72c-0.09-0.01-0.19-0.03-0.32-0.05      c-0.13-0.02-0.34-0.03-0.62-0.03c-0.22,0-0.47,0.05-0.74,0.16c-0.27,0.11-0.52,0.27-0.74,0.49c-0.23,0.22-0.43,0.49-0.59,0.83      c-0.16,0.34-0.24,0.74-0.24,1.2v7.12h-1.77V92.77z"></path>
				<path class="st3" d="M274.31,98.61c0,0.43,0.01,0.9,0.03,1.4c0.02,0.51,0.1,0.97,0.24,1.41c0.13,0.43,0.34,0.79,0.63,1.08      c0.28,0.29,0.69,0.43,1.22,0.43c0.41,0,0.74-0.1,0.98-0.28c0.25-0.19,0.44-0.42,0.57-0.7c0.13-0.27,0.22-0.56,0.26-0.86      c0.04-0.3,0.06-0.56,0.06-0.77h1.81c0,0.3-0.05,0.67-0.16,1.13c-0.11,0.45-0.3,0.9-0.58,1.32c-0.28,0.43-0.66,0.79-1.16,1.09      c-0.49,0.3-1.12,0.45-1.89,0.45c-1.39,0-2.38-0.48-2.99-1.43c-0.61-0.95-0.91-2.4-0.91-4.35c0-0.7,0.05-1.41,0.14-2.13      c0.09-0.72,0.28-1.37,0.56-1.95c0.29-0.58,0.7-1.06,1.22-1.43c0.53-0.37,1.22-0.55,2.09-0.55c0.86,0,1.54,0.17,2.04,0.5      c0.51,0.34,0.88,0.77,1.14,1.29c0.25,0.53,0.41,1.11,0.48,1.75c0.07,0.65,0.11,1.27,0.11,1.87v0.72H274.31z M278.3,97.22v-0.61      c0-0.31-0.03-0.63-0.08-0.96c-0.06-0.33-0.15-0.63-0.3-0.89c-0.14-0.27-0.34-0.48-0.58-0.65c-0.25-0.17-0.56-0.25-0.95-0.25      c-0.45,0-0.81,0.12-1.08,0.37c-0.27,0.25-0.47,0.53-0.61,0.85c-0.13,0.33-0.22,0.65-0.27,0.98c-0.04,0.33-0.06,0.58-0.06,0.74      v0.42H278.3z"></path>
				<path class="st3" d="M282.98,92.77h1.68v1.33h0.04c0.24-0.52,0.61-0.92,1.13-1.2c0.52-0.28,1.05-0.42,1.6-0.42      c0.74,0,1.31,0.12,1.71,0.37c0.4,0.24,0.69,0.55,0.88,0.91c0.19,0.36,0.3,0.76,0.33,1.17c0.03,0.41,0.04,0.79,0.04,1.13v7.98      h-1.77v-7.77c0-0.21-0.01-0.45-0.03-0.72c-0.02-0.27-0.09-0.52-0.2-0.74c-0.11-0.23-0.28-0.42-0.51-0.58      c-0.22-0.15-0.53-0.23-0.92-0.23c-0.24,0-0.49,0.04-0.74,0.12c-0.26,0.09-0.5,0.22-0.73,0.4c-0.23,0.18-0.41,0.42-0.55,0.7      c-0.14,0.29-0.21,0.63-0.21,1.04v7.77h-1.76V92.77z"></path>
				<path class="st3" d="M294.1,89.49h1.76v3.28h1.96v1.39h-1.96v7.22c0,0.45,0.08,0.77,0.23,0.97s0.46,0.29,0.92,0.29      c0.2,0,0.35-0.01,0.46-0.02c0.11-0.01,0.22-0.03,0.32-0.04v1.45c-0.11,0.03-0.29,0.06-0.53,0.08c-0.24,0.03-0.54,0.04-0.9,0.04      c-0.46,0-0.84-0.05-1.14-0.13c-0.29-0.09-0.53-0.23-0.69-0.42c-0.17-0.19-0.28-0.42-0.34-0.71c-0.07-0.28-0.1-0.6-0.1-0.96      v-7.77h-1.64v-1.39h1.64V89.49z"></path>
				<path class="st3" d="M299.98,89.03h1.77v2.02h-1.77V89.03z M299.98,92.77h1.77v11.26h-1.77V92.77z"></path>
				<path class="st3" d="M304.74,96.17c0-1.27,0.3-2.21,0.88-2.8c0.59-0.6,1.55-0.89,2.9-0.89c0.85,0,1.51,0.11,1.98,0.33      c0.46,0.22,0.8,0.51,1.02,0.84c0.22,0.34,0.34,0.69,0.38,1.06c0.04,0.37,0.05,0.71,0.05,1v6.28c0,0.24,0.02,0.45,0.06,0.63      c0.04,0.18,0.2,0.27,0.49,0.27c0.11,0,0.2-0.01,0.26-0.03c0.06-0.02,0.11-0.05,0.16-0.08v1.26c-0.07,0.01-0.2,0.04-0.4,0.06      c-0.2,0.03-0.41,0.04-0.63,0.04c-0.17,0-0.34-0.01-0.52-0.02c-0.17-0.02-0.34-0.07-0.5-0.16c-0.16-0.09-0.3-0.24-0.4-0.43      c-0.11-0.2-0.16-0.48-0.18-0.84h-0.04c-0.28,0.5-0.67,0.9-1.17,1.18c-0.5,0.29-1.01,0.43-1.55,0.43c-1.05,0-1.83-0.29-2.32-0.88      c-0.5-0.59-0.74-1.39-0.74-2.4c0-0.8,0.17-1.46,0.52-1.99c0.34-0.53,0.88-0.9,1.61-1.12l2.37-0.72c0.32-0.1,0.57-0.2,0.75-0.31      c0.17-0.11,0.3-0.22,0.38-0.34c0.08-0.13,0.12-0.27,0.13-0.44c0.02-0.17,0.02-0.37,0.02-0.61c0-1.11-0.6-1.66-1.81-1.66      c-0.49,0-0.86,0.1-1.12,0.29c-0.26,0.19-0.45,0.41-0.57,0.66c-0.12,0.25-0.19,0.5-0.21,0.75c-0.02,0.25-0.03,0.42-0.03,0.52      v0.11H304.74z M310.19,97.89c-0.17,0.17-0.38,0.31-0.63,0.42c-0.26,0.11-0.53,0.21-0.81,0.31c-0.29,0.09-0.56,0.18-0.83,0.27      c-0.27,0.09-0.5,0.2-0.7,0.32c-0.28,0.18-0.49,0.4-0.63,0.66c-0.14,0.26-0.22,0.63-0.22,1.12c0,0.59,0.11,1.06,0.34,1.41      c0.23,0.35,0.64,0.53,1.24,0.53c0.29,0,0.57-0.06,0.84-0.17c0.27-0.11,0.51-0.27,0.72-0.46c0.21-0.2,0.37-0.42,0.5-0.68      s0.19-0.54,0.19-0.83V97.89z"></path>
				<path class="st3" d="M315.94,89.49h1.77v3.28h1.95v1.39h-1.95v7.22c0,0.45,0.08,0.77,0.23,0.97c0.15,0.2,0.46,0.29,0.93,0.29      c0.2,0,0.35-0.01,0.46-0.02c0.11-0.01,0.22-0.03,0.32-0.04v1.45c-0.11,0.03-0.29,0.06-0.53,0.08c-0.24,0.03-0.54,0.04-0.91,0.04      c-0.46,0-0.84-0.05-1.13-0.13c-0.3-0.09-0.53-0.23-0.69-0.42c-0.17-0.19-0.29-0.42-0.35-0.71c-0.06-0.28-0.1-0.6-0.1-0.96v-7.77      h-1.64v-1.39h1.64V89.49z"></path>
				<path class="st3" d="M321.17,98.4c0-0.8,0.06-1.56,0.18-2.27c0.12-0.71,0.33-1.34,0.63-1.88c0.3-0.54,0.72-0.97,1.24-1.29      c0.53-0.32,1.19-0.48,2.01-0.48c0.81,0,1.48,0.16,2.01,0.48c0.53,0.32,0.94,0.75,1.24,1.29c0.3,0.54,0.51,1.17,0.63,1.88      c0.12,0.72,0.18,1.47,0.18,2.27c0,0.8-0.06,1.55-0.18,2.27c-0.12,0.71-0.33,1.34-0.64,1.88c-0.31,0.54-0.72,0.97-1.24,1.29      s-1.18,0.48-2,0.48c-0.81,0-1.48-0.16-2.01-0.48s-0.94-0.75-1.24-1.29c-0.3-0.54-0.51-1.17-0.63-1.88      C321.23,99.95,321.17,99.2,321.17,98.4z M325.18,102.93c0.46,0,0.83-0.12,1.11-0.37c0.29-0.25,0.52-0.57,0.68-0.99      c0.16-0.41,0.27-0.89,0.33-1.44c0.06-0.55,0.08-1.13,0.08-1.74c0-0.6-0.03-1.18-0.08-1.73c-0.06-0.55-0.16-1.04-0.32-1.45      c-0.16-0.41-0.38-0.74-0.67-0.99c-0.29-0.24-0.67-0.37-1.14-0.37c-0.44,0-0.79,0.12-1.07,0.37c-0.28,0.25-0.49,0.57-0.65,0.99      c-0.16,0.41-0.26,0.9-0.32,1.45c-0.06,0.55-0.08,1.13-0.08,1.73c0,0.61,0.03,1.19,0.08,1.74c0.06,0.54,0.16,1.02,0.31,1.44      c0.15,0.41,0.37,0.74,0.65,0.99C324.39,102.81,324.74,102.93,325.18,102.93z"></path>
				<path class="st3" d="M331.9,92.77h1.77v1.68h0.04c0.12-0.27,0.26-0.52,0.41-0.75c0.15-0.24,0.32-0.45,0.52-0.63      c0.2-0.18,0.42-0.32,0.66-0.43c0.24-0.11,0.53-0.16,0.85-0.16c0.35,0,0.61,0.04,0.78,0.12v1.72c-0.09-0.01-0.19-0.03-0.33-0.05      c-0.13-0.02-0.34-0.03-0.62-0.03c-0.22,0-0.47,0.05-0.74,0.16c-0.27,0.11-0.52,0.27-0.75,0.49c-0.23,0.22-0.43,0.49-0.59,0.83      c-0.16,0.34-0.24,0.74-0.24,1.2v7.12h-1.77V92.77z"></path>
				<path class="st3" d="M343.82,96.06c0-0.71-0.11-1.26-0.35-1.64c-0.23-0.38-0.67-0.57-1.31-0.57c-0.14,0-0.32,0.02-0.53,0.05      c-0.21,0.04-0.41,0.11-0.6,0.22c-0.19,0.11-0.35,0.29-0.5,0.52c-0.14,0.23-0.21,0.54-0.21,0.94c0,0.33,0.08,0.61,0.24,0.82      c0.16,0.21,0.37,0.39,0.63,0.54s0.55,0.27,0.88,0.37c0.33,0.1,0.67,0.2,1.02,0.32c0.34,0.11,0.67,0.23,1,0.37      c0.33,0.13,0.62,0.32,0.88,0.54c0.26,0.23,0.47,0.53,0.63,0.88c0.16,0.36,0.24,0.82,0.24,1.38c0,0.59-0.09,1.1-0.28,1.55      c-0.18,0.44-0.43,0.81-0.75,1.1c-0.32,0.29-0.71,0.51-1.16,0.66c-0.45,0.15-0.93,0.22-1.45,0.22c-0.95,0-1.69-0.15-2.22-0.46      c-0.53-0.31-0.91-0.68-1.16-1.1c-0.25-0.43-0.39-0.87-0.43-1.31c-0.04-0.45-0.06-0.82-0.06-1.12h1.76      c0,0.34,0.03,0.66,0.09,0.98c0.06,0.32,0.16,0.59,0.32,0.84s0.37,0.44,0.64,0.58s0.63,0.21,1.06,0.21      c0.14,0,0.32-0.02,0.53-0.06c0.21-0.04,0.42-0.13,0.62-0.27c0.2-0.14,0.37-0.33,0.52-0.57c0.14-0.24,0.21-0.56,0.21-0.97      c0-0.38-0.08-0.69-0.24-0.93c-0.16-0.25-0.37-0.45-0.63-0.61c-0.26-0.16-0.55-0.3-0.88-0.41c-0.33-0.11-0.66-0.22-1-0.33      c-0.34-0.11-0.67-0.24-1.01-0.37c-0.33-0.13-0.63-0.31-0.89-0.54c-0.26-0.23-0.47-0.52-0.63-0.88      c-0.16-0.36-0.24-0.83-0.24-1.41c0-0.52,0.1-0.97,0.28-1.37c0.19-0.39,0.45-0.72,0.78-0.98c0.33-0.26,0.71-0.45,1.15-0.58      c0.43-0.12,0.9-0.19,1.39-0.19c0.81,0,1.45,0.12,1.91,0.38c0.46,0.25,0.8,0.56,1.03,0.93c0.22,0.36,0.36,0.75,0.41,1.17      c0.05,0.41,0.07,0.79,0.07,1.12H343.82z"></path>
			</g>
		</g>
		<g>
			<g>
				<path class="st4" d="M145.23,8.56h24.2c2.79,0,5.41,0.33,7.86,1c2.44,0.67,4.57,1.71,6.39,3.14c1.82,1.43,3.25,3.3,4.29,5.61      c1.05,2.3,1.57,5.1,1.57,8.38c0,9.01-3.67,14.67-11,16.97v0.21c2.02,0.35,3.87,0.94,5.55,1.78c1.68,0.84,3.09,2.01,4.24,3.51      c1.15,1.5,2.04,3.39,2.67,5.66c0.63,2.27,0.94,4.98,0.94,8.12c0,3.14-0.54,5.97-1.62,8.48c-1.08,2.51-2.62,4.66-4.61,6.44      c-1.99,1.78-4.42,3.14-7.28,4.09c-2.87,0.94-6.04,1.41-9.53,1.41h-23.68V8.56z M166.6,40.1c3.63,0,6.37-1.08,8.23-3.25      c1.85-2.17,2.78-5.03,2.78-8.59c0-2.24-0.31-4.05-0.94-5.45c-0.63-1.39-1.49-2.48-2.57-3.25c-1.08-0.77-2.36-1.29-3.82-1.57      c-1.47-0.28-3.04-0.42-4.71-0.42h-8.38V40.1H166.6z M169.01,74.36c3.56,0,6.29-1.1,8.17-3.3c1.89-2.2,2.83-5.5,2.83-9.9      c0-4.05-1.07-7.18-3.2-9.38c-2.13-2.2-4.98-3.3-8.54-3.3h-11.11v25.88H169.01z"></path>
				<path class="st4" d="M214.17,54.14L194.89,8.56h13.31l12.57,32.27l12.89-32.27h12.47l-20.01,45.58v29.23h-11.94V54.14z"></path>
				<path class="st4" d="M250.53,8.56h11.94v64.75h28.92v10.06h-40.86V8.56z"></path>
				<path class="st4" d="M298.41,8.56h21.27c5.87,0,10.55,0.91,14.04,2.72c3.49,1.82,6.15,4.39,7.96,7.7      c1.82,3.32,3,7.27,3.56,11.84c0.56,4.58,0.84,9.62,0.84,15.14s-0.28,10.57-0.84,15.14c-0.56,4.58-1.75,8.52-3.56,11.84      c-1.82,3.32-4.47,5.89-7.96,7.7c-3.49,1.82-8.17,2.72-14.04,2.72h-21.27V8.56z M310.35,74.36h9.85c2.44,0,4.56-0.45,6.34-1.36      c1.78-0.91,3.23-2.45,4.35-4.61c1.12-2.16,1.94-5.08,2.46-8.75c0.52-3.67,0.79-8.22,0.79-13.67c0-5.24-0.25-9.67-0.73-13.31      c-0.49-3.63-1.28-6.57-2.36-8.8c-1.08-2.24-2.51-3.84-4.3-4.82c-1.78-0.98-3.96-1.46-6.55-1.46h-9.85V74.36z"></path>
			</g>
			<g>
				<path class="st5" d="M93.84,62.99c-3.35,0-6,0-8.36,0c0.24,1.45,0.66,2.79,0.64,4.11c-0.03,1.82-0.36,3.64-0.66,5.44      c-0.14,0.87-0.49,1.71-0.86,2.94c-2.73-5.34-5.28-10.2-7.69-15.14c-0.7-1.44-1.53-2.04-3.12-1.72      c-4.68,0.94-9.32,2.03-13.5,4.42C53.05,67.2,49.25,73.5,48.84,81.85c-0.06,1.22,0.3,1.85,1.61,1.74c0.61-0.05,1.22,0,1.83,0      c24.59,0,49.19,0,73.78,0c0.73,0,1.47-0.03,2.2,0c1.07,0.03,1.49-0.44,1.47-1.53c-0.09-5.32-1.68-10.12-5.2-14.11      c-4.39-4.98-10.28-7.35-16.59-8.64c-6.09-1.24-4.51-1.85-7.36,3.48c-2.2,4.13-4.33,8.29-6.83,13.08      c-0.45-3.52-0.63-6.34-1.24-9.05C92.19,65.28,92.58,64.24,93.84,62.99z M51.35,54.08c5.47,0,10.46,0.02,15.45-0.01      c1.31-0.01,1.1-1.06,1.1-1.87c0.01-5.87,0.16-11.75-0.08-17.61c-0.15-3.51-0.65-7.07-1.5-10.47c-1.25-4.99-3.86-9.3-8.36-12.05      C50.7,7.62,42.9,7.22,35.12,10.29c-8.28,3.27-11.65,10.28-12.82,18.6c-1.08,7.66-0.51,15.38-0.61,23.07      c-0.02,2.04,0.06,2.09,2,2.12c2.94,0.04,5.87,0.04,8.81,0c1.86-0.03,3.75,0.19,5.86-0.23c-4.65-5.58-6.81-11.78-7.55-18.76      c6.49-0.57,12.38-2.29,16.81-7.45c2.92,3.1,6.28,5.22,10.23,6.35c0.76,0.22,1.23,0.66,1.08,1.61      c-0.85,5.21-2.26,10.24-5.02,14.79C53.24,51.52,52.42,52.56,51.35,54.08z M88.09,8.51c-6.08,0.16-11.7,3.54-14.88,10.65      c-1.21,2.71-1.75,5.57-1.73,8.55c0.01,1.17,0.01,2.22-1.03,3.3c-1.92,1.99-1.59,5.2,0.72,6.68c1.31,0.84,1.71,1.88,2.18,3.14      c1.87,5.04,4.74,9.35,9.31,12.39c4.34,2.88,8.65,2.89,13.01,0.07c4.46-2.89,7.58-6.88,9.66-11.7c0.67-1.56,1.18-3.04,2.6-4.25      c1.69-1.42,1.96-4.38,0.59-6.03c-1.14-1.37-1.19-2.87-1.48-4.39c-0.37-1.91-0.49-3.88-0.98-5.76      C103.98,13.26,97.82,8.55,88.09,8.51z M35.03,59.98c-2.31,0.33-3.87,0.5-5.42,0.78c-4.85,0.87-9.49,2.34-13.59,5.15      C10.6,69.64,7.93,74.9,7.63,81.4c-0.1,2.12-0.04,2.13,2.23,2.19c0.24,0.01,0.49,0,0.74,0c9.43,0,18.85,0,28.28-0.01      c0.82,0,1.63-0.11,2.98-0.22c-3.17-3.18-6.04-6-8.85-8.87c-1.09-1.12-2.05-2.35-3.07-3.54c0.84-1.03,1.68-2.05,2.51-3.09      c0.06-0.07,0.02-0.21,0.04-0.49c-1.31-0.1-2.62-0.2-4.45-0.33C30.35,64.72,32.4,62.64,35.03,59.98z"></path>
				<path class="st6" d="M93.84,62.99c-1.26,1.25-1.65,2.29-1.31,3.83c0.61,2.72,0.78,5.53,1.24,9.05c2.5-4.79,4.63-8.96,6.83-13.08      c2.85-5.34,1.27-4.73,7.36-3.48c6.31,1.29,12.2,3.66,16.59,8.64c3.52,4,5.11,8.79,5.2,14.11c0.02,1.1-0.4,1.57-1.47,1.53      c-0.73-0.02-1.47,0-2.2,0c-24.59,0-49.19,0-73.78,0c-0.61,0-1.23-0.04-1.83,0c-1.31,0.11-1.67-0.52-1.61-1.74      c0.41-8.36,4.21-14.66,11.45-18.82c4.18-2.4,8.82-3.48,13.5-4.42c1.59-0.32,2.42,0.28,3.12,1.72c2.41,4.93,4.96,9.8,7.69,15.14      c0.36-1.23,0.71-2.07,0.86-2.94c0.3-1.81,0.63-3.63,0.66-5.44c0.03-1.32-0.39-2.66-0.64-4.11      C87.83,62.99,90.49,62.99,93.84,62.99z"></path>
				<path class="st7" d="M51.35,54.08c1.06-1.51,1.88-2.55,2.56-3.68c2.76-4.56,4.17-9.58,5.02-14.79c0.15-0.95-0.32-1.39-1.08-1.61      c-3.95-1.13-7.31-3.25-10.23-6.35c-4.44,5.16-10.32,6.88-16.81,7.45c0.73,6.98,2.89,13.17,7.55,18.76      c-2.12,0.42-4,0.2-5.86,0.23c-2.93,0.04-5.87,0.04-8.81,0c-1.94-0.03-2.02-0.07-2-2.12c0.09-7.69-0.47-15.41,0.61-23.07      c1.17-8.32,4.54-15.34,12.82-18.6c7.78-3.07,15.58-2.67,22.85,1.77c4.5,2.75,7.12,7.06,8.36,12.05      c0.85,3.41,1.35,6.96,1.5,10.47c0.24,5.86,0.09,11.74,0.08,17.61c0,0.81,0.21,1.86-1.1,1.87      C61.81,54.09,56.82,54.08,51.35,54.08z"></path>
				<path class="st6" d="M88.09,8.51c9.72,0.04,15.88,4.75,17.96,12.63c0.49,1.88,0.62,3.85,0.98,5.76      c0.29,1.52,0.34,3.02,1.48,4.39c1.37,1.65,1.1,4.61-0.59,6.03c-1.43,1.2-1.93,2.69-2.6,4.25c-2.07,4.82-5.2,8.81-9.66,11.7      c-4.37,2.83-8.68,2.81-13.01-0.07c-4.57-3.03-7.44-7.34-9.31-12.39c-0.47-1.26-0.87-2.3-2.18-3.14      c-2.31-1.48-2.64-4.69-0.72-6.68c1.04-1.08,1.04-2.13,1.03-3.3c-0.02-2.98,0.52-5.84,1.73-8.55      C76.39,12.05,82.01,8.68,88.09,8.51z"></path>
				<path class="st7" d="M35.03,59.98c-2.63,2.66-4.68,4.74-6.99,7.07c1.82,0.14,3.14,0.24,4.45,0.33      c-0.02,0.28,0.01,0.42-0.04,0.49c-0.83,1.03-1.67,2.06-2.51,3.09c1.02,1.18,1.98,2.42,3.07,3.54c2.81,2.88,5.67,5.7,8.85,8.87      c-1.34,0.1-2.16,0.22-2.98,0.22C29.45,83.6,20.02,83.6,10.6,83.6c-0.25,0-0.49,0.01-0.74,0c-2.26-0.07-2.32-0.07-2.23-2.19      c0.3-6.5,2.96-11.76,8.39-15.49c4.11-2.82,8.75-4.28,13.59-5.15C31.16,60.48,32.72,60.31,35.03,59.98z"></path>
			</g>
		</g>
	</g>
	<g>
		<path class="st8" d="M11.57,116.8c-1.36,2.29-1.93,4.71-1.93,7.61c0,2.53,0.58,5.49,1.93,7.61h-1.31    c-1.36-1.76-2.46-4.51-2.46-7.61c0-3.1,1.14-5.85,2.49-7.61H11.57z"></path>
		<path class="st8" d="M16.04,116.8h2.48l3.19,12.1h-2.02l-0.75-2.97H15.4l-0.78,2.97H12.6L16.04,116.8z M18.62,124.39l-1.39-5.97    h-0.03l-1.44,5.97H18.62z"></path>
		<path class="st8" d="M28.28,127.83h-0.05c-0.46,0.81-1.32,1.31-2.34,1.31c-1.36,0-2.27-0.63-2.27-2.98v-6.37h1.83v6.54    c0,1.02,0.44,1.36,1.24,1.36c0.8,0,1.49-0.51,1.49-1.53v-6.37h1.83v9.12h-1.73V127.83z"></path>
		<path class="st8" d="M32.14,119.78h1.25v-2.59h1.83v2.59h1.49v1.36h-1.49v5.44c0,0.73,0.2,0.97,0.83,0.97    c0.27,0,0.49-0.02,0.66-0.05v1.36c-0.39,0.1-0.88,0.15-1.48,0.15c-1.22,0-1.85-0.36-1.85-2.2v-5.66h-1.25V119.78z"></path>
		<path class="st8" d="M38.85,116.8h1.83v3.97l0.05,0.03c0.53-0.8,1.29-1.25,2.24-1.25c1.39,0,2.27,0.63,2.27,2.48v6.88h-1.83v-6.26    c0-1.2-0.34-1.64-1.27-1.64c-0.75,0-1.46,0.58-1.46,1.78v6.12h-1.83V116.8z"></path>
		<path class="st8" d="M47.84,124.34c0-2.85,0.75-4.8,3.39-4.8s3.41,1.95,3.41,4.8c0,2.85-0.88,4.8-3.41,4.8    C48.72,129.14,47.84,127.19,47.84,124.34z M51.23,127.78c1.34,0,1.58-1.12,1.58-3.44c0-2.02-0.24-3.44-1.58-3.44    c-1.31,0-1.56,1.42-1.56,3.44C49.67,126.66,49.92,127.78,51.23,127.78z"></path>
		<path class="st8" d="M57.23,119.78h1.83v1.42h0.03c0.41-1.02,1.08-1.66,2.12-1.66c0.19,0,0.34,0.02,0.44,0.07v1.86    c-0.14-0.05-0.44-0.1-0.76-0.1c-0.83,0-1.83,0.37-1.83,2.07v5.46h-1.83V119.78z"></path>
		<path class="st8" d="M63.84,116.66h1.83v1.83h-1.83V116.66z M63.84,119.78h1.83v9.12h-1.83V119.78z"></path>
		<path class="st8" d="M68.24,127.48l3.98-6.15h-3.75v-1.54h5.81v1.51l-3.83,6.07h3.83v1.54h-6.05V127.48z"></path>
		<path class="st8" d="M78.36,124.58v0.53c0,1.22,0.15,2.78,1.53,2.78c1.31,0,1.46-1.48,1.46-2.03h1.73c0,2.05-1.22,3.29-3.2,3.29    c-1.49,0-3.34-0.44-3.34-4.66c0-2.39,0.53-4.93,3.37-4.93c2.54,0,3.22,1.54,3.22,4.07v0.97H78.36z M81.29,123.32v-0.49    c0-1.15-0.37-2.03-1.41-2.03c-1.15,0-1.53,1.15-1.53,2.34v0.19H81.29z"></path>
		<path class="st8" d="M90.48,127.78h-0.03c-0.22,0.59-0.71,1.36-2,1.36c-2.12,0-2.98-1.8-2.98-4.92c0-4.05,1.42-4.68,2.81-4.68    c1,0,1.73,0.49,2.07,1.31h0.03v-4.05h1.83v12.1h-1.73V127.78z M88.82,121c-1.03,0-1.42,0.85-1.42,3.31c0,2.07,0.25,3.37,1.54,3.37    c1.25,0,1.54-1.27,1.54-3.24C90.48,122.25,90.24,121,88.82,121z"></path>
		<path class="st8" d="M100.31,116.8h1.93v10.48h4.68v1.63h-6.61V116.8z"></path>
		<path class="st8" d="M109.21,116.66h1.83v1.83h-1.83V116.66z M109.21,119.78h1.83v9.12h-1.83V119.78z"></path>
		<path class="st8" d="M120.22,125.58c-0.14,2.19-0.85,3.56-3.12,3.56c-2.64,0-3.39-1.95-3.39-4.8c0-2.85,0.75-4.8,3.39-4.8    c2.71-0.05,3.14,2.15,3.14,3.27h-1.83c0-0.85-0.22-1.97-1.31-1.92c-1.31,0-1.56,1.42-1.56,3.44c0,2.02,0.25,3.44,1.56,3.44    c1.02,0.02,1.39-0.83,1.39-2.2H120.22z"></path>
		<path class="st8" d="M124.36,124.58v0.53c0,1.22,0.15,2.78,1.53,2.78c1.31,0,1.46-1.48,1.46-2.03h1.73c0,2.05-1.22,3.29-3.2,3.29    c-1.49,0-3.34-0.44-3.34-4.66c0-2.39,0.53-4.93,3.37-4.93c2.54,0,3.22,1.54,3.22,4.07v0.97H124.36z M127.29,123.32v-0.49    c0-1.15-0.37-2.03-1.41-2.03c-1.15,0-1.53,1.15-1.53,2.34v0.19H127.29z"></path>
		<path class="st8" d="M131.82,119.78h1.73v1.07h0.05c0.46-0.81,1.32-1.31,2.34-1.31c1.39,0,2.27,0.63,2.27,2.48v6.88h-1.83v-6.26    c0-1.22-0.32-1.64-1.27-1.64c-0.75,0-1.46,0.56-1.46,1.78v6.12h-1.83V119.78z"></path>
		<path class="st8" d="M145.09,122.44v-0.24c0-0.73-0.25-1.41-1.2-1.41c-0.73,0-1.31,0.32-1.31,1.19c0,0.73,0.32,1,1.29,1.34    l1.17,0.41c1.36,0.46,1.98,1.19,1.98,2.63c0,1.95-1.44,2.78-3.27,2.78c-2.31,0-3-1.07-3-2.83v-0.34h1.63v0.29    c0,1.07,0.36,1.63,1.42,1.63c1.02,0,1.49-0.51,1.49-1.34c0-0.66-0.34-1.12-1-1.34l-1.49-0.53c-1.37-0.46-1.95-1.17-1.95-2.63    c0-1.71,1.22-2.51,3.12-2.51c2.32,0,2.85,1.36,2.85,2.49v0.41H145.09z"></path>
		<path class="st8" d="M151.14,124.58v0.53c0,1.22,0.15,2.78,1.53,2.78c1.31,0,1.46-1.48,1.46-2.03h1.73c0,2.05-1.22,3.29-3.2,3.29    c-1.49,0-3.34-0.44-3.34-4.66c0-2.39,0.53-4.93,3.37-4.93c2.54,0,3.22,1.54,3.22,4.07v0.97H151.14z M154.07,123.32v-0.49    c0-1.15-0.37-2.03-1.41-2.03c-1.15,0-1.53,1.15-1.53,2.34v0.19H154.07z"></path>
		<path class="st8" d="M160.17,124.58v0.53c0,1.22,0.15,2.78,1.53,2.78c1.31,0,1.46-1.48,1.46-2.03h1.73c0,2.05-1.22,3.29-3.2,3.29    c-1.49,0-3.34-0.44-3.34-4.66c0-2.39,0.53-4.93,3.37-4.93c2.54,0,3.22,1.54,3.22,4.07v0.97H160.17z M163.1,123.32v-0.49    c0-1.15-0.37-2.03-1.41-2.03c-1.15,0-1.53,1.15-1.53,2.34v0.19H163.1z"></path>
		<path class="st8" d="M173.44,121.14h-1.27v-1.36h1.27v-0.85c0-1.71,0.83-2.27,2.32-2.27c0.39,0,0.73,0.02,1,0.05v1.41h-0.51    c-0.68,0-0.98,0.25-0.98,0.86v0.8h1.49v1.36h-1.49v7.76h-1.83V121.14z"></path>
		<path class="st8" d="M178.42,124.34c0-2.85,0.75-4.8,3.39-4.8s3.41,1.95,3.41,4.8c0,2.85-0.88,4.8-3.41,4.8    C179.31,129.14,178.42,127.19,178.42,124.34z M181.82,127.78c1.34,0,1.58-1.12,1.58-3.44c0-2.02-0.24-3.44-1.58-3.44    c-1.31,0-1.56,1.42-1.56,3.44C180.26,126.66,180.51,127.78,181.82,127.78z"></path>
		<path class="st8" d="M187.81,119.78h1.83v1.42h0.03c0.41-1.02,1.08-1.66,2.12-1.66c0.19,0,0.34,0.02,0.44,0.07v1.86    c-0.14-0.05-0.44-0.1-0.76-0.1c-0.83,0-1.83,0.37-1.83,2.07v5.46h-1.83V119.78z"></path>
		<path class="st8" d="M207.15,124.56v0.25c0,2.19-0.9,4.32-3.73,4.32c-3.05,0-4-1.97-4-6.29c0-4.32,0.95-6.29,4.02-6.29    c3.44,0,3.64,2.53,3.64,3.8v0.22h-1.93v-0.2c0-1.14-0.34-2.41-1.73-2.36c-1.44,0-2.07,0.88-2.07,4.78c0,3.9,0.63,4.88,2.07,4.88    c1.63,0,1.8-1.78,1.8-2.92v-0.2H207.15z"></path>
		<path class="st8" d="M209.58,119.78h1.83v1.42h0.03c0.41-1.02,1.08-1.66,2.12-1.66c0.19,0,0.34,0.02,0.44,0.07v1.86    c-0.14-0.05-0.44-0.1-0.76-0.1c-0.83,0-1.83,0.37-1.83,2.07v5.46h-1.83V119.78z"></path>
		<path class="st8" d="M220.76,127.83h-0.05c-0.46,0.81-1.32,1.31-2.34,1.31c-1.36,0-2.27-0.63-2.27-2.98v-6.37h1.83v6.54    c0,1.02,0.44,1.36,1.24,1.36c0.8,0,1.49-0.51,1.49-1.53v-6.37h1.83v9.12h-1.73V127.83z"></path>
		<path class="st8" d="M231.59,125.58c-0.14,2.19-0.85,3.56-3.12,3.56c-2.64,0-3.39-1.95-3.39-4.8c0-2.85,0.75-4.8,3.39-4.8    c2.71-0.05,3.14,2.15,3.14,3.27h-1.83c0-0.85-0.22-1.97-1.31-1.92c-1.31,0-1.56,1.42-1.56,3.44c0,2.02,0.25,3.44,1.56,3.44    c1.02,0.02,1.39-0.83,1.39-2.2H231.59z"></path>
		<path class="st8" d="M234.24,116.66h1.83v1.83h-1.83V116.66z M234.24,119.78h1.83v9.12h-1.83V119.78z"></path>
		<path class="st8" d="M245.08,127c0,0.34,0.2,0.64,0.47,0.64c0.14,0,0.24-0.02,0.31-0.05v1.19c-0.22,0.12-0.54,0.22-0.9,0.22    c-0.81,0-1.49-0.32-1.54-1.2h-0.03c-0.49,0.9-1.19,1.34-2.27,1.34c-1.48,0-2.37-0.8-2.37-2.56c0-2.03,0.9-2.46,2.12-2.87    l1.42-0.39c0.66-0.19,1.07-0.37,1.07-1.17c0-0.83-0.29-1.36-1.25-1.36c-1.22,0-1.39,0.86-1.39,1.75h-1.73c0-1.95,0.8-3,3.2-3    c1.61,0,2.9,0.63,2.9,2.24V127z M243.36,124.08c-0.51,0.37-1.48,0.58-2.03,0.85c-0.53,0.25-0.75,0.8-0.75,1.47    c0,0.76,0.37,1.37,1.14,1.37c1.1,0,1.64-0.81,1.64-2.17V124.08z"></path>
		<path class="st8" d="M248.22,116.8h1.83v12.1h-1.83V116.8z"></path>
		<path class="st8" d="M258.23,116.8h1.93v10.48h4.68v1.63h-6.61V116.8z"></path>
		<path class="st8" d="M268.62,124.58v0.53c0,1.22,0.15,2.78,1.53,2.78c1.31,0,1.46-1.48,1.46-2.03h1.73c0,2.05-1.22,3.29-3.2,3.29    c-1.49,0-3.34-0.44-3.34-4.66c0-2.39,0.53-4.93,3.37-4.93c2.54,0,3.22,1.54,3.22,4.07v0.97H268.62z M271.56,123.32v-0.49    c0-1.15-0.37-2.03-1.41-2.03c-1.15,0-1.53,1.15-1.53,2.34v0.19H271.56z"></path>
		<path class="st8" d="M282.07,127c0,0.34,0.2,0.64,0.47,0.64c0.14,0,0.24-0.02,0.31-0.05v1.19c-0.22,0.12-0.54,0.22-0.9,0.22    c-0.81,0-1.49-0.32-1.54-1.2h-0.03c-0.49,0.9-1.19,1.34-2.27,1.34c-1.48,0-2.37-0.8-2.37-2.56c0-2.03,0.9-2.46,2.12-2.87    l1.42-0.39c0.66-0.19,1.07-0.37,1.07-1.17c0-0.83-0.29-1.36-1.25-1.36c-1.22,0-1.39,0.86-1.39,1.75h-1.73c0-1.95,0.8-3,3.2-3    c1.61,0,2.9,0.63,2.9,2.24V127z M280.34,124.08c-0.51,0.37-1.48,0.58-2.03,0.85c-0.53,0.25-0.75,0.8-0.75,1.47    c0,0.76,0.37,1.37,1.14,1.37c1.1,0,1.64-0.81,1.64-2.17V124.08z"></path>
		<path class="st8" d="M285.12,119.78h1.83v1.42h0.03c0.41-1.02,1.08-1.66,2.12-1.66c0.19,0,0.34,0.02,0.44,0.07v1.86    c-0.14-0.05-0.44-0.1-0.76-0.1c-0.83,0-1.83,0.37-1.83,2.07v5.46h-1.83V119.78z"></path>
		<path class="st8" d="M291.81,119.78h1.73v1.07h0.05c0.46-0.81,1.32-1.31,2.34-1.31c1.39,0,2.27,0.63,2.27,2.48v6.88h-1.83v-6.26    c0-1.22-0.32-1.64-1.27-1.64c-0.75,0-1.46,0.56-1.46,1.78v6.12h-1.83V119.78z"></path>
		<path class="st8" d="M301.23,116.66h1.83v1.83h-1.83V116.66z M301.23,119.78h1.83v9.12h-1.83V119.78z"></path>
		<path class="st8" d="M306.1,119.78h1.73v1.07h0.05c0.46-0.81,1.32-1.31,2.34-1.31c1.39,0,2.27,0.63,2.27,2.48v6.88h-1.83v-6.26    c0-1.22-0.32-1.64-1.27-1.64c-0.75,0-1.46,0.56-1.46,1.78v6.12h-1.83V119.78z"></path>
		<path class="st8" d="M317.27,129.68c0,0.56,0.51,1.08,1.32,1.08c0.95,0,1.54-0.64,1.54-1.71v-1.47h-0.03    c-0.34,0.8-1.19,1.25-2.07,1.25c-2.12,0-2.73-2.08-2.73-4.59c0-2,0.31-4.7,2.9-4.7c1.08,0,1.83,0.7,2,1.36h0.03v-1.12h1.73v8.68    c0,2.22-0.95,3.56-3.41,3.56c-2.71,0-3.02-1.59-3.02-2.34H317.27z M318.56,127.37c1.42,0,1.58-1.8,1.58-3.24    c0-1.49-0.19-3.14-1.46-3.14c-1.32,0-1.54,1.36-1.54,3.05C317.13,125.61,317.2,127.37,318.56,127.37z"></path>
		<path class="st8" d="M323.89,132.02c1.36-2.29,1.93-4.71,1.93-7.61c0-2.53-0.58-5.49-1.93-7.61h1.31    c1.36,1.76,2.46,4.51,2.46,7.61c0,3.1-1.14,5.85-2.49,7.61H323.89z"></path>
	</g>
</g>
</svg>