<svg xmlns="http://www.w3.org/2000/svg" viewBox="0 0 196.62 196.62"><defs><style>.cls-1{fill:#fff;stroke:#2c6eb5;stroke-miterlimit:10;stroke-width:3px;}.cls-2{fill:#f4822a;}.cls-3{fill:#fefefe;}</style></defs><g id="Background"><rect class="cls-1" x="1.5" y="1.5" width="193.62" height="193.62"></rect></g><g id="DIAGNOSE"><path d="M83.29,21.87A61.39,61.39,0,1,1,21.85,83,61.45,61.45,0,0,1,83.29,21.87Z" transform="translate(-1.69 -1.69)"></path><path d="M172.79,178.13a5.75,5.75,0,0,1-4.2-1.65Q151.83,159.73,135.1,143a5.45,5.45,0,0,1,.12-7.94,5.53,5.53,0,0,1,7.95.29q14.7,14.64,29.33,29.31c1.4,1.39,2.84,2.75,4.16,4.21a5.23,5.23,0,0,1,1,6A5.38,5.38,0,0,1,172.79,178.13Z" transform="translate(-1.69 -1.69)"></path><path class="cls-2" d="M94.59,100l-19-34.26c-1.35-2.44-2.71-4.86-4.07-7.29a5.46,5.46,0,0,0-5.08-3.08,5.55,5.55,0,0,0-5.08,3.39c-2.93,5.85-5.88,11.7-8.74,17.58a2.08,2.08,0,0,1-2.24,1.37c-5.23-.07-10.46-.06-15.7,0-1.07,0-1.36-.19-1.2-1.33A50.28,50.28,0,0,1,133,76.32c.19,1.3-.29,1.38-1.33,1.37-6.56,0-13.13,0-19.7,0a6.43,6.43,0,0,0-6.12,3.49C102.21,87.39,98.44,93.58,94.59,100Z" transform="translate(-1.69 -1.69)"></path><path class="cls-3" d="M66.76,72.9c3,5.48,5.94,10.69,8.84,15.9Q82.35,101,89.13,113.11c2.69,4.83,7.66,4.9,10.52.16,4.63-7.7,9.27-15.4,13.85-23.13a2.27,2.27,0,0,1,2.31-1.33c5.35.07,10.69.06,16,0,1.12,0,1.33.26,1.17,1.35a50.38,50.38,0,0,1-43.09,42.89c-26.7,3.79-52.18-15.18-56.26-41.87-.36-2.34-.36-2.34,2-2.34,6.34,0,12.68,0,19,0a6,6,0,0,0,6-3.7C62.58,81.14,64.62,77.17,66.76,72.9Z" transform="translate(-1.69 -1.69)"></path><path class="cls-3" d="M33.55,88.56" transform="translate(-1.69 -1.69)"></path></g></svg>