<svg xmlns="http://www.w3.org/2000/svg" viewBox="0 0 196.62 196.62"><defs><style>.cls-1{fill:#fff;stroke:#2c6eb5;stroke-miterlimit:10;stroke-width:3px;}.cls-2{fill:#f4822a;}.cls-3{fill:#fefefe;}</style></defs><g id="Background"><rect class="cls-1" x="1.5" y="1.5" width="193.62" height="193.62"></rect></g><g id="DIAGNOSE_WHERE_CHANGES_ARE_REQUIRED" data-name="DIAGNOSE WHERE CHANGES ARE REQUIRED"><path d="M58.85,81.44c-1.86,2.13-3.41,3.94-5,5.73A6.55,6.55,0,1,1,43.7,78.91c2.7-3.63,5.55-7.16,8.12-10.88,2.23-3.23,4.82-5.42,9.29-4.48a16.53,16.53,0,0,1-2.09-5A11.45,11.45,0,0,1,65.2,46.26a11.3,11.3,0,0,1,13.35,2.47,2.49,2.49,0,0,0,2.06.92q10.23-.06,20.46,0c1,0,1.27-.23,1.24-1.24,0-2.76.6-3.36,3.32-3.36h12.16c2,0,2.79.82,2.8,2.77q0,4.07,0,8.15c0,2-.82,2.8-2.75,2.81H105.1c-2,0-2.93-.83-2.77-2.89.11-1.54-.45-1.74-1.8-1.72-5.81.08-11.63,0-17.45,0H81.47a11.69,11.69,0,0,1-2,9,4.6,4.6,0,0,0,1.94.13,6.81,6.81,0,0,1,5.89,2.91c1.36,1.84,2.76,3.65,4.1,5.5a1.68,1.68,0,0,0,1.54.77c6.58,0,13.16,0,19.74,0,.92,0,1.08-.28,1.07-1.12,0-3,.55-3.48,3.5-3.48h12c2,0,2.77.83,2.78,2.79,0,2.72,0,5.43,0,8.15,0,2-.83,2.78-2.78,2.79-4.2,0-8.4,0-12.59,0-2.15,0-3-.79-2.9-2.92.07-1.36-.27-1.72-1.67-1.7-5.47.1-10.94,0-16.63,0,.58.81,1,1.44,1.49,2.1a6.53,6.53,0,0,1-10.19,8.13c-1.67-1.81-3.25-3.7-5-5.69a31.27,31.27,0,0,0,.52,8.64c.13.83.78.54,1.24.54q7.78,0,15.59,0c2.24,0,4.48,0,6.72,0,.81,0,1.13-.21,1-1a6.68,6.68,0,0,1,0-1,2.3,2.3,0,0,1,2.56-2.56q6.58,0,13.16,0a2.31,2.31,0,0,1,2.58,2.56q0,4.29,0,8.58c0,1.74-.89,2.58-2.69,2.59H109.61c-1.93,0-2.85-.86-2.71-2.83.12-1.56-.45-1.8-1.87-1.78-6.77.08-13.54,0-20.31,0H83.13c.89,5.87,1.77,11.61,2.65,17.35.07.5.11.91.88,1,4.21.53,6.52,3.16,6.44,7.43,0,1.33.22,1.74,1.65,1.72,5.91-.1,11.82-.06,17.74,0,1,0,1.29-.17,1.27-1.21-.05-3.39,0-3.39-3.37-3.39-2.44,0-3.55-.73-3.52-2.33s1.09-2.25,3.46-2.25c3,0,6.1,0,9.16,0,.81,0,1.14-.1,1.14-1,0-3.54,0-3.54-3.5-3.54-2.53,0-5.06,0-7.59,0-1.67,0-2.69-.92-2.67-2.31s1-2.25,2.73-2.26q6.44,0,12.88,0c1.85,0,2.68.86,2.69,2.73q0,4.14,0,8.3c0,1.85-.85,2.67-2.72,2.7-1.33,0-3.16-.47-3.86.2-.88.86-.2,2.69-.27,4.1,0,.86,0,1.72,0,2.58a2.26,2.26,0,0,1-2.27,2.27c-.29,0-.58,0-.86,0H75.67c-2.43,0-3.13-.71-3.14-3.15,0-1.28-.1-2.58,0-3.86C73,116,71.32,112,70.12,107.73c-.62,2.4-1.27,4.78-1.83,7.2-.71,3-.19,6.17-.33,9.25a4.26,4.26,0,0,1-.31,2.09,2.34,2.34,0,0,1-2.15,1.18c-5.24,0-10.49,0-15.73,0A2.24,2.24,0,0,1,47.36,125c0-1.47,0-3,0-4.43a6.76,6.76,0,0,1,6.09-6.78c1-.1,1.21-.56,1.32-1.37.24-1.74.49-3.49.81-5.22s1.28-2.32,2.68-2.09,2,1.32,1.77,2.91c-.39,2.64-.8,5.27-1.21,7.91-.27,1.72-1,2.34-2.8,2.36h-.71c-2.83,0-3.87,1.28-3.4,4.06.1.59.41.52.78.52,3.29,0,6.58,0,9.87,0,.6,0,.88-.12.82-.78-.7-7.61,2.35-14.57,3.85-21.8.22-1,.48-2,.76-3a2.22,2.22,0,0,1,2.25-1.83,2.19,2.19,0,0,1,2.25,1.83c1.53,6,3.15,12.07,4.48,18.15a27.88,27.88,0,0,1,.12,6.27c0,.85.08,1.26,1.12,1.23,3.09-.08,6.2-.07,9.29,0,.94,0,1.08-.29,1.07-1.13,0-2.81-.62-3.48-3.4-3.48s-3.2-.34-3.63-3.06q-1.49-9.32-2.86-18.64c-.14-.9-.38-1.33-1.38-1.21a13.9,13.9,0,0,1-2.58,0,2.25,2.25,0,0,1-2.18-2.21,2.29,2.29,0,0,1,2.22-2.34,2.62,2.62,0,0,1,.28,0c.89-.09,2.09.4,2.57-.23s-.09-1.64-.23-2.48c-.54-3.17-.25-6.38-.22-9.56,0-1.34-.42-1.6-1.59-1.49a19.5,19.5,0,0,1-2.86,0,2.29,2.29,0,1,1,.06-4.56c4.19,0,8.39,0,12.58,0,.22,0,.44,0,.88-.05-1.06-1.39-2-2.65-2.94-3.86a2.08,2.08,0,0,0-1.8-.67c-2,0-4,0-6,0-1.32,0-2.38-.3-2.84-1.65a3.35,3.35,0,0,1,1.14-3.95A6.85,6.85,0,1,0,64,53.56,6.65,6.65,0,0,0,66.21,62,3.54,3.54,0,0,1,68,65.54a2.33,2.33,0,0,1-2.47,2.39c-2,0-4.1,0-6.15,0a2.9,2.9,0,0,0-2.66,1.29c-3,4-6,8-9,12-1,1.35-1,2.5,0,3.26s2,.48,3.09-.73c2.72-3.13,5.45-6.26,8.15-9.4.8-.93,1.67-1.6,3-1.09s1.44,1.57,1.5,2.79a98.06,98.06,0,0,1-1.79,22c-.31,1.76-1.29,2.67-2.71,2.47s-2.07-1.27-1.83-3c.47-3.45,1-6.89,1.55-10.32C58.92,85.42,58.69,83.64,58.85,81.44Z" transform="translate(-1.69 -1.69)"></path><path d="M100.09,134.31H156.3c5.06,0,7.78-2.7,7.79-7.73,0-13,0-25.94,0-38.91,0-1.21-.31-1.46-1.48-1.45q-12.36.07-24.74,0c-1.09,0-1.31.28-1.31,1.33q.07,14.73,0,29.46c0,1.09.28,1.32,1.33,1.31,6.24-.06,12.49,0,18.74,0a2.49,2.49,0,0,1,2.72,1.6,2.23,2.23,0,0,1-2.16,3q-11.43.06-22.88,0c-1.55,0-2.29-1-2.3-2.82V84.84c0-2.46.7-3.17,3.12-3.17h26.31c2.62,0,2.62,0,2.62-2.68,0-1.29,0-2.58,0-3.87,0-1.58.89-2.57,2.24-2.6s2.33,1,2.33,2.66q0,26.17,0,52.35a11.32,11.32,0,0,1-11.39,11.35q-14.08.08-28.18,0c-1.28,0-1.47.32-1.18,1.5a18.75,18.75,0,0,0,6.43,9.86c2.07,1.77,4.15,2.79,6.92,2.44a12.31,12.31,0,0,1,4.27.2,9.1,9.1,0,0,1,7.11,8.44c.14,4.12.36,5.18-4.78,5.09-7.34-.13-14.68,0-22,0a2.82,2.82,0,0,1-2.14-.59,2.14,2.14,0,0,1-.63-2.46,2.27,2.27,0,0,1,2.34-1.53h14.16c2.52,0,5.05,0,7.58,0,.88,0,1-.25.84-1.06a4.72,4.72,0,0,0-4.2-3.53c-.28,0-.57,0-.85,0H57.08c-2.48,0-4.13,1-4.86,3-.54,1.46-.46,1.58,1.08,1.58h62.08c1.89,0,3,.88,2.92,2.36s-1.08,2.22-2.92,2.22H50.3c-2.21,0-2.87-.78-3-3.05-.16-3.6.78-6.69,3.79-8.92a9,9,0,0,1,5.18-1.76c.29,0,.58,0,.86,0,2-.2,4.16.72,5.85-.43,3.81-2.6,7.2-5.66,8.65-10.3.94-3,1-3-2.16-3q-13,0-26,0c-7.32,0-12.14-4.85-12.15-12.2,0-1.86,0-3.72,0-5.58s.88-2.83,2.32-2.81,2.25,1,2.26,2.88,0,3.81,0,5.72c0,4.56,2.84,7.41,7.39,7.41Z" transform="translate(-1.69 -1.69)"></path><path d="M100.06,33.6h56.22c7.63,0,12.38,4.76,12.38,12.4q0,9.28,0,18.59c0,.29,0,.57,0,.86a2.32,2.32,0,0,1-2.22,2.48,2.28,2.28,0,0,1-2.34-2.5c0-4.34,0-8.68,0-13,0-2-.13-4.11,0-6.14.38-5-3.23-8.19-8-8.15-18.88.15-37.76.06-56.64.06H43.64c-5,0-7.73,2.72-7.73,7.79v63.94c0,.38,0,.77,0,1.15,0,1.65-.95,2.68-2.34,2.65s-2.22-1-2.23-2.62c0-3.33,0-6.67,0-10V46c0-7.64,4.75-12.41,12.37-12.41Z" transform="translate(-1.69 -1.69)"></path><path class="cls-2" d="M145.79,42.76c1.47,0,3,0,4.43,0a2.26,2.26,0,0,1,2.41,2.42c0,1.19.05,2.38,0,3.57,0,.68.17.91.87.88,1.18,0,2.38,0,3.57,0A2.25,2.25,0,0,1,159.49,52c0,3,0,5.91,0,8.86A2.28,2.28,0,0,1,157,63.35a20,20,0,0,1-3,0c-1.19-.14-1.43.37-1.35,1.42a23.1,23.1,0,0,1,0,3,2.25,2.25,0,0,1-2.37,2.46q-4.5.06-9,0a2.23,2.23,0,0,1-2.34-2.35c0-1.23,0-2.48,0-3.71,0-.63-.17-.83-.8-.8-1.19,0-2.38,0-3.57,0a2.28,2.28,0,0,1-2.5-2.48c0-2.91,0-5.81,0-8.72a2.31,2.31,0,0,1,2.6-2.52,21.45,21.45,0,0,1,3,0c1.15.14,1.36-.34,1.28-1.35a27.28,27.28,0,0,1,0-3,2.32,2.32,0,0,1,2.59-2.54C142.93,42.74,144.36,42.76,145.79,42.76Z" transform="translate(-1.69 -1.69)"></path><path d="M150.35,100c2.14,0,4.28,0,6.42,0,1.69,0,2.7.86,2.73,2.25s-1,2.32-2.65,2.32q-6.49,0-13,0c-1.67,0-2.68-.92-2.66-2.31s1-2.24,2.72-2.26C146.07,100,148.21,100,150.35,100Z" transform="translate(-1.69 -1.69)"></path><path d="M150.44,109.14c2.14,0,4.28,0,6.42,0,1.65,0,2.67.94,2.64,2.33a2.32,2.32,0,0,1-2.6,2.24q-6.56,0-13.13,0a2.3,2.3,0,1,1,0-4.57C146,109.12,148.2,109.14,150.44,109.14Z" transform="translate(-1.69 -1.69)"></path><path d="M152.72,95.4c-1.47,0-2.94,0-4.42,0a2.3,2.3,0,1,1,0-4.57c2.85,0,5.71,0,8.56,0a2.31,2.31,0,0,1,2.59,2.24c0,1.39-1,2.31-2.64,2.33C155.48,95.42,154.1,95.4,152.72,95.4Z" transform="translate(-1.69 -1.69)"></path><path class="cls-3" d="M111.36,54.2c-1.24,0-2.48,0-3.72,0-.65,0-.76-.22-.79-.82-.2-3.78-.22-3.77,3.53-3.77,1.57,0,3.15,0,4.72,0,.77,0,.92.24.94,1,.07,3.63.1,3.63-3.54,3.63Z" transform="translate(-1.69 -1.69)"></path><path class="cls-3" d="M122.77,77.09h-1.15c-3.61,0-3.84-.29-3.33-4,.07-.53.28-.6.71-.6,2.58,0,5.15,0,7.73,0,.69,0,.72.3.75.85.17,3.74.18,3.74-3.57,3.74Z" transform="translate(-1.69 -1.69)"></path><path class="cls-3" d="M116.14,90.83h1.14c3.63,0,3.83.26,3.34,4-.07.52-.27.6-.71.6-2.58,0-5.15,0-7.72,0-.69,0-.73-.29-.76-.85-.18-3.75-.19-3.74,3.56-3.74Z" transform="translate(-1.69 -1.69)"></path><path class="cls-3" d="M84.26,77.09h.57c5.39,0,5.44,0,8.3,4.58a1.9,1.9,0,0,1-.37,2.78,1.84,1.84,0,0,1-2.68-.29c-2-2.24-3.93-4.52-5.88-6.79C84.17,77.33,84.23,77.21,84.26,77.09Z" transform="translate(-1.69 -1.69)"></path><path class="cls-3" d="M70,152.56a20.35,20.35,0,0,0,6.66-11.71c.29-1.72.92-2,2.51-2q21.09.1,42.19,0c1.25,0,1.73.2,2,1.6A20,20,0,0,0,129,151.55c.29.29.66.5.8,1Z" transform="translate(-1.69 -1.69)"></path><path class="cls-3" d="M152.32,58.78c-4,0-4.26.29-4.26,4.3,0,2.57,0,2.57-2.58,2.57-2,0-2,0-2-2,0-4.78-.08-4.86-4.84-4.86-2,0-2,0-2-2,0-2.61,0-2.61,2.54-2.61,4.06,0,4.33-.27,4.33-4.37,0-2.49,0-2.49,2.51-2.49,2.06,0,2.06,0,2.06,2.07,0,4.7.1,4.79,4.77,4.79,2.1,0,2.1,0,2.1,2C154.93,58.78,154.93,58.78,152.32,58.78Z" transform="translate(-1.69 -1.69)"></path></g></svg>