<svg xmlns="http://www.w3.org/2000/svg" viewBox="0 0 196.62 196.62"><defs><style>.cls-1{fill:#fff;stroke:#2c6eb5;stroke-miterlimit:10;stroke-width:3px;}.cls-2{fill:#fefefe;}.cls-3{fill:#f4822a;}.cls-4{fill:#010101;}</style></defs><g id="Background"><rect class="cls-1" x="1.5" y="1.5" width="193.62" height="193.62"></rect></g><g id="DRIVE_FOR_MOTIVATION" data-name="DRIVE FOR MOTIVATION"><path d="M72.14,178.38a3.3,3.3,0,0,1-1.56-3.2c.07-6,0-12,0-18.06,0-1.55.39-2.73,2.13-3,.46-.06.6-.29.59-.71-.09-2.9.19-5.81-.17-8.71a11.92,11.92,0,0,0-2.62-6.09c-6.59-8.08-9.43-17.54-10.36-27.73-.08-.87-.17-1.73-.18-2.6a2.4,2.4,0,0,1,2.29-2.7c1.3,0,2.2.93,2.29,2.52a53.71,53.71,0,0,0,4.82,20.21,29.71,29.71,0,0,0,4.09,6.6,18.28,18.28,0,0,1,4.45,12.82c-.06,1.78,0,3.57,0,5.35,0,.82.26,1,1,1q19.42,0,38.86,0c1,0,1.16-.41,1.14-1.27,0-2.24,0-4.48,0-6.73a11.67,11.67,0,0,1,2.52-7.21c1.48-2,3-3.9,4.43-5.84,1-1.32,2.3-1.63,3.42-.81a2.28,2.28,0,0,1,.37,3.38c-1.33,1.87-2.7,3.71-4.14,5.49a8.25,8.25,0,0,0-2,5.61c.06,2.09,0,4.18,0,6.27,0,.67,0,1.09.91,1.2a2,2,0,0,1,1.73,2.2c0,6.53,0,13.06,0,19.59,0,1.08-.74,1.68-1.39,2.36h-30c-1.47-.61-2-1.35-1.87-2.57a2.82,2.82,0,0,1,2.43-2.4,11.81,11.81,0,0,1,2.14-.1h21.57c2.07,0,2.18-.11,2.19-2.13,0-3.37,0-6.73,0-10.1,0-1.61-.18-1.79-1.75-1.79q-21,0-42.07,0c-1.56,0-1.73.2-1.74,1.8q0,5.19,0,10.4c0,1.65.16,1.8,1.87,1.82,2.4,0,4.79,0,7.19,0a9.32,9.32,0,0,1,1.83.1,2.82,2.82,0,0,1,2.43,2.4c.14,1.22-.4,2-1.87,2.57Z" transform="translate(-1.69 -1.69)"></path><path class="cls-2" d="M87.14,178.38c1.09-.72,1.92-1.62,1.43-3s-1.64-1.61-3-1.59c-3.06,0-6.12,0-9.18,0-.86,0-1.25-.09-1.23-1.13.07-4.28,0-8.57,0-12.85,0-.85.2-1.12,1.09-1.12q22.11,0,44.24,0c.91,0,1.09.32,1.09,1.15,0,4.23,0,8.47,0,12.7,0,1-.29,1.26-1.28,1.25-8,0-15.92,0-23.88,0-1.3,0-2.46.13-3,1.55s.37,2.26,1.33,3Z" transform="translate(-1.69 -1.69)"></path><path class="cls-3" d="M100.92,21.62a3.83,3.83,0,0,1,1.41,3.44c-.07,3.72,0,7.44,0,11.16a9.05,9.05,0,0,1,0,1.38,2.13,2.13,0,0,1-2.25,2,2.08,2.08,0,0,1-2.24-2c-.11-1.27-.06-2.55-.07-3.82,0-2.91,0-5.82,0-8.72a3.77,3.77,0,0,1,1.41-3.44Z" transform="translate(-1.69 -1.69)"></path><path d="M109.6,99.9c-2.07-1.43-2.07-1.43-3.75.21a9.63,9.63,0,0,1-15.3-2.5c-.44-.85-.67-1.19-1.7-.64C84,99.51,79,97.9,75.69,92.79c-.32.17-.66.35-1,.54A8.92,8.92,0,0,1,66,94c-1.49-.69-1.42-.07-1.39,1,0,1.53,0,3.06,0,4.59s-.85,2.54-2.21,2.57S60,101.23,60,99.56c0-8.77-.08-17.55,0-26.33a9.7,9.7,0,0,1,14.77-8.16,9.87,9.87,0,0,1,5.75-7.33,9.61,9.61,0,0,1,9.32.83c.47-.11.43-.56.58-.84a9.54,9.54,0,0,1,13.11-4.34c.91.46,1.09.23,1.44-.59a9.65,9.65,0,0,1,18.54,3.75c.08,3.83,0,7.66,0,11.49,0,.53-.16,1.11.77,1.09,9.27-.25,13.22,6.27,14.65,13a59.45,59.45,0,0,1,.86,16.14,146.33,146.33,0,0,1-3.09,22.54,31.07,31.07,0,0,1-2.07,5.9c-.65,1.45-1.77,2-3.06,1.47a2.21,2.21,0,0,1-1.2-3.16c3.15-7.24,3.56-15,4.48-22.69a64,64,0,0,0,0-17.1,21.29,21.29,0,0,0-2-6.69,8.14,8.14,0,0,0-7.6-4.77c-8.11,0-16.23,0-24.34,0-1.56,0-2.19.77-2.08,2.34a8.63,8.63,0,0,0,7,8q7.92,1.67,15.83,3.38c2,.43,2.65,1.41,2.16,3.4-.58,2.37-1.23,4.72-1.82,7.09a2.8,2.8,0,0,1-2,2.11,34.83,34.83,0,0,0-21.21,19.43c-.75,1.68-1.87,2.24-3.23,1.67s-1.7-1.8-1-3.47a38.63,38.63,0,0,1,13.55-16.78Z" transform="translate(-1.69 -1.69)"></path><path class="cls-3" d="M37.88,94.83c-2.09,0-4.18,0-6.27,0a2.32,2.32,0,0,1-2.56-2.24,2.35,2.35,0,0,1,2.5-2.34q6.5,0,13,0a2.28,2.28,0,0,1,2.52,2.28c0,1.43-.92,2.28-2.62,2.3C42.26,94.85,40.07,94.83,37.88,94.83Z" transform="translate(-1.69 -1.69)"></path><path class="cls-3" d="M161.85,94.83c-2.14,0-4.29,0-6.43,0a2.22,2.22,0,0,1-2.49-2.27,2.26,2.26,0,0,1,2.49-2.31q6.5,0,13,0A2.36,2.36,0,0,1,171,92.56a2.29,2.29,0,0,1-2.53,2.26C166.23,94.85,164,94.83,161.85,94.83Z" transform="translate(-1.69 -1.69)"></path><path class="cls-3" d="M63.25,53.9A2.06,2.06,0,0,1,62,55.57,2.31,2.31,0,0,1,59.18,55l-5.73-5.73C52.3,48.12,51.12,47,50,45.81a2.3,2.3,0,1,1,3.23-3.24c3.09,3,6.14,6.11,9.2,9.18A2.61,2.61,0,0,1,63.25,53.9Z" transform="translate(-1.69 -1.69)"></path><path class="cls-3" d="M148.31,41.76a2.28,2.28,0,0,1,2.29,1.31,2.21,2.21,0,0,1-.51,2.66c-1.39,1.42-2.81,2.81-4.21,4.21-1.59,1.59-3.16,3.18-4.76,4.75-1.39,1.38-2.65,1.5-3.72.41s-.87-2.29.42-3.6c2.87-2.89,5.76-5.76,8.64-8.64C147,42.28,147.61,41.67,148.31,41.76Z" transform="translate(-1.69 -1.69)"></path><path class="cls-4" d="M78,34.12a2.12,2.12,0,0,1,2,1.35c.66,1.6,1.31,3.21,1.88,4.84a2.24,2.24,0,0,1-1.33,3A2.19,2.19,0,0,1,77.74,42c-.67-1.53-1.3-3.09-1.85-4.68A2.27,2.27,0,0,1,78,34.12Z" transform="translate(-1.69 -1.69)"></path><path class="cls-4" d="M119.76,43.43A2.16,2.16,0,0,1,118,40.61a51.79,51.79,0,0,1,2-5.23,2.11,2.11,0,0,1,2.82-1.12,2,2,0,0,1,1.42,2.53,29.32,29.32,0,0,1-2.2,5.64C121.65,43.16,120.88,43.41,119.76,43.43Z" transform="translate(-1.69 -1.69)"></path><path class="cls-4" d="M50.92,72.3a2.28,2.28,0,0,1-3,2.27A41.91,41.91,0,0,1,43,72.64a2.08,2.08,0,0,1-1.12-2.81,2,2,0,0,1,2.67-1.39c1.78.57,3.52,1.28,5.24,2A2.19,2.19,0,0,1,50.92,72.3Z" transform="translate(-1.69 -1.69)"></path><path class="cls-4" d="M151.61,74.7A2.24,2.24,0,0,1,149.23,73a2,2,0,0,1,.94-2.49,26.41,26.41,0,0,1,5.49-2.15,2,2,0,0,1,2.4,1.17,2,2,0,0,1-.44,2.63A22.46,22.46,0,0,1,151.61,74.7Z" transform="translate(-1.69 -1.69)"></path><path class="cls-2" d="M79.33,77.65c0-3.72-.07-7.45,0-11.17a4.9,4.9,0,0,1,4.36-4.91,5,5,0,0,1,5.37,3.16A6,6,0,0,1,89.46,67c0,7,0,14.07,0,21.11a5.06,5.06,0,0,1-9.76,2.21,6.75,6.75,0,0,1-.37-2.55V77.65Z" transform="translate(-1.69 -1.69)"></path><path class="cls-2" d="M74.7,79.23c0,1.94,0,3.88,0,5.81a5,5,0,1,1-10.09,0c-.08-3.91-.09-7.84,0-11.76a5.05,5.05,0,1,1,10.1.12C74.75,75.36,74.71,77.3,74.7,79.23Z" transform="translate(-1.69 -1.69)"></path><path class="cls-2" d="M108.81,62.06c0-1.84,0-3.67,0-5.5a5,5,0,0,1,10.06-.29c.14,4,0,8,.06,12.08,0,.62-.25.77-.81.77-2.86,0-5.71,0-8.56,0-.79,0-.77-.41-.77-1,0-2,0-4.07,0-6.11Z" transform="translate(-1.69 -1.69)"></path><path class="cls-2" d="M94.18,77.26A15.18,15.18,0,0,0,98,84.78a11.79,11.79,0,0,0,5.1,3.24,1.31,1.31,0,0,1,1.13,1.6c-.07,1.17,0,2.35,0,3.52A5,5,0,0,1,99,98.23a4.92,4.92,0,0,1-4.92-5.14c0-5,0-10,0-15A5.87,5.87,0,0,1,94.18,77.26Z" transform="translate(-1.69 -1.69)"></path><path class="cls-2" d="M94.13,74.25c0-4.32-.1-8.65,0-13a4.85,4.85,0,0,1,4.67-4.43A5,5,0,0,1,104,60.74c.5,2.56.11,5.17.21,7.76,0,.61-.38.62-.81.61h-2C97.54,69.12,95.52,70.58,94.13,74.25Z" transform="translate(-1.69 -1.69)"></path><path class="cls-2" d="M108.8,90.73c-.3-1.17.26-1.39,1.45-1.1,2.42.58,4.85,1.13,7.29,1.55,1.41.24,1.42.85.93,1.93A5.08,5.08,0,0,1,112.7,96C110.38,95.54,108.85,93.52,108.8,90.73Z" transform="translate(-1.69 -1.69)"></path></g></svg>