<svg xmlns="http://www.w3.org/2000/svg" viewBox="0 0 196.62 196.62"><defs><style>.cls-1{fill:#fff;stroke:#2c6eb5;stroke-miterlimit:10;stroke-width:3px;}.cls-2{fill:#ea8023;}.cls-3{fill:#fefefe;}.cls-4{fill:#fdfdfd;}</style></defs><g id="Layer_3" data-name="Layer 3"><rect class="cls-1" x="1.5" y="1.5" width="193.62" height="193.62"></rect></g><g id="Layer_2" data-name="Layer 2"><path class="cls-2" d="M176.06,139.89c-.56,2.31-.52,4.69-.85,7a58.6,58.6,0,0,1-2.71,12.42c-.29.79-.23,1.72-.48,2.53a15.17,15.17,0,0,1-13.6,10.9c-10.57.5-21.08-.08-31.15-3.79-2-.74-3.3-1.06-4.78,1s-3.9,2.8-6.43,2.85q-3.34.06-6.68,0a9.43,9.43,0,0,1-9.35-9.38q-.07-16,0-31.92a9.26,9.26,0,0,1,8.18-9.23,40.84,40.84,0,0,1,9.18,0,5.49,5.49,0,0,1,2.79.93c1,.8,1.8.53,2.7-.2a35.78,35.78,0,0,0,5.1-4.74,12.74,12.74,0,0,0,3.36-8.78,19.93,19.93,0,0,1,.46-4.86c1.17-5.39,5.9-7.7,10.89-5.24,3.79,1.87,5.5,5.26,6.32,9.17a25.86,25.86,0,0,1-.51,12.33c-.28,1-.07,1.22,1,1.23,4.35,0,8.72-.29,13.06.15a15.07,15.07,0,0,1,13.28,12.46,3.35,3.35,0,0,0,.26.66Z" transform="translate(-1.69 -1.69)"></path><path d="M152.7,68.3a23.72,23.72,0,0,1,5.72,5.07,21.69,21.69,0,0,1,4,20.39c-.63,2.18-2.28,3.17-4.09,2.58s-2.58-2.22-1.93-4.44a15.72,15.72,0,0,0-15.28-20.34q-47.46,0-94.91,0c-8.61,0-15.21,6.29-15.84,15-.57,7.85,5.45,15.17,13.51,16.38a20.17,20.17,0,0,0,3.11.1h68.18c2.07,0,3.42.84,3.84,2.36a3.29,3.29,0,0,1-2.95,4.12,14.77,14.77,0,0,1-1.49,0q-34.23,0-68.47,0a15.77,15.77,0,0,0-5.13,30.69,18,18,0,0,0,6.13.89H83.44c2.38,0,3.75,1.09,3.84,3a3,3,0,0,1-2.44,3.24,6.6,6.6,0,0,1-1.47.14c-12.33,0-24.66,0-37,0a22.17,22.17,0,0,1-12.85-40.4c1-.69,1-.9,0-1.61a22.07,22.07,0,0,1,0-36.43c1.13-.79.82-1-.07-1.61A22.15,22.15,0,0,1,42.59,27.4a24.92,24.92,0,0,1,4.14-.3q46.93,0,93.86,0c11.6,0,20.75,7.51,22.48,18.94,1.33,8.76-1.92,15.9-9,21.28C153.69,67.64,153.25,67.92,152.7,68.3Z" transform="translate(-1.69 -1.69)"></path><path d="M74.69,87.35a9.5,9.5,0,1,1,19,0,9.58,9.58,0,0,1-9.45,9.47A9.48,9.48,0,0,1,74.69,87.35Z" transform="translate(-1.69 -1.69)"></path><path d="M74.69,125.34a9.47,9.47,0,0,1,9.51-9.51,9.51,9.51,0,0,1,0,19A9.47,9.47,0,0,1,74.69,125.34Z" transform="translate(-1.69 -1.69)"></path><path d="M52.53,77.81A9.51,9.51,0,1,1,43,87.3,9.54,9.54,0,0,1,52.53,77.81Z" transform="translate(-1.69 -1.69)"></path><path d="M52.54,115.84A9.5,9.5,0,1,1,43,125.31,9.52,9.52,0,0,1,52.54,115.84Z" transform="translate(-1.69 -1.69)"></path><path class="cls-3" d="M125.33,144.54c-.12-4.24.22-9.49-.17-14.73-.06-.78.47-.91.86-1.2a33.43,33.43,0,0,0,8.86-9.08A17.59,17.59,0,0,0,137.7,110a14.81,14.81,0,0,1,.3-3.69c.41-1.59,1.06-1.86,2.41-.9a5.61,5.61,0,0,1,2.1,3.31,19.06,19.06,0,0,1-1.63,14.38c-1.48,2.67-.08,5.57,3.31,5.47,5.59-.15,11.18-.09,16.78,0a8.7,8.7,0,0,1,8.7,8.23,29.42,29.42,0,0,1-.79,6.46c-.82,5.08-1.69,10.14-2.58,15.21-.83,4.68-4.05,7.84-8.74,8-9.83.35-19.59-.23-28.95-3.7-3.28-1.22-3.28-1.22-3.28-4.75Z" transform="translate(-1.69 -1.69)"></path><path class="cls-3" d="M119,147.57c0,5,0,10.09,0,15.14,0,2.6-1.2,3.81-3.79,3.84q-2.6,0-5.19,0c-2.44,0-3.7-1.25-3.71-3.65q0-15.36,0-30.72c0-2.46,1.2-3.62,3.66-3.65,1.88,0,3.76,0,5.64,0A3.12,3.12,0,0,1,119,132C119,137.18,119,142.37,119,147.57Z" transform="translate(-1.69 -1.69)"></path><path class="cls-3" d="M93.47,65.05q-23.68,0-47.38,0A15.78,15.78,0,0,1,41,34.32a17.19,17.19,0,0,1,5.69-.85c31.29,0,62.57.09,93.86,0A16.08,16.08,0,0,1,157,50.2a15.74,15.74,0,0,1-15.43,14.85Q117.53,65.08,93.47,65.05Z" transform="translate(-1.69 -1.69)"></path><path class="cls-4" d="M87.29,87.34a3.16,3.16,0,0,1-3.08,3.15,3.18,3.18,0,0,1-.1-6.35A3.16,3.16,0,0,1,87.29,87.34Z" transform="translate(-1.69 -1.69)"></path><path class="cls-4" d="M87.29,125.28a3.18,3.18,0,0,1-3.15,3.24,3.18,3.18,0,0,1,0-6.36A3.17,3.17,0,0,1,87.29,125.28Z" transform="translate(-1.69 -1.69)"></path><path class="cls-4" d="M55.65,87.31a3.18,3.18,0,1,1-3.1-3.17A3.25,3.25,0,0,1,55.65,87.31Z" transform="translate(-1.69 -1.69)"></path><path class="cls-4" d="M52.47,122.16a3.18,3.18,0,1,1-3.17,3.1A3.26,3.26,0,0,1,52.47,122.16Z" transform="translate(-1.69 -1.69)"></path><path d="M84.17,39.79a9.51,9.51,0,1,1-9.48,9.53A9.57,9.57,0,0,1,84.17,39.79Z" transform="translate(-1.69 -1.69)"></path><path d="M52.54,39.79A9.51,9.51,0,1,1,43,49.27,9.53,9.53,0,0,1,52.54,39.79Z" transform="translate(-1.69 -1.69)"></path><path class="cls-4" d="M87.29,49.32a3.16,3.16,0,0,1-3.09,3.15,3.18,3.18,0,0,1-.09-6.36A3.18,3.18,0,0,1,87.29,49.32Z" transform="translate(-1.69 -1.69)"></path><path class="cls-4" d="M52.44,52.47a3.18,3.18,0,1,1,3.21-3.22A3.26,3.26,0,0,1,52.44,52.47Z" transform="translate(-1.69 -1.69)"></path></g></svg>