<svg xmlns="http://www.w3.org/2000/svg" viewBox="0 0 196.62 196.62"><defs><style>.cls-1{fill:#fff;stroke:#2c6eb5;stroke-miterlimit:10;stroke-width:3px;}.cls-2{fill:#fefefe;}.cls-3{fill:#242424;}.cls-4{fill:#202020;}.cls-5{fill:#fdfdfd;}.cls-6{fill:#fcfcfc;}.cls-7{fill:#ea8023;}</style></defs><g id="Layer_3" data-name="Layer 3"><rect class="cls-1" x="1.5" y="1.5" width="193.62" height="193.62"></rect></g><g id="Layer_2" data-name="Layer 2"><path d="M168.43,98.23a31.91,31.91,0,0,1-8.22,18.91,33.29,33.29,0,0,1-10.89,8.1c-.43.2-1.38.36-1.13.77.47.8-.06,2.17,1.56,2.42a6.46,6.46,0,0,1,5.52,7.55,5.85,5.85,0,0,1-1.19,2.8.78.78,0,0,0,0,1.12,6.36,6.36,0,0,1,0,7.73.81.81,0,0,0,0,1.13,6.32,6.32,0,0,1,0,7.72c-.38.55-.23.81.06,1.24a6.3,6.3,0,0,1,.45,6.84,6.47,6.47,0,0,1-6,3.59,5.9,5.9,0,0,1-.94,0c-.93-.14-1.27.2-1.18,1.15a7.8,7.8,0,0,1-.21,2.8A6.62,6.62,0,0,1,140,177c-2.91,0-5.81,0-8.72,0a6.61,6.61,0,0,1-6.87-6.81c0-2,0-2.14-2-2a17.78,17.78,0,0,1-13.71-4.88c-.36-.33-.77-.61-1.15-.92-.6-.47-1.14-1.21-1.8-1.34s-1.07.88-1.65,1.31A8.09,8.09,0,0,1,99,163.72H32.76a2.67,2.67,0,0,0-.4,0c-.82.14-1.06-.17-1-1,.06-2.27,0-4.55,0-6.83,0-8.76,0-17.52,0-26.28,0-1,.14-1.36,1.27-1.36q33.39.06,66.77,0a6.93,6.93,0,0,1,5.7,2.42c.38.47.64.48,1,.09s.84-.66,1.25-1c3.32-2.83,6.73-5.5,11.73-5.76a37.51,37.51,0,0,1-7.61-6,32.19,32.19,0,0,1-8.29-15.19c-.21-.9-.56-1.18-1.5-1.17q-11.59.06-23.2,0c-.88,0-1.27.23-1.4,1.12a27.81,27.81,0,0,1-.76,3.12,5.93,5.93,0,0,1-10.11,2.81c-2.12-2-4.2-4.15-6.25-6.26a2.34,2.34,0,0,0-1.86-.78c-5.1,0-10.19,0-15.29,0-6.73,0-11.47-4.74-11.48-11.46q0-19.51,0-39c0-5.8,3.37-10,9.07-11.3.11,0,.21-.13.32-.2h92c6.06,1,9.73,5.4,9.74,11.64,0,3.12,0,6.25,0,9.38a1.64,1.64,0,0,0,1.42,1.87q18.21,5.25,23.9,23.36a18.63,18.63,0,0,1,.75,6.08,6.81,6.81,0,0,0,.14,2.11V96C168.32,96.72,168.7,97.51,168.43,98.23Z" transform="translate(-1.69 -1.69)"></path><path class="cls-2" d="M168.44,91.9a32.35,32.35,0,0,0-12.92-23.27,30.92,30.92,0,0,0-12.47-5.88,1,1,0,0,1-1-1.24c.05-3.39,0-6.78,0-10.18,0-5.92-3.31-10.07-9.05-11.43-.12,0-.21-.14-.32-.21q17.5,0,35,0c.8,0,1,.16,1,1q0,25.68,0,51.36C168.53,92.12,168.45,92.09,168.44,91.9Z" transform="translate(-1.69 -1.69)"></path><path class="cls-3" d="M168.44,91.9l.22.09v2.14A3.18,3.18,0,0,1,168.44,91.9Z" transform="translate(-1.69 -1.69)"></path><path class="cls-4" d="M168.43,98.23c0-.75-.27-1.53.23-2.22v2.14A.32.32,0,0,1,168.43,98.23Z" transform="translate(-1.69 -1.69)"></path><path d="M55.72,117.07c0-2.06,0-2.06,2.1-2.06,2.29,0,2.29,0,2.29,2.26s0,2.13-2.17,2.13S55.72,119.4,55.72,117.07Z" transform="translate(-1.69 -1.69)"></path><path d="M69,117.33c0,2.07,0,2.07-2.09,2.07-2.3,0-2.3,0-2.3-2.26s0-2.13,2.15-2.13S69,115,69,117.33Z" transform="translate(-1.69 -1.69)"></path><path d="M75.6,119.4c-2.17,0-2.17,0-2.17-2.13s0-2.26,2.3-2.26c2.11,0,2.11,0,2.11,2.06v.13C77.84,119.4,77.84,119.4,75.6,119.4Z" transform="translate(-1.69 -1.69)"></path><path d="M82.29,117.08c0-2.07,0-2.07,2.09-2.07,2.32,0,2.32,0,2.32,2.38,0,2,0,2-2,2C82.29,119.4,82.29,119.4,82.29,117.08Z" transform="translate(-1.69 -1.69)"></path><path class="cls-2" d="M86.71,44.13h43.72c3.58,0,6.12,1.78,7,4.89a7.37,7.37,0,0,1,.23,2c0,3.31,0,6.61,0,9.92,0,.84-.2,1-1,1A33.1,33.1,0,0,0,102.5,90.71a17.27,17.27,0,0,0-.24,5.07c.21,1.43-.34,1.56-1.55,1.55-8.09,0-16.18,0-24.28,0-2.53,0-2.53,0-3.16,2.45-.38,1.52-.77,3-1.12,4.55-.18.77-.38,1.46-1.27,1.7s-1.42-.31-2-.86c-2.37-2.37-4.75-4.73-7.1-7.12a2.16,2.16,0,0,0-1.75-.73c-5.59,0-11.18,0-16.77,0-4.88,0-7.52-2.65-7.53-7.54V51.67c0-4.94,2.59-7.54,7.5-7.54Z" transform="translate(-1.69 -1.69)"></path><path class="cls-2" d="M68.21,159.29c-10.37,0-20.73,0-31.1,0-1.14,0-1.37-.31-1.36-1.4q.07-11.92,0-23.86c0-1.15.32-1.36,1.4-1.35q31,0,62.06,0c2.36,0,3,.64,3,3q0,10.32,0,20.64c0,2.17-.73,2.89-2.88,2.89Q83.76,159.31,68.21,159.29Z" transform="translate(-1.69 -1.69)"></path><path class="cls-2" d="M164.22,95.11a28.78,28.78,0,1,1-28.59-28.85A28.86,28.86,0,0,1,164.22,95.11Z" transform="translate(-1.69 -1.69)"></path><path class="cls-2" d="M124.38,140.39v22.38c0,.42.16,1-.58.94-2.36-.06-4.73.22-7-.55a12.9,12.9,0,0,1-4.15-2.38c-1.39-1.13-2.72-2.34-4.2-3.32a3.77,3.77,0,0,1-1.79-3.65c.12-5.54.07-11.09,0-16.63a2.24,2.24,0,0,1,1-2c1.81-1.39,3.59-2.82,5.35-4.26a11.6,11.6,0,0,1,7.54-2.66c7.56,0,15.11,0,22.67,0,1.18,0,1.22.43.91,1.34a4.47,4.47,0,0,1-4.49,3.14c-4.38,0-8.76,0-13.14,0a1.69,1.69,0,0,0-1.64.8,12.42,12.42,0,0,1-10.44,5.82c-.88,0-1.21.26-1.09,1.13a7.64,7.64,0,0,1,0,1.07c0,2.41,0,2.43,2.48,2.17a17.36,17.36,0,0,0,4.42-1.05A19.62,19.62,0,0,0,124.38,140.39Z" transform="translate(-1.69 -1.69)"></path><path class="cls-2" d="M128.77,154c0-5.22,0-10.45,0-15.68,0-.92.22-1.31,1.18-1.19a16.83,16.83,0,0,0,1.88,0c1.71,0,2.28.42,2.95,2,.18.43-.09.58-.25.81a6.35,6.35,0,0,0,0,7.73c.37.53.23.79-.07,1.25a6.29,6.29,0,0,0,0,7.5,1,1,0,0,1,0,1.36,6.24,6.24,0,0,0-.44,6.83,6.48,6.48,0,0,0,6,3.58c2.32,0,2.38.1,2.08,2.34a2.08,2.08,0,0,1-2.11,2c-3,.05-6.07.06-9.11,0-1.41,0-2.08-1-2.08-2.73Q128.77,161.89,128.77,154Z" transform="translate(-1.69 -1.69)"></path><path class="cls-2" d="M144.3,154.83c-1.43,0-2.85,0-4.28,0a2.19,2.19,0,1,1,0-4.37c2.85,0,5.71,0,8.56,0a2.19,2.19,0,1,1,0,4.37C147.15,154.86,145.73,154.83,144.3,154.83Z" transform="translate(-1.69 -1.69)"></path><path class="cls-2" d="M144.25,141.58c1.43,0,2.86,0,4.28,0a2.22,2.22,0,0,1,2.41,2.14,2.16,2.16,0,0,1-2.31,2.23q-4.35.07-8.7,0a2.15,2.15,0,0,1-2.27-2.27,2.2,2.2,0,0,1,2.31-2.1C141.4,141.56,142.83,141.58,144.25,141.58Z" transform="translate(-1.69 -1.69)"></path><path class="cls-2" d="M144.29,163.71c-1.38,0-2.77,0-4.15,0-1.54,0-2.49-.92-2.48-2.21a2.25,2.25,0,0,1,2.5-2.19q4.16,0,8.29,0a2.22,2.22,0,1,1,.12,4.41h-4.28Z" transform="translate(-1.69 -1.69)"></path><path class="cls-5" d="M142.06,137.08a11.06,11.06,0,0,0,5.14-3.89c.64-.89,1.63-.54,2.43-.24a2,2,0,0,1,1.28,2.27,1.92,1.92,0,0,1-1.84,1.83C146.74,137.13,144.4,137.08,142.06,137.08Z" transform="translate(-1.69 -1.69)"></path><path d="M84.48,71c-1-3.26.76-4.71,3.52-5.65a13,13,0,0,0,2.49-1.28,6,6,0,0,0-2.6-11,8.77,8.77,0,0,0-3.71.26,5.29,5.29,0,0,0-3.92,4.48c-.16,1.75-.85,1.9-2.28,1.85-2.6-.1-2.6,0-2.14-2.63a10.4,10.4,0,0,1,8.56-8.3c5.24-1,10,1.21,12.25,5.57a10.39,10.39,0,0,1-3.39,13.29,3.93,3.93,0,0,1-1.15.67c-2.81.76-3.7,2.61-3.17,5.35.22,1.13-.13,1.62-1.44,1.57-3-.12-3,0-3-3.08Z" transform="translate(-1.69 -1.69)"></path><path d="M93.33,86.2a6.62,6.62,0,1,1-6.62-6.62A6.59,6.59,0,0,1,93.33,86.2Z" transform="translate(-1.69 -1.69)"></path><path d="M135.42,70.72a24.34,24.34,0,1,1-24.37,24.36A24.36,24.36,0,0,1,135.42,70.72Z" transform="translate(-1.69 -1.69)"></path><path class="cls-6" d="M88.94,86.26a2.31,2.31,0,0,1-2.29,2.16,2.22,2.22,0,1,1,2.29-2.16Z" transform="translate(-1.69 -1.69)"></path><path class="cls-2" d="M155.35,95.14a19.91,19.91,0,1,1-19.7-20A20,20,0,0,1,155.35,95.14Z" transform="translate(-1.69 -1.69)"></path><path class="cls-7" d="M133.24,98.41c-.57-1.73.41-2.91,2.16-3.79a16.74,16.74,0,0,0,2.66-1.79,5.26,5.26,0,0,0,.79-7.2,4.39,4.39,0,0,0-7.7,1.82c-.16.8-.41,1.09-1.19,1a12,12,0,0,0-1.34,0c-2.32,0-2.32,0-1.76-2.25A8.86,8.86,0,0,1,144.28,88c.22,4-1.26,7.17-4.78,9.17-1.45.83-2.2,1.81-1.87,3.49.17.85-.21,1.14-1,1a2.67,2.67,0,0,0-.4,0C133.24,101.68,133.24,101.68,133.24,98.41Z" transform="translate(-1.69 -1.69)"></path><path class="cls-7" d="M135.43,106.16a2.19,2.19,0,1,1-2.18,2.19A2.12,2.12,0,0,1,135.43,106.16Z" transform="translate(-1.69 -1.69)"></path></g></svg>