<svg xmlns="http://www.w3.org/2000/svg" viewBox="0 0 196.62 196.62"><defs><style>.cls-1{fill:#fff;stroke:#2c6eb5;stroke-miterlimit:10;stroke-width:3px;}.cls-2{fill:#242424;}.cls-3{fill:#282828;}.cls-4{fill:#1b1b1b;}.cls-5{fill:#1c1c1c;}.cls-6{fill:#f4822a;}</style></defs><g id="Background"><rect class="cls-1" x="1.5" y="1.5" width="193.62" height="193.62"></rect></g><g id="EXPLORE_OTHERS_PATHS" data-name="EXPLORE OTHERS&#x2019; PATHS"><path d="M57.91,168.93c.44-2.48-.59-4.21-2.39-5.94C49.9,157.61,44.44,152.07,39,146.54a27,27,0,1,1,37.65.24c-4.37,4.34-8.71,8.71-13.08,13.05a11.32,11.32,0,0,1-1.12.9c.36.53.71.36,1,.36h84a13.2,13.2,0,0,0,13.41-11.55,13.34,13.34,0,0,0-8.95-14.47,15.35,15.35,0,0,0-4.91-.69q-16.19,0-32.36,0A21.34,21.34,0,0,1,93,112.14c.33-10.88,9.65-20.18,20.54-20.34,7.5-.1,15,0,22.52,0h1.56c-.46-.49-.76-.85-1.09-1.17-4.48-4.49-9-8.93-13.45-13.45a26.93,26.93,0,0,1,8.19-43.82c16.11-7.07,34.84,3.17,37.47,20.5.06.4.05.81.08,1.21.3.72-.12,1.51.24,2.21v1.89c-.3.63-.07,1.29-.14,1.93,0,5.55-2.45,10.14-5.78,14.33-2.64,3.31-5.85,6.09-8.81,9.1q-5.25,5.34-10.59,10.58a3.93,3.93,0,0,0-1.31,3.09c.06,1.88-.18,2.07-2.09,2.07-8.67,0-17.34,0-26,0a12.84,12.84,0,1,0,.25,25.68c11,0,22,0,33,0a21.62,21.62,0,0,1,20.9,15.47,12.36,12.36,0,0,1,.41,3.73c.07.65-.16,1.31.14,1.94v1.35c-.28.59-.07,1.22-.14,1.83.11,4.75-2.14,8.55-5,12a20.59,20.59,0,0,1-8.44,5.85,19.05,19.05,0,0,1-3.65.81Z" transform="translate(-1.69 -1.69)"></path><path class="cls-2" d="M169.05,57.25c-.5-.69-.27-1.46-.24-2.21a.34.34,0,0,0,.24.06Z" transform="translate(-1.69 -1.69)"></path><path class="cls-3" d="M169.05,61l-.25,0c0-.66-.24-1.34.25-1.93Z" transform="translate(-1.69 -1.69)"></path><path class="cls-4" d="M168.82,145.1l.23.09v1.89C168.57,146.47,168.78,145.78,168.82,145.1Z" transform="translate(-1.69 -1.69)"></path><path class="cls-5" d="M169.05,150.32a.21.21,0,0,1-.23.08c0-.67-.25-1.36.23-2Z" transform="translate(-1.69 -1.69)"></path><path class="cls-6" d="M59.23,108.51a17.9,17.9,0,0,1,16,11.44c3.14,7.37,1.9,14.32-3.53,20.22-4.19,4.56-8.73,8.79-13.09,13.2-.56.56-.85.5-1.37,0-4.27-4.31-8.6-8.55-12.84-12.88A18.69,18.69,0,0,1,40.5,120C43.48,113,50.34,108.49,59.23,108.51Z" transform="translate(-1.69 -1.69)"></path><path class="cls-6" d="M161,59A17.47,17.47,0,0,1,156,70.71c-4.35,4.53-8.87,8.91-13.29,13.38-.51.51-.79.48-1.28,0-4.39-4.43-9-8.72-13.19-13.29a17.74,17.74,0,0,1-3.93-19,17.84,17.84,0,0,1,15-12.35C150.76,37.68,160.94,46.47,161,59Z" transform="translate(-1.69 -1.69)"></path><path d="M58,122.8a4,4,0,1,1-4.08,4A4.07,4.07,0,0,1,58,122.8Z" transform="translate(-1.69 -1.69)"></path><path d="M146.12,57.47a4,4,0,1,1-4.05-4A4.06,4.06,0,0,1,146.12,57.47Z" transform="translate(-1.69 -1.69)"></path></g></svg>