<svg xmlns="http://www.w3.org/2000/svg" viewBox="0 0 196.62 196.62"><defs><style>.cls-1{fill:#fff;stroke:#2c6eb5;stroke-miterlimit:10;stroke-width:3px;}.cls-2{fill:#fefefe;}.cls-3{fill:#010101;}.cls-4{fill:#fcfcfc;}.cls-5{fill:#fdfdfd;}.cls-6{fill:#ea8023;}</style></defs><g id="Layer_3" data-name="Layer 3"><rect class="cls-1" x="1.5" y="1.5" width="193.62" height="193.62"></rect></g><g id="Layer_2" data-name="Layer 2"><path class="cls-2" d="M135.25,30.58c10.51,0,21,0,31.55,0,.79,0,.95.16.94.95q0,66.8,0,133.6c0,.78-.15.94-.94.94q-66.8,0-133.6,0c-.79,0-1-.16-.94-.94q0-66.81,0-133.6c0-.79.15-.95.94-.95,11.49,0,23,0,34.46,0,0,.58-.54.64-.92.8a10.7,10.7,0,0,0-3.34,2.31Q52.3,44.81,41.18,55.89a8.77,8.77,0,0,0-2.7,6.5q0,33.8,0,67.58a5.58,5.58,0,0,0,.22,1.95A1.38,1.38,0,0,0,40.18,133a1.45,1.45,0,0,0,1.36-1.24,8.66,8.66,0,0,0,.1-2V63.92c0-3.12,0-3.12,3.16-3.12H63.14c3.61,0,5.16-1.55,5.16-5.13,0-6.34,0-12.67,0-19,0-2.32.18-2.52,2.45-2.52h62c3,0,3.92,1,3.93,4,0,5.46,0,10.91,0,16.37a7.58,7.58,0,0,0,.08,1.58,1.35,1.35,0,0,0,1.35,1.2,1.4,1.4,0,0,0,1.53-1,4.08,4.08,0,0,0,.18-1.43c0-5.9,0-11.79,0-17.69a6,6,0,0,0-3.69-5.76C135.79,31.21,135.27,31.16,135.25,30.58Z" transform="translate(-1.69 -1.69)"></path><path d="M135.25,30.58c2.46.85,4.3,2.31,4.86,5a6.48,6.48,0,0,1,.14,1.31c0,6.2,0,12.41,0,18.61a2,2,0,0,1-1.52,2.3c-1.41.36-2.43-.59-2.44-2.27,0-5.89,0-11.79,0-17.69,0-2.68-.64-3.3-3.36-3.3q-31.35,0-62.7,0c-1.15,0-1.53.21-1.52,1.47.07,6.64,0,13.28,0,19.93,0,3.5-1.78,5.29-5.25,5.29-6.64,0-13.29,0-19.93,0-1.16,0-1.52.22-1.52,1.47q.08,33.92,0,67.84c0,2.1-.66,3.09-2,3s-1.94-1-1.94-3q0-34.05,0-68.1a9.06,9.06,0,0,1,2.84-6.82Q51.73,44.92,62.4,34.12a12.23,12.23,0,0,1,5.26-3.54Z" transform="translate(-1.69 -1.69)"></path><path d="M77.39,94.78c-2.32,0-4.59,0-6.86,0-1.58,0-2.46-.67-2.51-1.88s.92-2.07,2.51-2.07c3.34,0,6.69,0,10,0a2.7,2.7,0,0,0,1.9-.68A33,33,0,0,1,88,86.5c-.34-.4-.76-.2-1.11-.2q-8.11,0-16.24,0a2.47,2.47,0,0,1-2.14-.76,2,2,0,0,1,1.2-3.17,6.74,6.74,0,0,1,1.19,0c11,0,22,0,33,0,14.12.06,24.74,6.26,32,18.37.1.16.12.42.49.45v-1.3q0-17,0-34a2.51,2.51,0,0,1,.64-2.07,1.92,1.92,0,0,1,2-.42A1.87,1.87,0,0,1,140.23,65a9.52,9.52,0,0,1,0,1.31v74.06a2.49,2.49,0,0,0,.5,2,1.11,1.11,0,0,1,.25,1.24c-.75,1.13.14,1.63.74,2.26.37.38.76.73,1.12,1.12.54.59,1,1.11,2,.6.72-.37,1.43.12,2,.68,4.66,4.67,9.34,9.33,14,14A2,2,0,1,1,158,165c-4-3.94-7.93-7.88-11.84-11.87-.73-.74-1.12-.92-1.91-.05-1.5,1.67-3.13,3.22-4.74,4.78-.47.45-.55.73,0,1.21,1.06,1,2.07,2,3.09,3.07s1.1,2.16.28,3a1.92,1.92,0,0,1-3-.19c-.83-.94-1.41-1.21-2.49-.26a5.93,5.93,0,0,1-4.11,1.08q-40.59,0-81.18,0c-2.51,0-5,0-7.53,0a6.22,6.22,0,0,1-6.44-6.39c0-6,0-12.06,0-18.09,0-1.55.74-2.43,2-2.44s2,.86,2,2.42c0,5.8,0,11.61,0,17.42,0,2.41.73,3.13,3.17,3.13h87.92a6.36,6.36,0,0,0,1.31-.06c1.22-.26,1.38-.76.51-1.64a2,2,0,0,1-.6-2.47c.39-.72-.13-1-.51-1.27-1.07-.68-1.38-2.5-3-2.22a2.53,2.53,0,0,1-2.51-.67c-1.42-1.45-2.9-2.83-4.27-4.31a1.34,1.34,0,0,0-2-.29Q102.89,159,84.56,147.23a8.58,8.58,0,0,1-1.89-1.42,6.26,6.26,0,0,0-5.65-2c-2.23.16-4.49,0-6.73,0-1.42,0-2.3-.81-2.28-2a2.05,2.05,0,0,1,2.23-2c2.07,0,4.14,0,6.23,0C66.24,124.67,66.54,109.69,77.39,94.78Z" transform="translate(-1.69 -1.69)"></path><path class="cls-3" d="M91.3,75.61H71a6.84,6.84,0,0,1-1.57-.12A1.76,1.76,0,0,1,68,73.62a1.79,1.79,0,0,1,1.51-1.88A7.74,7.74,0,0,1,71,71.65h40.61c2.06,0,3,.59,3,1.92s-.93,2-3,2Z" transform="translate(-1.69 -1.69)"></path><path d="M61.31,98.13c0,1.66,0,3.33,0,5s-.71,2.34-2.2,2.36c-3.43.05-6.85.05-10.28,0a1.93,1.93,0,0,1-2.12-2.15q-.06-5.2,0-10.4a1.88,1.88,0,0,1,2-2.09c3.51,0,7-.06,10.53,0a1.93,1.93,0,0,1,2,2.14C61.34,94.7,61.31,96.41,61.31,98.13Z" transform="translate(-1.69 -1.69)"></path><path d="M54,110.05c1.67,0,3.34,0,5,0a2,2,0,0,1,2.28,2.28c0,3.35,0,6.69,0,10a2,2,0,0,1-2.25,2.3q-5.09.06-10.16,0a1.94,1.94,0,0,1-2.2-2.21q0-5.08,0-10.16c0-1.54.75-2.23,2.3-2.25S52.35,110.05,54,110.05Z" transform="translate(-1.69 -1.69)"></path><path d="M54,129.28c1.72,0,3.43,0,5.15,0a2,2,0,0,1,2.2,2.21q0,5.08,0,10.16a2,2,0,0,1-2.2,2.22c-3.39,0-6.77,0-10.16,0-1.5,0-2.23-.68-2.24-2.15q-.06-5.15,0-10.29c0-1.48.74-2.13,2.25-2.15C50.62,129.25,52.29,129.27,54,129.28Z" transform="translate(-1.69 -1.69)"></path><path d="M54,86.28c-1.63,0-3.26,0-4.89,0s-2.39-.69-2.4-2.41c0-3.3,0-6.6,0-9.9,0-1.6.66-2.29,2.22-2.31q5.09,0,10.17,0c1.53,0,2.21.77,2.22,2.32q0,5,0,9.9c0,1.68-.73,2.38-2.44,2.39S55.62,86.28,54,86.28Z" transform="translate(-1.69 -1.69)"></path><path class="cls-2" d="M45.2,57.24,64.72,37.72c.21.27.07.68.07,1.05,0,5.63,0,11.26,0,16.89,0,1.15-.24,1.63-1.53,1.61C57.27,57.2,51.25,57.24,45.2,57.24Z" transform="translate(-1.69 -1.69)"></path><path class="cls-2" d="M73,118a31.64,31.64,0,1,1,31.71,31.56A31.69,31.69,0,0,1,73,118Z" transform="translate(-1.69 -1.69)"></path><path class="cls-2" d="M126.47,146a38.29,38.29,0,0,0,5.92-5.88c.32-.4.55-.32.83,0a1.62,1.62,0,0,0,.18.19c.93.94,2.51,1.83,2.59,2.83s-1.61,1.89-2.52,2.84-1.88,1.84-2.78,2.81c-.48.52-.79.65-1.33,0C128.47,147.92,127.49,147,126.47,146Z" transform="translate(-1.69 -1.69)"></path><path class="cls-4" d="M141,150.75c-.12.14-.22.28-.34.4a7.4,7.4,0,0,1-.56.56c-.91.79-1.67,2.44-2.64,2.29s-1.84-1.61-2.77-2.48c-.38-.35-.53-.61-.06-1,.9-.83,1.74-1.73,2.62-2.6.23-.23.44-.59.84-.19l2.7,2.71A2.15,2.15,0,0,1,141,150.75Z" transform="translate(-1.69 -1.69)"></path><path class="cls-5" d="M57.37,98.17c-.11,1.09.45,2.5-.22,3.17s-2.09.18-3.18.2-2.41.34-3-.18-.22-2.06-.25-3.14-.36-2.5.18-3.19,2.06-.22,3.14-.23,2.5-.49,3.16.2S57.26,97.09,57.37,98.17Z" transform="translate(-1.69 -1.69)"></path><path class="cls-2" d="M57.4,117.46c0,1,.3,2.39-.26,3.05s-2,.2-3.13.2-2.49.49-3.16-.22-.19-2.1-.18-3.18-.5-2.51.22-3.12,2-.16,3.06-.18h.13c1.05,0,2.45-.35,3.05.18S57.24,116.25,57.4,117.46Z" transform="translate(-1.69 -1.69)"></path><path class="cls-2" d="M50.63,136.44c.12-1-.43-2.39.23-3s2-.18,3-.17,2.61-.51,3.25.23.19,2.08.19,3.16.34,2.4-.18,3.05-2,.2-3,.21-2.59.49-3.3-.18S50.76,137.56,50.63,136.44Z" transform="translate(-1.69 -1.69)"></path><path class="cls-2" d="M57.26,79c0,1.08.58,2.51-.14,3.14s-2,.16-3.06.16-2.56.37-3.17-.19-.22-2.13-.23-3.26c0-3.26,0-3.28,3.23-3.25,1.12,0,2.62-.5,3.26.23S57.26,77.93,57.26,79Z" transform="translate(-1.69 -1.69)"></path><path d="M78.81,117.57c.45-10.07,5-18.08,14.45-22.74s18.47-3.52,27,2.51a5.48,5.48,0,0,1,1,.86,1.81,1.81,0,0,1,.12,2.42,1.88,1.88,0,0,1-2.46.61,4.86,4.86,0,0,1-1-.68,21.82,21.82,0,1,0,6.24,7.52,2.71,2.71,0,0,1-.49-1.87,1.91,1.91,0,0,1,1.71-1.59,2,2,0,0,1,2.11,1.26,25.38,25.38,0,0,1,2.92,13.74,25.81,25.81,0,0,1-51.18,2.67C79,120.84,79,119.39,78.81,117.57Z" transform="translate(-1.69 -1.69)"></path><path class="cls-6" d="M102.71,121.53v-3.17c0-2,.47-2.52,2.52-2.74a5.47,5.47,0,0,0,3.83-8.72,5.39,5.39,0,0,0-5.74-2.05,5.29,5.29,0,0,0-4,4.39c-.07.35-.09.7-.15,1.05a2,2,0,1,1-3.92-.23,9.33,9.33,0,0,1,.92-3.94,9.46,9.46,0,0,1,18,3.34,9.3,9.3,0,0,1-6.33,9.59,1.37,1.37,0,0,0-1.12,1.67c0,1.49,0,3,0,4.49s-.85,2.28-2,2.25-1.87-.88-1.89-2.24S102.71,122.76,102.71,121.53Z" transform="translate(-1.69 -1.69)"></path><path class="cls-6" d="M104.7,129.57a1.78,1.78,0,0,1,1.75,1.75,1.76,1.76,0,0,1-1.87,1.75,1.75,1.75,0,0,1,.12-3.5Z" transform="translate(-1.69 -1.69)"></path></g></svg>