<svg xmlns="http://www.w3.org/2000/svg" id="Layer_1" data-name="Layer 1" viewBox="0 0 999.02 998.1"><defs><style>.cls-1{fill:#d2d2d2;}.cls-2{fill:#fefefe;}.cls-3{fill:#f58741;}</style></defs><path d="M223.26,1040c-7.08-4.77-9.81-11.38-9.58-19.92.38-14.28-.15-28.58.22-42.86.15-5.66-1.76-7.05-7.18-7-20.74.09-41.49,1-62-4.21-59-15-100.9-66.55-101.8-125.9-.89-57.7,38.2-109.32,95.68-126.22a135.2,135.2,0,0,1,15.15-3.37c6.9-1.18,12.22,1.74,15.39,7.73,3.29,6.19,1.31,12-2.93,17.06-1.85,2.18-4.45,3.72-6.75,5.5-23.22,18-32.12,50.84-21.11,78s42.48,46.93,69.5,44.3c5.28-.51,4.43-3.45,4.44-6.56,0-14,.07-27.93,0-41.9-.05-7.5,1.16-14.47,8.47-18.34s13,.84,18.51,4.83q69.56,50.79,139,101.71c15.06,11,15.05,19.28.19,30.2L233,1040Z" transform="translate(-40.04 -41.88)"></path><path d="M40,227.14c5.35-8,12.8-10.35,22.29-10.08,13,.35,26-1.06,38.94-1,6.71,0,8.75-1.59,8.11-8.74-2.08-23-2.77-46.14,4.75-68.49C130.48,90.24,161.29,56.17,213,45.69c65.84-13.35,133.17,29.86,150.4,95.2.66,2.51,1.36,5,2,7.53,1.94,8.07.64,15.13-7.55,18.9-7.91,3.64-14.4,1.1-19.52-5.79-10.94-14.73-25.42-24.08-43.56-26.87-46.05-7.11-81.66,31.4-79.39,75.22.28,5.53,3.65,4.14,6.62,4.09,14.29-.25,28.58-.44,42.87-.92,6.92-.23,13.43.78,16.71,7.41,3.17,6.41.72,12.47-3.21,18.18Q229.22,310,180.25,381.39c-9,13-18.25,12.83-28.15.1Q100.41,315,48.58,248.58c-3-3.8-5.7-7.79-8.54-11.7Z" transform="translate(-40.04 -41.88)"></path><path class="cls-1" d="M833.36,1040c0-.54-.07-1.07-.07-1.61,4.58-4,9.18-4,13.78,0A11.38,11.38,0,0,0,847,1040Z" transform="translate(-40.04 -41.88)"></path><path d="M260.52,751.9c.1-5.17,2.79-9.17,5.77-13.09,12-15.76,23.75-31.68,35.94-47.27,3.11-4,3.29-6.82.61-11-14-22-24.39-45.75-29.9-71.3-1.44-6.67-5.51-6.89-10.28-7.51-19.3-2.53-38.63-4.83-57.89-7.63-12.53-1.82-16.52-6.87-16.55-19.61q-.08-33.62,0-67.24c0-12.56,4.1-17.53,16.81-19.38q27.93-4.08,56-7.3c7.06-.8,11.22-2.59,13.16-10.7A227.14,227.14,0,0,1,302.52,402c2.8-4.49,3-7.44-.47-11.87-12.28-15.52-24-31.46-35.91-47.29-8-10.65-7.64-15.67,1.9-25.27q24-24.19,48.22-48.25c8.67-8.65,13.95-9.23,23.73-2,15.9,11.79,31.77,23.62,47.28,35.91,4.83,3.83,8.16,4.12,13.48.81a230.2,230.2,0,0,1,67.88-28.18c6.95-1.69,9.14-5.16,9.87-11.78,2.16-19.34,4.71-38.65,7.51-57.91,1.73-11.88,6.94-16,19.05-16.08q34.09-.1,68.21,0c11.89,0,17.06,4.33,18.81,16.36,2.76,18.94,5.34,37.92,7.4,56.94.76,6.92,2.94,10.67,10.25,12.47a233.27,233.27,0,0,1,68.68,28.82c4.84,3,7.71,2.14,11.81-1.08,15.07-11.8,30.48-23.18,45.74-34.73,11.82-8.95,16.63-8.77,26.84,1.38q23.84,23.72,47.53,47.56c9.24,9.29,9.73,15.82,1.66,26.37-11.44,15-22.88,29.91-34.79,44.49-4.05,5-4.84,8.4-1.12,14.25,13.46,21.18,23.48,44,28.67,68.65,1.36,6.44,4.73,8,10.41,8.71,19.33,2.29,38.65,4.74,57.91,7.53,12.66,1.83,16.74,6.85,16.78,19.42q.09,34.11,0,68.21c-.05,11.42-4.37,16.81-15.64,18.46-19.26,2.82-38.56,5.45-57.91,7.5-7.12.76-10.47,3.3-12.27,10.51a232.7,232.7,0,0,1-28.42,67.8c-3.18,5.06-2.63,8.17.92,12.66,12.06,15.29,23.63,31,35.31,46.53,8.06,10.75,7.76,15.82-1.67,25.33q-23.67,23.87-47.53,47.54c-9.54,9.47-16.66,9.94-27.39,1.71-15.45-11.85-30.84-23.77-46-36-3.64-2.91-6.26-3.15-10.21-.66a232.62,232.62,0,0,1-72.22,30.28c-6.31,1.46-6.37,5.32-6.95,9.68-2.62,19.62-4.94,39.28-7.78,58.86-1.72,11.86-7,16.06-19.06,16.1q-34.1.12-68.21,0c-11.89-.05-17.06-4.33-18.81-16.37-2.79-19.26-5.34-38.57-7.5-57.91-.75-6.7-3.42-9.85-10.13-11.53a234.47,234.47,0,0,1-67.84-28.3c-4.92-3.07-8-3.08-12.67.6-15.51,12.28-31.42,24.07-47.3,35.89-10.25,7.63-15.38,7.19-24.55-1.91-16.6-16.48-33.06-33.09-49.66-49.56C263.22,759.66,260.71,756.45,260.52,751.9Z" transform="translate(-40.04 -41.88)"></path><path d="M868.62,248.51c0,6.82-.38,13.66.11,20.44.51,7.06-2.19,12-8.2,15.17-6.36,3.38-12.19,2.44-18.17-1.69-30.65-21.23-61.47-42.23-92.22-63.33q-25.67-17.61-51.3-35.28c-13.58-9.42-14.07-20.69-1.22-30.59Q766.25,100.34,835,47.62c5.24-4,10.65-7.73,17.75-4.52,7.41,3.35,9.79,9.3,10.19,17.21.74,14.9,2.8,29.74,3.45,44.65.31,7.1,3.9,6.65,8.84,6.3,20.75-1.44,41.61-2.92,61.93,2.95,51.25,14.82,88.18,46.21,98.87,99.35,15.59,77.55-30.29,139-100.3,155.77-8.49,2-15.73.42-19.82-7.88s-.74-14.6,6.21-20.17c25-20,33.36-49.3,22.62-77.37s-40.64-46.63-71.85-45.05c-4.78.25-6.11,1.68-5.71,6.29.67,7.76.79,15.57,1.14,23.35Z" transform="translate(-40.04 -41.88)"></path><path d="M847.07,1038.34l-13.78,0c-62.77-4.17-110.4-44.62-123.86-105-1.93-8.62-2-16.84,6.94-21,8.59-4,15.29.33,21,7.3,20.42,24.94,50.1,34.14,77.17,24.3,27.32-9.92,46.62-39.53,46.4-70.31,0-5.63-2.2-6.22-6.8-6.15-14.28.22-28.57,0-42.85.1-7.27,0-13.63-1.77-17.13-8.77-3.32-6.65.49-11.86,4.15-16.86q51.38-70.31,102.86-140.52c8.86-12.07,19.77-12.27,28.58-.3q51.86,70.55,103.42,141.31c3.7,5.06,7,10.43,3.45,17s-9.64,8.17-16.51,8.16c-14.61,0-29.23.34-43.82-.15-6.56-.22-8.21,1.91-8.12,8.24.32,22.68.89,45.34-6,67.52C945.79,996,901.9,1032.52,847.07,1038.34Z" transform="translate(-40.04 -41.88)"></path><path class="cls-2" d="M241,994.71c0-12.17,0-22.16,0-32.15,0-18.88-3.27-22-21.79-22.28-19.79-.29-39.71,1.81-59.33-1.72-38.86-7-67.56-28.06-82.5-64.9-13.58-33.51-8.54-65.5,13.13-94.61a57.45,57.45,0,0,1,15-14.41c-4.45,16.94-5.13,33-2,48.79,9.45,47.86,48.53,79.06,101.39,81.35a193.92,193.92,0,0,0,21.43-.11c10-.69,14.45-5.52,14.64-15.68.22-11.65.05-23.31.05-34.9,3.51-1.35,5,1.45,6.9,2.84q46.5,33.71,92.86,67.59c2.71,2,8.19,3.27,1.73,7.84C309.18,946,276,969.73,241,994.71Z" transform="translate(-40.04 -41.88)"></path><path class="cls-2" d="M165.54,351.89l-80-105.62c12.93,0,24.1.11,35.27,0,13.59-.16,18.65-5.55,18.82-18.94.27-21.41-3.34-42.89-.12-64.19,6-39.42,26.21-69.18,63.75-84.08,35.71-14.18,69.33-7.32,99.64,16a56,56,0,0,1,5.73,5.27c.58.59.73,1.61,1.6,3.68-5.38-.61-9.94-1.32-14.53-1.62-59.4-3.85-106.69,39.12-109,99.11-.33,8.43-.29,16.89-.11,25.33.25,12.1,6.17,17.94,18.14,17.69,11-.24,22-.95,34.83-1.54-12.75,18.82-24.81,36.66-36.91,54.47S178.21,333.31,165.54,351.89Z" transform="translate(-40.04 -41.88)"></path><path class="cls-2" d="M749.12,781.14c-2.12-1.57-3.94-2.86-5.71-4.22-13.88-10.68-27.92-21.18-41.58-32.15-8.5-6.83-17.6-7.28-26.12-1.92-27.41,17.25-56.41,30.28-88.28,36.69-8.25,1.66-12.62,7.15-13.72,15.56-2.38,18.34-5.28,36.61-7.38,55-.83,7.19-2.6,11-11,10.3-10.64-.85-21.42-.44-32.13-.1-5.24.16-7.19-1.33-7.82-6.88-2.11-18.69-5-37.29-7.5-55.94-1.36-10.09-6.34-16.55-16.81-18.57-29-5.6-55.55-17.2-80.43-32.91-13.8-8.72-18.26-8.49-31.37,1.59-13.64,10.48-27.33,20.89-40.79,31.59-3.64,2.88-5.89,3.37-9.39-.39q-12.62-13.53-26.15-26.19c-3.71-3.47-3.57-5.67-.53-9.47,11.53-14.46,22.74-29.18,34-43.86,8.2-10.71,8.53-15.25,1.43-26.3C321.32,647.33,310,619.6,303,590.05c-3.16-13.26-6.62-16.19-20.43-18.06-18.31-2.5-36.59-5.33-54.95-7.41-5.23-.59-6.4-2.46-6.29-7.23.28-11.36.59-22.76-.09-34.08-.42-7,2.54-8.71,8.63-9.39,16.76-1.88,33.48-4.16,50.19-6.48s19.59-5.41,23.39-22.12c6.16-27.1,17.15-52.22,32-75.67,8.71-13.72,8.48-18.65-1.37-31.42-10.3-13.37-20.45-26.86-31.05-40-3.5-4.32-4.14-6.9.43-11,8.89-8.06,17.29-16.69,25.5-25.45,3.39-3.62,5.68-3.43,9.37-.52,15,11.87,30.51,23.14,45.34,35.23,8.15,6.65,15.52,6.46,23.87,1,26.78-17.62,55.61-30.41,87.27-36.4,10.45-2,13.61-9.75,14.83-19.13,2.33-18,5.24-36,7.13-54,.69-6.61,3.4-7.74,9.18-7.53a304.91,304.91,0,0,0,32.14-.07c7-.48,8.74,2.48,9.46,8.51,2,16.43,4.52,32.78,6.51,49.2,2,16.87,5,20.69,21.18,24.22,27.86,6.08,53.44,17.5,77.48,32.63,12.81,8.06,18.06,7.82,29.83-1.27,13.61-10.5,27.4-20.8,40.76-31.62,4.33-3.51,6.86-4,10.92.43,7.84,8.65,16.13,16.95,24.77,24.8,4.5,4.09,4.06,6.77.55,11.15-11.76,14.69-22.87,29.9-34.7,44.53-5.74,7.09-6.4,13.47-1.34,21.13a251.53,251.53,0,0,1,37,88.12c1.75,8.4,6.76,13,15.12,14.1,19,2.6,37.89,5.39,56.89,7.66,6.21.74,9,2.57,8.57,9.52-.67,11.32-.39,22.73-.09,34.08.13,4.84-1.25,6.63-6.34,7.22-18.35,2.14-36.62,5-55,7.4-12.22,1.59-17.07,5.54-19.71,17.67A246.8,246.8,0,0,1,746.69,670c-8.09,12.77-7.62,18.4,1.86,30.66,10.32,13.35,20.39,26.89,31,40,3.5,4.33,4.14,6.93-.39,11-8.87,8.09-17.09,16.88-25.6,25.36C752.2,778.46,750.73,779.68,749.12,781.14Z" transform="translate(-40.04 -41.88)"></path><path class="cls-2" d="M835.3,89.51c0,11.33-.18,22.65,0,34,.26,13.08,5.6,17.92,18.57,18.09,21.08.28,42.24-3.22,63.2-.06,40.2,6.06,70.48,26.77,84.63,65.54,13.53,37,5.66,71.43-20,101.51-1.42,1.66-3.18,3-6.34,6,7.18-26.63,5.36-50.67-7-73.06-17.75-32.1-45.5-49.82-81.86-53.58-10.94-1.13-22.05-1-33.07-.76s-16.27,6.21-16.29,17.34,0,22.45,0,34.58c-35.68-24.28-71.19-48.43-107.54-73.15L832.14,88.68Z" transform="translate(-40.04 -41.88)"></path><path class="cls-2" d="M761.93,976.83c16.12,1.75,32,2.89,47.73-.19,46.19-9,78.16-46.9,81.51-96.28a248.63,248.63,0,0,0,.25-25.32c-.37-11-5.39-15.82-16.49-16-11.55-.2-23.11,0-36.53,0,26.13-35.87,51.22-70.34,77.15-106l77.18,106c-13.93,0-25.81-.14-37.68,0-11.7.18-16.32,5-16.67,16.59-.61,20.43,1.63,41-1.42,61.29-6.29,42-28.6,72.54-68.6,86.9-38.93,14-74,4.13-103.64-24.73A35.5,35.5,0,0,0,761.93,976.83Z" transform="translate(-40.04 -41.88)"></path><path class="cls-3" d="M706.66,541.09c-1.75,94.17-73.1,167.92-169.45,167.13-91.91-.75-167-72.15-165.39-170.78,1.52-90.86,72.09-164.69,169.52-163.68C633.41,374.71,704.82,445.72,706.66,541.09Z" transform="translate(-40.04 -41.88)"></path><path class="cls-2" d="M539.19,406.47c69.25-3.3,138.67,61,134.81,141.49-3,63.38-60.24,132-142.93,127.88-62.55-3.12-131-60-126.88-142.84C407.36,468.9,465.33,403.83,539.19,406.47Z" transform="translate(-40.04 -41.88)"></path></svg>