<svg xmlns="http://www.w3.org/2000/svg" id="Layer_1" data-name="Layer 1" viewBox="0 0 196.62 196.62"><defs><style>.cls-1{fill:#fff;stroke:#2c6eb5;stroke-miterlimit:10;stroke-width:3px;}.cls-2{fill:#1a1a1a;}.cls-3{fill:#292929;}.cls-4{fill:#010101;}.cls-5{fill:#fefefe;}.cls-6{fill:#f4822a;}</style></defs><rect class="cls-1" x="1.5" y="1.5" width="193.62" height="193.62"></rect><path d="M79.37,178.83a4.58,4.58,0,0,1-2.2-4.2,46.65,46.65,0,0,0-1-8.23c-.64-3-2.49-4.42-5.4-4.82-3.72-.51-7.47-.41-11.2-.59-6.87-.32-11.79-3.67-14.76-9.85a15.71,15.71,0,0,1-1.43-6.86c0-3.85-.08-7.7,0-11.54.05-1.43-.47-1.79-1.73-1.9a18,18,0,0,1-7.31-2.14c-4.41-2.43-6.11-6.63-4.67-11.47a20.31,20.31,0,0,1,3-5.83,82.3,82.3,0,0,0,6.06-10.14c1.67-3.32,1.36-6.88,1.76-10.36C42.67,72,52.39,58.19,69,49.21a50.23,50.23,0,0,1,24.55-5.84,2,2,0,0,0,2.1-1.24c6.54-11.58,16.42-18.41,29.53-20.58.6-.1,1.22-.07,1.83-.11,1-.33,2.14.13,3.16-.27h1.54c.92.41,1.92-.05,2.86.26a38.24,38.24,0,0,1,24.71,11.73,39.94,39.94,0,0,1-11.75,64.36A2.21,2.21,0,0,0,146,99.63,52.32,52.32,0,0,1,137.85,124a82,82,0,0,0-5.69,10.87c-.92,2.11-2.5,2.89-4.23,2.17s-2.34-2.51-1.41-4.66A96.33,96.33,0,0,1,133,120a47.4,47.4,0,0,0,6.6-18.2c.19-1.29.09-1.61-1.4-1.32-21.72,4.34-43.36-10.76-46.89-32.6a40.36,40.36,0,0,1,.84-17.22c.09-.34.13-.69.22-1.17a44,44,0,0,0-16.23,3.2C59.72,59.6,49.8,71.79,46.87,89.47c-.44,2.62-.26,5.33-.62,8-.69,5-3.23,9.34-5.88,13.56-1.14,1.82-2.44,3.55-3.56,5.38-2.7,4.43-1.71,6.76,3.32,8a26.07,26.07,0,0,0,5.64.63c2.67,0,3.73,1.14,3.75,3.76,0,1.49,0,3,0,4.47,0,.77.19,1,1,1.09a23,23,0,0,1,9.24,3.12c2,1.1,2.62,2.78,1.74,4.44s-2.66,2-4.65,1a20.69,20.69,0,0,0-6.14-2.34c-.82-.15-1.25-.12-1.18.89a40.4,40.4,0,0,0,.2,4.91,10.33,10.33,0,0,0,10,8.55c3.69.1,7.38.09,11.06.53,6.85.81,10.49,4.2,11.66,11,.29,1.71.5,3.45.65,5.18.08.84.36,1.1,1.21,1.1q17.94,0,35.87,0c.89,0,1.11-.25,1.07-1.11q-.22-4.92-.31-9.85c0-2.1,1.23-3.5,3-3.51a3.15,3.15,0,0,1,3.11,3.47c0,4.51.2,9,.52,13.53a3.82,3.82,0,0,1-2,3.61Z" transform="translate(-1.69 -1.69)"></path><path class="cls-2" d="M130.17,21.17c-1,.6-2.1.28-3.16.27a.3.3,0,0,0,.08-.27Z" transform="translate(-1.69 -1.69)"></path><path class="cls-3" d="M134.57,21.43a4.53,4.53,0,0,1-2.86-.26h2.77A1.14,1.14,0,0,0,134.57,21.43Z" transform="translate(-1.69 -1.69)"></path><path d="M63.84,95.07a17.87,17.87,0,0,1-5.25-1.63,17.41,17.41,0,0,0-5-1.49,3,3,0,0,1-2.56-3.14,3.09,3.09,0,0,1,3.16-2.93,14,14,0,0,1,5.2,1.23,23.37,23.37,0,0,0,6.1,2A2.9,2.9,0,0,1,68,92.41C67.79,94.11,66.44,95.13,63.84,95.07Z" transform="translate(-1.69 -1.69)"></path><path class="cls-4" d="M125.21,150.53a3,3,0,0,1-3.1-2.9,3.07,3.07,0,0,1,3-3.23,3.17,3.17,0,0,1,3.15,3.1A3.07,3.07,0,0,1,125.21,150.53Z" transform="translate(-1.69 -1.69)"></path><path class="cls-4" d="M53.42,102.86a3.07,3.07,0,0,1,3.07-3.13,3.11,3.11,0,0,1,3,3,3.08,3.08,0,0,1-3.1,3.1A3,3,0,0,1,53.42,102.86Z" transform="translate(-1.69 -1.69)"></path><path class="cls-5" d="M130.82,27.33a33.87,33.87,0,1,1-33.9,33.8A33.91,33.91,0,0,1,130.82,27.33Z" transform="translate(-1.69 -1.69)"></path><path class="cls-6" d="M158.5,59.79c0,22.53-23,35.91-41.2,25.6-2.47-1.4-2.81-3.51-.82-5.5q16.47-16.5,33-33c2-2,4.14-1.7,5.51.77A26.73,26.73,0,0,1,158.5,59.79Z" transform="translate(-1.69 -1.69)"></path><path class="cls-6" d="M130.78,33.41A28.82,28.82,0,0,1,144.31,37c2.46,1.36,2.77,3.51.77,5.52q-16.47,16.5-33,33c-2,2-4.1,1.64-5.5-.83-9.6-17,1.28-38.53,20.66-40.94C128.43,33.6,129.61,33.52,130.78,33.41Z" transform="translate(-1.69 -1.69)"></path><path class="cls-5" d="M151.17,54.46c2.82,6.76.72,16-5.09,21.91S131,84.4,124,81.58Z" transform="translate(-1.69 -1.69)"></path><path class="cls-5" d="M110.5,68.16c-3-7-.71-16.64,5.41-22.54,6.35-6.11,15.67-7.3,21.81-4.68Z" transform="translate(-1.69 -1.69)"></path></svg>