<svg xmlns="http://www.w3.org/2000/svg" viewBox="0 0 196.62 196.62"><defs><style>.cls-1{fill:#fff;stroke:#2c6eb5;stroke-miterlimit:10;stroke-width:3px;}.cls-2{fill:#fefefe;}.cls-3{fill:#f4822a;}.cls-4{fill:#fbfbfb;}</style></defs><g id="Background"><rect class="cls-1" x="1.5" y="1.5" width="193.62" height="193.62"></rect></g><g id="SOURCE_6:_STRUCTURAL_ABILITY" data-name="SOURCE 6: STRUCTURAL ABILITY"><path d="M140.2,43.71c0-2.48,0-4.84,0-7.2a4.75,4.75,0,0,1,5.05-5.09q11.53,0,23.05,0a4.71,4.71,0,0,1,5,5q0,16.24,0,32.5a4.45,4.45,0,0,1-2.09,4.14c-.89.52-.8,1-.55,1.76a48.68,48.68,0,0,1-1.76,36.09,47.25,47.25,0,0,1-12.14,16.51c-.92.81-1.19,1.35-.47,2.47,1.39,2.16,1.32,2.21-.9,3.5l-3.47,2c1.75,1,3.32,2,4.93,2.88.62.34.68.6.32,1.21-2.08,3.56-4.13,7.15-6.15,10.74-.34.59-.59.74-1.23.33-1.53-1-3.12-1.82-4.89-2.84,0,2,0,3.75,0,5.53,0,.81-.17,1.09-1,1.09q-6.06-.08-12.12,0c-.9,0-1-.34-1-1.11.05-1.76,0-3.53,0-5.53-1.61,1-3.1,1.76-4.52,2.69-.85.55-1.26.5-1.77-.45-1.62-3-3.37-5.88-5-8.84a2.31,2.31,0,0,0-2-1.4,48.2,48.2,0,0,1-12.77-3.37c.1,11.89,0,23.82.07,35.75,0,1-.36,1.17-1.25,1.16q-27.11,0-54.21,0c-1.19,0-1.33-.38-1.32-1.4.05-4.73,0-9.46,0-14.18.07-11.34,4.47-20.59,13.41-27.62a1.76,1.76,0,0,0,.78-1.6q-.08-3.09,0-6.2c0-.83-.2-1.07-1.05-1.06-3.49,0-7,0-10.49,0A18.94,18.94,0,0,1,31.45,102.1c0-.4,0-.79,0-1.18.06-2,.16-3.65-2.19-4.9s-3-3.9-2.31-6.6q3.48-13,7-26a1.88,1.88,0,0,0-.8-2.4,16,16,0,0,1-6.48-13c0-2.21,0-4.43,0-6.65,0-3.3,1.92-5.22,5.21-5.22q19.73,0,39.45,0a2.85,2.85,0,0,0,2.39-1,25.9,25.9,0,0,1,41.91,5.16,1.65,1.65,0,0,0,2,1,47.74,47.74,0,0,1,21.12,2Z" transform="translate(-1.69 -1.69)"></path><path class="cls-2" d="M144.9,123.15c0-2-.06-3.77,0-5.53,0-1-.29-1.13-1.16-1.12-4,0-8,0-12,0-.84,0-1.08.24-1.05,1.07.06,1.77,0,3.54,0,5.54-1.65-1-3.22-1.82-4.74-2.76-.68-.43-1-.42-1.46.35-1.95,3.52-3.94,7-6,10.49-.5.84-.26,1.12.47,1.5,1.47.79,2.9,1.65,4.56,2.6a18.1,18.1,0,0,1-5.49-.21,45,45,0,0,1-22-9.15,1.88,1.88,0,0,1-.79-1.73c0-7,0-14,0-21a1.22,1.22,0,0,1,1-1.42,11.69,11.69,0,0,0,8.47-11.62c0-2.27.1-4.54,0-6.8a9.94,9.94,0,0,1,1.92-6c1.86-2.92,4.22-5.44,6.32-8.17,4-5.16,6.24-10.88,6-17.48a23.74,23.74,0,0,0-.69-4.82c-.17-.68-.15-.91.65-1a45.9,45.9,0,0,1,20.32,2.49c.89.32,1,.8,1,1.62q0,9.32,0,18.62c0,3.51,1.86,5.36,5.37,5.37,6.2,0,12.41,0,18.61,0a1.41,1.41,0,0,1,1.6,1.06c6.41,16.64,1.52,36.78-11.79,48.63-.8.72-1,.49-1.43-.29-.48-1-1.09-1.87-1.59-2.83-.3-.57-.58-.63-1.14-.28C148.3,121.2,146.72,122.08,144.9,123.15Z" transform="translate(-1.69 -1.69)"></path><path class="cls-2" d="M64.55,168.53c-3.59,0-7.19,0-10.78,0-.42,0-1.07.29-1-.58.15-5.26-.47-10.56.46-15.78a28.75,28.75,0,0,1,12.68-19.45,2.09,2.09,0,0,0,1.07-2c-.07-2.8,0-5.61,0-8.42,0-.85.26-1.16,1.07-1a.75.75,0,0,0,.15,0c1.12,0,2.63.38,3.28-.19s.11-2.22.26-3.37-.28-1.19-1.21-1.19c-6.75,0-13.49.06-20.24,0a14.22,14.22,0,0,1-14-14.33c0-2.71,0-5.42,0-8.12,0-.81-.05-1.31-1.07-1.18-3,.38-4.25-.42-3.16-4.15C34.24,81,36.26,73.1,38.34,65.27c.27-1,.49-1.37,1.73-1.13,4.09.78,8.25.27,12.38.36a9.92,9.92,0,0,1,5.07,1.32,9.28,9.28,0,0,1,4.65,7.92c.06,1.37,0,2.75,0,4.13,0,.63.15.87.82.84,1.08,0,2.17,0,3.25,0a5.58,5.58,0,0,1,1.65,10.85,40.16,40.16,0,0,1-4.71,1.21c-.8.16-1,.49-1,1.27a24.74,24.74,0,0,0,21.64,25.37c2,.27,3.88.64,5.82.93.72.1,1,.41.94,1.15-.06,1.87,0,3.75,0,5.62,0,.72-.22.85-.9.92a14.14,14.14,0,0,0-13.3,14.58q0,13.29,0,26.59c0,1.1-.25,1.38-1.36,1.36C71.54,168.48,68.05,168.53,64.55,168.53Z" transform="translate(-1.69 -1.69)"></path><path class="cls-2" d="M69.73,40.87a31.82,31.82,0,0,0-2.22,6.35A25.16,25.16,0,0,0,72.07,68c1.6,2.19,3.35,4.25,5,6.39.73.93,1.42,1.89,2.08,2.87a10.83,10.83,0,0,1,2,6.63,40.71,40.71,0,0,0,.16,8.55,11.51,11.51,0,0,0,8.19,9.37c.43.14,1.09,0,1.08.89,0,3.63,0,7.27,0,11-5.48-.91-11-1.26-15.56-4.78A20.1,20.1,0,0,1,67.15,96c-.19-1.09.11-1.42,1.11-1.67a9.94,9.94,0,0,0,7.87-8,10.19,10.19,0,0,0-7.8-12c-1-.21-1.4-.43-1.51-1.6A14.12,14.12,0,0,0,52.76,59.79c-3.11,0-6.21,0-9.31,0a11.82,11.82,0,0,1-12-12c0-2,0-4,0-6.06,0-.54,0-.9.74-.9C44.64,40.88,57.09,40.87,69.73,40.87Z" transform="translate(-1.69 -1.69)"></path><path class="cls-3" d="M100,69.25c0-2.81,0-5.62,0-8.42,0-.83.2-1.11,1.05-1.07a9.41,9.41,0,0,0,3.08-.21,7.09,7.09,0,1,0-8.83-7.06c-.09,2.57-.09,2.57-2.46,2.57s-2.23,0-2.28-2.31a7.08,7.08,0,1,0-7.2,7c2.48.07,2.48.07,2.48,2.55q0,7.77,0,15.52c0,.28.24.76-.3.82-.35,0-.46-.29-.58-.57-1.55-3.75-4.22-6.73-6.71-9.83-2.71-3.34-5.11-6.83-6.1-11.14-2.64-11.5,5.48-23.6,17.14-25.4a21.27,21.27,0,0,1,24.91,21.93,20.39,20.39,0,0,1-3.74,10.86c-1.52,2.25-3.27,4.31-5,6.41A30.3,30.3,0,0,0,100.94,78c-.14.31-.21.74-.64.67s-.28-.55-.28-.84C100,75,100,72.1,100,69.25Z" transform="translate(-1.69 -1.69)"></path><path class="cls-2" d="M81.1,153.46c0-4.33,0-8.66,0-13a9.46,9.46,0,1,1,18.9.05c0,8.9,0,17.81,0,26.71,0,1-.13,1.34-1.23,1.33-5.51-.07-11-.06-16.53,0-1,0-1.2-.28-1.19-1.22C81.12,162.71,81.1,158.08,81.1,153.46Z" transform="translate(-1.69 -1.69)"></path><path class="cls-2" d="M144.93,52.57c0-5.08,0-10.15,0-15.22,0-.92.17-1.24,1.18-1.23q10.64.08,21.27,0c.93,0,1.24.19,1.23,1.19q-.06,15.36,0,30.73c0,.92-.18,1.23-1.19,1.23q-10.64-.08-21.27,0c-1.12,0-1.23-.39-1.22-1.34C145,62.81,144.93,57.69,144.93,52.57Z" transform="translate(-1.69 -1.69)"></path><path class="cls-2" d="M128.49,135.25a4.41,4.41,0,0,0-2.7-4.08c-1.29-.59-1.24-1.22-.5-2.15a2.42,2.42,0,0,0,.21-.39c1.22-2.11,1.22-2.11,3.4-1.17a4.69,4.69,0,0,0,6.59-4.26c.07-2,.07-2,2-2h.15c2.34,0,2.34,0,2.5,2.25a4.73,4.73,0,0,0,6.85,3.85c1.87-.92,1.87-.92,2.84.77,1.18,2.07,1.18,2.07-.76,3.49a4.63,4.63,0,0,0,.46,7.88c1.48.83,1.6,1.5.62,2.68a.76.76,0,0,0-.07.13c-1.19,2.07-1.19,2.07-3.29,1.13a4.71,4.71,0,0,0-6.66,4.16c-.08,2-.08,2-2.12,2h-.3c-2.15,0-2.15,0-2.28-2.18a4.65,4.65,0,0,0-7.15-3.71c-1.21.71-1.83.7-2.36-.66-.34-.86-1.29-1.65-1.26-2.44s1.35-.94,2-1.5A4.69,4.69,0,0,0,128.49,135.25Z" transform="translate(-1.69 -1.69)"></path><path class="cls-3" d="M95.28,69.34c0,2.75,0,5.51,0,8.27,0,.76-.09,1.1-1,1.11-3.75,0-3.75.09-3.75-3.67,0-4.68,0-9.35,0-14,0-1.07.3-1.27,1.3-1.26,3.45,0,3.45,0,3.45,3.37Z" transform="translate(-1.69 -1.69)"></path><path class="cls-2" d="M93,83.42c2,0,4,0,6,0,.75,0,1,.17,1,1,.09,3.78.11,3.78-3.63,3.78-3.2,0-6.4,0-9.6,0-.75,0-1-.17-1-1-.08-3.78-.11-3.78,3.63-3.78Z" transform="translate(-1.69 -1.69)"></path><path class="cls-2" d="M86.45,93H99.36a6.67,6.67,0,0,1-6.28,4.66A6.76,6.76,0,0,1,86.45,93Z" transform="translate(-1.69 -1.69)"></path><path class="cls-3" d="M85.83,53.67c.26,1-.14,1.48-1.41,1.42-2.21-.11-3.34-.84-3.31-2.43a2.36,2.36,0,0,1,2.35-2.32C85,50.33,85.82,51.43,85.83,53.67Z" transform="translate(-1.69 -1.69)"></path><path class="cls-3" d="M100,53.51c0-2,.69-3,2.06-3.16a2.42,2.42,0,0,1,2.62,1.85,2.35,2.35,0,0,1-1.8,2.78,7.29,7.29,0,0,1-2.33.05C99.43,54.88,100.34,53.9,100,53.51Z" transform="translate(-1.69 -1.69)"></path><path d="M123.65,90.56a7.09,7.09,0,1,1-7-7.13A7.12,7.12,0,0,1,123.65,90.56Z" transform="translate(-1.69 -1.69)"></path><path d="M142.56,90.48a7.09,7.09,0,1,1-7.05-7A7.12,7.12,0,0,1,142.56,90.48Z" transform="translate(-1.69 -1.69)"></path><path d="M154.45,83.43a7.09,7.09,0,1,1-7.16,6.94A7.11,7.11,0,0,1,154.45,83.43Z" transform="translate(-1.69 -1.69)"></path><path d="M156.75,40.87c2.06,0,4.13,0,6.2,0,.71,0,.88.19.91.9.14,3.84.17,3.84-3.72,3.84-3.15,0-6.3,0-9.45,0-.83,0-1.05-.22-1.06-1,0-3.7-.07-3.7,3.57-3.7Z" transform="translate(-1.69 -1.69)"></path><path d="M156.86,50.33c2,0,3.94,0,5.91,0,.78,0,1.08.13,1.09,1,0,3.73.09,3.73-3.68,3.73-3.15,0-6.3,0-9.45,0-.79,0-1.09-.13-1.1-1,0-3.73-.08-3.73,3.69-3.73Z" transform="translate(-1.69 -1.69)"></path><path d="M156.61,64.51c-2,0-4,0-6.05,0-.69,0-.9-.17-.93-.89-.15-3.86-.17-3.86,3.71-3.86,3.15,0,6.3,0,9.45,0,.81,0,1.06.18,1.07,1,0,3.7.08,3.7-3.56,3.7Z" transform="translate(-1.69 -1.69)"></path><path d="M137.9,128.35a7.09,7.09,0,1,1-7.15,6.94A7.1,7.1,0,0,1,137.9,128.35Z" transform="translate(-1.69 -1.69)"></path><path class="cls-4" d="M118.91,90.53a2.36,2.36,0,1,1-2.3-2.37A2.37,2.37,0,0,1,118.91,90.53Z" transform="translate(-1.69 -1.69)"></path><path class="cls-4" d="M135.44,88.16a2.36,2.36,0,1,1-2.33,2.35A2.38,2.38,0,0,1,135.44,88.16Z" transform="translate(-1.69 -1.69)"></path><path class="cls-4" d="M156.74,90.46a2.36,2.36,0,1,1-2.38-2.3A2.38,2.38,0,0,1,156.74,90.46Z" transform="translate(-1.69 -1.69)"></path><path class="cls-4" d="M137.79,137.79a2.36,2.36,0,1,1,2.4-2.27A2.37,2.37,0,0,1,137.79,137.79Z" transform="translate(-1.69 -1.69)"></path></g></svg>