<svg xmlns="http://www.w3.org/2000/svg" viewBox="0 0 196.62 196.62"><defs><style>.cls-1{fill:#fff;stroke:#2c6eb5;stroke-miterlimit:10;stroke-width:3px;}.cls-2{fill:#f4822a;}.cls-3{fill:#fefefe;}</style></defs><g id="Background"><rect class="cls-1" x="1.5" y="1.5" width="193.62" height="193.62"></rect></g><g id="GIVE_A_SAFE_SPACE_TO_TALK" data-name="GIVE A SAFE SPACE TO TALK"><path d="M64.66,147.16c0-4.66,0-9.33,0-14,0-1-.25-1.35-1.32-1.34-5.81,0-11.63,0-17.45,0-7.25,0-11.93-4.68-11.94-11.95q0-19.19,0-38.37c0-6.4,3.71-10.83,9.74-11.76A11.12,11.12,0,0,1,56.06,78.9a22.12,22.12,0,0,1,.2,3.15q0,13,0,26c0,1.15.24,1.52,1.46,1.51,5.87-.07,11.74,0,17.61,0,6.82,0,11.6,4.66,11.63,11.46q.09,19.56,0,39.12a11.14,11.14,0,0,1-22,2.8,14.21,14.21,0,0,1-.29-3.44C64.65,155.39,64.66,151.28,64.66,147.16Z" transform="translate(-1.69 -1.69)"></path><path d="M166,100.87c0,6.32,0,12.64,0,19,0,7.37-4.67,12-12,12-5.72,0-11.44,0-17.16,0-1.3,0-1.54.38-1.53,1.59.05,8.78,0,17.56,0,26.34,0,5.53-3,9.79-7.74,11.28-7.39,2.31-14.48-3-14.55-11-.07-7.78,0-15.55,0-23.33q0-7.61,0-15.2c0-7.29,4.65-11.94,11.91-12,5.77,0,11.54,0,17.31,0,1.17,0,1.5-.27,1.5-1.48-.06-8.87,0-17.75,0-26.63,0-5.74,3.33-10.07,8.62-11.37,6.52-1.61,13.31,3.15,13.55,9.85.25,7,.06,14,.06,20.92Z" transform="translate(-1.69 -1.69)"></path><path class="cls-2" d="M104.19,74H84.93c-2.41,0-3-.61-3-3,0-1.25-.07-2.51,0-3.76.08-1-.34-1.23-1.27-1.21-3.86,0-7.73,0-11.59,0-1.08,0-2-.19-2.47-1.28a2.35,2.35,0,0,1,.78-2.69c1.74-1.81,3.41-3.68,5.17-5.46a2.88,2.88,0,0,0,.9-2.25c0-7.62,0-15.24,0-22.87,0-2.48.61-3.08,3.11-3.08h38.36c2.58,0,3.17.6,3.17,3.18,0,1.26,0,2.51,0,3.76,0,.88.27,1.1,1.11,1.09,3.91,0,7.82,0,11.73,0,1.08,0,2,.18,2.49,1.27a2.38,2.38,0,0,1-.77,2.7c-1.73,1.81-3.42,3.68-5.17,5.46a2.94,2.94,0,0,0-.91,2.25c0,7.62,0,15.24,0,22.86,0,2.52-.57,3.07-3.12,3.07Z" transform="translate(-1.69 -1.69)"></path><path d="M99.91,99.37H69.53c-2.51,0-3.12-.6-3.13-3.08,0-3.1,0-6.21,0-9.32,0-2.11.71-2.84,2.79-2.84h61.66c2,0,2.73.73,2.75,2.72q0,4.89,0,9.77c0,2.07-.74,2.75-2.86,2.75Z" transform="translate(-1.69 -1.69)"></path><path d="M154.93,34.37a16.66,16.66,0,1,1-16.7,16.43A16.73,16.73,0,0,1,154.93,34.37Z" transform="translate(-1.69 -1.69)"></path><path d="M45.26,34.58A16.63,16.63,0,1,1,28.42,51,16.65,16.65,0,0,1,45.26,34.58Z" transform="translate(-1.69 -1.69)"></path><path class="cls-3" d="M38.18,100.7c0-6.57,0-13.14,0-19.71a6.65,6.65,0,0,1,3.68-6.26,6.54,6.54,0,0,1,7,.3,7.09,7.09,0,0,1,3.21,6.42q0,14.43,0,28.88c0,3,.47,3.44,3.52,3.44H75.14c4.76,0,7.61,2.79,7.62,7.53q0,19.24,0,38.51c0,5.85-5.52,9.38-10.33,6.65a6.78,6.78,0,0,1-3.55-6.35c0-4.11,0-8.22,0-12.33,0-5.72,0-11.44,0-17.16,0-2.43-.57-3-3-3q-9.93,0-19.86,0c-5,0-7.79-2.78-7.8-7.83Z" transform="translate(-1.69 -1.69)"></path><path class="cls-3" d="M161.82,100.81q0,9.48,0,19c0,5.13-2.76,7.86-7.91,7.87q-9.93,0-19.86,0c-2.33,0-2.91.58-2.91,3q0,14.6,0,29.19c0,3.89-2,6.6-5.33,7.37-4.49,1-8.47-2.19-8.54-7-.06-4,0-8,0-12,0-8.83.09-17.65,0-26.48-.07-4.76,3.19-8.06,7.93-7.91,6.56.2,13.14,0,19.7,0,2.5,0,3.11-.61,3.11-3.1,0-9.78,0-19.56,0-29.34,0-3.91,2.23-6.66,5.8-7.3a6.75,6.75,0,0,1,8,6c.19,2.84.09,5.71.1,8.57,0,4.06,0,8.12,0,12.18Z" transform="translate(-1.69 -1.69)"></path><path class="cls-3" d="M73.66,61.57c.94-1,1.85-2,2.84-3a3.8,3.8,0,0,0,1.17-3c0-7.17,0-14.34,0-21.52,0-1.15.25-1.5,1.46-1.5q16.71.09,33.41,0c1.13,0,1.4.27,1.4,1.4-.05,8.87,0,17.75,0,26.63,0,.84-.07,1.22-1.09,1.22q-19.19-.06-38.38,0C74.19,61.81,73.92,61.9,73.66,61.57Z" transform="translate(-1.69 -1.69)"></path><path class="cls-3" d="M126.54,40.63a7.64,7.64,0,0,1-.73.82c-3,2.23-3.71,5.17-3.54,8.81.29,6.05.06,12.13.1,18.2,0,1-.21,1.37-1.3,1.37q-16.86-.08-33.71,0c-1,0-1.27-.24-1.25-1.25,0-2.54,0-2.55,2.47-2.55q13.24,0,26.48,0c2.43,0,3-.58,3-3,0-7,0-13.94,0-20.91,0-1.31.36-1.59,1.58-1.53C121.82,40.7,124,40.63,126.54,40.63Z" transform="translate(-1.69 -1.69)"></path><path class="cls-3" d="M100.08,88.34c9.28,0,18.55,0,27.82,0,1.13,0,1.64.21,1.52,1.46a23.21,23.21,0,0,0,0,3.91c.08,1.14-.22,1.53-1.46,1.51-5.71-.07-11.42,0-17.14,0-12.83,0-25.66,0-38.49,0-1.29,0-1.93-.2-1.75-1.67.21-1.68-.69-3.88.36-4.91s3.14-.26,4.78-.26C83.84,88.32,92,88.34,100.08,88.34Z" transform="translate(-1.69 -1.69)"></path><path class="cls-3" d="M155,38.59a12.45,12.45,0,1,1-12.57,12.27A12.47,12.47,0,0,1,155,38.59Z" transform="translate(-1.69 -1.69)"></path><path class="cls-3" d="M45.06,63.63A12.42,12.42,0,1,1,57.55,51.29,12.47,12.47,0,0,1,45.06,63.63Z" transform="translate(-1.69 -1.69)"></path><path class="cls-2" d="M95.64,44.39H86c-1.63,0-2.57-.79-2.56-2.08s1-2.12,2.56-2.12c6.46,0,12.92,0,19.38,0,1.69,0,2.7.9,2.65,2.21s-1,2-2.66,2Z" transform="translate(-1.69 -1.69)"></path><path class="cls-2" d="M95.83,50.05h9.47c1.73,0,2.73.76,2.75,2.07s-1,2.13-2.68,2.14H86.14c-1.69,0-2.7-.83-2.67-2.14s1-2.07,2.75-2.07Z" transform="translate(-1.69 -1.69)"></path></g></svg>