<svg xmlns="http://www.w3.org/2000/svg" id="Layer_1" data-name="Layer 1" viewBox="0 0 364.53 264.57"><defs><style>.cls-1{font-size:10px;fill:#fff;font-family:Metric-Regular, Metric Regular;letter-spacing:-0.04em;}</style></defs><path d="M308.16,81.77l-.18-.53c-.22-.69-.45-1.38-.69-2.06l-.13-.37c-.28-.78-.56-1.56-.85-2.34-.86-2.29-1.59-4-2-4.94-.08-.16-.15-.33-.23-.48a.33.33,0,0,1,0-.06l0,0,0,0h0c0-.05-.08-.16-.15-.3h0c-.07-.15-.17-.34-.29-.57l0,0-.16-.31-.05-.09c-.06-.11-.12-.21-.18-.33l-.06-.11-.2-.36a.57.57,0,0,1-.08-.13l-.22-.37-.11-.18c-.07-.12-.14-.24-.22-.36s-.09-.15-.14-.23-.15-.24-.23-.36l-.15-.24-.24-.37-.18-.26c-.08-.13-.17-.25-.26-.38l-.19-.27-.27-.39-.22-.3-.28-.38-.24-.31c-.1-.13-.19-.26-.3-.39l-.25-.32-.31-.39-.28-.33c-.11-.12-.21-.25-.32-.38l-.3-.34-.34-.38-.31-.33-.36-.39-.33-.33-.37-.38L296,60l-.39-.38-.36-.32-.41-.37-.38-.32-.42-.35-.4-.31-.44-.34-.42-.31-.45-.32-.44-.29-.46-.31-.46-.28-.48-.29-.47-.26-.5-.27-.49-.24-.52-.25-.5-.22-.53-.22-.18-.07a13.57,13.57,0,0,1-4.91,4c.18.11.35.21.51.33s.28.2.42.31l.52.4.4.36.48.45c.13.13.26.27.38.41l.45.49.36.45.41.54.33.49c.13.19.26.39.38.59s.21.34.31.52.23.42.34.63.19.37.28.56.21.44.31.67.17.38.25.58.18.47.27.71.15.41.22.61l.24.76.18.63c.07.26.14.53.2.8s.11.42.15.64.11.57.16.85l.12.65c.05.3.08.61.12.92s.06.41.08.62.06.71.08,1.06c0,.18,0,.35,0,.53,0,.54,0,1.08,0,1.63V90.06c.42.31,1.39,1,2.33,1.85h0c6.05,0,13.29-1.63,15.78-7.87a.48.48,0,0,1,.2-.24C308.59,83.12,308.38,82.44,308.16,81.77Z"></path><path d="M168.13,259.91a8.35,8.35,0,0,1-4.44,1.07c-1.81.09-3.62.06-5.42,0a27.62,27.62,0,0,1-3.64-.11,17.4,17.4,0,0,1-2.56-.73,21.85,21.85,0,0,1-5.35-2.64c-.37.17-.76.31-1.13.44-1.48.5-3,.88-4.52,1.26h0a12,12,0,0,0-3.78,1.56,5.65,5.65,0,0,0-.51.34,5.27,5.27,0,0,0-1.65,2c0,.08,0,.17-.08.26h36.71v-6.18a4.5,4.5,0,0,0-1.85,1.09A12.19,12.19,0,0,1,168.13,259.91Z"></path><path d="M259.5,54.38l-.13,0c-.39.16-.79.31-1.17.49L258,55c-.48.22-.95.47-1.42.72l-.24.13c-.43.24-.84.51-1.25.77l-.58.38c-.33.22-.64.45-.95.68l-.38.27a35.62,35.62,0,0,0-7.81,8.57c-.68,1-1.35,2.11-1.93,3.22-.13.26-.26.52-.38.78-.06.11-.11.23-.17.35l0,.08,0,.05c-1,2-2,4-2.88,6.06s-1.93,4.25-2.85,6.39l-.43,1c0,.08-.08.17-.13.27a1.63,1.63,0,0,0-.11.23c0,.07-.05.13-.07.19s0,.06,0,.09,0,0,0,.09a1.12,1.12,0,0,0,.13.24,4.69,4.69,0,0,0,1.13,1,25.14,25.14,0,0,0,4.82,2.66.12.12,0,0,0,0,0c.13-.15.27-.29.41-.44l.06-.07c.25-.26.52-.5.79-.74l.41-.36.64-.49c.19-.14.39-.27.59-.4a7.17,7.17,0,0,1,.75-.46l.35-.2a13.89,13.89,0,0,1,6.22-1.69V80.74c0-1.14,0-2.27,0-3.41,0-1.72.05-3.43.21-5.14.1-1,.22-2,.41-3a18.59,18.59,0,0,1,.75-2.72c.07-.21.14-.42.22-.63a19.29,19.29,0,0,1,2-3.89,9.66,9.66,0,0,1,1.27-1.52c.59-.6,1.24-1.15,1.88-1.69.36-.29.73-.56,1.1-.82a13.81,13.81,0,0,1,1.56-.95A11.2,11.2,0,0,1,259.5,54.38Z"></path><path d="M195.67,260.12a6.22,6.22,0,0,1-2.72-.93,9.12,9.12,0,0,0-5.11-1.27,8.82,8.82,0,0,0-5.7,1.85,5.55,5.55,0,0,1-2.39,1.13c-.06.62-.17,1.78-.25,2.58h16.56c0-.49-.05-1-.09-1.37A19.7,19.7,0,0,0,195.67,260.12Z"></path><path d="M173.37,33.57a5.28,5.28,0,0,0-3,.93.38.38,0,0,0,.46.6,4.55,4.55,0,0,1,2.52-.78,5.24,5.24,0,0,1,2.66.79.42.42,0,0,0,.21.06.36.36,0,0,0,.31-.16.37.37,0,0,0-.09-.52A6,6,0,0,0,173.37,33.57Z"></path><path d="M174.81,36.4a7,7,0,0,0-3.9-.06.52.52,0,0,0-.35.62.5.5,0,0,0,.61.35,6,6,0,0,1,3.38,0,.5.5,0,1,0,.26-1Z"></path><path d="M268.84,27a4.6,4.6,0,0,1,2.53-.78A5.24,5.24,0,0,1,274,27a.33.33,0,0,0,.21.07.37.37,0,0,0,.31-.17.37.37,0,0,0-.1-.52,6,6,0,0,0-3.08-.92,5.37,5.37,0,0,0-3,.93.38.38,0,0,0-.07.53A.37.37,0,0,0,268.84,27Z"></path><path d="M263.39,28.66a.56.56,0,1,0-1.12,0,.56.56,0,0,0,1.12,0Zm-.75,0a.19.19,0,1,1,.38,0C263,28.86,262.64,28.86,262.64,28.66Z"></path><path d="M270.86,28.09a.57.57,0,0,0-.56.57.56.56,0,1,0,1.12,0A.57.57,0,0,0,270.86,28.09Zm-.19.57a.19.19,0,1,1,.38,0C271.05,28.86,270.67,28.86,270.67,28.66Z"></path><path d="M171.75,68h0a.08.08,0,0,0,0,0A0,0,0,0,1,171.75,68Z"></path><path d="M172.59,68.22h0S172.58,68.12,172.59,68.22Z"></path><path d="M172.17,67.61h0Z"></path><path d="M81.81,26.2a.42.42,0,0,0,.21-.06,5.24,5.24,0,0,1,2.66-.79,4.6,4.6,0,0,1,2.53.78.37.37,0,0,0,.52-.08.38.38,0,0,0-.07-.52,5.28,5.28,0,0,0-3-.93,5.88,5.88,0,0,0-3.08.92.36.36,0,0,0-.1.52A.36.36,0,0,0,81.81,26.2Z"></path><path d="M93.22,27.19a.57.57,0,1,0,.56.57A.56.56,0,0,0,93.22,27.19Zm-.19.57a.19.19,0,1,1,.38,0C93.41,28,93,28,93,27.76Z"></path><path d="M85.19,27.19a.57.57,0,1,0,.56.57A.56.56,0,0,0,85.19,27.19Zm-.19.57a.19.19,0,1,1,.38,0C85.38,28,85,28,85,27.76Z"></path><path d="M75.09,48.31h0Z"></path><path d="M72.12,49.57l0,0,0,0C72.29,49.42,72.2,49.48,72.12,49.57Z"></path><path d="M364,263.56H288.14v-3.13a.51.51,0,0,0-.5-.5h-.32a31.56,31.56,0,0,0-.93-4.51c-1.14-4-1.32-4.83-1.33-4.86v0a2.49,2.49,0,0,0-.11-.29v-7.18h2.18a.5.5,0,0,0,.5-.47L293.42,143h0l-.49-.19c-.16-.06-.33-.11-.49-.18-6.84-2.9-7.89-11.41-7.9-11.5a.36.36,0,0,1,.33-.41.36.36,0,0,1,.41.33c0,.08,1,8,7.21,10.8.15.07.33.12.49.18a4.09,4.09,0,0,0,.49.18h0l1.09-18.81h0v-6.23c.41.07.83.16,1.25.22a19.62,19.62,0,0,0,8.95-.55,11.65,11.65,0,0,0,6.37-5.26,18.93,18.93,0,0,0,2-9.88,57.34,57.34,0,0,0-1.74-12.07,105.22,105.22,0,0,0-4.67-14.82c-.35-.89-.67-1.69-.95-2.34-.4-.95-.71-1.63-.88-1.95l0-.09h0l-.07-.14,0,0-.08-.16,0-.09a1.5,1.5,0,0,1-.09-.18s-.05-.08-.07-.13l-.11-.2a1.09,1.09,0,0,0-.08-.15l-.12-.24a1.62,1.62,0,0,1-.1-.18l-.14-.25-.13-.23-.15-.26-.14-.24-.17-.29-.17-.27-.18-.3-.18-.29c-.07-.1-.13-.21-.2-.32s-.14-.2-.2-.3l-.22-.33-.22-.32c-.08-.12-.15-.23-.24-.35l-.23-.33-.25-.35-.26-.35-.27-.36-.27-.35-.28-.37-.3-.37c-.1-.12-.19-.24-.3-.36l-.31-.37-.32-.37-.32-.36-.34-.38L298,60.5c-.11-.12-.23-.24-.34-.37l-.38-.37-.36-.36-.39-.37-.37-.35-.42-.37c-.13-.11-.25-.23-.39-.34l-.43-.36-.4-.33-.46-.35-.41-.32-.49-.34-.42-.3-.52-.34-.42-.27c-.18-.12-.37-.22-.55-.33l-.43-.25-.59-.32-.42-.22c-.2-.11-.42-.21-.63-.3l-.41-.2c-.24-.11-.48-.2-.73-.3l-.35-.15c-.37-.14-.74-.28-1.12-.4a.4.4,0,0,0-.19,0l-.09,0-.09,0-.07.06h0c-3.33-1.15-7-3.13-7.06-12.41a13.28,13.28,0,0,0,2.2-5.15c0-.13,0-.26,0-.39l.23,0c1.32-.39,2.11-2.51,2.46-6.58a3.62,3.62,0,0,0,2.1-2.33c.18-.49.31-1,.46-1.5a1.67,1.67,0,0,1,1.09-1.09,2.71,2.71,0,0,0,1.48-1.3,5,5,0,0,0,.25-2.07c0-.32,0-.64,0-.95a3.63,3.63,0,0,1,.5-1.34,3.16,3.16,0,0,0,.34-2c-.3-1.6-1.63-2.83-1.51-4.54a9,9,0,0,0,.11-2.48,3.24,3.24,0,0,0-1.23-1.89c-1.12-.85-2.68-.72-3.65-1.84-.83-.94-1.15-2.31-2.22-3a5.21,5.21,0,0,0-4-.44,5.37,5.37,0,0,1-1.24.26,3.53,3.53,0,0,1-1.78-.41A8.36,8.36,0,0,0,271,0a4.54,4.54,0,0,0-3.43,1.27,7.75,7.75,0,0,1-1.29,1.06,3.87,3.87,0,0,1-2.07.34,4.92,4.92,0,0,0-2.51.52,2.36,2.36,0,0,0-.87,1.14c-.48,1.12-.62,2.72-1.64,3.51-.48.36-1.08.53-1.56.9a3.59,3.59,0,0,0-1.17,1.65,4.73,4.73,0,0,0-.06,2,5.37,5.37,0,0,1,.24,2c-.19.81-.64,1.54-.76,2.37a3,3,0,0,0,.38,1.92c.56,1,1.53,1.55,1.87,2.67a9.76,9.76,0,0,0,1.34,3.29,2.62,2.62,0,0,0,1.06.81c0,.33,0,.66-.05,1a.38.38,0,0,0,0,.33,43.3,43.3,0,0,0,.36,7.54,20.77,20.77,0,0,0,1,3.85s0,0,0,0a9.58,9.58,0,0,0,2.52,4.41,5.77,5.77,0,0,0,.62.51,4.71,4.71,0,0,0,1.52.83l.12,0a7.55,7.55,0,0,0,.9.25c-.14.78-.3,1.5-.48,2.14,0,.1-.07.19-.09.28-1.42,4.63-3.91,5.59-6.36,6.41h0a.5.5,0,0,0-.43-.06l-.44.16h0l-.18.07a25.08,25.08,0,0,0-4.86,2.43l-.45.3-.43.29c-.45.32-.89.64-1.31,1a36.88,36.88,0,0,0-9.27,10.93l0,0-.31.53-.24.46c-.13.24-.25.46-.33.64-.21.4-.31.63-.32.65h0a174.73,174.73,0,0,0-8.58,19.71,65.29,65.29,0,0,0-3,11.16,20,20,0,0,0,.14,9.11,7.58,7.58,0,0,0,5.16,5.12,14.71,14.71,0,0,0,8.66-.28,40.86,40.86,0,0,0,8.41-3.76v11.69h0L238.86,182a.44.44,0,0,0,0,.16l4.36,60.66a.5.5,0,0,0,.5.46h0l3.11,0V245h0v1.26a.5.5,0,0,0-.6.22c-2.05,4.66-6.78,7.2-11.51,8.45-1.94.5-3.93.73-5.89,1.14a11.26,11.26,0,0,0-4.86,2,5.71,5.71,0,0,0-1.54,1.94h-.11a.51.51,0,0,0-.5.47l-.14,2.27a8.89,8.89,0,0,0-.07.89H197.05v-.18c0-.31,0-.72-.07-1.23a34.33,34.33,0,0,0-1.16-6.73c-1.13-4-1.32-11.42-1.32-11.49h0v-4.61h9.78a.5.5,0,0,0,.5-.5c0-33-1.12-58.15-2.47-76.39a.14.14,0,0,0,0-.06.5.5,0,0,0,0-.13c-.75-10.17-1.57-18.19-2.3-24.23q3.06-.33,6.11-.75,2.63-.36,5.23-.81a9.73,9.73,0,0,0,2.28-.47c.78-.36.84-1.07.87-1.84a80.45,80.45,0,0,0-.59-13,28.52,28.52,0,0,0,6.79-2.5,7.54,7.54,0,0,0,3.45-3.71,12,12,0,0,0,.49-5.46,35.73,35.73,0,0,0-1.35-6.53,57.49,57.49,0,0,0-4.23-10.62c-1.19-2.22-2.57-4.36-4-6.46a71.72,71.72,0,0,0-4.73-6.49l-.12-.15c-.41-.51-.8-1-1.21-1.53a57.75,57.75,0,0,0-16.7-14.23l-.21-.11-.37-.19a36.32,36.32,0,0,0-4.82-2.12.62.62,0,0,0-.19,0,4.47,4.47,0,0,0-2-.81h-.16c-1.7-1.38-3.08-3.7-3.48-8a2.62,2.62,0,0,0,1.62.62c1.83,0,3.31-2.07,3.31-4.6a4.62,4.62,0,0,0-2.36-4.38c1.91-2.49,2.39-6.06,2.59-9.07A20.51,20.51,0,0,0,185,25.2a12,12,0,0,0-6.78-6.59l-.17-.05a4.91,4.91,0,0,0-3-3.12,9.59,9.59,0,0,0-5.62-.49c-4.18.83-7.1,3.92-6.51,6.88a4.06,4.06,0,0,0,.79,1.71,13.26,13.26,0,0,0-1.11,6.89A28.63,28.63,0,0,0,162.5,34h0c0,.23,0,.47,0,.7a.44.44,0,0,0,0,.2,43.26,43.26,0,0,0,.29,8.58c0,.35.13.81.25,1.32a5.41,5.41,0,0,0-1.17,3.47c0,2.53,1.49,4.6,3.31,4.6a2.67,2.67,0,0,0,1.66-.64,4.81,4.81,0,0,0,1.59.89c.36.11.7.19,1,.26-.55,3.07-1.51,5.25-2.91,6.65l-.09,0a8,8,0,0,0-4.21,1.52,5.59,5.59,0,0,0-1.29,1.5.54.54,0,0,0-.18.06,31.24,31.24,0,0,0-8.33,6.24A30.72,30.72,0,0,0,146,80a39,39,0,0,0-1.69,6.47c-.81-2.15-1.74-4.62-2.82-7.46a2.48,2.48,0,0,0-.36-1c-.16-.43-.33-.86-.5-1.31a2.49,2.49,0,0,0-.74-2l0,0c-.39-1-.8-2.12-1.23-3.25-.57-1.72,0-3.15.69-4.72a8.73,8.73,0,0,0,.66-5,22,22,0,0,0-2.08-5.93A3.32,3.32,0,0,0,136.22,54a1.82,1.82,0,0,0-2,.34,2.71,2.71,0,0,0-.36,2.4c.18,1,.39,2.11.58,3.16-1.36.09-2.69-1.12-3.56-2s-1.76-2.09-2.62-3.14l-2.69-3.24c-.67-.82-1.35-2.11-2.5-2.24a1.86,1.86,0,0,0-1.94,1.16l-.09-.11a1.82,1.82,0,0,0-3,2.09c0,.09.09.16.13.24a1.87,1.87,0,0,0-1.52,2.1,4,4,0,0,0,1.11,1.91,1.8,1.8,0,0,0-1.45,1.61c-.12,1.32,1,2.24,1.78,3.16,2,2.45,4.06,4.93,5.91,7.52a25.29,25.29,0,0,1,4.44,9.26c0,.06,0,.22.09.45A6.51,6.51,0,0,0,126,83a1.92,1.92,0,0,0,1.07,2,4.34,4.34,0,0,0-.16,1c-.08,2.14,2.09,2.46,3.78,2.43,2,8.62,5,20,7.49,23.54,3.47,4.89,6.28,6.87,10.24,6.87a15,15,0,0,0,2.58-.24,7.35,7.35,0,0,0,3.63-1.81v6.7c-.18.86-2.28,11.22-3.89,39a1.34,1.34,0,0,1,0,.2c-1,17.68-1.83,42.39-1.83,76.17a.51.51,0,0,0,.15.36.5.5,0,0,0,.35.14h0l9.75-.06V243h0A8.69,8.69,0,0,1,158,247a19.52,19.52,0,0,1-5.41,5.93,32.79,32.79,0,0,1-4.65,3,17.74,17.74,0,0,1-2.82,1.06c-1.37.42-2.76.81-4.12,1.24l-.46.12a12.18,12.18,0,0,0-4.36,2,4.61,4.61,0,0,0-2.18,3.2h-9.23c0-.11,0-.22,0-.33s0-.3,0-.45,0-.13,0-.2a12.69,12.69,0,0,0-.27-1.26,5.4,5.4,0,0,0-.28-.82s0,0,0,0a4.28,4.28,0,0,0-.62-1,5.25,5.25,0,0,0-1.44-1.37,11.51,11.51,0,0,0-5.51-1.37h-.11a4.68,4.68,0,0,0-1.13,0,11.77,11.77,0,0,1-4.45-.62,27.36,27.36,0,0,1-4.58-2.77,19.88,19.88,0,0,1-3.38-3,14.61,14.61,0,0,1-1.63-2.25,11.19,11.19,0,0,0,1.27.31A12.05,12.05,0,0,1,107,251.2c.46.46,1.17-.25.71-.7a12.63,12.63,0,0,0-2.59-2,2.8,2.8,0,0,0,2.09-1.17,2.1,2.1,0,0,0-1.06-3,5.33,5.33,0,0,0-3.48-.16,5.76,5.76,0,0,0-2.57,1.53,27.74,27.74,0,0,1-1-2.87.72.72,0,0,0-.11-.19v-6.24l2.17,0h0a.5.5,0,0,0,.5-.46l6.44-76.16a.48.48,0,0,0,.69-.16,24.13,24.13,0,0,0,2.85-7.32,51.71,51.71,0,0,0,.89-8.5c.09-2.11.13-4.21.13-6.32h1a.52.52,0,0,0,.64-.48V99.58c0-22.34-3.27-33.88-8.7-40.17A10.69,10.69,0,0,0,101.38,55a9.36,9.36,0,0,0-4.53-1.43l-.84-.3a.5.5,0,0,0-.34,0c-1.94-.71-3.72-2.09-4.39-6.09,0-.2-.06-.43-.08-.64,0-.38-.1-.87-.14-1.44,0-.33,0-.65-.06-1,0-.2,0-.41,0-.62,2.77-2,4.05-7,4.32-9a43.26,43.26,0,0,0,.29-8.58.44.44,0,0,0,0-.2c0-.21,0-.43,0-.64,1.26-2.38,1.31-5.34,1.2-8A36,36,0,0,0,96.21,12a.37.37,0,0,0-.36-.27l-2,.21a4.35,4.35,0,0,0-.12-2.32.38.38,0,0,0-.55-.22c-4.22,2.44-9.35.5-13.72,2.43-3.51,1.56-5.22,5.07-5.7,8.72a24.6,24.6,0,0,0-.14,3.54c-.66.18-1.72.85-1.56,3.34.31,4.77,1.12,7.19,2.56,7.62l.22,0A8.59,8.59,0,0,0,75.62,38a13.35,13.35,0,0,1,1,7.69,5.85,5.85,0,0,0-5.11.57,6,6,0,0,0-2.91,4.56c0,.24,0,.52,0,.79a91.85,91.85,0,0,0-10.68,1,8,8,0,0,0-4.37,1.74c-1.62,1.54-1.81,3.9-1.87,6.19,0,1.94,0,4.07,0,7V70l-.35.7c-5.15,11.13-5.15,20.66-5.15,66.48a.5.5,0,0,0,.5.5h2a73.22,73.22,0,0,0,1.22,13.39c.77,3.69,2,7.72,4.52,10.6A4.34,4.34,0,0,0,58,163.34l4.58,72.43a.5.5,0,0,0,.5.46h1.73v7.46a.54.54,0,0,0-.13.32s0,.21,0,.54q-.44,0-.87,0c-.89.08-2,.46-2.09,1.47s.91,1.93,1.84,2.28a5.69,5.69,0,0,0,.87.25,39.26,39.26,0,0,1-1.06,6.92,32.58,32.58,0,0,0-1,5.15h0c-.15,1.28-.21,2.32-.23,2.89H.5a.51.51,0,0,0-.5.5.5.5,0,0,0,.5.5H364a.5.5,0,0,0,.5-.5A.5.5,0,0,0,364,263.56Zm-104.09-2.63h0v2.49H222.61l0-.75.11-1.74h37.16ZM259,250.18a2.36,2.36,0,0,0-1.36.1c-.79.3-1.43.83-2.26,1.07a7.6,7.6,0,0,1-2.51.28c-1.25-.06-2.82-.4-3.46-1.6a22.81,22.81,0,0,0-1.85-2.92v-1.84l11.13-2.19H259ZM253.7,113c1-.7,5.85-3.88,11.49-3.88,2.8,0,6.84,1.82,11.12,3.76,5.28,2.38,11.23,5.07,16.79,5.36h.47v4.66H253.7Zm33.44,150.5H269.35v-2.55h17.79Zm-2.94-14a3.14,3.14,0,0,0-1.15-.31,5.12,5.12,0,0,0-4.57-2.58c-3.11,0-4.27,1.68-4.64,2.43a1.51,1.51,0,0,0-1.08.4v-4.16l11.21-2.2h.23ZM312,98.63a24.66,24.66,0,0,1-.74,10.4,11.07,11.07,0,0,1-5.37,6.3,15.71,15.71,0,0,1-8.21,1.27c-6.65-.49-13.13-3.21-19-6.15a104.83,104.83,0,0,1-12.44-7.22l-.08-.06a76.29,76.29,0,0,1,6.73-3.89,18.7,18.7,0,0,1,8.08-2.43,8.51,8.51,0,0,1,1.67.16,75.21,75.21,0,0,0,19,6.36h.1a.5.5,0,0,0,.09-1c-1-.21-2-.44-3-.67a21.84,21.84,0,0,0-4.55-8.18c10.51-.16,14.07-4.87,15.22-7.43.06.21.13.42.19.63A70.79,70.79,0,0,1,312,98.63ZM247.68,97h0c-.59.43-1.16.87-1.74,1.3-.4.29-2,1.07-2,.13a2.39,2.39,0,0,1,.39-1.13,9,9,0,0,1,1-1.38A14.85,14.85,0,0,1,248,93.53a15.8,15.8,0,0,1,3.31-1.73c.59-.23.33-1.2-.26-1a16.39,16.39,0,0,0-3.51,1.8,15.81,15.81,0,0,0-3,2.79c-.68.84-1.58,2-1.51,3.14a1.42,1.42,0,0,0,.12.46,1.22,1.22,0,0,1-1.11.34c-.79-.28-.58-1.35-.41-2a12.17,12.17,0,0,1,1.59-3.08,13,13,0,0,1,6.54-5.26c.6-.22.34-1.19-.27-1A14,14,0,0,0,242.82,93a19.08,19.08,0,0,0-1.62,2.66l-.09.19c-1.1-1.14.36-3.48,1-4.54a15.31,15.31,0,0,1,1-1.29,13.44,13.44,0,0,1,4.23-3.29c3.49-1.63,7.56-1.64,11.36-1a31.23,31.23,0,0,1,6.21,1.92,65.65,65.65,0,0,0-13.56,7.08C250,95.64,248.76,96.43,247.68,97Zm49.75-35.65.31.33.34.38.3.34c.11.13.21.26.32.38l.28.33.31.39.25.32c.11.13.2.26.3.39l.24.31.28.38.22.3.27.39.19.27c.09.13.18.25.26.38l.18.26.24.37.15.24c.08.12.16.24.23.36s.1.15.14.23.15.24.22.36l.11.18.22.37a.57.57,0,0,0,.08.13l.2.36.06.11c.06.12.12.22.18.33l.05.09.16.31,0,0c.12.23.22.42.29.57h0c.07.14.12.25.15.3h0l0,0,0,0a.33.33,0,0,0,0,.06c.08.15.15.32.23.48.43.92,1.16,2.65,2,4.94.29.78.57,1.56.85,2.34l.13.37c.24.68.47,1.37.69,2.06l.18.53c.22.67.43,1.35.63,2a.48.48,0,0,0-.2.24c-2.49,6.24-9.73,7.86-15.78,7.87h0c-.94-.8-1.91-1.54-2.33-1.85V76.41c0-.55,0-1.09,0-1.63,0-.18,0-.35,0-.53,0-.35,0-.71-.08-1.06s0-.41-.08-.62-.07-.62-.12-.92L290,71c0-.28-.1-.57-.16-.85s-.1-.43-.15-.64-.13-.54-.2-.8l-.18-.63-.24-.76c-.07-.2-.14-.4-.22-.61l-.27-.71c-.08-.2-.16-.39-.25-.58s-.2-.45-.31-.67-.18-.38-.28-.56-.22-.42-.34-.63-.2-.35-.31-.52-.25-.4-.38-.59l-.33-.49-.41-.54-.36-.45-.45-.49c-.12-.14-.25-.28-.38-.41l-.48-.45-.4-.36-.52-.4c-.14-.11-.27-.21-.42-.31s-.33-.22-.51-.33a13.57,13.57,0,0,0,4.91-4l.18.07.53.22.5.22.52.25.49.24.5.27.47.26.48.29.46.28.46.31.44.29.45.32.42.31.44.34.4.31.42.35.38.32.41.37.36.32L296,60l.35.33.37.38.33.33Zm-42.34-4.76c.41-.26.82-.53,1.25-.77l.24-.13c.47-.25.94-.5,1.42-.72l.2-.09c.38-.18.78-.33,1.17-.49l.13,0A11.2,11.2,0,0,0,262.09,57a13.81,13.81,0,0,0-1.56.95c-.37.26-.74.53-1.1.82-.64.54-1.29,1.09-1.88,1.69A9.66,9.66,0,0,0,256.28,62a19.29,19.29,0,0,0-2,3.89c-.08.21-.15.42-.22.63a18.59,18.59,0,0,0-.75,2.72c-.19,1-.31,2-.41,3-.16,1.71-.2,3.42-.21,5.14v7a13.33,13.33,0,0,0-5.16,1.2c-.36.15-.72.31-1.06.49l-.35.2c-.26.14-.51.3-.75.46s-.4.26-.59.4l-.64.49-.41.36c-.27.24-.54.48-.79.74l-.06.07c-.14.15-.28.29-.41.44a.12.12,0,0,1,0,0,25.14,25.14,0,0,1-4.82-2.66,4.69,4.69,0,0,1-1.13-1,1.12,1.12,0,0,1-.13-.24c0-.06,0-.16,0-.09s0-.06,0-.09,0-.12.07-.19a1.63,1.63,0,0,1,.11-.23c.05-.1.1-.19.13-.27l.43-1q1.38-3.21,2.85-6.39c.93-2,1.89-4.06,2.88-6.06l0-.05,0-.08c.06-.12.11-.24.17-.35.12-.26.25-.52.38-.78.58-1.11,1.25-2.18,1.93-3.22A35.62,35.62,0,0,1,253.18,58l.38-.27c.31-.23.62-.46.95-.68Zm11.25,30.62a31,31,0,0,0-12.64-2.92V78.42h0V76.71c0-1.06,0-2.12.09-3.18a34.27,34.27,0,0,1,.63-4.39,17.23,17.23,0,0,1,.67-2.43.49.49,0,0,0,0-.24,21.37,21.37,0,0,1,3.12-5.27c.32-.31.66-.6,1-.9a19.73,19.73,0,0,1,1.83-1.48,14.38,14.38,0,0,1,2.09-1.1A18.15,18.15,0,0,0,270,60a21.79,21.79,0,0,0,11.33-1.29c6,3.15,8.16,11.38,8.16,17.68v13a21.33,21.33,0,0,0-6.58-2.8A31.12,31.12,0,0,0,266.34,87.25Zm-5-68.64h0l0,.1Zm2.43,20.23a4.2,4.2,0,0,1,2-.51,14.15,14.15,0,0,1,3.47.58,5,5,0,0,1-2.66,1.23C265.65,40.22,264,39.93,263.77,38.84Zm19.52-11.53c-.34,5.35-1.29,6.73-2,7a1.39,1.39,0,0,1-.39.05c-.94-.15-.82-1.81-.8-2.5,0-1.16.11-2.33.15-3.5a6.39,6.39,0,0,1,.41-2.6,2.85,2.85,0,0,1,.39-.55.6.6,0,0,1,.08-.08,1.5,1.5,0,0,1,1-.37C282.44,24.74,283.44,25,283.29,27.31Zm-21.71,7a42.57,42.57,0,0,1-.36-7.39,3.28,3.28,0,0,1,3.09-.31,2,2,0,0,1,1.19,1.3,4,4,0,0,1-1.65,3.59,2.92,2.92,0,0,0-1.1,3.21,2.07,2.07,0,0,0,2,1.36,2.84,2.84,0,0,0,.69-.09.38.38,0,0,0,.27-.46.36.36,0,0,0-.45-.26,1.43,1.43,0,0,1-1.81-.79,2.2,2.2,0,0,1,.89-2.41,4.8,4.8,0,0,0,1.9-4.25,2.72,2.72,0,0,0-1.63-1.88,3.86,3.86,0,0,0-3.35.11c0-.55.07-1.1.13-1.65,0-.3.06-.6.1-.91.05-.46.11-.93.19-1.39,0-.18.06-.36.09-.54.06-.38.13-.76.2-1.14A4.06,4.06,0,0,1,263.67,18l.15-.11.27-.15a7,7,0,0,1,1.07-.51h0a10,10,0,0,1,1.15-.34l.13,0a14.27,14.27,0,0,1,3.44-.21h.1l.75.05c.11,0,.21,0,.32,0l.76.08.2,0c.29,0,.58.1.87.17l.2.06c.26.07.51.15.76.24l.44.18.28.13a4.23,4.23,0,0,1,.42.25l.25.15.44.34.17.14.12.12.16.17a1.54,1.54,0,0,1,.37.93.9.9,0,0,0,0,.18,2.78,2.78,0,0,0,.19,1,2.5,2.5,0,0,0,.6.63h0a2.18,2.18,0,0,1,.83,1.27,10.11,10.11,0,0,1,.26,1.54c.12,1.3.11,2.62.11,3.93-.12,2.06-.21,4.28-1.24,6.13a7.1,7.1,0,0,1-5.1,3.32c-1.82.33-3.67-.77-5.44-1.07a3.54,3.54,0,0,0-2.18.23,6.86,6.86,0,0,1-2.1.88A19,19,0,0,1,261.58,34.29Zm5.84,13.34a9.06,9.06,0,0,0,6.75-4,10,10,0,0,0,4.12-2.56c.19,9,4,11.28,7.27,12.47-2.08,2.6-5.49,4-8.67,4.62A19.17,19.17,0,0,1,265.17,57a10.8,10.8,0,0,1-4.09-3.21A8.91,8.91,0,0,0,267.42,47.63ZM247.34,113.2a19.85,19.85,0,0,1-8.78,2c-2.46-.13-5.09-1.06-6.4-3.27-1.42-2.37-1.4-5.41-1.15-8.07a50.86,50.86,0,0,1,2.43-10.68q1-3.18,2.24-6.28a10.57,10.57,0,0,0,1.72,1.49,20.43,20.43,0,0,0,4,2.3c-.09.12-.18.23-.26.36-1,1.57-2.39,4.47-.47,5.81a3.09,3.09,0,0,0,0,2.72c.75,1.19,2.11.92,3.05.19h0a2.29,2.29,0,0,0,1.83-.07,6,6,0,0,0,1.36-.86l.12-.1.22-.16c.3-.22.6-.44.91-.65h0c1.1-.62,2.36-1.42,3.69-2.27,7-4.45,17.59-11.18,30.76-8.06a21.24,21.24,0,0,1,15,13.86,70.55,70.55,0,0,1-14.58-5.29l-.06,0H283l-.08,0h-.1a13.61,13.61,0,0,0-7.59,1.08,55.51,55.51,0,0,0-8.81,4.69l-1.31.84a.56.56,0,0,0-.17.09h0l-.19.14c-2.94,1.89-5.84,3.86-8.82,5.71-.58.36-1.18.71-1.76,1.06l-1.18.67s0,.05-.06.06A56.7,56.7,0,0,1,247.34,113.2ZM196.06,263.48H179.5c.08-.8.19-2,.25-2.58a5.55,5.55,0,0,0,2.39-1.13,8.82,8.82,0,0,1,5.7-1.85,9.12,9.12,0,0,1,5.11,1.27,6.22,6.22,0,0,0,2.72.93,19.7,19.7,0,0,1,.3,2C196,262.53,196,263,196.06,263.48Zm-2.56-19.54h0c0,.31.19,7.64,1.36,11.75a31.64,31.64,0,0,1,.75,3.39,5.43,5.43,0,0,1-2.18-.78,10.17,10.17,0,0,0-5.59-1.39,9.89,9.89,0,0,0-6.27,2,5.78,5.78,0,0,1-1.67.91,22.33,22.33,0,0,1,1-3.58c1.46-3.93,1.44-12,1.44-12.33,0,0,0,0,0,0v-2.68l11-1.91h.19v4.63Zm-47.91,14c.37-.13.76-.27,1.13-.44a21.85,21.85,0,0,0,5.35,2.64,17.4,17.4,0,0,0,2.56.73,27.62,27.62,0,0,0,3.64.11c1.8,0,3.61.05,5.42,0a8.35,8.35,0,0,0,4.44-1.07,12.19,12.19,0,0,0,1.78-1.59,4.5,4.5,0,0,1,1.85-1.09v6.18H135.05c0-.09,0-.18.08-.26a5.27,5.27,0,0,1,1.65-2,5.65,5.65,0,0,1,.51-.34,12,12,0,0,1,3.78-1.56h0C142.59,258.86,144.11,258.48,145.59,258Zm41-195.67a3.87,3.87,0,0,1,.21.34c0,.09.12.16.17.26a5.18,5.18,0,0,1,.21,2.89c0,.23-.11.47-.17.7a9.9,9.9,0,0,1-4.83,5.84,1.2,1.2,0,0,1-.79.23,1.68,1.68,0,0,1-.81-.56c-.36-.35-.71-.72-1-1.11A17.58,17.58,0,0,1,178,68.81a10.17,10.17,0,0,0,5.75-3.08,6.16,6.16,0,0,0,1.36-4.16,1.7,1.7,0,0,0,0-.22A3,3,0,0,1,186.63,62.31ZM220.8,98.73c1.46,3.84,2.81,8,2.92,12.14a8.21,8.21,0,0,1-1,4.67,9.16,9.16,0,0,1-4.43,3.15,41.65,41.65,0,0,1-4.82,1.55.39.39,0,0,0-.26,0l-.83.28-2.7.69c-2.23.59-4.46,1.16-6.7,1.67-1.68.39-3.36.73-5.06,1l-.49.09-.07,0-.42.07-2.81.47-1.76.28a6.06,6.06,0,0,0-.95.15,4.25,4.25,0,0,0-1,.74,16.28,16.28,0,0,1-6.51,3.3,15.33,15.33,0,0,1-5.84.34,1.17,1.17,0,0,1-.54-.24,1.94,1.94,0,0,1-.39-.48c-.39-.63,0-1.34-.33-2-.12-.25-.33-.44-.45-.68s0-.58,0-.94a1.71,1.71,0,0,0,0-.78c-.1-.34-.36-.46-.56-.73-.42-.58,0-1.26,0-1.87s-.59-.85-.66-1.43c-.12-1.07,1.3-1.76,2.08-2.15a8,8,0,0,1,1.89-.65h0a8,8,0,0,1,1.11-.17,2,2,0,0,1,.24,0,8.68,8.68,0,0,1,1.25,0c.65,0,.64-1,0-1a8.82,8.82,0,0,0-1.36,0l-.24,0-.62.07,0-.16a2,2,0,0,1,.09-.35l.09-.19a2,2,0,0,1,.19-.28,1.12,1.12,0,0,1,.18-.2l.23-.18a2.68,2.68,0,0,1,.28-.18l.07,0,.32-.11a3.86,3.86,0,0,1,1.79,0,4.58,4.58,0,0,1,.49.15l1.35.45.29.12a8.15,8.15,0,0,0,3.9.88,13.15,13.15,0,0,0,3.4-1.26c1.52-.65,3-1.32,4.56-2l.5-.23.5-.22c2.68-1.21,5.34-2.46,8-3.78l1.14-.52a.42.42,0,0,0,.16-.13l.55-.28h0a52.62,52.62,0,0,0,6.53-3.83c.52-.37,0-1.23-.51-.86h0a52,52,0,0,1-6,3.56c-.37-.7-1.15-2.14-2.3-4a.32.32,0,0,0,0-.09s-2.64-4.23-5.13-7.56a19.84,19.84,0,0,1,8-7,11.2,11.2,0,0,1,6.45-1c.27.41.54.8.8,1.21a57.21,57.21,0,0,1,3.25,5.56C219.48,95.46,220.17,97.08,220.8,98.73Zm-14.32,8.6a69.23,69.23,0,0,0-8.62.44V105.3a3.58,3.58,0,0,0,1.38.25c1.2,0,3-.46,5.5-2,1,1.69,1.72,3,2,3.62ZM214,86.05h0a12,12,0,0,0-5.06.68,18.23,18.23,0,0,0-4.32,2.38c-.54.4-1.08.81-1.59,1.25a19.36,19.36,0,0,0-3.51,4c-.2.29-.38.58-.56.89a19.56,19.56,0,0,0-1.06,2c-.08.18-.14.36-.21.53s-.2.5-.29.75a14.82,14.82,0,0,0-.46,1.53,1,1,0,0,0,0,.17,9.31,9.31,0,0,0-.21,1.1l0,0c-.26-.53-.52-1.06-.8-1.58-.39-.72-.81-1.42-1.23-2.11A43.05,43.05,0,0,0,188.7,90a.46.46,0,0,0-.38-.14.51.51,0,0,0-.33.85,41.16,41.16,0,0,1,6,7.87c.31.52.64,1,.92,1.58a26.55,26.55,0,0,1,1.91,4.25v3.44l-1.9.21c-2.16.24-4.33.5-6.48.83-1,.15-2,.31-3,.5,0-5.42,0-10.82.3-16.24a99.79,99.79,0,0,1,1.32-11.69c.18-1,.38-2,.61-3A29.49,29.49,0,0,1,190,71.7a13,13,0,0,1,1.65-2.54A5.63,5.63,0,0,1,195.93,67H196a60,60,0,0,1,7.18,6,78.81,78.81,0,0,1,5.8,6.32c.61.76,1.23,1.51,1.82,2.29q1.1,1.43,2.13,2.91C213.29,85,213.64,85.51,214,86.05Zm-29.9-25.23s0,0,0,0a5.16,5.16,0,0,1-1.18,4.38A10.12,10.12,0,0,1,177,68a.28.28,0,0,0-.11,0h0a.37.37,0,0,0-.2.19,4.37,4.37,0,0,0-.43,1.06c-.33.9-.64,1.8-1,2.71-.87,2.49-1.72,5-2.62,7.48q-.39,1.1-.81,2.19a52.48,52.48,0,0,1-3.54-13.24l0-.07a.5.5,0,0,0,0-.13h0a.41.41,0,0,0-.1-.13l-.06,0-.06,0s0,0-.07-.05a5.77,5.77,0,0,1-3.38-3c-.52-1.37,0-3.45,1.58-3.84a8.66,8.66,0,0,0,2.23,3.73,10.32,10.32,0,0,0,2.83,2.2,1.4,1.4,0,0,0-.43.63,1.79,1.79,0,0,0,0,.83,1.57,1.57,0,0,0,.25.63,1.36,1.36,0,0,0,.73.52,1.47,1.47,0,0,0,1-.1,1.57,1.57,0,0,0,.8-1.5,1.41,1.41,0,0,0-.38-1c.39-.16.77-.38,1.14-.56a22.62,22.62,0,0,0,4.54-2.94c1.5-1.28,3-2.7,3.49-4.61A8.34,8.34,0,0,0,184.09,60.82ZM172.59,68a.38.38,0,0,1,0,.15v.06s0,.1,0,.15v0l-.06.1,0,0h0l0,0v0h0l0,0s0,0,0,0l-.05,0h0l0,0,0,0h0l0,0h-.15l0,0h0l-.07,0,0,0v0l-.06-.1h0l0-.11a.43.43,0,0,1,0-.11v0a1.21,1.21,0,0,1,0-.19v0h0s0,0,0,0,0,0,0,0v0h0l0-.06h0l.09-.09.06,0,.05,0,.13,0h0l.17,0h0l.07,0h0l0,0,0,0h0l0,0,0,0h0v0l0,0,0,0,0,0h0l0,0v0a0,0,0,0,1,0,0h0s0,0,0,0,0,.06,0,.09h0Zm-.64.6h0C172,68.64,172,68.64,172,68.61Zm-.34-53.12a8.22,8.22,0,0,1,3.22.63,4.46,4.46,0,0,1,2.37,2.17,3.52,3.52,0,0,1,.15.42,2.68,2.68,0,0,1,.07.27.78.78,0,0,1,0,.16,4.17,4.17,0,0,1-1.33,3.47,7.73,7.73,0,0,1-.74.64,9,9,0,0,1-1,.67,9.73,9.73,0,0,1-2.61,1l-.24.07a9.89,9.89,0,0,1-3.1.11,7.82,7.82,0,0,1-1.57-.36,5.93,5.93,0,0,1-.89-.37,4.77,4.77,0,0,1-1.23-.9,4.28,4.28,0,0,1-.29-.33c-.09-.11-.16-.22-.24-.33a3.46,3.46,0,0,1-.45-1.11c-.5-2.56,2.15-5.25,5.93-6A10.09,10.09,0,0,1,171.61,15.49ZM184,24.67a17.76,17.76,0,0,1,1.56,8.93,28,28,0,0,1-.72,5.69,13.24,13.24,0,0,1-1.15,3.13,34.38,34.38,0,0,0,.34-8.68,21.49,21.49,0,0,0-.47-2.69A14.76,14.76,0,0,0,182,27.26c-.19-.33-.37-.67-.59-1a9.89,9.89,0,0,0-1.58-1.76,8.34,8.34,0,0,0-2.93-1.72,4.9,4.9,0,0,0,1.29-3.38A11.14,11.14,0,0,1,184,24.67Zm-3,26.4a4.54,4.54,0,0,1-.73-1.76,5.34,5.34,0,0,1-.11-1.08c0-2,1-3.59,2.27-3.81a2.7,2.7,0,0,1,.28,0,1.84,1.84,0,0,1,.47.07c1.19.33,2.09,1.89,2.09,3.78,0,2.12-1.14,3.85-2.56,3.85A2.18,2.18,0,0,1,181,51.07ZM164.35,24.14a6.49,6.49,0,0,0,.92.69c.24.14.49.26.75.38s.56.21.85.3.46.13.7.18a8.72,8.72,0,0,0,.89.16,10,10,0,0,0,1.11.07,10.61,10.61,0,0,0,2.07-.21l.18-.05a10.88,10.88,0,0,0,1.12-.3c.25-.08.49-.19.73-.29a9,9,0,0,0,1.89-1,7,7,0,0,0,.77-.65,7.66,7.66,0,0,1,3.14,1.77,9.26,9.26,0,0,1,1.37,1.55c2.49,3.51,3.15,9.19,1.95,16.44a6.22,6.22,0,0,1-.8-2.51c-.21-1.27-.29-2.56-.5-3.83-.08-.49-.19-1-.32-1.48s-.24-.79-.38-1.18-.28-.7-.43-1a13,13,0,0,0-1-1.93,7,7,0,0,0-3.77-2.88,15.33,15.33,0,0,0-3.28-.63,19.78,19.78,0,0,0-3.92-.13A8.88,8.88,0,0,0,164,29.11a4.27,4.27,0,0,0-.38.36,1.14,1.14,0,0,1-.11.11l-.1.14c0-.38,0-.76,0-1.14s0-.82.1-1.22a12,12,0,0,1,.8-3A1,1,0,0,1,164.35,24.14Zm.78,27.94c-1.41,0-2.56-1.73-2.56-3.85a5,5,0,0,1,.65-2.53,14.5,14.5,0,0,0,3,6A1.86,1.86,0,0,1,165.13,52.08Zm4.2,4.6c4.2-.15,6.63-3.73,7-4.36a5.69,5.69,0,0,0,1-.7.37.37,0,0,0,0-.53.33.33,0,0,0-.19-.08.35.35,0,0,0-.34.07,5,5,0,0,1-.88.64h0l-.24.14a8.86,8.86,0,0,1-7,.49,3.92,3.92,0,0,1-1.28-.7l-.28-.24-.27-.26a14.44,14.44,0,0,1-3-6.21c0-.13-.07-.27-.1-.39s-.06-.28-.08-.4c-.07-.32-.12-.6-.15-.82a41.47,41.47,0,0,1-.38-5.88,4.4,4.4,0,0,1,.62-.18l.16,0,.1,0h0l.35,0a5.77,5.77,0,0,1,.72,0l.1,0,.19,0a2.22,2.22,0,0,1,.37.09.5.5,0,0,0,.61-.35.52.52,0,0,0-.35-.62,5.35,5.35,0,0,0-2.89,0c0-.48,0-1,.07-1.42a3.38,3.38,0,0,1,3.41-.24,1.56,1.56,0,0,1,.91,1.14,11.92,11.92,0,0,1-1.66,5.56c-.15.29-.28.55-.39.79a2.87,2.87,0,0,0-.33,1.38v.13c0,.08,0,.17.07.26a1.93,1.93,0,0,0,.21.4,1.87,1.87,0,0,0,.46.47,1.31,1.31,0,0,0,.72.23h0a1,1,0,0,0,.25,0A.31.31,0,0,0,167,45a.36.36,0,0,0,.13-.38s0,0,0-.06a.39.39,0,0,0-.18-.18.35.35,0,0,0-.25,0,.52.52,0,0,1-.41-.09,1,1,0,0,1-.36-.49.38.38,0,0,1,0-.12,2,2,0,0,1,.26-1.1c.1-.22.23-.47.38-.75a12.78,12.78,0,0,0,1.74-5.89A2.26,2.26,0,0,0,167,34.1a4,4,0,0,0-3.72,0c.1-1.14.24-2.27.42-3.4a3.53,3.53,0,0,1,1.82-1.62,9,9,0,0,1,3.33-.82,23.38,23.38,0,0,1,3.74.18,14.08,14.08,0,0,1,2.95.62,6.21,6.21,0,0,1,3.41,2.82,15.49,15.49,0,0,1,1.69,4.36c.08.36.17.73.22,1.09.19,1.32.27,2.67.53,4a5.9,5.9,0,0,0,.9,2.37c-1.62.3-2.87,2.21-2.87,4.54a5.6,5.6,0,0,0,.85,3.05,17.35,17.35,0,0,0,1.32,6.15,2.44,2.44,0,0,1,0,.6c-.15,1.9-1.59,3.26-2.94,4.46a20.53,20.53,0,0,1-4,2.77,18.52,18.52,0,0,1-1.79.88,1.94,1.94,0,0,1-.57.2h0l-.16,0a9.62,9.62,0,0,1-5-5.82A10.14,10.14,0,0,0,169.33,56.68Zm-6.78,5.88a4.94,4.94,0,0,1,1.44-.91,4.47,4.47,0,0,0-.53,2.89c.34,2,2,3.3,3.68,4.13a14.93,14.93,0,0,1-1.25,1.91,11.88,11.88,0,0,1-.87,1c-.22.23-.43.58-.73.46a4.14,4.14,0,0,1-1-.74,7.31,7.31,0,0,1-1.17-1.25C160.55,67.89,160.52,64.45,162.55,62.56Zm-22.18,18A6.14,6.14,0,0,1,139.28,83a11.45,11.45,0,0,1-5,3.76,10.58,10.58,0,0,1-2.77.67l-.46-2a11.89,11.89,0,0,0,8.73-5.73,7,7,0,0,0,.45-1.06l.24.61A4.14,4.14,0,0,1,140.37,80.52Zm-10.56,4a6.53,6.53,0,0,1-1.46-.05,5.91,5.91,0,0,1,1.11-1.56Zm-8.47-20.76c-.9-1.13-1.81-2.24-2.74-3.35a6.14,6.14,0,0,1-1.21-1.54c-.2-.57,0-1.27.7-1.31A1.1,1.1,0,0,1,119,58l.32.39.16.2,1.43,1.74,2.45,3c.41.5,1.1-.21.7-.71-1.27-1.57-2.56-3.13-3.85-4.7l-1.92-2.32a1.85,1.85,0,0,1-.62-1.18.86.86,0,0,1,1.44-.59c.14.17.29.33.42.5.35.42.69.84,1,1.25l0,.06L123.37,59l1.85,2.25c.41.5,1.11-.21.71-.71l-4.94-6c-.33-.4-.67-.9-1.07-1.3l0,0c-.45-.56-1.19-1.24-1.09-2a.73.73,0,0,1,1.17-.5,2.64,2.64,0,0,1,.78.78l1,1.19a.21.21,0,0,1,0,.06c1,1.15,1.91,2.31,2.86,3.46l2.47,3c.41.5,1.11-.22.71-.71l-3.37-4.1c-.24-.28-.48-.57-.71-.86s-.48-.57-.71-.86l-.07-.08c-.15-.17-.29-.35-.43-.53s-.19-.23-.28-.35a1,1,0,0,1-.14-1.07.87.87,0,0,1,1.39-.17c.84.85,1.55,1.9,2.31,2.81l2.44,3a21.28,21.28,0,0,0,3,3.29A5.66,5.66,0,0,0,134,60.89l-.21.06a3.36,3.36,0,0,0-1.5,1,4.58,4.58,0,0,0-.81,3.41.5.5,0,0,0,1,0,3.38,3.38,0,0,1,.86-3.06,3.27,3.27,0,0,1,1.17-.53,1.47,1.47,0,0,0,1-1.47.14.14,0,0,0,0-.06s0,0,0-.07c-.21-1.16-.43-2.32-.65-3.47a2.45,2.45,0,0,1,0-1.56.85.85,0,0,1,1.21-.11c.84.54,1.23,2,1.6,2.83a20,20,0,0,1,1.11,3.27,8.37,8.37,0,0,1,.18,3.38,11.27,11.27,0,0,1-.82,2.3,6.52,6.52,0,0,0-.53,4.91s0,0,0,0v0c.53,1.38,1.19,3.14,1.94,5.11a5.23,5.23,0,0,1-.13.85,6.22,6.22,0,0,1-1.24,2.54,11.52,11.52,0,0,1-4.92,3.57,10.87,10.87,0,0,1-2.45.62c-.2-.9-.38-1.72-.54-2.47l0-.15c-.5-2.31-.8-3.81-.82-3.87v0s0,0,0,0C128.26,72.51,124.72,68,121.34,63.78Zm6,20.35c-.7-.54-.31-1.74,0-2.42a6.32,6.32,0,0,1,1.41-1.95c.12.56.26,1.24.43,2a7.37,7.37,0,0,0-1.81,2.34Zm1,3c-.57-.35-.53-1.1-.36-1.75a8,8,0,0,0,1.81.16h.2c.14.63.29,1.3.45,2A3.9,3.9,0,0,1,128.38,87.12Zm22.47,30.54c-5,.87-7.88-.65-11.83-6.22-2.37-3.33-5.3-14.51-7.3-23a11.9,11.9,0,0,0,9-5.75,7.54,7.54,0,0,0,.55-1.36c.9,2.37,1.83,4.85,2.72,7.21,0,0,0,.06,0,.1a.37.37,0,0,0,.21.41c2.33,6.19,4.32,11.5,4.42,11.86,0,0,0,0,0,.06s0,.07,0,.1a.41.41,0,0,0,.05.09l0,.07a.27.27,0,0,0,.08.07l0,0a16,16,0,0,0,5.83,1.86v12.28A6.68,6.68,0,0,1,150.85,117.66Zm-.93,120.79c0-33.48.82-58,1.83-75.57,4.86-5.4,5.87-13.73,6.23-21.95a.5.5,0,0,0-.48-.52.5.5,0,0,0-.52.48c-.33,7.52-1.2,15.13-5.14,20.31,1.65-27.66,3.77-37.34,3.8-37.49a.45.45,0,0,0,0-.11V87.65c0-4.85,1.08-11.61,2.82-14.07a.49.49,0,0,0-.12-.69.5.5,0,0,0-.69.11c-1.88,2.66-3,9.54-3,14.65v14.49a15.33,15.33,0,0,1-5.17-1.63c-.26-.76-1.17-3.3-4.51-12.15a35.67,35.67,0,0,1,4.32-13.18,28.51,28.51,0,0,1,7.3-8.28,31.86,31.86,0,0,1,3.69-2.39,6.59,6.59,0,0,0-.2.88,7.42,7.42,0,0,0,3.74,7.54c1,.58,1.7-.38,2.32-1.08a15.29,15.29,0,0,0,1.42-2,54.27,54.27,0,0,0,3.91,13.36c.2.45.78.23.92-.11,1.74-4.23,3.08-8.62,4.61-12.92.09-.25.18-.5.28-.75a18.48,18.48,0,0,0,1.45,2,6.41,6.41,0,0,0,2.3,2.1c.95.31,2-.45,2.7-1A12.06,12.06,0,0,0,186,70.46a11.48,11.48,0,0,0,1.16-1.67A8.07,8.07,0,0,0,188.3,64a5.34,5.34,0,0,0-.25-1.12v0a2.52,2.52,0,0,0-.12-.29l0,0c.37.15.74.28,1.09.43.9.39,1.77.83,2.63,1.29l.95.54c.34.19.68.38,1,.58l.08.05a6.53,6.53,0,0,0-1.14.35,6.94,6.94,0,0,0-2.11,1.48,10.4,10.4,0,0,0-.84.92A17.05,17.05,0,0,0,187.35,72a36.66,36.66,0,0,0-1.74,5.48c-2,8-2.42,16.31-2.6,24.48-.06,2.65,0,5.3,0,7.94l-.2,0a19.2,19.2,0,0,0-2,.55,3,3,0,0,0-1.19.6,5.88,5.88,0,0,0-.93,3.31c0,.68-.06,1.36,0,2,0,0,0,.07,0,.1a10.19,10.19,0,0,0-1.34.47,6.21,6.21,0,0,0-2.6,1.82,2.25,2.25,0,0,0-.35,1.69,1.64,1.64,0,0,0,.31.7c.06.09.21.17.26.26s0,.39-.06.58a2.78,2.78,0,0,0,.14,1.78c.12.24.41.4.51.62s-.14.8-.15,1.15c0,.69.54,1,.71,1.58a6.84,6.84,0,0,1,0,1,2.12,2.12,0,0,0,.33.94,2.68,2.68,0,0,0,.79.84,3.2,3.2,0,0,0,1.5.44q.76.06,1.53.06c.33,1.86.65,3.72,1.13,5.55a6.15,6.15,0,0,0,.92,2.48,2.35,2.35,0,0,0,2,.61c3.62-.1,7.23-.34,10.84-.65,1.32-.12,2.63-.26,3.94-.4.72,5.93,1.53,13.78,2.27,23.73-6.2-.64-12.19-11.78-12.86-21a.5.5,0,1,0-1,.08c.71,9.7,7,21.36,13.93,21.88,1.33,18.09,2.43,42.92,2.44,75.48h-31l-1-97.39a.49.49,0,0,0-.26-.43.48.48,0,0,0-.24-.07h0a.5.5,0,0,0-.5.51l1,97.38-12.09.08h0Zm3.36,15.19a20.76,20.76,0,0,0,5.36-5.81,10,10,0,0,0,1.53-4.86h0v-1.74l11.31-1.9h.28V256.2a4.83,4.83,0,0,0-1.84.81,16,16,0,0,0-1.48,1.37,5.88,5.88,0,0,1-4,1.56c-1.6.11-3.2.1-4.8.09-1.2,0-2.39,0-3.59,0a7.38,7.38,0,0,1-1.63-.13c-.43-.1-.84-.26-1.26-.39A22.49,22.49,0,0,1,147.8,257,27.46,27.46,0,0,0,153.28,253.64Zm-76.35,4.64a6.7,6.7,0,0,1,2.12,1.91h-15C67,256.53,73,256,76.93,258.28ZM65.57,241.67H77v1.78l-5.69-1a.48.48,0,0,0-.17,0l-5.58,1Zm-2.24,19.52H79.5v0c0,.19,0,.35.07.53s0,.37.06.57,0,.32,0,.46,0,.13,0,.19,0,.14,0,.2l0,.38H63.17Zm14.61-14.46a2,2,0,0,1,1.19.63.89.89,0,0,1,.16.83c-.19.41-.8.35-1.17.34H78C78,247.88,78,247.28,77.94,246.73Zm-12.15-10.5L77,238.43v1.74H65.57v-3.94Zm14.94,27.33s0-.07,0-.11A25.69,25.69,0,0,0,79.26,256a27,27,0,0,1-1.15-6.48h.35c1.08,0,2-.62,1.85-1.81a2.35,2.35,0,0,0-2-1.88l-.43-.07c0-1,0-1.73,0-1.75a.48.48,0,0,0-.12-.33v-7.46h1.83a.5.5,0,0,0,.5-.45l2.15-25.66,1.55,25.64a.51.51,0,0,0,.5.47H86v6.39a.5.5,0,0,0-.13.33v20.6Zm34.44-5.7c.08-.07.25-.18.23-.22h0a4.45,4.45,0,0,1,.9.05h0a12.51,12.51,0,0,1,4.81,1.17,4.53,4.53,0,0,1,1.62,1.29l0,0h-8.74a4.88,4.88,0,0,1,.41-1.24,4.41,4.41,0,0,1,.46-.79A2.48,2.48,0,0,1,115.17,257.86Zm-17-19.43v1.74H86.76v-3.92h.34ZM86.88,263.49v-2.3h36.39a8.83,8.83,0,0,1,.45,2.31H86.88Zm11.32-21v.12l-5.94,1.11-5.49-1.1h0v-1H98.2ZM105,245a2.09,2.09,0,0,1,1.23.56,1.07,1.07,0,0,1,.14,1.11c-.35.78-1.46.86-2.19.85a10.26,10.26,0,0,1-1.36-.13,11.52,11.52,0,0,0-1.89-.52l-.4-.16,0,0A4.78,4.78,0,0,1,105,245Zm6.36-98.34a32.55,32.55,0,0,1-1.65,8.74,23,23,0,0,1-1.53,3.21L110,137.47h1.67C111.62,140.55,111.56,143.62,111.34,146.68Zm-56.51,14a15.1,15.1,0,0,1-2.39-4.25,39.84,39.84,0,0,1-1.65-5.66,58.5,58.5,0,0,1-.89-6.86c-.18-2.08-.25-4.17-.29-6.26l6.78,0h2.49c-.07,1.92,0,4.13,1.9,5.08a9.33,9.33,0,0,1,2.24,1.1,3.37,3.37,0,0,1,.77,1.71,11,11,0,0,0-2.34,1,2,2,0,0,0-.43.4,3.12,3.12,0,0,0-.31.49,4.74,4.74,0,0,0-.43,2.1,14.36,14.36,0,0,0,.71,4.31A25.13,25.13,0,0,0,64.27,160c.28.41.91,1.09.69,1.64s-1,.25-1.44,0h0a1.27,1.27,0,0,0-.21-.15l-.3-.22c-.19-.15-.36-.3-.53-.46l-.08-.08-.42-.45c-.32-.38-.63-.79-.91-1.19-.15-.23-.29-.47-.43-.7s-.43-.74-.62-1.12c-.09-.19-.17-.39-.26-.58s-.25-.61-.37-.91-.26-.74-.38-1.11c0-.09,0-.18-.08-.27-.17-.58-.32-1.16-.45-1.75l0-.08c-.06-.31-.13-.62-.19-.93s-.07-.35-.1-.53c-.1-.53-.78-.42-.93,0a.48.48,0,0,0,0,.27c0,.13,0,.26.07.4a23.9,23.9,0,0,0,1.2,4.46l.09.23h0a7.76,7.76,0,0,0,.3.72,2.56,2.56,0,0,0,.11.24c.17.35.35.7.54,1l.13.23.18.32.43.66.12.16.2.3.18.22c.06.09.13.17.19.25l.36.42.18.2a7.27,7.27,0,0,0,.56.55l0,0,.45.36.24.18a1.15,1.15,0,0,1-.93,1.08,2.09,2.09,0,0,1-1.8-.59,7.4,7.4,0,0,1-1.14-1.34c-.36-.5-.69-1-1-1.54l-.12-.2h0a21.76,21.76,0,0,1-2.5-5.51,16,16,0,0,1-.4-1.95c-.08-.63-1.08-.64-1,0a20.77,20.77,0,0,0,3.21,8.25c.26.42.54.85.82,1.28.11.17.22.33.34.49l-.3,0A3.66,3.66,0,0,1,54.83,160.71ZM52.57,67.49c0-2.94,0-5.07,0-7,.05-2.08.21-4.21,1.56-5.49A7.16,7.16,0,0,1,58,53.53a92.53,92.53,0,0,1,11.9-1,36.44,36.44,0,0,0-4.18,2.11,2,2,0,0,0-2.09.29,1.86,1.86,0,0,0-.9,1.54l0,.09A34.72,34.72,0,0,0,52.57,68ZM104.44,59a12.61,12.61,0,0,1,.89,1.76,13.25,13.25,0,0,1,.83,2.89,19.26,19.26,0,0,1-3.43,14.08c-.16.23-.31.46-.48.69,0-.13,0-.26,0-.39-.06-1.41-.11-3.37-.12-4.61,1.56-2.67,2.29-8.09.81-12.68a11,11,0,0,0-2.56-4.38,8.36,8.36,0,0,0-2.68-1.85l-.23-.16h0A9.41,9.41,0,0,1,101,55.61,9.9,9.9,0,0,1,104.44,59Zm-39,21.52-.23.11A27,27,0,0,1,68,74.87a11.91,11.91,0,0,0,.92-2.09v0A17.85,17.85,0,0,0,69.8,66a11,11,0,0,0-5.59-9.2l0,0c-.16-.08-.31-.18-.47-.25l0,0h0c-.13-.06-.14-.11-.14-.15a.69.69,0,0,1,.12-.36l.07-.1a1.55,1.55,0,0,1,.38-.39,1.68,1.68,0,0,1,.65-.28,1.29,1.29,0,0,1,.19,0,1.61,1.61,0,0,1,.57.13l.12,0,.2.08.26.13.11.06c3.64,1.72,5.69,5.06,6,10,.35,4.58-1,11.72-5.86,14.44l-.17.09c-.21.11-.43.21-.66.31ZM75.7,16.57a8.38,8.38,0,0,1,3.78-3.89c2.6-1.3,5.47-1,8.27-1.15a13.35,13.35,0,0,0,5.41-1.25,4.11,4.11,0,0,1-.11,2,.37.37,0,0,0,.36.47l2.12-.23A34.49,34.49,0,0,1,96,16.94a18.2,18.2,0,0,1-.59,6.56c-.14-1.1-.31-2.19-.52-3.28a5.27,5.27,0,0,0-3.65-3.66,12.59,12.59,0,0,0-5-.62,13.64,13.64,0,0,0-4.39.8,6.77,6.77,0,0,0-2.62,1.87,2.49,2.49,0,0,0-.32,1.29,2.89,2.89,0,0,1-.11.73,2.18,2.18,0,0,1-.46.45,2.71,2.71,0,0,0-.86,1,14.4,14.4,0,0,0-.57,5.1h-.24a3.87,3.87,0,0,0-1.09-2.59,2.19,2.19,0,0,0-1.14-.56A16.23,16.23,0,0,1,75.7,16.57Zm.61,21.08a7.83,7.83,0,0,1-.68-2.56A2,2,0,0,0,77,33.88a.38.38,0,0,0-.22-.49.38.38,0,0,0-.48.22,1.15,1.15,0,0,1-1.39.73c-.73-.22-1.67-1.6-2-7-.15-2.32.89-2.58,1.21-2.61a1.3,1.3,0,0,1,1,.38,3.36,3.36,0,0,1,.87,2.42.38.38,0,0,0,.37.37h1a.37.37,0,0,0,.37-.37,14.72,14.72,0,0,1,.53-5.23,2.16,2.16,0,0,1,.63-.68,2.5,2.5,0,0,0,.64-.67,3,3,0,0,0,.2-1,2.89,2.89,0,0,1,.14-.86,6,6,0,0,1,2.33-1.66,12.67,12.67,0,0,1,4.14-.75,12,12,0,0,1,4.72.57c1.87.73,2.88,1.72,3.18,3.11a40.54,40.54,0,0,1,.67,4.77,4,4,0,0,0-3.71,0,2.29,2.29,0,0,0-1.29,1.72s0,0,0,0V27h0a6.08,6.08,0,0,0,1.11,3.59L93,34.2l.09.16H91.56c-.43,0-.85,0-1.38,0h0a.38.38,0,0,0-.37.37.36.36,0,0,0,.36.38H93a.86.86,0,0,0,.78-.29.85.85,0,0,0-.06-1l-2.11-3.65a5.45,5.45,0,0,1-1-3.18v0s0,0,0,0a1.56,1.56,0,0,1,.91-1.14,3.38,3.38,0,0,1,3.41.24,42.37,42.37,0,0,1-.3,8.34C94.32,36.19,93,41.24,90.35,43a8.66,8.66,0,0,1-1.94.71,9.5,9.5,0,0,1-3.23.13,6.87,6.87,0,0,1-1-.18l-.45-.13-.09,0a8.68,8.68,0,0,1-1.54-.7h0a5,5,0,0,1-.86-.63.37.37,0,1,0-.52.54,5.66,5.66,0,0,0,.93.69c.37.7,2.55,4.26,8.95,4.37.78,3.88,2.61,5.37,4.52,6.14C93,56.8,88.37,58.76,83.31,58.76c-5.35,0-10.4-2-12.8-5.07a9.46,9.46,0,0,0,6.32-6A13.52,13.52,0,0,0,76.31,37.65Zm-4.71,13,0-.09c0-.14.09-.27.13-.4l.1-.2a3.17,3.17,0,0,1,.23-.36l0,0,0-.06h0l0,0,.08-.09q.15-.16.33-.33l.15-.14.39-.25c.13-.08.27-.15.41-.22l.18-.06a3.81,3.81,0,0,1,.45-.13l.18,0c.24,0,.47,0,.7,0-.2,0,0,0,.07,0h0l.2,0a2.32,2.32,0,0,1,.37.13,8.19,8.19,0,0,1-2.55,3.07.47.47,0,0,0-.26-.08H71.46C71.48,51.19,71.6,50.71,71.6,50.68Zm-8,184.55-4.56-72a6.87,6.87,0,0,0,.63.58A2.75,2.75,0,0,0,63,164a2.55,2.55,0,0,0,.74-1.11,1.85,1.85,0,0,0,1.29,0c1.2-.47,1.09-1.86.52-2.78-.8-1.27-1.68-2.48-2.4-3.8a14.26,14.26,0,0,1-1.74-5.13,8,8,0,0,1,0-2.67,1.7,1.7,0,0,1,1-1.31l.45-.16,1-.37.51-.23.24-.1s0,0,0,0a11.81,11.81,0,0,0,5.07-5,17.05,17.05,0,0,0,1.9-6.29.38.38,0,0,0-.35-.4.39.39,0,0,0-.4.35,16.48,16.48,0,0,1-1.82,6,11,11,0,0,1-4.27,4.49,6,6,0,0,0-.64-1.73,3.75,3.75,0,0,0-1.93-1.35c-.74-.31-1.63-.57-2-1.38a7.47,7.47,0,0,1-.35-3.26h2.2a.5.5,0,0,0,.5-.5v-7h0v-1h0v-24.1a125.8,125.8,0,0,1,.89-16.48c.08-.59.18-1.17.27-1.75a51.12,51.12,0,0,1,1.15-5.41l.29-.1.07,0a6.37,6.37,0,0,0,.61-.23l.19-.07c-2.1,7.12-2.47,16.2-2.47,24.14v24h0v1h.64l44.33.07h0l0-.49,0-.5h0A78.44,78.44,0,0,0,106,102.64a98.59,98.59,0,0,1-3.76-23.08c.33-.39.64-.8.94-1.21l0,.73A97.67,97.67,0,0,0,107,102.37a79.28,79.28,0,0,1,2.63,26.94h0l0,.5,0,.5h0v.06h0l-8.87,105-2,0-.12,0H96.48l-11.72-.13-1.93-32,5-60.11a.5.5,0,0,0-1-.09l-5,60.15h0l-2.7,32.09Zm-.8,11.29c-.35-.8.77-1,1.87-1,0,.56-.07,1.25-.12,2A2.15,2.15,0,0,1,62.76,246.52Zm110,10.08V242.88s0,0,0,0,0,0,0,0v-3.51h8.54v4.63s0,0,0,0c0,.41,0,8.26-1.38,11.94a26.42,26.42,0,0,0-1.47,7.64h-5.7Zm87.71,3.33h0v-8.08a1.76,1.76,0,0,0-.68-1.33v-7.45l2.61,0a.48.48,0,0,0,.35-.16.43.43,0,0,0,.14-.36l-1.5-55.6,4.17-9.72-.06-1.13-.06-1.14-1.63-32a.5.5,0,0,1,.48-.52.44.44,0,0,1,.25.06.5.5,0,0,1,.27.41h0l0,.26L266.36,174l3.49,68.55v0a.47.47,0,0,1-.26.43.48.48,0,0,0,.23.07H272v7.26l0,0a.5.5,0,0,0-.1.31,17.56,17.56,0,0,1-1.38,5.25,24,24,0,0,0-1.07,4h-.58a.51.51,0,0,0-.5.5v3.13H261v-3.13A.5.5,0,0,0,260.47,259.93Z"></path><text class="cls-1" transform="translate(0 -6.23)">Group Talking_B&amp;W</text></svg>