<?xml version="1.0" encoding="utf-8"?>
<!-- Generator: Adobe Illustrator 26.3.1, SVG Export Plug-In . SVG Version: 6.00 Build 0)  -->
<svg version="1.1" id="Layer_1" xmlns="http://www.w3.org/2000/svg" xmlns:xlink="http://www.w3.org/1999/xlink" x="0px" y="0px"
	 viewBox="0 0 53.2 42.7" style="enable-background:new 0 0 53.2 42.7;" xml:space="preserve">
<style type="text/css">
	.st0{fill:#E65300;}
</style>
<path class="st0" d="M51.7,9.9h-11V1.5c0-0.8-0.7-1.5-1.5-1.5c0,0,0,0-0.1,0H14.1c-0.8,0-1.5,0.7-1.5,1.5v18.3H1.5
	c-0.8,0-1.5,0.7-1.5,1.5v19.8c0,0.8,0.7,1.5,1.5,1.5h25.1c0.8,0,1.5-0.7,1.5-1.5v-8.4h23.6c0.8,0,1.5-0.7,1.5-1.5V11.4
	C53.2,10.6,52.5,9.9,51.7,9.9z M15.6,3h22.1v6.9H26.6c-0.8,0-1.5,0.7-1.5,1.5v8.4h-9.6V3z M37.7,12.9v6.9h-9.6v-6.9L37.7,12.9z
	 M25.1,39.7H3V22.8h22.1V39.7z M50.2,29.8H28.1v-6.9h11.1c0.8,0,1.5-0.7,1.5-1.5v-8.4h9.5L50.2,29.8z"/>
</svg>
