<?xml version="1.0" encoding="utf-8"?>
<!-- Generator: Adobe Illustrator 26.3.1, SVG Export Plug-In . SVG Version: 6.00 Build 0)  -->
<svg version="1.1" id="Layer_1" xmlns="http://www.w3.org/2000/svg" xmlns:xlink="http://www.w3.org/1999/xlink" x="0px" y="0px"
	 viewBox="0 0 53.2 42.7" style="enable-background:new 0 0 53.2 42.7;" xml:space="preserve">
<style type="text/css">
	.st0{fill:#689CAE;}
</style>
<path class="st0" d="M26.6,0C11.7,0,0,6.4,0,14.5v13.7c0,8.1,11.7,14.5,26.6,14.5s26.6-6.4,26.6-14.5V14.5C53.2,6.4,41.5,0,26.6,0z
	 M3,14.5C3,8.3,13.8,3,26.6,3s23.6,5.3,23.6,11.5c-0.1,1.9-0.9,3.6-2.3,4.9c-5-3.6-12.8-5.7-21.3-5.7c-10.4,0-19.2,3.1-23.6,7.7
	L3,14.5z M45.4,21.3C41,24.1,34.2,26,26.6,26c-7.4,0-14.3-1.8-18.8-4.6c4.4-2.8,11.2-4.6,18.8-4.6C34,16.7,40.9,18.4,45.4,21.3z
	 M50.2,28.2c0,6.2-10.8,11.5-23.6,11.5S3,34.4,3,28.2c0.1-1.9,0.9-3.6,2.3-4.9c5,3.6,12.8,5.7,21.3,5.7c10.4,0,19.2-3.1,23.6-7.7
	V28.2z"/>
</svg>
