<?xml version="1.0" encoding="utf-8"?>
<!-- Generator: Adobe Illustrator 26.3.1, SVG Export Plug-In . SVG Version: 6.00 Build 0)  -->
<svg version="1.1" id="Layer_1" xmlns="http://www.w3.org/2000/svg" xmlns:xlink="http://www.w3.org/1999/xlink" x="0px" y="0px"
	 viewBox="0 0 53.2 42.7" style="enable-background:new 0 0 53.2 42.7;" xml:space="preserve">
<style type="text/css">
	.st0{fill:#63AC6D;}
</style>
<path class="st0" d="M26.6,0C11.9,0,0,9.6,0,21.3s11.9,21.3,26.6,21.3s26.6-9.6,26.6-21.3S41.3,0,26.6,0z M25.8,39.6
	c-3.8-0.3-6.7-2.7-6.7-5.5c0-3.1,3.4-5.6,7.5-5.6s7.5,2.5,7.5,5.6c0,2.9-2.9,5.3-6.7,5.5h-0.8C26.4,39.7,26.1,39.6,25.8,39.6
	L25.8,39.6z M36.5,36.9c0.4-0.9,0.6-1.9,0.6-2.9c0-4.7-4.7-8.6-10.5-8.6s-10.5,3.9-10.5,8.6c0,1,0.2,2,0.6,2.9
	c-3.5-2.2-5.7-5.5-5.7-9.2c0-6.6,7-12,15.5-12s15.5,5.4,15.5,12C42.2,31.4,39.9,34.8,36.5,36.9L36.5,36.9z M43.2,34.4
	c1.3-2,2-4.3,2-6.7c0-8.2-8.3-15-18.5-15s-18.6,6.8-18.6,15c0,2.4,0.7,4.7,2,6.7c-4.3-3.3-7-7.9-7-13C3,11.2,13.6,3,26.6,3
	s23.6,8.2,23.6,18.3C50.2,26.4,47.5,31,43.2,34.4L43.2,34.4z"/>
</svg>
