<svg xmlns="http://www.w3.org/2000/svg" id="Layer_1" data-name="Layer 1" viewBox="0 0 250.89 199.05"><path d="M250.39,198.05h-5.92c-.21-3.71-.48-7.12-.81-10.12-.76-6.89-4.23-14.77-7.91-17.93a24,24,0,0,0-3.73-2.59,36.78,36.78,0,0,0-16.69-4.9c-2.28-2.24-2.61-5.91-2.15-8.64.08-.49.21-1,.34-1.46a2.5,2.5,0,0,1,.85-.29,1.77,1.77,0,0,1,1.13.24,3.55,3.55,0,0,0,2.5.31,3.92,3.92,0,0,0,2-1.34,2.87,2.87,0,0,1,.85-.76,1.77,1.77,0,0,1,1.15-.16,3.54,3.54,0,0,0,2.46-.57,3.81,3.81,0,0,0,1.39-2,3,3,0,0,1,.55-1,1.77,1.77,0,0,1,1-.55,3.5,3.5,0,0,0,2.11-1.38,3.77,3.77,0,0,0,.64-2.31,3.11,3.11,0,0,1,.17-1.13,1.81,1.81,0,0,1,.77-.87,3.53,3.53,0,0,0,1.51-2,3.77,3.77,0,0,0-.2-2.38,3.23,3.23,0,0,1-.23-1.12,1.77,1.77,0,0,1,.42-1.08,3.49,3.49,0,0,0,.72-2.42,3.81,3.81,0,0,0-1-2.17,3.22,3.22,0,0,1-.61-1,1.84,1.84,0,0,1,0-1.16,3.53,3.53,0,0,0-.16-2.52,3.8,3.8,0,0,0-1.69-1.7,3,3,0,0,1-.9-.7,1.74,1.74,0,0,1-.37-1.1,3.51,3.51,0,0,0-1-2.3,3.86,3.86,0,0,0-2.17-1,3,3,0,0,1-1.09-.34,1.87,1.87,0,0,1-.73-.91,3.49,3.49,0,0,0-1.74-1.81,3.88,3.88,0,0,0-2.39-.21,2.85,2.85,0,0,1-1.14,0,1.81,1.81,0,0,1-1-.59,3.5,3.5,0,0,0-2.26-1.11,4.09,4.09,0,0,0-2.31.63,2.82,2.82,0,0,1-1.06.44,1.73,1.73,0,0,1-1.14-.21,3.46,3.46,0,0,0-2.51-.26,3.81,3.81,0,0,0-1.95,1.39,3,3,0,0,1-.84.77,1.42,1.42,0,0,1-.48.18V19.43a.5.5,0,0,0-.5-.5h-94v-.57h-.5l.5,0c0-2.17,0-6.68-2-10.72C105.8,2.56,101.06,0,94.23,0,81.71,0,78.76,9.92,78.5,18.25v.68H46a.5.5,0,0,0-.5.5v48.5l-5-2A.5.5,0,0,0,40,66a.49.49,0,0,0-.22.41v24a.51.51,0,0,0,.32.47L45.51,93v23.85a19.23,19.23,0,0,0-2.66.15c-6.79.86-12.65,5.34-14.59,11.16a12.5,12.5,0,0,0-.37,1.33,9.54,9.54,0,0,0-.42,1.95,8.78,8.78,0,0,1-.41,2,3.64,3.64,0,0,1-.87,1.11,6,6,0,0,0-1.62,2.36,7.6,7.6,0,0,0-.32,2.66,7.75,7.75,0,0,1-.22,2.2,4.12,4.12,0,0,1-.9,1.59,6.3,6.3,0,0,0-1.25,2.21,7.94,7.94,0,0,0-.17,3.09,7.25,7.25,0,0,1,0,2.1,5.35,5.35,0,0,1-.87,1.91,4.76,4.76,0,0,0-.65,1.24l-.11.31a7,7,0,0,0-.48,3.89.5.5,0,0,0,.5.45H36.85a15.25,15.25,0,0,1-1.36,4,37,37,0,0,0-16.58,4.9A24.69,24.69,0,0,0,15.18,170c-3.94,3.39-6.75,11.75-7.95,17.89-.54,2.72-1,6.23-1.39,10.16H.5a.5.5,0,0,0,0,1H250.39a.5.5,0,0,0,0-1Zm-61.94,0c-.19-2.78-.42-5.4-.68-7.77-.83-7.53-4.62-16.13-8.64-19.59a23.43,23.43,0,0,0-2.44-1.81c.32-.2.65-.41,1-.61a35.89,35.89,0,0,1,16.21-4.77,14.25,14.25,0,0,0,10.56,4.75h.28a14.26,14.26,0,0,0,10.57-4.75,35.89,35.89,0,0,1,16.21,4.77,23.81,23.81,0,0,1,3.57,2.48c3.52,3,6.84,10.62,7.57,17.29.33,3,.6,6.34.81,10Zm-86.26,0c.33-2.89.72-5.52,1.13-7.61,1.29-6.55,4.25-15.45,8.37-19a22.56,22.56,0,0,1,2.43-1.8l.5-.33.5-.3.48-.29a39.47,39.47,0,0,1,17.51-5.21.41.41,0,0,0,.07.11.51.51,0,0,0,.36.15l.1,0a15.6,15.6,0,0,0,11.28,4.94h.16a15.61,15.61,0,0,0,11.7-5.2,39.41,39.41,0,0,1,17.78,5.23l.3.18.47.29c.15.09.31.18.45.28a23.45,23.45,0,0,1,2.69,2c3.86,3.31,7.5,11.63,8.31,18.94.25,2.34.48,4.92.67,7.66ZM36.42,162.88a16.39,16.39,0,0,0,1.45-4.37h16a11.87,11.87,0,0,0,2.16,4.6l.15.17h-.3a13.41,13.41,0,0,1-19.39-.36H36.4ZM103.63,20.7a4.18,4.18,0,1,1-8.35,0,3.94,3.94,0,0,1,.08-.77v0l0-.13a4.08,4.08,0,0,1,.3-.85,4.15,4.15,0,0,1,7.53,0,4.21,4.21,0,0,1,.34,1A4.9,4.9,0,0,1,103.63,20.7ZM93,20.7a4.21,4.21,0,0,1-8.42,0,3.94,3.94,0,0,1,.08-.77,4.19,4.19,0,0,1,7.93-1,3.79,3.79,0,0,1,.33,1A3.94,3.94,0,0,1,93,20.7ZM83,26.26a.61.61,0,0,1-.42,0,1.74,1.74,0,0,1-.74-.71,8.17,8.17,0,0,1-1.25-5.49.5.5,0,0,1,0-.12,2.85,2.85,0,0,1,.32-1,1.1,1.1,0,0,1,.17-.25,1.23,1.23,0,0,1,1.15-.35l0,.6c0,.28,0,.54,0,.82a1.09,1.09,0,0,0,0,.18,18.89,18.89,0,0,0,1,6.14A.43.43,0,0,1,83,26.26Zm-.28-7.33a23.44,23.44,0,0,1,.19-2.44h3.78a4.7,4.7,0,0,0-2.31,2.44,0,0,0,0,1,0,0H82.75Zm10.38,0a4.72,4.72,0,0,0-2.3-2.44h6.64a4.63,4.63,0,0,0-2.33,2.44,1.39,1.39,0,0,0-.06.19,2.49,2.49,0,0,0-.94-.16,2,2,0,0,0-.94.22A2.33,2.33,0,0,0,93.13,18.93Zm10.65,0a4.65,4.65,0,0,0-2.34-2.44H105a23.23,23.23,0,0,1,.32,2.44v0h-1.57S103.78,18.94,103.78,18.93Zm2.09,0c0-.19,0-.39,0-.6a1.23,1.23,0,0,1,1.11.39,1.48,1.48,0,0,1,.13.21,2.48,2.48,0,0,1,.31,1l0,.17A8.21,8.21,0,0,1,106,25.56a1.91,1.91,0,0,1-.75.69.69.69,0,0,1-.49,0,.35.35,0,0,1-.2-.2h0a15.22,15.22,0,0,0,1.33-6.09c0-.06,0-.12,0-.18C105.9,19.5,105.89,19.22,105.87,18.93ZM86,40.67l.05,0h0a22.67,22.67,0,0,0,9.36-3.15c.28-.17.54-.33.79-.5s.5-.34.72-.5c.45-.32.82-.62,1.11-.86a6.65,6.65,0,0,0,.73-.67h0a.24.24,0,0,0,0-.32,0,0,0,0,0,0,0,.25.25,0,0,0-.35,0s-.19.2-.53.49a6.7,6.7,0,0,1-2.59,1.38,4.93,4.93,0,0,1-1.23.17l-.21,0a5.61,5.61,0,0,1-1.09-.15,4.78,4.78,0,0,1-.84-.25,9.33,9.33,0,0,1-2.62-1.56,15.62,15.62,0,0,1-2.74-3c-.27-.38-.41-.63-.43-.65h0l-.43-.84a26.56,26.56,0,0,1-2.36-5.63,18.77,18.77,0,0,1-.61-4.64c0-.08,0-.15,0-.22v-.08c0-.06,0-.11,0-.17h1.52c0,.15-.08.31-.11.47a4.9,4.9,0,0,0-.08.77,4.71,4.71,0,0,0,9.42,0,4.9,4.9,0,0,0-.08-.77,2.51,2.51,0,0,0,0-.27,2.31,2.31,0,0,1,.36-.15,1.73,1.73,0,0,1,.42-.05l.28,0a1.72,1.72,0,0,1,.5.12s0,0,0,.08l0,.13s0,.08,0,.12a10.1,10.1,0,0,0,0,2.91c.06.41.13.81.22,1.21l.11.45c.25,1,.49,2,.13,2.53a1.48,1.48,0,0,1-1,.56l-.08,0a.24.24,0,0,0-.19.29.24.24,0,0,0,.24.2h.05a2,2,0,0,0,1.36-.8c.47-.75.21-1.8-.06-2.92l-.11-.44c-.08-.33-.14-.67-.19-1a4.66,4.66,0,0,0,8.76-2.23,4.9,4.9,0,0,0-.07-.77,3.59,3.59,0,0,0-.12-.47h1.45c0,.17,0,.28,0,.29s0,.12,0,.18a14.32,14.32,0,0,1-.86,4.83A24.83,24.83,0,0,1,102.37,29c-.49.84-1,1.66-1.38,2.52l-.06.13a10.9,10.9,0,0,0-.45,1.12c-.07.21-.14.43-.2.64a9.17,9.17,0,0,0-.32,2.33c0,.27.05.51.08.76s0,.34.07.5.06.34.1.5a9.78,9.78,0,0,0,2.89,5.13,12,12,0,0,1-9.23,3.88h-.15a12.23,12.23,0,0,1-9.38-3.87A13.78,13.78,0,0,0,86,40.67ZM58.16,66.4s0-.06,0-.09c1.13-5.59,3.64-13.1,7.1-16.07a21.65,21.65,0,0,1,3.33-2.31,33.53,33.53,0,0,1,15.11-4.46c.21.24.44.45.67.67h0a10.34,10.34,0,0,0,.8.68l.07.05a13.63,13.63,0,0,0,8.46,2.67,13.07,13.07,0,0,0,10-4.08,33.53,33.53,0,0,1,15.11,4.46,21.65,21.65,0,0,1,3.33,2.31c3.36,2.88,5.89,10.43,7,16.07,0,0,0,.06,0,.1h0c.9,3.86,1.95,7.32,3,11,.59,2,1.19,3.93,1.77,6a.51.51,0,0,0,.35.35l.13,0a.51.51,0,0,0,.34-.13c6.36-5.79,11.38-12,16.69-18.61a8.41,8.41,0,0,0,.16,2,25.55,25.55,0,0,0,9.93,15.44,4.73,4.73,0,0,0,1.06.59l-2.9,2.12c-13.69,10.07-26.63,19.57-31.48,18.14-2.36-.69-3.8-4.94-5.19-9-.28-.8-.55-1.61-.84-2.4-.77-2.16-1.42-4.4-2-6.57L115.1,67.46a.48.48,0,0,0-.55-.36.51.51,0,0,0-.43.5V99H73.32V92.65l4.57-1.8a.5.5,0,0,0,.31-.47v-24a.36.36,0,0,0,0-.1A.5.5,0,0,0,78,66a.52.52,0,0,0-.47,0l-.9.36L59,73.25l-1.57-.62A36.5,36.5,0,0,1,58.16,66.4ZM166,55.92h-3.36a.37.37,0,0,0-.37.38.36.36,0,0,0,.37.37h17.21c.66,0,1.07.35,1.07.91a.87.87,0,0,1-.79.91h-7a.38.38,0,0,0,0,.75h8.23c1,0,1.87.6,1.87,1.12s0,1.27-1.9,1.27h0a9.07,9.07,0,0,0-2-.2h-6.16a.38.38,0,0,0-.37.38.37.37,0,0,0,.37.37h6.16c1.44,0,3.16.21,3.16,1.21s-.52,1-3.16,1h-7.61a.38.38,0,1,0,0,.75h7.61a1.28,1.28,0,0,1,1.24,1.09c0,.74-1,1.14-1.24,1.14h-9.48a8.52,8.52,0,0,0-6.26,2.91s-1.51,2-4.08,5.12l-.2.24-.41.5-.4.48-.3.37-.37.45a24.3,24.3,0,0,1-5.06-10.57,5.49,5.49,0,0,1,.41-3.75h0l.72-.89c.47-.59.93-1.17,1.44-1.79a22.2,22.2,0,0,0,1.58-2.32,16.52,16.52,0,0,1,2.29-3.1c1.14-1.15,3.06-1.73,5.71-1.73a18.33,18.33,0,0,0,2.6-.22c1.42-.2,2-.23,2.15.25a1.2,1.2,0,0,1-.15,1.18A4.53,4.53,0,0,1,166,55.91ZM58.05,137.52c0,1.57,0,3.2-.12,4.95,0,.13,0,.26,0,.38a3.31,3.31,0,0,1-.55-1.13,7.82,7.82,0,0,1-.22-2.21,9.36,9.36,0,0,0-.15-2,5.93,5.93,0,0,0-.18-.66,3.49,3.49,0,0,0-.15-.34,6.48,6.48,0,0,0-1.47-2,3.75,3.75,0,0,1-.86-1.11,8.84,8.84,0,0,1-.42-2l0-.21a2.68,2.68,0,0,1,.67-1.79,2.56,2.56,0,0,1,2.29-.75,21.76,21.76,0,0,1,.83,3.68c.19,1.37.3,2.75.36,4.17C58,136.85,58.05,137.18,58.05,137.52Zm15.27,0V100h40.8v68.46a26.54,26.54,0,0,0-3.09,2.23c-4.3,3.71-7.37,12.85-8.69,19.55-.42,2.15-.82,4.85-1.16,7.81h-7v-57.7a.5.5,0,0,0-1,0v57.7h-7c-.21-3.72-.49-7.13-.82-10.12-.75-6.89-4.23-14.77-7.91-17.93a24.07,24.07,0,0,0-3.72-2.59l-.42-.23Zm59-2.4a24,24,0,0,1,1.65-9.35c2.07-4.92,5.9-7.42,11.38-7.42,5.1,0,8.81,2.6,11.06,7.73a25.65,25.65,0,0,1,2,9.1c0,.47,0,.9-.06,1.34s-.06.67-.1,1a22.12,22.12,0,0,1-3.35,8.77c-1.46,2.55-2.84,5-2.84,8.24.27,3.72,1.09,5.62,3.52,8.12l.31.32a14.54,14.54,0,0,1-10.66,4.73h-.29a14.57,14.57,0,0,1-10.39-4.45h-.3c.06,0,.11-.11.16-.16a12.83,12.83,0,0,0,3.63-8.61c0-2.36-1-4.41-2.24-6.79a37.24,37.24,0,0,1-2.33-5.32v0a22.48,22.48,0,0,1-1-4.83c0-.33,0-.67-.07-1S132.33,135.61,132.33,135.12Zm28.64,2.4a9.54,9.54,0,0,1-1.6,4.24,1.86,1.86,0,0,1-.79.74.61.61,0,0,1-.42,0,.21.21,0,0,1-.13-.13v0a18.29,18.29,0,0,0,1.23-4.81c0-.33.07-.66.09-1s.06-.87.06-1.34,0-1-.08-1.63a1.24,1.24,0,0,1,1.17.38,2.74,2.74,0,0,1,.51,1.53c0,.35,0,.7,0,1.06S161,137.18,161,137.52Zm-29.59-1c0,.33,0,.67.06,1a23,23,0,0,0,1,4.95l-.1.05a.66.66,0,0,1-.37,0,1.9,1.9,0,0,1-.77-.77,9.21,9.21,0,0,1-1.47-4.22,8.48,8.48,0,0,1-.05-1,8.32,8.32,0,0,1,.07-1.12,2.84,2.84,0,0,1,.55-1.51,1.24,1.24,0,0,1,1.08-.37c0,.55-.06,1.09-.06,1.66S131.36,136.08,131.38,136.52Zm83,26.47a13.38,13.38,0,0,1-19.48.11l.16-.11a9.5,9.5,0,0,0,2.95-4.75,12.9,12.9,0,0,0,.22-4.52.61.61,0,0,0,0-.19.57.57,0,0,0-.11-.22,1.93,1.93,0,0,0-.49-.53,8.41,8.41,0,0,1-2.53-3.66,18.7,18.7,0,0,1-1-4.68,48.3,48.3,0,0,1,0-6.92c0-.34.07-.67.11-1s.08-.83.13-1.23a19.1,19.1,0,0,1,.76-3.37,2,2,0,0,0,.25.13,3.79,3.79,0,0,1,2.34,2.82,2.61,2.61,0,0,0-.92,1.42.45.45,0,0,0,0,.23.47.47,0,0,0,.38.36h.1a.49.49,0,0,0,.48-.36s0,0,0,0a1.52,1.52,0,0,1,.11-.28,1.6,1.6,0,0,1,.47-.57,1.14,1.14,0,0,1,.47-.22,1.55,1.55,0,0,1,.32,0,1.48,1.48,0,0,1,1.35,1.14,3.63,3.63,0,0,1,.19,1c0,.09,0,.17,0,.27,0,2.78-.82,5.13-1.8,5.13h0a1.23,1.23,0,0,1-.5-.12,1.09,1.09,0,0,1-.5-.5,1.28,1.28,0,0,1-.08-.2.49.49,0,0,0-.48-.36h-.13a.5.5,0,0,0-.36.61,2.22,2.22,0,0,0,1.07,1.31,5.06,5.06,0,0,0,1.07,3.2,3.69,3.69,0,0,0,1.89,1.09,2.86,2.86,0,0,1,.94.37,1.74,1.74,0,0,1,.7.92,3.53,3.53,0,0,0,1.71,1.85,3.79,3.79,0,0,0,2.38.26,2.94,2.94,0,0,1,1.15,0,1.77,1.77,0,0,1,1,.62,3.5,3.5,0,0,0,2.24,1.15h.22a4.08,4.08,0,0,0,1.15-.16c-.06.24-.11.49-.16.75-.49,2.88-.12,6.75,2.22,9.27h0ZM193.18,144.5a19.42,19.42,0,0,0,1,4.95,9.42,9.42,0,0,0,2.86,4.11,1.12,1.12,0,0,1,.22.21,12,12,0,0,1-.2,4.24c-.34,1.42-1.63,3.81-3.08,4.49a36.9,36.9,0,0,0-16.78,4.91c-.51.29-1,.59-1.43.88l-.7-.42a40.31,40.31,0,0,0-18.34-5.37.57.57,0,0,0-.12-.23,10.14,10.14,0,0,1-3.55-7.78c0-3,1.25-5.17,2.71-7.71.62-1.08,1.27-2.22,1.85-3.49a.54.54,0,0,0,.12.09,1.56,1.56,0,0,0,.67.15,1.48,1.48,0,0,0,.51-.09,2.75,2.75,0,0,0,1.28-1.11,10.27,10.27,0,0,0,1.78-4.81h31.21A47.77,47.77,0,0,0,193.18,144.5Zm-62.81-2.21a2.75,2.75,0,0,0,1.25,1.15,1.47,1.47,0,0,0,.56.1,1.49,1.49,0,0,0,.47-.07l.13-.05a42.74,42.74,0,0,0,2.12,4.73c1.14,2.27,2.13,4.22,2.13,6.31a11.84,11.84,0,0,1-3.44,8h0a40.41,40.41,0,0,0-18.46,5.36V137.52h13.61A10.51,10.51,0,0,0,130.37,142.29ZM73.61,74.49a2,2,0,0,1-.68.41,1.49,1.49,0,0,1-2.16-1.41h0a3.31,3.31,0,0,1,2.16-2.88h0a1.27,1.27,0,0,1,.68-.06,3.22,3.22,0,0,1,.85-.47c1.24-.42,1.7.14,1.7.59a1.32,1.32,0,0,1-.86,1.15c-.47.16-.72,0-1-.4a1.49,1.49,0,0,0-.67-.52,2.74,2.74,0,0,0-1,2,1.22,1.22,0,0,0,1,1.3,3.93,3.93,0,0,0,.67-1c.41-.77.67-1,1-1.1a.59.59,0,0,1,.86.56c0,.45-.46,1.32-1.7,1.75h0A2,2,0,0,1,73.61,74.49ZM54.69,89.36Zm-7.4,4.32,4,1.59a13.32,13.32,0,0,0,1.06,3.18l.07.15c-2.77-.93-4.29-1.7-5.14-4.8Zm4.88,1.92c-.05-.19-.09-.39-.13-.59s-.08-.38-.11-.58c-.13-.72-.22-1.46-.28-2.19a2.44,2.44,0,0,1,0-.27c0-.61-.07-1.23-.09-1.85a49.29,49.29,0,0,1,.6-9.19,2.1,2.1,0,0,1,.6-1.15.83.83,0,0,1,.7-.18.87.87,0,0,1,.61.4,2.05,2.05,0,0,1,.13.9c0,1.63,0,2.93.06,4.23,0,.68,0,1.35,0,2.07s0,1.38,0,2.17a.33.33,0,0,0,.1.23.35.35,0,0,0,.28.14h0a.37.37,0,0,0,.37-.38v0c0-.15,0-1.37,0-2.92,0-2.75-.08-6.48-.08-6.84a2.63,2.63,0,0,1,.36-1.24,1.21,1.21,0,0,1,.86-.67,1.26,1.26,0,0,1,1.18.89A3.76,3.76,0,0,1,57.48,80c0,.14,0,.29,0,.43,0,1.26,0,2.33,0,3.35s0,1.93.06,3c0,.64.05,1.32.08,2.07V89h0v0a.34.34,0,0,0,.23.31.39.39,0,0,0,.15,0h0a.32.32,0,0,0,.09,0h0l.07,0,0,0,0,0a.35.35,0,0,0,0-.08h0a.28.28,0,0,0,0-.09h0s0,0,0,0c-.05-.78-.08-1.6-.1-2.41,0-1.25,0-2.48,0-3.55,0-1.86,0-3.21,0-3.24a3.6,3.6,0,0,1,.25-1.47,1.09,1.09,0,0,1,.5-.55,1,1,0,0,1,.41-.09h.09c.81.07,1,1,1,1.77a2.53,2.53,0,0,1,0,.27c0,.21,0,.41,0,.6a1.21,1.21,0,0,1,0,.19c0,2.52,0,4.25,0,6.54v2.17a.37.37,0,0,0,.38.37.36.36,0,0,0,.37-.37V87c0-2.49,0-4.34-.07-7.24a1.51,1.51,0,0,1,.52-.69,1,1,0,0,1,1-.24c.48.22.76.81.87,1.84.17,1.49.21,3,.25,4.49,0,1.06.05,2.15.12,3.22a24.89,24.89,0,0,0,.5,3.27A19.91,19.91,0,0,1,65,94.85v0a4.34,4.34,0,0,1,0,.51v0h0a3.25,3.25,0,0,1-.06.54h0a7.07,7.07,0,0,1-2.25,4.15A6.89,6.89,0,0,1,57,101.29l-.25-.05c-.16,0-.33-.07-.49-.12s-.34-.14-.5-.21C53.82,100,52.75,98,52.17,95.6ZM56.83,102a11.37,11.37,0,0,0,1.79.15,6.89,6.89,0,0,0,4.52-1.49,7.72,7.72,0,0,0,2.56-5h0l3.58-1.41h0a76.8,76.8,0,0,1-.68,8,10.3,10.3,0,0,1-2.71,5.83c-1.39,1.35-3.8,2.16-5.7,1.12a6.27,6.27,0,0,1-2.49-3,8.34,8.34,0,0,1-1-4.22A.58.58,0,0,0,56.83,102Zm15.49,64.61a36.91,36.91,0,0,0-15.49-4.15h0a10.57,10.57,0,0,1-1.91-4h6.44a.49.49,0,0,0,.5-.45,6.86,6.86,0,0,0-.48-3.89l-.1-.31a5.08,5.08,0,0,0-.66-1.24,5.37,5.37,0,0,1-.86-1.91,6.61,6.61,0,0,1,0-2.1,8,8,0,0,0-.18-3.09,5.93,5.93,0,0,0-.71-1.49c.07-.5.12-1,.15-1.49.12-1.77.16-3.43.12-5H72.32Zm-36.7-3.14a14.25,14.25,0,0,0,10.56,4.75h.28a14.29,14.29,0,0,0,10.32-4.5.28.28,0,0,0,.12,0,.51.51,0,0,0,.41-.2l0-.06a35.79,35.79,0,0,1,15,4.25l.5.27.42.22.08,0a24,24,0,0,1,3.49,2.43c3.51,3,6.84,10.62,7.57,17.29.33,3,.59,6.33.81,10H6.85c.36-3.82.84-7.34,1.36-10,1.17-6,3.87-14.1,7.62-17.33a24.16,24.16,0,0,1,3.58-2.48A35.85,35.85,0,0,1,35.62,163.5ZM203.79,19.93V116a3.46,3.46,0,0,0-2.11.63,3.87,3.87,0,0,0-1.35,2,2.82,2.82,0,0,1-.52,1,1.8,1.8,0,0,1-1,.57,3.5,3.5,0,0,0-2.08,1.42,3.88,3.88,0,0,0-.59,2.33,2.85,2.85,0,0,1-.14,1.13,1.65,1.65,0,0,1-.76.83,2.91,2.91,0,0,0-1.45,2.11,4.5,4.5,0,0,0,.59,3.17,20.18,20.18,0,0,0-.94,4c-.06.45-.1.91-.15,1.37H162a11.45,11.45,0,0,0,0-1.17,3.85,3.85,0,0,0-.73-2.06,2.34,2.34,0,0,0-2-.75c-.75-5.83-4-15.19-13.85-15.19-5.84,0-10.09,2.78-12.31,8a23.13,23.13,0,0,0-1.62,7.12,2.32,2.32,0,0,0-1.87.73,3.73,3.73,0,0,0-.79,2,8.65,8.65,0,0,0-.08,1.25H115.12V71.13l4.19,14.47c.63,2.18,1.28,4.43,2.06,6.63.29.79.56,1.59.83,2.39,1.54,4.54,3,8.84,5.85,9.68,5.34,1.57,17.87-7.63,32.37-18.29l4.22-3.1h0a2.42,2.42,0,0,0,.7-1.62,14.6,14.6,0,0,0-1.82-9.62.23.23,0,0,0-.09-.08l.66-.85a7.86,7.86,0,0,1,5.67-2.62h9.48c.58,0,2-.66,2-1.89a1.94,1.94,0,0,0-.47-1.11c1.51-.07,2.39-.38,2.39-1.7a1.48,1.48,0,0,0-.54-1.18A1.69,1.69,0,0,0,184,60.37c0-1-1.17-1.85-2.57-1.87a1.74,1.74,0,0,0,.26-.91,1.67,1.67,0,0,0-1.82-1.66h-11a3.46,3.46,0,0,0,1.2-1,1.94,1.94,0,0,0,.23-1.87c-.41-1.08-1.53-.92-2.95-.72a17.85,17.85,0,0,1-2.5.21c-2.86,0-5,.66-6.24,2a17.31,17.31,0,0,0-2.39,3.23,23.55,23.55,0,0,1-1.53,2.25c-.51.62-.67.82-1.14,1.41l-.05.06c-.32.37-.83.67-1.21,1.12l-1.41,1.75c-5.15,6.4-10,12.45-16.09,18.07-.51-1.79-1-3.52-1.55-5.24-1.1-3.64-2.14-7.08-3-10.92-1.19-5.79-3.83-13.65-7.39-16.71a23.25,23.25,0,0,0-3.49-2.42,34.49,34.49,0,0,0-15.74-4.59,9.41,9.41,0,0,1-2.89-4.93h9.13a.5.5,0,0,0,.35-.14.49.49,0,0,0,.15-.36l0-17.11Zm-157.28,0h32l0,17.11a.5.5,0,0,0,.5.5h7.84a10.08,10.08,0,0,1-3,4.93A34.49,34.49,0,0,0,68.1,47.06a23.25,23.25,0,0,0-3.49,2.42c-3.66,3.15-6.29,11-7.44,16.73h0a39.94,39.94,0,0,0-.73,6l-9.93-3.91Zm0,73.71c1,4.11,3.11,4.82,6.56,6a5.75,5.75,0,0,0,2.62,2.13v.07a9.23,9.23,0,0,0,1.12,4.87,7.23,7.23,0,0,0,2.91,3.42,4.9,4.9,0,0,0,2.37.59,6.73,6.73,0,0,0,4.5-1.86,11.37,11.37,0,0,0,3-6.38,82.22,82.22,0,0,0,.7-8.59l2-.8v43.48H59c-.06-1.46-.18-2.89-.37-4.3a22.57,22.57,0,0,0-.89-3.93c1.16-1.79,1.56-3.29,1.19-4.58-.6-2.12-3.13-3.26-5.8-4.46-.92-.41-1.87-.84-2.77-1.32a9.87,9.87,0,0,0-3.87-1.06Z"></path><path d="M149.46,121.68a4.35,4.35,0,0,1,2.8,2,.52.52,0,0,0,.43.24.48.48,0,0,0,.26-.07.5.5,0,0,0,.17-.69,5.36,5.36,0,0,0-3.46-2.44.51.51,0,0,0-.59.39A.5.5,0,0,0,149.46,121.68Z"></path><path d="M75.86,72.73a.38.38,0,0,0-.56-.36c-.31.11-.47.29-.78.88a5.63,5.63,0,0,1-.6.93,1.85,1.85,0,0,0,.54-.11C75,73.88,75.86,73.33,75.86,72.73Z"></path><path d="M72.3,73a3.1,3.1,0,0,1,1-2.12,1.06,1.06,0,0,0-.34.06,2.84,2.84,0,0,0-1.86,2.48,1.28,1.28,0,0,0,1.86,1.21,1.54,1.54,0,0,0,.34-.17A1.42,1.42,0,0,1,72.3,73Z"></path><path d="M74.52,71.17c.31.38.47.45.78.34a.84.84,0,0,0,.56-.74c0-.36-.44-.71-1.4-.38a2.24,2.24,0,0,0-.54.26A2.17,2.17,0,0,1,74.52,71.17Z"></path></svg>