<svg xmlns="http://www.w3.org/2000/svg" viewBox="0 0 196.62 196.62"><defs><style>.cls-1{fill:#fff;stroke:#2c6eb5;stroke-miterlimit:10;stroke-width:3px;}.cls-2{fill:#f4822a;}.cls-3{fill:#fefefe;}.cls-4{fill:#111;}.cls-5{fill:#222;}.cls-6{fill:#333;}.cls-7{fill:#545454;}.cls-8{fill:#656565;}.cls-9{fill:#767676;}.cls-10{fill:#878787;}.cls-11{fill:#444;}.cls-12{fill:#9c9c9c;}.cls-13{fill:#525252;}.cls-14{fill:#838383;}.cls-15{fill:#3b3b3b;}.cls-16{fill:#5c5c5c;}.cls-17{fill:#7b7b7b;}.cls-18{fill:#020202;}.cls-19{fill:#b1b1b1;}</style></defs><g id="Background"><rect class="cls-1" x="1.5" y="1.5" width="193.62" height="193.62"></rect></g><g id="IDENTIFYING_STORIES_TO_MASTER_THEM" data-name="IDENTIFYING STORIES TO MASTER THEM"><path class="cls-2" d="M177.43,74.29c-.61,2.73-1.11,5.49-1.85,8.18-2.42,8.86-6.27,17-13,23.48-6.35,6.17-14.18,9.36-22.74,11A72.27,72.27,0,0,1,124.53,118c-3.91-.1-7.83.23-11.74-.14-10.11-1-19.57-3.69-27.46-10.42C78.49,101.59,74.4,94,71.63,85.59A65.28,65.28,0,0,1,69,73.69c-.31-2.33.68-3.48,3.06-3.62a64.34,64.34,0,0,1,9.21,0c.9.07,1.07-.2,1-1.06a65.83,65.83,0,0,1,.86-16.7c.51-2.75,1.59-3.49,4.31-2.79a62.28,62.28,0,0,1,20.07,9.08c.9.62,1.22.58,1.64-.47a65.63,65.63,0,0,1,11.71-18.71c1.67-1.89,3-1.89,4.76,0a67,67,0,0,1,12.33,19.71c1.3-.82,2.53-1.64,3.79-2.4a62.84,62.84,0,0,1,17.46-7.28c2.44-.61,3.59.15,4,2.62a63.53,63.53,0,0,1,.9,16.69c-.09,1,.09,1.4,1.23,1.29a67.36,67.36,0,0,1,8.76-.07,3.6,3.6,0,0,1,3.34,1.85Z" transform="translate(-1.69 -1.69)"></path><path d="M108.48,22.58a18.91,18.91,0,0,0,4.36.71c11.48,1.84,21.37,7.09,30.48,14.06a52.21,52.21,0,0,1,6.11,5.4c1.34,1.39,1.48,2.86.4,4s-2.67,1-4.11-.38c-8.65-8.3-18.54-14.42-30.3-17.26A58.89,58.89,0,0,0,94.7,28.3a157.79,157.79,0,0,0-25,4.62,36.81,36.81,0,0,0-13.94,6.92A40.46,40.46,0,0,0,42.59,61.23a79.86,79.86,0,0,1-4.7,14c-1.37,3-1.19,3.42,1.36,5.52a10.27,10.27,0,0,1,2.93,3.59,6.59,6.59,0,0,1,0,6A108.46,108.46,0,0,1,30,110c-.19.24-.38.47-.56.72-2.21,3.06-2.32,2.62.91,4.72.93.6,2,1,2.91,1.59,4,2.34,5.21,6,3.41,10.33-.21.51-.47,1-.73,1.49-1.06,2-1.06,2,.83,3.45l.48.35c2.13,1.61,2.29,2.52.86,4.81-.35.57-.74,1,.21,1.52,4.19,2.39,5.51,5.46,4.37,10.12a11.65,11.65,0,0,0,.23,6.82,4.62,4.62,0,0,0,5.83,3.17c9.51-2.23,18.69-5.49,27.88-8.72a92.06,92.06,0,0,0,10.86-4.05,18.63,18.63,0,0,0,4.27-2.8,6.86,6.86,0,0,0,2.42-4.71,2.46,2.46,0,0,1,2.72-2.56,2.58,2.58,0,0,1,2.38,2.93,10.7,10.7,0,0,1-3.29,7.4c-3.5,3.54-8,5.34-12.55,6.93-2.13.74-4.27,1.46-6.5,2.22.17.26.27.49.42.67a40.19,40.19,0,0,1,8.2,14.79c.19.64.37,1.11,1.27,1.1q28.5-.15,57-.23a2.3,2.3,0,0,0,.36-.09,9.07,9.07,0,0,0-1.27-2.33c-3.24-5.95-4.91-12.4-6.15-19-1.48-7.9-1.87-15.79.14-23.67.19-.73.39-1.46.59-2.18.55-1.93,1.82-2.82,3.37-2.36s2.1,1.83,1.59,3.68a46.1,46.1,0,0,0-1.63,8.89c-.58,7.38.77,14.54,2.58,21.63a40.17,40.17,0,0,0,5.9,13.45,17.73,17.73,0,0,1,1.64,3.22c.78,1.87.29,3-1.61,3.84a29.4,29.4,0,0,1-4,.11H94.94a71.48,71.48,0,0,0-7.32.16H83.08A2.92,2.92,0,0,1,80.92,175a44.24,44.24,0,0,0-4.74-11.07,21.88,21.88,0,0,0-3.82-4.65,2.43,2.43,0,0,0-2.75-.58c-6.37,2.25-12.84,4.12-19.39,5.8a10.14,10.14,0,0,1-11.92-5.3A15.39,15.39,0,0,1,37,149.33c.06-.3.12-.6.17-.89.54-3,.33-3.47-2.24-5.07-2.93-1.83-3.44-3-2.77-6.4a1.49,1.49,0,0,0-.51-1.6c-2.86-2.49-3.68-3.34-1.25-8a20.38,20.38,0,0,0,1.28-2.56,2.15,2.15,0,0,0-.86-2.77,17.56,17.56,0,0,0-2.1-1.21A19.45,19.45,0,0,1,25.6,119a6.47,6.47,0,0,1-3-4.47V112.4a9.5,9.5,0,0,1,2.33-4.94A105,105,0,0,0,36.75,88.71a2.25,2.25,0,0,0-.5-3.08c-.64-.56-1.22-1.2-1.82-1.81-3.09-3.14-3.66-6.16-1.93-10.21a84.5,84.5,0,0,0,3.17-7.84c.75-2.41,1.13-4.9,1.88-7.31a49.52,49.52,0,0,1,12-20.55c5-5.07,11.14-8.11,17.82-10.1a143,143,0,0,1,25.78-4.89c1.59-.17,3.2-.07,4.78-.34h.9c.19.21.44.14.67.16s.6.09.85-.16h5.74c.18.2.42.15.65.16h.52c.23,0,.47,0,.65-.16Z" transform="translate(-1.69 -1.69)"></path><path class="cls-3" d="M97.9,22.58c-2.1.71-4.3.6-6.46.89A170.87,170.87,0,0,0,68.36,27.9C51.58,32.51,41.94,44,37.52,60.3a105.78,105.78,0,0,1-4.73,13.79c-1.69,3.93-.89,7,2.31,9.9s3.07,2.73,1.26,6.34A97.66,97.66,0,0,1,26,106.74a19.74,19.74,0,0,0-3.38,5.66q0-44.31,0-88.61c0-1,.2-1.24,1.24-1.24Q60.85,22.61,97.9,22.58Z" transform="translate(-1.69 -1.69)"></path><path class="cls-3" d="M22.6,114.52c1.11,2.84,3.35,4.5,6,5.84,4.55,2.32,4.65,2.76,2.13,7.33-.22.39-.44.79-.63,1.2-1.22,2.6-1,3.87,1.23,5.65,1.07.86,1.77,1.46,1.1,3.13-.86,2.14,0,3.7,2,5,3.79,2.41,3.82,2.42,3,6.82A15.35,15.35,0,0,0,38.62,159a9.49,9.49,0,0,0,10.8,5.21,175.36,175.36,0,0,0,20.2-6,2.5,2.5,0,0,1,2.82.55,23.87,23.87,0,0,1,5.45,7.35,41.07,41.07,0,0,1,3.29,8.39,4.74,4.74,0,0,0,1.9,2.9q-29.64,0-59.27,0c-1,0-1.24-.21-1.24-1.24Q22.63,145.35,22.6,114.52Z" transform="translate(-1.69 -1.69)"></path><path class="cls-4" d="M87.62,177.42c1.22-.65,2.54-.2,3.81-.29s2.3,0,3.45,0c.1.07.13.14.09.2s-.06.1-.1.1Z" transform="translate(-1.69 -1.69)"></path><path class="cls-5" d="M94.87,177.42c0-.1,0-.2,0-.3h7.26c.09.07.12.13.09.2s-.07.09-.1.09Z" transform="translate(-1.69 -1.69)"></path><path class="cls-6" d="M102.13,177.42a2.81,2.81,0,0,1,0-.29h7.26c.09.07.12.13.09.19s-.07.09-.1.09Z" transform="translate(-1.69 -1.69)"></path><path class="cls-7" d="M116.36,177.17h7.25c.09.06.12.11.09.17a.14.14,0,0,1-.1.08h-7.26q-.15-.09-.09-.18C116.29,177.19,116.32,177.17,116.36,177.17Z" transform="translate(-1.69 -1.69)"></path><path class="cls-8" d="M123.6,177.42a2.18,2.18,0,0,0,0-.25h7.26c.09.06.12.11.09.17s-.07.08-.1.08Z" transform="translate(-1.69 -1.69)"></path><path class="cls-9" d="M130.86,177.42c0-.09,0-.17,0-.25h7.26c.09.05.12.11.09.17s-.07.08-.1.08Z" transform="translate(-1.69 -1.69)"></path><path class="cls-10" d="M138.12,177.42a2,2,0,0,1,0-.25h7.25c.1.06.13.11.09.17s-.06.08-.09.08Z" transform="translate(-1.69 -1.69)"></path><path class="cls-11" d="M116.36,177.17c0,.08,0,.16,0,.25h-7a2.62,2.62,0,0,1,0-.28Z" transform="translate(-1.69 -1.69)"></path><path class="cls-12" d="M145.38,177.42v-.25l4,0a.36.36,0,0,0,0,.27Z" transform="translate(-1.69 -1.69)"></path><path class="cls-13" d="M100.32,22.58c-.23.38-.58.31-.93.27-.08-.07-.11-.13-.08-.19s.07-.08.1-.08Z" transform="translate(-1.69 -1.69)"></path><path class="cls-14" d="M99.41,22.58a.82.82,0,0,1,0,.27c-.25,0-.52.11-.59-.27Z" transform="translate(-1.69 -1.69)"></path><path class="cls-15" d="M106.69,22.84a.52.52,0,0,1-.63-.26h.61c.09.05.12.11.1.17S106.72,22.84,106.69,22.84Z" transform="translate(-1.69 -1.69)"></path><path class="cls-16" d="M106.69,22.84a2.11,2.11,0,0,1,0-.26h.6c.1.05.13.11.1.17s-.05.09-.08.09Z" transform="translate(-1.69 -1.69)"></path><path class="cls-17" d="M107.29,22.84a2.28,2.28,0,0,1,0-.26h.61C107.8,23,107.54,22.87,107.29,22.84Z" transform="translate(-1.69 -1.69)"></path><path d="M49.09,70.49a2.5,2.5,0,0,1-2.71-2.87C48.77,54.3,55.7,42.29,70.16,38.15c.24-.07.48-.14.73-.19a2.53,2.53,0,0,1,3.27,1.84,2.48,2.48,0,0,1-1.92,3.08,27.92,27.92,0,0,0-9.31,4.5c-5.45,4.19-8.51,9.92-10.37,16.39-.44,1.55-.76,3.12-1.16,4.68A2.46,2.46,0,0,1,49.09,70.49Z" transform="translate(-1.69 -1.69)"></path><path class="cls-18" d="M45.76,79.37a2.68,2.68,0,0,1-2.53-2.68A2.57,2.57,0,0,1,46,74.24a2.46,2.46,0,0,1,2.41,2.55A2.58,2.58,0,0,1,45.76,79.37Z" transform="translate(-1.69 -1.69)"></path><path class="cls-3" d="M116.1,112.9c-7.52-.4-14.76-1.84-21.49-5.37-8-4.2-12.94-11-16.37-19.07A57.61,57.61,0,0,1,74.6,76.2c-.12-.66-.22-1.09.76-1.1,8.73-.07,17.13,1.3,24.94,5.43,8,4.24,13,11.11,16.36,19.27a63.24,63.24,0,0,1,3.52,11.82c.2,1,0,1.39-1.06,1.3S117.11,112.9,116.1,112.9Z" transform="translate(-1.69 -1.69)"></path><path class="cls-3" d="M130.27,112.9c-1.11,0-2.22,0-3.33,0-.87,0-1-.33-.85-1.09,1.73-10,5.67-18.87,12.88-26.1,5-5,11.25-7.68,18-9.27a56.12,56.12,0,0,1,13.8-1.35c.57,0,1.19-.17,1,.9-1.84,9.55-5.22,18.39-12.06,25.55-5.53,5.79-12.59,8.68-20.28,10.24A62.48,62.48,0,0,1,130.27,112.9Z" transform="translate(-1.69 -1.69)"></path><path class="cls-3" d="M120.35,95.22a56.31,56.31,0,0,0-4.46-7.53c-6.49-9-15.46-14.18-26.2-16.37-1.72-.35-2.29-1-2.35-2.62a77.4,77.4,0,0,1,.34-12.37c.07-.54-.13-1.44,1-1.07,8.89,2.86,17.07,7,23.26,14.19s8.68,16,8.57,25.43C120.54,95,120.47,95,120.35,95.22Z" transform="translate(-1.69 -1.69)"></path><path class="cls-3" d="M125.77,93.33c.47-13.49,5.84-24.23,17.55-31.48a62.25,62.25,0,0,1,14-6.51c.73-.23,1.19-.31,1.31.7a80.21,80.21,0,0,1,.26,13.42c-.07,1.4-.81,1.57-1.85,1.75a42.85,42.85,0,0,0-18.5,8,41.28,41.28,0,0,0-12.32,15.59C125.48,94.51,126.13,93.76,125.77,93.33Z" transform="translate(-1.69 -1.69)"></path><path class="cls-3" d="M123.2,44.59A62.8,62.8,0,0,1,133.45,62a1,1,0,0,1-.26,1.19c-6.23,7-6.23,7-10,15.37-.63-1.48-1.18-2.89-1.83-4.25a35.72,35.72,0,0,0-7.54-10.48,1.69,1.69,0,0,1-.51-2.19A64.14,64.14,0,0,1,123.2,44.59Z" transform="translate(-1.69 -1.69)"></path><path class="cls-19" d="M125.77,93.33c.4.41,0,1.08.47,1.48a1.48,1.48,0,0,1-.18.38c-.2.23-.32.08-.33-.13C125.73,94.48,125.75,93.91,125.77,93.33Z" transform="translate(-1.69 -1.69)"></path></g></svg>