<svg xmlns="http://www.w3.org/2000/svg" viewBox="0 0 196.62 196.62"><defs><style>.cls-1{fill:#fff;stroke:#2c6eb5;stroke-miterlimit:10;stroke-width:3px;}.cls-2{fill:#111;}.cls-3{fill:#fefefe;}.cls-4{fill:#f4822a;}</style></defs><g id="Background"><rect class="cls-1" x="1.5" y="1.5" width="193.62" height="193.62"></rect></g><g id="IDENTIFY_THE_VITAL_BEHAVIOURS" data-name="IDENTIFY THE VITAL BEHAVIOURS"><path d="M179.94,109.11c-.45,5.36-5.33,10.42-11,11.52a32.67,32.67,0,0,1-6.4.26c-.89,0-1.13.24-1.12,1.12,0,4,0,8,0,12.06,0,9-5.95,15-14.95,15a26.74,26.74,0,0,1-3,0c-1-.09-1.21.24-1.2,1.2,0,7.15,0,14.3,0,21.45,0,3.76-1.79,5.55-5.55,5.56H63.34c-3.78,0-5.57-1.78-5.57-5.53,0-6.32,0-12.63,0-18.95,0-1.18.38-2.74-.22-3.46s-2.25-.25-3.43-.23a15.45,15.45,0,0,1-7.57-1.51,13.66,13.66,0,0,1-7.84-12.25c-.15-3.54,0-7.1-.05-10.65,0-1.23.55-2.86-.25-3.58s-2.27-.21-3.46-.2a16.18,16.18,0,0,1-5.69-.85,14.2,14.2,0,0,1-8.57-18.33A9.29,9.29,0,0,1,24.39,97c2.4-1.54,3.42-3.82,3.94-6.46a66,66,0,0,0,1-12,50.09,50.09,0,0,1,10.47-31,51.16,51.16,0,0,1,36.6-20.38A50.37,50.37,0,0,1,99.11,30.1a2.87,2.87,0,0,0,2.08-.1,52.1,52.1,0,0,1,67.53,34.16,53.33,53.33,0,0,1,2.12,15.59A49.85,49.85,0,0,0,172,91.55a8.54,8.54,0,0,0,3.51,5.33,9.46,9.46,0,0,1,4.42,7.37c.35.72-.13,1.54.28,2.26v.94C179.84,108,180.23,108.59,179.94,109.11Z" transform="translate(-1.69 -1.69)"></path><path class="cls-2" d="M180.21,106.51c-.58-.7-.27-1.5-.28-2.26a.32.32,0,0,0,.28.07Z" transform="translate(-1.69 -1.69)"></path><path class="cls-2" d="M179.94,109.11c0-.57-.25-1.18.27-1.66V109A.3.3,0,0,1,179.94,109.11Z" transform="translate(-1.69 -1.69)"></path><path class="cls-3" d="M112.25,36.92a37.55,37.55,0,0,1,8.72-.5,42.6,42.6,0,0,1,38,28.16,41.74,41.74,0,0,1,2.45,14.09c0,5.59.25,11.15,1.87,16.56a15.84,15.84,0,0,0,5.52,8.32c2.05,1.59,2.45,2.7,1.77,4.73a4.61,4.61,0,0,1-4.51,3.22c-2.92,0-5.84,0-8.77,0-3.42,0-5.27,1.88-5.28,5.34,0,5.84,0,11.68,0,17.53,0,3.43-1.88,5.3-5.32,5.31-2.87,0-5.74,0-8.61,0-3.24,0-5.16,1.91-5.17,5.13,0,7.15,0,14.3,0,21.44,0,1.23-.18,1.68-1.56,1.65-5.27-.1-10.54-.07-15.81,0-1.07,0-1.5-.12-1.49-1.39.07-9.5,0-19,0-28.49a50.66,50.66,0,0,1,9.56-30.27c15.69-22,10.9-53.14-10.45-69.79C112.9,37.69,112.43,37.52,112.25,36.92Z" transform="translate(-1.69 -1.69)"></path><path class="cls-3" d="M88.13,37A56.77,56.77,0,0,0,79,45.66a51.21,51.21,0,0,0-2.39,62.41A49.2,49.2,0,0,1,85.92,137c.1,9.91,0,19.82.06,29.73,0,1-.32,1.18-1.23,1.17-5.48,0-11-.05-16.44,0-1,0-1.17-.31-1.17-1.23,0-7.2,0-14.4,0-21.6,0-3.54-1.85-5.37-5.4-5.38-2.87,0-5.74,0-8.61,0a4.74,4.74,0,0,1-5.09-5.07c0-5.79,0-11.58,0-17.37,0-4-1.72-5.74-5.67-5.74-2.71,0-5.43,0-8.14,0a4.76,4.76,0,0,1-5-5.61,1.82,1.82,0,0,1,.78-1.45c5.49-3.6,7.14-9.19,8-15.24.7-4.92.36-9.89.84-14.83A42.39,42.39,0,0,1,70.85,37.66,42.89,42.89,0,0,1,88.13,37Z" transform="translate(-1.69 -1.69)"></path><path class="cls-4" d="M95.35,149.21c-.16-5.12.27-11.33-.3-17.53-.92-9.93-3.81-19.18-9.69-27.33C81.15,98.51,78.06,92.22,77.1,85c-2.12-15.87,3-29,15.18-39.38A40.82,40.82,0,0,1,99,41.17a1.82,1.82,0,0,1,2,0c12.91,7.28,20.51,18.18,22.2,33a40.32,40.32,0,0,1-7.81,29.17c-7.22,9.91-10.46,21.09-10.64,33.21-.14,10-.06,19.92,0,29.89,0,1.19-.24,1.6-1.51,1.53-2.18-.11-4.38-.09-6.57,0-1.07,0-1.39-.22-1.37-1.35C95.38,161.14,95.35,155.71,95.35,149.21Z" transform="translate(-1.69 -1.69)"></path></g></svg>