<svg xmlns="http://www.w3.org/2000/svg" viewBox="0 0 1260 1315" width="300" height="313"><title>inf-icon-ai</title><style>
		tspan { white-space:pre }
		.s0 { fill: #f3f5f5 } 
		.s1 { fill: none;stroke: #2c2e35;stroke-width: 5 } 
		.s2 { fill: none;stroke: #2c2e35;stroke-width: 5;stroke-dasharray: 60,60 } 
		.s3 { fill: #ff3026 } 
		.s4 { fill: none;stroke: #2c2e35;stroke-width: 5;stroke-dasharray: 55,55 } 
		.s5 { fill: #5ba1b2 } 
		.s6 { fill: #5ab16d } 
	</style><g id="Layer 1"><g id="&lt;Group&gt;"><g id="&lt;Group&gt;"><path id="&lt;Path&gt;" class="s0" d="m3136.5 641.75h-1019.46v-1019.46h1019.46v1019.46z"></path></g><g id="&lt;Group&gt;"><g id="&lt;Group&gt;"><path id="&lt;Path&gt;" class="s1" d="m3197.54 703.83v30h-30"></path><path id="&lt;Path&gt;" class="s2" d="m3108.39 733.83h-1035.12"></path><path id="&lt;Path&gt;" class="s2" d="m2043.7 733.83h-30v-30"></path><path id="&lt;Path&gt;" class="s2" d="m2013.7 644.68v-1035.12"></path><path id="&lt;Path&gt;" class="s2" d="m2013.7-420.01v-30h30"></path><path id="&lt;Path&gt;" class="s2" d="m2102.85-450.01h1035.12"></path><path id="&lt;Path&gt;" class="s2" d="m3167.54-450.01h30v30"></path><path id="&lt;Path&gt;" class="s2" d="m3197.54-360.86v1035.12"></path></g></g><g id="Main"><path id="Fill-1-Copy-4" fill-rule="evenodd" class="s3" d="m3044-107.33v429.32c0 13.42-8.14 25.06-20.72 29.65c-3.59 1.31-7.28 1.95-10.92 1.95c-9.08 0-17.82-3.97-23.96-11.32l-81.7-97.79c-8.03-9.65-19.84-15.17-32.38-15.17h-97.25v237.34c0 13.42-8.14 25.07-20.75 29.65c-3.57 1.31-7.26 1.95-10.89 1.95c-9.07 0-17.83-3.99-23.98-11.35l-81.66-97.77c-8.04-9.64-19.86-15.16-32.39-15.16h-339.32c-46.61 0-84.55-38.01-84.55-84.71v-251.91c0-46.72 37.94-84.71 84.55-84.71h182.39v-59.93c0-46.72 37.92-84.71 84.53-84.71h424.46c46.62 0 84.55 38 84.55 84.71zm-315.37 336.63h-193.64c-46.61 0-84.53-38.01-84.53-84.71v-143.45h-182.39c-19.91 0-36.12 16.23-36.12 36.18v251.91c0 19.95 16.21 36.18 36.12 36.18h339.32c26.91 0 52.26 11.86 69.54 32.54l51.7 61.92v-190.58zm266.94-336.63c0-19.95-16.2-36.18-36.12-36.18h-424.46c-19.91 0-36.1 16.24-36.1 36.18v59.93h193.62c46.62 0 84.55 38 84.55 84.71v143.45h97.25c26.93 0 52.27 11.88 69.53 32.56l51.72 61.92v-382.58zm-266.94 144.65c0-19.96-16.2-36.18-36.12-36.18h-193.62v143.45c0 19.95 16.19 36.18 36.1 36.18h193.64v-143.45z"></path></g></g><g id="&lt;Group&gt;"><g id="&lt;Group&gt;"><path id="&lt;Path&gt;" class="s0" d="m-534.77-122.95h-999.17v-999.17h999.17v999.17z"></path></g><g id="&lt;Group&gt;"><g id="&lt;Group&gt;"><path id="&lt;Path&gt;" class="s2" d="m-474.95-62.7v30h-30"></path><path id="&lt;Path&gt;" class="s2" d="m-562.85-32.7h-1013.41"></path><path id="&lt;Path&gt;" class="s2" d="m-1605.22-32.7h-30v-30"></path><path id="&lt;Path&gt;" class="s2" d="m-1635.22-120.61v-1013.41"></path><path id="&lt;Path&gt;" class="s2" d="m-1635.22-1162.97v-30h30"></path><path id="&lt;Path&gt;" class="s2" d="m-1547.31-1192.97h1013.41"></path><path id="&lt;Path&gt;" class="s2" d="m-504.95-1192.97h30v30"></path><path id="&lt;Path&gt;" class="s2" d="m-474.95-1105.07v1013.41"></path></g></g><g id="Main 00000089565321780653666960000007963278833580118172 "><path id="Fill-1-Copy-4 00000077306148901899500700000016375803007814294167 " fill-rule="evenodd" class="s3" d="m-625.44-857.11v420.77c0 13.15-7.98 24.56-20.31 29.06c-3.52 1.28-7.14 1.91-10.71 1.91c-8.9 0-17.46-3.89-23.48-11.09l-80.07-95.85c-7.87-9.46-19.45-14.87-31.74-14.87h-95.32v232.61c0 13.15-7.98 24.57-20.34 29.06c-3.5 1.28-7.12 1.91-10.68 1.91c-8.89 0-17.47-3.91-23.5-11.12l-80.03-95.83c-7.88-9.45-19.47-14.86-31.75-14.86h-332.56c-45.68 0-82.87-37.25-82.87-83.03v-246.9c0-45.79 37.18-83.03 82.87-83.03h178.76v-58.74c0-45.79 37.16-83.03 82.85-83.03h416.01c45.69 0 82.87 37.24 82.87 83.03zm-309.09 329.93h-189.79c-45.68 0-82.85-37.25-82.85-83.03v-140.59h-178.76c-19.51 0-35.4 15.9-35.4 35.46v246.9c0 19.55 15.89 35.46 35.4 35.46h332.56c26.38 0 51.22 11.63 68.16 31.9l50.67 60.69v-186.79zm261.62-329.93c0-19.55-15.88-35.46-35.4-35.46h-416.01c-19.51 0-35.38 15.91-35.38 35.46v58.74h189.77c45.69 0 82.87 37.24 82.87 83.03v140.59h95.32c26.4 0 51.23 11.64 68.15 31.92l50.69 60.69v-374.96zm-261.62 141.77c0-19.56-15.88-35.46-35.4-35.46h-189.77v140.59c0 19.55 15.87 35.46 35.38 35.46h189.79v-140.59z"></path></g></g><g id="&lt;Group&gt;"><g id="&lt;Group&gt;"><path id="&lt;Path&gt;" class="s0" d="m-383.81 1190.77h-1007.81v-990.59h1007.81v990.59z"></path></g><g id="&lt;Group&gt;"><g id="&lt;Group&gt;"><path id="&lt;Path&gt;" class="s2" d="m-298.47 1240.25v30h-30"></path><path id="&lt;Path&gt;" class="s2" d="m-386.9 1270.25h-1022.66"></path><path id="&lt;Path&gt;" class="s2" d="m-1438.78 1270.25h-30v-30"></path><path id="&lt;Path&gt;" class="s4" d="m-1468.78 1182.86v-1004.24"></path><path id="&lt;Path&gt;" class="s4" d="m-1468.78 149.93v-30h30"></path><path id="&lt;Path&gt;" class="s2" d="m-1380.35 119.93h1022.66"></path><path id="&lt;Path&gt;" class="s2" d="m-328.47 119.93h30v30"></path><path id="&lt;Path&gt;" class="s4" d="m-298.47 207.32v1004.24"></path></g></g><g id="Main 00000085932308779100256610000010583702344006125984 "><g id="Homepage Desktop R3"><g id="Group-3"><g id="Clip-2">
						</g><path id="Fill-1" fill-rule="evenodd" class="s5" d="m-471.66 612.8v220.91c0 131.16-191.86 233.93-436.79 233.93c-244.9 0-436.75-102.76-436.75-233.93v-220.91c0-131.18 191.86-233.94 436.75-233.94c244.93 0 436.79 102.76 436.79 233.94zm-436.79 35.41c-124.38 0-237.3 29.79-308.74 74.96c73.52 46.79 188.03 75.12 308.74 75.12c124.38 0 237.32-29.79 308.76-74.96c-73.5-46.77-188.05-75.12-308.76-75.12zm-387.48 75.98c72.2-74.56 216.93-124.42 387.48-124.42c139.12 0 267.55 34.15 349.2 92.01c24.47-24.11 38.32-50.94 38.32-78.98c0-100.57-177.47-185.52-387.52-185.52c-210.04 0-387.48 84.95-387.48 185.52v111.39zm775-1.89c-72.22 74.56-216.95 124.42-387.52 124.42c-139.12 0-267.54-34.13-349.19-92.01c-24.47 24.11-38.3 50.96-38.3 79c0 100.55 177.44 185.5 387.48 185.5c210.04 0 387.52-84.95 387.52-185.5v-111.41z"></path></g></g></g></g><g id="&lt;Group&gt;"><path id="&lt;Path&gt;" class="s0" d="m1119.97 1151.97h-1011.8v-987.23h1011.8v987.23z"></path></g><g id="&lt;Group&gt;"><g id="&lt;Group&gt;"><path id="&lt;Path&gt;" class="s4" d="m1205.55 1211.15v30h-30"></path><path id="&lt;Path&gt;" class="s2" d="m1116.87 1241.15h-1026.92"></path><path id="&lt;Path&gt;" class="s2" d="m60.6 1241.15h-30v-30"></path><path id="&lt;Path&gt;" class="s4" d="m30.6 1153.97v-1000.65"></path><path id="&lt;Path&gt;" class="s4" d="m30.6 124.73v-30h30"></path><path id="&lt;Path&gt;" class="s2" d="m119.29 94.73h1026.92"></path><path id="&lt;Path&gt;" class="s2" d="m1175.55 94.73h30v30"></path><path id="&lt;Path&gt;" class="s4" d="m1205.55 181.91v1000.65"></path></g></g><g id="Main 00000031929966780542090370000008590712284988153996 "><g id="Group-3 00000084496493752848935160000009385697712459174548 "><path id="Fill-1 00000039110842386054548600000004577657331596766104 " fill-rule="evenodd" class="s6" d="m1046.88 667.93c0 187.58-194.15 340.19-432.82 340.19c-238.63 0-432.8-152.61-432.8-340.19c0-187.58 194.17-340.17 432.8-340.17c238.67 0 432.82 152.6 432.82 340.17zm-179.99 101.59c0-105.19-113.41-190.74-252.83-190.74c-139.4 0-252.83 85.55-252.83 190.74c0 59.29 36.07 112.33 92.48 147.35c-6.33-14.31-9.94-29.64-9.94-45.66c0-75.5 76.38-136.91 170.29-136.91c93.92 0 170.31 61.41 170.31 136.91c0 16.02-3.62 31.35-9.94 45.66c56.41-35.02 92.46-88.06 92.46-147.35zm-252.83 190.76c4.27 0 8.4-0.34 12.62-0.49c61.09-4.64 108.9-42.6 108.9-88.58c0-49.12-54.49-89.07-121.52-89.07c-67.01 0-121.5 39.94-121.5 89.07c0 45.98 47.81 83.94 108.92 88.58c4.2 0.15 8.33 0.49 12.58 0.49zm384.05-292.35c0-161.2-172.28-292.33-384.05-292.33c-211.74 0-384 131.13-384 292.33c0 81.28 43.83 154.88 114.39 207.92c-20.3-32.08-31.99-68.1-31.99-106.33c0-131.56 135.28-238.6 301.6-238.6c166.33 0 301.63 107.04 301.63 238.6c0 38.25-11.71 74.27-32.02 106.35c70.59-53.04 114.44-126.66 114.44-207.94z"></path></g></g></g></svg>