<svg xmlns="http://www.w3.org/2000/svg" id="Layer_1" data-name="Layer 1" viewBox="0 0 138.61 42.67"><defs><style>.cls-1{fill:#63ac6d;}</style></defs><path class="cls-1" d="M26.61,0C11.94,0,0,9.57,0,21.33S11.94,42.66,26.61,42.66,53.23,33.1,53.23,21.33,41.29,0,26.61,0Zm-.77,39.62c-3.76-.29-6.7-2.67-6.7-5.55,0-3.08,3.35-5.58,7.47-5.58s7.47,2.5,7.47,5.58c0,2.88-2.93,5.26-6.69,5.55l-.78,0C26.35,39.66,26.1,39.64,25.84,39.63Zm10.63-2.69a7.12,7.12,0,0,0,.61-2.86c0-4.73-4.69-8.58-10.47-8.58s-10.47,3.85-10.47,8.58a7.12,7.12,0,0,0,.61,2.86c-3.47-2.19-5.68-5.52-5.68-9.24,0-6.59,7-12,15.54-12s15.55,5.37,15.55,12C42.16,31.42,39.94,34.75,36.47,36.94Zm6.72-2.57a12.56,12.56,0,0,0,2-6.67c0-8.24-8.32-15-18.55-15S8.07,19.46,8.07,27.7a12.56,12.56,0,0,0,2,6.67c-4.34-3.32-7-7.94-7-13C3,11.23,13.59,3,26.61,3s23.62,8.22,23.62,18.32C50.23,26.43,47.53,31.05,43.19,34.37Z"></path><path d="M67.36,11.92h1.91v16.4H67.36Z"></path><path d="M71.94,16.27h1.7v1.26h0A2.75,2.75,0,0,1,76.19,16a2.1,2.1,0,0,1,2.21,2.2V28.32H76.63V19c0-.92-.42-1.45-1.27-1.45s-1.65,1.13-1.65,2.23v8.56H71.94Z"></path><path d="M81.53,17.74h-1.2V16.31h1.2V14a2.19,2.19,0,0,1,2.34-2.33,4.42,4.42,0,0,1,1.18.14v1.36a4.21,4.21,0,0,0-.83-.07.92.92,0,0,0-.94,1v2.13h1.51v1.43H83.28V28.32H81.53Zm4.73,8.81V11.92H88V26.09a.66.66,0,0,0,.75.73,2.46,2.46,0,0,0,.6-.07v1.5a3.46,3.46,0,0,1-1.19.2A1.72,1.72,0,0,1,86.26,26.55Z"></path><path d="M91.17,26.32v-10h1.76v9.36c0,.89.42,1.4,1.27,1.4s1.66-1.13,1.66-2.21V16.27h1.77V28.32H95.92V27h0a2.82,2.82,0,0,1-2.53,1.56A2.12,2.12,0,0,1,91.17,26.32Z"></path><path d="M100,25.12V19.53A3.17,3.17,0,0,1,103.31,16c2,0,3,1.31,3,3.24v3.54h-4.53v2.05c0,1.42.53,2.16,1.93,2.16a5.69,5.69,0,0,0,2.07-.48l.42,1.28a5.61,5.61,0,0,1-2.79.72A3.09,3.09,0,0,1,100,25.12Zm4.69-3.66V19.19c0-.83-.35-1.68-1.45-1.68s-1.45.87-1.45,1.72v2.23Z"></path><path d="M108.6,16.27h1.7v1.26h0A2.75,2.75,0,0,1,112.85,16a2.1,2.1,0,0,1,2.21,2.2V28.32h-1.77V19c0-.92-.41-1.45-1.27-1.45s-1.65,1.13-1.65,2.23v8.56H108.6Z"></path><path d="M117.32,25.24V19.35A3.08,3.08,0,0,1,120.58,16a2.71,2.71,0,0,1,3,2.73V20H122v-1.1a1.29,1.29,0,0,0-1.43-1.38c-1.1,0-1.49.8-1.49,1.7V25.3c0,.95.37,1.75,1.49,1.75A1.31,1.31,0,0,0,122,25.58v-1h1.59v1.17c0,1.7-1.13,2.83-3.09,2.83A3,3,0,0,1,117.32,25.24Z"></path><path d="M125.53,25.12V19.53A3.17,3.17,0,0,1,128.84,16c2,0,3,1.31,3,3.24v3.54h-4.53v2.05c0,1.42.53,2.16,1.93,2.16a5.69,5.69,0,0,0,2.07-.48l.42,1.28a5.61,5.61,0,0,1-2.79.72A3.09,3.09,0,0,1,125.53,25.12Zm4.69-3.66V19.19c0-.83-.35-1.68-1.45-1.68s-1.45.87-1.45,1.72v2.23Z"></path><path d="M134.13,16.27h1.75v1.35h0A2.2,2.2,0,0,1,138,16.18a3.13,3.13,0,0,1,.62,0V18c-.3,0-.64-.07-.83-.07a1.74,1.74,0,0,0-1.88,1.86v8.58h-1.77Z"></path></svg>