<svg xmlns="http://www.w3.org/2000/svg" xmlns:xlink="http://www.w3.org/1999/xlink" width="91px" height="73px" viewBox="0 0 91 73"><title>Group 3</title><defs><polygon id="path-1" points="0 0 91 0 91 73 0 73"></polygon></defs><g id="Main" stroke="none" stroke-width="1" fill="none" fill-rule="evenodd"><g id="Homepage_Desktop_R3" transform="translate(-675.000000, -7599.000000)"><g id="Group-3" transform="translate(675.000000, 7599.000000)"><mask id="mask-2" fill="white"><use xlink:href="#path-1"></use></mask><g id="Clip-2"></g><path d="M85.8712597,50.8986457 L48.0634691,50.8986457 L48.0634691,39.0659461 L66.9673644,39.0659461 C68.3820029,39.0659461 69.5335366,37.9169477 69.5335366,36.4991883 L69.5335366,22.0997309 L85.8712597,22.0997309 L85.8712597,50.8986457 Z M42.9347288,67.8666647 L5.12874032,67.8666647 L5.12874032,39.0659461 L24.0308335,39.0659461 L42.9347288,39.0659461 L42.9347288,53.4654035 L42.9347288,67.8666647 Z M48.0634691,33.9324305 L64.4029942,33.9324305 L64.4029942,22.0979272 L48.0634691,22.0979272 L48.0634691,33.9324305 Z M26.5952037,5.13351569 L64.4029942,5.13351569 L64.4029942,16.9662152 L45.499099,16.9662152 C44.0826584,16.9662152 42.9347288,18.1152136 42.9347288,19.5329731 L42.9347288,33.9324305 L26.5952037,33.9324305 L26.5952037,5.13351569 Z M88.4356298,16.9662152 L69.5335366,16.9662152 L69.5335366,2.56675784 C69.5335366,1.14899842 68.3820029,0 66.9673644,0 L24.0308335,0 C22.6143929,0 21.4664634,1.14899842 21.4664634,2.56675784 L21.4664634,33.9324305 L2.56256807,33.9324305 C1.14792958,33.9324305 0,35.0814289 0,36.4991883 L0,70.4334225 C0,71.851182 1.14792958,73.0001804 2.56256807,73.0001804 L45.499099,73.0001804 C46.9155395,73.0001804 48.0634691,71.851182 48.0634691,70.4334225 L48.0634691,56.0321614 L88.4356298,56.0321614 C89.8520704,56.0321614 91,54.883163 91,53.4654035 L91,19.5329731 C91,18.1152136 89.8520704,16.9662152 88.4356298,16.9662152 L88.4356298,16.9662152 Z" id="Fill-1" fill="#FFFFFF" mask="url(#mask-2)"></path></g></g></g></svg>