<svg xmlns="http://www.w3.org/2000/svg" viewBox="0 0 196.62 196.62"><defs><style>.cls-1{fill:#fff;stroke:#2c6eb5;stroke-miterlimit:10;stroke-width:3px;}.cls-2{fill:#f4822a;}.cls-3{fill:#fefefe;}</style></defs><g id="Background"><rect class="cls-1" x="1.5" y="1.5" width="193.62" height="193.62"></rect></g><g id="MAKING_IT_EASY" data-name="MAKING IT EASY"><path d="M122.56,177.87a21.17,21.17,0,0,0-3.86-2.23q-27.89-15-55.78-30.09c-1.17-.64-1.59-.53-2.25.63C55.16,155.85,49.58,165.47,44,175.1a7.82,7.82,0,0,1-.89,1.41,2.29,2.29,0,0,1-3,.48A2.26,2.26,0,0,1,39,174.12a6.56,6.56,0,0,1,.71-1.33Q48.83,157,57.93,141.25c1.36-2.37,2.28-2.64,4.66-1.38,1.39.73,2.81,1.39,4.14,2.22,1.16.71,1.54.61,1.69-.84.51-5,1.15-10.06,1.74-15.09.64-5.54,1.26-11.07,2-16.6a86.3,86.3,0,0,0,.2-12.76,199.84,199.84,0,0,0-1.44-23.2c-.41-2.87-1.77-5.48-2.31-8.32a26,26,0,0,1-.59-6c.33-7.54,6.71-10.14,12.56-8.31,3.45,1.08,5.89,3.47,8,6.26,4.14,5.49,6.25,11.84,7.88,18.41,1,3.87,2,7.73,3.06,11.94.42-.69.67-1.13,1-1.55C112,68.48,122.57,50.34,133.5,32.42a18.15,18.15,0,0,1,5.49-6c3.88-2.55,8.3-2.63,11.65-.19S155,32.35,153.69,37c-1.18,4.16-3.33,7.91-5.2,11.77-5.27,10.91-10.64,21.79-16,32.68-.22.45-.43.9-.72,1.49a23.27,23.27,0,0,1,4.51.57,11,11,0,0,1,7.53,14.34c-.34,1-.19,1.16.82,1.36,5.27,1,10.3,6,9.26,12.62-.11.71.1.88.79,1.08,6.24,1.75,8.33,7.72,4.45,12.95a134.34,134.34,0,0,1-14,15.61,3.86,3.86,0,0,0-1.13,1.56,58.09,58.09,0,0,1-18.19,26.07c-1.08.91-2.11,1.88-3.22,2.88.89,1,2.55,1.1,3.11,2.48.64,1.57-.18,2.57-1.36,3.42Z" transform="translate(-1.69 -1.69)"></path><path class="cls-2" d="M100.66,22.13a3.33,3.33,0,0,1,1.67,3.28c-.06,5.17,0,10.34,0,15.5,0,.26,0,.51,0,.76a2.42,2.42,0,1,1-4.83,0c-.07-1.52,0-3,0-4.56,0-3.9,0-7.8,0-11.7a3.26,3.26,0,0,1,1.72-3.26Z" transform="translate(-1.69 -1.69)"></path><path class="cls-2" d="M78.39,30.9a2.44,2.44,0,0,1,1.89,1Q86,38.17,91.76,44.46a2.44,2.44,0,1,1-3.61,3.23c-3.82-4.13-7.61-8.29-11.43-12.42a2.52,2.52,0,0,1-.62-3.05A2.31,2.31,0,0,1,78.39,30.9Z" transform="translate(-1.69 -1.69)"></path><path class="cls-2" d="M123.84,33.38a2.62,2.62,0,0,1-.87,1.9c-3.77,4.1-7.51,8.22-11.28,12.32-1.19,1.3-2.66,1.47-3.73.5s-1.06-2.43.14-3.75q5.66-6.26,11.32-12.48a2.48,2.48,0,0,1,2.86-.82A2.29,2.29,0,0,1,123.84,33.38Z" transform="translate(-1.69 -1.69)"></path><path class="cls-3" d="M110.8,136.86c-2.62,7.3,3.66,12,8.43,11.8a9.32,9.32,0,0,0,6.57-3.06c1.58-1.71,3.12-3.45,4.78-5.29,1.6,2.93,3.84,4.76,7.39,4.73a43.46,43.46,0,0,1-6.13,10.83c-3.94,5-8.72,9.16-13.5,13.33-.67.59-1.08.19-1.58-.09L85,152c-3.6-1.95-7.18-3.93-10.82-5.81A1.88,1.88,0,0,1,73,144c.9-7.28,1.49-14.62,2.62-21.87,1.94-12.45,1.93-24.92,1.21-37.44a84.36,84.36,0,0,0-1.39-13.28c-.49-2.22-1.3-4.36-1.91-6.54a15.48,15.48,0,0,1-.63-5.41c.27-3.42,2.41-4.89,5.76-4a10.79,10.79,0,0,1,5.54,4.05,37.56,37.56,0,0,1,6.77,14.45c2.47,9.65,4.87,19.31,7.3,29,0,.19.08.39.14.59a2.49,2.49,0,0,0,3,1.94,2.41,2.41,0,0,0,1.75-3.07c-.46-2.18-1-4.35-1.58-6.48a3.35,3.35,0,0,1,.41-2.86c3.85-6.78,8.24-13.21,12.46-19.76,7-10.88,13.38-22.17,20.11-33.23,1.29-2.11,2.62-4.21,4-6.29a9.6,9.6,0,0,1,5.28-4.1c3.34-1.08,6.1,1.28,5.51,4.74a19.08,19.08,0,0,1-1.64,4.86c-7.66,16.23-15.43,32.4-23.7,48.3-5.83,11.21-12.55,21.94-18.87,32.89a20.9,20.9,0,0,0-2.26,5c-1.4,5.21,1.2,9.72,6.42,11.1C109.71,136.63,110.25,136.74,110.8,136.86Z" transform="translate(-1.69 -1.69)"></path><path class="cls-3" d="M133.11,87.83a6.42,6.42,0,0,1,5.77,3.49,6.06,6.06,0,0,1-.49,6.73q-11.35,15.7-22.75,31.36c-2,2.71-4.13,3.21-6.53,1.79a3.52,3.52,0,0,1-1.66-4.56,13.9,13.9,0,0,1,1.3-2.89C115,112.83,121.34,101.93,127.59,91A5.91,5.91,0,0,1,133.11,87.83Z" transform="translate(-1.69 -1.69)"></path><path class="cls-3" d="M149.22,110a6.33,6.33,0,0,1-1.66,4.32q-12.62,13.9-25.24,27.81a4.16,4.16,0,0,1-4.92,1.33,3.38,3.38,0,0,1-2-4.69,14.13,14.13,0,0,1,1.94-3.25l21.11-28.95c1.85-2.54,3.59-3.24,6.08-2.45A6.63,6.63,0,0,1,149.22,110Z" transform="translate(-1.69 -1.69)"></path><path class="cls-3" d="M135,137a5.66,5.66,0,0,1,1.71-3.45q6.49-7.14,13-14.28a4.93,4.93,0,0,1,1.79-1.37,3.38,3.38,0,0,1,3.9.76,3,3,0,0,1,.18,3.91c-1.1,1.57-2.32,3.07-3.57,4.54q-4.53,5.32-9.53,10.22a8.89,8.89,0,0,1-4.06,2.56A2.65,2.65,0,0,1,135,137Z" transform="translate(-1.69 -1.69)"></path></g></svg>