<svg xmlns="http://www.w3.org/2000/svg" viewBox="0 0 196.62 196.62"><defs><style>.cls-1{fill:#fff;stroke:#2c6eb5;stroke-miterlimit:10;stroke-width:3px;}.cls-2{fill:#fefefe;}.cls-3{fill:#272727;}.cls-4{fill:#333;}.cls-5{fill:#f4822a;}.cls-6{fill:#909090;}</style></defs><g id="Background"><rect class="cls-1" x="1.5" y="1.5" width="193.62" height="193.62"></rect></g><g id="MOVE_TO_ACTION" data-name="MOVE TO ACTION"><path d="M174.44,155.94v6.68a14.37,14.37,0,0,1-9.54,11A14.16,14.16,0,0,1,151.72,172a196.05,196.05,0,0,1-18.44-13.87c-5-4.27-9.78-8.8-14.39-13.51-.94-1-1.71-2.1-2.71-3a1.86,1.86,0,0,0-2-.46,50.7,50.7,0,0,0-20.52,11.93c-5.51,5.37-10.89,10.87-16.34,16.31a16,16,0,0,1-5.84,4c-9.71,3.42-19.16-2.46-20.41-12.17a15.17,15.17,0,0,1,2.58-10.46,168.07,168.07,0,0,1,16-21.38c1.46-1.62,3.06-3.1,4.42-4.79-.43-.51-.87,0-1.3,0a58.42,58.42,0,0,1-13.72-1,70.11,70.11,0,0,1-25.25-9.53c-4.27-2.6-7.28-6-8-11.12a14.73,14.73,0,0,1,19-16.27c2.07.68,4.16,1.28,6.24,2a21.72,21.72,0,0,0,15.61-.31,20.43,20.43,0,0,0,7.08-5.08,2.89,2.89,0,0,0-1.53-.15c-14.4.37-27-10.79-29.06-24.79a29.15,29.15,0,0,1,15.44-30A20.68,20.68,0,0,1,68.64,25.6c.67-.08,1.37.17,2-.15h2A7.58,7.58,0,0,0,75,25.6c5.49,0,10.16,2.23,14.39,5.44a28.53,28.53,0,0,1,11.18,18.89,33.34,33.34,0,0,1,0,8.11c0,.32-.27.7,0,1s.65,0,.94-.17a55.8,55.8,0,0,1,18.35-4.65,62.87,62.87,0,0,1,30,4.29,73.86,73.86,0,0,1,15.83,8.8c1.06.77,2.2,1.41,3.27,2.16,2.94,2,5,4.65,5.43,8.33v5.52c-1.11,5.86-4.65,9.55-10.29,11.12a12.67,12.67,0,0,1-8.5-.93c-3.07-1.31-6-2.93-9.22-3.89a27.61,27.61,0,0,0-18.9.83c-1.37.57-1.4.68-.63,2A273,273,0,0,0,156,133.09c4.67,5.43,9.5,10.7,14.6,15.73A12.27,12.27,0,0,1,174.44,155.94Z" transform="translate(-1.69 -1.69)"></path><path class="cls-2" d="M174.44,155.94c-1.12-3.56-3.47-6.24-6.05-8.85a277.24,277.24,0,0,1-42.24-55.16c-.55-.93-.41-1.22.51-1.61,8.8-3.74,17.36-2.88,25.77,1.23a27.86,27.86,0,0,0,6,2.47c6.72,1.49,13.15-2.36,15.41-9.18.18-.52.14-1.13.59-1.56Z" transform="translate(-1.69 -1.69)"></path><path class="cls-3" d="M75,25.45l.06.26a3.44,3.44,0,0,1-2.38-.26Z" transform="translate(-1.69 -1.69)"></path><path class="cls-4" d="M68.58,25.7a.28.28,0,0,0,.06-.25h2A2.67,2.67,0,0,1,68.58,25.7Z" transform="translate(-1.69 -1.69)"></path><path class="cls-2" d="M111.89,89.22a6.29,6.29,0,0,0,1,2.94A292,292,0,0,0,160.86,156c.38.38.76.75,1.12,1.15a3.07,3.07,0,0,1,.26,4.2,3,3,0,0,1-4.18.48c-3.4-2.23-6.69-4.62-9.92-7.07-16.28-12.38-29.72-27.39-41.18-44.24-.57-.84-1.18-1.65-1.8-2.45-2.22-2.85-4.64-3.46-7.92-1.88a61.34,61.34,0,0,1-10.91,4.25q-25.05,6.63-47-7.13a3.16,3.16,0,0,1-1.75-2.18c-.31-2.1,1.57-3.61,3.78-3,2.68.79,5.32,1.77,8,2.47Q68.14,105.56,82,92c5.14-5.07,10.36-10.06,15.27-15.34,5.31-5.7,11.87-8.61,19.37-9.89a52.82,52.82,0,0,1,39.27,8.41c1.93,1.28,3.84,2.6,5.8,3.85,1,.66,1.61,1.48,1,2.65s-1.6,1.2-2.74.66A63.11,63.11,0,0,0,149.57,78c-12.57-3.41-24.22-1.41-35,5.9A6,6,0,0,0,111.89,89.22Z" transform="translate(-1.69 -1.69)"></path><path class="cls-5" d="M88.86,54.07a17.05,17.05,0,1,1-17.14-17A17.06,17.06,0,0,1,88.86,54.07Z" transform="translate(-1.69 -1.69)"></path><path class="cls-2" d="M107.34,130.83a69,69,0,0,0-11.09,5.33,66.56,66.56,0,0,0-12.86,10.12c-5,5-10,10-15,15a3.2,3.2,0,0,1-3.41,1,3,3,0,0,1-1.55-4.63c9.11-14.6,20.22-27.38,34.16-37.6,1-.78,1.46-.64,2.16.37C102.22,123.93,104.77,127.33,107.34,130.83Z" transform="translate(-1.69 -1.69)"></path><path class="cls-6" d="M74.73,124.54c-.51-.54-1.21,0-1.77-.33a3,3,0,0,1,1.76-.19C75.19,124.07,75,124.35,74.73,124.54Z" transform="translate(-1.69 -1.69)"></path></g></svg>