<svg xmlns="http://www.w3.org/2000/svg" viewBox="0 0 196.62 196.62"><defs><style>.cls-1{fill:#fff;stroke:#2c6eb5;stroke-miterlimit:10;stroke-width:3px;}.cls-2{fill:#f4822a;}.cls-3{fill:#fefefe;}</style></defs><g id="Background"><rect class="cls-1" x="1.5" y="1.5" width="193.62" height="193.62"></rect></g><g id="TUNE_IN_TO_TAKE_ACTION" data-name="TUNE IN TO TAKE ACTION"><path d="M88.77,127.56V114.89c0-5.52-.18-11,.06-16.55.18-4.07-1.43-8.52,1.94-12.08a6.65,6.65,0,0,1,9.54,0c3.32,3.58,1.53,8,1.9,12.1.19,2.08,0,4.19,0,6.38a8.81,8.81,0,0,1,3.24-.26,6.48,6.48,0,0,1,5.15,4.06c.27.65.54.78,1.21.62a6.54,6.54,0,0,1,7.73,3.77c.31.67.53.89,1.29.71a6.62,6.62,0,0,1,8.3,6.5c0,6.64.12,13.28,0,19.92a19.82,19.82,0,0,1-7.94,15.7,2.3,2.3,0,0,0-1,2.09c0,3.5,0,7,0,10.52,0,.83-.1,1.2-1.1,1.19-3.41,0-3.41,0-3.41-3.36s0-6.92,0-10.38a2.87,2.87,0,0,1,1.41-2.68c5.15-3.38,7.57-8.2,7.56-14.31,0-5.94,0-11.88,0-17.82a6,6,0,0,0,0-1.12,2.17,2.17,0,0,0-2.18-2,2.14,2.14,0,0,0-2.25,2,34.2,34.2,0,0,0,0,3.65c0,.73-.09,1-1,1.06-3.55,0-3.55.08-3.55-3.5,0-1.73,0-3.46,0-5.19,0-1.55-.87-2.53-2.19-2.56s-2.28,1-2.29,2.6c0,2.57,0,5.14,0,7.71,0,.75-.22.92-.93.93-3.57.07-3.57.1-3.57-3.47q0-4.77,0-9.54c0-1.73-.9-2.76-2.31-2.72s-2.17,1-2.17,2.72c0,4,0,8,0,11.93,0,.84-.18,1.09-1.07,1.09-3.44,0-3.44,0-3.44-3.46q0-14.59,0-29.18c0-.38,0-.75,0-1.12a2.23,2.23,0,0,0-4.46,0c0,.42,0,.84,0,1.26q0,20.13,0,40.27c0,.37,0,.75,0,1.12a2.21,2.21,0,0,1-1.46,2.18,2.12,2.12,0,0,1-2.52-.67c-1.41-1.56-2.79-3.16-4.19-4.73a3.6,3.6,0,0,0-5-.58,3.74,3.74,0,0,0-1,5c3.69,5.57,7.39,11.13,11.18,16.62a9.51,9.51,0,0,0,4.13,3.06,3,3,0,0,1,2,3.29c-.09,3.6,0,7.2,0,10.8,0,.85-.18,1.09-1.07,1.09-3.44,0-3.44,0-3.44-3.47,0-2.29,0-4.58,0-6.87a1.49,1.49,0,0,0-.84-1.55,16,16,0,0,1-5.61-5.36c-3.19-4.94-6.52-9.79-9.82-14.66a8.37,8.37,0,0,1,1.51-11.23,8.16,8.16,0,0,1,11.25.79C88.44,127.32,88.52,127.36,88.77,127.56Z" transform="translate(-1.69 -1.69)"></path><path d="M83.72,92.84c.12,1,.17,2.1-1.39,2.62a4.27,4.27,0,0,1-4.77-1,30.39,30.39,0,0,1-4.24-7,3.74,3.74,0,0,1,1.85-4.78,1.54,1.54,0,0,0,1-1.86,2.37,2.37,0,0,1,0-.84,3.06,3.06,0,0,0-1.56-3.55,3.6,3.6,0,0,1-1-4.88,69.81,69.81,0,0,1,3.63-6,4.07,4.07,0,0,1,5.6-1.18,1.59,1.59,0,0,0,2.19-.19,2.48,2.48,0,0,1,.71-.44c1.41-.64,2.44-1.34,2.59-3.23s2-3.15,4-3.19,4.31,0,6.46,0a4.19,4.19,0,0,1,4.32,4.2A1.37,1.37,0,0,0,104.09,63a3.27,3.27,0,0,1,1.11.58,3.2,3.2,0,0,0,4,.43A3.87,3.87,0,0,1,114,65.73q1.75,2.7,3.33,5.51a4,4,0,0,1-1.54,5.67,1.6,1.6,0,0,0-1,1.89,2.93,2.93,0,0,1,0,1,2.85,2.85,0,0,0,1.48,3.3,3.73,3.73,0,0,1,1,5.12c-1.06,1.91-2.19,3.8-3.39,5.63A4.4,4.4,0,0,1,107.83,95a1,1,0,0,1-.54-1,26.2,26.2,0,0,0,0-2.94c-.08-.85.22-.88,1-.8s1.51,1.29,2.32.61A8,8,0,0,0,112,88.62a3.88,3.88,0,0,1,.3-.48c.91-1.11,1.16-1.94-.47-2.81a3.4,3.4,0,0,1-1.47-3.56,21.39,21.39,0,0,0,0-3.92,4,4,0,0,1,2.09-4.1c.73-.4.93-.7.4-1.44a37,37,0,0,1-2-3.35c-.3-.54-.55-.59-1.07-.28a4.57,4.57,0,0,1-5.48-.38,14.26,14.26,0,0,0-2.95-1.6,4,4,0,0,1-2.68-3.9c0-.8-.23-1-1-1q-2.1.09-4.2,0c-.75,0-.94.21-.94.94a4.11,4.11,0,0,1-2.75,4,16,16,0,0,0-3.06,1.68,4.38,4.38,0,0,1-5.12.33c-.72-.43-1-.24-1.38.4q-.92,1.65-2,3.24c-.37.57-.41.89.29,1.26a4.17,4.17,0,0,1,2.24,4.45,26,26,0,0,0,0,3.64,4,4,0,0,1-2.13,4.08c-.83.44-.82.81-.32,1.47.36.48.63,1,1,1.55a7.24,7.24,0,0,0,1.35,2.09c.7.51,1.35-.49,2.1-.65s1.23-.09,1.09.88A12.61,12.61,0,0,0,83.72,92.84Z" transform="translate(-1.69 -1.69)"></path><path class="cls-2" d="M169.6,41.71a11.23,11.23,0,1,1-11.28-11.32A11.24,11.24,0,0,1,169.6,41.71Z" transform="translate(-1.69 -1.69)"></path><path class="cls-2" d="M52.85,111.29A11.23,11.23,0,1,1,41.71,100,11.24,11.24,0,0,1,52.85,111.29Z" transform="translate(-1.69 -1.69)"></path><path class="cls-2" d="M52.94,30.39a9,9,0,1,1-9.07,8.91A9,9,0,0,1,52.94,30.39Z" transform="translate(-1.69 -1.69)"></path><path class="cls-2" d="M151.57,111.21a9,9,0,1,1,9.05-8.81A9,9,0,0,1,151.57,111.21Z" transform="translate(-1.69 -1.69)"></path><path d="M146.05,52.33c-.15.49-.59.6-.93.82L123.53,66.89c-2.07,1.32-2.07,1.32-3.38-.73-1.1-1.74-1.1-1.74.67-2.87l21-13.36c1.92-1.22,1.92-1.22,3.18.76Z" transform="translate(-1.69 -1.69)"></path><path class="cls-2" d="M104.67,83.64A11.62,11.62,0,0,0,101.61,81c-.56-.31-.49-.71-.5-1.17a5.54,5.54,0,0,0-5.59-5.74,5.48,5.48,0,0,0-5.59,5.72,1.32,1.32,0,0,1-.73,1.34,11.77,11.77,0,0,0-2.85,2.47c-2-3.41-.8-8.62,2.6-11.53a10,10,0,0,1,12.89-.2C105.4,74.79,106.69,80,104.67,83.64Z" transform="translate(-1.69 -1.69)"></path><path d="M140.48,93.72c-.81,1.23-1.53,2.37-2.31,3.47-.22.31-.48,0-.68-.18q-7.23-4.64-14.46-9.27c-.48-.32-.59-.52-.28-1.07,1.87-3.26,1.86-3.27,5-1.23L139.52,93C139.85,93.21,140.15,93.47,140.48,93.72Z" transform="translate(-1.69 -1.69)"></path><path d="M69.72,91.28c0,.1.12.27.21.43.57,1,1.14,2,1.73,3,.31.52-.08.62-.4.8Q64,99.69,56.81,103.84c-.46.26-.77.23-1-.29a.5.5,0,0,0-.08-.12c-2-3.07-2-3.06,1.23-4.89q5.84-3.33,11.66-6.67Z" transform="translate(-1.69 -1.69)"></path><path d="M80.93,55.7c-.77,1.08-1.53,2.19-2.36,3.26-.2.26-.49-.1-.71-.24q-6.66-4.61-13.33-9.21c-.51-.35-.5-.59-.18-1.1,2-3.15,1.94-3.16,5-1.08q5.4,3.73,10.79,7.49C80.4,55,80.87,55.15,80.93,55.7Z" transform="translate(-1.69 -1.69)"></path><path class="cls-3" d="M165.11,41.69a6.73,6.73,0,1,1-6.72-6.81A6.76,6.76,0,0,1,165.11,41.69Z" transform="translate(-1.69 -1.69)"></path><path class="cls-3" d="M48.35,111.24a6.73,6.73,0,1,1-6.76-6.76A6.75,6.75,0,0,1,48.35,111.24Z" transform="translate(-1.69 -1.69)"></path><path class="cls-3" d="M52.92,43.85a4.49,4.49,0,1,1,4.42-4.48A4.5,4.5,0,0,1,52.92,43.85Z" transform="translate(-1.69 -1.69)"></path><path class="cls-3" d="M151.63,97.74a4.49,4.49,0,1,1-4.48,4.42A4.5,4.5,0,0,1,151.63,97.74Z" transform="translate(-1.69 -1.69)"></path></g></svg>