<svg xmlns="http://www.w3.org/2000/svg" id="Layer_1" data-name="Layer 1" viewBox="0 0 860.78 955.81"><defs><style>.cls-1{fill:#f58741;}.cls-2{fill:#c57541;}.cls-3{fill:#bc7b50;}.cls-4{fill:#bc7a50;}.cls-5{fill:#bf7e54;}.cls-6{fill:#fefefe;}.cls-7{fill:#bb7b52;}.cls-8{fill:#be784a;}.cls-9{fill:#fdfdfd;}.cls-10{fill:#e1e1e1;}</style></defs><path class="cls-1" d="M957.29,83.53c18,7.29,19.38,24.77,5.9,36.11-11.68,9.82-22.27,20.91-34.77,29.81-2.18,1.55-5.26,3.25-.49,7.49,9,8,17.94,16.16,27.09,24.08,5.78,5,12.39,9.92,15.46,17.58a22.77,22.77,0,0,1,0,12.39c-2.05,6.46-6.2,10.8-12.79,12.69-3.26,1.55-6.73.77-10.09.77-51.85.06-103.69.17-155.53-.1-7,0-10.49,1.35-9.48,9.11.59,4.58.1,9.3.11,13.95-6,9.07-15.72,11.62-25.28,14.35-1.54.44-2.63-1.21-2.67-3q0-89.13,0-178.24c0-3.36-.81-6.85.83-10.1.32-5.92,5.47-6.95,9.37-9.23h7.47c4.27,2.67,9.74,4.31,9.44,10.93,1.54,10.56,1.54,10.56,12.93,10.56q76.22,0,152.43,0C950.58,82.72,954.05,81.9,957.29,83.53Z" transform="translate(-111.66 -61.18)"></path><path d="M755.81,260.66c9.58-1.42,16-10.19,25.83-11.06.54-.83,1-.75,1.43.1,9.9,2.11,13.92,9,15.29,18.34,3.51,23.85-.7,45.9-14.84,65.74-6,12.9-17.95,20.16-27.89,29.33a14.69,14.69,0,0,1-2.52,1.23c-27.47,16.42-54.79,33.08-82.12,49.72a20.15,20.15,0,0,0-9,11.39c-9.32,27.68-18.32,55.48-27.73,83.13-1.93,5.66-.84,9.92,3,14.48,15.53,18.6,30.83,37.41,46.9,55.53,15.63,17.63,21,37.11,17.15,60.22-3.58,21.42-5.44,43.13-8.33,64.68a40.4,40.4,0,0,0-.32,6.51c.09,3.79,2.23,5.79,5.82,5.9,4,.12,4.14-3.11,4.19-5.91.19-10.56.06-21.13.08-31.7,0-17.4-.31-34.81.1-52.2.63-26.59,24.07-48.66,50.63-48.12a22.65,22.65,0,0,1,3,.46c5.51,1.52,10.86-.55,16.29-.71,3.61-.11,7.34-.6,10.52,1.87,26.11.16,52.22.38,78.33.47,34.59.11,53.39,18.91,53.4,53.75q0,172.64-.2,345.28c0,8.29,2,10.81,10.19,10s16.78-.32,25.17-.13c9.39.22,15.24,5.78,15.18,14S959.41,1016.6,950,1017c-2.17.08-4.35,0-6.53,0h-810c-15,0-21.86-4.41-21.81-14.09s6.76-13.91,22-13.91c6.53,0,13.09-.32,19.59.1,5.08.33,6.27-1.64,6.18-6.38-.28-13.68-.24-27.37-.07-41.06.38-31.1,19.88-50.44,51-50.52,35.77-.1,71.54,0,107.31-.07a72.17,72.17,0,0,1,23.61,3.79c0-13.18-.09-25.89,0-38.59.23-28.07,19.63-48.15,47.74-49.07,13-.42,26.13-.26,39.19,0,4.37.09,6.57-1.42,8.44-5.38q28.9-61.42,58.23-122.67a25.69,25.69,0,0,0,2.32-9.9c1.49-28.57,4-57.14,4.08-85.71.08-32.18,13-61.11,20.09-91.49a101.4,101.4,0,0,1,3.33-11.62c2.81-7.65,9.84-11.4,16.93-9.33,7.76,2.27,12,9.26,9.82,17.45-4,15.22-8.51,30.34-13.33,47.36,18.81-7.63,36-14.94,53.41-21.51,7.55-2.84,11.9-7.1,14.26-15.07,5.87-19.81,12.74-39.34,19.42-59.64-9.21,1-16.45-1-18.92-10.08-2.53-9.32,3.35-14.1,10.52-18.43q62.18-37.53,124.15-75.39c17.81-10.82,28.47-26.11,30.23-47.45-4-.11-6.3,2.12-8.92,3.54-55.34,30-110.55,60.28-166.05,90-10.61,5.69-17.5,13.62-21.12,24.69-2.89,8.84-5.25,17.85-8,26.73-2.86,9.18-9.44,13.32-17.38,11.17-8.42-2.28-12.06-9.37-9.36-19.06,4.4-15.81,7.92-32,17.08-46,1.68-2.57,1.08-3.91-1.19-6-16.78-15.79-24.48-36.88-32.53-57.63-2.93-7.54-.93-15.33,1.06-22.92,5.93-22.63,45.79-42.59,67.09-34.93,10.67,3.84,19.83,9.64,25.16,19.57,8.32,15.53,17.52,30.69,23.26,48.91l113.82-62.41C755.19,263.14,754.26,261.23,755.81,260.66Z" transform="translate(-111.66 -61.18)"></path><path class="cls-1" d="M783.25,579.59c-9.3-1.38-18.39,5.33-27.77.74-2.8-3.42-2.47-7.54-2.47-11.55q-.06-98.1,0-196.19c0-4,0-8.09,2.39-11.64l28.14-27.17Z" transform="translate(-111.66 -61.18)"></path><path class="cls-2" d="M783.07,249.7l-.74.34-.69-.44c0-5.9.47-11.82,0-17.68-.51-6.56,2-8.49,8.46-8.46,55.85.25,111.69.19,167.54.22-3.15,3-7.09,1.7-10.66,1.71-51.3.09-102.6.22-153.9-.11-7.5-.05-10.86,1.44-9.84,9.53C783.87,239.69,783.18,244.73,783.07,249.7Z" transform="translate(-111.66 -61.18)"></path><path class="cls-3" d="M755.81,260.66,754,263.94q-.12-93.78-.26-187.55c0-2.15-.23-4.42,1.81-6Q755.7,165.54,755.81,260.66Z" transform="translate(-111.66 -61.18)"></path><path class="cls-4" d="M957.29,83.53c-54.93,0-109.85-.21-164.77.28-9.53.09-12.22-3.12-10.65-11.7.56,9.3,6.44,9.8,14.12,9.76,50.22-.3,100.45-.19,150.67-.1C950.23,81.78,954.16,80.5,957.29,83.53Z" transform="translate(-111.66 -61.18)"></path><path class="cls-5" d="M970.45,211l0-12.39C973.07,202.74,973.12,206.87,970.45,211Z" transform="translate(-111.66 -61.18)"></path><path class="cls-6" d="M927.27,113.39c-9.4,8.08-19,16-28.16,24.3-10.32,9.38-10.09,23,.51,32.53,9,8.09,18.35,15.76,27.54,23.62-.26,4.23-3.6,2.56-5.56,2.57q-66.09.17-132.17.09c-3.53,0-6.84.32-6.75-5,.46-26.65-.7-53.32.63-80,2.6-1.51,5.46-.84,8.19-.84,42.48,0,85-.09,127.42.1C921.65,110.83,925.86,108.26,927.27,113.39Z" transform="translate(-111.66 -61.18)"></path><path class="cls-7" d="M783.61,111.57c-.05,25.73,0,51.46-.26,77.18-.07,5.63,1.56,7.45,7.31,7.43,43.39-.21,86.79-.1,130.18-.18,2.21,0,5.14,1.22,6.32-2.16,1.59,1.2,2,2.7-.21,3.21a33.68,33.68,0,0,1-7.4.38c-42.58,0-85.17-.24-127.74.21-8.49.09-10.41-2.54-10.24-10.55.53-25.17.26-50.35.3-75.53A1,1,0,0,1,783.61,111.57Z" transform="translate(-111.66 -61.18)"></path><path class="cls-8" d="M783.61,111.57h-1.74c2.38-3,5.73-1.79,8.66-1.8,43.34-.07,86.68-.11,130,.14,2.13,0,7.79-3.8,6.72,3.49-1-2.91-3.54-2-5.49-2Q852.69,111.43,783.61,111.57Z" transform="translate(-111.66 -61.18)"></path><path class="cls-6" d="M887,805.35c0,58.16-.11,116.32.14,174.48,0,6.81-1.07,9.41-8.82,9.34-45.72-.43-91.44-.36-137.15,0-6.54,0-8.24-1.53-8.13-8.1.42-24.88.21-49.76.14-74.64,0-8.18-3.76-13.82-12.2-15-7.46-1-12.68,2.54-15.1,9.55-.88,2.54-.65,5.52-.66,8.3,0,24.26-.24,48.52.14,72.77.09,5.93-1.65,7.13-7.26,7.1q-70-.35-140,0c-6,0-7.1-1.88-7.08-7.4.18-71.22.05-142.45.17-213.67,0-16,7.6-23.23,23.65-23.27q53.19-.1,106.37,0c16.39,0,23.88,7.55,23.93,23.92.07,21.15,0,42.3,0,63.45,0,10.19,5.25,16.46,13.53,16.71,8.66.26,14.42-6.23,14.43-16.83q.09-98.91,0-197.81c0-19.88,6.28-26.12,26.26-26.13q51.78,0,103.56,0c16.86,0,23.91,6.9,23.93,23.71Q887.07,718.58,887,805.35Z" transform="translate(-111.66 -61.18)"></path><path class="cls-6" d="M446.54,989c-23.31,0-46.61-.24-69.9.16-6.21.1-7.59-1.73-7.55-7.69.26-41.32.08-82.65.17-124,0-14.42,7.24-22.18,21.53-22.28q55.45-.39,110.91,0c13.63.09,21.18,7.26,21.27,20.59.31,42.56,0,85.12.29,127.69,0,5.87-2.9,5.55-6.82,5.54C493.14,988.93,469.84,989,446.54,989Z" transform="translate(-111.66 -61.18)"></path><path class="cls-6" d="M753.6,579.83c-31,2.48-48.38,21.24-48.42,52.37q0,43.8,0,87.53c-1,.18-1.71.5-2.23.35-14.33-4-14.19-4-12.19-19.56,3.13-24.33,5.82-48.72,9.17-73,2-14.52-1.85-27.13-10.9-38.18q-27.43-33.54-55.47-66.6c-3.56-4.18-3.93-7.61-2.3-12.45,9.88-29.36,19.55-58.79,29.28-88.2,1.07-3.24,2.19-6.11,5.53-8.12,28.44-17.09,56.76-34.39,85.14-51.59a8.09,8.09,0,0,1,2.62-.56c1.46,2.61.81,5.46.81,8.2q.06,100.86,0,201.73C754.62,574.44,755.47,577.33,753.6,579.83Z" transform="translate(-111.66 -61.18)"></path><path class="cls-6" d="M264.71,989c-23.6,0-47.21-.15-70.81.12-5.24.06-6.87-1.3-6.71-6.67.39-13.65-.05-27.33.18-41,.25-15.17,7.27-22.23,22.43-22.29q54.51-.24,109,0c15,.07,22.25,7.5,22.38,22.38.11,13.67-.24,27.34.15,41,.16,5.42-1.63,6.62-6.75,6.56C311.3,988.81,288,989,264.71,989Z" transform="translate(-111.66 -61.18)"></path><path class="cls-6" d="M595,543c-6,33.14-11.8,65.44-17.62,97.75-.38,2.14-.84,4.27-1.05,6.42-1.94,20-9.76,37-22.45,52.91-26.1,32.77-50.69,66.74-75.9,100.21-.93,1.24-1.91,2.45-2.78,3.74-2,3-5.13,4.35-7.93,2.41s.35-4.54,1.24-6.44c16.08-34.19,32.17-68.37,48.67-102.36A77.3,77.3,0,0,0,525,667.27c1.55-30.09,3.33-60.17,4.65-90.28.23-5.28,1.62-8.14,6.81-10.16C555.77,559.29,574.86,551.22,595,543Z" transform="translate(-111.66 -61.18)"></path><path class="cls-6" d="M621.88,551.72c15.78,19.14,30.19,36.6,44.58,54.08,4.76,5.79,6.54,12.11,5.51,19.85-3.7,27.7-6.77,55.49-10.25,83.22-.45,3.53.42,8.12-6.22,8-6.41-.12-4.89-4.6-5.23-7.67-2.34-21.61-5-43.22-6.36-64.91-1-15-6.07-26.65-20.11-32.9-10-4.46-12-10.82-9-21.22C618.12,578.3,619.37,565.86,621.88,551.72Z" transform="translate(-111.66 -61.18)"></path><path class="cls-6" d="M579.49,284.21c6.36.41,11.27,3.16,14.25,8.94,5.4,10.46,11,20.8,16.09,31.43,4.16,8.75,1.59,16.67-6.59,21.65a109.6,109.6,0,0,1-12.4,6.34c-9.66,4.3-17.6,1.72-22.74-7.69-5.34-9.78-10.47-19.69-15.31-29.73-4.7-9.73-2.14-17.41,7.07-23C567.9,287.35,575.65,284.19,579.49,284.21Z" transform="translate(-111.66 -61.18)"></path><path class="cls-9" d="M606.86,634.69c5.68,1.32,8.48,3.94,9,10.09,1.74,22,4,43.86,6.42,65.76.44,4.05.56,6.31-4.63,6.2-13.27-.28-26.54-.09-43.22-.09C600.92,693.83,601.12,663.32,606.86,634.69Z" transform="translate(-111.66 -61.18)"></path><path class="cls-3" d="M753.6,579.83q.1-109,.22-218a2.08,2.08,0,0,1,1.56-.84q.06,109.7.1,219.38Z" transform="translate(-111.66 -61.18)"></path><path class="cls-10" d="M508,806.86l13.92-18.58c2.66,7.14,1.11,13.46,1.32,19.6.09,2.59-1.85,2.64-3.9,2C516,809,512.75,808.15,508,806.86Z" transform="translate(-111.66 -61.18)"></path></svg>