<svg xmlns="http://www.w3.org/2000/svg" id="Layer_1" data-name="Layer 1" viewBox="0 0 923.55 1021.34"><defs><style>.cls-1{fill:#f58741;}.cls-2{fill:#fefefe;}</style></defs><path d="M216,1051.5c-16.45-4.11-32.4-9.22-45.87-20.23-16-13.06-26.37-29.67-31.75-49.38-6.28-23-12.18-46.14-18-69.27-3-12,.82-20.26,10-22.42,8.87-2.11,16.11,3.57,19.26,15.57,5.65,21.47,11.08,43,16.65,64.5,10,38.55,40.22,57.35,79.15,48.89q43.74-9.51,87.29-19.82c38.28-9.07,60.27-51,46.37-88.21C349.24,831.39,319.25,751.75,289.61,672c-2.39-6.42-5.11-7.27-11.4-5.42-37.5,11-75.17,21.47-112.73,32.33-40.19,11.62-58.17,43.67-47.69,84.57,4.45,17.33,9,34.64,13.31,52,2.51,10.11-1.92,18.33-10.56,20.36-8.13,1.9-15.71-3-18.19-12.81-5.75-22.8-12.86-45.26-16.75-68.55-6.46-38.75,17.74-83.45,54.62-97.85,36.46-14.23,74.63-23.24,112.34-33.34,28.51-7.64,54.75-19.48,80.33-33.59,4.78-2.64,6.26-5.51,6.23-10.82-.23-40.88.79-81.78-.38-122.63-1.19-41.38,29.6-69.76,67.72-67.23,9.92.65,19.93,0,29.9.11,38.75.39,63.91,25.52,64.39,64.41.18,14.94,0,29.89,0,46.79,9.05-4.82,17.13-8.88,25-13.38,4-2.28,2.19-6.63,2.2-10q.16-68.81,0-137.6c-.07-24.33,7.63-44.88,27.61-59.84,6.43-4.82,13.37-8.71,21.28-10.4,23-4.91,46.28-5.83,68.85,1.49,27.88,9,44.2,35.62,44.22,69.75,0,99.38.16,198.75-.22,298.13,0,9.52,2.31,10.86,11,9,16.12-3.53,16.23-3,16.23-19.59q0-215.86,0-431.73c0-29.61,10.8-53,38-66.94,32.83-16.89,87.58-7.73,108.79,17.94,10.63,12.86,15,27.84,15.1,44.23.11,13,.19,25.93,0,38.89-.19,12.16-5.46,18.29-15,18.16s-14.49-6.27-14.7-18.55c-.2-12,.06-23.93-.07-35.9-.29-27.31-14.82-41.8-41.89-41.9-8,0-16-.19-23.92.11-18.39.71-32.6,13.43-35.42,31.65a84.31,84.31,0,0,0-.86,12.9q-.07,212.37,0,424.75c0,10.62.17,10.88,9.66,5.42,31.44-18.08,60-40.39,88.91-62,4.38-3.27,3.55-7.47,3.55-11.65q0-124.14,0-248.27a91.82,91.82,0,0,1,.25-10c.94-8.73,7-14.69,14.59-14.75s13.77,5.85,14.69,14.56a97.08,97.08,0,0,1,.26,9.95q0,111.68,0,223.35v12c12.47-6.71,23.5-13.13,36.27-15.58,32.49-6.24,61.51,7.26,76.89,36.18,15.77,29.65,12.17,61-12.35,83.78-22.09,20.56-46,39.13-69.39,58.32q-50.81,41.78-101.93,83.14c-28.77,23.15-63.57,31.75-98.51,40.2-96.32,23.28-192.54,47-288.84,70.37-6.13,1.49-8.29,3.71-7.66,10.54,4.56,49.51-22.67,87.93-70.95,100.69-33,8.72-66,17.48-99.88,22.51a9.48,9.48,0,0,0-2.61,1.33Z" transform="translate(-77.99 -30.16)"></path><path class="cls-1" d="M593.47,190c-6.26,3.14-10.84,7.27-15.31,11.66-30.5,30-61.21,59.73-91.62,89.79-17.34,17.14-36.87,26.92-61.09,17-13.86-5.66-27-13.27-39.95-20.9-7.77-4.57-12.27-2.9-18.38,3.25C297.37,361,227.08,430.73,157.4,501.05c-27.89,28.15-71.47,9.12-77.86-19.77-4.28-19.33.2-36.38,14.39-50.56,59.66-59.66,119.68-119,178.76-179.2,18.54-18.9,36.73-38.18,55.41-57,18.09-18.19,39.25-21.76,61.85-10.38,14.32,7.22,28.62,14.51,42.63,22.29,3.44,1.91,4.73.45,6.62-1.39q38.81-37.82,77.57-75.66c1.35-1.32,2.21-3.15,3.29-4.73-2.12-.82-4.22-2.27-6.36-2.33-7.79-.21-14.22-3.26-21-7C475,105.4,471.94,81.2,476.44,62.19,481,42.94,502,29.8,518.5,30.17c41.83.94,83.7.62,125.55.19C666,30.13,685.31,47.14,687,69.59c3,41.1,1.33,82.16,1.2,123.21-.07,22.06-8.91,41.93-32.12,48.69-33.18,9.64-56.83-6.71-61.21-42.2C594.47,196.43,595.61,193.39,593.47,190Z" transform="translate(-77.99 -30.16)"></path><path d="M264.43,984.12a58.71,58.71,0,0,1-58.6-59c.15-31.93,26.25-58.15,58.33-58.62,31.76-.46,59.21,26.77,59.31,58.83C323.58,957.53,296.8,984.2,264.43,984.12Z" transform="translate(-77.99 -30.16)"></path><path class="cls-2" d="M630.46,698.88c22.91.41,45.91,1.88,68.7-1,31.48-4,60-16,85.88-34.34,38.43-27.24,77.17-54,115.58-81.32,12.74-9,26.21-12.74,41.2-7.68,15.37,5.19,24.82,16.25,28.13,32,3.88,18.51-5.06,32.36-18.38,43.43-46.49,38.61-94.33,75.66-139.66,115.57-34.35,30.25-74.69,43.57-117.81,53.68C599.6,841.36,505.44,865,411.24,888.35c-6.79,1.69-9.05.18-11.31-5.93q-41.12-110.79-82.86-221.34c-2.57-6.77-.83-9,4.72-12q120.79-63.84,241.38-128.06c12.86-6.85,25.18-8.61,37,1.14,11.47,9.46,12.09,21.66,8.5,35.3-7,26.64-21,48.37-42.74,65.29-8.1,6.32-16.13,12.82-23.61,19.85-10.23,9.62-12.48,21.87-7.85,34.7s14.12,21.11,28.25,21.42C585.3,699.25,607.89,698.88,630.46,698.88Z" transform="translate(-77.99 -30.16)"></path><path class="cls-2" d="M660,508.06c0,50.48-.21,101,.21,151.43.07,8.51-2.49,10.47-10.58,10.3-25.56-.54-51.13-.21-76.7-.34-3.81,0-9.4,1.66-10.9-2-1.71-4.19,3.93-6.13,6.82-8.49,18.76-15.31,38.25-29.79,51-51.14a152.77,152.77,0,0,0,20.26-54.62c6.63-41.48-31.68-76.16-72.95-65.72-9.08,2.29-9.43-.44-9.39-7.81.26-40.18,0-80.37.16-120.55.07-28.82,14.76-43.27,43.69-43.33,6.64,0,13.29-.17,19.93.06,21,.73,35.42,14,37.93,34.83a94.77,94.77,0,0,1,.48,10.93Q660,434.84,660,508.06Z" transform="translate(-77.99 -30.16)"></path><path class="cls-2" d="M369.28,590.15c0-42.39-.43-83.14.23-123.88.24-15,12.94-26.4,28.05-27,13.91-.55,27.86-.44,41.78-.18,18,.35,30.8,12.41,31.36,30.46.65,20.54.13,41.12.28,61.69,0,3.32-.78,5.47-3.89,7.11C435,555.28,402.91,572.32,369.28,590.15Z" transform="translate(-77.99 -30.16)"></path><path class="cls-2" d="M656.64,137c0,17.61-.12,35.22.07,52.83.06,5.09-.69,10.06-3.35,14.1-3.76,5.71-9.27,10.71-16.57,7.7-7.8-3.21-11.81-10.31-12-18.82-.27-13.95-.13-27.92,0-41.87,0-6.51-.27-12.75-7.68-15.45S602.83,133.41,597,139c-11.7,11.2-23.32,22.47-35.12,33.57-32.36,30.44-63.68,62-95.5,93a104.36,104.36,0,0,1-14.26,12.09c-6.46,4.35-12.92,2.17-19.37-1.25-15.89-8.44-32.22-16.07-47.88-24.91-10.54-5.94-21.79-5.34-30.88,5-18.63,21.15-38.86,40.75-58.76,60.67Q216,396.5,136.61,475.73c-4.62,4.61-9.05,9.82-17,6-10-4.8-12.92-15.5-6.12-24.58a63,63,0,0,1,6.25-6.42c62.25-62.27,124.75-124.29,186.59-187,14.85-15.06,29.11-30.76,44.1-45.73,9.78-9.76,13.89-10.53,26-4.35,16.62,8.47,33.08,17.25,49.73,25.64,13.4,6.74,18.77,5.59,29.63-5,28.67-28.06,57-56.45,86.28-83.89,10.11-9.48,20.1-19.12,30.25-28.57,6.6-6.14,8.22-13.37,5.46-21.52C575,92,567.68,92.52,560.61,92.21c-14.13-.64-28.39,2-42.43-1.83-7.34-2-11.11-6.3-11.12-14s3.74-12,11-14.14a43.38,43.38,0,0,1,12.55-1.88q50.34.09,100.67,0c1,0,2,0,3,0,16.69.62,22,5.85,22.27,22.74C656.83,101.08,656.64,119,656.64,137Z" transform="translate(-77.99 -30.16)"></path><path class="cls-2" d="M264.72,954.21a28.65,28.65,0,0,1-29-28.91c.07-16,13.41-29.22,29.19-28.93A29.54,29.54,0,0,1,293.57,925,29,29,0,0,1,264.72,954.21Z" transform="translate(-77.99 -30.16)"></path></svg>