<svg xmlns="http://www.w3.org/2000/svg" viewBox="0 0 196.62 196.62"><defs><style>.cls-1{fill:#fff;stroke:#2c6eb5;stroke-miterlimit:10;stroke-width:3px;}.cls-2{fill:#fefefe;}.cls-3{fill:#ea8023;}</style></defs><g id="Layer_3" data-name="Layer 3"><rect class="cls-1" x="1.5" y="1.5" width="193.62" height="193.62"></rect></g><g id="Layer_2" data-name="Layer 2"><path d="M175.25,175.19q-74.4,0-148.8,0c-1.28,0-1.78-.22-1.68-1.62.13-2,.08-4,0-6,0-.91.16-1.26,1.17-1.22,2.2.08,4.41,0,6.61.05,1.2.06,1.55-.23,1.55-1.49-.06-10.08,0-20.17-.07-30.25,0-1.32.34-1.58,1.61-1.58,12.63,0,25.26,0,37.89.07,1.36,0,1.58-.4,1.57-1.63-.06-8.52,0-17-.07-25.55,0-1.48.44-1.72,1.79-1.71,12.58,0,25.17,0,37.75.06,1.3,0,1.61-.3,1.6-1.6-.06-10,0-20-.05-30,0-1,.17-1.44,1.33-1.39,2.39.11,4.8-.09,7.19.08,1.59.11,1.8-.48,1.79-1.88,0-14.39,0-28.78,0-43.17,0-.54,0-1.08.06-1.61h34.67a2.65,2.65,0,0,1,.47,1.95q0,12,0,23.93c0,2.13-.36,2.48-2.49,2.49-7,0-14,0-21,0-2.32,0-2.35,0-2.36,2.41,0,4.5,0,9,0,13.51,0,1.77.15,1.91,1.94,1.92h24.68c.59,0,1.17,0,1.76,0,1.76.08,2.1.43,2.16,2.22,0,.64,0,1.27,0,1.91V163c0,2.91,0,2.91,2.86,2.92,1.42,0,2.84,0,4.26,0a2.59,2.59,0,0,1,1.81.47Z" transform="translate(-1.69 -1.69)"></path><path class="cls-2" d="M157.16,123.34c0,13.85,0,27.7,0,41.56,0,1.22-.28,1.51-1.51,1.5q-14.69-.08-29.38,0c-1.07,0-1.36-.23-1.36-1.34q0-41.71,0-83.42c0-1.11.22-1.46,1.41-1.45q14.7.07,29.38,0c1.14,0,1.46.27,1.45,1.44C157.14,95.53,157.16,109.43,157.16,123.34Z" transform="translate(-1.69 -1.69)"></path><path class="cls-2" d="M116.15,139.64c0,8.46,0,16.93,0,25.4,0,1.09-.26,1.37-1.36,1.36q-14.83-.08-29.66,0c-1,0-1.29-.26-1.29-1.29q.06-25.32,0-50.64c0-1.08.23-1.4,1.36-1.39q14.82.08,29.66,0c1,0,1.29.3,1.28,1.31C116.13,122.81,116.15,131.22,116.15,139.64Z" transform="translate(-1.69 -1.69)"></path><path class="cls-2" d="M59,141.93c4.94,0,9.89,0,14.83,0,1.06,0,1.27.29,1.26,1.3q-.06,10.94,0,21.87c0,1-.12,1.34-1.22,1.33q-14.91-.08-29.81,0c-1,0-1.21-.26-1.2-1.21q.06-11,0-22c0-1.06.32-1.28,1.32-1.27C49.12,142,54.06,141.93,59,141.93Z" transform="translate(-1.69 -1.69)"></path><path class="cls-3" d="M143.66,43.94c-2.45,0-4.89,0-7.34,0-.76,0-1.14-.08-1.11-1,.06-2.79,0-5.58,0-8.36,0-.74.14-1,.95-1,5.14,0,10.28,0,15.42,0,.73,0,.9.23.89.92,0,2.83-.05,5.67,0,8.51,0,.84-.33,1-1,.94C148.85,43.92,146.25,43.94,143.66,43.94Z" transform="translate(-1.69 -1.69)"></path></g></svg>