<svg xmlns="http://www.w3.org/2000/svg" viewBox="0 0 196.62 196.62"><defs><style>.cls-1{fill:#fff;stroke:#2c6eb5;stroke-miterlimit:10;stroke-width:3px;}.cls-2{fill:#fefefe;}.cls-3{fill:#ea8023;}</style></defs><g id="Layer_3" data-name="Layer 3"><rect class="cls-1" x="1.5" y="1.5" width="193.62" height="193.62"></rect></g><g id="Layer_2" data-name="Layer 2"><path d="M50.81,182.43c-2.56-.84-5.19-1.51-7.43-3.14a17.68,17.68,0,0,1-7.69-15c0-11.1,0-22.21,0-33.32q0-41.11,0-82.25A17.71,17.71,0,0,1,49.51,31a20.24,20.24,0,0,1,4.79-.49c9.06,0,18.13,0,27.2,0a1.68,1.68,0,0,0,1.92-1.33,17.63,17.63,0,0,1,33.13,0,1.73,1.73,0,0,0,2,1.36q13.83-.09,27.68,0A17.74,17.74,0,0,1,164,44.93a23.19,23.19,0,0,1,.34,4.49q0,57.06,0,114.12c0,9.32-5.23,16.3-13.7,18.43-.64.16-1.4-.12-1.93.46Z" transform="translate(-1.69 -1.69)"></path><path class="cls-2" d="M45.34,106.4v-57c0-6,3.24-9.27,9.21-9.27,4.45,0,8.9,0,13.36,0,1.14,0,1.41.33,1.4,1.43,0,6.17,0,12.34,0,18.52,0,4.21,1.74,6,6,6h49.58c4.12,0,5.84-1.76,5.84-5.89,0-6.22,0-12.45,0-18.67,0-1,.21-1.38,1.31-1.36,4.66.06,9.33,0,14,0,5.15,0,8.43,3.21,8.7,8.34,0,.22,0,.43,0,.64q0,57.32,0,114.63c0,4.7-2.33,7.89-6.41,8.79a11.47,11.47,0,0,1-2.55.22q-45.72,0-91.44,0c-5.58,0-8.92-3.32-8.92-8.89Q45.33,135.14,45.34,106.4Z" transform="translate(-1.69 -1.69)"></path><path class="cls-2" d="M100.08,56.36c-6.54,0-13.08,0-19.62,0-1.18,0-1.56-.27-1.54-1.5.07-4.51.06-9,0-13.51,0-1,.25-1.31,1.26-1.27,2,.08,4,0,6,0,3.79,0,5.47-1.5,5.81-5.32a7.87,7.87,0,0,1,2.66-5.48A7.66,7.66,0,0,1,103,27.85a7.81,7.81,0,0,1,5.07,7,5.61,5.61,0,0,0,1.65,4,4.66,4.66,0,0,0,3.22,1.23c2.25,0,4.51,0,6.76,0,1,0,1.37.2,1.35,1.3q-.09,6.84,0,13.67c0,1.08-.31,1.32-1.33,1.31C113.16,56.34,106.62,56.36,100.08,56.36Z" transform="translate(-1.69 -1.69)"></path><path d="M113,82.26h20.58a4.8,4.8,0,0,1,3.8,7.83,5.4,5.4,0,0,1-4.59,1.83q-15.36,0-30.72,0c-3.27,0-6.54,0-9.81,0a4.74,4.74,0,0,1-4.74-4.18A4.69,4.69,0,0,1,91,82.45a9.17,9.17,0,0,1,2.23-.19Q103.08,82.25,113,82.26Z" transform="translate(-1.69 -1.69)"></path><path d="M113,103.82c6.86,0,13.73,0,20.59,0a4.75,4.75,0,0,1,4.3,7c-1.07,2-2.83,2.63-5,2.62q-12.39,0-24.77,0c-5.14,0-10.29,0-15.43,0-3.15,0-5.26-2-5.25-4.86a4.7,4.7,0,0,1,5-4.78C99.26,103.79,106.12,103.82,113,103.82Z" transform="translate(-1.69 -1.69)"></path><path d="M113,125.38c6.91,0,13.82,0,20.74,0a4.71,4.71,0,0,1,4.67,3.87,4.85,4.85,0,0,1-2.9,5.35,7.6,7.6,0,0,1-2.84.42H93.22a7.41,7.41,0,0,1-2.84-.43,4.81,4.81,0,0,1-2.86-5.37,4.65,4.65,0,0,1,4.36-3.82c2.89-.09,5.79,0,8.68,0H113Z" transform="translate(-1.69 -1.69)"></path><path d="M113,146.92c6.81,0,13.61,0,20.42,0,4,0,6.31,3.83,4.44,7.14-1.12,2-2.92,2.51-5,2.51h-28c-4.07,0-8.14,0-12.22,0a4.84,4.84,0,0,1-3.33-8.6A5.52,5.52,0,0,1,93,146.92Q103,146.94,113,146.92Z" transform="translate(-1.69 -1.69)"></path><path class="cls-3" d="M71.16,87.08a4.82,4.82,0,0,1-4.77,4.82,4.92,4.92,0,0,1-4.85-4.78,4.87,4.87,0,0,1,4.9-4.86A4.76,4.76,0,0,1,71.16,87.08Z" transform="translate(-1.69 -1.69)"></path><path class="cls-3" d="M71.16,108.67a4.82,4.82,0,0,1-4.83,4.79,4.93,4.93,0,0,1-4.79-4.89,4.85,4.85,0,0,1,4.88-4.75A4.77,4.77,0,0,1,71.16,108.67Z" transform="translate(-1.69 -1.69)"></path><path class="cls-3" d="M71.16,130.16A4.83,4.83,0,0,1,66.39,135a4.94,4.94,0,0,1-4.85-4.83,4.83,4.83,0,0,1,4.82-4.81A4.76,4.76,0,0,1,71.16,130.16Z" transform="translate(-1.69 -1.69)"></path><path class="cls-3" d="M66.34,147a4.72,4.72,0,0,1,4.82,4.74,4.84,4.84,0,0,1-4.75,4.89,5,5,0,0,1-4.87-4.81A4.8,4.8,0,0,1,66.34,147Z" transform="translate(-1.69 -1.69)"></path></g></svg>