<svg xmlns="http://www.w3.org/2000/svg" viewBox="0 0 196.62 196.62"><defs><style>.cls-1{fill:#fff;stroke:#2c6eb5;stroke-miterlimit:10;stroke-width:3px;}.cls-2{fill:#fefefe;}.cls-3{fill:#fbfbfb;}.cls-4{fill:#ea8023;}</style></defs><g id="Layer_3" data-name="Layer 3"><rect class="cls-1" x="1.5" y="1.5" width="193.62" height="193.62"></rect></g><g id="Layer_2" data-name="Layer 2"><path class="cls-2" d="M176.91,101.67q0,37.77,0,75.54c0,1-.18,1.23-1.22,1.23q-75.69,0-151.39,0c-1.16,0-1.26-.34-1.26-1.34q0-75.62,0-151.22c0-1.06.19-1.32,1.3-1.31q75.61,0,151.23,0c1.19,0,1.35.35,1.34,1.41Q176.89,63.83,176.91,101.67Z" transform="translate(-1.69 -1.69)"></path><path d="M25.79,142.16q0-12.89,0-25.78c0-4.87,3-7.81,7.84-7.82q.75,0,1.5,0a4.79,4.79,0,0,1,5,5.1q0,12.36,0,24.73c0,7.24,0,14.49,0,21.73,0,1,.24,1.23,1.22,1.23q13.2-.06,26.38,0c.95,0,1.19-.23,1.28-1.2A14.31,14.31,0,0,1,83.34,147c8.69-.06,17.39,0,26.08,0,2.72,0,2.76,0,2.72-2.68a31.21,31.21,0,0,1,7.75-21.59,28,28,0,0,1,5.68-5.07,1.86,1.86,0,0,0,1-1.8c-.07-2.2-.06-4.4,0-6.59,0-.8-.18-1.06-1-.88a11.3,11.3,0,0,1-13.43-11.68c.08-2.35,0-4.7,0-7a1.56,1.56,0,0,0-1.06-1.7c-1.19-.51-2.3-1.2-3.5-1.69-.9-.38-1-.77-.57-1.64a43.88,43.88,0,0,0,4.66-14.28,73.12,73.12,0,0,0,.44-10.77c0-2.45.06-4.9,0-7.34,0-1,.31-1.32,1.25-1.19a6.87,6.87,0,0,0,1.2,0A4.71,4.71,0,0,0,118,43c-1.65-1.81-1.66-1.84,0-3.56,2.52-2.57,5.1-5.07,7.61-7.65.6-.62,1-.64,1.51,0a9.46,9.46,0,0,0,1.3,1.23,4.38,4.38,0,0,0,4.89.73,4.57,4.57,0,0,0,2.83-4.23c.09-2.5.09-2.51,2.56-2.52,3.6,0,7.2,0,10.79,0,.87,0,1.16.25,1.05,1.09a10,10,0,0,0,0,1.34,4.71,4.71,0,0,0,8,3.42c1.82-1.65,1.85-1.67,3.56,0,2.57,2.52,5.08,5.1,7.66,7.61.59.57.71,1,0,1.51a8.48,8.48,0,0,0-1.25,1.29,4.37,4.37,0,0,0-.76,4.88A4.56,4.56,0,0,0,172,51c2.53.1,2.54.1,2.55,2.68,0,6.2.08,12.39,0,18.59-.16,10.57-4.74,18.78-13.61,24.54a70.72,70.72,0,0,0-9.65,7.31,1.74,1.74,0,0,0-.71,1.67.38.38,0,0,1,0,.15c-.58,4.31.9,7.69,3.52,11.28,7.77,10.62,8,22.07,2,33.68a6.09,6.09,0,0,0-.74,3c0,6.79,0,13.59,0,20.38,0,1.07-.13,1.51-1.4,1.51q-20.24-.09-40.47,0c-1.17,0-1.39-.34-1.35-1.41.08-2.35,0-4.7,0-7,0-.84-.08-1.21-1.09-1.21q-10.95.07-21.89,0c-.86,0-1,.28-1.1,1.07a9.54,9.54,0,0,1-9.73,8.54q-22.56,0-45.12,0a7.16,7.16,0,0,1-7.44-7.47Q25.78,155.21,25.79,142.16Z" transform="translate(-1.69 -1.69)"></path><path d="M66.64,46.19H94.52c5.11,0,8,2.89,8,8V95.81c0,5-2.93,7.94-7.88,8-5.4,0-10.8,0-16.19,0a2.76,2.76,0,0,0-2.22.89c-2.15,2.24-4.36,4.4-6.56,6.59s-4.44,2.71-6.79,1.65A5.81,5.81,0,0,1,59.36,107c0-3.24,0-3.24-3.2-3.24H38.32c-4.75,0-7.73-3-7.73-7.79q0-21,0-42c0-4.86,3-7.8,7.86-7.81Z" transform="translate(-1.69 -1.69)"></path><path d="M81,127.74c2.37,0,2.37,0,2.37,2.43s0,2.37-2.43,2.37-2.37,0-2.37-2.43S78.56,127.74,81,127.74Z" transform="translate(-1.69 -1.69)"></path><path d="M90.48,132.54c-2.32,0-2.32,0-2.32-2.32,0-2.48,0-2.48,2.47-2.48s2.32,0,2.32,2.32C93,132.54,93,132.54,90.48,132.54Z" transform="translate(-1.69 -1.69)"></path><path d="M102.55,130.23c0,2.31,0,2.31-2.34,2.31s-2.46,0-2.46-2.49c0-2.31,0-2.31,2.34-2.31S102.55,127.74,102.55,130.23Z" transform="translate(-1.69 -1.69)"></path><path class="cls-2" d="M114.4,161.32c-6.74,0-13.48,0-20.23,0-.93,0-1.28-.18-1.24-1.2.08-2.29.1-4.6,0-6.89,0-1.21.23-1.56,1.51-1.56,11.29.06,22.58,0,33.87.05a17.82,17.82,0,0,0,7.28-1.4,17.06,17.06,0,0,0,10.16-17c0-.64-.19-.92-.84-.82a.75.75,0,0,1-.15,0c-1.2,0-2.67-.41-3.52.14s-.23,2.12-.32,3.24a12,12,0,0,1-11.48,11c-3.84.1-7.69,0-11.53,0-.49,0-.94.12-1-.69-.5-10.45,3.09-19,11.79-25.05a27.59,27.59,0,0,1,13.14-4.53,2.55,2.55,0,0,0,.74-.08c3.49-1.34,5.51.24,7.57,3.06,10.3,14.18,4,32.43-8.45,39.5a16.41,16.41,0,0,1-8.43,2.2C127,161.28,120.7,161.32,114.4,161.32Z" transform="translate(-1.69 -1.69)"></path><path class="cls-2" d="M131.33,114.4c0-2.24,0-4.27,0-6.3,0-.74.39-.76.91-.85,1.91-.3,3.82-.68,5.75-.94.8-.11,1-.45.82-1.17-.27-1.21-.13-2.85-.87-3.51-.57-.51-2.23.17-3.4.36-3.3.54-6.59,1.11-9.88,1.67A6.28,6.28,0,0,1,117.33,99a21.48,21.48,0,0,0,5.19-.46,12.38,12.38,0,0,0,8.84-13.31c-.12-1-.72-.63-1.17-.64-4.55,0-9.09,0-13.63,0-.35,0-.71,0-1,0-2-.17-2.59-1-1.87-2.88a47.37,47.37,0,0,0,3.17-15c0-1,.25-1.33,1.32-1.33q13.19.08,26.37,0c.93,0,1.29.16,1.25,1.2-.08,2.39,0,4.79,0,7.19,0,.92.15,1.33,1.19,1.25a31.11,31.11,0,0,1,3.74,0,4.79,4.79,0,0,1,0,9.57,25.29,25.29,0,0,1-3.59,0c-1.2-.12-1.35.36-1.35,1.41.05,8,0,16.08.05,24.12,0,1-.28,1.28-1.18,1.4C140.13,112.06,135.66,112.46,131.33,114.4Z" transform="translate(-1.69 -1.69)"></path><path class="cls-2" d="M160,60.58c.59-7-1.75-12.66-7.6-16.44a15.75,15.75,0,0,0-17.79-.23c-6.1,3.74-8.56,9.46-8,16.67h-9.09c-.42,0-.65-.12-.62-.59a4.52,4.52,0,0,0,0-1c-.33-2.19.22-3.51,2.51-4.63,4.24-2.08,5.79-7.41,3.86-11.74a1.65,1.65,0,0,1,.41-2.16c1.59-1.69,2.82-2.84,5.69-1.85,4.53,1.55,9.18-1.26,10.89-5.78.31-.81.66-1.14,1.48-1a2.41,2.41,0,0,0,.6,0c2.22-.25,3.7.12,4.89,2.59,2,4.2,7.31,5.68,11.62,3.77a1.59,1.59,0,0,1,2.25.52,2.23,2.23,0,0,0,.22.21c1.69,1.36,2.49,2.6,1.6,5.17-1.57,4.59,1.19,9.35,5.73,11.08.76.29,1.13.57,1,1.45-.11,1.28.4,3-.25,3.74s-2.43.22-3.71.24C163.88,60.61,162,60.58,160,60.58Z" transform="translate(-1.69 -1.69)"></path><path class="cls-2" d="M150.52,98.36c0-2.94,0-5.57,0-8.2,0-.86.45-.77,1-.84a9.59,9.59,0,0,0,0-19.07c-.82-.1-1-.29-1.05-1.12,0-3.75-.06-3.75,3.61-3.75,4.79,0,9.59,0,14.38,0,.93,0,1.27.17,1.25,1.2-.08,4.58.27,9.19-1.32,13.62a23.74,23.74,0,0,1-9.48,12.16A83.09,83.09,0,0,0,150.52,98.36Z" transform="translate(-1.69 -1.69)"></path><path class="cls-2" d="M59.15,166.12c7.65,0,15.29,0,22.93,0,1.22,0,1.45.29,1.07,1.42a4.91,4.91,0,0,1-5.06,3.4H33.73a3.51,3.51,0,0,1-1.89-.31,2.29,2.29,0,0,1-1.23-2.08c0-.88.65-1.31,1.37-1.59a13.65,13.65,0,0,1,5.14-.81h22Z" transform="translate(-1.69 -1.69)"></path><path class="cls-2" d="M30.59,162.22V116.91c0-3,1.27-4,4.22-3.57.45.07.61.21.58.63,0,.25,0,.5,0,.75q0,22.62,0,45.24c0,1.1-.23,1.6-1.41,1.65A27.46,27.46,0,0,0,30.59,162.22Z" transform="translate(-1.69 -1.69)"></path><path class="cls-2" d="M150.52,158.39c0,4.15,0,8,0,11.8,0,.95-.59.72-1.09.72H137.62c-6.49,0-13,0-19.46,0-1,0-1.25-.2-1.25-1.21,0-3.61,0-3.61,3.61-3.61,3.94,0,7.89-.12,11.83,0,6.4.23,11.74-2.19,16.48-6.25C149.32,159.48,149.79,159,150.52,158.39Z" transform="translate(-1.69 -1.69)"></path><path class="cls-2" d="M152.53,60.62c-.75,0-1.69.18-2.18-.19s.18-1.26.18-2a7,7,0,0,0-3.85-6.62,7.14,7.14,0,0,0-10.37,7.66c.18.9.05,1.14-.84,1.08a11.44,11.44,0,0,0-2.55,0c-1.27.19-1.48-.5-1.56-1.51a12,12,0,1,1,23.95-1.34C155.38,60.58,155.38,60.58,152.53,60.62Z" transform="translate(-1.69 -1.69)"></path><path class="cls-2" d="M80.93,161.32c-2.05,0-4.09,0-6.14,0-.86,0-1.09-.21-1-1.08a9.71,9.71,0,0,1,8.87-8.5c1.54-.09,3.09,0,4.64,0,.61,0,.88.1.87.8,0,2.65,0,5.29,0,7.94,0,.77-.28.89-1,.88C85.12,161.3,83,161.32,80.93,161.32Z" transform="translate(-1.69 -1.69)"></path><path class="cls-2" d="M126,89.37c-1.26,3.48-5.44,5.72-8.63,4.8-.28-.08-.43-.18-.43-.47a3.38,3.38,0,0,0,0-.45c-.18-3.88-.18-3.88,3.73-3.88Z" transform="translate(-1.69 -1.69)"></path><path class="cls-3" d="M145.72,58.2a2.39,2.39,0,1,1-2.35-2.41A2.42,2.42,0,0,1,145.72,58.2Z" transform="translate(-1.69 -1.69)"></path><path class="cls-2" d="M66.59,51H94.47c2.54,0,3.28.75,3.28,3.31V95.67c0,2.54-.75,3.29-3.3,3.29-6,0-12.09,0-18.13,0a2.46,2.46,0,0,0-2,.8c-2.62,2.68-5.28,5.31-7.94,8-.44.44-.82,1.09-1.63.71s-.62-1.06-.62-1.7c0-2.1-.07-4.2,0-6.29,0-1.13-.21-1.49-1.43-1.48-8,.06-16,0-24,0-2.67,0-3.4-.71-3.4-3.34V54.25c0-2.53.76-3.26,3.33-3.26Z" transform="translate(-1.69 -1.69)"></path><path d="M124.28,70.18a5.4,5.4,0,0,0,.9,0c1.1-.19,1.56.21,1.37,1.35a4.38,4.38,0,0,0,0,1.2A2.4,2.4,0,0,0,128.92,75a2.43,2.43,0,0,0,2.4-2.22c.11-.83-.39-2,.22-2.4s1.84,0,2.77-.19c1.65-.26,1.9.47,1.86,2-.13,4.43-3.15,7.69-7.3,7.66s-7.11-3.27-7.13-7.63C121.73,70.18,121.73,70.18,124.28,70.18Z" transform="translate(-1.69 -1.69)"></path><path class="cls-4" d="M66.57,94.16c-8.34,0-16.69,0-25,0-1.11,0-1.4-.23-1.39-1.37.07-5.55.06-11.09,0-16.64,0-1,.22-1.24,1.22-1.23,4,.06,8.09,0,12.14,0,.84,0,1.08.21,1.07,1.06,0,4,0,8.09,0,12.14,0,1,.23,1.24,1.22,1.23,3.6,0,3.6,0,3.6-3.62,0-6.4,0-12.79,0-19.19,0-1,.24-1.24,1.22-1.22,4,.06,8,0,12,0,1,0,1.23.24,1.23,1.22-.05,7.15,0,14.29-.06,21.43,0,1.12.26,1.41,1.38,1.39,3.45-.07,3.45,0,3.45-3.49,0-9.59,0-19.18,0-28.77,0-1.12.26-1.41,1.38-1.38,4,.07,7.9.06,11.84,0,1,0,1.23.25,1.23,1.23q-.06,18,0,36c0,1-.25,1.23-1.23,1.23C83.36,94.15,75,94.16,66.57,94.16Z" transform="translate(-1.69 -1.69)"></path><path class="cls-2" d="M83.36,74.82c0-4.34,0-8.69,0-13,0-1,.25-1.23,1.23-1.22,3.6,0,3.6,0,3.6,3.63,0,7.94,0,15.88,0,23.83,0,1.12-.26,1.4-1.39,1.38-3.44-.07-3.44,0-3.44-3.49Z" transform="translate(-1.69 -1.69)"></path><path class="cls-2" d="M64.17,79.62c0-2.8,0-5.59,0-8.39,0-.85.22-1.07,1.07-1.07,3.75,0,3.75-.08,3.75,3.62,0,4.79,0,9.59,0,14.38,0,1-.24,1.24-1.22,1.23-3.6,0-3.6,0-3.6-3.62Z" transform="translate(-1.69 -1.69)"></path><path class="cls-2" d="M49.78,84.67c0,1.25-.06,2.5,0,3.74.05.84-.28,1-1,1-3.8.08-3.8.1-3.8-3.71,0-1.6,0-3.2,0-4.79,0-.78.09-1.12,1-1.14,3.8,0,3.8-.09,3.8,3.73Z" transform="translate(-1.69 -1.69)"></path></g></svg>