<svg xmlns="http://www.w3.org/2000/svg" viewBox="0 0 196.62 196.62"><defs><style>.cls-1{fill:#fff;stroke:#2c6eb5;stroke-miterlimit:10;stroke-width:3px;}.cls-2{fill:#fefefe;}.cls-3{fill:#080808;}.cls-4{fill:#ea8023;}</style></defs><g id="Layer_3" data-name="Layer 3"><rect class="cls-1" x="1.5" y="1.5" width="193.62" height="193.62"></rect></g><g id="Layer_2" data-name="Layer 2"><path d="M101.6,18.39c4.21,1.3,7.44,4.18,10.75,6.86A15.68,15.68,0,0,0,123.53,29c2.75-.16,5.52-.15,8.28-.07,4.74.13,7.71,2.3,9.3,6.82.95,2.69,1.79,5.43,2.55,8.18A14.82,14.82,0,0,0,150,52.67c2.4,1.57,4.75,3.21,7,4.95,3.83,2.93,5,6.45,3.58,11.11-.85,2.84-1.85,5.63-2.85,8.43a15.32,15.32,0,0,0,0,10.43c1.16,3.35,2.62,6.59,3.25,10.12a8.83,8.83,0,0,1-2.8,8.36,40,40,0,0,1-7.05,5.16,16.71,16.71,0,0,0-7.92,10.84,36.08,36.08,0,0,1-2.66,8.14c-.42.81,0,1.45.26,2.11q6,15.47,12.08,30.92c1.44,3.68-.05,5.69-4,5.27-4.91-.52-9.82-1.11-14.7-1.79a3.86,3.86,0,0,0-4.08,1.48c-3.18,4-6.56,7.81-9.87,11.68-2.25,2.63-5,2.18-6.25-1.06q-6.1-15.58-12.16-31.22a1.71,1.71,0,0,0-1.89-1.38c-1.18,0-1.52.47-1.88,1.39q-6,15.55-12.12,31.07c-1.35,3.44-4,3.9-6.39,1.11-3.31-3.88-6.68-7.71-9.88-11.68a3.62,3.62,0,0,0-3.8-1.39q-7.58,1-15.18,1.82c-3.58.38-5.1-1.73-3.77-5.13Q53,147.87,59.14,132.35a3.36,3.36,0,0,0-.07-2.84,63.53,63.53,0,0,1-2.72-8.63,15,15,0,0,0-6.5-8.89c-2.31-1.5-4.58-3.08-6.76-4.76-4.06-3.12-5.15-6.47-3.7-11.36.83-2.79,1.83-5.52,2.8-8.27a15.32,15.32,0,0,0,0-10.43A79.6,79.6,0,0,1,39,67.36c-.86-4.16.72-7.28,3.91-9.72q3.48-2.66,7.15-5a14.68,14.68,0,0,0,6.22-8.54c.8-2.8,1.53-5.62,2.57-8.35,1.76-4.6,4.56-6.69,9.49-6.82,3-.08,6,0,9.07.06a14,14,0,0,0,9.45-3.14c1.66-1.32,3.35-2.61,5-3.9a22.37,22.37,0,0,1,6.5-3.51Z" transform="translate(-1.69 -1.69)"></path><path class="cls-2" d="M74.12,35.3c4.56.23,8.77.12,12.72-1.86a50.87,50.87,0,0,0,7.93-5.56c5.14-3.94,5.31-3.95,10.48,0,1.81,1.39,3.6,2.81,5.47,4.12,4.1,2.86,8.75,3.57,13.64,3.37,2.38-.09,4.77-.06,7.16-.1A3.29,3.29,0,0,1,135,37.73c.78,2.41,1.6,4.82,2.24,7.28a22.25,22.25,0,0,0,10,13.61,55.1,55.1,0,0,1,6.12,4.29,3.19,3.19,0,0,1,1.17,3.8c-.73,2.1-1.32,4.25-2.16,6.3a23.76,23.76,0,0,0,0,18.73,53.89,53.89,0,0,1,2.21,6.45,3.15,3.15,0,0,1-1.12,3.53,41.46,41.46,0,0,1-5.71,4A23.12,23.12,0,0,0,137,120.65a42.15,42.15,0,0,1-2.09,6.66A3.2,3.2,0,0,1,132,129.4a40.89,40.89,0,0,1-7-.09,23.43,23.43,0,0,0-17.86,6.05,33.79,33.79,0,0,1-5.25,3.86,3.41,3.41,0,0,1-3.74,0,40.22,40.22,0,0,1-5.62-4.16,23,23,0,0,0-16.86-5.75,51.25,51.25,0,0,1-7.64.08,3.15,3.15,0,0,1-2.87-2.1,54.46,54.46,0,0,1-2.38-7.57,22.23,22.23,0,0,0-10-13.62q-2.7-1.69-5.26-3.58c-2.44-1.79-2.7-2.68-1.75-5.57.57-1.76,1.16-3.52,1.86-5.23a23.73,23.73,0,0,0,.06-18.58,51.23,51.23,0,0,1-2.3-6.76,3,3,0,0,1,1-3.27,36.68,36.68,0,0,1,5.56-4A23.33,23.33,0,0,0,63.12,43.76a38.08,38.08,0,0,1,2-6.35,3.15,3.15,0,0,1,3-2.11C70.26,35.28,72.33,35.3,74.12,35.3Z" transform="translate(-1.69 -1.69)"></path><path class="cls-2" d="M81.61,172.18c-2.94-3.45-5.82-6.64-8.47-10a5.4,5.4,0,0,0-5.69-2.12c-3.87.62-7.79,1-11.68,1.45-.31,0-.63,0-1.13,0,.46-1.16.88-2.22,1.29-3.28,2.79-7.15,5.6-14.29,8.35-21.45.4-1,.71-1.47,2-1.15,2.7.67,5.49.3,8.25.19,3.08-.12,6.17-.25,9.06,1.11,3.3,1.56,5.88,4.15,8.78,6.26.78.57.1,1.2-.1,1.71q-4.78,12.36-9.64,24.69Z" transform="translate(-1.69 -1.69)"></path><path class="cls-2" d="M118.36,172.11c-3.5-9-6.9-17.78-10.44-26.55-.66-1.63-.48-2.52,1-3.45a51.21,51.21,0,0,0,4.44-3.36,14.12,14.12,0,0,1,8.86-3c4.12-.06,8.27.74,12.37-.3.46-.12.65.14.81.53,3.3,8.47,6.62,16.94,10,25.63l-10.11-1.19c-1.37-.16-2.74-.31-4.11-.49a3.75,3.75,0,0,0-3.62,1.5c-2.66,3.17-5.37,6.3-8.06,9.45C119.17,171.27,118.81,171.63,118.36,172.11Z" transform="translate(-1.69 -1.69)"></path><path class="cls-3" d="M156.24,92.08a1,1,0,0,1-1.08.51C155.33,92.06,155.72,92.07,156.24,92.08Z" transform="translate(-1.69 -1.69)"></path><path d="M58,82.31c.14-23.25,19.1-42.1,42.14-41.91a41.95,41.95,0,0,1-.27,83.89C76.72,124.17,57.89,105.29,58,82.31Z" transform="translate(-1.69 -1.69)"></path><path class="cls-2" d="M64.52,82.36a35.49,35.49,0,1,1,35.4,35.5A35.57,35.57,0,0,1,64.52,82.36Z" transform="translate(-1.69 -1.69)"></path><path class="cls-4" d="M83.72,101.32c.64-3.81,1.28-7.85,2-11.86a1.81,1.81,0,0,0-.61-1.92c-2.69-2.57-5.33-5.19-8-7.76-1.14-1.11-1.88-2.34-1.32-4s1.94-2.08,3.5-2.29C83,73,86.75,72.44,90.49,72c.79-.1,1-.57,1.32-1.15,1.63-3.33,3.3-6.64,4.91-10,.7-1.44,1.61-2.57,3.32-2.55s2.59,1.15,3.28,2.59c1.57,3.29,3.25,6.54,4.84,9.83A2,2,0,0,0,109.9,72c3.74.46,7.46,1,11.19,1.59a3.35,3.35,0,0,1,2,6c-2.71,2.61-5.39,5.27-8.12,7.87a2,2,0,0,0-.67,2.06c.7,3.59,1.27,7.21,1.89,10.82.27,1.53.24,3-1.17,4s-2.77.63-4.16-.12c-3.13-1.68-6.32-3.25-9.41-5a2.6,2.6,0,0,0-2.9,0q-5,2.73-10,5.24C86.07,105.79,83.67,104.23,83.72,101.32Z" transform="translate(-1.69 -1.69)"></path><path class="cls-2" d="M113.81,79.06c-1.6,1.73-3.11,3.49-4.77,5.12a4.34,4.34,0,0,0-1.48,4.4c.53,2.31.81,4.68,1.24,7.3-2.35-1.23-4.5-2.31-6.61-3.49a4.11,4.11,0,0,0-4.35,0c-2.11,1.19-4.28,2.27-6.63,3.51.43-2.63.73-5,1.25-7.42a4.17,4.17,0,0,0-1.35-4.14c-1.68-1.68-3.26-3.48-4.92-5.26,2.24-.34,4.65-.75,7.08-1a3.86,3.86,0,0,0,3.31-2.35c1-2.23,2.19-4.42,3.43-6.9,1.16,2.35,2.25,4.44,3.23,6.58A4.23,4.23,0,0,0,107,78.08C109.31,78.3,111.6,78.73,113.81,79.06Z" transform="translate(-1.69 -1.69)"></path></g></svg>