<svg xmlns="http://www.w3.org/2000/svg" viewBox="0 0 196.62 196.62"><defs><style>.cls-1{fill:#fff;stroke:#2c6eb5;stroke-miterlimit:10;stroke-width:3px;}.cls-2{fill:#ea8023;}</style></defs><g id="Layer_3" data-name="Layer 3"><rect class="cls-1" x="1.5" y="1.5" width="193.62" height="193.62"></rect></g><g id="Layer_2" data-name="Layer 2"><path d="M18,48.13c.79-1.78,2.17-2.38,4.09-2.37q19,.08,38,0a5,5,0,0,1,3.83,1.58c3.42,3.52,6.94,6.95,10.39,10.44,1.62,1.64,1.56,3.77,0,5-1.41,1.1-3,1-4.44-.49q-4.56-4.5-9.06-9.06a3.14,3.14,0,0,0-2.49-1.08q-16.19.06-32.36,0c-1.15,0-1.52.21-1.51,1.46.08,6,.05,12,0,17.94,0,.72-.1,1.28,1,1.27,9.77,0,19.53,0,29.34,0,0-.67-.57-.89-.85-1.29a3.08,3.08,0,0,1,.37-4.2,2.84,2.84,0,0,1,4.05-.24q3.65,3.36,7,7c1.18,1.26,1,2.94-.36,4.32q-3,3.06-6,6c-1.57,1.53-3.3,1.62-4.69.33s-1.4-3.06.1-4.8c.13-.16.27-.31.41-.47-.25-.47-.67-.24-1-.24-9.35,0-18.69,0-28,0-1.11,0-1.41.24-1.4,1.38.07,5.55.06,11.11,0,16.66,0,1,.22,1.24,1.22,1.23q27.15,0,54.31,0c.14,0,.29,0,.59-.07-.39-.51-.76-.93-1.06-1.39A3,3,0,0,1,79.76,93a2.87,2.87,0,0,1,4-.4A65.9,65.9,0,0,1,91,99.87c1.07,1.25.81,2.84-.49,4.19-2,2-4,4-6,6-1.58,1.53-3.31,1.6-4.69.29s-1.37-3,0-4.69l.54-.58c-.45-.42-1-.22-1.39-.22q-26.6,0-53.18,0c-1.31,0-1.54.4-1.53,1.59.06,5.5.05,11,0,16.5,0,.83.11,1.2,1.09,1.2,9.67,0,19.33,0,29,0a1.37,1.37,0,0,0,.37-.14c-.37-.46-.75-.87-1.06-1.34a3,3,0,0,1,.41-3.93,2.82,2.82,0,0,1,3.91-.44,60.75,60.75,0,0,1,7.37,7.33c1.06,1.25.77,2.82-.54,4.18-2,2-4,4-6,6-1.55,1.5-3.32,1.55-4.69.23s-1.34-3,.08-4.69c.16-.19.34-.36.73-.79H53.38c-9.19,0-18.37,0-27.56,0-1.16,0-1.51.22-1.49,1.46.07,5.92.06,11.85,0,17.78,0,1.06.17,1.44,1.35,1.44q16.33-.09,32.68,0a3,3,0,0,0,2.32-1.1q20-20,40-40a6.17,6.17,0,0,1,4.8-2c14.52.06,29,0,43.57,0,3.09,0,4.15,1.06,4.16,4.12v10.51c.46-.43.72-.66,1-.9l19.14-19.14c.49-.5,1.18-.85.28-1.74-6.68-6.61-13.31-13.27-20-19.91a2.46,2.46,0,0,0-.42-.17v10.4c0,2.88-1.12,4-3.95,4-14.84,0-29.69,0-44.53,0a4.48,4.48,0,0,1-3.43-1.37c-3.48-3.54-7-7-10.52-10.55C89.1,81.67,89,79.78,90.4,78.4s3.27-1.16,4.83.37c3,3,6.06,6,9,9.07a3,3,0,0,0,2.34,1q19.39-.06,38.77,0c1.12,0,1.42-.25,1.4-1.38-.07-4.7,0-9.4,0-14.1a3.33,3.33,0,0,1,2-3.49c1.56-.68,2.77-.07,3.88,1q14,14,28,28c1.95,1.95,1.94,3.55,0,5.51q-14,14-28,28c-1.11,1.11-2.33,1.67-3.88,1a3.33,3.33,0,0,1-2-3.5c0-4.7,0-9.4,0-14.1,0-1-.15-1.35-1.27-1.35q-19.55.07-39.09,0a2.86,2.86,0,0,0-2.17,1q-20.09,20.11-40.18,40.24a5.66,5.66,0,0,1-4.38,1.81q-18.82-.08-37.64,0c-1.92,0-3.31-.59-4.1-2.38Z" transform="translate(-1.69 -1.69)"></path><path class="cls-2" d="M84.93,69.41a3.22,3.22,0,0,1-3.14,3.17,3.31,3.31,0,0,1-3.24-3.28,3.18,3.18,0,0,1,3.34-3.1A3.1,3.1,0,0,1,84.93,69.41Z" transform="translate(-1.69 -1.69)"></path></g></svg>