<svg xmlns="http://www.w3.org/2000/svg" id="Layer_1" data-name="Layer 1" viewBox="0 0 206.44 250.26"><path d="M121.72,23.62a4.23,4.23,0,0,0-3.23,1.47.37.37,0,0,0,.08.52.36.36,0,0,0,.52-.08,3.53,3.53,0,0,1,2.7-1.16,6.78,6.78,0,0,1,5,1.3.38.38,0,0,0,.25.09.36.36,0,0,0,.28-.12.38.38,0,0,0,0-.53A7.33,7.33,0,0,0,121.72,23.62Z"></path><path d="M124.81,26.72a6,6,0,0,0-4.73-.09.37.37,0,1,0,.28.69,5.27,5.27,0,0,1,4.14.08.32.32,0,0,0,.16,0,.37.37,0,0,0,.34-.22A.39.39,0,0,0,124.81,26.72Z"></path><path d="M206.44,204.37c0-4.6-7.15-8.76-19.17-12,.17-.08.34-.15.51-.24a38.1,38.1,0,0,0,14.55-13.31,23.87,23.87,0,0,0,4.1-11.6,13.94,13.94,0,0,0-4.51-11.33c-4.22-3.58-10-4.79-17.66-3.68a34.46,34.46,0,0,0-12.72,4.24c2.58-3.06,6.5-7.71,8.46-10,3.42-4,6.82-8.33,7.48-13.18.81-5.89-1.9-12.18-4.65-17.56l-6.76-12.65,1.35-10.87a4.15,4.15,0,0,0-4.13-4.67h-5.21c-.9-2-6.46-13.82-17.29-20.83,1.53-6.43-1.61-10.58-3.13-12.58-.19-.24-.34-.44-.46-.61-1-1.53-2.14-3.62-1.85-9.11.36-6.56-2.39-9.35-4-11l-.51-.53a8.06,8.06,0,0,1-1.63-2.31,32.46,32.46,0,0,0,.23-3.68,11.48,11.48,0,0,0-.08-1.86,5.16,5.16,0,0,0-.54-1.69,3.5,3.5,0,0,0-1.95-1.68c0-9.68-1.92-14.61-7.21-18.14C124.89.3,118.42-.76,111.89.55a23.41,23.41,0,0,0-12,6c-3.55,3.53-4,5.09-5.16,9.7a21.87,21.87,0,0,0-.55,5.11c-.07,2.33-.13,4.54-1.41,6.68a15.68,15.68,0,0,1-3,3.34,24.74,24.74,0,0,0-2.33,2.36,12.53,12.53,0,0,0-2.79,8.75,26.5,26.5,0,0,0,.87,4.5c.63,2.45,1.22,4.76.57,7a13.59,13.59,0,0,1-2.81,4.59c-.48.58-1,1.19-1.41,1.82-2.94,4.14-4.78,13.3.41,20a52.91,52.91,0,0,0-4,7H73a4.14,4.14,0,0,0-3.11,1.4,4.19,4.19,0,0,0-1,3.27l1.31,10.49-6.31,12.25c-4.13-6.19-11.41-17.1-16.68-25.25h0a2.94,2.94,0,0,0-2-1.36,6.87,6.87,0,0,0-2.83.1c-.72-1.12-1.32-2.05-1.72-2.69-.14-.23-.29-.45-.43-.66-.63-1-1.33-2-1.88-2.86-1.32-2-3.26-2.83-6.72-2.93a10.21,10.21,0,0,1-6-2.3,2.86,2.86,0,0,0-3.69,0,2.85,2.85,0,0,0,0,3.65,10.68,10.68,0,0,0,.94.82H5.79a2.52,2.52,0,0,0-2.58,2.29.35.35,0,0,0,.16.3h-1A2.29,2.29,0,0,0,0,86.26c0,1.51,2.14,1.85,2.24,1.86h0c.06,0,.1,0,.15-.06a1.75,1.75,0,0,0,0,.32,1.8,1.8,0,0,0,1.9,1.93A.39.39,0,0,0,4.67,90c0,1.42.83,2.24,2.43,2.41,1.9.2,17,2.49,18.34,2.72a31.56,31.56,0,0,1,2.15,3c-1.53,1.93-1.86,3.54-1,4.86h0c1.65,2.68,26.71,39.38,27.77,41l0,0,.31.4a9.39,9.39,0,0,0,8.34,4.14,10.58,10.58,0,0,0,8.52-4.16L74.82,140l2.28,18.43a63,63,0,0,0-17.24-3.91c-4.48-.3-12.69,0-17.32,5.58-2.73,3.27-3.82,8-3,13,.63,3.8,2.25,7.61,5.25,12.34a32.67,32.67,0,0,0,4.13,5.43,23.42,23.42,0,0,0,3.75,3.09c-8.9,3-14.05,6.55-14.05,10.45,0,5.13,8.9,9.71,23.52,13a22.67,22.67,0,0,0-4.39,8.41c-2.14,7.94-2.54,12.27-1.3,14.07a2.29,2.29,0,0,0,1.73,1h0c-1.58,2.24-2.44,4.24-2.44,5.81a3,3,0,0,0,1.08,2.48c.94.77,2.45,1.09,4.49,1.09,3.8,0,9.45-1.11,16.7-2.54,11.69-2.3,27.71-5.45,45.08-5.45s33.39,3.15,45.09,5.45c11.15,2.2,18.51,3.65,21.19,1.45a3.07,3.07,0,0,0,1.08-2.48c0-1.57-.86-3.57-2.44-5.8h.1a2.27,2.27,0,0,0,1.73-1c1.24-1.8.84-6.13-1.3-14.07a22.86,22.86,0,0,0-4.58-8.66C198,213.86,206.44,209.38,206.44,204.37ZM188,239.89a3.64,3.64,0,0,1-.74,0,4,4,0,0,1-.68-.12,6.45,6.45,0,0,1-.77-.27,17,17,0,0,1-4.63-3.62,8,8,0,0,1,.26-.87l.18-.42c.06-.13.12-.26.19-.39a6.93,6.93,0,0,1,6.83-3.71c1,4.73,1.16,7.71.37,8.86A1.32,1.32,0,0,1,188,239.89Zm-130.75-.56c-.8-1.15-.67-4.13.36-8.86a7,7,0,0,1,6.81,3.66l.19.39.18.41a5.87,5.87,0,0,1,.28.93,16,16,0,0,1-4.78,3.69,5.12,5.12,0,0,1-.73.23,5,5,0,0,1-.66.11,4.7,4.7,0,0,1-.65,0A1.28,1.28,0,0,1,57.28,239.33Zm-14-78.6c3.67-4.39,9.81-5.29,14.22-5.29.83,0,1.59,0,2.26.08a62.67,62.67,0,0,1,17.36,4l.5.18.5.19c2.81,1.07,5.56,2.26,8.24,3.5l1.08.5,1,.5c2.37,1.13,4.69,2.29,7,3.41,7.62,3.8,16.11,8,24.59,12.16l1.44.72.76.37.26.13.31.15.57.28.13.07,8.49,4.19,1.08.53,1.09.54,8.22,4.08h-.07l-.12,0a7.53,7.53,0,0,0-1,.33,12.22,12.22,0,0,0-3.37,2.14,22.76,22.76,0,0,0-6.19,9.52,39.54,39.54,0,0,0-2.24,9.51c0,.17,0,.33,0,.5l0,.5c0,.41,0,.81-.05,1.2v.31c0,.18,0,.35,0,.53s0,.35,0,.53a10.57,10.57,0,0,0,.87,3.92l.07.14L124,218.13l-.75-.25-.75-.25-1-.32-3.27-1.09-.47-.16-.48-.16-.35-.11-.14,0-.37-.12-.49-.17-.61-.21-.84-.28-.84-.28-.32-.11-1.47-.5-1.07-.36-1-.34-4.28-1.45-.68-.23-.67-.23-2.14-.72-2.53-.85c-5.09-1.73-10.26-3.48-15.35-5.19l-.72-.25-.71-.24c-5.51-1.85-10.91-3.64-16-5.3a63.76,63.76,0,0,1-11.62-4.65l-.64-.37-.59-.36a22.87,22.87,0,0,1-4.27-3.4,31,31,0,0,1-4-5.27c-2.93-4.61-4.51-8.3-5.12-12C39.75,168.23,40.77,163.79,43.31,160.73Zm19.74-13.25a8.43,8.43,0,0,1-7.55-3.75l-.31-.4c-.59-.87-20.69-30.31-26.35-38.79l.13,0a5.94,5.94,0,0,0,1.06.11,8,8,0,0,0,1.07-.07l.2,0,.5-.11.39-.08h.08l.31-.1.09,0c.28-.09.57-.18.86-.29s.32-.12.48-.18.58-.24.88-.38l.53-.24.94-.49.53-.28,1.08-.64.47-.29c.53-.33,1.07-.69,1.62-1.07l.8-.56.24-.18.13-.09.45-.33.25-.18.7-.54,0,0,0,0c.25-.19.48-.38.72-.58l.25-.21.46-.39.27-.24.45-.42.28-.27.46-.47.26-.28.18-.2.09-.12c0-.06.1-.13.16-.19l.09-.12.15-.19a.86.86,0,0,1,.07-.1c.14-.19.26-.38.38-.56s.11-.19.16-.28.12-.23.18-.34.08-.17.11-.25.1-.24.14-.35a2.17,2.17,0,0,0,.07-.24,3.37,3.37,0,0,0,.09-.34h0c7.71,11.84,18.43,27.79,18.55,28a.5.5,0,0,0,.69.14.51.51,0,0,0,.14-.7l-2.57-3.87,5.87-11.39,4.21,34.15-3.87,5.13A9.66,9.66,0,0,1,63.05,147.48Zm10-59H173.29a3.14,3.14,0,0,1,3.13,3.54l-8.2,66.19H146.71c-2.86-2.88-8.5-7.4-10.6-7.84-2.25-.47-3,.37-3.5,1.26a3,3,0,0,0,1,3.56l.62.46a29.11,29.11,0,0,1,3.2,2.56H78.09l-8.2-66.19A3.14,3.14,0,0,1,73,88.52Zm65.32-63.39a10.5,10.5,0,0,1,.07,1.7,29.88,29.88,0,0,1-.26,3.78,12.32,12.32,0,0,1-.7,2.75l-.11.27c-.8,1.88-1.3,2.89-2.49,3.11a2.86,2.86,0,0,1-.53,0,.84.84,0,0,1-.48-.16,1.3,1.3,0,0,1-.38-.38A.51.51,0,0,0,133,36a.48.48,0,0,0-.26.06.49.49,0,0,0-.19.68,2.42,2.42,0,0,0,.9.84c-.38,1-.81,2.05-1.34,3.13a10.09,10.09,0,0,1-1.83,2.59.08.08,0,0,0,0,0l-.63.6a.24.24,0,0,0-.08.06c-.24.22-.49.42-.74.61s-.31.22-.47.33c-2.32,1.59-5.87,2.93-11.22,2.82-.52,0-1,0-1.6-.06h0a2.24,2.24,0,0,1-.45-.09,2.33,2.33,0,0,1-.38-.08,3.29,3.29,0,0,1-.39-.17,2.21,2.21,0,0,1-.35-.16,3.09,3.09,0,0,1-.37-.26,3.62,3.62,0,0,1-.32-.22l-.35-.34-.29-.28-.33-.42a4,4,0,0,1-.26-.32c-.11-.15-.21-.32-.31-.48a4,4,0,0,1-.23-.34l-.3-.55-.19-.35c-.1-.2-.2-.41-.29-.62s-.11-.22-.16-.34-.19-.45-.28-.68l-.12-.31c-.09-.23-.18-.47-.26-.71s-.07-.2-.1-.29q-.14-.39-.24-.78a1.87,1.87,0,0,1-.07-.22c-.08-.28-.16-.55-.23-.82,0,0,0-.1,0-.15-.08-.3-.15-.58-.21-.86,0,0,0,0,0-.07-.14-.59-.24-1.14-.32-1.62v0c0-.25-.08-.47-.11-.68-.1-.79-.2-1.58-.27-2.37a56.51,56.51,0,0,1-.24-6.23,5.31,5.31,0,0,1,3.72.27.32.32,0,0,0,.16,0,.38.38,0,0,0,.34-.21.37.37,0,0,0-.18-.5,6,6,0,0,0-4-.4c0-.55,0-1.1.08-1.65a4.56,4.56,0,0,1,1.39-.33,4.48,4.48,0,0,1,2.8.36c1.47.83,1.81,2.93,1.39,4.57a14.65,14.65,0,0,1-1.46,3.28c-.3.56-.62,1.15-.9,1.75a3.68,3.68,0,0,0-.43,2,2.26,2.26,0,0,0,1,1.44,1.6,1.6,0,0,0,.89.29,1.57,1.57,0,0,0,.37,0,.38.38,0,0,0,.27-.46.39.39,0,0,0-.46-.27.78.78,0,0,1-.65-.13,1.47,1.47,0,0,1-.62-.92,2.9,2.9,0,0,1,.36-1.57c.27-.57.58-1.15.88-1.71a15.38,15.38,0,0,0,1.52-3.44c.49-1.86.15-4.35-1.74-5.42a5.57,5.57,0,0,0-3.25-.45,5.85,5.85,0,0,0-1.27.27s0-.06,0-.09c.11-1.56.29-3.12.53-4.67.12-.79.26-1.57.42-2.35.41-1.91,1.78-3.26,4.32-4.24a16.1,16.1,0,0,1,6.41-.77,17.29,17.29,0,0,1,5.62,1,7.89,7.89,0,0,1,4.07,3.59,13.09,13.09,0,0,1,1,3.54c.43,2.28.87,4.63,2.87,4.66h.05a.48.48,0,0,0,.23-.07l.05,0a.42.42,0,0,0,.16-.19,2.8,2.8,0,0,1,.9-1.12,2.23,2.23,0,0,1,.4-.24l.13-.06a1.72,1.72,0,0,1,.5-.11h.09a2.31,2.31,0,0,1,2,1.31A4,4,0,0,1,138.34,25.13ZM113.53,55.44c.16-.3.32-.59.47-.91,0-.1.11-.19.15-.29,10.93-1.06,15.11-7.57,16-9.27,0,.49.05,1.07.11,1.71v.13c.06.65.14,1.34.27,2.07s.27,1.27.44,1.89A20.3,20.3,0,0,0,133.26,56a11.41,11.41,0,0,1-10.1,6,10.82,10.82,0,0,1-9.93-6ZM105,63.56l.36-.18.07,0L106,63l.2-.12.5-.3.29-.18.5-.33.34-.24.52-.39.36-.29c.18-.14.37-.3.55-.46s.25-.21.37-.33.4-.38.61-.58l.32-.33c.29-.3.58-.62.86-1l.07-.08c.3-.37.59-.75.88-1.16l.25-.36A11.93,11.93,0,0,0,123.16,63,12.4,12.4,0,0,0,133.88,57c.23.32.46.63.69.92l.43.54.15.17a14.36,14.36,0,0,0,1.38,1.48,17.29,17.29,0,0,0,3.85,2.8c.56.32,1,.55,1.36.7a21.16,21.16,0,0,1-16.36,10.87h-.12c-.67.06-1.36.09-2.08.09A20.24,20.24,0,0,1,105,63.56Zm-13.71,8,.27-.24c.44-.39.88-.78,1.34-1.15l.65-.51,1.15-.88c.64-.46,1.29-.91,2-1.33l.31-.2c.32-.2.65-.39,1-.58l.61-.34.83-.44c.32-.17.65-.32,1-.48l.57-.27c.54-.24,1.09-.46,1.64-.68l.38-.13,1.1-.37a20.81,20.81,0,0,0,15.12,11.26c.51.08,1,.16,1.55.22l.41,0c.67,0,1.35.09,2.06.09s1.4,0,2.07-.09l.41,0c.53-.06,1-.14,1.56-.22A21.73,21.73,0,0,0,142.7,63.91c.68.22,1.34.47,2,.73l.3.12c.67.28,1.34.58,2,.9l.5.26q.42.21.84.45l.39.22c11,6.33,16.94,18,18.28,20.93H79.39A54.54,54.54,0,0,1,91.27,71.53Zm95.22,61.6c-.63,4.59-3.92,8.78-7.25,12.67-2.37,2.79-7.6,9-9.87,11.7l6.49-52.7,6.08,11.38C184.62,121.41,187.26,127.51,186.49,133.13Zm14.79,23.54a13,13,0,0,1,4.15,10.53,22.9,22.9,0,0,1-3.94,11.1,37,37,0,0,1-14.17,13c-.52.27-1,.51-1.58.74l-.81.35-.9.34c-.61.24-1.23.47-1.84.69-1.29.47-2.63,1-3.91,1.53-6.36,2.84-12.34,5.42-18.17,7.86-4.17-1.75-9.2-3.84-13.41-5.59.29-2.86-.06-5.21-1.61-6h0l-8.47-4.2-1.12-.56-1.09-.54-8.62-4.25-1-.5-.24-.12.8-.38,7.44-3.59,11.13-5.36.67-.33.68-.32c5.71-2.75,10.63-5.13,13.83-6.69l.26-.12.77-.38.77-.37.26-.13,1.8-.89c2-1.05,3.69-2,5.22-2.93l.17-.1.33-.19,0,0h0l.38-.22.09-.05.52-.31c4.63-2.69,8-4.49,14.72-5.45C191.77,152.16,197.29,153.29,201.28,156.67Zm-28.19,61.59c-.26.21-.51.43-.75.65s-.43.42-.63.64a12.14,12.14,0,0,0-2.9,5.38c0,.14-.07.28-.1.42s-.05.29-.07.43l-.39-.15c-2.8-1.07-7.38-2.55-12.43-4.1l-1.33-.41-1.36-.42c-4.85-1.47-9.9-2.95-14.07-4.16l-.49-.14-.5-.15-5.21-1.49-.8-.23-.8-.23-.95-.27c0-.13,0-.26,0-.4s0-.33,0-.5,0-.33,0-.49a37.12,37.12,0,0,1,2.17-9.26c.13-.38.28-.74.42-1.09,0-.11.09-.21.13-.31.2-.46.4-.89.6-1.3a20.73,20.73,0,0,1,4.31-6l7.57,3.14.47.2.49.2c3.86,1.6,8.36,3.47,12.25,5.1l.65.27.64.27c3.21,1.35,5.87,2.47,7.19,3,2.72,1.19,9,3.94,14,8.86a12.09,12.09,0,0,0-8.14,2.46Zm-95.5,7c0-.14-.06-.28-.1-.42a12.28,12.28,0,0,0-2.67-5.1c-.19-.22-.39-.43-.6-.64s-.5-.45-.76-.67l-.24-.21A12.14,12.14,0,0,0,65,215.75c5-4.92,11.28-7.67,14-8.86.81-.35,2.14-.92,3.79-1.61l3.51,1.18,0,0h0c.15.05,8.94,3.12,11.67,9.6.06.14.12.28.17.42l.17.48a10.49,10.49,0,0,1,.41,2.05l-5.84,1.75-1.37.42-1.33.41c-5.11,1.58-9.7,3.07-12.41,4.12l-.13.05A4,4,0,0,0,77.59,225.3Zm57.09-70.22c-.26-.18-.46-.33-.6-.44a2.27,2.27,0,0,1-.83-2.58c.39-.65.79-1.31,2.7-.92,1.66.35,6.62,4.14,9.69,7.11l.51.5a3.19,3.19,0,0,0,.26.26,2.72,2.72,0,0,0,.24.24,19.78,19.78,0,0,0,7.3,4.13c.6.2,1.2.37,1.77.5a13.47,13.47,0,0,0,1.53.28l-.45.22-13.53,6.54c-8.59-.65-17.24-1.56-25.76-2.74a29.49,29.49,0,0,1-6.12-1.33c-1-.38-1.42-.78-1.42-1.39a1.17,1.17,0,0,1,.86-1.08,2.05,2.05,0,0,1,.72-.12h25.91a2.6,2.6,0,0,0,1.39-.38,2.21,2.21,0,0,0,.56-.5,3.28,3.28,0,0,0,.61-2.06,3.86,3.86,0,0,0-.75-2.07c-.11-.16-.23-.33-.37-.5l-.42-.5A24,24,0,0,0,134.68,155.08Zm22.43,8.3a21,21,0,0,1-9.34-4.13H166.7c-1.27.74-2.66,1.53-4.22,2.36-.3.16-1.6.79-3.62,1.77Zm-17.84-2.06a2,2,0,0,1-1.11,2.06H88.75c-3.06-1.45-6.21-2.87-9.44-4.13h59A3.58,3.58,0,0,1,139.27,161.32ZM63.63,217.21l.42-.48h0l.06,0,.22,0h0a11.12,11.12,0,0,1,6.72,1.28,10.21,10.21,0,0,1,1.21.76l.3.21c.19.15.36.31.54.47a11.16,11.16,0,0,1,3.45,5.89c0,.14.05.29.07.43l.06.33c-.26.11-.5.21-.69.31a23.54,23.54,0,0,0-5.35,3.79c-1.38,1.24-2.66,2.57-3.87,3.82l-.91.94a7.54,7.54,0,0,0-.3-.79c-.06-.14-.12-.27-.19-.41s-.14-.25-.21-.37A8,8,0,0,0,63.07,231a8.08,8.08,0,0,0-5.2-1.56c.24-1.05.52-2.16.84-3.36a22,22,0,0,1,4.52-8.44ZM183.24,231a8,8,0,0,0-2.17,2.49l-.21.38c-.07.13-.12.27-.18.4a6.61,6.61,0,0,0-.28.74l-.91-.94c-1.12-1.16-2.31-2.39-3.58-3.56a24.42,24.42,0,0,0-5.64-4.05c-.19-.1-.43-.2-.68-.31,0-.1,0-.19,0-.28s0-.29.07-.44a11.19,11.19,0,0,1,3.75-6.18l.26-.22c.22-.17.46-.33.69-.49a12.17,12.17,0,0,1,1.5-.83,11.16,11.16,0,0,1,5.13-1c.3,0,.6,0,.9.07a.61.61,0,0,0,.32-.08l.23.25c.13.15.27.3.4.46a22,22,0,0,1,4.72,8.67c.32,1.2.6,2.31.84,3.36A8.08,8.08,0,0,0,183.24,231ZM25.14,77.52A10.9,10.9,0,0,0,31.63,80c3.16.09,4.93.83,6.1,2.56a9.55,9.55,0,0,0-5.27-1.11H24.15a12.65,12.65,0,0,1-1.66-1.34,2.12,2.12,0,0,1,0-2.63A2.15,2.15,0,0,1,25.14,77.52ZM4.3,89.57a1,1,0,0,1-1.15-1.18,1.11,1.11,0,0,1,.41-.86A2.66,2.66,0,0,1,5.2,87H20a.38.38,0,0,0,0-.75H5.2a2.91,2.91,0,0,0-2.59,1.34.38.38,0,0,0-.26-.19s-1.6-.26-1.6-1.12A1.55,1.55,0,0,1,2.37,84.8h19a.38.38,0,1,0,0-.75H3.8a.37.37,0,0,0,.13-.15.4.4,0,0,0,0-.15,1.78,1.78,0,0,1,1.83-1.54H32.46c2.82,0,5,.24,7.16,3.25.14.2.28.42.43.65L41,87.57c.08.13.16.25.24.39l.41.63.28.44.29.44c1,1.51,2.11,3.26,3.26,5A24,24,0,0,1,41.61,98c-.45.34-1,.71-1.46,1.07l-.66.47A25,25,0,0,1,32,103.39c-1.41-2.16-2.5-3.8-3.35-5-.09-.15-.19-.29-.28-.43s-.2-.29-.3-.42c-2.09-3-2.31-3.09-2.42-3.11C25,94.28,9.14,91.86,7.18,91.65c-1.56-.17-1.77-1-1.77-1.71a.5.5,0,0,1,.1-.26,2.23,2.23,0,0,1,1.74-.62H19.17a.36.36,0,0,0,.34-.23.32.32,0,0,0,0-.14.38.38,0,0,0-.37-.38H7.25c-1.43,0-2.51.67-2.58,1.55v0s0,0,0,0A.37.37,0,0,0,4.3,89.57Z"></path></svg>