<svg xmlns="http://www.w3.org/2000/svg" viewBox="0 0 196.62 196.62"><defs><style>.cls-1{fill:#fff;stroke:#2c6eb5;stroke-miterlimit:10;stroke-width:3px;}.cls-2{fill:#f4822a;}.cls-3{fill:#fefefe;}.cls-4{fill:#fdfdfd;}.cls-5{fill:#fcfcfc;}.cls-6{fill:#fafafa;}</style></defs><g id="Background"><rect class="cls-1" x="1.5" y="1.5" width="193.62" height="193.62"></rect></g><g id="SOURCE_4:_SOCIAL_ABILITY" data-name="SOURCE 4: SOCIAL ABILITY"><path d="M137.33,79.63a8.9,8.9,0,0,0-.75,7.28c.66,2.44,1,5,1.53,7.44a2.76,2.76,0,0,1-.77,2.73c-1.48,1.48-2.93,3-4.44,4.43a2.35,2.35,0,0,1-3.67,0c-1.51-1.45-3-3-4.44-4.43a2.85,2.85,0,0,1-.78-2.86c.67-3.1,1.2-6.24,1.94-9.33.44-1.82-.46-3.27-.89-4.87-.17-.64-.5-.24-.76-.06-1.08.8-2.17,1.58-3.23,2.41-.91.71-1.83,1.2-3,.61a2.63,2.63,0,0,1-1.36-2.74c0-2.59,0-5.18,0-7.76,0-1-.33-1.18-1.25-1.2a10,10,0,0,0-8.3,3.25c-.44.51-.74.49-1.19.09s-.71-.54-1.07-.81c-2.31-1.73-2.31-1.73-.08-3.7a13.87,13.87,0,0,1,9.25-3.57c2.13,0,4.28,0,6.41,0,.79,0,1-.21,1-1,0-3.28,0-6.56,0-9.85A7.93,7.93,0,0,1,134,49c1.74,1.15,3.46,2.33,5.21,3.46a2.85,2.85,0,0,1,1.37,2.63c0,3.48,0,7,0,10.45,0,.83.2,1.07,1.06,1.08,2.88,0,5.77-.26,8.64.23a14.12,14.12,0,0,1,11.77,13.48c.11,11.84,0,23.68,0,35.53a16,16,0,0,1-.68,3.28c2.49,0,4.92,0,7.36,0,2,0,2.88.87,2.88,2.92q0,10.23,0,20.45c0,2-.87,2.89-2.92,2.89-5.77,0-11.54,0-17.31,0-1.07,0-1.32.28-1.29,1.31.08,2.83.05,5.67,0,8.51a2.42,2.42,0,0,0,.79,2c1.8,1.72,3.52,3.51,5.3,5.25a3.32,3.32,0,0,1,1.1,2.65c-.05,1.19,0,2.39,0,3.58,0,2.23-.82,3.05-3.07,3.05h-44c-1,0-2,0-3,0a2.35,2.35,0,0,1-2.44-2.45c-.05-1.55,0-3.09,0-4.63a2.82,2.82,0,0,1,1-2.08c1.84-1.82,3.66-3.66,5.5-5.48a2,2,0,0,0,.68-1.55q0-15.81,0-31.64c0-.19,0-.38-.07-.66a8.36,8.36,0,0,1-8.51-1A7.82,7.82,0,0,1,100,116c-.11-2.63,0-5.27-.06-7.91,0-.74.25-.87.93-.9,3.87-.13,3.87-.15,3.87,3.63,0,1.54,0,3.08,0,4.62a3.57,3.57,0,1,0,7.14,0q0-8.28,0-16.57c0-1,.22-1.24,1.21-1.23,3.59,0,3.56,0,3.6,3.61,0,1.17-.54,2.73.26,3.4s2.17.18,3.31.18c7.91,0,15.83,0,23.74,0,1.12,0,1.38-.26,1.37-1.38-.06-5.52,0-11,0-16.56,0-1,.26-1.23,1.22-1.22,3.58,0,3.58,0,3.58,3.62,0,5.57,0,11.14,0,16.72,0,1,.28,1.25,1.24,1.2,1.64-.08,3.28,0,4.92,0,.68,0,1.06,0,1.06-.92,0-8.61.06-17.22-.07-25.83-.09-5.7-5.89-10.19-11.38-9.11-.76.15-.51.62-.51,1,0,2.68,0,5.37,0,8.06A2.6,2.6,0,0,1,144.07,83a2.48,2.48,0,0,1-2.89-.47C139.92,81.56,138.64,80.62,137.33,79.63Z" transform="translate(-1.69 -1.69)"></path><path d="M78.5,100.84c0,18.54,0,36.54,0,54.55a2.14,2.14,0,0,0,.74,1.67c1.81,1.77,3.59,3.59,5.4,5.37a3.18,3.18,0,0,1,1.05,2.51c-.05,1.29,0,2.59,0,3.88,0,1.94-.9,2.82-2.84,2.82-6.67,0-13.33,0-20,0H36.27c-2.35,0-3.17-.79-3.14-3.11.09-6.22-1-4.33,3.53-8.45a10.41,10.41,0,0,0,3.72-9c-.32-6.7-.09-13.42-.09-20.14,0-2.25,0-2.25-2.21-2.27a9.57,9.57,0,0,1-9.61-8.09,12,12,0,0,1-.12-2.08q0-16.12,0-32.24c0-8.74,6.18-14.89,14.93-14.92,1.84,0,3.68,0,5.52,0,.85,0,1.07-.23,1.06-1.07,0-3.38,0-6.76,0-10.14A3.31,3.31,0,0,1,51.56,57c1.65-1,3.23-2.14,4.84-3.21A7.93,7.93,0,0,1,69,60.49c0,3.19,0,6.37,0,9.55,0,1,.19,1.38,1.27,1.32,1.94-.1,3.88,0,5.82,0A12.11,12.11,0,0,1,85.9,76c2.18,2.64,4.41,5.25,6.56,7.92.64.79,1.08,1,2,.39,2.37-1.54,4.83-2.94,7.26-4.37a9,9,0,0,1,6.43-1.29,7.43,7.43,0,0,1,4,12.49c-2,2.1-4.06,4.1-6.1,6.14-1.89,1.9-3.77,3.82-5.7,5.69a13.88,13.88,0,0,1-19.92,0C79.89,102.39,79.36,101.76,78.5,100.84Z" transform="translate(-1.69 -1.69)"></path><path class="cls-2" d="M96.57,28.34H116c2.35,0,3.14.79,3.15,3.11q0,13.65,0,27.3c0,2.22-.82,3-3.08,3-5.42,0-10.84,0-16.26,0a3.3,3.3,0,0,0-2.28.78c-3.23,2.65-6.52,5.22-9.77,7.84-.94.76-1.89,1.31-3.11.67a2.65,2.65,0,0,1-1.33-2.76c0-1.84,0-3.68,0-5.52,0-.76-.17-1-1-1-1.93.06-3.88,0-5.81,0s-2.77-.9-2.78-2.73q0-13.95,0-27.9c0-1.93.89-2.8,2.85-2.8Z" transform="translate(-1.69 -1.69)"></path><path class="cls-3" d="M116.72,132.11c0-7.07,0-14.13,0-21.2,0-1.08.21-1.4,1.36-1.39q13,.08,26.12,0c.94,0,1.27.2,1.24,1.2-.08,2.49,0,5,0,7.46,0,.7-.17,1-.91.93-1.24-.06-2.48-.05-3.73,0a2.33,2.33,0,0,0-2.53,2.51q0,10.59,0,21.19a2.36,2.36,0,0,0,2.49,2.56c.25,0,.5,0,.75,0,1.27.08,3-.57,3.69.25s.2,2.46.22,3.75-.07,2.79,0,4.17c.07,1.07-.16,1.45-1.34,1.41-3-.1-6.07-.09-9.1,0-1.2,0-1.56-.21-1.56-1.5.07-10.2,0-20.4.06-30.6,0-1.06-.18-1.43-1.34-1.4-3.46.07-3.46,0-3.46,3.45,0,9.55,0,19.1,0,28.65,0,1.08-.2,1.44-1.36,1.4-3.08-.09-6.17-.08-9.25,0-1.08,0-1.4-.21-1.39-1.36C116.75,146.44,116.72,139.27,116.72,132.11Z" transform="translate(-1.69 -1.69)"></path><path class="cls-3" d="M166.88,130.64c0,3,0,6.06,0,9.09,0,.75-.26.88-.94.88q-11,0-22.07,0c-.72,0-.91-.2-.9-.91,0-3,0-6,0-9.55.95,1.57,1.71,2.73,2.38,3.95a2.94,2.94,0,0,0,3,1.73c.69-.05,1.4,0,2.09,0,1.35-.12,2.49-.08,2.08,1.82-.09.44.17.6.6.58a18.2,18.2,0,0,1,2.09,0c1.35.12,2.49.08,2.09-1.81-.12-.6.33-.59.75-.59,1.09,0,2.19,0,3.28,0a3.05,3.05,0,0,0,3.15-1.76c.65-1.2,1.41-2.35,2.12-3.53Z" transform="translate(-1.69 -1.69)"></path><path class="cls-3" d="M119,166.87c-2.78,0-5.56,0-8.34,0-.35,0-.89.25-1-.24a1.31,1.31,0,0,1,.2-1.39l5.26-5.26c.33-.34.72-.26,1.11-.26,3.82,0,7.64,0,11.46,0,.87,0,1.07.28,1,1.09-.06,1.69-.07,3.38,0,5.06,0,.86-.24,1.07-1.07,1.06C124.73,166.84,121.86,166.87,119,166.87Z" transform="translate(-1.69 -1.69)"></path><path class="cls-3" d="M143,166.87c-2.82,0-5.65,0-8.48,0-.8,0-1.13-.15-1.09-1,.07-1.73.07-3.47,0-5.21,0-.84.3-.95,1-.95,3.82,0,7.64,0,11.46,0a1.76,1.76,0,0,1,1.44.56c1.52,1.57,3,3.12,4.64,4.62a1.54,1.54,0,0,1,.51,1.72c-.21.59-.87.25-1.31.26C148.45,166.89,145.72,166.87,143,166.87Z" transform="translate(-1.69 -1.69)"></path><path class="cls-3" d="M165,124c-1.35,2.25-2.56,4.48-4,6.54-.79,1.15-2.2.44-3.31.43-.66,0-.35-.91-.32-1.37.05-.84-.3-1-1-.95a11.23,11.23,0,0,1-2.09,0c-1.26-.15-2,.17-1.69,1.62.14.69-.27.72-.84.81a3.23,3.23,0,0,1-3.86-2.06,55.55,55.55,0,0,0-2.94-5Z" transform="translate(-1.69 -1.69)"></path><path class="cls-3" d="M126.27,64.66c0-2.88,0-2.88,2.94-2.88,1.88,0,3.77,0,5.66,0,.8,0,1,.24,1,1-.06,1.29,0,2.58,0,3.87a4.77,4.77,0,0,1-9.54,0C126.26,66,126.28,65.3,126.27,64.66Z" transform="translate(-1.69 -1.69)"></path><path class="cls-3" d="M153.74,111.94c.15,0,.34-.06.44,0,1,.63,3.1-1.41,3.13,1.31.06,4.09-1,5.83-3.57,5.83-2.07,0-3.54-1.6-3.58-3.9C150.09,111.94,150.09,111.94,153.74,111.94Z" transform="translate(-1.69 -1.69)"></path><path class="cls-3" d="M131,57c-1.29,0-2.58,0-3.87,0-.64,0-.82-.18-.84-.83,0-1.49.26-2.78,1.64-3.56a3.26,3.26,0,0,1,3.74.46c1.13.8,2.29,1.56,3.46,2.3.5.32.91.65.71,1.29s-.75.29-1.12.31C133.44,57,132.2,57,131,57Z" transform="translate(-1.69 -1.69)"></path><path class="cls-4" d="M133.14,94c0,.54-1.71,2.47-2.15,2.43s-2.11-2.11-2-2.69c.48-2.49,1-5,1.48-7.44.06-.3.1-.6.49-.64a.52.52,0,0,1,.63.47C132.11,88.76,132.63,91.39,133.14,94Z" transform="translate(-1.69 -1.69)"></path><path class="cls-5" d="M131.11,76.07a9.43,9.43,0,0,1,1.19,0c.56.06.95.27.71,1-.38,1.07-.75,2.15-1.08,3.25a.76.76,0,0,1-.87.6c-.45,0-.75-.1-.89-.59-.28-1-.56-1.9-.93-2.82s-.17-1.5,1-1.41c.3,0,.59,0,.89,0Z" transform="translate(-1.69 -1.69)"></path><path class="cls-5" d="M140.6,76.07c-.56-.4-.91-.64-1.26-.9-2.11-1.57-2.1-1.61-.25-3.52a1.2,1.2,0,0,1,1.22-.28c.5.08.28.55.29.85C140.62,73.41,140.6,74.59,140.6,76.07Z" transform="translate(-1.69 -1.69)"></path><path class="cls-5" d="M121.49,75.92c0-1.29,0-2.51,0-3.73,0-.29-.23-.76.3-.83.37,0,.8-.16,1.11.2.06.08.1.18.16.25C124.86,73.89,124.81,74,121.49,75.92Z" transform="translate(-1.69 -1.69)"></path><path class="cls-3" d="M73.73,133.43c0,6.72,0,13.44,0,20.15,0,1.11-.25,1.41-1.38,1.38-3.13-.09-6.26-.07-9.4,0-1,0-1.22-.24-1.22-1.22,0-9.45,0-18.9.06-28.35,0-1.24-.28-1.57-1.53-1.53-3.28.09-3.28,0-3.28,3.32,0,8.8,0,17.61,0,26.41,0,1.12-.26,1.41-1.38,1.38-3.18-.09-6.37-.06-9.55,0-.85,0-1.06-.23-1.06-1.07q0-20.44,0-40.9c0-.84.22-1.06,1.06-1.06q13.29,0,26.57,0c1,0,1.06.44,1.06,1.22C73.72,119.9,73.73,126.67,73.73,133.43Z" transform="translate(-1.69 -1.69)"></path><path class="cls-3" d="M59.25,107.16c-4.32,0-8.65,0-13,0-1,0-1.25-.22-1.23-1.21.07-3.23,0-6.46.05-9.7,0-.83-.21-1.07-1.06-1.08-3.74,0-3.74-.07-3.74,3.61,0,4,0,8,0,11.93,0,1-.22,1.28-1.21,1.23-1.69-.09-3.38-.06-5.07,0-.71,0-.92-.18-.92-.91,0-8.65-.08-17.31.07-26,.1-5.61,5.8-10,11.33-9,.86.15.54.7.54,1.11,0,3.38.05,6.76,0,10.14a3.72,3.72,0,0,0,1.2,2.91c3.68,3.63,7.32,7.31,11,11,1.62,1.61,2.72,1.61,4.32,0,3.67-3.65,7.31-7.33,11-11a3.74,3.74,0,0,0,1.21-2.9c-.06-3.33,0-6.67,0-10,0-.89.13-1.22,1.17-1.28a8.77,8.77,0,0,1,8,3.7c2.43,3.14,5.07,6.13,7.61,9.18,1.44,1.74,2.31,1.9,4.21.78,2.08-1.22,2.08-1.22,3.48.65,1,1.28,1.88,2.57,2.87,3.82.44.55.54.91-.06,1.46-1.45,1.36-2.79,2.84-4.25,4.19a9,9,0,0,1-12.65-.08c-2-1.88-3.89-3.85-5.81-5.79-.85-.86-1.76-1.49-3-1a2.59,2.59,0,0,0-1.52,2.79c0,3.44,0,6.87,0,10.3,0,.84-.22,1.08-1.07,1.07C68.21,107.14,63.73,107.16,59.25,107.16Z" transform="translate(-1.69 -1.69)"></path><path class="cls-3" d="M47.41,166.87c-2.78,0-5.56,0-8.34,0-.38,0-1,.33-1.13-.29a1.36,1.36,0,0,1,.26-1.39c1.73-1.7,3.44-3.42,5.15-5.15a1.34,1.34,0,0,1,1.09-.32c3.87,0,7.74,0,11.61,0,.81,0,1,.24,1,1-.05,1.73-.05,3.47,0,5.21,0,.78-.2,1-1,1C53.16,166.84,50.29,166.87,47.41,166.87Z" transform="translate(-1.69 -1.69)"></path><path class="cls-3" d="M71.38,166.87c-2.83,0-5.66,0-8.49,0-.94,0-1.17-.26-1.13-1.16.08-1.73.05-3.47,0-5.21,0-.65.17-.84.83-.84,4,0,7.94,0,11.91,0a1.48,1.48,0,0,1,1.15.55c1.56,1.59,3.12,3.18,4.74,4.72a1.49,1.49,0,0,1,.45,1.61c-.2.64-.85.28-1.28.28C76.84,166.89,74.11,166.87,71.38,166.87Z" transform="translate(-1.69 -1.69)"></path><path class="cls-3" d="M59.14,66.56a5.17,5.17,0,0,1,1,0c1.32.33,3.52-.9,3.9.62,1.07,4.35-.23,7.5-2.85,8.57a4.82,4.82,0,0,1-6.55-3.86,1.51,1.51,0,0,1,0-.3c0-1.63-.55-3.72.24-4.75S57.84,66.68,59.14,66.56Z" transform="translate(-1.69 -1.69)"></path><path class="cls-3" d="M37,116.71c.92.11,2.44-.5,3,.23s.19,2.16.22,3.29c0,.39,0,.79,0,1.19,0,2.67,0,2.67-2.74,2.45-3.11-.26-5.57-4.08-4.42-6.83.16-.39.44-.32.71-.32Z" transform="translate(-1.69 -1.69)"></path><path class="cls-3" d="M65.51,90.62c-.39-1.48-.69-2.68-1-3.86a3.57,3.57,0,0,1,.08-2c.68-2.31,1.83-4.48,2-6.94,0-.52.56-1,.93-1.48s.74-.25,1.11-.18.28.56.28.86c0,3.12,0,6.24,0,9.36a1.49,1.49,0,0,1-.47,1.17C67.54,88.47,66.63,89.45,65.51,90.62Z" transform="translate(-1.69 -1.69)"></path><path class="cls-3" d="M53.15,90.48c-1-1-1.89-2-2.84-3a1.48,1.48,0,0,1-.48-1.17c0-3.12,0-6.24,0-9.36,0-.3-.2-.75.28-.85s.87-.2,1.11.17c.33.53,1,.93,1,1.62a9,9,0,0,0,1,3.84A9.57,9.57,0,0,1,53.15,90.48Z" transform="translate(-1.69 -1.69)"></path><path class="cls-4" d="M100.88,86c1.62-.87,3-2.06,4.74-2.56a2.94,2.94,0,0,1,3.54,1.12c.71,1.16.51,2.41-.73,3.6s-2.14,3.11-3.43,3c-1-.1-1.91-2.2-2.84-3.42C101.74,87.2,101.35,86.64,100.88,86Z" transform="translate(-1.69 -1.69)"></path><path class="cls-3" d="M59.31,61.78c-1.24,0-2.48,0-3.72,0-.33,0-.85.28-1-.35a.92.92,0,0,1,.38-1c1.59-1,3.11-2.12,4.74-3.06a2.81,2.81,0,0,1,3.43.53c1.1,1,1.06,2.29,1,3.58,0,.53-.53.33-.83.33C62,61.79,60.64,61.78,59.31,61.78Z" transform="translate(-1.69 -1.69)"></path><path class="cls-4" d="M61.46,94.19c0,.48-1.77,2.31-2.16,2.25s-2-2.07-1.89-2.58c.43-1.72.89-3.44,1.32-5.16.08-.36.13-.69.61-.65.3,0,.57,0,.67.39C60.48,90.36,61,92.28,61.46,94.19Z" transform="translate(-1.69 -1.69)"></path><path class="cls-6" d="M58.08,80.89h2.78c-.57.83,0,2.29-1.46,2.35S58.69,81.66,58.08,80.89Z" transform="translate(-1.69 -1.69)"></path><path class="cls-3" d="M88.06,64c0-1.55,0-2.83,0-4.1,0-2-.88-2.86-2.94-2.87-1.88,0-3.77,0-5.66,0-.82,0-1-.26-1-1q0-11,0-21.92c0-.77.19-1,1-1q16.92,0,33.85,0c.89,0,1,.3,1,1.1q0,10.88,0,21.77c0,.86-.25,1.06-1.08,1.05-5,0-9.94,0-14.91,0a4.16,4.16,0,0,0-2.85,1C93.12,60,90.68,61.88,88.06,64Z" transform="translate(-1.69 -1.69)"></path><path class="cls-2" d="M102.51,42.67c-2,0-4.08,0-6.12,0-.83,0-1.2-.08-1.2-1.09,0-3.7,0-3.7,3.65-3.7,3.18,0,6.36,0,9.54,0,.84,0,1.2.08,1.21,1.09,0,3.7,0,3.7-3.65,3.7Z" transform="translate(-1.69 -1.69)"></path><path class="cls-2" d="M90.45,47.45c2.09,0,4.17,0,6.26,0,.72,0,.9.2.92.92.15,3.88.17,3.88-3.75,3.88-3.18,0-6.37,0-9.55,0-.84,0-1.06-.23-1.07-1.07,0-3.73-.07-3.73,3.61-3.73Z" transform="translate(-1.69 -1.69)"></path><path class="cls-2" d="M87,37.9c3.5,0,3.47,0,3.49,3.54,0,.91-.14,1.32-1.19,1.26-1.63-.1-3.28-.07-4.92,0-.79,0-1.09-.13-1.1-1C83.21,37.9,83.17,37.9,87,37.9Z" transform="translate(-1.69 -1.69)"></path><path class="cls-2" d="M106,52.23c-3.62,0-3.58,0-3.61-3.59,0-1,.26-1.26,1.23-1.21,1.69.08,3.38.06,5.07,0,.73,0,1,.21.89.92v.15C109.65,52.23,109.65,52.23,106,52.23Z" transform="translate(-1.69 -1.69)"></path></g></svg>