<svg xmlns="http://www.w3.org/2000/svg" viewBox="0 0 196.62 196.62"><defs><style>.cls-1{fill:#fff;stroke:#2c6eb5;stroke-miterlimit:10;stroke-width:3px;}.cls-2{fill:#f4822a;}.cls-3{fill:#fefefe;}</style></defs><g id="Background"><rect class="cls-1" x="1.5" y="1.5" width="193.62" height="193.62"></rect></g><g id="SOURCE_5:_STRUCTURAL_MOTIVATION" data-name="SOURCE 5: STRUCTURAL MOTIVATION"><path class="cls-2" d="M103.42,27.25c1.44.62,1.77,2,2.18,3.31a2.75,2.75,0,0,0,2.24,2.15,12.76,12.76,0,0,1,4.28,1.82,2.38,2.38,0,0,0,2.6,0c3.49-1.6,3.5-1.58,6.17,1.11.71.7,1.4,1.42,2.12,2.1a2.27,2.27,0,0,1,.54,3.07,5,5,0,0,0,.09,6.07,4.84,4.84,0,0,1,.78,2c.22,1.89,1.44,2.59,3.07,3.14,2.46.82,2.61,1.17,2.61,3.84,0,1.28,0,2.56,0,3.84a2.37,2.37,0,0,1-1.87,2.66,4.69,4.69,0,0,0-4.1,4.27A1,1,0,0,1,124,67c-1.54,2.36-2,4.71-.25,7.23a1.85,1.85,0,0,1-.46,2.34c-1.29,1.33-2.59,2.63-3.91,3.93a2.15,2.15,0,0,1-2.85.37,4.91,4.91,0,0,0-6.06.07,5.54,5.54,0,0,1-2.1.83c-1.72.26-2.45,1.33-3,2.88-.86,2.61-1.23,2.78-4,2.78-1.23,0-2.46,0-3.69,0A2.38,2.38,0,0,1,95,85.61a4.81,4.81,0,0,0-4.39-4.17,1,1,0,0,1-.39-.17c-2.31-1.61-4.63-1.87-7.09-.23a1.92,1.92,0,0,1-2.45-.51c-1.29-1.26-2.56-2.54-3.82-3.82a2.16,2.16,0,0,1-.41-2.85,4.93,4.93,0,0,0-.13-6.18,1.08,1.08,0,0,1-.17-.38c-.52-2.7-1.86-4.57-4.76-5.11a2,2,0,0,1-1.45-2c0-1.85,0-3.7,0-5.54a2.19,2.19,0,0,1,1.8-2.27A4.87,4.87,0,0,0,75.92,48,4.54,4.54,0,0,1,76.77,46c1.18-1.49.82-2.84,0-4.38-1.16-2.29-1-2.63.8-4.45,1-1,2-1.93,2.91-2.91a2.21,2.21,0,0,1,3-.52,4.92,4.92,0,0,0,6.18-.13.37.37,0,0,1,.12-.07c2.77-.61,5-1.85,5.41-5,.1-.64.85-.81,1.13-1.34Z" transform="translate(-1.69 -1.69)"></path><path d="M172.74,171.33c-.87,1-1.75,1.88-3.22,1.18a2.38,2.38,0,0,1-1.33-2.45c0-3.17-.08-6.34,0-9.51a4.41,4.41,0,0,0-2.83-4.46,23.37,23.37,0,0,0-7.26-1.79,34.71,34.71,0,0,0-13.23.81,13.72,13.72,0,0,0-3.17,1.17,4.32,4.32,0,0,0-2.49,4.25c.08,3.17,0,6.35,0,9.52,0,1.69-.86,2.69-2.24,2.69s-2.27-1-2.29-2.68c0-3.41,0-6.82,0-10.23a8.27,8.27,0,0,1,4.42-7.28c2.64-1.61,5.63-2.12,8.62-2.63.2-.42-.2-.56-.4-.78a13.42,13.42,0,0,1-3-12.31c1-4.73,5-7.28,10.38-7a9,9,0,0,1,8.65,8.08,13.83,13.83,0,0,1-3.92,11.93c5.64,1.05,11.27,1.94,13.29,8.4Z" transform="translate(-1.69 -1.69)"></path><path d="M71.67,105.61c8.23,0,16.47,0,24.7,0,1.13,0,1.42-.29,1.39-1.4-.08-2.89,0-5.78,0-8.67,0-1.88.85-3,2.3-2.94s2.24,1.08,2.24,3c0,2.84.06,5.68,0,8.52,0,1.17.26,1.48,1.46,1.48q24.27-.06,48.56,0c.47,0,.95,0,1.42,0A2.16,2.16,0,0,1,156,108q0,6.75,0,13.49a2.21,2.21,0,0,1-2.22,2.42,2.28,2.28,0,0,1-2.3-2.51c0-3.31,0-6.62,0-9.94,0-.92-.11-1.29-1.18-1.29q-23.43.06-46.86,0c-.91,0-1.19.2-1.17,1.15.06,3.12,0,6.25,0,9.37,0,2.18-.76,3.23-2.31,3.21s-2.23-1.05-2.23-3.28c0-3.12,0-6.25,0-9.37,0-.89-.24-1.08-1.1-1.08q-23.5,0-47,0c-1,0-1.12.38-1.11,1.22,0,3.36,0,6.72,0,10.08a2.26,2.26,0,0,1-1.68,2.36,2.14,2.14,0,0,1-2.4-.8A2.8,2.8,0,0,1,44,121.1c0-4.12,0-8.24,0-12.36,0-2.46.65-3.13,3.08-3.13Z" transform="translate(-1.69 -1.69)"></path><path d="M40.54,149.86c-3.57-3.87-4.81-8.22-3.63-13.12s5.3-7.41,10.73-6.88A9.08,9.08,0,0,1,56,138.43c.36,4.49-.64,7.45-3.9,11.4,1.63.35,3.22.66,4.79,1A13.59,13.59,0,0,1,62,153.26a8.06,8.06,0,0,1,3.33,6.59c0,3.36,0,6.73,0,10.09,0,1.75-.91,2.82-2.32,2.8s-2.21-1-2.21-2.86c0-3.08-.08-6.16,0-9.23a4.53,4.53,0,0,0-3-4.64,24.69,24.69,0,0,0-7.14-1.72,34.85,34.85,0,0,0-13.22.83,13.78,13.78,0,0,0-2.92,1.06,4.37,4.37,0,0,0-2.68,4.4c.11,3.13,0,6.25,0,9.38,0,1.76-.89,2.81-2.32,2.78s-2.21-1-2.22-2.73c0-3.22,0-6.45,0-9.66a8.39,8.39,0,0,1,4.47-7.82C34.38,150.93,37.36,150.45,40.54,149.86Z" transform="translate(-1.69 -1.69)"></path><path d="M94.33,149.87a13.31,13.31,0,0,1-3.83-7.11,13.77,13.77,0,0,1,0-5.5c1.14-5.22,5.46-8.08,11.07-7.38,5.17.64,8.4,4.71,8.24,10.3a13.77,13.77,0,0,1-4.1,9.69,36.59,36.59,0,0,1,6,1.34c3.6,1.28,6.75,3.27,7.13,7.42A118.48,118.48,0,0,1,119,170.7a2.18,2.18,0,0,1-2.32,2,2.23,2.23,0,0,1-2.16-2.34c0-3.27-.09-6.54,0-9.8a4.51,4.51,0,0,0-2.94-4.56,24,24,0,0,0-7.13-1.74,34.27,34.27,0,0,0-13.37.85,15.37,15.37,0,0,0-2.78,1,4.38,4.38,0,0,0-2.78,4.49c.11,3.07,0,6.16,0,9.24,0,1.83-.8,2.84-2.23,2.86S81,171.69,81,169.8c0-3.17,0-6.34,0-9.52a8.43,8.43,0,0,1,4.42-7.72C88.07,150.93,91.09,150.42,94.33,149.87Z" transform="translate(-1.69 -1.69)"></path><path class="cls-3" d="M113.16,74.69a2.63,2.63,0,0,0-1.58.57,19.48,19.48,0,0,1-7,2.88c-2,.36-2.29,2-2.83,3.53-.3.83-.62,1.31-1.67,1.29s-1.51-.27-1.71-1.21a4.61,4.61,0,0,0-4.29-4,9.73,9.73,0,0,1-4.53-1.92,4.2,4.2,0,0,0-5.34-.19c-1.07.72-1.77.36-2.5-.5-.39-.45-.61-.8-.28-1.36.2-.32.27-.71.47-1a3.8,3.8,0,0,0-.25-4.7,11.48,11.48,0,0,1-2.08-4.93,4.42,4.42,0,0,0-3.82-4.09c-1-.2-1.33-.73-1.31-1.78a1.41,1.41,0,0,1,1.17-1.6c.59-.15,1.15-.42,1.73-.63a2.67,2.67,0,0,0,1.85-2.13,19.27,19.27,0,0,1,3-7.15c1.14-1.65.11-3-.51-4.36-.34-.77-.55-1.35.23-2.1S83.19,38.4,84,39a4.45,4.45,0,0,0,5.71-.26A9.23,9.23,0,0,1,94,36.92a4.59,4.59,0,0,0,4.31-4c.19-1,.74-1.19,1.7-1.2s1.48.34,1.67,1.25a4.51,4.51,0,0,0,4.2,3.89,9.47,9.47,0,0,1,4.42,1.83,4.49,4.49,0,0,0,5.72.21,1.43,1.43,0,0,1,2.07.3,1.46,1.46,0,0,1,.31,2.08,4.53,4.53,0,0,0,.2,5.72,11.13,11.13,0,0,1,2,5,4,4,0,0,0,3.19,3.48c.72.22,1.8.17,1.8,1.56,0,1.18-.31,1.84-1.49,2.08a4.24,4.24,0,0,0-3.62,3.94,10,10,0,0,1-1.86,4.56,4.49,4.49,0,0,0-.23,5.71c.56.87.35,1.49-.39,2.19a1.39,1.39,0,0,1-1.84.33A9,9,0,0,0,113.16,74.69Z" transform="translate(-1.69 -1.69)"></path><path class="cls-3" d="M153.77,134.36c3.13,0,4.82,1.48,5.15,4.63a8.72,8.72,0,0,1-2.08,7,3.83,3.83,0,0,1-6.15.05,8.8,8.8,0,0,1-1.77-8.75C149.5,135.3,151.28,134.36,153.77,134.36Z" transform="translate(-1.69 -1.69)"></path><path class="cls-3" d="M51.51,139.87a8.64,8.64,0,0,1-2.35,6.33,3.83,3.83,0,0,1-5.77,0,9.22,9.22,0,0,1-1.93-9c.84-2.16,2.83-3.15,5.73-2.85a4.5,4.5,0,0,1,4.23,4.06C51.49,139,51.49,139.49,51.51,139.87Z" transform="translate(-1.69 -1.69)"></path><path class="cls-3" d="M105.25,139.78a9.16,9.16,0,0,1-2,6c-1.94,2.32-4.62,2.35-6.54,0a8.82,8.82,0,0,1-1.69-8.14c.62-2.44,2.62-3.51,5.69-3.28a4.47,4.47,0,0,1,4.37,4.05C105.21,139,105.23,139.56,105.25,139.78Z" transform="translate(-1.69 -1.69)"></path><path class="cls-2" d="M100,42A15.34,15.34,0,1,1,84.67,57.32,15.34,15.34,0,0,1,100,42Z" transform="translate(-1.69 -1.69)"></path><path class="cls-3" d="M89.21,57.25A10.8,10.8,0,1,1,100,68.15,10.81,10.81,0,0,1,89.21,57.25Z" transform="translate(-1.69 -1.69)"></path></g></svg>