<svg xmlns="http://www.w3.org/2000/svg" viewBox="0 0 196.62 196.62"><defs><style>.cls-1{fill:#fff;stroke:#2c6eb5;stroke-miterlimit:10;stroke-width:3px;}.cls-2{fill:#fefefe;}.cls-3{fill:#fdfdfd;}.cls-4{fill:#f4822a;}.cls-5{fill:#fbfbfb;}</style></defs><g id="Background"><rect class="cls-1" x="1.5" y="1.5" width="193.62" height="193.62"></rect></g><g id="SOURCE_2:_PERSONAL_ABILITY" data-name="SOURCE 2: PERSONAL ABILITY"><path d="M115.33,145.17c0,3.87,0,7.47,0,11.08a1.5,1.5,0,0,0,.59,1.27c2.94,2.56,4,5.86,3.83,9.67,0,.95-.59.72-1.08.72H98.94c-5.79,0-11.59,0-17.39,0-.93,0-1.3-.1-1.31-1.21a11.34,11.34,0,0,1,4-9.34,1.11,1.11,0,0,0,.44-.92c0-3.69,0-7.37,0-11.25-3,2.22-5.92,4.35-8.82,6.44-.46.33-.3.68-.22,1.07.73,4.06-.66,7.47-3.86,9.46s-6.8,1.8-10.18-.71c-.61-.45-.95-.22-1.43,0a60.65,60.65,0,0,1-13.7,5.7,17,17,0,0,1-7.31.53,8.09,8.09,0,0,1-7-8.27c-.13-4.63,1.33-8.89,3.14-13,3.78-8.7,9-16.56,14.49-24.22,5.32-7.36,11-14.42,17-21.22.68-.77.7-1.23,0-2q-7-7.87-13.38-16.28a1.22,1.22,0,0,0-1.54-.59,8.6,8.6,0,0,1-9.48-3.49,8.48,8.48,0,0,1,.17-10c.51-.71.26-1.11-.08-1.65a87.33,87.33,0,0,1-8.64-17.16c-1.17-3.37-2.15-6.81-1.59-10.43.71-4.6,3.79-7.23,8.44-7.34s8.79,1.36,12.9,3.16c8.69,3.79,16.55,9,24.25,14.45.47.33.91,1.3,1.65.65s.37-1.48,0-2.25a6,6,0,0,1,1.15-7.5c.58-.58,1.15-1.17,1.74-1.74a6,6,0,0,1,7.29-1.09c1.76.88,2.49.57,3.14-1.33a6,6,0,0,1,5.94-4.35h2.47a6,6,0,0,1,6.06,4.38c.63,1.88,1.38,2.18,3.16,1.28a6,6,0,0,1,7.18,1c.59.57,1.17,1.16,1.74,1.74a6,6,0,0,1,1.22,7.61,2.26,2.26,0,0,0-.4,1.41c.14,1,.61,1.18,1.42.63,3-2,5.93-4.09,8.91-6.1a1,1,0,0,0,.49-1.22c-.79-4.25.83-7.84,4.33-9.72a8.51,8.51,0,0,1,10.39,1.69c.6.59,1,.36,1.53.13a37.14,37.14,0,0,1,9.69-2.75,13.37,13.37,0,0,1,4.76.22c3.75.89,6.08,3.93,6.23,8.13a26.09,26.09,0,0,1-2,10.25c-3.31,8.71-8.28,16.5-13.53,24.13a.41.41,0,0,1-.07.11c-1.2,1.21-1.37,2.31-.5,4,1.66,3.22,1,6.44-1.34,9.15a8.24,8.24,0,0,1-8.89,2.7,1.58,1.58,0,0,0-1.93.65c-2.1,2.53-4.21,5-6.39,7.5-.65.72-.7,1.14,0,1.9a265.7,265.7,0,0,1,18.23,22.88,1.2,1.2,0,0,0,1.45.57,8.68,8.68,0,0,1,8.8,13.81,1.35,1.35,0,0,0-.08,1.77c2.53,4.74,4.83,9.58,5.92,14.91a16.3,16.3,0,0,1,.35,5.3c-.57,4.79-3.66,7.59-8.52,7.72a28.23,28.23,0,0,1-11.5-2.63c-9.38-3.85-17.76-9.41-26-15.26C119.71,148.47,117.63,146.87,115.33,145.17Z" transform="translate(-1.69 -1.69)"></path><path class="cls-2" d="M70.48,103.35a2.12,2.12,0,0,1,1,2.12c0,2.46,0,4.93,0,7.39A6.37,6.37,0,0,0,75.17,119a1.17,1.17,0,0,1,.74,1.25c0,1.91,0,3.83,0,5.75a6.58,6.58,0,0,0,6.85,6.91c1.91,0,1.92,0,1.91,1.92,0,1.6.45,3.43-.18,4.73s-2.35,2.06-3.63,3c-2.33,1.75-4.7,3.45-7,5.21a1,1,0,0,1-1.5,0,8.68,8.68,0,0,0-13.73,8.67c.1.54.11.9-.49,1.21-4.78,2.47-9.57,4.88-15,5.71-5.22.8-7.49-1.54-6.56-6.8a41,41,0,0,1,3.84-10.91c4.89-10,11.27-19,18.05-27.8,3.65-4.73,7.49-9.31,11.42-13.81Z" transform="translate(-1.69 -1.69)"></path><path class="cls-2" d="M128.48,102.08c3.11,3.69,6,7,8.78,10.42q5.49,6.65,10.48,13.68a1.06,1.06,0,0,1,0,1.51,8.67,8.67,0,0,0,8.68,13.7c.55-.1.91-.08,1.21.51,2.46,4.77,4.88,9.56,5.71,15,.79,5.14-1.43,7.38-6.54,6.51-6.16-1-11.61-3.9-17-6.9A187.91,187.91,0,0,1,116,140.09a1.36,1.36,0,0,1-.67-1.21c0-1.74,0-3.47,0-5.2,0-.68.2-.85.84-.83a10,10,0,0,0,3-.21,6.55,6.55,0,0,0,4.93-6.16c0-2.1,0-4.2,0-6.3a1.18,1.18,0,0,1,.76-1.24,6.38,6.38,0,0,0,3.63-6.09C128.48,109.41,128.48,106,128.48,102.08Z" transform="translate(-1.69 -1.69)"></path><path class="cls-2" d="M71.66,97.92c-5.34-6-10.23-11.91-14.94-18-.55-.73,0-1,.24-1.52a8.32,8.32,0,0,0,.2-9.06,8.49,8.49,0,0,0-8-4.38,1.68,1.68,0,0,0-.68.07c-1.55.76-2.26-.08-3-1.33-3.35-5.75-6.63-11.52-8.36-18a16,16,0,0,1-.67-4.86c.12-3,1.52-4.32,4.46-4.36a23.57,23.57,0,0,1,9.12,2.11c8.78,3.5,16.58,8.69,24.28,14.06.52.37.53.62.24,1.2a10.67,10.67,0,0,0-.39,8.22,5.44,5.44,0,0,0,3.86,3.56c1.9.62,2.2,1.37,1.3,3.14A6,6,0,0,0,80.5,76c.53.56,1.1,1.07,1.72,1.67A29.62,29.62,0,0,0,71.66,97.92Z" transform="translate(-1.69 -1.69)"></path><path class="cls-2" d="M129.52,96.66a5.35,5.35,0,0,1-2-3.22,28.15,28.15,0,0,0-8.89-14.88c-.83-.73-.69-1,0-1.72,3.08-3,3.34-4.53,1.65-8.63a1.68,1.68,0,0,1,1.15-2.46c3.57-1.29,4.8-3.06,4.82-6.84,0-1.87.13-3.75-1.07-5.38-.35-.48.08-.66.36-.85,2.44-1.67,4.9-3.32,7.33-5a.86.86,0,0,1,1.19,0,8.26,8.26,0,0,0,9.48.79,8.45,8.45,0,0,0,4.58-8.37c0-.48-.07-.83.51-1.07,3.1-1.23,6.2-2.44,9.57-2.59,3.9-.17,5.47,1.4,5.26,5.32a29.4,29.4,0,0,1-2.95,10.32c-3.38,7.7-8,14.72-12.74,21.6a1,1,0,0,1-1.34.44,8.7,8.7,0,0,0-10,13c.28.45.49.74,0,1.26C134.15,91.15,131.85,93.92,129.52,96.66Z" transform="translate(-1.69 -1.69)"></path><path class="cls-2" d="M86.19,80.47c1.27,4.91,2.54,9.82,3.86,14.94l3.11-3.64.52.4c-.49,2.87-1,5.75-1.48,8.62-.31,1.8-.62,3.59-1,5.38a2.08,2.08,0,0,0,.44,1.77c2.57,3.37,5.13,6.75,7.62,10.18.63.87.89.63,1.4-.06,2.49-3.37,5-6.73,7.56-10a2.62,2.62,0,0,0,.39-2.3c-.8-4.51-1.58-9-2.42-13.87l3.61,3.88c1.39-5.35,2.66-10.29,4-15.26a4,4,0,0,1,1.77,1.23,24.42,24.42,0,0,1,8.5,18.42c.09,4.2,0,8.4,0,12.6,0,1.79-.8,2.6-2.57,2.62s-3.47-.06-5.2,0c-.92,0-1-.32-1-1.09,0-5.11,0-10.22,0-15.34,0-.83-.13-1.16-1.08-1.15-3.32,0-3.32,0-3.32,3.28,0,5.75,0,11.5,0,17.25,0,1.08-.17,1.45-1.37,1.44q-9.58-.1-19.16,0c-1.28,0-1.44-.39-1.43-1.51,0-6.38,0-12.77,0-19.16,0-.94-.1-1.34-1.22-1.31-3.18.08-3.18,0-3.18,3.15,0,4.38,0,8.76,0,13.14,0,1.14-.36,1.34-1.37,1.3-1.68-.08-3.37,0-5.06,0a2.11,2.11,0,0,1-2.34-2.14c.08-5.47-.45-11,.29-16.41a24.08,24.08,0,0,1,9.3-16,2.62,2.62,0,0,1,.34-.24A2.19,2.19,0,0,1,86.19,80.47Z" transform="translate(-1.69 -1.69)"></path><path class="cls-2" d="M97.8,157a11,11,0,0,0-8.63-2,2.71,2.71,0,0,1-.12-1.35c0-9.4,0-18.8,0-28.21,0-1,.22-1.35,1.31-1.34,6.53.06,13,0,19.58,0,.65,0,1.07,0,1.06.89,0,9.81,0,19.62,0,29.44a4.18,4.18,0,0,1-.09.55,10.93,10.93,0,0,0-8.45,1.87c-.41-.2-.21-.56-.21-.84,0-7.07,0-14.14,0-21.22a1.85,1.85,0,0,1,.67-1.67,8.09,8.09,0,0,0,.78-.77c2.57-2.57,2.56-2.56-.31-5-.44-.36-.65-.31-1,.05-1.37,1.4-2.76,2.79-4.17,4.15-.48.47-.33,1-.33,1.54q0,11.16,0,22.31Z" transform="translate(-1.69 -1.69)"></path><path class="cls-2" d="M117,45.13a2.71,2.71,0,0,1-.49,1.26,6,6,0,0,0,3.66,8.74,2.12,2.12,0,0,1,1.76,2.49,7,7,0,0,0,0,1.37c.17,1.48-.48,2.22-1.9,2.66a5.89,5.89,0,0,0-3.55,8.56,2.25,2.25,0,0,1-.53,3.23,8.93,8.93,0,0,0-1.07,1.06,2,2,0,0,1-2.78.45c-3.79-2-7.57-.4-8.9,3.7a2,2,0,0,1-2.3,1.64,6.93,6.93,0,0,0-1.51,0c-1.47.17-2.21-.48-2.66-1.91a5.88,5.88,0,0,0-8.56-3.54,2.26,2.26,0,0,1-3.22-.54,12.7,12.7,0,0,0-1.16-1.16,1.91,1.91,0,0,1-.42-2.57c2-4,.54-7.64-3.76-9.07a1.88,1.88,0,0,1-1.51-2.11c0-.36,0-.73,0-1.1,0-2.4,0-2.4,2.29-3.29a6.07,6.07,0,0,0,3.29-8.25c-1-2.08-1-2.08.69-3.74.32-.32.65-.64,1-1a1.69,1.69,0,0,1,2.34-.36,6.14,6.14,0,0,0,9.27-3.85,1.67,1.67,0,0,1,1.91-1.37h1.23c2.4,0,2.4,0,3.29,2.29A6.08,6.08,0,0,0,111.61,42c2.08-1,2.1-1,3.73.7C116,43.43,117,44,117,45.13Z" transform="translate(-1.69 -1.69)"></path><path class="cls-2" d="M104.15,105.59a1.06,1.06,0,0,1-.32,1c-1.12,1.5-2.25,3-3.34,4.49-.38.52-.61.52-1,0-1.09-1.51-2.21-3-3.35-4.48a1.63,1.63,0,0,1-.26-1.41q1.56-9,3.11-18c.1-.61.33-1.31.93-1.36s.92.62,1,1.23q1.59,9.14,3.16,18.28A2.26,2.26,0,0,1,104.15,105.59Z" transform="translate(-1.69 -1.69)"></path><path class="cls-2" d="M139.45,45.22a4.38,4.38,0,1,1,4.36-4.34A4.41,4.41,0,0,1,139.45,45.22Z" transform="translate(-1.69 -1.69)"></path><path class="cls-2" d="M49.65,78.08A4.38,4.38,0,1,1,54,73.73,4.4,4.4,0,0,1,49.65,78.08Z" transform="translate(-1.69 -1.69)"></path><path class="cls-2" d="M139.43,82.4a4.38,4.38,0,1,1,4.25,4.45A4.39,4.39,0,0,1,139.43,82.4Z" transform="translate(-1.69 -1.69)"></path><path class="cls-2" d="M159.14,132.92a4.38,4.38,0,1,1-4.25-4.44A4.42,4.42,0,0,1,159.14,132.92Z" transform="translate(-1.69 -1.69)"></path><path class="cls-2" d="M62.76,154.71A4.38,4.38,0,1,1,67,159.15,4.4,4.4,0,0,1,62.76,154.71Z" transform="translate(-1.69 -1.69)"></path><path class="cls-2" d="M85.17,163.43a6.44,6.44,0,0,1,12.13,0Z" transform="translate(-1.69 -1.69)"></path><path class="cls-2" d="M102.75,163.45a6.22,6.22,0,0,1,5.85-4.29,6.31,6.31,0,0,1,6.19,4.29Z" transform="translate(-1.69 -1.69)"></path><path class="cls-2" d="M84.66,124c0,1.19,0,2.38,0,3.56,0,.63,0,1-.85,1-2.87.05-3.54-.56-3.54-3.47,0-1.46,0-2.92,0-4.38,0-.8.25-1,1-1,3.41,0,3.41-.06,3.41,3.32Z" transform="translate(-1.69 -1.69)"></path><path class="cls-2" d="M115.33,124.11V123c0-3.62,0-3.61,3.69-3.31.53,0,.71.16.7.7,0,2,0,4,0,6a2,2,0,0,1-1.37,1.88,6,6,0,0,1-2.83.1c-.26,0-.15-.47-.15-.73C115.33,126.48,115.33,125.29,115.33,124.11Z" transform="translate(-1.69 -1.69)"></path><path class="cls-3" d="M92.42,87c-.7-2.65-1.32-5.07-2-7.48-.26-1,.16-1.14,1-.94a1.56,1.56,0,0,1,1.17,1.21A6.1,6.1,0,0,0,95,83.48c.59.4.25.63,0,.93C94.16,85.21,93.37,86,92.42,87Z" transform="translate(-1.69 -1.69)"></path><path class="cls-3" d="M107.53,87.16a11.3,11.3,0,0,0-.7-1c-.66-.69-1.64-1.25-2-2.06-.39-1,1.12-1.22,1.51-2a13.42,13.42,0,0,0,1-2.24,1.64,1.64,0,0,1,1.24-1.3c.72-.17,1.2-.07,1,.86C108.9,81.88,108.27,84.34,107.53,87.16Z" transform="translate(-1.69 -1.69)"></path><path class="cls-4" d="M115.33,58.33A15.34,15.34,0,1,1,100,43,15.38,15.38,0,0,1,115.33,58.33Z" transform="translate(-1.69 -1.69)"></path><path class="cls-2" d="M89.05,58.37a11,11,0,1,1,11,10.95A11,11,0,0,1,89.05,58.37Z" transform="translate(-1.69 -1.69)"></path><path class="cls-4" d="M100,51.8a6.57,6.57,0,1,1-6.61,6.45A6.59,6.59,0,0,1,100,51.8Z" transform="translate(-1.69 -1.69)"></path><path class="cls-5" d="M100,56.18a2.19,2.19,0,1,1-2.23,2.11A2.21,2.21,0,0,1,100,56.18Z" transform="translate(-1.69 -1.69)"></path></g></svg>