<svg xmlns="http://www.w3.org/2000/svg" viewBox="0 0 196.62 196.62"><defs><style>.cls-1{fill:#fff;stroke:#2c6eb5;stroke-miterlimit:10;stroke-width:3px;}.cls-2{fill:#fefefe;}.cls-3{fill:#f4822a;}</style></defs><g id="Background"><rect class="cls-1" x="1.5" y="1.5" width="193.62" height="193.62"></rect></g><g id="SOURCE_1:_PERSONAL_MOTIVATION" data-name="SOURCE 1: PERSONAL MOTIVATION"><path d="M98.05,170.09c-2.5-5.1-5-10.2-7.48-15.31a1.74,1.74,0,0,0-1.83-1.16c-10.58,0-21.16,0-31.74.06-1.11,0-1.43-.21-1.43-1.39.06-10.76,0-21.53.06-32.29a1.85,1.85,0,0,0-1.19-2c-5.33-2.65-10.63-5.38-15.93-8.09l-.88-.47L51,89c1.5-2.28,3.49-4.4,4.36-6.9s.53-5.3,1-8a53.38,53.38,0,1,1,85.63,51c-1,.79-1.16,1.32-.59,2.48,2.54,5.13,4.93,10.34,7.46,15.48.55,1.1.32,1.48-.71,2Q123.56,157.35,99,169.64a6.87,6.87,0,0,0-.65.45Z" transform="translate(-1.69 -1.69)"></path><path class="cls-2" d="M63.81,129.42c0-4.83,0-9.67,0-14.5a1.74,1.74,0,0,0-1.13-1.87c-4.08-2-8.1-4.14-12.17-6.15-.89-.44-1-.73-.42-1.55,4.38-6.6,8.71-13.24,13.06-19.86a3.71,3.71,0,0,0,.65-2.15,45.14,45.14,0,0,1,89.23-9.74c4.08,19.14-3.81,37.58-20.37,48.14-2.42,1.55-2.43,1.55-1.2,4.12,2.21,4.63,4.41,9.28,6.66,13.9.36.72.32,1-.45,1.39q-17.47,8.67-34.91,17.43c-.81.41-1.12.28-1.51-.53-1.82-3.81-3.76-7.57-5.55-11.4a1.89,1.89,0,0,0-2.07-1.24c-9.49,0-19,0-28.47.06-1.13,0-1.42-.26-1.41-1.4C63.86,139.19,63.81,134.3,63.81,129.42Z" transform="translate(-1.69 -1.69)"></path><path class="cls-3" d="M123.7,71c-2.08,0-3.85,0-5.61,0-.7,0-.94-.17-.92-.9,0-2.14,0-4.29,0-6.43,0-.71.18-.92.91-.92q9.36,0,18.74,0c.7,0,.92.18.91.91q0,9.38,0,18.74c0,.74-.22.92-.92.91-2.14,0-4.29,0-6.43,0-.75,0-.91-.24-.89-.93,0-1.76,0-3.52,0-5.34a2.62,2.62,0,0,0-1.23,1q-9.21,9.18-18.37,18.39c-.73.74-1.11.8-1.88,0-3.46-3.56-7-7-10.5-10.59-.74-.77-1.1-.66-1.79,0-6.62,6.67-13.29,13.28-19.89,20-.78.79-1.18.74-1.88,0-1.33-1.45-2.74-2.81-4.16-4.17-.5-.48-.68-.78-.08-1.38Q82.92,87.15,96,74c.69-.69.95-.23,1.37.19,3.55,3.55,7.11,7.08,10.63,10.65.65.66,1,.88,1.79.09C114.34,80.29,118.91,75.77,123.7,71Z" transform="translate(-1.69 -1.69)"></path></g></svg>