<svg xmlns="http://www.w3.org/2000/svg" viewBox="0 0 196.62 196.62"><defs><style>.cls-1{fill:#fff;stroke:#2c6eb5;stroke-miterlimit:10;stroke-width:3px;}.cls-2{fill:#161616;}.cls-3{fill:#191919;}.cls-4{fill:#fefefe;}.cls-5{fill:#f4822a;}</style></defs><g id="Background"><rect class="cls-1" x="1.5" y="1.5" width="193.62" height="193.62"></rect></g><g id="SOURCE_3:_SOCIAL_MOTIVATION" data-name="SOURCE 3: SOCIAL MOTIVATION"><path d="M82.93,170.1c-8.05-.94-14.15-5-18.6-11.66A23.41,23.41,0,0,1,60.49,148c-.1-.86-.43-1.12-1.3-1.1-3.34.05-6.68,0-10,0-.77,0-1.07.24-1.34,1a9.38,9.38,0,0,1-10.45,5.89,9.35,9.35,0,0,1,0-18.39,9.27,9.27,0,0,1,10.44,5.87,1.27,1.27,0,0,0,1.46,1c3.29,0,6.59,0,9.89,0,.86,0,1.21-.22,1.31-1.09a25.72,25.72,0,0,1,20.28-21.85c10.69-2.27,21.26,2.42,27.31,12,.1.15.22.29.38.5,3-2.22,5.9-4.45,8.88-6.63.72-.52.33-1,.19-1.55a25.85,25.85,0,0,1,17.24-31.87l.65-.2c.09,0,.17-.08.38-.18l-3.51-4.68c-2.14-2.85-4.29-5.7-6.41-8.57-.38-.52-.62-.66-1.28-.3-15.51,8.51-33.61.5-38-16.79,0-.2-.09-.41-.18-.85L84.34,62c-2.71,2.32-5.41,4.65-8.15,6.95-.54.45-.73.75-.22,1.41a24.5,24.5,0,0,1,5.19,13.61,2,2,0,0,0,1,1.53c3.72,2.89,7.45,5.77,11.13,8.71a1.59,1.59,0,0,0,2.13.11,9.3,9.3,0,0,1,13.47,11,9.31,9.31,0,0,1-17.82-5.4,1.65,1.65,0,0,0-.69-2.15c-3.11-2.34-6.16-4.75-9.23-7.14a1.19,1.19,0,0,0-.24,0,25.5,25.5,0,0,1-3.51,8.9c-5.77,8.67-13.82,13-24.28,12.06-10.11-.92-17.35-6.37-21.29-15.6S29.25,77.71,35.5,69.76a24.48,24.48,0,0,1,16.4-9.31c1-.14,1.3-.41,1.28-1.43-.08-3.3,0-6.6,0-9.89a1.2,1.2,0,0,0-.94-1.37A9.34,9.34,0,0,1,46.3,37.34a9.35,9.35,0,0,1,18.39-.05,9.25,9.25,0,0,1-6,10.5,1.11,1.11,0,0,0-.89,1.26c0,3.38,0,6.77,0,10.16,0,.84.3,1.11,1.07,1.2a24.46,24.46,0,0,1,12.46,5.25c.65.51,1,.41,1.58-.09C77,62,81.19,58.47,85.34,55a2,2,0,0,0,.76-1.5,25.76,25.76,0,0,1,51-2.77,1.48,1.48,0,0,0,.94,1.19q8.09,3.89,16.15,7.79a1.16,1.16,0,0,0,1.36,0,9.34,9.34,0,0,1,14.65,5.81,2.69,2.69,0,0,0,.2.51v2.74c-1.07,5.73-5.47,8.88-11.21,8a9.74,9.74,0,0,1-7.83-8.9,6.38,6.38,0,0,1,.06-2.05c.45-1.39-.27-1.92-1.38-2.48-3.63-1.84-7.36-3.48-11-5.34-.77-.4-1.2-.48-1.33.63a25.91,25.91,0,0,1-7.2,15.1c-.79.82-.68,1.38-.05,2.21q5,6.61,10,13.29a2.63,2.63,0,0,0,2.31,1.17,26.11,26.11,0,0,1,3.22,52c-10.71,1.4-19.12-2.66-25.4-11.34-.9-1.24-.88-1.26-2.06-.37-2.16,1.62-4.3,3.27-6.49,4.85a1.77,1.77,0,0,0-.81,2.32c.73,2,.68,4.24,1,6.36a2,2,0,0,0,1.17,1.71c5,2.29,9.9,4.75,14.85,7.14a2,2,0,0,0,2-.26c3.93-2.19,8-1.94,11.36,1a9.65,9.65,0,0,1-2.45,16.18c-.8.37-1.72.16-2.53.48h-2.74c-6-1.12-9-5.24-8.07-11.44a1.34,1.34,0,0,0-.92-1.6c-4.25-1.92-8.38-4.11-12.63-6-.87-.39-1,.08-1.19.71A26.43,26.43,0,0,1,95,169.1a15.23,15.23,0,0,1-6,1.09,5.54,5.54,0,0,0-1.86.14H85C84.31,170,83.58,170.36,82.93,170.1Z" transform="translate(-1.69 -1.69)"></path><path class="cls-2" d="M82.93,170.1c.68,0,1.39-.27,2,.23H83A.48.48,0,0,1,82.93,170.1Z" transform="translate(-1.69 -1.69)"></path><path class="cls-3" d="M89.14,170.09a.34.34,0,0,0-.07.24H87.15C87.76,169.83,88.46,170.07,89.14,170.09Z" transform="translate(-1.69 -1.69)"></path><path class="cls-4" d="M100.14,160.08a26.38,26.38,0,0,0-.23-2.72,7,7,0,0,0-6.64-5.7c-4.62-.11-9.24-.1-13.86,0s-7.32,2.91-7.47,7.38c0,.3,0,.61,0,1-4.73-3.48-8.5-11.95-6.48-20.25a21.09,21.09,0,0,1,40.08-3.07C108.84,144.71,106.57,154.7,100.14,160.08Z" transform="translate(-1.69 -1.69)"></path><path class="cls-4" d="M41.47,101.44c-5.08-4-8.87-12.83-6.13-21.69a21.09,21.09,0,0,1,40.21-.39c2.76,8.38-.15,17.23-5.82,22-.31-.25-.14-.59-.15-.88-.08-4.2-2.54-7.09-6.71-7.38a110.23,110.23,0,0,0-14.54,0c-4.31.26-6.74,3.07-6.86,7.37C41.46,100.7,41.47,101,41.47,101.44Z" transform="translate(-1.69 -1.69)"></path><path class="cls-4" d="M156.35,131.9c.13-3.45-1-6.07-4-7.67a6.84,6.84,0,0,0-3.17-.77c-4.63,0-9.25-.17-13.87,0-4.36.19-6.89,3-7.13,7.32,0,.32,0,.64-.05,1-4.67-3.44-8.47-12-6.34-20.46a21.09,21.09,0,0,1,40.33-2C165,117.16,162.49,127.22,156.35,131.9Z" transform="translate(-1.69 -1.69)"></path><path class="cls-4" d="M125.87,71c.14-3.47-1-6.09-4-7.68a6.68,6.68,0,0,0-3.17-.76c-4.62,0-9.25-.16-13.86,0-4.39.18-6.88,2.91-7.13,7.3,0,.31,0,.63,0,1-4.8-3.56-8.42-12.07-6.38-20.33a21.08,21.08,0,0,1,40.35-2.17C134.66,56.78,131.79,66,125.87,71Z" transform="translate(-1.69 -1.69)"></path><path class="cls-4" d="M142.26,128.12c2.06,0,4.12,0,6.18,0,2.32,0,3.2.95,3.22,3.28v1.37c0,2.66,0,2.65-2.61,3.52a21.2,21.2,0,0,1-15.22-.6c-.66-.28-1-.6-1-1.41.08-1,0-2.1,0-3.15.05-2.07.93-3,3.06-3S140.16,128.12,142.26,128.12Z" transform="translate(-1.69 -1.69)"></path><path class="cls-4" d="M55.6,97.64c2.06,0,4.12,0,6.18,0,2.26,0,3.1.94,3.11,3.22v1.78c0,2.2,0,2.23-2,3A21.23,21.23,0,0,1,47,105.17a1.17,1.17,0,0,1-.86-1.31c.07-1.14,0-2.29,0-3.44a2.45,2.45,0,0,1,2.71-2.74c2.24-.09,4.48,0,6.73,0Z" transform="translate(-1.69 -1.69)"></path><path class="cls-4" d="M86.05,156.29c2.1,0,4.2,0,6.3,0s3,.91,3,3c0,.5,0,1,0,1.51,0,2.75,0,2.78-2.59,3.63a21.15,21.15,0,0,1-15.18-.6,1.31,1.31,0,0,1-1-1.5c.07-1,0-2,0-3,0-2.12.87-3,3-3S83.9,156.29,86.05,156.29Z" transform="translate(-1.69 -1.69)"></path><path class="cls-4" d="M111.81,76.41a20.26,20.26,0,0,1-8.54-1.72,1.18,1.18,0,0,1-.87-1.32c.06-1.19,0-2.38,0-3.57a2.33,2.33,0,0,1,2.45-2.56q6.93-.09,13.86,0c1.55,0,2.35,1,2.44,2.6,0,.73,0,1.46,0,2.19,0,2.37,0,2.4-2.17,3.17A19.36,19.36,0,0,1,111.81,76.41Z" transform="translate(-1.69 -1.69)"></path><path class="cls-4" d="M43.74,144.67a4.58,4.58,0,0,1-4.8,4.52,4.69,4.69,0,0,1-4.53-4.71,4.76,4.76,0,0,1,4.78-4.63A4.67,4.67,0,0,1,43.74,144.67Z" transform="translate(-1.69 -1.69)"></path><path class="cls-4" d="M55.48,43.68A4.59,4.59,0,0,1,50.86,39a4.69,4.69,0,0,1,4.62-4.62A4.75,4.75,0,0,1,60.2,39,4.67,4.67,0,0,1,55.48,43.68Z" transform="translate(-1.69 -1.69)"></path><path class="cls-4" d="M104.73,102.36a4.67,4.67,0,1,1-4.58-4.68A4.7,4.7,0,0,1,104.73,102.36Z" transform="translate(-1.69 -1.69)"></path><path class="cls-4" d="M135.26,156.3A4.65,4.65,0,0,1,139.9,161a4.67,4.67,0,0,1-9.34-.06A4.66,4.66,0,0,1,135.26,156.3Z" transform="translate(-1.69 -1.69)"></path><path class="cls-4" d="M156.36,67.14a4.68,4.68,0,0,1,9.35.06,4.73,4.73,0,0,1-4.65,4.65A4.68,4.68,0,0,1,156.36,67.14Z" transform="translate(-1.69 -1.69)"></path><path class="cls-5" d="M86.6,128.21a9.27,9.27,0,0,1,8.72,9.88c-.4,5.2-4.92,9.2-9.73,8.75-5.74-.53-9.4-4.87-8.87-10.53A9.34,9.34,0,0,1,86.6,128.21Z" transform="translate(-1.69 -1.69)"></path><path class="cls-5" d="M55.51,88.24a9.36,9.36,0,1,1,.07-18.72,9.36,9.36,0,0,1-.07,18.72Z" transform="translate(-1.69 -1.69)"></path><path class="cls-5" d="M132.91,109.23a9.37,9.37,0,1,1,9,9.47A9.41,9.41,0,0,1,132.91,109.23Z" transform="translate(-1.69 -1.69)"></path><path class="cls-5" d="M111.59,57.75a9.31,9.31,0,0,1-9.14-9.49A9.41,9.41,0,0,1,111.91,39a9.52,9.52,0,0,1,9.26,9.48A9.41,9.41,0,0,1,111.59,57.75Z" transform="translate(-1.69 -1.69)"></path><path class="cls-4" d="M81.34,137.55A4.64,4.64,0,0,1,86,132.84a4.68,4.68,0,0,1,.07,9.35A4.67,4.67,0,0,1,81.34,137.55Z" transform="translate(-1.69 -1.69)"></path><path class="cls-4" d="M55.51,83.55a4.61,4.61,0,0,1-4.65-4.7,4.67,4.67,0,1,1,4.65,4.7Z" transform="translate(-1.69 -1.69)"></path><path class="cls-4" d="M142.27,114a4.61,4.61,0,0,1-4.66-4.68,4.68,4.68,0,0,1,4.58-4.67,4.76,4.76,0,0,1,4.76,4.65A4.7,4.7,0,0,1,142.27,114Z" transform="translate(-1.69 -1.69)"></path><path class="cls-4" d="M111.79,53.07a4.61,4.61,0,0,1-4.66-4.68,4.7,4.7,0,0,1,4.58-4.67,4.76,4.76,0,0,1,4.77,4.65A4.7,4.7,0,0,1,111.79,53.07Z" transform="translate(-1.69 -1.69)"></path></g></svg>