<svg xmlns="http://www.w3.org/2000/svg" id="Layer_1" data-name="Layer 1" viewBox="0 0 204.68 42.67"><defs><style>.cls-1{fill:#689cae;}</style></defs><path class="cls-1" d="M26.6,0C11.68,0,0,6.37,0,14.49V28.18c0,8.13,11.68,14.49,26.6,14.49s26.6-6.36,26.6-14.49V14.49C53.2,6.37,41.52,0,26.6,0ZM3,14.49C3,8.26,13.81,3,26.6,3S50.2,8.26,50.2,14.49a7,7,0,0,1-2.33,4.9c-5-3.59-12.8-5.7-21.27-5.7-10.39,0-19.2,3.09-23.6,7.7Zm42.41,6.85C41.05,24.14,34.18,26,26.6,26c-7.35,0-14.33-1.75-18.8-4.65,4.35-2.8,11.23-4.64,18.8-4.64C34,16.69,40.93,18.44,45.41,21.34Zm4.79,6.84c0,6.23-10.81,11.49-23.6,11.49S3,34.41,3,28.18a7,7,0,0,1,2.33-4.89c5,3.58,12.8,5.69,21.27,5.69C37,29,45.8,25.9,50.2,21.28Z"></path><path d="M70.48,13.64H67.35V12h8.14v1.6H72.36V28.43H70.48Z"></path><path d="M77.33,12H79.1v5.58h0a2.61,2.61,0,0,1,2.46-1.47,2.1,2.1,0,0,1,2.2,2.21V28.43H82V19.1c0-.92-.41-1.45-1.26-1.45S79.1,18.8,79.1,19.9v8.53H77.33Z"></path><path d="M86.05,25.23V19.65a3.18,3.18,0,0,1,3.31-3.5c2,0,3,1.31,3,3.24v3.54H87.84V25c0,1.43.53,2.16,1.93,2.16a5.49,5.49,0,0,0,2.07-.48L92.26,28a5.59,5.59,0,0,1-2.78.71A3.09,3.09,0,0,1,86.05,25.23Zm4.69-3.65V19.3c0-.83-.34-1.68-1.45-1.68s-1.45.88-1.45,1.73v2.23Z"></path><path d="M97.94,12h3.68c2.64,0,3.7,1.93,3.7,4.76,0,3-1.22,5-3.86,5H99.85v6.62H97.94Zm3.31,8.18c1.52,0,2.21-1.19,2.21-3.4,0-1.84-.53-3.15-2.09-3.15H99.85v6.55Z"></path><path d="M106.93,25.3V19.46a3.13,3.13,0,0,1,3.34-3.31,3,3,0,0,1,3.28,3.22v5.91a3.1,3.1,0,0,1-3.33,3.38A3,3,0,0,1,106.93,25.3Zm4.83.1v-6a1.53,1.53,0,0,0-1.54-1.73c-1.08,0-1.49.83-1.49,1.75v6c0,.92.43,1.77,1.54,1.77S111.76,26.29,111.76,25.4Z"></path><path d="M115,16.38h1.86l1.22,8.44h.07l1.45-8.44h1.75l1.47,8.44h.07l1.21-8.44h1.66l-2.12,12.07h-1.6l-1.59-8.94h-.07l-1.61,8.94h-1.66Z"></path><path d="M127.2,25.23V19.65a3.18,3.18,0,0,1,3.31-3.5c2,0,3,1.31,3,3.24v3.54H129V25c0,1.43.53,2.16,1.93,2.16a5.54,5.54,0,0,0,2.07-.48L133.4,28a5.54,5.54,0,0,1-2.78.71A3.09,3.09,0,0,1,127.2,25.23Zm4.69-3.65V19.3c0-.83-.35-1.68-1.45-1.68S129,18.5,129,19.35v2.23Z"></path><path d="M135.8,16.38h1.74v1.36h0a2.19,2.19,0,0,1,2.09-1.45,2.52,2.52,0,0,1,.62.05v1.72c-.3,0-.64-.07-.83-.07a1.74,1.74,0,0,0-1.88,1.86v8.58H135.8Z"></path><path d="M145,25.3V19.46a3.13,3.13,0,0,1,3.34-3.31,3,3,0,0,1,3.29,3.22v5.91a3.1,3.1,0,0,1-3.34,3.38A3,3,0,0,1,145,25.3Zm4.83.1v-6a1.53,1.53,0,0,0-1.54-1.73c-1.08,0-1.49.83-1.49,1.75v6c0,.92.43,1.77,1.54,1.77S149.87,26.29,149.87,25.4Z"></path><path d="M154.68,17.85h-1.2V16.43h1.2V14.15A2.19,2.19,0,0,1,157,11.83a4,4,0,0,1,1.18.14v1.35a5.15,5.15,0,0,0-.83-.07.92.92,0,0,0-.94,1v2.14h1.51v1.42h-1.51V28.43h-1.75Z"></path><path d="M163.21,12h1.91v7.12h4.07V12h1.89V28.43h-1.89V20.91h-4.07v7.52h-1.91Z"></path><path d="M173.24,25a3.61,3.61,0,0,1,3.61-3.89h1V18.82a1.18,1.18,0,0,0-1.34-1.24c-.85,0-1.35.43-1.35,1.22V20h-1.64V18.77c0-1.56,1.22-2.62,3.15-2.62s3,1,3,2.67v6.69c0,.87.07,2.42.09,2.92h-1.61c0-.18-.07-.78-.07-1.31h-.07a2.41,2.41,0,0,1-2.21,1.52C174.37,28.64,173.24,27.53,173.24,25Zm4.58.23v-3h-.92c-.92,0-1.87.62-1.87,2.51,0,1.7.51,2.39,1.25,2.39A1.81,1.81,0,0,0,177.82,25.26Z"></path><path d="M183.8,27.28h0l0,1.15h-1.59V12h1.77v5.49H184a2.56,2.56,0,0,1,2.25-1.4,2.35,2.35,0,0,1,2.44,2.55v7.18a2.61,2.61,0,0,1-2.74,2.78A2.25,2.25,0,0,1,183.8,27.28Zm3.08-1.61V19.12c0-.83-.37-1.47-1.34-1.47s-1.63,1-1.63,2.25v5.15a2,2,0,0,0,1.66,2.12C186.39,27.17,186.88,26.68,186.88,25.67Z"></path><path d="M191,11.81h1.77v2.55H191Zm0,4.57h1.77V28.43H191Z"></path><path d="M196,26.71V17.9h-1.2V16.43H196V13.69h1.75v2.74h1.91V17.9h-1.91v8.3c0,.6.23.83.73.83a3.21,3.21,0,0,0,1-.16v1.45a4.6,4.6,0,0,1-1.47.27A1.78,1.78,0,0,1,196,26.71Z"></path><path d="M201.92,12.14h-.48v-.33h1.35v.33h-.48v2.21h-.39Zm1.11-.33h.47l.36,1.1.35-1.1h.47v2.54h-.37V12.5l-.32,1h-.28l-.33-1v1.85H203Z"></path></svg>