<svg xmlns="http://www.w3.org/2000/svg" id="Layer_1" data-name="Layer 1" viewBox="0 0 911.77 966.3"><defs><style>.cls-1{fill:#fefefe;}.cls-2{fill:#f58741;}</style></defs><path d="M829.62,56.07c27.68,6.12,52.72,19.07,78.44,30.29,14,6.11,28.16,9.63,43.86,5.82,12.08-2.93,22.37,3.68,26.59,15.71,37.56,107.2,19.84,231.28-75.84,316.17-12.24,10.86-25,21.08-38.83,29.79-4.58,2.88-5.53,5.41-3.77,10.5q45.6,132.21-1.8,263.87c-1.75,4.87-1,7.84,2.74,11.32,7.86,7.22,15.35,14.87,22.72,22.61,12.15,12.74,12.27,28.55-.13,41.1q-40.46,40.9-81.38,81.35c-7.25,7.19-15.55,7.45-21.51,1.23s-5.38-14.11,2-21.53c25.28-25.4,50.52-50.85,76.13-75.92,4.85-4.75,4.44-7.11-.16-11.6q-32.06-31.31-63.38-63.34c-3.63-3.7-5.46-4.07-9.34-.18Q685.14,814.51,583.9,915.35c-3.64,3.63-3.32,5.52.06,8.86,21.7,21.43,43.38,42.88,64.65,64.73,4.45,4.57,6.42,3.21,10.06-.48,23.42-23.71,47.05-47.21,70.61-70.78,1.56-1.55,3-3.19,4.7-4.62,6.73-5.79,14.58-5.72,20.2.1,5.29,5.48,5.72,13.55-.13,19.46-27.41,27.71-54.81,55.45-82.82,82.55-10.94,10.58-26.4,9.18-38.11-2.07s-23.3-23-34.67-34.69c-3.57-3.68-6.55-5.16-12.11-3.74q-97.32,24.92-194.78.07c-4.82-1.23-7.89-.71-11.44,3-10.82,11.39-22,22.41-33.25,33.44-14.77,14.55-29.91,14.67-44.41.19Q199,908.09,95.71,804.65C81.58,790.51,81.56,775,95.43,760.9c6.85-6.93,13.58-14,20.75-20.59,4.19-3.85,5.1-7.07,3.1-12.88-39.93-115.88-31-228,31.56-333.48,60.75-102.44,151.29-165,268.73-187,72.06-13.49,142.54-6.37,211,20,1.72.66,3.53,1.07,6.1,1.84,0-18.71-.16-36.8,2.21-54.79a318.86,318.86,0,0,1,15.64-65.76c4.42-12.37,14.91-19,27.36-16,14.67,3.62,28,.51,41.21-5C740.74,79.84,758,71.7,775.74,64.54,784.59,61,794,58.85,803.2,56.07Z" transform="translate(-85.07 -56.07)"></path><path class="cls-1" d="M514.19,783.24a98,98,0,0,1,41.14-5.49c24.9,1.75,49.63,1.83,73.19-8.23a134.69,134.69,0,0,0,16-7.76c7.29-4.35,9.27-11.69,5.71-18.6S639,733.06,631.92,737c-24.19,13.64-50.15,14.1-76.83,12.48-37.65-2.29-70.52,9.76-97.59,36.19Q421.41,821,386.2,857.09c-4.47,4.56-6.7,4-10.88-.17Q307.87,789,240,721.57c-3.68-3.66-4.28-5.63-.24-9.44,10.51-9.93,20.66-20.23,30.71-30.63,3.09-3.2,5.46-3.47,9.73-1.8,31.52,12.3,60.49-.36,73.57-32.16,1.64-4,2.52-4.35,6.43-2.95,33.66,12.07,61.58-.39,74.44-33.42,1.82-4.68,3.39-4.55,7.34-3.26,38.55,12.59,77.17-19.78,70.93-59.77-.73-4.66.41-6.2,5.3-7.42,42.5-10.66,56.54-60.21,26.3-92l-.66-.68c-6.4-6.49-17.71-12.81-17.92-19.49-.24-7.76,11.58-13.63,18.07-20.41,8-8.4,16.23-16.67,24.68-24.65,11.48-10.84,26.51-11.17,37.25-1.21,10.5,9.74,11.36,24.15,2.17,36.54-6.69,9-7,16-1.06,21.76s12.31,5.33,21.76-1.69c11.29-8.4,25.73-7.8,35.24,1.46,9.81,9.55,10.53,24.08,1.77,35.93-6.95,9.42-7.35,15.77-1.37,21.77,5.82,5.82,12.76,5.37,21.82-1.43,11.86-8.9,26.08-8.18,35.86,1.82,9.46,9.68,10.1,23.59,1.61,35.2-1.48,2-3.45,3.84-4.37,6.09-2.66,6.44-1.77,12.47,3.92,16.93,6.42,5,12.63,3.82,18.88-.94,13.89-10.57,28.8-9.87,38.62,1.5,9.48,11,8.08,26.83-3.91,38.91q-46.2,46.49-92.64,92.72c-2,2-4.06,3.94-6,6-6.49,7.09-6.75,15-.76,20.88s13.76,5.57,20.91-1.22c6.61-6.28,13.15-12.64,19.3-19.36,3.43-3.74,5.66-3.74,8.86.12,5.55,6.67,16.54,11.57,16.62,19.06.06,5.81-10,11.84-15.78,17.6-42,42-84.1,83.92-125.86,126.17-5.27,5.33-7.87,5-12.88-.13C564.28,833.08,539.5,808.58,514.19,783.24Z" transform="translate(-85.07 -56.07)"></path><path class="cls-1" d="M833.72,713.33c-8.18-8.65-14.84-16.13-22-23.13-13.27-13.05-28-13.51-41.56-.67-4.59,4.35-6.72,3.41-10.23-.56-5.39-6.09-15.13-11.39-15.78-17.77-.67-6.6,9.73-11.85,15.35-17.6,12.74-13.05,25.87-25.71,38.59-38.78,16.67-17.13,21.69-37.59,13.46-59.86-8-21.67-24.69-33.47-48-34.86-4.49-.27-5.46-1.62-5.83-6-2.43-29-21.42-48.49-50.41-51.85-4.68-.54-6.86-1.12-7.46-6.66-3.16-29.65-21.69-48-51.15-50.68-5.15-.47-5.75-2.26-6.18-6.75-3.75-39.43-41.29-61.74-77.59-46-4.74,2.05-6.89,1-10.09-2.39-10.35-11.05-23.29-16.85-38.54-16.9q-36.8-.12-73.57,0c-5.71,0-11.36.76-16.32,3.81-3.4,2.09-6.84,2.36-10.74,2.16-32-1.59-55.59,18.46-59,50.49-.55,5.13-1.8,6.35-6.91,6.81-28.09,2.52-48.26,22.82-50.48,50.58-.39,4.92-1.46,6.82-6.86,7.32-35.78,3.3-58,34.16-49.12,68.65,1.68,6.53-.08,7.47-5.47,9.37-37.6,13.31-48.79,60.06-21.43,89.33,10.52,11.24,21.59,22,32.64,32.71,3.39,3.3,3.89,5.33.13,8.89-10.05,9.5-19.77,19.36-29.37,29.32-3.2,3.32-5.06,3.93-8.88.34-18.2-17.09-30.61-16.69-48.29,1.13-6,6-11.57,12.28-18.34,19.51a316,316,0,0,1-18-78.35c-10.94-113,21.1-212.42,100.35-294,86.52-89,193.07-124.11,316.27-108,31.29,4.1,61.18,13.31,90.27,25.39,5.1,2.12,7.53,5,8.67,10.64,19.39,96.62,78.91,161.51,163.71,206.29,7.16,3.78,14.51,4.11,21.61.18,4.49-2.48,6.44-2.53,8.31,3.21,16.71,51.26,22.28,103.62,16.12,157.16A349.34,349.34,0,0,1,833.72,713.33Z" transform="translate(-85.07 -56.07)"></path><path class="cls-1" d="M968.59,218c-1,90.3-43.54,162.3-122,213.1-37,23.95-22.86,23.79-59.89.1C723,390.45,681,333.77,668.44,257.84a274.87,274.87,0,0,1,9.85-131.16c1-3.11,1.23-5.81,6-5.1,20.75,3.12,39.65-3.5,58.16-11.76,12.3-5.49,24.65-10.85,36.88-16.49,24.87-11.46,49.49-11.12,74.58-.15,18.91,8.27,37.21,18,56.94,24.4,11.5,3.73,23.26,6.13,35.21,4.22,6.24-1,8.1,1.18,9.68,6.43C964.07,156.09,968.35,184.53,968.59,218Z" transform="translate(-85.07 -56.07)"></path><path class="cls-1" d="M186.52,708.53c2.79,2.56,4.86,4.33,6.79,6.25q86,86,172.06,172.05c9.33,9.33,18.41,18.95,28.11,27.88,4.51,4.15,3.8,6.3-.18,10.2q-32,31.38-63.33,63.37c-4.25,4.34-6.44,4.52-10.84.07q-62.74-63.3-125.93-126.16c-24.45-24.45-48.78-49-73.44-73.27-4.61-4.54-6-6.95-.44-12.3,21.31-20.47,42-41.61,62.83-62.54A62.66,62.66,0,0,0,186.52,708.53Z" transform="translate(-85.07 -56.07)"></path><path class="cls-1" d="M569,949.79c-53.66,12-106.41,11.85-160.24,0,3.86-4.1,7.4-7.55,10.59-11.29,9.81-11.52,9.77-26.36-.25-37.65a192.19,192.19,0,0,0-13.93-14c-3.35-3.07-4.2-5-.35-8.82q37.32-36.65,74.06-73.88c6.45-6.57,10.31-6.35,16.84.44,24,24.91,48.5,49.25,73.27,73.35,5.48,5.34,4.78,8-.25,13C544.85,914.4,544.92,922.27,569,949.79Z" transform="translate(-85.07 -56.07)"></path><path class="cls-1" d="M355.26,424.17c6.37.35,12.77,3.29,18.1,8.62,34.45,34.46,69,68.83,103.3,103.44,11.27,11.37,11.48,27.47,1.25,38.06-10.58,11-27,11.09-38.72-.51q-51.93-51.43-103.4-103.35c-8.61-8.64-10.89-18.91-6.24-30.26C333.59,430.3,343.64,424,355.26,424.17Z" transform="translate(-85.07 -56.07)"></path><path class="cls-1" d="M297.82,482.07c6.39-.18,12.66,3.12,18,8.41,28.23,28.17,56.56,56.26,84.58,84.66,11.54,11.7,11.39,28.14.43,38.66-10.58,10.17-26.72,9.94-38.06-1.26Q320.18,570.48,278.08,528c-8.55-8.6-11-18.84-6.32-30.23C275.77,488,285.65,481.93,297.82,482.07Z" transform="translate(-85.07 -56.07)"></path><path class="cls-1" d="M406.11,367.68c.45,8.76-.17,17,1.76,25,7.05,29.16,31.79,50.95,61.9,49.16,22.25-1.32,37.63,5.92,50.62,22.55,4.23,5.43,9.79,9.88,11.11,17.07,2,11.11-.76,20.68-10.22,27.43-9.06,6.46-18.8,6.33-28.45,1.41a33.74,33.74,0,0,1-8.18-6.27C454.37,473.86,424,443.78,394,413.33,377.63,396.7,383.53,373.8,406.11,367.68Z" transform="translate(-85.07 -56.07)"></path><path class="cls-1" d="M328.37,629.88c-.2,10.69-5.1,18.72-14.6,23.41-9.85,4.87-20.16,4.33-28.13-3.17-17.13-16.13-33.85-32.73-49.93-49.91-9.32-10-8-25.4,1.37-35,9.18-9.48,25.11-11.42,35-2.28,17.5,16.17,34,33.42,50.71,50.44C327.11,617.75,328.55,623.67,328.37,629.88Z" transform="translate(-85.07 -56.07)"></path><path class="cls-1" d="M481,361.09c10.67,0,21.34,0,32,0,4.38,0,8.7.19,12.88,2.06,12.43,5.52,13.35,9.51,4.07,18.8-5.54,5.55-12.06,10.42-16.46,16.77-13.62,19.7-33,18.13-52.06,13.77-23.29-5.33-29.19-25.89-26.37-45.34.82-5.63,5.53-6.08,10.16-6.08Q463.12,361.11,481,361.09Z" transform="translate(-85.07 -56.07)"></path><path class="cls-2" d="M817.39,135.3c47.1-3,95.62,34.45,106.83,78,2.08,8.1-1.44,16.76-8.81,19.68-7.09,2.8-16.7-1.8-19.7-9.92-7.19-19.46-18.47-35.33-36.68-46.23-28.29-16.94-66.93-15.15-93.8,6.48-19.43,15.63-29.3,36-31.4,59.63-1.77,19.84,5,38.3,17.29,54.48a81.77,81.77,0,0,0,140.64-16c4.82-10.56,12-14.78,20.94-11.13,9.24,3.78,12.3,13,7.52,23.34-15.93,34.29-42.28,56.4-79.22,64.1-38.54,8-73.64-1.12-102.48-28.13-19.18-18-30.06-40.8-33.69-67.49-4.87-35.79,5.9-66.57,29.46-92.14C756.11,146.27,784.32,134,817.39,135.3Z" transform="translate(-85.07 -56.07)"></path><path class="cls-2" d="M769.15,222.18c6.16-.9,10.74,1.87,14.87,6.13,7.21,7.44,14.81,14.5,21.85,22.08,3.6,3.88,5.89,4,9.67.1,12-12.44,24.31-24.52,36.54-36.7,6.78-6.74,15.79-7,22.11-.86s6.6,15.32-.21,22.26Q848.27,261.41,822,287.13c-7.23,7.1-15.89,6.75-22.92-.26q-20-19.94-39.94-40c-4.45-4.49-6.81-9.54-3.68-15.93C758.32,225.23,762,221,769.15,222.18Z" transform="translate(-85.07 -56.07)"></path></svg>