<svg xmlns="http://www.w3.org/2000/svg" viewBox="0 0 196.62 196.62"><defs><style>.cls-1{fill:#fff;stroke:#2c6eb5;stroke-miterlimit:10;stroke-width:3px;}.cls-2{fill:#fefefe;}.cls-3{fill:#f4822a;}.cls-4{fill:#010101;}.cls-5{fill:#030303;}.cls-6{fill:#e2e2e2;}.cls-7{fill:#ddd;}</style></defs><g id="Background"><rect class="cls-1" x="1.5" y="1.5" width="193.62" height="193.62"></rect></g><g id="TUNE_IN_TO_TAKE_ACTION" data-name="TUNE IN TO TAKE ACTION"><path class="cls-2" d="M93.13,29.61h10.72c0,.58-.5.71-.8,1a2.38,2.38,0,0,0-.61,2.41,2.17,2.17,0,0,0,1.88,1.59,9.72,9.72,0,0,0,1.79.09H123a19.23,19.23,0,0,1,19,14.59,20.59,20.59,0,0,1,.25,8c-.25,1.82-.61,2-2.45,2H121.66c-6,0-11.91,0-17.87,0A16.13,16.13,0,0,0,88.46,70.85c-.7,2.31-.7,2.31-3.12,2.32-.32,0-.64,0-1,0-6,.07-4-.66-9,3.22-3.92,3-7.7,6.22-11.63,9.22-.42.32-.83.89-1.43.59s-.61-1-.62-1.59c0-2.65,0-5.31,0-8,0-2.45-.62-3.14-3-3.58a19.51,19.51,0,0,1-15-11.21c-4.17-8.63-.53-19.94,7.92-24.54A20.43,20.43,0,0,1,61.82,34.7c5.54.08,11.08,0,16.63,0a9,9,0,0,0,1.64-.07,2.58,2.58,0,0,0,2-1.69,2.07,2.07,0,0,0-.66-2.24c-.3-.32-.76-.55-.69-1.11H91.48c.1.55-.41.64-.69.89a2.42,2.42,0,0,0-.36,3.39,2.3,2.3,0,0,0,3.29.24,2.22,2.22,0,0,0,.11-3.46C93.55,30.35,93,30.19,93.13,29.61Z" transform="translate(-1.69 -1.69)"></path><path class="cls-3" d="M80.75,29.61a3.49,3.49,0,0,1,1.89,2.5c.17,1.68-1.17,3-3.14,3-6.09,0-12.18,0-18.27,0a18.88,18.88,0,0,0-18.95,19.6c.28,9.09,7.33,16.66,16.77,18,2.17.31,3,1.16,3,3.34,0,3.34,0,6.67,0,10.43,2.22-1.76,4.07-3.2,5.9-4.67,3.34-2.65,6.68-5.29,10-8a4.36,4.36,0,0,1,3-1.08c1.88.06,3.76,0,5.63,0,.8,0,1.07-.23,1.27-1,1.89-7.13,6.51-11.34,13.74-12.68A19.46,19.46,0,0,1,105,59c11.72,0,23.45,0,35.18,0,1.07,0,1.47-.29,1.67-1.36a18.87,18.87,0,0,0-18.53-22.53c-6.13,0-12.27,0-18.41,0-2.13,0-3.44-1.58-3-3.48a3.38,3.38,0,0,1,1.91-2h20.07c.72.37,1.53-.06,2.26.25a23.34,23.34,0,0,1,17.5,10.77,23.21,23.21,0,0,1,3.64,17.29c-.17,1,0,1.42,1.11,1.72A16.54,16.54,0,0,1,149,91.31,1.48,1.48,0,0,0,147.76,93c0,2.2-.1,4.4-.16,6.6-.08,2.73-2.22,3.89-4.54,2.41Q136,97.57,129,93a5.08,5.08,0,0,0-3-.85c-7.1,0-14.2,0-21.3,0-8.56,0-14.71-4.74-16.93-13-.17-.6-.34-1-1.06-.87a.57.57,0,0,1-.13,0c-3.72-.56-6.67.65-9.53,3.16C72.23,85.72,67,89.56,62,93.59c-1.09.88-2.2,1.56-3.62.85s-1.55-1.87-1.56-3.24c0-4-.19-8.07-.21-12.1,0-1-.28-1.28-1.22-1.52a24.31,24.31,0,0,1,2.48-47.72,5.06,5.06,0,0,1,.55,0c.74-.28,1.55.13,2.28-.23Z" transform="translate(-1.69 -1.69)"></path><path d="M29.86,154.36c.72-6.48,4.11-11.2,9.58-14.55.69-.43,1.44-.77,2.17-1.15a18,18,0,1,1,30.11,0,20,20,0,0,1,8.41,6.77,18.81,18.81,0,0,1,3.59,10.63c.1,3.75,0,7.51,0,11.27a3.43,3.43,0,0,1-1.92,3H31.54c-1.16-.35-1.93-1-1.78-2.36,0-4.11,0-8.21,0-12.32A3.09,3.09,0,0,1,29.86,154.36Z" transform="translate(-1.69 -1.69)"></path><path d="M118.15,170.39a3.69,3.69,0,0,1-1.94-3.73c.17-4.12-.31-8.26.24-12.36,1-7.12,4.81-12.2,11.26-15.33.16-.08.31-.18.56-.32A18,18,0,0,1,126,124a17.42,17.42,0,0,1,6.67-9.63,18,18,0,0,1,25.67,24.33,19.72,19.72,0,0,1,11,12,10.36,10.36,0,0,1,.76,3.74c.24,2.95.05,5.91.1,8.87,0,1.59,0,3.19,0,4.78a2.07,2.07,0,0,1-1.78,2.37Z" transform="translate(-1.69 -1.69)"></path><path class="cls-4" d="M93.13,29.61c1.07.74,2,1.56,1.85,3a2.74,2.74,0,0,1-5.27.73,2.73,2.73,0,0,1,1-3.28c.25-.18.52-.33.79-.5Z" transform="translate(-1.69 -1.69)"></path><path class="cls-5" d="M29.86,154.36l0,14.14a.15.15,0,0,1-.26,0v-14A.41.41,0,0,0,29.86,154.36Z" transform="translate(-1.69 -1.69)"></path><path class="cls-5" d="M170.12,168.49q0-7.06,0-14.12a.27.27,0,0,0,.24.07v14C170.31,168.59,170.22,168.59,170.12,168.49Z" transform="translate(-1.69 -1.69)"></path><path class="cls-6" d="M29.62,168.47l.26,0c.1,1,1.05,1.31,1.66,1.89C29.62,170.39,29.62,170.39,29.62,168.47Z" transform="translate(-1.69 -1.69)"></path><path class="cls-7" d="M170.12,168.49l.26,0c0,1.92,0,1.92-1.92,1.92C169.06,169.8,170,169.52,170.12,168.49Z" transform="translate(-1.69 -1.69)"></path><path class="cls-2" d="M142.32,95c-2.85-1.82-5.51-3.27-7.88-5.09a16.08,16.08,0,0,0-11.19-3.35c-6.26.31-12.55.11-18.83.07-6.81,0-11.78-5.06-11.55-11.59a10.92,10.92,0,0,1,10.47-10.54q20.55-.15,41.09,0A10.92,10.92,0,0,1,155,75a11.19,11.19,0,0,1-9.46,11.51c-2.44.34-3.14,1.12-3.17,3.6C142.31,91.64,142.32,93.15,142.32,95Z" transform="translate(-1.69 -1.69)"></path><path class="cls-2" d="M56.71,164.89c-6.82,0-13.64,0-20.47,0-.84,0-1.19-.14-1.15-1.09.17-3.2-.33-6.43.29-9.59a13.69,13.69,0,0,1,9.53-10.88,1.7,1.7,0,0,1,1.64.22q10.1,6.42,20.22,0a1.9,1.9,0,0,1,1.77-.23,14,14,0,0,1,9.68,12.57c.12,2.7,0,5.4.07,8.1,0,1-.52.85-1.12.85Z" transform="translate(-1.69 -1.69)"></path><path class="cls-2" d="M56.66,141.24a12.45,12.45,0,1,1,12.49-12.49A12.5,12.5,0,0,1,56.66,141.24Z" transform="translate(-1.69 -1.69)"></path><path class="cls-2" d="M143.19,164.89c-6.73,0-13.46,0-20.19,0-1,0-1.35-.16-1.29-1.25.17-3.1-.31-6.24.27-9.32a13.71,13.71,0,0,1,9.57-11,1.65,1.65,0,0,1,1.64.23q10.09,6.4,20.22,0a1.87,1.87,0,0,1,1.77-.21,14.06,14.06,0,0,1,9.69,13c0,2.43,0,4.86,0,7.28,0,1-.2,1.29-1.25,1.28C156.83,164.87,150,164.89,143.19,164.89Z" transform="translate(-1.69 -1.69)"></path><path class="cls-2" d="M143.49,116.36a12.44,12.44,0,1,1-12.64,12.19A12.49,12.49,0,0,1,143.49,116.36Z" transform="translate(-1.69 -1.69)"></path><path class="cls-4" d="M136.79,75.58a2.74,2.74,0,0,1,2.77-2.77,2.81,2.81,0,0,1,2.7,2.74,2.77,2.77,0,0,1-2.81,2.74A2.68,2.68,0,0,1,136.79,75.58Z" transform="translate(-1.69 -1.69)"></path><path class="cls-4" d="M111,75.73a2.67,2.67,0,0,1-2.81,2.56,2.76,2.76,0,0,1-2.65-2.89,2.83,2.83,0,0,1,2.85-2.59A2.72,2.72,0,0,1,111,75.73Z" transform="translate(-1.69 -1.69)"></path><path class="cls-4" d="M126.66,75.54a2.75,2.75,0,0,1-5.49,0,2.75,2.75,0,1,1,5.49,0Z" transform="translate(-1.69 -1.69)"></path></g></svg>