<svg xmlns="http://www.w3.org/2000/svg" viewBox="0 0 196.62 196.62"><defs><style>.cls-1,.cls-3{fill:#fff;}.cls-1{stroke:#2c6eb5;stroke-miterlimit:10;stroke-width:3px;}.cls-2{fill:#f4822a;}</style></defs><g id="Background"><rect class="cls-1" x="1.5" y="1.5" width="193.62" height="193.62"></rect></g><g id="WORK_IN_MUTUAL_CONSENSUS" data-name="WORK IN MUTUAL CONSENSUS"><path d="M31.47,61.68c.66-2.62,1.34-5.24,3.09-7.41a18.39,18.39,0,0,0,26-.06,14.66,14.66,0,0,1,3,7.6c.29,3,.06,6.06.15,9.1,0,1-.62.86-1.23.86H32.93c-.48,0-1,0-1.46.08Z" transform="translate(-1.69 -1.69)"></path><path d="M31.47,158.37a23.66,23.66,0,0,1,2.36-6.29c.51-.81.75-1.17,1.68-.32a17.87,17.87,0,0,0,24.16,0c.88-.79,1.19-.58,1.68.28a15.49,15.49,0,0,1,2.3,7.43,85.57,85.57,0,0,1,0,9.06c-10.32,0-20.64,0-31,0-1.07,0-1.21-.32-1.19-1.26C31.51,164.34,31.47,161.35,31.47,158.37Z" transform="translate(-1.69 -1.69)"></path><path d="M136.41,168.55c0-4.69-.76-9.44,1-14,.36-.91.88-1.74,1.3-2.63s.77-.9,1.51-.22a18,18,0,0,0,24.29,0c.7-.63,1-.69,1.53.17a16.45,16.45,0,0,1,2.44,8.22c0,2.81,0,5.62,0,8.43Z" transform="translate(-1.69 -1.69)"></path><path d="M100,160.49c-9,0-17.93,0-26.9,0-1,0-1.38-.24-1.32-1.31.09-1.87.08-3.75,0-5.62,0-.93.22-1.19,1.16-1.18,7.23,0,14.46,0,21.68.05,1.12,0,1.4-.27,1.39-1.39q-.11-6.75,0-13.52c0-1.1-.35-1.28-1.34-1.28-8.47,0-17,0-25.43.06-1.27,0-1.51-.39-1.5-1.57.05-7.1,0-14.19.05-21.29,0-1.06-.19-1.45-1.36-1.43-4.55.07-9.1.06-13.65,0-.92,0-1.23.22-1.2,1.17.08,2,0,4,0,6,0,.71-.21.9-.9.88-2.1,0-4.19,0-6.29,0-.7,0-.9-.2-.9-.9q0-19.22,0-38.43c0-.76.22-1,1-1,2,0,4,.06,6,0,.87,0,1.1.22,1.1,1.1,0,7.18,0,14.37-.06,21.55,0,1.35.38,1.58,1.62,1.56,4.33-.08,8.66-.1,13,0,1.44,0,1.63-.43,1.62-1.7-.06-7.1,0-14.19-.05-21.29,0-1,.25-1.24,1.24-1.24,8.57,0,17.13,0,25.7.05,1,0,1.34-.22,1.33-1.3C95.94,74,96,69.46,96,64.91c0-1-.22-1.27-1.24-1.26-7.23.05-14.45,0-21.68.05-1.06,0-1.36-.28-1.31-1.33.08-1.87.07-3.75,0-5.62,0-1,.27-1.19,1.2-1.18,5.08,0,10.17,0,15.25,0,12.85,0,25.7,0,38.55,0,1.19,0,1.52.3,1.45,1.47-.1,1.83-.08,3.66,0,5.49,0,.95-.26,1.18-1.19,1.18-7.18,0-14.36,0-21.55-.06-1.27,0-1.51.38-1.49,1.55q.1,6.7,0,13.39c0,1.11.34,1.29,1.34,1.29,8.52,0,17,0,25.56-.05,1.13,0,1.38.29,1.37,1.39-.05,7.18,0,14.37-.05,21.55,0,1,.17,1.3,1.23,1.28,4.55-.07,9.1-.06,13.65,0,1,0,1.34-.21,1.33-1.29-.05-7.23,0-14.46-.06-21.69,0-1,.28-1.27,1.26-1.23,2,.08,3.92.06,5.89,0,.77,0,1,.24.95,1q0,19.16,0,38.3c0,.84-.24,1-1,1-2.05-.06-4.1,0-6.15,0-.72,0-.91-.2-.89-.9,0-2,0-4,0-6,0-.81-.12-1.17-1.07-1.16q-7,.08-14,0c-1,0-1.07.38-1.07,1.17,0,7.24,0,14.47,0,21.7,0,1.09-.25,1.42-1.38,1.41-8.52,0-17,0-25.57,0-1,0-1.34.22-1.32,1.29.07,4.56.06,9.11,0,13.66,0,1,.28,1.24,1.26,1.23,7.23,0,14.46,0,21.68,0,1.09,0,1.33.32,1.29,1.34-.08,1.87-.08,3.75,0,5.62,0,1-.29,1.16-1.2,1.15C118,160.48,109,160.49,100,160.49Z" transform="translate(-1.69 -1.69)"></path><path d="M139.4,54.2a18.39,18.39,0,0,0,26,0,15.41,15.41,0,0,1,3.05,8.66c.09,2.63,0,5.27.05,7.9,0,.74-.18,1-1,1q-15.18,0-30.35,0c-.53,0-1,0-1-.74.13-3.6-.33-7.23.39-10.81A14.92,14.92,0,0,1,139.4,54.2Z" transform="translate(-1.69 -1.69)"></path><path class="cls-2" d="M162.46,138.26a10.07,10.07,0,1,1-10-10A10.08,10.08,0,0,1,162.46,138.26Z" transform="translate(-1.69 -1.69)"></path><path class="cls-2" d="M47.54,51.55a10.07,10.07,0,0,1,.12-20.13,10.07,10.07,0,1,1-.12,20.13Z" transform="translate(-1.69 -1.69)"></path><path class="cls-2" d="M57.68,138.32a10.07,10.07,0,1,1-10.12-10.11A10.16,10.16,0,0,1,57.68,138.32Z" transform="translate(-1.69 -1.69)"></path><path class="cls-2" d="M152.27,51.55a10.07,10.07,0,1,1,10.19-10A10.07,10.07,0,0,1,152.27,51.55Z" transform="translate(-1.69 -1.69)"></path><path class="cls-3" d="M114.68,101.52c-.36.39-.52.59-.7.77q-8.52,8.52-17,17c-.52.52-.79.46-1.26,0q-4.8-4.84-9.64-9.65c-.45-.45-.62-.72,0-1.25,1.55-1.47,3.06-3,4.54-4.54.45-.47.72-.47,1.17,0,1.2,1.26,2.53,2.4,3.65,3.72.82,1,1.26.71,2-.06,3.52-3.6,7.12-7.13,10.65-10.73.64-.65,1-.72,1.66,0,1.33,1.44,2.75,2.8,4.15,4.17A5,5,0,0,0,114.68,101.52Z" transform="translate(-1.69 -1.69)"></path></g></svg>