<?xml version="1.0" encoding="UTF-8"?><svg id="Layer_1" xmlns="http://www.w3.org/2000/svg" viewBox="0 0 288 44"><defs><style>.cls-1{fill:#ffffff;}</style></defs><g><path class="cls-1" d="m6.59,26.97c0-5.62,4.57-10.19,10.19-10.19s10.19,4.57,10.19,10.19-4.57,10.19-10.19,10.19H6.59v-10.19ZM5.85,0H1.07C.48,0,0,.48,0,1.08l.02,41.46c0,.59.48,1.08,1.08,1.08h16.06c2.45,0,4.75-.55,6.84-1.63,5.8-2.75,9.56-8.7,9.56-15.14,0-5.77-2.91-11.06-7.79-14.16-2.48-1.77-5.46-2.7-8.62-2.7-1.81,0-3.54.27-5.15.79-1.81.54-3.63,1.96-5.08,3.62V1.08C6.92.48,6.44,0,5.85,0"/><path class="cls-1" d="m38.61,42.99h4.78c.59,0,1.08-.48,1.08-1.08V1.08C44.46.48,43.98,0,43.39,0h-4.78c-.59,0-1.08.48-1.08,1.08v40.84c0,.59.48,1.08,1.08,1.08"/><path class="cls-1" d="m65.42,37.16c-5.57,0-10.26-4.38-10.4-9.94-.14-5.82,4.62-10.59,10.44-10.44,5.57.14,9.94,4.83,9.94,10.4s-4.47,9.98-9.98,9.98m9.66-25.49v2.72c-1.05-1.66-3.27-3.09-5.08-3.62-1.61-.52-3.34-.79-5.15-.79-3.16,0-6.14.93-8.62,2.7-4.88,3.1-7.79,8.39-7.79,14.16,0,6.45,3.77,12.4,9.56,15.14,2.09,1.08,4.4,1.63,6.84,1.63h.99c3.58,0,6.96-1.51,9.57-3.78v2.09c0,.59.48,1.08,1.08,1.08h4.45c.59,0,1.07-.48,1.07-1.08V11.67c0-.59-.48-1.08-1.07-1.08h-4.78c-.59,0-1.08.48-1.08,1.08"/><path class="cls-1" d="m104.01,9.98c-3.66,0-6.97,1.33-9.37,3.66v-1.96c0-.59-.48-1.07-1.08-1.07h-4.77c-.59,0-1.08.48-1.08,1.07v30.24c0,.59.48,1.08,1.08,1.08h4.77c.59,0,1.08-.48,1.08-1.08v-17.01c0-4.63,3.47-8.13,8.06-8.13s6.39,2.16,6.39,7.44v17.69c0,.59.48,1.08,1.08,1.08h4.77c.59,0,1.08-.48,1.08-1.08v-18.31c0-11.26-6.53-13.62-12.01-13.62"/><path class="cls-1" d="m144.98,33.73c-1.96,1.96-4.81,3.08-7.83,3.08-5.86,0-10.11-4.2-10.11-9.98s4.2-10.05,9.99-10.05c2.79,0,5.27.88,6.99,2.49l.03.02c.44.41,1.13.38,1.54-.07l3.02-3.4c.39-.44.35-1.12-.09-1.52l-.02-.02c-3.12-2.78-7.21-4.31-11.52-4.31-9.52,0-16.97,7.4-16.97,16.85s7.46,16.78,16.97,16.78c4.72,0,9.08-1.69,12.29-4.77l.02-.02c.4-.38.44-1,.11-1.43l-2.77-3.58c-.4-.51-1.15-.56-1.61-.1l-.03.03Z"/><path class="cls-1" d="m169.82,9.98c-3.62,0-6.92,1.33-9.3,3.65V1.08c0-.59-.48-1.08-1.07-1.08h-4.78c-.59,0-1.08.48-1.08,1.08v40.84c0,.59.48,1.08,1.08,1.08h4.78c.59,0,1.07-.48,1.07-1.08v-17.07c0-3.91,2.76-8.06,7.88-8.06,4.57,0,6.52,2.23,6.52,7.44v17.69c0,.59.48,1.08,1.08,1.08h4.83c.59,0,1.08-.48,1.08-1.08v-18.31c0-11.26-6.57-13.62-12.07-13.62"/><path class="cls-1" d="m231.94,14.3v-2.63c0-.59-.48-1.08-1.08-1.08h-4.78c-.59,0-1.07.48-1.07,1.08v30.24c0,.59.48,1.08,1.07,1.08h4.78c.59,0,1.08-.48,1.08-1.08v-14.35c0-6.5,3.84-10.23,10.54-10.23h.03c.59,0,1.08-.48,1.08-1.08v-5.21c0-.6-.48-1.08-1.08-1.08h-.03c-4.39,0-8.07,1.54-10.54,4.33"/><path class="cls-1" d="m270.88,37.16h-10.19c-5.62,0-10.19-4.57-10.19-10.19s4.57-10.19,10.19-10.19,10.19,4.57,10.19,10.19v10.19Zm-.33-36.09v13.31c-1.45-1.66-3.27-3.09-5.08-3.62-1.61-.52-3.35-.79-5.15-.79-3.16,0-6.14.93-8.62,2.7-4.88,3.1-7.79,8.39-7.79,14.16,0,6.45,3.77,12.4,9.56,15.14,2.09,1.08,4.4,1.63,6.84,1.63h16.06c.59,0,1.07-.48,1.07-1.07l.02-41.46C277.48.48,277,0,276.41,0h-4.77C271.04,0,270.56.48,270.56,1.08"/><path class="cls-1" d="m212.83,27.18c0,5.51-4.47,9.98-9.98,9.98h0c-5.39,0-10-4.11-10.37-9.48-.42-6.18,4.7-11.3,10.88-10.88,5.38.37,9.48,4.98,9.48,10.37h0Zm-.45-15.5v2.63c-1.22-1.76-3.19-3.01-4.95-3.53-1.61-.52-3.34-.79-5.15-.79h-.13c-3.61,0-6.94,1.2-9.61,3.47-4.24,3.2-6.67,8.08-6.67,13.39,0,5.89,3,11.24,7.99,14.29,2.41,1.62,5.28,2.48,8.28,2.48h1.12c3.58,0,7.27-1.52,9.57-3.78v2.09c0,.59.48,1.08,1.08,1.08h4.45c.59,0,1.07-.48,1.07-1.08V11.67c0-.59-.48-1.08-1.07-1.08h-4.9c-.59,0-1.08.48-1.08,1.08"/></g><path class="cls-1" d="m284.54,36.43c.59,0,1.16.15,1.71.45.55.3.97.72,1.29,1.28.31.55.47,1.13.47,1.74s-.15,1.18-.46,1.72c-.31.55-.73.97-1.28,1.28s-1.12.46-1.72.46-1.18-.15-1.72-.46-.97-.73-1.28-1.28c-.31-.55-.46-1.12-.46-1.72s.16-1.19.47-1.74c.31-.55.74-.98,1.29-1.28.55-.3,1.11-.45,1.71-.45Zm0,.68c-.48,0-.93.12-1.37.36-.44.24-.78.58-1.03,1.03-.25.45-.38.91-.38,1.4s.12.95.37,1.39c.25.44.59.78,1.03,1.03.44.25.9.37,1.38.37s.95-.12,1.39-.37c.44-.25.78-.59,1.03-1.03.25-.44.37-.9.37-1.39s-.13-.96-.38-1.4c-.25-.45-.6-.79-1.03-1.03-.44-.24-.9-.36-1.37-.36Zm-1.57,4.64v-3.67h.75c.7,0,1.09,0,1.18,0,.25.02.44.07.58.15.14.08.25.19.34.35.09.16.14.33.14.53,0,.27-.09.49-.26.68-.17.19-.42.31-.73.35.11.04.2.09.26.14.06.05.14.14.25.28.03.04.12.19.27.45l.43.74h-.92l-.31-.6c-.21-.4-.38-.65-.52-.76-.14-.1-.31-.16-.52-.16h-.19v1.51h-.75Zm.75-2.09h.3c.43,0,.7-.02.8-.05.1-.03.19-.09.25-.17.06-.08.09-.18.09-.28s-.03-.19-.09-.27c-.06-.08-.14-.14-.25-.17-.11-.03-.38-.05-.8-.05h-.3v1Z"/></svg>