<svg width="945" height="236" viewBox="0 0 945 236" fill="none" xmlns="http://www.w3.org/2000/svg"><path fill-rule="evenodd" clip-rule="evenodd" d="M472 119V1c65.17 0 118 52.83 118 118H472zM354 236H236c0-65.17 52.831-118 118-118v118z" fill="#005C7D"/><path fill-rule="evenodd" clip-rule="evenodd" d="M827 236H709c0-65.17 52.831-118 118-118v118z" fill="#02455D"/><path fill-rule="evenodd" clip-rule="evenodd" d="M827 0h118c0 65.17-52.831 118-118 118V0z" fill="#9ED8B2"/><path fill-rule="evenodd" clip-rule="evenodd" d="M354 0h118c0 65.17-52.831 118-118 118V0zM118 118h118c0 65.17-52.831 118-118 118V118z" fill="#02455D"/><path fill-rule="evenodd" clip-rule="evenodd" d="M827 0v118c-65.17 0-118-52.83-118-118h118zM590 118h119c0 65.17-53.278 118-119 118V118zM354 0v118c-65.17 0-118-52.83-118-118h118zM118 236H0c0-65.17 52.83-118 118-118v118z" fill="#008065"/><path fill-rule="evenodd" clip-rule="evenodd" d="M590 118v118c-65.17 0-118-52.831-118-118h118z" fill="#9ED8B2"/><path fill-rule="evenodd" clip-rule="evenodd" d="M886 119c-32.585 0-59 26.191-59 58.5V236h59c32.585 0 59-26.191 59-58.5S918.585 119 886 119z" fill="#025C7C"/><path fill-rule="evenodd" clip-rule="evenodd" d="M709 59.5C709 27.191 682.361 1 649.5 1H590v58.5c0 32.309 26.639 58.5 59.5 58.5 32.861 0 59.5-26.191 59.5-58.5z" fill="#02455D"/><path fill-rule="evenodd" clip-rule="evenodd" d="M472 177c0-32.585-26.415-59-59-59h-59v59c0 32.585 26.415 59 59 59s59-26.415 59-59z" fill="#008065"/><path fill-rule="evenodd" clip-rule="evenodd" d="M177 118c32.585 0 59-26.415 59-59V0h-59c-32.585 0-59 26.415-59 59s26.415 59 59 59z" fill="#9ED8B2"/></svg>