<svg xmlns:dc="http://purl.org/dc/elements/1.1/" xmlns:cc="http://creativecommons.org/ns#" xmlns:rdf="http://www.w3.org/1999/02/22-rdf-syntax-ns#" xmlns:svg="http://www.w3.org/2000/svg" xmlns="http://www.w3.org/2000/svg" viewBox="0 0 376 115.84" height="115.84" width="376" xml:space="preserve" id="svg2"><metadata></metadata><defs id="defs6"><clipPath id="clipPath18" clipPathUnits="userSpaceOnUse"><path id="path16" d="M 0,86.88 H 282 V 0 H 0 Z"></path></clipPath></defs><g transform="matrix(1.3333333,0,0,-1.3333333,0,115.84)" id="g10"><g id="g12"><g clip-path="url(#clipPath18)" id="g14"><g transform="translate(6.0142,7.2413)" id="g20"><path id="path22" style="fill:#646a68;fill-opacity:1;fill-rule:nonzero;stroke:none" d="M 0,0 H 2.024 C 2.418,0 2.75,0.061 3.019,0.185 3.289,0.309 3.505,0.472 3.668,0.675 3.832,0.878 3.949,1.112 4.023,1.384 4.095,1.652 4.132,1.935 4.132,2.227 4.132,2.644 4.07,2.993 3.946,3.281 3.823,3.568 3.654,3.803 3.44,3.99 3.227,4.174 2.977,4.309 2.691,4.393 2.403,4.478 2.098,4.52 1.771,4.52 H 0 Z m 0,5.635 h 1.704 c 0.157,0 0.352,0.015 0.582,0.05 0.23,0.034 0.455,0.118 0.675,0.252 C 3.18,6.071 3.365,6.274 3.517,6.543 3.668,6.814 3.745,7.179 3.745,7.64 3.745,8.28 3.584,8.771 3.264,9.107 2.944,9.445 2.413,9.613 1.669,9.613 H 0 Z m -1.518,5.193 h 3.694 c 0.393,0 0.776,-0.05 1.147,-0.152 0.37,-0.101 0.7,-0.272 0.987,-0.514 C 4.596,9.919 4.827,9.604 5,9.208 5.176,8.815 5.263,8.325 5.263,7.742 5.263,7.471 5.223,7.202 5.146,6.931 5.066,6.662 4.953,6.414 4.802,6.19 4.651,5.964 4.467,5.769 4.25,5.6 4.032,5.432 3.789,5.308 3.521,5.229 V 5.194 C 4.259,5.015 4.798,4.662 5.139,4.132 5.48,3.603 5.65,2.967 5.65,2.227 5.65,1.001 5.315,0.121 4.647,-0.414 3.978,-0.946 3.014,-1.215 1.754,-1.215 h -3.272 z"></path></g><g transform="translate(19.8447,6.0265)" id="g24"><path id="path26" style="fill:#646a68;fill-opacity:1;fill-rule:nonzero;stroke:none" d="M 0,0 H -1.35 V 1.062 H -1.382 C -1.575,0.648 -1.878,0.327 -2.294,0.103 c -0.415,-0.227 -0.844,-0.337 -1.281,-0.337 -0.597,0 -1.054,0.096 -1.376,0.295 -0.32,0.195 -0.556,0.44 -0.707,0.732 -0.152,0.293 -0.24,0.603 -0.262,0.936 -0.023,0.332 -0.034,0.632 -0.034,0.904 v 6.409 h 1.417 V 2.801 c 0,-0.168 0.008,-0.361 0.025,-0.574 0.017,-0.213 0.07,-0.415 0.161,-0.598 0.089,-0.188 0.221,-0.34 0.396,-0.464 0.174,-0.124 0.425,-0.187 0.75,-0.187 0.191,0 0.392,0.034 0.6,0.102 0.207,0.066 0.402,0.174 0.581,0.319 0.18,0.148 0.327,0.334 0.439,0.567 0.112,0.229 0.168,0.509 0.168,0.835 V 9.042 H 0 Z"></path></g><path id="path28" style="fill:#646a68;fill-opacity:1;fill-rule:nonzero;stroke:none" d="m 22.476,15.068 h 1.417 V 6.026 h -1.417 z m 0,3.001 h 1.417 v -1.62 h -1.417 z"></path><path id="path30" style="fill:#646a68;fill-opacity:1;fill-rule:nonzero;stroke:none" d="m 26.608,18.069 h 1.417 V 6.026 h -1.417 z"></path><g transform="translate(31.8364,10.546)" id="g32"><path id="path34" style="fill:#646a68;fill-opacity:1;fill-rule:nonzero;stroke:none" d="m 0,0 c 0,-0.538 0.025,-1.028 0.075,-1.465 0.05,-0.44 0.136,-0.812 0.258,-1.115 0.123,-0.303 0.291,-0.54 0.502,-0.709 0.211,-0.169 0.479,-0.253 0.802,-0.253 0.378,0 0.687,0.087 0.926,0.264 0.24,0.174 0.424,0.419 0.552,0.732 0.128,0.314 0.214,0.688 0.259,1.123 C 3.418,-0.991 3.44,-0.517 3.44,0 3.44,0.44 3.418,0.869 3.374,1.291 3.329,1.713 3.24,2.093 3.106,2.43 2.973,2.767 2.79,3.036 2.555,3.238 2.322,3.441 2.015,3.542 1.637,3.542 1.314,3.542 1.046,3.457 0.835,3.289 0.624,3.12 0.456,2.886 0.333,2.583 0.211,2.276 0.125,1.908 0.075,1.468 0.025,1.03 0,0.54 0,0 M 4.772,-4.52 H 3.423 v 1.115 H 3.391 C 3.344,-3.573 3.264,-3.739 3.146,-3.903 3.027,-4.066 2.88,-4.209 2.707,-4.332 2.533,-4.456 2.339,-4.56 2.125,-4.639 1.911,-4.715 1.68,-4.754 1.434,-4.754 c -0.54,0 -0.995,0.113 -1.367,0.345 -0.371,0.229 -0.674,0.554 -0.91,0.97 -0.236,0.417 -0.409,0.917 -0.515,1.5 -0.107,0.585 -0.16,1.233 -0.16,1.939 0,0.475 0.028,0.988 0.084,1.544 0.056,0.557 0.182,1.07 0.38,1.545 0.196,0.472 0.484,0.866 0.86,1.188 0.376,0.319 0.886,0.48 1.527,0.48 0.404,0 0.798,-0.111 1.18,-0.338 C 2.895,4.195 3.165,3.887 3.322,3.492 h 0.034 v 4.031 h 1.416 z"></path></g><path id="path36" style="fill:#646a68;fill-opacity:1;fill-rule:nonzero;stroke:none" d="m 39.241,15.068 h 1.416 V 6.026 h -1.416 z m 0,3.001 h 1.416 v -1.62 h -1.416 z"></path><g transform="translate(43.2886,15.0685)" id="g38"><path id="path40" style="fill:#646a68;fill-opacity:1;fill-rule:nonzero;stroke:none" d="m 0,0 h 1.349 v -1.065 h 0.033 c 0.191,0.417 0.495,0.738 0.912,0.961 0.415,0.227 0.843,0.338 1.281,0.338 0.596,0 1.053,-0.097 1.375,-0.295 0.321,-0.195 0.556,-0.44 0.708,-0.733 0.151,-0.292 0.238,-0.605 0.262,-0.935 0.022,-0.333 0.033,-0.632 0.033,-0.904 V -9.042 H 4.537 v 6.24 c 0,0.169 -0.009,0.362 -0.026,0.574 -0.017,0.214 -0.071,0.415 -0.16,0.599 -0.09,0.185 -0.226,0.34 -0.405,0.464 -0.18,0.124 -0.427,0.185 -0.742,0.185 -0.191,0 -0.391,-0.033 -0.6,-0.101 C 2.396,-1.149 2.203,-1.255 2.024,-1.402 1.843,-1.547 1.697,-1.737 1.585,-1.967 1.473,-2.195 1.417,-2.475 1.417,-2.802 v -6.24 H 0 Z"></path></g><g transform="translate(54.606,14.088)" id="g42"><path id="path44" style="fill:#646a68;fill-opacity:1;fill-rule:nonzero;stroke:none" d="m 0,0 c -0.323,0 -0.59,-0.085 -0.801,-0.253 -0.213,-0.169 -0.38,-0.403 -0.502,-0.706 -0.123,-0.307 -0.209,-0.675 -0.259,-1.115 -0.05,-0.438 -0.075,-0.928 -0.075,-1.468 0,-0.369 0.02,-0.748 0.058,-1.139 0.039,-0.387 0.115,-0.74 0.225,-1.061 0.112,-0.32 0.273,-0.586 0.485,-0.794 0.211,-0.208 0.496,-0.311 0.852,-0.311 0.379,0 0.687,0.084 0.927,0.253 0.239,0.169 0.426,0.404 0.559,0.701 0.135,0.298 0.223,0.649 0.267,1.054 0.045,0.403 0.068,0.836 0.068,1.297 0,0.44 -0.023,0.869 -0.068,1.291 C 1.692,-1.829 1.604,-1.449 1.469,-1.112 1.336,-0.775 1.153,-0.506 0.918,-0.304 0.685,-0.101 0.378,0 0,0 m 3.136,-7.487 c 0,-0.675 -0.075,-1.246 -0.228,-1.713 -0.152,-0.467 -0.363,-0.846 -0.633,-1.139 -0.268,-0.292 -0.592,-0.503 -0.969,-0.632 -0.377,-0.13 -0.79,-0.192 -1.239,-0.192 -0.136,0 -0.357,0.01 -0.667,0.031 -0.31,0.024 -0.625,0.106 -0.944,0.245 -0.321,0.143 -0.613,0.366 -0.877,0.675 -0.265,0.311 -0.425,0.746 -0.481,1.307 h 1.417 c 0.034,-0.416 0.191,-0.711 0.471,-0.885 0.283,-0.175 0.608,-0.262 0.979,-0.262 0.45,0 0.795,0.077 1.037,0.227 0.242,0.153 0.417,0.335 0.523,0.549 0.107,0.215 0.167,0.437 0.177,0.667 0.012,0.231 0.017,0.423 0.017,0.582 v 1.18 H 1.685 C 1.528,-7.229 1.261,-7.526 0.884,-7.74 0.507,-7.953 0.095,-8.062 -0.354,-8.062 c -0.439,0 -0.813,0.084 -1.124,0.253 -0.308,0.169 -0.567,0.388 -0.774,0.66 -0.208,0.268 -0.372,0.568 -0.49,0.9 -0.117,0.332 -0.209,0.667 -0.269,1.005 -0.062,0.337 -0.102,0.656 -0.119,0.954 -0.017,0.297 -0.025,0.548 -0.025,0.748 0,0.608 0.045,1.199 0.134,1.771 0.09,0.575 0.251,1.083 0.481,1.529 0.231,0.442 0.534,0.798 0.911,1.061 0.377,0.264 0.853,0.396 1.426,0.396 0.246,0 0.481,-0.04 0.7,-0.119 C 0.715,1.02 0.91,0.917 1.079,0.793 1.248,0.669 1.39,0.524 1.508,0.355 1.627,0.187 1.708,0.013 1.753,-0.169 H 1.787 V 0.98 h 1.349 z"></path></g><g transform="translate(63.4434,18.0695)" id="g46"><path id="path48" style="fill:#646a68;fill-opacity:1;fill-rule:nonzero;stroke:none" d="M 0,0 H 1.637 L 3.948,-5.634 6.375,0 H 7.893 L 4.707,-7.32 v -4.723 H 3.188 v 4.723 z"></path></g><g transform="translate(74.4063,6.9044)" id="g50"><path id="path52" style="fill:#646a68;fill-opacity:1;fill-rule:nonzero;stroke:none" d="M 0,0 C 0.364,0 0.662,0.097 0.894,0.295 1.125,0.492 1.307,0.756 1.439,1.088 1.571,1.42 1.66,1.805 1.705,2.242 1.747,2.683 1.771,3.148 1.771,3.642 1.771,4.126 1.747,4.59 1.705,5.033 1.66,5.479 1.573,5.865 1.447,6.197 1.32,6.53 1.141,6.793 0.909,6.991 0.677,7.186 0.374,7.286 0,7.286 -0.353,7.286 -0.64,7.186 -0.862,6.991 -1.081,6.793 -1.254,6.53 -1.381,6.197 -1.507,5.865 -1.594,5.479 -1.639,5.033 -1.681,4.59 -1.705,4.126 -1.705,3.642 c 0,-0.494 0.024,-0.959 0.066,-1.4 C -1.594,1.805 -1.51,1.42 -1.389,1.088 -1.268,0.756 -1.094,0.492 -0.87,0.295 -0.643,0.097 -0.353,0 0,0 m -3.223,3.642 c 0,0.642 0.048,1.249 0.145,1.823 0.095,0.572 0.264,1.075 0.506,1.508 0.24,0.434 0.572,0.78 0.993,1.038 0.422,0.259 0.96,0.387 1.613,0.387 0.651,0 1.189,-0.128 1.611,-0.387 C 2.066,7.753 2.398,7.407 2.638,6.973 2.88,6.54 3.049,6.037 3.144,5.465 3.241,4.891 3.289,4.284 3.289,3.642 3.289,3.001 3.241,2.396 3.144,1.82 3.049,1.249 2.878,0.745 2.63,0.311 2.382,-0.122 2.05,-0.467 1.637,-0.726 1.22,-0.983 0.685,-1.112 0.034,-1.112 c -0.653,0 -1.191,0.129 -1.613,0.386 C -2,-0.467 -2.332,-0.122 -2.572,0.311 -2.814,0.745 -2.983,1.249 -3.078,1.82 -3.175,2.396 -3.223,3.001 -3.223,3.642"></path></g><g transform="translate(85.7568,6.0265)" id="g54"><path id="path56" style="fill:#646a68;fill-opacity:1;fill-rule:nonzero;stroke:none" d="M 0,0 H -1.35 V 1.062 H -1.384 C -1.573,0.648 -1.879,0.327 -2.293,0.103 c -0.416,-0.227 -0.843,-0.337 -1.283,-0.337 -0.596,0 -1.054,0.096 -1.373,0.295 -0.322,0.195 -0.559,0.44 -0.709,0.732 -0.153,0.293 -0.24,0.603 -0.261,0.936 -0.024,0.332 -0.035,0.632 -0.035,0.904 v 6.409 h 1.416 V 2.801 c 0,-0.168 0.01,-0.361 0.026,-0.574 0.016,-0.213 0.071,-0.415 0.161,-0.598 0.089,-0.188 0.221,-0.34 0.395,-0.464 0.174,-0.124 0.424,-0.187 0.751,-0.187 0.19,0 0.39,0.034 0.599,0.102 0.208,0.066 0.403,0.174 0.582,0.319 0.179,0.148 0.327,0.334 0.437,0.567 0.114,0.229 0.169,0.509 0.169,0.835 V 9.042 H 0 Z"></path></g><g transform="translate(88.3022,15.0685)" id="g58"><path id="path60" style="fill:#646a68;fill-opacity:1;fill-rule:nonzero;stroke:none" d="m 0,0 h 1.418 v -1.35 h 0.034 c 0.1,0.214 0.211,0.414 0.327,0.607 0.118,0.192 0.256,0.36 0.414,0.506 0.158,0.144 0.334,0.26 0.532,0.344 0.195,0.085 0.424,0.127 0.683,0.127 0.281,0 0.49,-0.034 0.624,-0.1 v -1.383 c -0.068,0.01 -0.156,0.026 -0.261,0.042 -0.108,0.016 -0.274,0.026 -0.498,0.026 -0.179,0 -0.377,-0.042 -0.59,-0.127 C 2.469,-1.392 2.269,-1.521 2.084,-1.697 1.897,-1.871 1.739,-2.093 1.61,-2.361 1.481,-2.633 1.418,-2.952 1.418,-3.323 V -9.042 H 0 Z"></path></g><g transform="translate(98.7749,18.0695)" id="g62"><path id="path64" style="fill:#646a68;fill-opacity:1;fill-rule:nonzero;stroke:none" d="m 0,0 h 1.518 v -10.729 h 4.86 v -1.314 H 0 Z"></path></g><g transform="translate(111.3247,11.4923)" id="g66"><path id="path68" style="fill:#646a68;fill-opacity:1;fill-rule:nonzero;stroke:none" d="M 0,0 V 0.487 C 0,0.735 -0.021,0.99 -0.066,1.257 -0.111,1.521 -0.19,1.76 -0.306,1.974 -0.422,2.188 -0.577,2.361 -0.775,2.495 -0.975,2.63 -1.228,2.698 -1.537,2.698 -1.9,2.698 -2.188,2.598 -2.404,2.403 -2.617,2.205 -2.78,1.979 -2.891,1.721 -2.999,1.46 -3.07,1.198 -3.104,0.936 -3.139,0.672 -3.155,0.472 -3.155,0.337 V 0 Z m -3.205,-1.115 c 0,-0.348 0.008,-0.725 0.024,-1.128 0.018,-0.405 0.082,-0.782 0.192,-1.13 0.109,-0.349 0.277,-0.639 0.504,-0.87 0.224,-0.23 0.553,-0.345 0.983,-0.345 0.329,0 0.593,0.076 0.791,0.226 0.2,0.153 0.35,0.338 0.455,0.559 0.106,0.219 0.174,0.448 0.206,0.691 C -0.016,-2.87 0,-2.665 0,-2.496 H 1.449 C 1.449,-2.733 1.407,-3.033 1.323,-3.4 1.238,-3.764 1.085,-4.119 0.859,-4.462 0.635,-4.805 0.327,-5.097 -0.069,-5.34 -0.461,-5.579 -0.967,-5.7 -1.586,-5.7 c -1.113,0 -1.914,0.382 -2.404,1.146 -0.488,0.764 -0.733,1.929 -0.733,3.492 0,0.561 0.037,1.13 0.111,1.709 0.071,0.581 0.224,1.102 0.453,1.569 0.232,0.467 0.559,0.851 0.981,1.149 0.421,0.298 0.98,0.446 1.676,0.446 0.688,0 1.233,-0.135 1.636,-0.404 C 0.54,3.136 0.843,2.79 1.046,2.369 1.249,1.947 1.378,1.479 1.434,0.962 1.489,0.442 1.518,-0.059 1.518,-0.54 v -0.575 z"></path></g><g transform="translate(119.2358,10.9523)" id="g70"><path id="path72" style="fill:#646a68;fill-opacity:1;fill-rule:nonzero;stroke:none" d="m 0,0 c -0.134,-0.135 -0.303,-0.248 -0.509,-0.338 -0.208,-0.09 -0.424,-0.171 -0.651,-0.245 -0.229,-0.074 -0.45,-0.145 -0.669,-0.219 -0.216,-0.073 -0.403,-0.16 -0.559,-0.26 -0.221,-0.148 -0.39,-0.325 -0.508,-0.533 -0.116,-0.208 -0.174,-0.509 -0.174,-0.901 0,-0.472 0.092,-0.849 0.274,-1.131 0.184,-0.281 0.514,-0.421 0.993,-0.421 0.235,0 0.459,0.044 0.675,0.134 0.219,0.09 0.409,0.214 0.577,0.372 0.166,0.158 0.301,0.34 0.401,0.548 0.1,0.208 0.15,0.43 0.15,0.667 z m -4.37,1.383 c 0,1.022 0.238,1.773 0.709,2.251 0.472,0.479 1.247,0.717 2.328,0.717 0.685,0 1.214,-0.09 1.586,-0.269 C 0.622,3.902 0.896,3.676 1.07,3.407 1.244,3.136 1.347,2.854 1.373,2.556 1.402,2.258 1.415,1.989 1.415,1.755 v -5.044 c 0,-0.192 0.019,-0.361 0.05,-0.506 0.035,-0.145 0.163,-0.219 0.39,-0.219 0.09,0 0.158,0.008 0.211,0.024 0.05,0.018 0.092,0.037 0.126,0.06 V -4.941 C 2.135,-4.952 2.029,-4.971 1.871,-4.992 1.713,-5.016 1.544,-5.026 1.365,-5.026 1.23,-5.026 1.094,-5.021 0.951,-5.01 0.812,-4.997 0.677,-4.955 0.548,-4.884 0.419,-4.81 0.311,-4.694 0.227,-4.538 0.142,-4.381 0.095,-4.156 0.084,-3.864 H 0.05 c -0.227,-0.403 -0.538,-0.722 -0.936,-0.951 -0.4,-0.232 -0.814,-0.345 -1.241,-0.345 -0.843,0 -1.465,0.234 -1.863,0.706 -0.398,0.475 -0.598,1.114 -0.598,1.924 0,0.64 0.137,1.173 0.414,1.593 0.274,0.422 0.703,0.723 1.288,0.902 L -0.98,0.54 c 0.261,0.079 0.458,0.16 0.601,0.245 0.139,0.084 0.239,0.177 0.302,0.277 0.061,0.102 0.098,0.218 0.109,0.355 0.013,0.135 0.018,0.298 0.018,0.488 0,0.888 -0.485,1.333 -1.452,1.333 -0.393,0 -0.693,-0.076 -0.901,-0.229 C -2.512,2.858 -2.664,2.683 -2.759,2.479 -2.854,2.276 -2.91,2.076 -2.928,1.881 -2.944,1.684 -2.952,1.547 -2.952,1.468 V 1.383 Z"></path></g><g transform="translate(124.4458,10.546)" id="g74"><path id="path76" style="fill:#646a68;fill-opacity:1;fill-rule:nonzero;stroke:none" d="m 0,0 c 0,-0.538 0.024,-1.028 0.074,-1.465 0.05,-0.44 0.137,-0.812 0.258,-1.115 0.124,-0.303 0.29,-0.54 0.503,-0.709 0.211,-0.169 0.477,-0.253 0.802,-0.253 0.377,0 0.688,0.087 0.927,0.264 0.237,0.174 0.422,0.419 0.551,0.732 0.126,0.314 0.214,0.688 0.258,1.123 C 3.418,-0.991 3.439,-0.517 3.439,0 3.439,0.44 3.418,0.869 3.373,1.291 3.329,1.713 3.239,2.093 3.107,2.43 2.973,2.767 2.788,3.036 2.554,3.238 2.322,3.441 2.014,3.542 1.637,3.542 1.312,3.542 1.046,3.457 0.835,3.289 0.622,3.12 0.456,2.886 0.332,2.583 0.211,2.276 0.124,1.908 0.074,1.468 0.024,1.03 0,0.54 0,0 M 4.772,-4.52 H 3.423 v 1.115 H 3.389 C 3.344,-3.573 3.263,-3.739 3.144,-3.903 3.028,-4.066 2.88,-4.209 2.707,-4.332 2.533,-4.456 2.337,-4.56 2.124,-4.639 1.911,-4.715 1.681,-4.754 1.434,-4.754 c -0.54,0 -0.997,0.113 -1.368,0.345 -0.369,0.229 -0.675,0.554 -0.909,0.97 -0.238,0.417 -0.408,0.917 -0.514,1.5 -0.108,0.585 -0.161,1.233 -0.161,1.939 0,0.475 0.026,0.988 0.084,1.544 0.056,0.557 0.183,1.07 0.38,1.545 0.195,0.472 0.482,0.866 0.859,1.188 0.377,0.319 0.885,0.48 1.526,0.48 0.406,0 0.798,-0.111 1.181,-0.338 C 2.894,4.195 3.165,3.887 3.323,3.492 h 0.032 v 4.031 h 1.417 z"></path></g><g transform="translate(136.186,11.4923)" id="g78"><path id="path80" style="fill:#646a68;fill-opacity:1;fill-rule:nonzero;stroke:none" d="M 0,0 V 0.487 C 0,0.735 -0.023,0.99 -0.068,1.257 -0.11,1.521 -0.192,1.76 -0.306,1.974 -0.421,2.188 -0.58,2.361 -0.777,2.495 -0.975,2.63 -1.228,2.698 -1.536,2.698 -1.9,2.698 -2.19,2.598 -2.403,2.403 -2.619,2.205 -2.78,1.979 -2.891,1.721 -3.001,1.46 -3.073,1.198 -3.104,0.936 -3.139,0.672 -3.154,0.472 -3.154,0.337 V 0 Z m -3.204,-1.115 c 0,-0.348 0.008,-0.725 0.023,-1.128 0.016,-0.405 0.079,-0.782 0.19,-1.13 0.111,-0.349 0.28,-0.639 0.503,-0.87 0.227,-0.23 0.554,-0.345 0.984,-0.345 0.329,0 0.595,0.076 0.793,0.226 0.197,0.153 0.35,0.338 0.453,0.559 0.105,0.219 0.174,0.448 0.208,0.691 C -0.018,-2.87 0,-2.665 0,-2.496 H 1.45 C 1.45,-2.733 1.407,-3.033 1.323,-3.4 1.239,-3.764 1.083,-4.119 0.859,-4.462 0.635,-4.805 0.324,-5.097 -0.068,-5.34 -0.461,-5.579 -0.967,-5.7 -1.586,-5.7 c -1.112,0 -1.914,0.382 -2.404,1.146 -0.49,0.764 -0.732,1.929 -0.732,3.492 0,0.561 0.034,1.13 0.108,1.709 0.073,0.581 0.224,1.102 0.456,1.569 0.229,0.467 0.556,0.851 0.977,1.149 0.422,0.298 0.981,0.446 1.679,0.446 0.685,0 1.231,-0.135 1.637,-0.404 C 0.538,3.136 0.844,2.79 1.044,2.369 1.247,1.947 1.376,1.479 1.434,0.962 1.489,0.442 1.518,-0.059 1.518,-0.54 v -0.575 z"></path></g><g transform="translate(139.9443,15.0685)" id="g82"><path id="path84" style="fill:#646a68;fill-opacity:1;fill-rule:nonzero;stroke:none" d="m 0,0 h 1.417 v -1.35 h 0.035 c 0.1,0.214 0.211,0.414 0.327,0.607 0.118,0.192 0.255,0.36 0.413,0.506 0.159,0.144 0.335,0.26 0.533,0.344 0.195,0.085 0.424,0.127 0.682,0.127 0.282,0 0.49,-0.034 0.625,-0.1 v -1.383 c -0.069,0.01 -0.155,0.026 -0.261,0.042 -0.108,0.016 -0.274,0.026 -0.499,0.026 -0.178,0 -0.376,-0.042 -0.589,-0.127 C 2.469,-1.392 2.269,-1.521 2.085,-1.697 1.897,-1.871 1.739,-2.093 1.61,-2.361 1.481,-2.633 1.417,-2.952 1.417,-3.323 V -9.042 H 0 Z"></path></g><g transform="translate(149.5078,12.42)" id="g86"><path id="path88" style="fill:#646a68;fill-opacity:1;fill-rule:nonzero;stroke:none" d="M 0,0 C 0,0.571 -0.092,1.012 -0.276,1.314 -0.464,1.618 -0.814,1.771 -1.331,1.771 -1.444,1.771 -1.584,1.755 -1.753,1.729 -1.921,1.699 -2.082,1.642 -2.234,1.552 -2.385,1.46 -2.52,1.322 -2.63,1.138 -2.743,0.951 -2.799,0.7 -2.799,0.387 c 0,-0.269 0.064,-0.491 0.193,-0.658 0.128,-0.169 0.297,-0.312 0.505,-0.43 0.208,-0.119 0.446,-0.216 0.709,-0.295 0.264,-0.079 0.538,-0.164 0.82,-0.254 0.269,-0.089 0.535,-0.187 0.801,-0.295 C 0.493,-1.65 0.728,-1.798 0.936,-1.982 1.144,-2.169 1.312,-2.404 1.441,-2.691 1.57,-2.979 1.637,-3.348 1.637,-3.795 1.637,-4.267 1.562,-4.681 1.418,-5.036 1.271,-5.39 1.07,-5.685 0.809,-5.922 0.551,-6.156 0.242,-6.333 -0.118,-6.452 -0.477,-6.57 -0.864,-6.628 -1.281,-6.628 c -0.764,0 -1.357,0.123 -1.779,0.368 -0.421,0.248 -0.732,0.543 -0.927,0.886 -0.198,0.346 -0.314,0.696 -0.348,1.055 -0.032,0.36 -0.05,0.658 -0.05,0.895 h 1.417 c 0,-0.271 0.022,-0.532 0.067,-0.785 0.045,-0.253 0.129,-0.477 0.253,-0.675 0.124,-0.197 0.294,-0.35 0.516,-0.464 0.219,-0.113 0.503,-0.168 0.851,-0.168 0.111,0 0.254,0.016 0.422,0.05 0.169,0.034 0.335,0.108 0.498,0.219 0.161,0.113 0.3,0.266 0.411,0.456 0.113,0.192 0.169,0.45 0.169,0.777 0,0.303 -0.064,0.553 -0.193,0.748 -0.129,0.198 -0.297,0.362 -0.505,0.491 -0.208,0.129 -0.446,0.24 -0.709,0.329 -0.264,0.09 -0.533,0.179 -0.801,0.269 -0.27,0.089 -0.541,0.19 -0.81,0.295 -0.271,0.108 -0.509,0.25 -0.717,0.43 -0.208,0.181 -0.377,0.416 -0.505,0.709 -0.129,0.292 -0.196,0.669 -0.196,1.13 0,0.417 0.077,0.783 0.23,1.096 0.15,0.314 0.358,0.578 0.622,0.786 0.265,0.208 0.571,0.361 0.92,0.463 0.347,0.101 0.718,0.151 1.114,0.151 0.651,0 1.162,-0.101 1.534,-0.303 C 0.574,2.377 0.849,2.129 1.03,1.837 1.21,1.544 1.317,1.232 1.357,0.9 1.396,0.568 1.418,0.269 1.418,0 Z"></path></g><g transform="translate(153.1836,18.0695)" id="g90"><path id="path92" style="fill:#646a68;fill-opacity:1;fill-rule:nonzero;stroke:none" d="m 0,0 h 1.418 v -4.031 h 0.034 c 0.09,0.178 0.217,0.347 0.38,0.506 0.161,0.158 0.343,0.292 0.538,0.405 0.197,0.111 0.405,0.2 0.624,0.261 0.219,0.06 0.43,0.092 0.633,0.092 0.585,0 1.035,-0.097 1.349,-0.295 0.316,-0.195 0.545,-0.44 0.693,-0.733 C 5.814,-4.087 5.898,-4.4 5.922,-4.73 5.943,-5.062 5.954,-5.362 5.954,-5.634 v -6.409 H 4.538 v 6.24 c 0,0.169 -0.008,0.362 -0.025,0.574 -0.017,0.214 -0.07,0.415 -0.161,0.599 -0.09,0.185 -0.225,0.34 -0.404,0.464 -0.179,0.124 -0.427,0.185 -0.743,0.185 -0.189,0 -0.39,-0.033 -0.599,-0.101 C 2.398,-4.15 2.203,-4.256 2.024,-4.403 1.845,-4.548 1.697,-4.738 1.587,-4.968 1.474,-5.196 1.418,-5.476 1.418,-5.803 v -6.24 H 0 Z"></path></g><path id="path94" style="fill:#646a68;fill-opacity:1;fill-rule:nonzero;stroke:none" d="m 161.77,15.068 h 1.416 V 6.026 h -1.416 z m 0,3.001 h 1.416 v -1.62 h -1.416 z"></path><g transform="translate(167.1484,10.546)" id="g96"><path id="path98" style="fill:#646a68;fill-opacity:1;fill-rule:nonzero;stroke:none" d="M 0,0 C 0,-0.437 0.024,-0.867 0.068,-1.289 0.113,-1.71 0.2,-2.09 0.335,-2.427 0.47,-2.765 0.651,-3.036 0.886,-3.236 c 0.234,-0.203 0.54,-0.306 0.92,-0.306 0.321,0 0.59,0.084 0.8,0.253 0.211,0.169 0.38,0.411 0.501,0.727 0.124,0.314 0.208,0.702 0.258,1.163 0.051,0.461 0.077,0.985 0.077,1.568 0,0.495 -0.026,0.951 -0.077,1.367 C 3.315,1.953 3.231,2.309 3.107,2.606 2.986,2.904 2.817,3.136 2.606,3.3 2.396,3.46 2.127,3.542 1.806,3.542 1.415,3.542 1.104,3.455 0.87,3.281 0.636,3.106 0.456,2.862 0.327,2.548 0.198,2.232 0.113,1.857 0.068,1.426 0.024,0.993 0,0.52 0,0 m -1.331,4.522 h 1.35 V 3.407 h 0.034 c 0.045,0.169 0.127,0.335 0.243,0.498 0.118,0.163 0.266,0.306 0.439,0.43 0.174,0.124 0.367,0.227 0.583,0.303 0.213,0.079 0.443,0.119 0.691,0.119 0.54,0 0.996,-0.111 1.364,-0.338 C 3.745,4.195 4.048,3.879 4.285,3.476 4.522,3.07 4.693,2.588 4.799,2.023 4.907,1.463 4.96,0.843 4.96,0.169 4.96,-0.348 4.915,-0.894 4.825,-1.465 4.736,-2.04 4.58,-2.572 4.361,-3.06 4.144,-3.55 3.84,-3.953 3.458,-4.274 3.075,-4.596 2.594,-4.754 2.009,-4.754 c -0.406,0 -0.783,0.11 -1.131,0.337 -0.348,0.225 -0.601,0.532 -0.759,0.928 H 0.085 v -3.998 h -1.416 z"></path></g><g transform="translate(180.7783,7.2413)" id="g100"><path id="path102" style="fill:#646a68;fill-opacity:1;fill-rule:nonzero;stroke:none" d="M 0,0 H 1.55 C 2.193,0 2.701,0.15 3.078,0.448 3.452,0.746 3.74,1.125 3.938,1.586 4.135,2.048 4.262,2.562 4.317,3.128 4.372,3.697 4.401,4.251 4.401,4.791 4.401,5.373 4.378,5.953 4.333,6.527 4.288,7.1 4.175,7.616 3.987,8.069 3.803,8.525 3.519,8.896 3.137,9.184 2.754,9.472 2.225,9.613 1.55,9.613 H 0 Z m -1.518,10.828 h 3.221 c 0.933,0 1.679,-0.158 2.235,-0.472 C 4.493,10.04 4.918,9.611 5.21,9.065 5.503,8.52 5.695,7.882 5.785,7.152 5.874,6.42 5.919,5.64 5.919,4.807 5.919,4.043 5.864,3.3 5.751,2.58 5.637,1.86 5.429,1.22 5.126,0.659 4.823,0.095 4.406,-0.355 3.88,-0.701 3.35,-1.044 2.675,-1.215 1.855,-1.215 h -3.373 z"></path></g><path id="path104" style="fill:#646a68;fill-opacity:1;fill-rule:nonzero;stroke:none" d="m 189.212,15.068 h 1.415 V 6.026 h -1.415 z m 0,3.001 h 1.415 v -1.62 h -1.415 z"></path><g transform="translate(193.6816,13.9532)" id="g106"><path id="path108" style="fill:#646a68;fill-opacity:1;fill-rule:nonzero;stroke:none" d="M 0,0 H -1.315 V 1.115 H 0 V 2.177 C 0,2.862 0.152,3.379 0.464,3.729 0.771,4.077 1.27,4.251 1.955,4.251 h 1.03 V 3.036 H 2.326 C 2.023,3.036 1.794,2.973 1.644,2.844 1.491,2.715 1.415,2.49 1.415,2.177 V 1.115 H 2.967 V 0 H 1.415 V -7.927 H 0 Z"></path></g><g transform="translate(198.7383,13.9532)" id="g110"><path id="path112" style="fill:#646a68;fill-opacity:1;fill-rule:nonzero;stroke:none" d="M 0,0 H -1.315 V 1.115 H 0 V 2.177 C 0,2.862 0.155,3.379 0.464,3.729 0.775,4.077 1.271,4.251 1.958,4.251 H 2.986 V 3.036 H 2.327 C 2.024,3.036 1.798,2.973 1.645,2.844 1.494,2.715 1.418,2.49 1.418,2.177 V 1.115 H 2.97 V 0 H 1.418 V -7.927 H 0 Z"></path></g><g transform="translate(207.7959,11.4923)" id="g114"><path id="path116" style="fill:#646a68;fill-opacity:1;fill-rule:nonzero;stroke:none" d="M 0,0 V 0.487 C 0,0.735 -0.021,0.99 -0.065,1.257 -0.11,1.521 -0.189,1.76 -0.306,1.974 -0.422,2.188 -0.577,2.361 -0.774,2.495 -0.975,2.63 -1.228,2.698 -1.536,2.698 -1.9,2.698 -2.188,2.598 -2.403,2.403 -2.617,2.205 -2.78,1.979 -2.891,1.721 -2.999,1.46 -3.07,1.198 -3.104,0.936 -3.139,0.672 -3.154,0.472 -3.154,0.337 V 0 Z m -3.204,-1.115 c 0,-0.348 0.008,-0.725 0.023,-1.128 0.019,-0.405 0.082,-0.782 0.193,-1.13 0.108,-0.349 0.276,-0.639 0.503,-0.87 0.224,-0.23 0.553,-0.345 0.983,-0.345 0.329,0 0.593,0.076 0.79,0.226 0.201,0.153 0.351,0.338 0.456,0.559 0.106,0.219 0.174,0.448 0.206,0.691 C -0.016,-2.87 0,-2.665 0,-2.496 H 1.449 C 1.449,-2.733 1.407,-3.033 1.323,-3.4 1.238,-3.764 1.086,-4.119 0.859,-4.462 0.635,-4.805 0.327,-5.097 -0.068,-5.34 -0.461,-5.579 -0.967,-5.7 -1.586,-5.7 c -1.112,0 -1.914,0.382 -2.404,1.146 -0.488,0.764 -0.733,1.929 -0.733,3.492 0,0.561 0.037,1.13 0.112,1.709 0.07,0.581 0.223,1.102 0.453,1.569 0.231,0.467 0.558,0.851 0.98,1.149 0.421,0.298 0.98,0.446 1.676,0.446 0.688,0 1.233,-0.135 1.637,-0.404 C 0.54,3.136 0.844,2.79 1.046,2.369 1.249,1.947 1.378,1.479 1.434,0.962 1.489,0.442 1.518,-0.059 1.518,-0.54 v -0.575 z"></path></g><g transform="translate(211.5566,15.0685)" id="g118"><path id="path120" style="fill:#646a68;fill-opacity:1;fill-rule:nonzero;stroke:none" d="m 0,0 h 1.418 v -1.35 h 0.034 c 0.1,0.214 0.211,0.414 0.326,0.607 0.119,0.192 0.256,0.36 0.414,0.506 0.159,0.144 0.335,0.26 0.533,0.344 0.195,0.085 0.424,0.127 0.682,0.127 0.282,0 0.49,-0.034 0.625,-0.1 v -1.383 c -0.068,0.01 -0.155,0.026 -0.261,0.042 -0.108,0.016 -0.274,0.026 -0.498,0.026 -0.179,0 -0.377,-0.042 -0.59,-0.127 C 2.469,-1.392 2.269,-1.521 2.085,-1.697 1.897,-1.871 1.739,-2.093 1.61,-2.361 1.481,-2.633 1.418,-2.952 1.418,-3.323 V -9.042 H 0 Z"></path></g><g transform="translate(221.6602,11.4923)" id="g122"><path id="path124" style="fill:#646a68;fill-opacity:1;fill-rule:nonzero;stroke:none" d="M 0,0 V 0.487 C 0,0.735 -0.021,0.99 -0.065,1.257 -0.11,1.521 -0.189,1.76 -0.306,1.974 -0.422,2.188 -0.577,2.361 -0.774,2.495 -0.975,2.63 -1.228,2.698 -1.536,2.698 -1.899,2.698 -2.188,2.598 -2.403,2.403 -2.616,2.205 -2.78,1.979 -2.891,1.721 -2.999,1.46 -3.07,1.198 -3.104,0.936 -3.139,0.672 -3.154,0.472 -3.154,0.337 V 0 Z m -3.204,-1.115 c 0,-0.348 0.008,-0.725 0.023,-1.128 0.019,-0.405 0.082,-0.782 0.193,-1.13 0.108,-0.349 0.277,-0.639 0.503,-0.87 0.224,-0.23 0.553,-0.345 0.983,-0.345 0.329,0 0.593,0.076 0.791,0.226 0.2,0.153 0.351,0.338 0.456,0.559 0.105,0.219 0.174,0.448 0.205,0.691 C -0.016,-2.87 0,-2.665 0,-2.496 H 1.45 C 1.45,-2.733 1.407,-3.033 1.323,-3.4 1.239,-3.764 1.086,-4.119 0.859,-4.462 0.636,-4.805 0.327,-5.097 -0.068,-5.34 -0.461,-5.579 -0.967,-5.7 -1.586,-5.7 c -1.112,0 -1.913,0.382 -2.403,1.146 -0.489,0.764 -0.734,1.929 -0.734,3.492 0,0.561 0.037,1.13 0.112,1.709 0.071,0.581 0.223,1.102 0.453,1.569 0.231,0.467 0.558,0.851 0.98,1.149 0.422,0.298 0.981,0.446 1.676,0.446 0.688,0 1.233,-0.135 1.637,-0.404 C 0.54,3.136 0.844,2.79 1.047,2.369 1.249,1.947 1.379,1.479 1.434,0.962 1.489,0.442 1.519,-0.059 1.519,-0.54 v -0.575 z"></path></g><g transform="translate(225.4209,15.0685)" id="g126"><path id="path128" style="fill:#646a68;fill-opacity:1;fill-rule:nonzero;stroke:none" d="m 0,0 h 1.35 v -1.065 h 0.034 c 0.189,0.417 0.493,0.738 0.909,0.961 0.416,0.227 0.844,0.338 1.283,0.338 0.596,0 1.055,-0.097 1.373,-0.295 0.322,-0.195 0.556,-0.44 0.709,-0.733 0.154,-0.292 0.24,-0.605 0.261,-0.935 0.023,-0.333 0.034,-0.632 0.034,-0.904 V -9.042 H 4.535 v 6.24 c 0,0.169 -0.008,0.362 -0.023,0.574 -0.019,0.214 -0.072,0.415 -0.16,0.599 -0.09,0.185 -0.225,0.34 -0.407,0.464 C 3.766,-1.041 3.519,-0.98 3.205,-0.98 3.013,-0.98 2.813,-1.013 2.606,-1.081 2.398,-1.149 2.203,-1.255 2.024,-1.402 1.842,-1.547 1.697,-1.737 1.584,-1.967 1.474,-2.195 1.415,-2.475 1.415,-2.802 v -6.24 H 0 Z"></path></g><g transform="translate(234.3447,17.6984)" id="g130"><path id="path132" style="fill:#646a68;fill-opacity:1;fill-rule:nonzero;stroke:none" d="m 0,0 h 1.415 v -2.63 h 1.57 v -1.115 h -1.57 v -5.8 c 0,-0.361 0.063,-0.62 0.187,-0.777 0.124,-0.158 0.372,-0.236 0.741,-0.236 0.157,0 0.281,0.006 0.371,0.017 0.09,0.01 0.174,0.023 0.253,0.034 v -1.165 c -0.09,-0.021 -0.23,-0.045 -0.422,-0.066 -0.19,-0.024 -0.432,-0.034 -0.725,-0.034 -0.371,0 -0.674,0.037 -0.911,0.108 -0.235,0.073 -0.422,0.187 -0.556,0.337 -0.135,0.153 -0.227,0.34 -0.277,0.567 C 0.023,-10.536 0,-10.278 0,-9.985 v 6.24 h -1.315 v 1.115 l 1.315,0 z"></path></g><path id="path134" style="fill:#646a68;fill-opacity:1;fill-rule:nonzero;stroke:none" d="m 239.064,15.068 h 1.418 V 6.026 h -1.418 z m 0,3.001 h 1.418 v -1.62 h -1.418 z"></path><g transform="translate(247.2627,10.9523)" id="g136"><path id="path138" style="fill:#646a68;fill-opacity:1;fill-rule:nonzero;stroke:none" d="m 0,0 c -0.135,-0.135 -0.303,-0.248 -0.509,-0.338 -0.208,-0.09 -0.424,-0.171 -0.65,-0.245 -0.23,-0.074 -0.451,-0.145 -0.67,-0.219 -0.216,-0.073 -0.403,-0.16 -0.559,-0.26 -0.221,-0.148 -0.389,-0.325 -0.508,-0.533 -0.117,-0.208 -0.174,-0.509 -0.174,-0.901 0,-0.472 0.092,-0.849 0.274,-1.131 0.185,-0.281 0.514,-0.421 0.993,-0.421 0.235,0 0.459,0.044 0.675,0.134 0.219,0.09 0.408,0.214 0.577,0.372 0.166,0.158 0.301,0.34 0.401,0.548 0.1,0.208 0.15,0.43 0.15,0.667 z m -4.369,1.383 c 0,1.022 0.237,1.773 0.709,2.251 0.472,0.479 1.246,0.717 2.327,0.717 0.685,0 1.215,-0.09 1.586,-0.269 C 0.622,3.902 0.896,3.676 1.07,3.407 1.244,3.136 1.347,2.854 1.373,2.556 1.402,2.258 1.415,1.989 1.415,1.755 v -5.044 c 0,-0.192 0.019,-0.361 0.05,-0.506 0.034,-0.145 0.164,-0.219 0.39,-0.219 0.089,0 0.159,0.008 0.211,0.024 0.05,0.018 0.092,0.037 0.126,0.06 V -4.941 C 2.135,-4.952 2.029,-4.971 1.871,-4.992 1.713,-5.016 1.544,-5.026 1.365,-5.026 1.23,-5.026 1.094,-5.021 0.951,-5.01 0.812,-4.997 0.677,-4.955 0.548,-4.884 0.419,-4.81 0.311,-4.694 0.227,-4.538 0.143,-4.381 0.095,-4.156 0.084,-3.864 H 0.05 c -0.227,-0.403 -0.537,-0.722 -0.936,-0.951 -0.4,-0.232 -0.814,-0.345 -1.241,-0.345 -0.843,0 -1.465,0.234 -1.863,0.706 -0.398,0.475 -0.598,1.114 -0.598,1.924 0,0.64 0.137,1.173 0.413,1.593 0.275,0.422 0.704,0.723 1.289,0.902 L -0.98,0.54 c 0.26,0.079 0.459,0.16 0.6,0.245 0.14,0.084 0.24,0.177 0.304,0.277 0.06,0.102 0.097,0.218 0.107,0.355 0.014,0.135 0.019,0.298 0.019,0.488 0,0.888 -0.485,1.333 -1.452,1.333 -0.393,0 -0.693,-0.076 -0.902,-0.229 C -2.512,2.858 -2.664,2.683 -2.759,2.479 -2.854,2.276 -2.909,2.076 -2.928,1.881 -2.943,1.684 -2.952,1.547 -2.952,1.468 V 1.383 Z"></path></g><g transform="translate(251.8828,17.6984)" id="g140"><path id="path142" style="fill:#646a68;fill-opacity:1;fill-rule:nonzero;stroke:none" d="M 0,0 H 1.417 V -2.63 H 2.985 V -3.745 H 1.417 v -5.8 c 0,-0.361 0.061,-0.62 0.185,-0.777 0.124,-0.158 0.372,-0.236 0.743,-0.236 0.158,0 0.279,0.006 0.372,0.017 0.089,0.01 0.174,0.023 0.253,0.034 v -1.165 c -0.093,-0.021 -0.233,-0.045 -0.422,-0.066 -0.193,-0.024 -0.435,-0.034 -0.728,-0.034 -0.369,0 -0.674,0.037 -0.909,0.108 -0.237,0.073 -0.421,0.187 -0.556,0.337 -0.136,0.153 -0.229,0.34 -0.279,0.567 C 0.026,-10.536 0,-10.278 0,-9.985 v 6.24 h -1.315 v 1.115 l 1.315,0 z"></path></g><g transform="translate(259.3037,6.9044)" id="g144"><path id="path146" style="fill:#646a68;fill-opacity:1;fill-rule:nonzero;stroke:none" d="M 0,0 C 0.366,0 0.664,0.097 0.894,0.295 1.125,0.492 1.307,0.756 1.441,1.088 1.573,1.42 1.66,1.805 1.705,2.242 1.75,2.683 1.771,3.148 1.771,3.642 1.771,4.126 1.75,4.59 1.705,5.033 1.66,5.479 1.575,5.865 1.449,6.197 1.322,6.53 1.144,6.793 0.912,6.991 0.68,7.186 0.377,7.286 0,7.286 -0.354,7.286 -0.638,7.186 -0.859,6.991 -1.081,6.793 -1.255,6.53 -1.381,6.197 -1.508,5.865 -1.592,5.479 -1.637,5.033 -1.682,4.59 -1.702,4.126 -1.702,3.642 c 0,-0.494 0.02,-0.959 0.065,-1.4 C -1.592,1.805 -1.511,1.42 -1.389,1.088 -1.268,0.756 -1.094,0.492 -0.867,0.295 -0.641,0.097 -0.354,0 0,0 m -3.221,3.642 c 0,0.642 0.048,1.249 0.143,1.823 0.095,0.572 0.264,1.075 0.506,1.508 0.242,0.434 0.574,0.78 0.996,1.038 0.422,0.259 0.959,0.387 1.61,0.387 0.651,0 1.189,-0.128 1.611,-0.387 C 2.065,7.753 2.397,7.407 2.641,6.973 2.883,6.54 3.052,6.037 3.146,5.465 3.241,4.891 3.289,4.284 3.289,3.642 3.289,3.001 3.241,2.396 3.146,1.82 3.052,1.249 2.878,0.745 2.633,0.311 2.385,-0.122 2.053,-0.467 1.637,-0.726 1.22,-0.983 0.685,-1.112 0.034,-1.112 c -0.651,0 -1.188,0.129 -1.61,0.386 -0.422,0.259 -0.754,0.604 -0.996,1.037 -0.242,0.434 -0.411,0.938 -0.506,1.509 -0.095,0.576 -0.143,1.181 -0.143,1.822"></path></g><g transform="translate(264.7002,15.0685)" id="g148"><path id="path150" style="fill:#646a68;fill-opacity:1;fill-rule:nonzero;stroke:none" d="m 0,0 h 1.418 v -1.35 h 0.034 c 0.101,0.214 0.211,0.414 0.327,0.607 0.118,0.192 0.256,0.36 0.414,0.506 0.159,0.144 0.334,0.26 0.533,0.344 0.194,0.085 0.423,0.127 0.682,0.127 0.281,0 0.49,-0.034 0.624,-0.1 v -1.383 c -0.068,0.01 -0.155,0.026 -0.261,0.042 -0.108,0.016 -0.274,0.026 -0.498,0.026 -0.179,0 -0.377,-0.042 -0.589,-0.127 C 2.47,-1.392 2.27,-1.521 2.085,-1.697 1.897,-1.871 1.739,-2.093 1.61,-2.361 1.481,-2.633 1.418,-2.952 1.418,-3.323 V -9.042 H 0 Z"></path></g><g transform="translate(274.2646,12.42)" id="g152"><path id="path154" style="fill:#646a68;fill-opacity:1;fill-rule:nonzero;stroke:none" d="M 0,0 C 0,0.571 -0.093,1.012 -0.28,1.314 -0.464,1.618 -0.817,1.771 -1.334,1.771 -1.447,1.771 -1.587,1.755 -1.756,1.729 -1.924,1.699 -2.085,1.642 -2.235,1.552 -2.388,1.46 -2.52,1.322 -2.633,1.138 -2.744,0.951 -2.802,0.7 -2.802,0.387 c 0,-0.269 0.066,-0.491 0.196,-0.658 0.128,-0.169 0.297,-0.312 0.505,-0.43 0.208,-0.119 0.443,-0.216 0.709,-0.295 0.264,-0.079 0.536,-0.164 0.817,-0.254 0.271,-0.089 0.538,-0.187 0.802,-0.295 0.262,-0.105 0.5,-0.253 0.709,-0.437 0.208,-0.187 0.376,-0.422 0.505,-0.709 0.129,-0.288 0.195,-0.657 0.195,-1.104 0,-0.472 -0.074,-0.886 -0.221,-1.241 C 1.27,-5.39 1.067,-5.685 0.809,-5.922 0.551,-6.156 0.239,-6.333 -0.119,-6.452 -0.48,-6.57 -0.867,-6.628 -1.284,-6.628 c -0.764,0 -1.357,0.123 -1.779,0.368 -0.421,0.248 -0.73,0.543 -0.927,0.886 -0.198,0.346 -0.311,0.696 -0.346,1.055 -0.034,0.36 -0.05,0.658 -0.05,0.895 h 1.415 c 0,-0.271 0.025,-0.532 0.069,-0.785 0.045,-0.253 0.13,-0.477 0.254,-0.675 0.123,-0.197 0.294,-0.35 0.513,-0.464 0.219,-0.113 0.503,-0.168 0.851,-0.168 0.113,0 0.253,0.016 0.422,0.05 0.169,0.034 0.335,0.108 0.498,0.219 0.163,0.113 0.301,0.266 0.414,0.456 0.113,0.192 0.169,0.45 0.169,0.777 0,0.303 -0.067,0.553 -0.196,0.748 -0.128,0.198 -0.297,0.362 -0.505,0.491 -0.209,0.129 -0.444,0.24 -0.707,0.329 -0.266,0.09 -0.533,0.179 -0.801,0.269 -0.272,0.089 -0.54,0.19 -0.812,0.295 -0.268,0.108 -0.509,0.25 -0.717,0.43 -0.208,0.181 -0.377,0.416 -0.505,0.709 -0.129,0.292 -0.193,0.669 -0.193,1.13 0,0.417 0.076,0.783 0.227,1.096 0.152,0.314 0.361,0.578 0.624,0.786 0.263,0.208 0.569,0.361 0.92,0.463 0.348,0.101 0.719,0.151 1.112,0.151 0.653,0 1.165,-0.101 1.536,-0.303 C 0.571,2.377 0.849,2.129 1.027,1.837 1.207,1.544 1.317,1.232 1.356,0.9 1.396,0.568 1.415,0.269 1.415,0 Z"></path></g><g transform="translate(133.9121,29.8458)" id="g156"><path id="path158" style="fill:#3373af;fill-opacity:1;fill-rule:nonzero;stroke:none" d="m 0,0 c 2.86,0 5.048,0.882 6.563,2.648 1.514,1.767 2.27,4.418 2.27,7.95 0,3.253 -0.854,5.765 -2.565,7.531 -1.712,1.765 -3.997,2.649 -6.857,2.649 H -9.506 V 0 Z m -1.935,27.509 c 2.916,0 5.118,0.868 6.605,2.606 1.486,1.739 2.229,4.04 2.229,6.899 0,1.795 -0.252,3.254 -0.756,4.375 -0.506,1.12 -1.194,1.99 -2.062,2.606 -0.87,0.618 -1.893,1.039 -3.07,1.264 -1.178,0.223 -2.441,0.335 -3.786,0.335 H -9.506 V 27.509 Z M -19.096,52.831 H 0.337 c 2.242,0 4.346,-0.268 6.31,-0.801 1.961,-0.534 3.673,-1.374 5.131,-2.524 1.457,-1.149 2.608,-2.649 3.449,-4.501 0.841,-1.85 1.262,-4.094 1.262,-6.73 0,-7.233 -2.945,-11.775 -8.832,-13.626 v -0.168 c 1.624,-0.284 3.111,-0.758 4.457,-1.433 1.347,-0.672 2.483,-1.611 3.407,-2.817 0.926,-1.207 1.641,-2.722 2.146,-4.543 0.505,-1.824 0.758,-3.995 0.758,-6.52 0,-2.523 -0.437,-4.793 -1.305,-6.813 C 16.251,0.337 15.016,-1.388 13.419,-2.817 11.82,-4.25 9.87,-5.342 7.572,-6.1 5.272,-6.857 2.721,-7.235 -0.083,-7.235 h -19.013 z"></path></g><g transform="translate(170.1689,46.0822)" id="g160"><path id="path162" style="fill:#3373af;fill-opacity:1;fill-rule:nonzero;stroke:none" d="M 0,0 -15.479,36.594 H -4.794 L 5.301,10.684 15.647,36.594 H 25.658 L 9.59,0 V -23.472 H 0 Z"></path></g><g transform="translate(199.3604,82.6764)" id="g164"><path id="path166" style="fill:#3373af;fill-opacity:1;fill-rule:nonzero;stroke:none" d="m 0,0 h 9.59 v -51.99 h 23.219 v -8.076 H 0 Z"></path></g><g transform="translate(247.3945,29.8458)" id="g168"><path id="path170" style="fill:#3373af;fill-opacity:1;fill-rule:nonzero;stroke:none" d="m 0,0 h 7.907 c 1.962,0 3.659,0.363 5.09,1.093 1.43,0.728 2.594,1.963 3.49,3.702 0.897,1.738 1.557,4.08 1.977,7.026 0.421,2.943 0.632,6.601 0.632,10.976 0,4.206 -0.199,7.767 -0.589,10.683 -0.393,2.916 -1.025,5.272 -1.893,7.068 -0.871,1.795 -2.018,3.085 -3.449,3.87 -1.43,0.785 -3.184,1.176 -5.258,1.176 H 0 Z M -9.592,52.831 H 7.486 c 4.711,0 8.468,-0.73 11.274,-2.188 2.802,-1.459 4.934,-3.521 6.392,-6.183 1.458,-2.664 2.41,-5.834 2.862,-9.505 0.447,-3.674 0.672,-7.727 0.672,-12.158 0,-4.432 -0.225,-8.484 -0.672,-12.154 C 27.562,6.969 26.61,3.799 25.152,1.136 23.694,-1.528 21.562,-3.591 18.76,-5.048 15.954,-6.507 12.197,-7.235 7.486,-7.235 H -9.592 Z"></path></g><g transform="translate(26.3359,41.3912)" id="g172"><path id="path174" style="fill:#ffffff;fill-opacity:1;fill-rule:evenodd;stroke:none" d="m 0,0 c -1.856,-0.265 -3.111,-0.402 -4.351,-0.624 -3.892,-0.699 -7.617,-1.875 -10.914,-4.137 -4.354,-2.993 -6.492,-7.215 -6.732,-12.435 -0.079,-1.705 -0.031,-1.707 1.788,-1.762 0.196,-0.007 0.393,-0.001 0.59,-0.001 7.568,0 15.138,-0.003 22.709,0.007 0.656,0 1.312,0.091 2.391,0.174 -2.548,2.55 -4.849,4.815 -7.105,7.123 -0.874,0.896 -1.644,1.89 -2.461,2.838 0.671,0.826 1.348,1.649 2.012,2.479 0.045,0.054 0.018,0.169 0.033,0.391 -1.051,0.078 -2.107,0.158 -3.572,0.268 1.855,1.875 3.5,3.54 5.612,5.679 m 42.604,41.323 c -4.883,-0.129 -9.395,-2.841 -11.951,-8.552 -0.972,-2.174 -1.408,-4.472 -1.391,-6.86 0.005,-0.943 0.009,-1.784 -0.829,-2.65 -1.545,-1.596 -1.275,-4.175 0.576,-5.362 1.055,-0.677 1.375,-1.513 1.75,-2.522 1.505,-4.05 3.804,-7.511 7.475,-9.944 3.483,-2.313 6.943,-2.322 10.449,-0.053 3.583,2.32 6.089,5.523 7.755,9.397 0.537,1.251 0.943,2.445 2.089,3.412 1.353,1.141 1.572,3.513 0.471,4.841 -0.912,1.1 -0.956,2.306 -1.187,3.526 -0.296,1.535 -0.396,3.116 -0.791,4.624 -1.663,6.332 -6.609,10.112 -14.416,10.143 M 13.107,4.742 c 4.39,0 8.398,-0.013 12.408,0.008 1.048,0.005 0.883,0.849 0.883,1.502 0.006,4.715 0.132,9.433 -0.064,14.14 -0.118,2.82 -0.521,5.674 -1.202,8.408 -1,4.006 -3.103,7.465 -6.713,9.674 -5.839,3.57 -12.098,3.89 -18.347,1.422 -6.648,-2.622 -9.354,-8.258 -10.292,-14.936 -0.863,-6.153 -0.412,-12.349 -0.486,-18.526 -0.02,-1.641 0.048,-1.676 1.602,-1.7 2.357,-0.03 4.715,-0.03 7.072,0 1.492,0.021 3.007,-0.155 4.705,0.184 -3.735,4.483 -5.47,9.46 -6.059,15.061 5.215,0.459 9.938,1.84 13.501,5.985 2.348,-2.49 5.043,-4.19 8.216,-5.1 0.609,-0.177 0.989,-0.53 0.865,-1.29 C 18.512,15.388 17.382,11.355 15.166,7.695 14.62,6.792 13.96,5.957 13.107,4.742 m 34.109,-7.155 h -6.712 c 0.195,-1.165 0.534,-2.237 0.512,-3.297 -0.028,-1.458 -0.293,-2.919 -0.53,-4.369 -0.115,-0.701 -0.394,-1.376 -0.687,-2.361 -2.19,4.287 -4.238,8.193 -6.171,12.154 C 33.063,0.871 32.4,1.354 31.122,1.098 27.367,0.34 23.641,-0.53 20.286,-2.455 c -5.817,-3.338 -8.869,-8.397 -9.195,-15.107 -0.049,-0.98 0.242,-1.486 1.294,-1.4 0.487,0.038 0.982,0.003 1.473,0.003 h 59.239 c 0.589,0 1.179,0.02 1.768,0.001 0.863,-0.026 1.198,0.351 1.182,1.233 -0.074,4.27 -1.347,8.123 -4.176,11.332 -3.528,3.998 -8.255,5.903 -13.321,6.937 -4.89,0.999 -3.62,1.488 -5.906,-2.796 -1.769,-3.314 -3.477,-6.657 -5.483,-10.504 -0.365,2.827 -0.507,5.087 -0.995,7.269 -0.275,1.235 0.04,2.068 1.05,3.074"></path></g><g transform="translate(73.5522,38.9786)" id="g176"><path id="path178" style="fill:#676767;fill-opacity:1;fill-rule:evenodd;stroke:none" d="m 0,0 c -1.011,-1.007 -1.325,-1.839 -1.05,-3.074 0.488,-2.183 0.63,-4.443 0.995,-7.27 2.005,3.848 3.714,7.191 5.483,10.505 2.286,4.283 1.015,3.795 5.905,2.796 5.067,-1.035 9.793,-2.939 13.322,-6.937 2.829,-3.209 4.102,-7.062 4.176,-11.333 0.016,-0.881 -0.319,-1.258 -1.182,-1.232 -0.589,0.019 -1.18,-0.002 -1.769,-0.002 h -59.238 c -0.491,0 -0.987,0.035 -1.473,-0.003 -1.052,-0.086 -1.343,0.42 -1.294,1.401 0.326,6.71 3.377,11.768 9.194,15.107 3.355,1.925 7.081,2.794 10.837,3.552 1.278,0.257 1.941,-0.227 2.506,-1.384 1.933,-3.96 3.981,-7.866 6.171,-12.153 0.292,0.985 0.572,1.66 0.687,2.361 0.237,1.449 0.501,2.91 0.529,4.368 0.023,1.061 -0.316,2.133 -0.511,3.298 z"></path></g><g transform="translate(39.4429,46.1334)" id="g180"><path id="path182" style="fill:#e88026;fill-opacity:1;fill-rule:evenodd;stroke:none" d="m 0,0 c 0.853,1.215 1.513,2.05 2.059,2.953 2.216,3.66 3.346,7.693 4.03,11.879 0.124,0.76 -0.256,1.113 -0.865,1.29 -3.173,0.91 -5.868,2.61 -8.216,5.1 -3.563,-4.145 -8.286,-5.526 -13.501,-5.985 0.589,-5.601 2.325,-10.578 6.059,-15.061 -1.698,-0.34 -3.212,-0.163 -4.705,-0.184 -2.357,-0.03 -4.715,-0.03 -7.072,0 -1.554,0.024 -1.622,0.059 -1.602,1.7 0.074,6.177 -0.377,12.372 0.486,18.526 0.938,6.678 3.644,12.314 10.292,14.936 6.249,2.468 12.508,2.148 18.347,-1.422 3.61,-2.21 5.713,-5.669 6.713,-9.674 0.682,-2.734 1.084,-5.588 1.202,-8.408 0.196,-4.707 0.07,-9.425 0.065,-14.14 0,-0.654 0.165,-1.497 -0.884,-1.502 C 8.398,-0.013 4.39,0 0,0"></path></g><g transform="translate(68.9395,82.7145)" id="g184"><path id="path186" style="fill:#676767;fill-opacity:1;fill-rule:evenodd;stroke:none" d="m 0,0 c 7.807,-0.032 12.753,-3.811 14.417,-10.144 0.395,-1.507 0.495,-3.088 0.79,-4.623 0.232,-1.22 0.275,-2.426 1.187,-3.526 1.102,-1.329 0.883,-3.7 -0.47,-4.841 -1.147,-0.968 -1.552,-2.161 -2.09,-3.412 -1.666,-3.874 -4.172,-7.077 -7.754,-9.397 -3.507,-2.269 -6.967,-2.26 -10.449,0.052 -3.671,2.434 -5.971,5.894 -7.476,9.945 -0.374,1.009 -0.695,1.844 -1.75,2.522 -1.851,1.187 -2.12,3.766 -0.575,5.362 0.837,0.866 0.834,1.707 0.829,2.649 -0.018,2.389 0.419,4.687 1.391,6.861 C -9.395,-2.841 -4.883,-0.129 0,0"></path></g><g transform="translate(26.3359,41.3912)" id="g188"><path id="path190" style="fill:#e88026;fill-opacity:1;fill-rule:evenodd;stroke:none" d="m 0,0 c -2.112,-2.139 -3.757,-3.804 -5.612,-5.679 1.465,-0.11 2.521,-0.19 3.572,-0.268 -0.015,-0.222 0.012,-0.337 -0.033,-0.391 -0.664,-0.83 -1.341,-1.653 -2.012,-2.479 0.817,-0.948 1.587,-1.942 2.461,-2.838 2.256,-2.308 4.557,-4.573 7.105,-7.123 -1.079,-0.083 -1.735,-0.174 -2.391,-0.174 -7.571,-0.01 -15.141,-0.007 -22.709,-0.007 -0.197,0 -0.394,-0.006 -0.59,0.001 -1.819,0.055 -1.867,0.057 -1.788,1.762 0.24,5.22 2.378,9.442 6.732,12.435 3.297,2.262 7.022,3.438 10.914,4.137 C -3.111,-0.402 -1.856,-0.265 0,0"></path></g></g></g></g></svg>