<svg xmlns="http://www.w3.org/2000/svg" id="Layer_1" data-name="Layer 1" viewBox="0 0 723.36 1091.68"><defs><style>.cls-1{fill:#fff;}.cls-2{fill:#225eab;}.cls-3{fill:#dfb723;}.cls-4{fill:#165caa;}.cls-5{opacity:0.5;}.cls-6{fill:#666;}.cls-7{fill:#fdf697;}.cls-8{fill:#929296;}</style></defs><title>crucialaccountability</title><rect class="cls-1" x="-1.92" y="935.99" width="725.28" height="155.7"></rect><rect class="cls-1" width="723.36" height="142.87"></rect><rect class="cls-2" x="-1.92" y="144.76" width="725.28" height="791.23"></rect><path class="cls-3" d="M374.86,603.59c-39-3-51.33-31.5-51.33-31.5,2.67,26.67,35.83,38.33,35.83,38.33l.9.07-.07.1s-25.5,11.83-36.67,31l.83,2.17s22.83-33.17,50.33-31.83v-.35h.16S380,607.59,374.86,603.59Z"></path><rect class="cls-3" x="166.02" y="602.09" width="165" height="3"></rect><rect class="cls-3" x="166.02" y="611.09" width="174.33" height="3"></rect><path class="cls-3" d="M379.32,647.59c39-3,51.33-31.5,51.33-31.5-2.67,26.67-35.83,38.33-35.83,38.33l-.9.07.07.1s25.5,11.83,36.67,31l-.83,2.17S407,654.59,379.49,655.93v-.35h-.16S374.15,651.59,379.32,647.59Z"></path><rect class="cls-3" x="423.15" y="646.09" width="165" height="3" transform="translate(1011.31 1295.19) rotate(-180)"></rect><rect class="cls-3" x="413.82" y="655.09" width="174.33" height="3" transform="translate(1001.98 1313.19) rotate(-180)"></rect><path d="M209.45,91.46h2.37v10.36a12.26,12.26,0,0,1-.61,4.29A5.24,5.24,0,0,1,209,108.7a7.82,7.82,0,0,1-4.19,1,8.61,8.61,0,0,1-4.12-.87,5,5,0,0,1-2.29-2.51,12,12,0,0,1-.68-4.49V91.46h2.37v10.35a10.08,10.08,0,0,0,.43,3.44A3.29,3.29,0,0,0,202,107a5.17,5.17,0,0,0,2.59.6,4.94,4.94,0,0,0,3.73-1.19q1.11-1.19,1.11-4.56Z"></path><path d="M215.27,109.39V91.46H222a16.32,16.32,0,0,1,2.73.17,5.4,5.4,0,0,1,2.21.84,4.4,4.4,0,0,1,1.44,1.73,5.83,5.83,0,0,1-.91,6.32q-1.46,1.58-5.26,1.58h-4.6v7.29Zm2.37-9.41h4.64a4.92,4.92,0,0,0,3.27-.86,3.05,3.05,0,0,0,1-2.41,3.24,3.24,0,0,0-.57-1.93,2.66,2.66,0,0,0-1.5-1.06,10.13,10.13,0,0,0-2.21-.16h-4.59Z"></path><path d="M231.48,109.39V91.46h6.18a15,15,0,0,1,3.19.26A6.08,6.08,0,0,1,243.47,93a7.3,7.3,0,0,1,2.12,3.06,12,12,0,0,1,.7,4.26,12.53,12.53,0,0,1-.48,3.62,8.79,8.79,0,0,1-1.22,2.61,6.49,6.49,0,0,1-1.63,1.63,6.65,6.65,0,0,1-2.14.9,12.23,12.23,0,0,1-2.88.31Zm2.37-2.12h3.83a9.28,9.28,0,0,0,2.78-.33,4,4,0,0,0,1.61-.93,5.66,5.66,0,0,0,1.31-2.27,11.1,11.1,0,0,0,.47-3.46,8.35,8.35,0,0,0-.92-4.32,4.65,4.65,0,0,0-2.24-2,9.28,9.28,0,0,0-3.07-.37h-3.77Z"></path><path d="M247.1,109.39,254,91.46h2.56l7.34,17.93h-2.7L259.08,104h-7.5l-2,5.43Zm5.17-7.36h6.08l-1.87-5q-.86-2.26-1.27-3.72a22.91,22.91,0,0,1-1,3.42Z"></path><path d="M268,109.39V93.57h-5.91V91.46h14.21v2.12h-5.93v15.81Z"></path><path d="M278.26,109.39V91.46h13v2.12H280.63v5.49h9.92v2.1h-9.92v6.1h11v2.12Z"></path><path d="M294.42,109.39V91.46h6.18a15,15,0,0,1,3.19.26A6.08,6.08,0,0,1,306.41,93a7.3,7.3,0,0,1,2.12,3.06,12,12,0,0,1,.7,4.26,12.53,12.53,0,0,1-.48,3.62,8.79,8.79,0,0,1-1.22,2.61,6.49,6.49,0,0,1-1.63,1.63,6.65,6.65,0,0,1-2.14.9,12.23,12.23,0,0,1-2.88.31Zm2.37-2.12h3.83a9.28,9.28,0,0,0,2.78-.33A4,4,0,0,0,305,106a5.66,5.66,0,0,0,1.31-2.27,11.1,11.1,0,0,0,.47-3.46,8.35,8.35,0,0,0-.92-4.32,4.65,4.65,0,0,0-2.24-2,9.28,9.28,0,0,0-3.07-.37h-3.77Z"></path><path d="M317.65,103.63l2.24-.2a4.94,4.94,0,0,0,.74,2.21,4,4,0,0,0,1.8,1.39,6.83,6.83,0,0,0,2.75.53,6.59,6.59,0,0,0,2.4-.4,3.32,3.32,0,0,0,1.55-1.11,2.57,2.57,0,0,0,.51-1.53,2.33,2.33,0,0,0-.49-1.47,3.63,3.63,0,0,0-1.61-1.06,31.6,31.6,0,0,0-3.19-.87,16.31,16.31,0,0,1-3.46-1.12A4.85,4.85,0,0,1,319,98.33a4.09,4.09,0,0,1-.63-2.23,4.56,4.56,0,0,1,.77-2.54,4.77,4.77,0,0,1,2.25-1.79,8.54,8.54,0,0,1,3.29-.61,9,9,0,0,1,3.52.64,5.07,5.07,0,0,1,2.34,1.89,5.43,5.43,0,0,1,.88,2.83l-2.27.17a3.67,3.67,0,0,0-1.24-2.57,4.83,4.83,0,0,0-3.12-.87,5,5,0,0,0-3.14.79,2.37,2.37,0,0,0-1,1.9,2,2,0,0,0,.7,1.59,9.45,9.45,0,0,0,3.58,1.28,23.69,23.69,0,0,1,4,1.14,5.44,5.44,0,0,1,2.31,1.83,4.45,4.45,0,0,1,.75,2.55,4.88,4.88,0,0,1-.82,2.7,5.39,5.39,0,0,1-2.35,2,8.2,8.2,0,0,1-3.46.7,10.31,10.31,0,0,1-4.08-.71,5.71,5.71,0,0,1-2.58-2.13A6.05,6.05,0,0,1,317.65,103.63Z"></path><path d="M334.72,109.39V91.46h13v2.12H337.09v5.49H347v2.1h-9.92v6.1h11v2.12Z"></path><path d="M363.67,103.1l2.37.6a8,8,0,0,1-2.68,4.46,7.4,7.4,0,0,1-4.74,1.53,8.51,8.51,0,0,1-4.71-1.18,7.37,7.37,0,0,1-2.76-3.42,12.2,12.2,0,0,1-.95-4.81,10.56,10.56,0,0,1,1.07-4.89,7.33,7.33,0,0,1,3-3.17,8.9,8.9,0,0,1,4.35-1.08,7.35,7.35,0,0,1,4.53,1.37,7.12,7.12,0,0,1,2.56,3.85l-2.34.55a5.54,5.54,0,0,0-1.81-2.85,4.82,4.82,0,0,0-3-.89,5.8,5.8,0,0,0-3.46,1,5.23,5.23,0,0,0-2,2.66,10.7,10.7,0,0,0-.56,3.44,10.93,10.93,0,0,0,.67,4,5,5,0,0,0,2.07,2.55,5.81,5.81,0,0,0,3,.84,5.1,5.1,0,0,0,3.38-1.15A5.88,5.88,0,0,0,363.67,103.1Z"></path><path d="M367.74,100.66a9.74,9.74,0,0,1,2.4-7,8.15,8.15,0,0,1,6.19-2.53,8.59,8.59,0,0,1,4.48,1.19,7.75,7.75,0,0,1,3,3.31,10.74,10.74,0,0,1,1,4.81,10.57,10.57,0,0,1-1.1,4.88,7.51,7.51,0,0,1-3.12,3.26,8.91,8.91,0,0,1-4.35,1.11,8.48,8.48,0,0,1-4.52-1.22,7.87,7.87,0,0,1-3-3.34A10.11,10.11,0,0,1,367.74,100.66Zm2.45,0a7.18,7.18,0,0,0,1.74,5.11,6.08,6.08,0,0,0,8.78,0,7.61,7.61,0,0,0,1.73-5.34,9.19,9.19,0,0,0-.74-3.82,5.68,5.68,0,0,0-2.17-2.53,5.87,5.87,0,0,0-3.2-.9A6.07,6.07,0,0,0,372,94.91Q370.19,96.64,370.19,100.69Z"></path><path d="M387.42,109.39V91.46h2.43l9.42,14.08V91.46h2.27v17.93h-2.43L389.69,95.3v14.09Z"></path><path d="M405,109.39V91.46h6.18a15,15,0,0,1,3.19.26A6.08,6.08,0,0,1,417,93a7.3,7.3,0,0,1,2.12,3.06,12,12,0,0,1,.7,4.26,12.53,12.53,0,0,1-.48,3.62,8.79,8.79,0,0,1-1.22,2.61,6.49,6.49,0,0,1-1.63,1.63,6.65,6.65,0,0,1-2.14.9,12.23,12.23,0,0,1-2.88.31Zm2.37-2.12h3.83a9.28,9.28,0,0,0,2.78-.33,4,4,0,0,0,1.61-.93,5.66,5.66,0,0,0,1.31-2.27,11.1,11.1,0,0,0,.47-3.46,8.35,8.35,0,0,0-.92-4.32,4.65,4.65,0,0,0-2.24-2,9.28,9.28,0,0,0-3.07-.37H407.4Z"></path><path d="M429.13,109.39V91.46h13v2.12H431.5v5.49h9.92v2.1H431.5v6.1h11v2.12Z"></path><path d="M445.28,109.39V91.46h6.18a15,15,0,0,1,3.19.26A6.08,6.08,0,0,1,457.28,93a7.3,7.3,0,0,1,2.12,3.06,12,12,0,0,1,.7,4.26,12.53,12.53,0,0,1-.48,3.62,8.79,8.79,0,0,1-1.22,2.61,6.49,6.49,0,0,1-1.63,1.63,6.65,6.65,0,0,1-2.14.9,12.23,12.23,0,0,1-2.88.31Zm2.37-2.12h3.83a9.28,9.28,0,0,0,2.78-.33,4,4,0,0,0,1.61-.93,5.66,5.66,0,0,0,1.31-2.27,11.1,11.1,0,0,0,.47-3.46,8.35,8.35,0,0,0-.92-4.32,4.65,4.65,0,0,0-2.24-2,9.28,9.28,0,0,0-3.07-.37h-3.77Z"></path><path d="M463.27,109.39V91.46h2.37v17.93Z"></path><path d="M473.89,109.39V93.57H468V91.46H482.2v2.12h-5.93v15.81Z"></path><path d="M484.53,109.39V91.46h2.37v17.93Z"></path><path d="M489.86,100.66a9.74,9.74,0,0,1,2.4-7,8.15,8.15,0,0,1,6.19-2.53,8.59,8.59,0,0,1,4.48,1.19,7.75,7.75,0,0,1,3,3.31,10.74,10.74,0,0,1,1,4.81,10.57,10.57,0,0,1-1.1,4.88,7.51,7.51,0,0,1-3.12,3.26,8.91,8.91,0,0,1-4.35,1.11,8.48,8.48,0,0,1-4.52-1.22,7.87,7.87,0,0,1-3-3.34A10.11,10.11,0,0,1,489.86,100.66Zm2.45,0a7.18,7.18,0,0,0,1.74,5.11,6.08,6.08,0,0,0,8.78,0,7.61,7.61,0,0,0,1.73-5.34,9.19,9.19,0,0,0-.74-3.82,5.68,5.68,0,0,0-2.17-2.53,5.87,5.87,0,0,0-3.2-.9,6.07,6.07,0,0,0-4.34,1.73Q492.31,96.64,492.31,100.69Z"></path><path d="M509.54,109.39V91.46H512l9.42,14.08V91.46h2.27v17.93h-2.43L511.82,95.3v14.09Z"></path><path class="cls-4" d="M41.23,1039.6H38.4l-1.12-2.93H32.12l-1.06,2.93H28.3l5-12.88h2.75Zm-4.79-5.1-1.78-4.78-1.74,4.78Z"></path><path class="cls-4" d="M42.14,1026.72h2.6v7a14.46,14.46,0,0,0,.1,2.15,2.09,2.09,0,0,0,.8,1.27,2.77,2.77,0,0,0,1.72.48,2.62,2.62,0,0,0,1.67-.45,1.79,1.79,0,0,0,.68-1.11,14.51,14.51,0,0,0,.11-2.19v-7.13h2.6v6.77a17.38,17.38,0,0,1-.21,3.28,3.63,3.63,0,0,1-.78,1.62,3.93,3.93,0,0,1-1.52,1.05,6.6,6.6,0,0,1-2.48.39,7.14,7.14,0,0,1-2.8-.43,4,4,0,0,1-1.51-1.11,3.55,3.55,0,0,1-.73-1.43,15.65,15.65,0,0,1-.25-3.27Z"></path><path class="cls-4" d="M57.61,1039.6V1028.9H53.78v-2.18H64v2.18H60.21v10.71Z"></path><path class="cls-4" d="M65.26,1039.6v-12.88h2.6v5.07H73v-5.07h2.6v12.88H73V1034h-5.1v5.63Z"></path><path class="cls-4" d="M77.27,1033.24a8.19,8.19,0,0,1,.59-3.3,6.07,6.07,0,0,1,1.2-1.77,5,5,0,0,1,1.67-1.16,7.07,7.07,0,0,1,2.78-.51,6.05,6.05,0,0,1,4.56,1.77,7.89,7.89,0,0,1,0,9.79,6,6,0,0,1-4.54,1.76,6.06,6.06,0,0,1-4.57-1.75A6.65,6.65,0,0,1,77.27,1033.24Zm2.68-.09a4.83,4.83,0,0,0,1,3.32,3.47,3.47,0,0,0,5.12,0,4.92,4.92,0,0,0,1-3.36,4.84,4.84,0,0,0-1-3.3,3.6,3.6,0,0,0-5.17,0A4.87,4.87,0,0,0,80,1033.15Z"></path><path class="cls-4" d="M91.36,1039.6v-12.88h5.48a9.38,9.38,0,0,1,3,.35,3,3,0,0,1,1.5,1.24,3.71,3.71,0,0,1,.56,2,3.44,3.44,0,0,1-.85,2.4,4.09,4.09,0,0,1-2.55,1.19,6.07,6.07,0,0,1,1.39,1.08,14.68,14.68,0,0,1,1.48,2.09l1.57,2.51H99.83L98,1036.8a18.16,18.16,0,0,0-1.37-1.89,2,2,0,0,0-.78-.54,4.29,4.29,0,0,0-1.31-.14H94v5.38Zm2.6-7.44h1.92a9.94,9.94,0,0,0,2.34-.16,1.4,1.4,0,0,0,.73-.54,1.68,1.68,0,0,0,.26-1,1.55,1.55,0,0,0-.35-1.05,1.59,1.59,0,0,0-1-.51q-.32,0-1.9,0H94Z"></path><path class="cls-4" d="M103.24,1035.41l2.53-.25a3.09,3.09,0,0,0,.93,1.87,2.8,2.8,0,0,0,1.89.6,2.9,2.9,0,0,0,1.89-.53,1.58,1.58,0,0,0,.64-1.24,1.17,1.17,0,0,0-.27-.78,2.14,2.14,0,0,0-.94-.56q-.46-.16-2.08-.56a7.07,7.07,0,0,1-2.94-1.28,3.35,3.35,0,0,1-1.19-2.59,3.31,3.31,0,0,1,.56-1.84,3.49,3.49,0,0,1,1.61-1.3,6.45,6.45,0,0,1,2.54-.45,5.44,5.44,0,0,1,3.65,1.06,3.75,3.75,0,0,1,1.29,2.84l-2.6.12a2.21,2.21,0,0,0-.72-1.43,2.62,2.62,0,0,0-1.65-.43,3,3,0,0,0-1.78.46.94.94,0,0,0-.41.8,1,1,0,0,0,.39.78,6.84,6.84,0,0,0,2.39.86,12.61,12.61,0,0,1,2.81.93,3.62,3.62,0,0,1,1.42,1.31,4.06,4.06,0,0,1-.1,4.13,3.69,3.69,0,0,1-1.74,1.44,7.3,7.3,0,0,1-2.8.47,5.58,5.58,0,0,1-3.75-1.13A4.91,4.91,0,0,1,103.24,1035.41Z"></path><path class="cls-4" d="M119.48,1033.24a8.19,8.19,0,0,1,.59-3.3,6.07,6.07,0,0,1,1.2-1.77,5,5,0,0,1,1.67-1.16,7.07,7.07,0,0,1,2.78-.51,6.05,6.05,0,0,1,4.56,1.77,7.89,7.89,0,0,1,0,9.79,6,6,0,0,1-4.54,1.76,6.06,6.06,0,0,1-4.57-1.75A6.65,6.65,0,0,1,119.48,1033.24Zm2.68-.09a4.83,4.83,0,0,0,1,3.32,3.47,3.47,0,0,0,5.12,0,4.92,4.92,0,0,0,1-3.36,4.84,4.84,0,0,0-1-3.3,3.6,3.6,0,0,0-5.17,0A4.87,4.87,0,0,0,122.16,1033.15Z"></path><path class="cls-4" d="M133.58,1039.6v-12.88h8.83v2.18h-6.23v3h5.38v2.18h-5.38v5.48Z"></path><path class="cls-4" d="M151.56,1039.6V1028.9h-3.82v-2.18H158v2.18h-3.81v10.71Z"></path><path class="cls-4" d="M159.21,1039.6v-12.88h2.6v5.07h5.1v-5.07h2.6v12.88h-2.6V1034h-5.1v5.63Z"></path><path class="cls-4" d="M171.75,1039.6v-12.88h9.55v2.18h-7v2.86h6.47v2.17h-6.47v3.51h7.2v2.17Z"></path><path class="cls-4" d="M197.59,1039.6h-2.47l-3.48-8.66-1.81,8.66h-2.47l2.69-12.88h2.48l3.49,8.62,1.8-8.62h2.46Z"></path><path class="cls-4" d="M199.83,1039.6l2.69-12.88h9.55l-.45,2.15h-6.9l-.62,2.93h6.67l-.45,2.15h-6.67l-.81,3.5h7.5l-.46,2.15Z"></path><path class="cls-4" d="M223.64,1039.6H221l-.29-9.42L216,1039.6h-2.73l-.48-12.88h2.59l.11,9,4.42-9h2.87l.3,8.92,4.25-8.92h2.57Z"></path><path class="cls-4" d="M238.63,1039.6H236l1-5-3.55-7.87h2.82l1.6,3.64q.57,1.31.76,1.89.33-.57.76-1.21l1.22-1.71,1.82-2.61h3.08l-5.91,8.11Z"></path><path class="cls-4" d="M244.55,1034.55a9.22,9.22,0,0,1,.34-2.41,8.63,8.63,0,0,1,1.37-2.94,6.62,6.62,0,0,1,2.32-2,6.81,6.81,0,0,1,3.18-.73,5.2,5.2,0,0,1,3.86,1.49,5.35,5.35,0,0,1,1.47,3.94,8.69,8.69,0,0,1-1,3.95,7.15,7.15,0,0,1-2.6,2.94,6.86,6.86,0,0,1-3.72,1,5.32,5.32,0,0,1-3-.82,4.56,4.56,0,0,1-1.73-2A6.23,6.23,0,0,1,244.55,1034.55Zm2.62-.05a3.2,3.2,0,0,0,.81,2.22,2.73,2.73,0,0,0,2.13.9,3.49,3.49,0,0,0,2.06-.71,5.15,5.15,0,0,0,1.63-2.14,6.81,6.81,0,0,0,.65-2.8,3.34,3.34,0,0,0-.82-2.39,2.74,2.74,0,0,0-2.08-.87,3.67,3.67,0,0,0-3.16,1.81A7,7,0,0,0,247.16,1034.5Z"></path><path class="cls-4" d="M260,1039.6h-2.65l2.7-12.88h5.72a6.89,6.89,0,0,1,2.3.3,2.61,2.61,0,0,1,1.33,1.11,3.63,3.63,0,0,1,.51,2,3.84,3.84,0,0,1-1,2.71,4.72,4.72,0,0,1-3,1.32,5.19,5.19,0,0,1,1,1.21,32,32,0,0,1,2,4.27H266q-.34-1.09-1.34-3.4a4,4,0,0,0-1.16-1.68,2.48,2.48,0,0,0-1.32-.26h-1.08Zm1.52-7.27h1.41a10,10,0,0,0,2.83-.25,2.28,2.28,0,0,0,1.09-.8,1.92,1.92,0,0,0,.4-1.14,1.16,1.16,0,0,0-.57-1.05,3.48,3.48,0,0,0-1.52-.21h-2.92Z"></path><path class="cls-4" d="M269.78,1039.6l2.69-12.88h2.65l-1.14,5.47,6-5.47h3.55l-5.78,5.05,4.25,7.83h-3l-3.18-6.13-2.5,2.19-.83,3.95Z"></path><path class="cls-4" d="M292.52,1039.6h-2.65l2.25-10.73h-3.78l.45-2.15h10.15l-.45,2.15h-3.73Z"></path><path class="cls-4" d="M297.34,1039.6l2.7-12.88h2.65L300,1039.6Z"></path><path class="cls-4" d="M309.42,1039.6H306.9l-.47-10.77-2,10.77H302l2.69-12.88h3.78l.4,9,4.39-9h3.82l-2.7,12.88H312l2.54-10.69Z"></path><path class="cls-4" d="M316.55,1039.6l2.69-12.88h9.55l-.45,2.15h-6.9l-.62,2.93h6.67l-.45,2.15h-6.67l-.81,3.5h7.5l-.46,2.15Z"></path><path class="cls-4" d="M328.51,1035.43l2.52-.13a2.81,2.81,0,0,0,.41,1.63,2.72,2.72,0,0,0,2.14.69,3,3,0,0,0,1.88-.46,1.4,1.4,0,0,0,.58-1.12,1.21,1.21,0,0,0-.47-1,9.21,9.21,0,0,0-1.83-.94,17.46,17.46,0,0,1-2.19-1.08,3.18,3.18,0,0,1-1.09-1.13,3.23,3.23,0,0,1-.4-1.62,3.5,3.5,0,0,1,1.18-2.7,4.9,4.9,0,0,1,3.41-1.07,5.24,5.24,0,0,1,3.51,1.06,3.92,3.92,0,0,1,1.37,2.83l-2.54.11a2.06,2.06,0,0,0-.67-1.41,2.52,2.52,0,0,0-1.69-.49,2.49,2.49,0,0,0-1.57.39,1.21,1.21,0,0,0-.47,1,1.14,1.14,0,0,0,.43.91,8.82,8.82,0,0,0,1.91,1,10.65,10.65,0,0,1,2.83,1.55,3,3,0,0,1,.91,2.26,3.77,3.77,0,0,1-1.35,2.91,5.43,5.43,0,0,1-3.76,1.21,6.86,6.86,0,0,1-2.88-.56,3.43,3.43,0,0,1-1.72-1.55A4.71,4.71,0,0,1,328.51,1035.43Z"></path><path class="cls-4" d="M344.79,1026.72h5.15a14.89,14.89,0,0,1,2.28.13,3.35,3.35,0,0,1,1.34.53,3.31,3.31,0,0,1,1,1.08,2.92,2.92,0,0,1,.4,1.51,3.05,3.05,0,0,1-1.81,2.79,3.39,3.39,0,0,1,1.81,1.17,3.1,3.1,0,0,1,.63,1.94,3.83,3.83,0,0,1-.41,1.71,3.44,3.44,0,0,1-1.12,1.33,3.69,3.69,0,0,1-1.74.61q-.65.07-3.14.09h-4.39Zm2.6,2.14v3h1.71q1.52,0,1.89,0a1.72,1.72,0,0,0,1.05-.46,1.36,1.36,0,0,0,.38-1,1.41,1.41,0,0,0-.33-1,1.49,1.49,0,0,0-1-.45q-.39,0-2.22,0Zm0,5.12v3.45h2.41a11.82,11.82,0,0,0,1.78-.08,1.61,1.61,0,0,0,.94-.51,1.58,1.58,0,0,0,.36-1.09,1.68,1.68,0,0,0-.28-1,1.59,1.59,0,0,0-.81-.59,8.82,8.82,0,0,0-2.31-.19Z"></path><path class="cls-4" d="M357.33,1039.6v-12.88h9.55v2.18h-7v2.86h6.47v2.17h-6.47v3.51h7.2v2.17Z"></path><path class="cls-4" d="M368.23,1035.41l2.53-.25a3.09,3.09,0,0,0,.93,1.87,2.8,2.8,0,0,0,1.89.6,2.9,2.9,0,0,0,1.89-.53,1.58,1.58,0,0,0,.64-1.24,1.17,1.17,0,0,0-.27-.78,2.14,2.14,0,0,0-.94-.56q-.46-.16-2.08-.56a7.07,7.07,0,0,1-2.94-1.28,3.35,3.35,0,0,1-1.19-2.59,3.31,3.31,0,0,1,.56-1.84,3.49,3.49,0,0,1,1.61-1.3,6.45,6.45,0,0,1,2.54-.45,5.44,5.44,0,0,1,3.65,1.06,3.75,3.75,0,0,1,1.29,2.84l-2.6.12a2.21,2.21,0,0,0-.72-1.43,2.62,2.62,0,0,0-1.65-.43,3,3,0,0,0-1.78.46.94.94,0,0,0-.41.8,1,1,0,0,0,.39.78,6.84,6.84,0,0,0,2.39.86,12.61,12.61,0,0,1,2.81.93,3.62,3.62,0,0,1,1.42,1.31,4.06,4.06,0,0,1-.1,4.13,3.69,3.69,0,0,1-1.74,1.44,7.3,7.3,0,0,1-2.8.47,5.58,5.58,0,0,1-3.75-1.13A4.91,4.91,0,0,1,368.23,1035.41Z"></path><path class="cls-4" d="M383.35,1039.6V1028.9h-3.82v-2.18h10.24v2.18h-3.81v10.71Z"></path><path class="cls-4" d="M390.33,1035.41l2.53-.25a3.09,3.09,0,0,0,.93,1.87,2.8,2.8,0,0,0,1.89.6,2.9,2.9,0,0,0,1.89-.53,1.58,1.58,0,0,0,.64-1.24,1.17,1.17,0,0,0-.27-.78,2.14,2.14,0,0,0-.94-.56q-.46-.16-2.08-.56a7.07,7.07,0,0,1-2.94-1.28,3.35,3.35,0,0,1-1.19-2.59,3.31,3.31,0,0,1,.56-1.84,3.49,3.49,0,0,1,1.61-1.3,6.45,6.45,0,0,1,2.54-.45,5.44,5.44,0,0,1,3.65,1.06,3.75,3.75,0,0,1,1.29,2.84l-2.6.12a2.21,2.21,0,0,0-.72-1.43,2.62,2.62,0,0,0-1.65-.43,3,3,0,0,0-1.78.46.94.94,0,0,0-.41.8,1,1,0,0,0,.39.78,6.84,6.84,0,0,0,2.39.86,12.61,12.61,0,0,1,2.81.93,3.62,3.62,0,0,1,1.42,1.31,4.06,4.06,0,0,1-.1,4.13,3.69,3.69,0,0,1-1.74,1.44,7.3,7.3,0,0,1-2.8.47,5.58,5.58,0,0,1-3.75-1.13A4.91,4.91,0,0,1,390.33,1035.41Z"></path><path class="cls-4" d="M402.55,1039.6v-12.88h9.55v2.18h-7v2.86h6.47v2.17h-6.47v3.51h7.2v2.17Z"></path><path class="cls-4" d="M414.17,1039.6v-12.78h2.6v10.61h6.47v2.17Z"></path><path class="cls-4" d="M424.72,1039.6v-12.78h2.6v10.61h6.47v2.17Z"></path><path class="cls-4" d="M435.19,1039.6v-12.88h9.55v2.18h-7v2.86h6.47v2.17h-6.47v3.51H445v2.17Z"></path><path class="cls-4" d="M446.76,1039.6v-12.88h5.48a9.38,9.38,0,0,1,3,.35,3,3,0,0,1,1.5,1.24,3.71,3.71,0,0,1,.56,2,3.44,3.44,0,0,1-.85,2.4,4.09,4.09,0,0,1-2.55,1.19,6.07,6.07,0,0,1,1.39,1.08,14.68,14.68,0,0,1,1.48,2.09l1.57,2.51h-3.11l-1.88-2.8a18.16,18.16,0,0,0-1.37-1.89,2,2,0,0,0-.78-.54,4.29,4.29,0,0,0-1.31-.14h-.53v5.38Zm2.6-7.44h1.92a9.94,9.94,0,0,0,2.34-.16,1.4,1.4,0,0,0,.73-.54,1.68,1.68,0,0,0,.26-1,1.55,1.55,0,0,0-.35-1.05,1.59,1.59,0,0,0-1-.51q-.32,0-1.9,0h-2Z"></path><path class="cls-4" d="M472.61,1035l2.67.4a6.85,6.85,0,0,1-2.35,3.32,6,6,0,0,1-3.67,1.15,4.81,4.81,0,0,1-3.7-1.42,5.83,5.83,0,0,1-1.33-4.13,9,9,0,0,1,.89-4,6.48,6.48,0,0,1,5.92-3.76,5,5,0,0,1,3.38,1.12,4.59,4.59,0,0,1,1.52,3.05l-2.54.25a2.7,2.7,0,0,0-.81-1.63,2.41,2.41,0,0,0-1.6-.51,3.51,3.51,0,0,0-2.05.67,4.52,4.52,0,0,0-1.52,2.09,7.54,7.54,0,0,0-.57,2.83,3.5,3.5,0,0,0,.74,2.39,2.36,2.36,0,0,0,1.85.84,3,3,0,0,0,1.89-.67A4,4,0,0,0,472.61,1035Z"></path><path class="cls-4" d="M478.53,1039.6h-2.65l2.7-12.88h5.72a6.89,6.89,0,0,1,2.3.3,2.61,2.61,0,0,1,1.33,1.11,3.63,3.63,0,0,1,.51,2,3.84,3.84,0,0,1-1,2.71,4.72,4.72,0,0,1-3,1.32,5.19,5.19,0,0,1,1,1.21,32,32,0,0,1,2,4.27h-2.85q-.34-1.09-1.34-3.4a4,4,0,0,0-1.16-1.68,2.48,2.48,0,0,0-1.32-.26h-1.08Zm1.52-7.27h1.41a10,10,0,0,0,2.83-.25,2.28,2.28,0,0,0,1.09-.8,1.92,1.92,0,0,0,.4-1.14,1.16,1.16,0,0,0-.57-1.05,3.48,3.48,0,0,0-1.52-.21h-2.92Z"></path><path class="cls-4" d="M491.07,1026.72h2.65l-1.46,7-.36,1.72a2.61,2.61,0,0,0,0,.41,1.62,1.62,0,0,0,.56,1.26,2.37,2.37,0,0,0,1.62.5,3.13,3.13,0,0,0,1.58-.36,2.4,2.4,0,0,0,1-1.07,11.52,11.52,0,0,0,.69-2.42l1.48-7h2.65l-1.47,7a14,14,0,0,1-1.07,3.4,4.76,4.76,0,0,1-1.84,1.92,6,6,0,0,1-3.11.74,4.9,4.9,0,0,1-3.45-1.1,3.68,3.68,0,0,1-1.2-2.83,5.43,5.43,0,0,1,.06-.78q0-.28.31-1.6Z"></path><path class="cls-4" d="M510.26,1035l2.67.4a6.85,6.85,0,0,1-2.35,3.32,6,6,0,0,1-3.67,1.15,4.81,4.81,0,0,1-3.7-1.42,5.83,5.83,0,0,1-1.33-4.13,9,9,0,0,1,.89-4,6.48,6.48,0,0,1,5.92-3.76,5,5,0,0,1,3.38,1.12,4.59,4.59,0,0,1,1.52,3.05l-2.54.25a2.7,2.7,0,0,0-.81-1.63,2.41,2.41,0,0,0-1.6-.51,3.51,3.51,0,0,0-2.05.67,4.52,4.52,0,0,0-1.52,2.09,7.54,7.54,0,0,0-.57,2.83,3.5,3.5,0,0,0,.74,2.39,2.36,2.36,0,0,0,1.85.84,3,3,0,0,0,1.89-.67A4,4,0,0,0,510.26,1035Z"></path><path class="cls-4" d="M513.36,1039.6l2.7-12.88h2.65L516,1039.6Z"></path><path class="cls-4" d="M526.46,1036.76h-5.11l-1.55,2.85h-2.72l7.29-12.88h2.94l2.09,12.88h-2.51Zm-.33-2.14-.75-5.19-3.11,5.19Z"></path><path class="cls-4" d="M530.64,1039.6l2.7-12.88H536l-2.24,10.73h6.56l-.45,2.15Z"></path><path class="cls-4" d="M554.68,1035l2.67.4a6.85,6.85,0,0,1-2.35,3.32,6,6,0,0,1-3.67,1.15,4.81,4.81,0,0,1-3.7-1.42,5.83,5.83,0,0,1-1.33-4.13,9,9,0,0,1,.89-4,6.48,6.48,0,0,1,5.92-3.76,5,5,0,0,1,3.38,1.12,4.59,4.59,0,0,1,1.52,3.05l-2.54.25a2.7,2.7,0,0,0-.81-1.63,2.41,2.41,0,0,0-1.6-.51,3.51,3.51,0,0,0-2.05.67,4.52,4.52,0,0,0-1.52,2.09,7.54,7.54,0,0,0-.57,2.83,3.5,3.5,0,0,0,.74,2.39,2.36,2.36,0,0,0,1.85.84,3,3,0,0,0,1.89-.67A4,4,0,0,0,554.68,1035Z"></path><path class="cls-4" d="M558.73,1034.55a9.22,9.22,0,0,1,.34-2.41,8.63,8.63,0,0,1,1.37-2.94,6.62,6.62,0,0,1,2.32-2,6.81,6.81,0,0,1,3.18-.73,5.2,5.2,0,0,1,3.86,1.49,5.35,5.35,0,0,1,1.47,3.94,8.69,8.69,0,0,1-1,3.95,7.15,7.15,0,0,1-2.6,2.94,6.86,6.86,0,0,1-3.72,1,5.32,5.32,0,0,1-3-.82,4.56,4.56,0,0,1-1.73-2A6.23,6.23,0,0,1,558.73,1034.55Zm2.62-.05a3.2,3.2,0,0,0,.81,2.22,2.73,2.73,0,0,0,2.13.9,3.49,3.49,0,0,0,2.06-.71,5.15,5.15,0,0,0,1.63-2.14,6.81,6.81,0,0,0,.65-2.8,3.34,3.34,0,0,0-.82-2.39,2.74,2.74,0,0,0-2.08-.87,3.67,3.67,0,0,0-3.16,1.81A7,7,0,0,0,561.35,1034.5Z"></path><path class="cls-4" d="M581.74,1039.6h-2.47l-3.48-8.66L574,1039.6h-2.47l2.69-12.88h2.48l3.49,8.62,1.8-8.62h2.46Z"></path><path class="cls-4" d="M590.44,1039.6h-2.83l-2.31-12.88h2.65l1.63,9.75,5.33-9.75h2.63Z"></path><path class="cls-4" d="M595.55,1039.6l2.69-12.88h9.55l-.45,2.15h-6.9l-.62,2.93h6.67l-.45,2.15h-6.67l-.81,3.5h7.5l-.46,2.15Z"></path><path class="cls-4" d="M609.81,1039.6h-2.65l2.7-12.88h5.72a6.89,6.89,0,0,1,2.3.3,2.61,2.61,0,0,1,1.33,1.11,3.63,3.63,0,0,1,.51,2,3.84,3.84,0,0,1-1,2.71,4.72,4.72,0,0,1-3,1.32,5.19,5.19,0,0,1,1,1.21,32,32,0,0,1,2,4.27h-2.85q-.34-1.09-1.34-3.4a4,4,0,0,0-1.16-1.68,2.48,2.48,0,0,0-1.32-.26h-1.08Zm1.52-7.27h1.41a10,10,0,0,0,2.83-.25,2.28,2.28,0,0,0,1.09-.8,1.92,1.92,0,0,0,.4-1.14,1.16,1.16,0,0,0-.57-1.05,3.48,3.48,0,0,0-1.52-.21h-2.92Z"></path><path class="cls-4" d="M620.06,1035.43l2.52-.13a2.81,2.81,0,0,0,.41,1.63,2.72,2.72,0,0,0,2.14.69,3,3,0,0,0,1.88-.46,1.4,1.4,0,0,0,.58-1.12,1.21,1.21,0,0,0-.47-1,9.21,9.21,0,0,0-1.83-.94,17.46,17.46,0,0,1-2.19-1.08,3.18,3.18,0,0,1-1.09-1.13,3.23,3.23,0,0,1-.4-1.62,3.5,3.5,0,0,1,1.18-2.7,4.9,4.9,0,0,1,3.41-1.07,5.24,5.24,0,0,1,3.51,1.06,3.92,3.92,0,0,1,1.37,2.83l-2.54.11a2.06,2.06,0,0,0-.67-1.41,2.52,2.52,0,0,0-1.69-.49,2.49,2.49,0,0,0-1.57.39,1.21,1.21,0,0,0-.47,1,1.14,1.14,0,0,0,.43.91,8.82,8.82,0,0,0,1.91,1,10.65,10.65,0,0,1,2.83,1.55,3,3,0,0,1,.91,2.26,3.77,3.77,0,0,1-1.35,2.91,5.43,5.43,0,0,1-3.76,1.21,6.86,6.86,0,0,1-2.88-.56,3.43,3.43,0,0,1-1.72-1.55A4.71,4.71,0,0,1,620.06,1035.43Z"></path><path class="cls-4" d="M639.65,1036.76h-5.11L633,1039.6h-2.72l7.29-12.88h2.94l2.09,12.88h-2.51Zm-.33-2.14-.75-5.19-3.11,5.19Z"></path><path class="cls-4" d="M648,1039.6h-2.65l2.25-10.73h-3.78l.45-2.15h10.15l-.45,2.15h-3.73Z"></path><path class="cls-4" d="M652.85,1039.6l2.7-12.88h2.65l-2.69,12.88Z"></path><path class="cls-4" d="M658.35,1034.55a9.22,9.22,0,0,1,.34-2.41,8.63,8.63,0,0,1,1.37-2.94,6.62,6.62,0,0,1,2.32-2,6.81,6.81,0,0,1,3.18-.73,5.2,5.2,0,0,1,3.86,1.49,5.35,5.35,0,0,1,1.47,3.94,8.69,8.69,0,0,1-1,3.95,7.15,7.15,0,0,1-2.6,2.94,6.86,6.86,0,0,1-3.72,1,5.32,5.32,0,0,1-3-.82,4.56,4.56,0,0,1-1.73-2A6.23,6.23,0,0,1,658.35,1034.55Zm2.62-.05a3.2,3.2,0,0,0,.81,2.22,2.73,2.73,0,0,0,2.13.9,3.49,3.49,0,0,0,2.06-.71,5.15,5.15,0,0,0,1.63-2.14,6.81,6.81,0,0,0,.65-2.8,3.34,3.34,0,0,0-.82-2.39,2.74,2.74,0,0,0-2.08-.87,3.67,3.67,0,0,0-3.16,1.81A7,7,0,0,0,661,1034.5Z"></path><path class="cls-4" d="M681.37,1039.6H678.9l-3.48-8.66-1.81,8.66h-2.47l2.69-12.88h2.48l3.49,8.62,1.8-8.62h2.46Z"></path><path class="cls-4" d="M684,1035.43l2.52-.13a2.81,2.81,0,0,0,.41,1.63,2.72,2.72,0,0,0,2.14.69,3,3,0,0,0,1.88-.46,1.4,1.4,0,0,0,.58-1.12,1.21,1.21,0,0,0-.47-1,9.21,9.21,0,0,0-1.83-.94,17.46,17.46,0,0,1-2.19-1.08,3.18,3.18,0,0,1-1.09-1.13,3.23,3.23,0,0,1-.4-1.62,3.5,3.5,0,0,1,1.18-2.7,4.9,4.9,0,0,1,3.41-1.07,5.24,5.24,0,0,1,3.51,1.06,3.92,3.92,0,0,1,1.37,2.83l-2.54.11a2.06,2.06,0,0,0-.67-1.41,2.52,2.52,0,0,0-1.69-.49,2.49,2.49,0,0,0-1.57.39,1.21,1.21,0,0,0-.47,1,1.14,1.14,0,0,0,.43.91,8.82,8.82,0,0,0,1.91,1,10.65,10.65,0,0,1,2.83,1.55,3,3,0,0,1,.91,2.26,3.77,3.77,0,0,1-1.35,2.91,5.43,5.43,0,0,1-3.76,1.21,6.86,6.86,0,0,1-2.88-.56,3.43,3.43,0,0,1-1.72-1.55A4.71,4.71,0,0,1,684,1035.43Z"></path><g id="crucial_shadow" data-name="crucial shadow" class="cls-5"><path d="M115.28,270.09q10.84,7.7,10.84,16.89a11.44,11.44,0,0,1-2.75,7.34q-2.76,3.4-8.5,3.4a10.63,10.63,0,0,1-7.36-2.87,16.64,16.64,0,0,1-4.61-8.38l-1.44-5.75q-1.56-6.35-5.39-9t-10.42-2.51q-13.65,0-23.05,11.93t-9.4,31.71a54.24,54.24,0,0,0,10.36,32.49q10.36,14.39,28,14.39a33.44,33.44,0,0,0,22.15-8.16q5.51-4.68,12.45-14.88l3.35,2q-6.83,14.39-14.37,22.78-14.49,16.06-33.53,16.06-18.68,0-33-14.73t-14.37-40q0-24.79,15.69-42.63T89.48,262.4Q104.44,262.4,115.28,270.09Z"></path><path d="M139.43,371.36q11-1,14.61-3.89T157.63,355V301q0-11.85-2.22-16.94t-8.08-5.09a22.38,22.38,0,0,0-3.17.3q-2,.3-4.13.78v-4l14-4.91q7.16-2.51,9.91-3.59,6-2.27,12.29-5.15c.56,0,.89.2,1,.6a10.93,10.93,0,0,1,.18,2.51v19.64a91.6,91.6,0,0,1,14.83-16.64q7.15-6,14.83-6a13.87,13.87,0,0,1,10,3.65,13,13,0,0,1,.91,17.42,9.38,9.38,0,0,1-7.36,3.35q-4.55,0-9.16-4.19t-7.24-4.19q-4.19,0-10.3,6.77t-6.11,14v54q0,10.3,4.79,14.31t15.93,3.77v4h-59Z"></path><path d="M259,264.43v76.64q0,8.14,2.28,13.05,4.43,9.1,16.28,9.1a27.69,27.69,0,0,0,15.93-5.39,46.7,46.7,0,0,0,9-8.26V284q0-9.22-3.59-12.09t-14.37-3.47v-4h38.68v84.3q0,8.14,2.93,11.2t12.39,2.69V366q-6.59,1.8-9.7,2.69T318.35,372q-3.12,1.08-13.65,5.15a.65.65,0,0,1-.72-.54,5.83,5.83,0,0,1-.12-1.26V356q-8.14,9.7-14.85,14.37a36.76,36.76,0,0,1-21.55,7.18q-10.42,0-19.64-7.43t-9.34-24.58V283.35q0-9.51-4.07-12.72-2.64-2-11.26-2.85v-3.35Z"></path><path d="M431.36,270.09q10.84,7.7,10.84,16.89a11.44,11.44,0,0,1-2.75,7.34q-2.76,3.4-8.5,3.4a10.63,10.63,0,0,1-7.36-2.87,16.64,16.64,0,0,1-4.61-8.38l-1.44-5.75q-1.56-6.35-5.39-9t-10.42-2.51q-13.65,0-23.05,11.93t-9.4,31.71a54.24,54.24,0,0,0,10.36,32.49q10.36,14.39,28,14.39a33.44,33.44,0,0,0,22.15-8.16q5.51-4.68,12.45-14.88l3.35,2q-6.83,14.39-14.37,22.78-14.49,16.06-33.53,16.06-18.68,0-33-14.73t-14.37-40q0-24.79,15.69-42.63t39.64-17.84Q420.52,262.4,431.36,270.09Z"></path><path d="M459.22,372q12.81-1.2,16.17-4.37t3.35-17.18V293.29q0-7.78-1.08-10.78-1.8-4.91-7.54-4.91a13.76,13.76,0,0,0-2.57.24q-1.26.24-7.24,1.92V276l5.15-1.68q21-6.83,29.22-10.3a15.57,15.57,0,0,1,4.31-1.44,6.53,6.53,0,0,1,.24,1.8v86q0,13.65,3.29,17.12T517.41,372v3.35h-58.2Zm19-160.11a11.87,11.87,0,0,1,8.86-3.69,12.5,12.5,0,1,1-12.45,12.51A12.21,12.21,0,0,1,478.26,211.85Z"></path><path d="M549.89,322.51q11-7.18,43.95-19.52V292.81q0-12.21-2.39-17-4.07-8-16.88-8a23.26,23.26,0,0,0-11.62,3.11q-5.51,3.23-5.51,8.86a32.31,32.31,0,0,0,.6,4.85,34.56,34.56,0,0,1,.6,4.37q0,6.71-4.43,9.34a11.14,11.14,0,0,1-6,1.56q-5.39,0-8.26-3.53a12.13,12.13,0,0,1-2.87-7.84q0-8.38,10.36-17.54t30.35-9.16q23.23,0,31.49,15.09,4.43,8.26,4.43,24.07v48q0,6.95,1,9.58a6.25,6.25,0,0,0,6.47,4.67,10.77,10.77,0,0,0,4.55-.84,46.41,46.41,0,0,0,6.23-4.07v6.23a39,39,0,0,1-8.26,7.66A24.08,24.08,0,0,1,610,376.75q-8.14,0-11.8-5.27a23.62,23.62,0,0,1-4-12.57,112.71,112.71,0,0,1-15.57,11.73q-10.9,6.47-20.72,6.47a24.89,24.89,0,0,1-17.84-7.24q-7.54-7.24-7.54-18.38Q532.53,334.13,549.89,322.51ZM593.83,309A109.75,109.75,0,0,0,571.08,319q-17.24,10.66-17.24,24.19,0,10.9,7.18,16a17.44,17.44,0,0,0,10.42,3.35,28.61,28.61,0,0,0,15.15-4.43q7.24-4.43,7.24-11.26Z"></path><path d="M638.4,372q11.14-1.08,15.09-4.49t4-13.35v-117q0-7.9-1.32-10.9-2.4-5-9.7-5a20.53,20.53,0,0,0-3.65.36q-2,.36-5,1.08v-4q16.17-4.31,38.92-11.5a.92.92,0,0,1,1,.72,16.44,16.44,0,0,1,.18,3.11V354.6q0,10.42,3.59,13.47T696.36,372v3.35h-58Z"></path></g><path class="cls-1" d="M113.29,268.33Q124,275.93,124,285a11.3,11.3,0,0,1-2.72,7.25q-2.72,3.36-8.4,3.36a10.5,10.5,0,0,1-7.27-2.84A16.44,16.44,0,0,1,101,284.5l-1.42-5.68q-1.54-6.27-5.32-8.87T84,267.47q-13.48,0-22.77,11.79T52,310.58a53.58,53.58,0,0,0,10.23,32.1q10.23,14.21,27.62,14.21a33,33,0,0,0,21.88-8.06q5.44-4.62,12.3-14.69l3.31,2q-6.74,14.21-14.19,22.5Q98.8,374.52,80,374.51q-18.45,0-32.65-14.55T33.15,320.46q0-24.48,15.5-42.11T87.8,260.72Q102.59,260.72,113.29,268.33Z"></path><path class="cls-1" d="M137.15,368.36q10.88-.95,14.43-3.84t3.55-12.36V298.81q0-11.71-2.19-16.74t-8-5a22.11,22.11,0,0,0-3.13.3q-2,.3-4.08.77v-3.9l13.79-4.85q7.08-2.48,9.79-3.55,5.89-2.25,12.14-5.09c.55,0,.88.2,1,.59a10.8,10.8,0,0,1,.18,2.48v19.4a90.48,90.48,0,0,1,14.65-16.44q7.06-5.91,14.65-5.91a13.7,13.7,0,0,1,9.84,3.61,12.8,12.8,0,0,1,.9,17.21,9.26,9.26,0,0,1-7.27,3.31q-4.5,0-9-4.14t-7.16-4.14q-4.14,0-10.17,6.68t-6,13.78V350.5q0,10.17,4.73,14.13t15.73,3.73v3.9H137.15Z"></path><path class="cls-1" d="M255.22,262.73v75.7q0,8,2.25,12.89,4.37,9,16.09,9A27.36,27.36,0,0,0,289.29,355a46.13,46.13,0,0,0,8.87-8.16V282q0-9.11-3.55-11.95t-14.19-3.43v-3.9h38.21V346q0,8,2.9,11.06t12.24,2.66V363q-6.51,1.77-9.58,2.66T313.89,369Q310.81,370,300.4,374a.64.64,0,0,1-.71-.53,5.76,5.76,0,0,1-.12-1.24v-19q-8,9.58-14.67,14.19a36.31,36.31,0,0,1-21.29,7.1q-10.29,0-19.4-7.34T235,342.89V281.42q0-9.39-4-12.56-2.6-2-11.12-2.82v-3.31Z"></path><path class="cls-1" d="M425.51,268.33q10.7,7.6,10.7,16.68a11.3,11.3,0,0,1-2.72,7.25q-2.72,3.36-8.4,3.36a10.5,10.5,0,0,1-7.27-2.84,16.44,16.44,0,0,1-4.55-8.28l-1.42-5.68q-1.54-6.27-5.32-8.87t-10.29-2.48q-13.48,0-22.77,11.79t-9.29,31.33a53.58,53.58,0,0,0,10.23,32.1q10.23,14.21,27.62,14.21a33,33,0,0,0,21.88-8.06q5.44-4.62,12.3-14.69l3.31,2q-6.74,14.21-14.19,22.5Q411,374.52,392.22,374.51q-18.45,0-32.65-14.55t-14.19-39.51q0-24.48,15.5-42.11T400,260.72Q414.81,260.72,425.51,268.33Z"></path><path class="cls-1" d="M453,369q12.66-1.18,16-4.32t3.31-17V291.24q0-7.69-1.06-10.65-1.77-4.85-7.45-4.85a13.59,13.59,0,0,0-2.54.24q-1.24.24-7.16,1.89v-3.67l5.09-1.66q20.7-6.74,28.86-10.17a15.38,15.38,0,0,1,4.26-1.42,6.45,6.45,0,0,1,.24,1.77v84.93q0,13.48,3.25,16.91T510.52,369v3.31H453Zm18.81-158.16a11.73,11.73,0,0,1,8.75-3.65,12.35,12.35,0,1,1-12.3,12.36A12.06,12.06,0,0,1,471.84,210.79Z"></path><path class="cls-1" d="M542.6,320.1Q553.48,313,586,300.82V290.77q0-12.07-2.37-16.8Q579.62,266,567,266a23,23,0,0,0-11.47,3.08q-5.44,3.19-5.44,8.75a31.92,31.92,0,0,0,.59,4.79,34.14,34.14,0,0,1,.59,4.32q0,6.63-4.38,9.23a11,11,0,0,1-5.91,1.54q-5.32,0-8.16-3.49a12,12,0,0,1-2.84-7.75q0-8.28,10.23-17.33t30-9q22.95,0,31.11,14.9,4.37,8.16,4.38,23.77v47.43q0,6.86.95,9.46a6.17,6.17,0,0,0,6.39,4.61,10.63,10.63,0,0,0,4.5-.83,45.84,45.84,0,0,0,6.15-4v6.15a38.55,38.55,0,0,1-8.16,7.57A23.78,23.78,0,0,1,602,373.69q-8,0-11.65-5.2a23.33,23.33,0,0,1-4-12.42A111.34,111.34,0,0,1,571,367.65Q560.22,374,550.53,374a24.59,24.59,0,0,1-17.62-7.16,24.09,24.09,0,0,1-7.45-18.16Q525.45,331.58,542.6,320.1ZM586,306.74a108.42,108.42,0,0,0-22.47,9.94q-17,10.53-17,23.89,0,10.77,7.1,15.85a17.23,17.23,0,0,0,10.29,3.31,28.26,28.26,0,0,0,15-4.38Q586,351,586,344.23Z"></path><path class="cls-1" d="M630,369q11-1.06,14.9-4.44t3.9-13.19V235.77q0-7.81-1.3-10.76-2.37-5-9.58-5a20.28,20.28,0,0,0-3.61.35q-2,.36-4.91,1.06v-3.9q16-4.26,38.44-11.35a.91.91,0,0,1,1,.71,16.24,16.24,0,0,1,.18,3.08V351.8q0,10.29,3.55,13.31T687.28,369v3.31H630Z"></path><rect class="cls-6" x="25.02" y="99.43" width="152" height="2"></rect><rect class="cls-6" x="544.72" y="99.43" width="152" height="2"></rect><path class="cls-7" d="M144.22,721.21h-6v-4.9h17.24v4.9h-6v31.42h-5.2Z"></path><path class="cls-7" d="M155.34,735.44a19.16,19.16,0,0,1,.2-2.91,6.85,6.85,0,0,1,3.42-5,8.87,8.87,0,0,1,8.26,0,7,7,0,0,1,2.65,2.7,7.07,7.07,0,0,1,.77,2.35,19.22,19.22,0,0,1,.2,2.91V744a19.21,19.21,0,0,1-.2,2.91,7.06,7.06,0,0,1-.77,2.35,7,7,0,0,1-2.65,2.7,8.88,8.88,0,0,1-8.26,0,6.86,6.86,0,0,1-3.42-5,19.15,19.15,0,0,1-.2-2.91Zm5.2,9.33a3.15,3.15,0,0,0,.69,2.22,2.71,2.71,0,0,0,3.72,0,3.15,3.15,0,0,0,.69-2.22V734.62a3.16,3.16,0,0,0-.69-2.22,2.71,2.71,0,0,0-3.72,0,3.15,3.15,0,0,0-.69,2.22Z"></path><path class="cls-7" d="M175.74,735.44a19.16,19.16,0,0,1,.2-2.91,6.85,6.85,0,0,1,3.42-5,8.87,8.87,0,0,1,8.26,0,7,7,0,0,1,2.65,2.7,7.07,7.07,0,0,1,.77,2.35,19.22,19.22,0,0,1,.2,2.91V744a19.21,19.21,0,0,1-.2,2.91,7.06,7.06,0,0,1-.77,2.35,7,7,0,0,1-2.65,2.7,8.88,8.88,0,0,1-8.26,0,6.86,6.86,0,0,1-3.42-5,19.15,19.15,0,0,1-.2-2.91Zm5.2,9.33a3.15,3.15,0,0,0,.69,2.22,2.71,2.71,0,0,0,3.72,0,3.15,3.15,0,0,0,.69-2.22V734.62a3.16,3.16,0,0,0-.69-2.22,2.71,2.71,0,0,0-3.72,0,3.15,3.15,0,0,0-.69,2.22Z"></path><path class="cls-7" d="M196.29,716.31h5.2v29a2.86,2.86,0,0,0,.54,2,3.38,3.38,0,0,0,2,.69v4.9a17.18,17.18,0,0,1-3.24-.28,5.53,5.53,0,0,1-2.45-1.07,5,5,0,0,1-1.53-2.22,10.61,10.61,0,0,1-.54-3.67Z"></path><path class="cls-7" d="M217,734a2.59,2.59,0,0,0-.84-2,2.74,2.74,0,0,0-1.81-.66,2.33,2.33,0,0,0-1.89.79,2.74,2.74,0,0,0-.66,1.81,3,3,0,0,0,.36,1.4,3.32,3.32,0,0,0,1.84,1.25l3.06,1.22a7.43,7.43,0,0,1,4,3.06,8.45,8.45,0,0,1,1.1,4.23,7.8,7.8,0,0,1-.59,3,8.07,8.07,0,0,1-1.61,2.47,7.33,7.33,0,0,1-2.45,1.68,7.83,7.83,0,0,1-3.11.61,8.31,8.31,0,0,1-2.91-.51,7.2,7.2,0,0,1-2.42-1.48,7.48,7.48,0,0,1-1.71-2.42,8.64,8.64,0,0,1-.71-3.39h4.9a5,5,0,0,0,.74,2,2.26,2.26,0,0,0,2.07.92,3.07,3.07,0,0,0,2-.74,2.54,2.54,0,0,0,.89-2.07,3,3,0,0,0-.56-1.84,4.42,4.42,0,0,0-2-1.33l-2.5-.92a8.52,8.52,0,0,1-3.85-2.73,7,7,0,0,1-1.4-4.41,7.51,7.51,0,0,1,.61-3,7.29,7.29,0,0,1,1.66-2.4,7.68,7.68,0,0,1,2.42-1.55,7.76,7.76,0,0,1,3-.56,7.3,7.3,0,0,1,2.93.59,7,7,0,0,1,3.85,4,8,8,0,0,1,.56,3Z"></path><path class="cls-7" d="M238.77,730.84h-2.55v-4.08h2.55v-3.52a8,8,0,0,1,.56-3.19,6,6,0,0,1,1.5-2.14,5.85,5.85,0,0,1,2.14-1.22,8.08,8.08,0,0,1,2.47-.38h2.4v4.9H245.5q-1.53,0-1.53,1.79v3.77h3.88v4.08H244v21.78h-5.2Z"></path><path class="cls-7" d="M250.5,735.44a19.16,19.16,0,0,1,.2-2.91,6.85,6.85,0,0,1,3.42-5,8.87,8.87,0,0,1,8.26,0,7,7,0,0,1,2.65,2.7,7.07,7.07,0,0,1,.77,2.35,19.22,19.22,0,0,1,.2,2.91V744a19.21,19.21,0,0,1-.2,2.91,7.06,7.06,0,0,1-.77,2.35,7,7,0,0,1-2.65,2.7,8.88,8.88,0,0,1-8.26,0,6.86,6.86,0,0,1-3.42-5,19.15,19.15,0,0,1-.2-2.91Zm5.2,9.33a3.15,3.15,0,0,0,.69,2.22,2.71,2.71,0,0,0,3.72,0,3.15,3.15,0,0,0,.69-2.22V734.62a3.16,3.16,0,0,0-.69-2.22,2.71,2.71,0,0,0-3.72,0,3.15,3.15,0,0,0-.69,2.22Z"></path><path class="cls-7" d="M271.36,726.76h5.2v2.75a15.75,15.75,0,0,1,3.11-2.24,7.94,7.94,0,0,1,3.77-.82V732a4.22,4.22,0,0,0-1.58-.31,6.21,6.21,0,0,0-1.76.28,4.82,4.82,0,0,0-1.73.94,5.05,5.05,0,0,0-1.3,1.73,6.15,6.15,0,0,0-.51,2.65v15.35h-5.2Z"></path><path class="cls-7" d="M298.39,716.31h8.36q9.18,0,9.18,10.66a13.47,13.47,0,0,1-1,5.43,7.69,7.69,0,0,1-3.49,3.65l5.61,16.58h-5.51l-4.84-15.5h-3.11v15.5h-5.2Zm5.2,16.22h3a5.23,5.23,0,0,0,2.19-.38A2.82,2.82,0,0,0,310,731a4.67,4.67,0,0,0,.59-1.76,19.28,19.28,0,0,0,0-4.85,4.39,4.39,0,0,0-.64-1.79,2.89,2.89,0,0,0-1.35-1.1,6.13,6.13,0,0,0-2.29-.36h-2.7Z"></path><path class="cls-7" d="M326.08,741.66v3.52a2.5,2.5,0,0,0,.69,1.89,2.57,2.57,0,0,0,1.86.66,2,2,0,0,0,2-.87,4.68,4.68,0,0,0,.59-1.73h5.2a8.65,8.65,0,0,1-.54,3.06,6.77,6.77,0,0,1-1.56,2.45,7.33,7.33,0,0,1-2.45,1.68,8.1,8.1,0,0,1-3.21.61,8,8,0,0,1-4.13-1,6.86,6.86,0,0,1-3.42-5,19.15,19.15,0,0,1-.2-2.91v-8.52a19.16,19.16,0,0,1,.2-2.91,6.85,6.85,0,0,1,3.42-5,8,8,0,0,1,4.13-1,8.26,8.26,0,0,1,3.24.61,6.84,6.84,0,0,1,2.45,1.71,7.68,7.68,0,0,1,1.53,2.58,9.22,9.22,0,0,1,.54,3.16v7.14Zm0-4.08h5.1v-3a3.16,3.16,0,0,0-.69-2.22,2.71,2.71,0,0,0-3.72,0,3.15,3.15,0,0,0-.69,2.22Z"></path><path class="cls-7" d="M351.17,734a2.59,2.59,0,0,0-.84-2,2.74,2.74,0,0,0-1.81-.66,2.33,2.33,0,0,0-1.89.79A2.74,2.74,0,0,0,346,734a3,3,0,0,0,.36,1.4,3.32,3.32,0,0,0,1.84,1.25l3.06,1.22a7.43,7.43,0,0,1,4,3.06,8.45,8.45,0,0,1,1.1,4.23,7.8,7.8,0,0,1-.59,3,8.07,8.07,0,0,1-1.61,2.47,7.33,7.33,0,0,1-2.45,1.68,7.83,7.83,0,0,1-3.11.61,8.31,8.31,0,0,1-2.91-.51,7.2,7.2,0,0,1-2.42-1.48,7.48,7.48,0,0,1-1.71-2.42,8.64,8.64,0,0,1-.71-3.39h4.9a5,5,0,0,0,.74,2,2.26,2.26,0,0,0,2.07.92,3.07,3.07,0,0,0,2-.74,2.54,2.54,0,0,0,.89-2.07,3,3,0,0,0-.56-1.84,4.42,4.42,0,0,0-2-1.33l-2.5-.92a8.52,8.52,0,0,1-3.85-2.73,7,7,0,0,1-1.4-4.41,7.51,7.51,0,0,1,.61-3,7.29,7.29,0,0,1,1.66-2.4,7.68,7.68,0,0,1,2.42-1.55,7.76,7.76,0,0,1,3-.56,7.3,7.3,0,0,1,2.93.59,7,7,0,0,1,3.85,4,8,8,0,0,1,.56,3Z"></path><path class="cls-7" d="M360.76,735.44a19.16,19.16,0,0,1,.2-2.91,6.85,6.85,0,0,1,3.42-5,8.87,8.87,0,0,1,8.26,0,7,7,0,0,1,2.65,2.7,7.07,7.07,0,0,1,.77,2.35,19.22,19.22,0,0,1,.2,2.91V744a19.21,19.21,0,0,1-.2,2.91,7.06,7.06,0,0,1-.77,2.35,7,7,0,0,1-2.65,2.7,8.88,8.88,0,0,1-8.26,0,6.86,6.86,0,0,1-3.42-5,19.15,19.15,0,0,1-.2-2.91Zm5.2,9.33a3.15,3.15,0,0,0,.69,2.22,2.71,2.71,0,0,0,3.72,0,3.15,3.15,0,0,0,.69-2.22V734.62a3.16,3.16,0,0,0-.69-2.22,2.71,2.71,0,0,0-3.72,0,3.15,3.15,0,0,0-.69,2.22Z"></path><path class="cls-7" d="M381.31,716.31h5.2v29a2.86,2.86,0,0,0,.54,2,3.38,3.38,0,0,0,2,.69v4.9a17.18,17.18,0,0,1-3.24-.28,5.53,5.53,0,0,1-2.45-1.07,5,5,0,0,1-1.53-2.22,10.61,10.61,0,0,1-.54-3.67Z"></path><path class="cls-7" d="M401.76,752.62h-4.59l-6.73-25.86h5.51l3.47,16.52h.1L403,726.76h5.51Z"></path><path class="cls-7" d="M412.11,716.31h5.2v5.2h-5.2Zm0,10.45h5.2v25.86h-5.2Z"></path><path class="cls-7" d="M423.13,726.76h5.2v2.5h.1a7.39,7.39,0,0,1,2-2,5.05,5.05,0,0,1,2.93-.79,6,6,0,0,1,1.94.33,4.49,4.49,0,0,1,1.73,1.1,5.53,5.53,0,0,1,1.22,2,8.23,8.23,0,0,1,.46,2.93v19.84h-5.2v-17.9a3.46,3.46,0,0,0-.66-2.24,2.29,2.29,0,0,0-1.89-.82,2.19,2.19,0,0,0-2,.92,5.13,5.13,0,0,0-.56,2.65v17.39h-5.2Z"></path><path class="cls-7" d="M449.7,755.63a2.91,2.91,0,0,0,.74,1.73,2.49,2.49,0,0,0,2,.82,2.1,2.1,0,0,0,1.84-.79,3.4,3.4,0,0,0,.56-2v-5.1h-.1a6.3,6.3,0,0,1-2.07,2,5.48,5.48,0,0,1-2.78.69,4.73,4.73,0,0,1-4.54-2.45,6.9,6.9,0,0,1-.66-2.14,22.59,22.59,0,0,1-.2-3.42v-9.84a39.89,39.89,0,0,1,.15-4.13,5.14,5.14,0,0,1,.66-2.14,5.56,5.56,0,0,1,1.71-1.68,5.47,5.47,0,0,1,2.93-.66,5.9,5.9,0,0,1,1.66.2,5,5,0,0,1,1.25.56,5.4,5.4,0,0,1,1,.84l1,1v-2.35h5.2v29a8.76,8.76,0,0,1-.43,2.68,6.83,6.83,0,0,1-1.4,2.45,7.35,7.35,0,0,1-2.45,1.79,8.28,8.28,0,0,1-3.52.69,8.51,8.51,0,0,1-2.45-.38,6.87,6.87,0,0,1-2.37-1.28,7.66,7.66,0,0,1-1.89-2.37,10.37,10.37,0,0,1-1-3.72Zm0-11a4.17,4.17,0,0,0,.54,2.14,2.13,2.13,0,0,0,2,.92,2.44,2.44,0,0,0,1.86-.79,2.83,2.83,0,0,0,.74-2v-10a3.6,3.6,0,0,0-.71-2.32,2.3,2.3,0,0,0-1.89-.89,2.12,2.12,0,0,0-1.94,1,4.72,4.72,0,0,0-.61,2.55Z"></path><path class="cls-7" d="M487.39,752.62H482.8l-7.4-36.31h5.51L485,741.66h.1l4.18-25.35h5.51Z"></path><path class="cls-7" d="M499.17,716.31h5.2v5.2h-5.2Zm0,10.45h5.2v25.86h-5.2Z"></path><path class="cls-7" d="M509.73,735.44a19.16,19.16,0,0,1,.2-2.91,6.85,6.85,0,0,1,3.42-5,8.87,8.87,0,0,1,8.26,0,7,7,0,0,1,2.65,2.7,7.07,7.07,0,0,1,.77,2.35,19.22,19.22,0,0,1,.2,2.91V744a19.21,19.21,0,0,1-.2,2.91,7.06,7.06,0,0,1-.77,2.35,7,7,0,0,1-2.65,2.7,8.88,8.88,0,0,1-8.26,0,6.86,6.86,0,0,1-3.42-5,19.15,19.15,0,0,1-.2-2.91Zm5.2,9.33a3.15,3.15,0,0,0,.69,2.22,2.71,2.71,0,0,0,3.72,0,3.15,3.15,0,0,0,.69-2.22V734.62a3.16,3.16,0,0,0-.69-2.22,2.71,2.71,0,0,0-3.72,0,3.15,3.15,0,0,0-.69,2.22Z"></path><path class="cls-7" d="M530.28,716.31h5.2v29a2.86,2.86,0,0,0,.54,2,3.38,3.38,0,0,0,2,.69v4.9a17.18,17.18,0,0,1-3.24-.28,5.53,5.53,0,0,1-2.45-1.07,5,5,0,0,1-1.53-2.22,10.61,10.61,0,0,1-.54-3.67Z"></path><path class="cls-7" d="M551.44,750h-.1a9.6,9.6,0,0,1-2.07,2.19,4.89,4.89,0,0,1-2.93.76,6.78,6.78,0,0,1-1.89-.28,4.71,4.71,0,0,1-1.81-1,5.34,5.34,0,0,1-1.38-2.09,9.61,9.61,0,0,1-.54-3.49,18.43,18.43,0,0,1,.36-3.85,6.1,6.1,0,0,1,1.3-2.75,5.62,5.62,0,0,1,2.52-1.63,12.75,12.75,0,0,1,4-.54q.56,0,1.12.05l1.38.1v-2.7a4,4,0,0,0-.56-2.19,2.24,2.24,0,0,0-2-.87,2.94,2.94,0,0,0-1.86.66,3.15,3.15,0,0,0-1.1,1.94h-5a8.49,8.49,0,0,1,2.35-5.61,7.38,7.38,0,0,1,2.45-1.61,8.39,8.39,0,0,1,3.21-.59,9.06,9.06,0,0,1,3.06.51,6.76,6.76,0,0,1,2.47,1.53A7.31,7.31,0,0,1,556,731a9.58,9.58,0,0,1,.61,3.57v18h-5.2Zm0-8.47a8.6,8.6,0,0,0-1.43-.15,5.12,5.12,0,0,0-2.88.79,3.2,3.2,0,0,0-1.2,2.88,3.79,3.79,0,0,0,.71,2.4,2.38,2.38,0,0,0,2,.92,2.57,2.57,0,0,0,2.07-.87,3.66,3.66,0,0,0,.74-2.45Z"></path><path class="cls-7" d="M562,718.91h5.2v7.85h3.21v4.08H567.2v14.33a4.48,4.48,0,0,0,.18,1.43,1.46,1.46,0,0,0,.56.76,2.06,2.06,0,0,0,1,.31q.61.05,1.48.05v4.9h-2.14a7,7,0,0,1-3-.56,5.36,5.36,0,0,1-1.91-1.43,5.58,5.58,0,0,1-1-2,7.28,7.28,0,0,1-.33-2.12V730.84h-2.6v-4.08H562Z"></path><path class="cls-7" d="M578.68,741.66v3.52a2.5,2.5,0,0,0,.69,1.89,2.57,2.57,0,0,0,1.86.66,2,2,0,0,0,2-.87,4.68,4.68,0,0,0,.59-1.73H589a8.65,8.65,0,0,1-.54,3.06,6.77,6.77,0,0,1-1.56,2.45,7.33,7.33,0,0,1-2.45,1.68,8.1,8.1,0,0,1-3.21.61,8,8,0,0,1-4.13-1,6.86,6.86,0,0,1-3.42-5,19.15,19.15,0,0,1-.2-2.91v-8.52a19.16,19.16,0,0,1,.2-2.91,6.85,6.85,0,0,1,3.42-5,8,8,0,0,1,4.13-1,8.26,8.26,0,0,1,3.24.61,6.84,6.84,0,0,1,2.45,1.71,7.68,7.68,0,0,1,1.53,2.58,9.22,9.22,0,0,1,.54,3.16v7.14Zm0-4.08h5.1v-3a3.16,3.16,0,0,0-.69-2.22,2.71,2.71,0,0,0-3.72,0,3.15,3.15,0,0,0-.69,2.22Z"></path><path class="cls-7" d="M604.69,750.28l-1,1a5.29,5.29,0,0,1-1,.84,4.8,4.8,0,0,1-1.27.56,6.18,6.18,0,0,1-1.68.2,4.73,4.73,0,0,1-4.54-2.45,6.9,6.9,0,0,1-.66-2.14,22.59,22.59,0,0,1-.2-3.42v-9.84a39.89,39.89,0,0,1,.15-4.13,5.14,5.14,0,0,1,.66-2.14,5.56,5.56,0,0,1,1.71-1.68,5.47,5.47,0,0,1,2.93-.66,5.38,5.38,0,0,1,2.73.69,6.31,6.31,0,0,1,2.07,2h.1v-12.8h5.2v36.31h-5.2Zm-5.15-6.07a4.71,4.71,0,0,0,.61,2.55,2.12,2.12,0,0,0,1.94,1,2.3,2.3,0,0,0,1.89-.89,3.6,3.6,0,0,0,.71-2.32v-10a2.84,2.84,0,0,0-.74-2,2.44,2.44,0,0,0-1.86-.79,2.13,2.13,0,0,0-2,.92,4.18,4.18,0,0,0-.54,2.14Z"></path><path class="cls-7" d="M64,785.31H79.5v4.9H69.2v10.66h9v4.9h-9v10.66H79.5v5.2H64Z"></path><path class="cls-7" d="M87.76,808.41l-6.07-12.65H87.2l3.21,7.34,3.21-7.34h5.51L93,808.41l6.48,13.21H93.93l-3.52-7.91-3.52,7.91H81.39Z"></path><path class="cls-7" d="M102.55,795.76h5.2v2.35a12.76,12.76,0,0,1,2-1.89,4.87,4.87,0,0,1,3-.76,4.73,4.73,0,0,1,4.54,2.45,6.92,6.92,0,0,1,.66,2.14,22.74,22.74,0,0,1,.2,3.42v9.84a39.87,39.87,0,0,1-.15,4.13,5.13,5.13,0,0,1-.66,2.14,5.55,5.55,0,0,1-1.71,1.68,5.48,5.48,0,0,1-2.93.66,5.38,5.38,0,0,1-2.73-.69,6.29,6.29,0,0,1-2.07-2h-.1v12.8h-5.2Zm10.35,8.42a4.72,4.72,0,0,0-.61-2.55,2.12,2.12,0,0,0-1.94-1,2.3,2.3,0,0,0-1.89.89,3.6,3.6,0,0,0-.71,2.32v10a2.83,2.83,0,0,0,.74,2,2.44,2.44,0,0,0,1.86.79,2.13,2.13,0,0,0,2-.92,4.17,4.17,0,0,0,.54-2.14Z"></path><path class="cls-7" d="M128.66,810.66v3.52a2.5,2.5,0,0,0,.69,1.89,2.57,2.57,0,0,0,1.86.66,2,2,0,0,0,2-.87,4.68,4.68,0,0,0,.59-1.73H139a8.65,8.65,0,0,1-.54,3.06,6.77,6.77,0,0,1-1.56,2.45,7.33,7.33,0,0,1-2.45,1.68,8.1,8.1,0,0,1-3.21.61,8,8,0,0,1-4.13-1,6.86,6.86,0,0,1-3.42-5,19.15,19.15,0,0,1-.2-2.91v-8.52a19.16,19.16,0,0,1,.2-2.91,6.85,6.85,0,0,1,3.42-5,8,8,0,0,1,4.13-1,8.26,8.26,0,0,1,3.24.61,6.84,6.84,0,0,1,2.45,1.71,7.68,7.68,0,0,1,1.53,2.58,9.22,9.22,0,0,1,.54,3.16v7.14Zm0-4.08h5.1v-3a3.16,3.16,0,0,0-.69-2.22,2.71,2.71,0,0,0-3.72,0,3.15,3.15,0,0,0-.69,2.22Z"></path><path class="cls-7" d="M149.83,814.18a2.5,2.5,0,0,0,.69,1.89,2.57,2.57,0,0,0,1.86.66,2,2,0,0,0,2-.87,4.68,4.68,0,0,0,.59-1.73h5.2a8.65,8.65,0,0,1-.54,3.06,6.77,6.77,0,0,1-1.56,2.45,7.33,7.33,0,0,1-2.45,1.68,8.1,8.1,0,0,1-3.21.61,8,8,0,0,1-4.13-1,6.86,6.86,0,0,1-3.42-5,19.15,19.15,0,0,1-.2-2.91v-8.52a19.16,19.16,0,0,1,.2-2.91,7,7,0,0,1,.77-2.35,7,7,0,0,1,2.65-2.7,8,8,0,0,1,4.13-1,8.26,8.26,0,0,1,3.24.61,6.84,6.84,0,0,1,2.45,1.71,7.59,7.59,0,0,1,1.53,2.63,10,10,0,0,1,.54,3.31h-5.2a3.32,3.32,0,0,0-.69-2.32,2.71,2.71,0,0,0-3.72,0,3.16,3.16,0,0,0-.69,2.22Z"></path><path class="cls-7" d="M164.72,787.91h5.2v7.85h3.21v4.08h-3.21v14.33a4.48,4.48,0,0,0,.18,1.43,1.46,1.46,0,0,0,.56.76,2.06,2.06,0,0,0,1,.31q.61.05,1.48.05v4.9H171a7,7,0,0,1-3-.56,5.36,5.36,0,0,1-1.91-1.43,5.58,5.58,0,0,1-1-2,7.28,7.28,0,0,1-.33-2.12V799.84h-2.6v-4.08h2.6Z"></path><path class="cls-7" d="M186.49,819h-.1a9.6,9.6,0,0,1-2.07,2.19,4.89,4.89,0,0,1-2.93.76,6.78,6.78,0,0,1-1.89-.28,4.71,4.71,0,0,1-1.81-1,5.34,5.34,0,0,1-1.38-2.09,9.61,9.61,0,0,1-.54-3.49,18.43,18.43,0,0,1,.36-3.85,6.1,6.1,0,0,1,1.3-2.75,5.62,5.62,0,0,1,2.52-1.63,12.75,12.75,0,0,1,4-.54q.56,0,1.12.05l1.38.1v-2.7a4,4,0,0,0-.56-2.19,2.24,2.24,0,0,0-2-.87,2.94,2.94,0,0,0-1.86.66,3.15,3.15,0,0,0-1.1,1.94h-5a8.49,8.49,0,0,1,2.35-5.61,7.38,7.38,0,0,1,2.45-1.61,8.39,8.39,0,0,1,3.21-.59A9.06,9.06,0,0,1,187,796a6.76,6.76,0,0,1,2.47,1.53,7.31,7.31,0,0,1,1.66,2.55,9.58,9.58,0,0,1,.61,3.57v18h-5.2Zm0-8.47a8.6,8.6,0,0,0-1.43-.15,5.12,5.12,0,0,0-2.88.79A3.2,3.2,0,0,0,181,814a3.79,3.79,0,0,0,.71,2.4,2.38,2.38,0,0,0,2,.92,2.57,2.57,0,0,0,2.07-.87,3.66,3.66,0,0,0,.74-2.45Z"></path><path class="cls-7" d="M197.05,787.91h5.2v7.85h3.21v4.08h-3.21v14.33a4.48,4.48,0,0,0,.18,1.43,1.46,1.46,0,0,0,.56.76,2.06,2.06,0,0,0,1,.31q.61.05,1.48.05v4.9h-2.14a7,7,0,0,1-3-.56,5.36,5.36,0,0,1-1.91-1.43,5.58,5.58,0,0,1-1-2,7.28,7.28,0,0,1-.33-2.12V799.84h-2.6v-4.08h2.6Z"></path><path class="cls-7" d="M209,785.31h5.2v5.2H209Zm0,10.45h5.2v25.86H209Z"></path><path class="cls-7" d="M219.54,804.44a19.16,19.16,0,0,1,.2-2.91,6.85,6.85,0,0,1,3.42-5,8.87,8.87,0,0,1,8.26,0,7,7,0,0,1,2.65,2.7,7.07,7.07,0,0,1,.77,2.35,19.22,19.22,0,0,1,.2,2.91V813a19.21,19.21,0,0,1-.2,2.91,7.06,7.06,0,0,1-.77,2.35,7,7,0,0,1-2.65,2.7,8.88,8.88,0,0,1-8.26,0,6.86,6.86,0,0,1-3.42-5,19.15,19.15,0,0,1-.2-2.91Zm5.2,9.33a3.15,3.15,0,0,0,.69,2.22,2.71,2.71,0,0,0,3.72,0,3.15,3.15,0,0,0,.69-2.22V803.62a3.16,3.16,0,0,0-.69-2.22,2.71,2.71,0,0,0-3.72,0,3.15,3.15,0,0,0-.69,2.22Z"></path><path class="cls-7" d="M240.4,795.76h5.2v2.5h.1a7.39,7.39,0,0,1,2-2,5.05,5.05,0,0,1,2.93-.79,6,6,0,0,1,1.94.33,4.49,4.49,0,0,1,1.73,1.1,5.53,5.53,0,0,1,1.22,2,8.23,8.23,0,0,1,.46,2.93v19.84h-5.2v-17.9a3.46,3.46,0,0,0-.66-2.24,2.29,2.29,0,0,0-1.89-.82,2.19,2.19,0,0,0-2,.92,5.13,5.13,0,0,0-.56,2.65v17.39h-5.2Z"></path><path class="cls-7" d="M271.2,803a2.59,2.59,0,0,0-.84-2,2.74,2.74,0,0,0-1.81-.66,2.33,2.33,0,0,0-1.89.79A2.74,2.74,0,0,0,266,803a3,3,0,0,0,.36,1.4,3.32,3.32,0,0,0,1.84,1.25l3.06,1.22a7.43,7.43,0,0,1,4,3.06,8.45,8.45,0,0,1,1.1,4.23,7.8,7.8,0,0,1-.59,3,8.07,8.07,0,0,1-1.61,2.47,7.33,7.33,0,0,1-2.45,1.68,7.83,7.83,0,0,1-3.11.61,8.31,8.31,0,0,1-2.91-.51,7.2,7.2,0,0,1-2.42-1.48,7.48,7.48,0,0,1-1.71-2.42,8.64,8.64,0,0,1-.71-3.39h4.9a5,5,0,0,0,.74,2,2.26,2.26,0,0,0,2.07.92,3.07,3.07,0,0,0,2-.74,2.54,2.54,0,0,0,.89-2.07,3,3,0,0,0-.56-1.84,4.42,4.42,0,0,0-2-1.33l-2.5-.92a8.52,8.52,0,0,1-3.85-2.73,7,7,0,0,1-1.4-4.41,7.51,7.51,0,0,1,.61-3,7.29,7.29,0,0,1,1.66-2.4A7.68,7.68,0,0,1,265.8,796a7.76,7.76,0,0,1,3-.56,7.3,7.3,0,0,1,2.93.59,7,7,0,0,1,3.85,4,8,8,0,0,1,.56,3Z"></path><path class="cls-7" d="M281.25,816.42h5.2v5.2l-5.2,3.77Z"></path><path class="cls-7" d="M303.59,785.31h7.6a10.66,10.66,0,0,1,4.26.76,8,8,0,0,1,2.88,2,7.64,7.64,0,0,1,1.61,2.93,12.22,12.22,0,0,1,.48,3.44v1.33a11.56,11.56,0,0,1-.23,2.5,6,6,0,0,1-.69,1.78,5.68,5.68,0,0,1-1.12,1.35,9.7,9.7,0,0,1-1.53,1.1,5.62,5.62,0,0,1,2.7,2.58,10.16,10.16,0,0,1,.87,4.56v2q0,4.79-2.32,7.34t-7.42,2.55h-7.09Zm5.2,14.89h2.35q2.6,0,3.49-1.3a6.71,6.71,0,0,0,.89-3.8,5.74,5.74,0,0,0-1-3.67q-1-1.22-3.6-1.22h-2.14Zm0,16.22H311a5.49,5.49,0,0,0,2.47-.46,3.17,3.17,0,0,0,1.35-1.27,4.81,4.81,0,0,0,.56-1.94q.1-1.12.1-2.45a16.37,16.37,0,0,0-.15-2.4,4,4,0,0,0-.64-1.71,3,3,0,0,0-1.35-1,6.13,6.13,0,0,0-2.3-.36h-2.29Z"></path><path class="cls-7" d="M326.54,795.76h5.2v2.75a15.75,15.75,0,0,1,3.11-2.24,7.94,7.94,0,0,1,3.77-.82V801a4.22,4.22,0,0,0-1.58-.31,6.21,6.21,0,0,0-1.76.28,4.82,4.82,0,0,0-1.73.94,5.05,5.05,0,0,0-1.3,1.73,6.15,6.15,0,0,0-.51,2.65v15.35h-5.2Z"></path><path class="cls-7" d="M341.48,804.44a19.16,19.16,0,0,1,.2-2.91,6.85,6.85,0,0,1,3.42-5,8.87,8.87,0,0,1,8.26,0,7,7,0,0,1,2.65,2.7,7.07,7.07,0,0,1,.77,2.35,19.22,19.22,0,0,1,.2,2.91V813a19.21,19.21,0,0,1-.2,2.91,7.06,7.06,0,0,1-.77,2.35,7,7,0,0,1-2.65,2.7,8.88,8.88,0,0,1-8.26,0,6.86,6.86,0,0,1-3.42-5,19.15,19.15,0,0,1-.2-2.91Zm5.2,9.33a3.15,3.15,0,0,0,.69,2.22,2.71,2.71,0,0,0,3.72,0,3.15,3.15,0,0,0,.69-2.22V803.62a3.16,3.16,0,0,0-.69-2.22,2.71,2.71,0,0,0-3.72,0,3.15,3.15,0,0,0-.69,2.22Z"></path><path class="cls-7" d="M362.34,785.31h5.2V807h.1l6.27-11.27h5.2l-6.17,10.51,7.45,15.35h-5.66L370,810.45l-2.5,3.93v7.24h-5.2Z"></path><path class="cls-7" d="M387.84,810.66v3.52a2.5,2.5,0,0,0,.69,1.89,2.57,2.57,0,0,0,1.86.66,2,2,0,0,0,2-.87,4.68,4.68,0,0,0,.59-1.73h5.2a8.65,8.65,0,0,1-.54,3.06,6.77,6.77,0,0,1-1.56,2.45,7.33,7.33,0,0,1-2.45,1.68,8.1,8.1,0,0,1-3.21.61,8,8,0,0,1-4.13-1,6.86,6.86,0,0,1-3.42-5,19.15,19.15,0,0,1-.2-2.91v-8.52a19.16,19.16,0,0,1,.2-2.91,6.85,6.85,0,0,1,3.42-5,8,8,0,0,1,4.13-1,8.26,8.26,0,0,1,3.24.61,6.84,6.84,0,0,1,2.45,1.71,7.68,7.68,0,0,1,1.53,2.58,9.22,9.22,0,0,1,.54,3.16v7.14Zm0-4.08h5.1v-3a3.16,3.16,0,0,0-.69-2.22,2.71,2.71,0,0,0-3.72,0,3.15,3.15,0,0,0-.69,2.22Z"></path><path class="cls-7" d="M403.49,795.76h5.2v2.5h.1a7.39,7.39,0,0,1,2-2,5.05,5.05,0,0,1,2.93-.79,6,6,0,0,1,1.94.33,4.49,4.49,0,0,1,1.73,1.1,5.53,5.53,0,0,1,1.22,2,8.23,8.23,0,0,1,.46,2.93v19.84h-5.2v-17.9a3.46,3.46,0,0,0-.66-2.24,2.29,2.29,0,0,0-1.89-.82,2.19,2.19,0,0,0-2,.92,5.13,5.13,0,0,0-.56,2.65v17.39h-5.2Z"></path><path class="cls-7" d="M452.71,813.51a8.27,8.27,0,0,1-.64,3.21,8.43,8.43,0,0,1-1.76,2.68,8.7,8.7,0,0,1-2.63,1.84,7.69,7.69,0,0,1-3.24.69,11.66,11.66,0,0,1-3-.41,7.31,7.31,0,0,1-2.75-1.4,7.56,7.56,0,0,1-2-2.63,9.46,9.46,0,0,1-.79-4.13v-20a8.86,8.86,0,0,1,.61-3.32,7.81,7.81,0,0,1,1.73-2.65,8.06,8.06,0,0,1,2.68-1.76,9,9,0,0,1,3.44-.64,8.54,8.54,0,0,1,3.31.64,7.94,7.94,0,0,1,2.65,1.79,8.24,8.24,0,0,1,1.76,2.75,9.39,9.39,0,0,1,.64,3.49v2h-5.2V794a4.21,4.21,0,0,0-.87-2.65,2.81,2.81,0,0,0-2.35-1.12,2.64,2.64,0,0,0-2.58,1.2,6.42,6.42,0,0,0-.64,3V813a4.81,4.81,0,0,0,.69,2.65,2.71,2.71,0,0,0,2.47,1.07,3.77,3.77,0,0,0,1.1-.18,3,3,0,0,0,1.07-.59,3,3,0,0,0,.79-1.12,4.54,4.54,0,0,0,.31-1.79v-1.78h5.2Z"></path><path class="cls-7" d="M457.71,804.44a19.16,19.16,0,0,1,.2-2.91,6.85,6.85,0,0,1,3.42-5,8.87,8.87,0,0,1,8.26,0,7,7,0,0,1,2.65,2.7,7.07,7.07,0,0,1,.77,2.35,19.22,19.22,0,0,1,.2,2.91V813a19.21,19.21,0,0,1-.2,2.91,7.06,7.06,0,0,1-.77,2.35,7,7,0,0,1-2.65,2.7,8.88,8.88,0,0,1-8.26,0,6.86,6.86,0,0,1-3.42-5,19.15,19.15,0,0,1-.2-2.91Zm5.2,9.33a3.15,3.15,0,0,0,.69,2.22,2.71,2.71,0,0,0,3.72,0,3.15,3.15,0,0,0,.69-2.22V803.62a3.16,3.16,0,0,0-.69-2.22,2.71,2.71,0,0,0-3.72,0,3.15,3.15,0,0,0-.69,2.22Z"></path><path class="cls-7" d="M478.56,795.76h5.2v2.5h.1a7.39,7.39,0,0,1,2-2,5.05,5.05,0,0,1,2.93-.79,4.64,4.64,0,0,1,2.81.82,8.39,8.39,0,0,1,1.84,1.79,10.91,10.91,0,0,1,2.14-1.84,5.94,5.94,0,0,1,3.26-.76,6.43,6.43,0,0,1,2,.33,4.85,4.85,0,0,1,1.84,1.1,5.73,5.73,0,0,1,1.33,2,7.5,7.5,0,0,1,.51,2.93v19.84h-5.2v-17.9a3.46,3.46,0,0,0-.66-2.24,2.29,2.29,0,0,0-1.89-.82,2.19,2.19,0,0,0-2,.92,5.13,5.13,0,0,0-.56,2.65v17.39h-5.2v-17.9a3.46,3.46,0,0,0-.66-2.24,2.29,2.29,0,0,0-1.89-.82,2.19,2.19,0,0,0-2,.92,5.13,5.13,0,0,0-.56,2.65v17.39h-5.2Z"></path><path class="cls-7" d="M510.29,795.76h5.2v2.5h.1a7.39,7.39,0,0,1,2-2,5.05,5.05,0,0,1,2.93-.79,4.64,4.64,0,0,1,2.81.82,8.39,8.39,0,0,1,1.84,1.79,10.91,10.91,0,0,1,2.14-1.84,5.94,5.94,0,0,1,3.26-.76,6.43,6.43,0,0,1,2,.33,4.85,4.85,0,0,1,1.84,1.1,5.73,5.73,0,0,1,1.33,2,7.5,7.5,0,0,1,.51,2.93v19.84H531v-17.9a3.46,3.46,0,0,0-.66-2.24,2.29,2.29,0,0,0-1.89-.82,2.19,2.19,0,0,0-2,.92,5.13,5.13,0,0,0-.56,2.65v17.39h-5.2v-17.9a3.46,3.46,0,0,0-.66-2.24,2.29,2.29,0,0,0-1.89-.82,2.19,2.19,0,0,0-2,.92,5.13,5.13,0,0,0-.56,2.65v17.39h-5.2Z"></path><path class="cls-7" d="M542,785.31h5.2v5.2H542Zm0,10.45h5.2v25.86H542Z"></path><path class="cls-7" d="M553,787.91h5.2v7.85h3.21v4.08h-3.21v14.33a4.48,4.48,0,0,0,.18,1.43,1.46,1.46,0,0,0,.56.76,2.06,2.06,0,0,0,1,.31q.61.05,1.48.05v4.9H559.3a7,7,0,0,1-3-.56,5.36,5.36,0,0,1-1.91-1.43,5.58,5.58,0,0,1-1-2,7.28,7.28,0,0,1-.33-2.12V799.84h-2.6v-4.08H553Z"></path><path class="cls-7" d="M565,795.76h5.2v2.5h.1a7.39,7.39,0,0,1,2-2,5.05,5.05,0,0,1,2.93-.79,4.64,4.64,0,0,1,2.81.82,8.39,8.39,0,0,1,1.84,1.79,10.91,10.91,0,0,1,2.14-1.84,5.94,5.94,0,0,1,3.26-.76,6.43,6.43,0,0,1,2,.33,4.85,4.85,0,0,1,1.84,1.1,5.73,5.73,0,0,1,1.33,2,7.5,7.5,0,0,1,.51,2.93v19.84h-5.2v-17.9a3.46,3.46,0,0,0-.66-2.24,2.29,2.29,0,0,0-1.89-.82,2.19,2.19,0,0,0-2,.92,5.13,5.13,0,0,0-.56,2.65v17.39h-5.2v-17.9a3.46,3.46,0,0,0-.66-2.24,2.29,2.29,0,0,0-1.89-.82,2.19,2.19,0,0,0-2,.92,5.13,5.13,0,0,0-.56,2.65v17.39H565Z"></path><path class="cls-7" d="M601.42,810.66v3.52a2.5,2.5,0,0,0,.69,1.89,2.57,2.57,0,0,0,1.86.66,2,2,0,0,0,2-.87,4.68,4.68,0,0,0,.59-1.73h5.2a8.65,8.65,0,0,1-.54,3.06,6.77,6.77,0,0,1-1.56,2.45,7.33,7.33,0,0,1-2.45,1.68,8.1,8.1,0,0,1-3.21.61,8,8,0,0,1-4.13-1,6.86,6.86,0,0,1-3.42-5,19.15,19.15,0,0,1-.2-2.91v-8.52a19.16,19.16,0,0,1,.2-2.91,6.85,6.85,0,0,1,3.42-5,8,8,0,0,1,4.13-1,8.26,8.26,0,0,1,3.24.61,6.84,6.84,0,0,1,2.45,1.71,7.68,7.68,0,0,1,1.53,2.58,9.22,9.22,0,0,1,.54,3.16v7.14Zm0-4.08h5.1v-3a3.16,3.16,0,0,0-.69-2.22,2.71,2.71,0,0,0-3.72,0,3.15,3.15,0,0,0-.69,2.22Z"></path><path class="cls-7" d="M617.08,795.76h5.2v2.5h.1a7.39,7.39,0,0,1,2-2,5.05,5.05,0,0,1,2.93-.79,6,6,0,0,1,1.94.33,4.49,4.49,0,0,1,1.73,1.1,5.53,5.53,0,0,1,1.22,2,8.23,8.23,0,0,1,.46,2.93v19.84h-5.2v-17.9a3.46,3.46,0,0,0-.66-2.24,2.29,2.29,0,0,0-1.89-.82,2.19,2.19,0,0,0-2,.92,5.13,5.13,0,0,0-.56,2.65v17.39h-5.2Z"></path><path class="cls-7" d="M638.45,787.91h5.2v7.85h3.21v4.08h-3.21v14.33a4.48,4.48,0,0,0,.18,1.43,1.46,1.46,0,0,0,.56.76,2.06,2.06,0,0,0,1,.31q.61.05,1.48.05v4.9h-2.14a7,7,0,0,1-3-.56,5.36,5.36,0,0,1-1.91-1.43,5.58,5.58,0,0,1-1-2,7.28,7.28,0,0,1-.33-2.12V799.84h-2.6v-4.08h2.6Z"></path><path class="cls-7" d="M659.82,803a2.59,2.59,0,0,0-.84-2,2.74,2.74,0,0,0-1.81-.66,2.33,2.33,0,0,0-1.89.79,2.74,2.74,0,0,0-.66,1.81,3,3,0,0,0,.36,1.4,3.32,3.32,0,0,0,1.84,1.25l3.06,1.22a7.43,7.43,0,0,1,4,3.06,8.45,8.45,0,0,1,1.1,4.23,7.8,7.8,0,0,1-.59,3,8.07,8.07,0,0,1-1.61,2.47,7.33,7.33,0,0,1-2.45,1.68,7.83,7.83,0,0,1-3.11.61,8.31,8.31,0,0,1-2.91-.51,7.2,7.2,0,0,1-2.42-1.48,7.48,7.48,0,0,1-1.71-2.42,8.64,8.64,0,0,1-.71-3.39h4.9a5,5,0,0,0,.74,2,2.26,2.26,0,0,0,2.07.92,3.07,3.07,0,0,0,2-.74,2.54,2.54,0,0,0,.89-2.07,3,3,0,0,0-.56-1.84,4.42,4.42,0,0,0-2-1.33l-2.5-.92a8.52,8.52,0,0,1-3.85-2.73,7,7,0,0,1-1.4-4.41,7.51,7.51,0,0,1,.61-3,7.29,7.29,0,0,1,1.66-2.4,7.68,7.68,0,0,1,2.42-1.55,7.76,7.76,0,0,1,3-.56,7.3,7.3,0,0,1,2.93.59,7,7,0,0,1,3.85,4,8,8,0,0,1,.56,3Z"></path><path class="cls-7" d="M669.86,816.42h5.2v5.2l-5.2,3.77Z"></path><path class="cls-7" d="M250.68,893h-.1a9.6,9.6,0,0,1-2.07,2.19,4.89,4.89,0,0,1-2.93.76,6.78,6.78,0,0,1-1.89-.28,4.71,4.71,0,0,1-1.81-1,5.34,5.34,0,0,1-1.38-2.09A9.61,9.61,0,0,1,240,889a18.43,18.43,0,0,1,.36-3.85,6.1,6.1,0,0,1,1.3-2.75,5.62,5.62,0,0,1,2.52-1.63,12.75,12.75,0,0,1,4-.54q.56,0,1.12.05l1.38.1v-2.7a4,4,0,0,0-.56-2.19,2.24,2.24,0,0,0-2-.87,2.94,2.94,0,0,0-1.86.66,3.15,3.15,0,0,0-1.1,1.94h-5a8.49,8.49,0,0,1,2.35-5.61,7.38,7.38,0,0,1,2.45-1.61,8.39,8.39,0,0,1,3.21-.59,9.06,9.06,0,0,1,3.06.51,6.76,6.76,0,0,1,2.47,1.53,7.31,7.31,0,0,1,1.66,2.55,9.58,9.58,0,0,1,.61,3.57v18h-5.2Zm0-8.47a8.6,8.6,0,0,0-1.43-.15,5.12,5.12,0,0,0-2.88.79,3.2,3.2,0,0,0-1.2,2.88,3.79,3.79,0,0,0,.71,2.4,2.38,2.38,0,0,0,2,.92,2.57,2.57,0,0,0,2.07-.87,3.66,3.66,0,0,0,.74-2.45Z"></path><path class="cls-7" d="M261.23,869.76h5.2v2.5h.1a7.39,7.39,0,0,1,2-2,5.05,5.05,0,0,1,2.93-.79,6,6,0,0,1,1.94.33,4.49,4.49,0,0,1,1.73,1.1,5.53,5.53,0,0,1,1.22,2,8.23,8.23,0,0,1,.46,2.93v19.84h-5.2v-17.9a3.46,3.46,0,0,0-.66-2.24,2.29,2.29,0,0,0-1.89-.82,2.19,2.19,0,0,0-2,.92,5.13,5.13,0,0,0-.56,2.65v17.39h-5.2Z"></path><path class="cls-7" d="M293,893.28l-1,1a5.29,5.29,0,0,1-1,.84,4.8,4.8,0,0,1-1.27.56,6.18,6.18,0,0,1-1.68.2,4.73,4.73,0,0,1-4.54-2.45,6.9,6.9,0,0,1-.66-2.14,22.59,22.59,0,0,1-.2-3.42v-9.84a39.89,39.89,0,0,1,.15-4.13,5.14,5.14,0,0,1,.66-2.14,5.56,5.56,0,0,1,1.71-1.68,5.47,5.47,0,0,1,2.93-.66,5.38,5.38,0,0,1,2.73.69,6.31,6.31,0,0,1,2.07,2h.1v-12.8h5.2v36.31H293Zm-5.15-6.07a4.71,4.71,0,0,0,.61,2.55,2.12,2.12,0,0,0,1.94,1,2.3,2.3,0,0,0,1.89-.89,3.6,3.6,0,0,0,.71-2.32v-10a2.84,2.84,0,0,0-.74-2,2.44,2.44,0,0,0-1.86-.79,2.13,2.13,0,0,0-2,.92,4.18,4.18,0,0,0-.54,2.14Z"></path><path class="cls-7" d="M315.29,859.31h7.6a10.66,10.66,0,0,1,4.26.76,8,8,0,0,1,2.88,2,7.64,7.64,0,0,1,1.61,2.93,12.22,12.22,0,0,1,.48,3.44v1.33a11.56,11.56,0,0,1-.23,2.5,6,6,0,0,1-.69,1.78,5.68,5.68,0,0,1-1.12,1.35,9.7,9.7,0,0,1-1.53,1.1,5.62,5.62,0,0,1,2.7,2.58,10.16,10.16,0,0,1,.87,4.56v2q0,4.79-2.32,7.34t-7.42,2.55h-7.09Zm5.2,14.89h2.35q2.6,0,3.49-1.3a6.71,6.71,0,0,0,.89-3.8,5.74,5.74,0,0,0-1-3.67q-1-1.22-3.6-1.22h-2.14Zm0,16.22h2.24a5.49,5.49,0,0,0,2.47-.46,3.17,3.17,0,0,0,1.35-1.27,4.81,4.81,0,0,0,.56-1.94q.1-1.12.1-2.45a16.37,16.37,0,0,0-.15-2.4,4,4,0,0,0-.64-1.71,3,3,0,0,0-1.35-1,6.13,6.13,0,0,0-2.3-.36h-2.29Z"></path><path class="cls-7" d="M348.09,893H348a9.6,9.6,0,0,1-2.07,2.19,4.89,4.89,0,0,1-2.93.76,6.78,6.78,0,0,1-1.89-.28,4.71,4.71,0,0,1-1.81-1,5.34,5.34,0,0,1-1.38-2.09,9.61,9.61,0,0,1-.54-3.49,18.43,18.43,0,0,1,.36-3.85,6.1,6.1,0,0,1,1.3-2.75,5.62,5.62,0,0,1,2.52-1.63,12.75,12.75,0,0,1,4-.54q.56,0,1.12.05l1.38.1v-2.7a4,4,0,0,0-.56-2.19,2.24,2.24,0,0,0-2-.87,2.94,2.94,0,0,0-1.86.66,3.15,3.15,0,0,0-1.1,1.94h-5a8.49,8.49,0,0,1,2.35-5.61,7.38,7.38,0,0,1,2.45-1.61,8.39,8.39,0,0,1,3.21-.59,9.06,9.06,0,0,1,3.06.51A6.76,6.76,0,0,1,351,871.5a7.31,7.31,0,0,1,1.66,2.55,9.58,9.58,0,0,1,.61,3.57v18h-5.2Zm0-8.47a8.6,8.6,0,0,0-1.43-.15,5.12,5.12,0,0,0-2.88.79,3.2,3.2,0,0,0-1.2,2.88,3.79,3.79,0,0,0,.71,2.4,2.38,2.38,0,0,0,2,.92,2.57,2.57,0,0,0,2.07-.87,3.66,3.66,0,0,0,.74-2.45Z"></path><path class="cls-7" d="M369,893.28l-1,1a5.29,5.29,0,0,1-1,.84,4.8,4.8,0,0,1-1.27.56,6.18,6.18,0,0,1-1.68.2,4.73,4.73,0,0,1-4.54-2.45,6.9,6.9,0,0,1-.66-2.14,22.59,22.59,0,0,1-.2-3.42v-9.84a39.89,39.89,0,0,1,.15-4.13,5.14,5.14,0,0,1,.66-2.14,5.56,5.56,0,0,1,1.71-1.68,5.47,5.47,0,0,1,2.93-.66,5.38,5.38,0,0,1,2.73.69,6.31,6.31,0,0,1,2.07,2h.1v-12.8h5.2v36.31H369Zm-5.15-6.07a4.71,4.71,0,0,0,.61,2.55,2.12,2.12,0,0,0,1.94,1,2.3,2.3,0,0,0,1.89-.89,3.6,3.6,0,0,0,.71-2.32v-10a2.84,2.84,0,0,0-.74-2,2.44,2.44,0,0,0-1.86-.79,2.13,2.13,0,0,0-2,.92,4.18,4.18,0,0,0-.54,2.14Z"></path><path class="cls-7" d="M391.33,859.31h7.6a10.66,10.66,0,0,1,4.26.76,8,8,0,0,1,2.88,2,7.64,7.64,0,0,1,1.61,2.93,12.22,12.22,0,0,1,.48,3.44v1.33a11.56,11.56,0,0,1-.23,2.5,6,6,0,0,1-.69,1.78,5.68,5.68,0,0,1-1.12,1.35,9.7,9.7,0,0,1-1.53,1.1,5.62,5.62,0,0,1,2.7,2.58,10.16,10.16,0,0,1,.87,4.56v2q0,4.79-2.32,7.34t-7.42,2.55h-7.09Zm5.2,14.89h2.35q2.6,0,3.49-1.3a6.71,6.71,0,0,0,.89-3.8,5.74,5.74,0,0,0-1-3.67q-1-1.22-3.6-1.22h-2.14Zm0,16.22h2.24a5.49,5.49,0,0,0,2.47-.46,3.17,3.17,0,0,0,1.35-1.27,4.81,4.81,0,0,0,.56-1.94q.1-1.12.1-2.45a16.37,16.37,0,0,0-.15-2.4,4,4,0,0,0-.64-1.71,3,3,0,0,0-1.35-1,6.13,6.13,0,0,0-2.3-.36h-2.29Z"></path><path class="cls-7" d="M419,884.66v3.52a2.5,2.5,0,0,0,.69,1.89,2.57,2.57,0,0,0,1.86.66,2,2,0,0,0,2-.87,4.68,4.68,0,0,0,.59-1.73h5.2a8.65,8.65,0,0,1-.54,3.06,6.77,6.77,0,0,1-1.56,2.45,7.33,7.33,0,0,1-2.45,1.68,8.1,8.1,0,0,1-3.21.61,8,8,0,0,1-4.13-1,6.86,6.86,0,0,1-3.42-5,19.15,19.15,0,0,1-.2-2.91v-8.52a19.16,19.16,0,0,1,.2-2.91,6.85,6.85,0,0,1,3.42-5,8,8,0,0,1,4.13-1,8.26,8.26,0,0,1,3.24.61,6.84,6.84,0,0,1,2.45,1.71,7.68,7.68,0,0,1,1.53,2.58,9.22,9.22,0,0,1,.54,3.16v7.14Zm0-4.08h5.1v-3a3.16,3.16,0,0,0-.69-2.22,2.71,2.71,0,0,0-3.72,0,3.15,3.15,0,0,0-.69,2.22Z"></path><path class="cls-7" d="M434.68,859.31h5.2v13h.1a7.39,7.39,0,0,1,2-2,5.05,5.05,0,0,1,2.93-.79,6,6,0,0,1,1.94.33,4.49,4.49,0,0,1,1.73,1.1,5.53,5.53,0,0,1,1.22,2,8.23,8.23,0,0,1,.46,2.93v19.84H445v-17.9a3.46,3.46,0,0,0-.66-2.24,2.29,2.29,0,0,0-1.89-.82,2.19,2.19,0,0,0-2,.92,5.13,5.13,0,0,0-.56,2.65v17.39h-5.2Z"></path><path class="cls-7" d="M465.89,893h-.1a9.6,9.6,0,0,1-2.07,2.19,4.89,4.89,0,0,1-2.93.76,6.78,6.78,0,0,1-1.89-.28,4.71,4.71,0,0,1-1.81-1,5.34,5.34,0,0,1-1.38-2.09,9.61,9.61,0,0,1-.54-3.49,18.43,18.43,0,0,1,.36-3.85,6.1,6.1,0,0,1,1.3-2.75,5.62,5.62,0,0,1,2.52-1.63,12.75,12.75,0,0,1,4-.54q.56,0,1.12.05l1.38.1v-2.7a4,4,0,0,0-.56-2.19,2.24,2.24,0,0,0-2-.87,2.94,2.94,0,0,0-1.86.66,3.15,3.15,0,0,0-1.1,1.94h-5a8.49,8.49,0,0,1,2.35-5.61,7.38,7.38,0,0,1,2.45-1.61,8.39,8.39,0,0,1,3.21-.59,9.06,9.06,0,0,1,3.06.51,6.76,6.76,0,0,1,2.47,1.53,7.31,7.31,0,0,1,1.66,2.55,9.58,9.58,0,0,1,.61,3.57v18h-5.2Zm0-8.47a8.6,8.6,0,0,0-1.43-.15,5.12,5.12,0,0,0-2.88.79,3.2,3.2,0,0,0-1.2,2.88,3.79,3.79,0,0,0,.71,2.4,2.38,2.38,0,0,0,2,.92,2.57,2.57,0,0,0,2.07-.87,3.66,3.66,0,0,0,.74-2.45Z"></path><path class="cls-7" d="M485.27,895.62h-4.59L474,869.76h5.51l3.47,16.52h.1l3.47-16.52H492Z"></path><path class="cls-7" d="M495.63,859.31h5.2v5.2h-5.2Zm0,10.45h5.2v25.86h-5.2Z"></path><path class="cls-7" d="M506.18,878.44a19.16,19.16,0,0,1,.2-2.91,6.85,6.85,0,0,1,3.42-5,8.87,8.87,0,0,1,8.26,0,7,7,0,0,1,2.65,2.7,7.07,7.07,0,0,1,.77,2.35,19.22,19.22,0,0,1,.2,2.91V887a19.21,19.21,0,0,1-.2,2.91,7.06,7.06,0,0,1-.77,2.35,7,7,0,0,1-2.65,2.7,8.88,8.88,0,0,1-8.26,0,6.86,6.86,0,0,1-3.42-5,19.15,19.15,0,0,1-.2-2.91Zm5.2,9.33a3.15,3.15,0,0,0,.69,2.22,2.71,2.71,0,0,0,3.72,0,3.15,3.15,0,0,0,.69-2.22V877.62a3.16,3.16,0,0,0-.69-2.22,2.71,2.71,0,0,0-3.72,0,3.15,3.15,0,0,0-.69,2.22Z"></path><path class="cls-7" d="M527,869.76h5.2v2.75a15.75,15.75,0,0,1,3.11-2.24,7.94,7.94,0,0,1,3.77-.82V875a4.22,4.22,0,0,0-1.58-.31,6.21,6.21,0,0,0-1.76.28,4.82,4.82,0,0,0-1.73.94,5.05,5.05,0,0,0-1.3,1.73,6.15,6.15,0,0,0-.51,2.65v15.35H527Z"></path><path d="M458.29,34.53h10.16q3.86,0,5.81,2a7.15,7.15,0,0,1,2,5.25,6.39,6.39,0,0,1-.77,3.19,5.18,5.18,0,0,1-1.19,1.37,8.51,8.51,0,0,1-1.91,1.24v.07A5.29,5.29,0,0,1,475.59,50a7.76,7.76,0,0,1,1,3.92,7.52,7.52,0,0,1-2.12,5.55,6.9,6.9,0,0,1-5.16,2.13h-11Zm4,3.64v7.78H468a4,4,0,0,0,3.2-1.18,3.77,3.77,0,0,0,1-2.72,4,4,0,0,0-1-2.78,4.38,4.38,0,0,0-3.2-1.1Zm0,11.41v8.15h6.13a4.12,4.12,0,0,0,3.24-1.25,4.19,4.19,0,0,0,1-2.83,4.24,4.24,0,0,0-1-2.87,4.2,4.2,0,0,0-3.24-1.21Z"></path><path d="M484.32,34.53h16.74v3.86H488.29v7.74h10.91v3.63H488.29v8h12.78v3.86H484.32Z"></path><path d="M508.63,55a11.29,11.29,0,0,0,7.45,2.7q5.11-.07,5.18-3.77,0-3-3.42-3.64l-3.47-.5a8.47,8.47,0,0,1-5.14-2.58,7.32,7.32,0,0,1-1.82-5,7.54,7.54,0,0,1,2.28-5.72A8.73,8.73,0,0,1,516,34.31a14.42,14.42,0,0,1,8.5,2.79l-2.21,3.37a11.75,11.75,0,0,0-6.49-2.08,4.84,4.84,0,0,0-3.06.95,3.56,3.56,0,0,0-1.31,2.94,3,3,0,0,0,.88,2.12,5,5,0,0,0,2.82,1.34q1.08.19,2.95.43a8.08,8.08,0,0,1,5.45,2.73,7.84,7.84,0,0,1,1.74,5.05q-.2,7.76-9.2,7.88a14.61,14.61,0,0,1-10-3.69Z"></path><path d="M537.42,38.17h-7.18V34.53h18.34v3.64h-7.19V61.59h-4Z"></path><path d="M555.15,55a11.29,11.29,0,0,0,7.45,2.7q5.11-.07,5.18-3.77,0-3-3.42-3.64l-3.47-.5a8.47,8.47,0,0,1-5.14-2.58,7.32,7.32,0,0,1-1.82-5,7.54,7.54,0,0,1,2.28-5.72,8.73,8.73,0,0,1,6.27-2.19,14.42,14.42,0,0,1,8.5,2.79l-2.21,3.37a11.75,11.75,0,0,0-6.49-2.08,4.84,4.84,0,0,0-3.06.95,3.56,3.56,0,0,0-1.31,2.94,3,3,0,0,0,.88,2.12,5,5,0,0,0,2.82,1.34q1.08.19,2.95.43A8.08,8.08,0,0,1,570,48.89a7.84,7.84,0,0,1,1.74,5.05q-.2,7.76-9.2,7.88a14.61,14.61,0,0,1-10-3.69Z"></path><path d="M579.48,34.53h16.74v3.86H583.45v7.74h10.91v3.63H583.45v8h12.78v3.86H579.48Z"></path><path d="M603.47,34.53h4v23.2h12.78v3.86H603.47Z"></path><path d="M627.46,34.53h4v23.2H644.2v3.86H627.46Z"></path><path d="M651.45,34.53h16.74v3.86H655.42v7.74h10.91v3.63H655.42v8h12.78v3.86H651.45Z"></path><path d="M675.44,34.53h10.24A7.9,7.9,0,0,1,691,36.32a7.3,7.3,0,0,1,2.6,5.77,7.52,7.52,0,0,1-5.06,7.5l6.07,12h-4.71L684.49,50h-5.08V61.59h-4Zm4,11.86h6a4.18,4.18,0,0,0,4.45-4.32A3.66,3.66,0,0,0,688.56,39a4.47,4.47,0,0,0-2.92-.84h-6.24Z"></path><path d="M33.52,38.17H26.34V34.53H44.68v3.64H37.49V61.59h-4Z"></path><path d="M65.29,49.77H54.89V61.59h-4V34.53h4v11.6h10.4V34.53h4V61.59h-4Z"></path><path d="M78.4,34.53H95.15v3.86H82.37v7.74H93.28v3.63H82.37v8H95.15v3.86H78.4Z"></path><path d="M123.21,34.55h3.74l6.72,19.24h.07l5.15-19.24h4l-7.25,27.06h-3.76l-6.7-19.24h-.07l-5.15,19.24h-4Z"></path><path d="M152.06,34.55H168.8l-1,3.86H155l-2.07,7.74h10.91l-1,3.63H151.94l-2.13,8h12.78l-1,3.86H144.81Z"></path><path d="M173.69,34.55h4.19l-1,19.24h.07l10.24-19.24H190l-.09,19.24H190l9.29-19.24h4.19L189.7,61.61h-3.33l.23-19.52h-.07L176.29,61.61H173Z"></path><path d="M222.78,50.48l-3.62-15.93h4.21l2.34,12,8.77-12h4.21L226.53,50.47l-3,11.14H219.8Z"></path><path d="M238.88,48.08a53.78,53.78,0,0,1,2-6.32,10.4,10.4,0,0,1,1.57-2.59,13.64,13.64,0,0,1,3.95-3.33,10.85,10.85,0,0,1,5.56-1.52,7.17,7.17,0,0,1,4.8,1.52,6.19,6.19,0,0,1,2.09,3.34,5.36,5.36,0,0,1,.22,2.58,57.76,57.76,0,0,1-1.46,6.31,61.6,61.6,0,0,1-1.91,6.27A8.72,8.72,0,0,1,254.05,57a12.94,12.94,0,0,1-3.87,3.3,11.3,11.3,0,0,1-5.63,1.56,7.17,7.17,0,0,1-4.74-1.56,6.14,6.14,0,0,1-2.17-3.3q-.12-.61-.21-1.17a7.09,7.09,0,0,1,0-1.45A49.93,49.93,0,0,1,238.88,48.08Zm4,0a34.6,34.6,0,0,0-1.16,5.41,3.66,3.66,0,0,0,.41,2.29,3.17,3.17,0,0,0,1.29,1.36,3.74,3.74,0,0,0,2.25.61,5.73,5.73,0,0,0,2.63-.61,6.51,6.51,0,0,0,1.95-1.36,6.83,6.83,0,0,0,1.68-2.29,40.28,40.28,0,0,0,1.72-5.41,37.91,37.91,0,0,0,1.19-5.45,3.79,3.79,0,0,0-.46-2.25A3.25,3.25,0,0,0,253.14,39a4.7,4.7,0,0,0-2.31-.58,6.39,6.39,0,0,0-2.57.58,7.42,7.42,0,0,0-2,1.39,6.41,6.41,0,0,0-1.63,2.25A38.72,38.72,0,0,0,242.85,48.08Z"></path><path d="M269.43,34.55h10.24a6.2,6.2,0,0,1,4.87,1.78q1.95,2,1.05,5.77a10.66,10.66,0,0,1-7.07,7.5l2.85,12h-4.71L274.33,50h-5.08l-3.1,11.56h-4Zm.79,11.86h6a5.52,5.52,0,0,0,3.71-1.34,5.8,5.8,0,0,0,1.9-3q.53-2.12-.49-3.07a3.58,3.58,0,0,0-2.69-.84h-6.24Z"></path><path d="M295.46,34.55h4l-3.73,13.94h.08L310.3,34.55H315L303.75,45.22l4.89,16.39h-4.71l-3.6-13.23-5.94,5-2.21,8.24h-4Z"></path><path d="M337.69,38.18h-7.18l1-3.64h18.34l-1,3.64h-7.19l-6.28,23.42h-4Z"></path><path d="M356.07,34.55h4l-7.25,27.06h-4Z"></path><path d="M368.72,34.55h3.74l2.79,17.64,12.1-17.64h3.75l-7.25,27.06h-4l4.52-16.88h-.09l-9,13H372l-2-13H370l-4.52,16.88h-4Z"></path><path d="M400.38,34.55h16.74l-1,3.86H403.31l-2.07,7.74h10.91l-1,3.63H400.26l-2.13,8H410.9l-1,3.86H393.13Z"></path><path d="M419.2,55.05a8.74,8.74,0,0,0,6.73,2.7q5.13-.07,6.19-3.77.85-3-2.44-3.64l-3.34-.5a6.13,6.13,0,0,1-4.45-2.58,6.2,6.2,0,0,1-.47-5,10.34,10.34,0,0,1,3.81-5.72,11,11,0,0,1,6.86-2.19,11.34,11.34,0,0,1,7.75,2.79l-3.12,3.37a9.29,9.29,0,0,0-5.94-2.08,6,6,0,0,0-3.31.95,5,5,0,0,0-2.1,2.94,2.5,2.5,0,0,0,.31,2.12,3.63,3.63,0,0,0,2.46,1.34q1,.19,2.83.43,3.55.52,4.72,2.73a6.71,6.71,0,0,1,.39,5.05q-2.28,7.76-11.31,7.88-5.82,0-9-3.69Z"></path><path d="M21.81,976.36h4.82a5.78,5.78,0,0,1,2.33.44,4.59,4.59,0,0,1,1.83,1.56A6.73,6.73,0,0,1,31.92,981a20.7,20.7,0,0,1,.31,4.06,25.62,25.62,0,0,1-.17,3.22,8,8,0,0,1-.74,2.5,5.45,5.45,0,0,1-1.76,2.18,4.91,4.91,0,0,1-2.9.78H25v11.12H21.81ZM25,989.88h1.54a2.69,2.69,0,0,0,1.51-.36,2.1,2.1,0,0,0,.79-1,4.66,4.66,0,0,0,.3-1.5q0-.88,0-2t0-1.9a5.51,5.51,0,0,0-.28-1.56,2.19,2.19,0,0,0-.74-1,2.37,2.37,0,0,0-1.45-.38H25Z"></path><path d="M39.54,976.36h2.68l5,28.48H44l-.94-6.12H38.69l-.94,6.12H34.53Zm1.35,8.2h-.06l-1.57,10.32h3.21Z"></path><path d="M51.69,980.2H48v-3.84H58.62v3.84H54.9v24.64H51.69Z"></path><path d="M64.66,980.2H60.95v-3.84H71.59v3.84H67.87v24.64H64.66Z"></path><path d="M75.52,976.36h9.57v3.84H78.73v8.36h5.54v3.84H78.73v8.36h6.36v4.08H75.52Z"></path><path d="M89.69,976.36h5.16q5.67,0,5.67,8.36a13.11,13.11,0,0,1-.61,4.26,5.66,5.66,0,0,1-2.16,2.86l3.46,13h-3.4l-3-12.16H92.9v12.16H89.69Zm3.21,12.72h1.83a2.64,2.64,0,0,0,1.35-.3,2,2,0,0,0,.77-.86,4.37,4.37,0,0,0,.36-1.38,19.2,19.2,0,0,0,0-3.8,4.06,4.06,0,0,0-.39-1.4,2,2,0,0,0-.83-.86,3.08,3.08,0,0,0-1.42-.28H92.9Z"></path><path d="M116,984.56H112.8v-.92a5.27,5.27,0,0,0-.52-2.42,1.81,1.81,0,0,0-1.75-1,1.76,1.76,0,0,0-1.09.32,2.18,2.18,0,0,0-.66.82,4.06,4.06,0,0,0-.33,1.16,9.72,9.72,0,0,0-.09,1.38c0,.56,0,1,0,1.42a3,3,0,0,0,.24,1,2.16,2.16,0,0,0,.55.74,4.73,4.73,0,0,0,1,.64l2.46,1.24a5.9,5.9,0,0,1,1.73,1.22,5,5,0,0,1,1,1.64,8.44,8.44,0,0,1,.49,2.16,27.36,27.36,0,0,1,.13,2.78,18.47,18.47,0,0,1-.28,3.34,8.08,8.08,0,0,1-.93,2.64,4.85,4.85,0,0,1-1.72,1.74,5,5,0,0,1-2.61.64,4.67,4.67,0,0,1-2.17-.52,5.33,5.33,0,0,1-1.73-1.42,7,7,0,0,1-1.15-2.14,8.21,8.21,0,0,1-.43-2.68V996.8h3.21v1.28a4,4,0,0,0,.52,2,1.85,1.85,0,0,0,1.75.9,2.32,2.32,0,0,0,1.27-.3,1.88,1.88,0,0,0,.69-.84,4.18,4.18,0,0,0,.3-1.34q.06-.8.06-1.76,0-1.12-.06-1.84a3.52,3.52,0,0,0-.27-1.16,1.92,1.92,0,0,0-.57-.72,7.08,7.08,0,0,0-1-.6l-2.3-1.2a5.6,5.6,0,0,1-2.79-2.86,12.13,12.13,0,0,1-.71-4.46,13,13,0,0,1,.35-3,7.9,7.9,0,0,1,1-2.48,5.22,5.22,0,0,1,1.72-1.66,4.64,4.64,0,0,1,2.42-.62,4.38,4.38,0,0,1,2.19.56,5.62,5.62,0,0,1,1.7,1.48,6.91,6.91,0,0,1,1.09,2.06,7.39,7.39,0,0,1,.38,2.34Z"></path><path d="M120.73,983.08a9,9,0,0,1,.47-3,6.51,6.51,0,0,1,1.24-2.18,5.29,5.29,0,0,1,1.73-1.3,4.49,4.49,0,0,1,3.87,0,5.3,5.3,0,0,1,1.73,1.3A6.52,6.52,0,0,1,131,980a9,9,0,0,1,.47,3v15a9,9,0,0,1-.47,3.06,6.53,6.53,0,0,1-1.24,2.16,5.26,5.26,0,0,1-1.73,1.3,4.48,4.48,0,0,1-3.87,0,5.25,5.25,0,0,1-1.73-1.3,6.52,6.52,0,0,1-1.24-2.16,9,9,0,0,1-.47-3.06Zm3.21,15a3.13,3.13,0,0,0,.65,2.18,2,2,0,0,0,3.05,0,3.14,3.14,0,0,0,.65-2.18v-15a3.14,3.14,0,0,0-.65-2.18,2,2,0,0,0-3.05,0,3.14,3.14,0,0,0-.65,2.18Z"></path><path d="M136.73,976.36h3.09l4.85,17.16h.06V976.36h3.21v28.48h-3L140,987.72h-.06v17.12h-3.21Z"></path><path d="M302.3,976.36h3.09l4.12,15.08h.06l4.09-15.08h3.12v28.48h-3.21V987.52h-.06l-3.18,12.24h-1.61l-3.15-12.24h-.06v17.32H302.3Z"></path><path d="M325.88,976.36h2.68l5,28.48h-3.21l-.94-6.12H325l-.94,6.12h-3.21Zm1.35,8.2h-.06l-1.57,10.32h3.21Z"></path><path d="M340.61,989.92l-4.19-13.56h3.4l2.42,8.44,2.46-8.44h3.4l-4.28,13.56,4.63,14.92h-3.4l-2.8-9.6-2.77,9.6h-3.4Z"></path><path d="M352.42,976.36H362v3.84h-6.36v8.64h5.54v3.84h-5.54v12.16h-3.21Z"></path><path d="M366.68,976.36h3.21v28.48h-3.21Z"></path><path d="M375.53,976.36h9.57v3.84h-6.36v8.36h5.54v3.84h-5.54v8.36h6.36v4.08h-9.57Z"></path><path d="M389.7,976.36h3.21v24.4h6.36v4.08H389.7Z"></path><path d="M403.86,976.36h4.75a4.91,4.91,0,0,1,4.19,1.94,8.9,8.9,0,0,1,1.45,5.42V997q0,4-1.53,5.9a5.31,5.31,0,0,1-4.39,1.9h-4.47Zm3.21,24.64h1.48a2.13,2.13,0,0,0,1.92-.86,5,5,0,0,0,.57-2.7V983.72a5.21,5.21,0,0,0-.54-2.6,2.06,2.06,0,0,0-2-.92h-1.48Z"></path><path d="M185.14,983.08a9,9,0,0,1,.47-3,6.51,6.51,0,0,1,1.24-2.18,5.29,5.29,0,0,1,1.73-1.3,4.49,4.49,0,0,1,3.87,0,5.3,5.3,0,0,1,1.73,1.3,6.52,6.52,0,0,1,1.24,2.18,9,9,0,0,1,.47,3v1.44H192.7v-1.44a3.14,3.14,0,0,0-.65-2.18,2,2,0,0,0-3.05,0,3.14,3.14,0,0,0-.65,2.18v15a3.13,3.13,0,0,0,.65,2.18,2,2,0,0,0,3.05,0,3.14,3.14,0,0,0,.65-2.18v-5.36h-2.55v-3.6h5.76v9a9,9,0,0,1-.47,3.06,6.53,6.53,0,0,1-1.24,2.16,5.26,5.26,0,0,1-1.73,1.3,4.48,4.48,0,0,1-3.87,0,5.25,5.25,0,0,1-1.73-1.3,6.52,6.52,0,0,1-1.24-2.16,9,9,0,0,1-.47-3.06Z"></path><path d="M201.26,976.36h5.16q5.67,0,5.67,8.36a13.11,13.11,0,0,1-.61,4.26,5.66,5.66,0,0,1-2.16,2.86l3.46,13h-3.4l-3-12.16h-1.92v12.16h-3.21Zm3.21,12.72h1.83a2.64,2.64,0,0,0,1.35-.3,2,2,0,0,0,.77-.86,4.37,4.37,0,0,0,.36-1.38,19.2,19.2,0,0,0,0-3.8,4.06,4.06,0,0,0-.39-1.4,2,2,0,0,0-.83-.86,3.08,3.08,0,0,0-1.42-.28h-1.67Z"></path><path d="M217.19,976.36h9.57v3.84H220.4v8.36h5.54v3.84H220.4v8.36h6.36v4.08h-9.57Z"></path><path d="M231.23,976.36h3.09l4.85,17.16h.06V976.36h3.21v28.48h-3l-4.91-17.12h-.06v17.12h-3.21Z"></path><path d="M247.73,976.36h3.09l4.85,17.16h.06V976.36h3.21v28.48h-3L251,987.72h-.06v17.12h-3.21Z"></path><path d="M267.34,992.8l-4.41-16.44h3.4l2.58,11.32H269l2.58-11.32H275l-4.41,16.44v12h-3.21Z"></path><path d="M441.8,976.36h3.09L449,991.44h.06l4.09-15.08h3.12v28.48h-3.21V987.52H453l-3.18,12.24h-1.61l-3.15-12.24H445v17.32H441.8Z"></path><path d="M465,999a2.28,2.28,0,0,0,.42,1.48,1.4,1.4,0,0,0,1.15.52,1.19,1.19,0,0,0,1.21-.68,4.38,4.38,0,0,0,.36-1.36h3.21a8.44,8.44,0,0,1-.33,2.4,5.67,5.67,0,0,1-1,1.92,4.66,4.66,0,0,1-1.51,1.32,4.08,4.08,0,0,1-2,.48,4.14,4.14,0,0,1-2.55-.8,5.09,5.09,0,0,1-1.64-2.12,6.6,6.6,0,0,1-.47-1.84,19,19,0,0,1-.13-2.28v-6.68a19,19,0,0,1,.13-2.28,6.6,6.6,0,0,1,.47-1.84,5.09,5.09,0,0,1,1.64-2.12,4.44,4.44,0,0,1,4.55-.32,4.38,4.38,0,0,1,1.51,1.34,6.47,6.47,0,0,1,.94,2.06,9.77,9.77,0,0,1,.33,2.6h-3.21a3.11,3.11,0,0,0-.43-1.82,1.43,1.43,0,0,0-2.3,0,2.94,2.94,0,0,0-.42,1.74Z"></path><path d="M476,976.36h3.09l4.12,15.08h.06l4.09-15.08h3.12v28.48h-3.21V987.52h-.06L484,999.76h-1.61l-3.15-12.24h-.06v17.32H476Z"></path><path d="M496.11,976.36h3.21v28.48h-3.21Z"></path><path d="M505,976.36h3.21v24.4h6.36v4.08H505Z"></path><path d="M519.12,976.36h3.21v24.4h6.36v4.08h-9.57Z"></path><path d="M536.85,976.36h2.68l5,28.48h-3.21l-.94-6.12H536l-.94,6.12h-3.21Zm1.35,8.2h-.06l-1.57,10.32h3.21Z"></path><path d="M548.5,976.36h3.09l4.85,17.16h.06V976.36h3.21v28.48h-3l-4.91-17.12h-.06v17.12H548.5Z"></path><path d="M602.76,984.56h-3.21v-.92a5.27,5.27,0,0,0-.52-2.42,1.81,1.81,0,0,0-1.75-1,1.76,1.76,0,0,0-1.09.32,2.18,2.18,0,0,0-.66.82,4.06,4.06,0,0,0-.33,1.16,9.72,9.72,0,0,0-.09,1.38c0,.56,0,1,0,1.42a3,3,0,0,0,.24,1,2.16,2.16,0,0,0,.55.74,4.73,4.73,0,0,0,1,.64l2.46,1.24a5.9,5.9,0,0,1,1.73,1.22,5,5,0,0,1,1,1.64,8.44,8.44,0,0,1,.49,2.16,27.36,27.36,0,0,1,.13,2.78,18.47,18.47,0,0,1-.28,3.34,8.08,8.08,0,0,1-.93,2.64,4.85,4.85,0,0,1-1.72,1.74,5,5,0,0,1-2.61.64,4.67,4.67,0,0,1-2.17-.52,5.33,5.33,0,0,1-1.73-1.42,7,7,0,0,1-1.15-2.14,8.21,8.21,0,0,1-.43-2.68V996.8H595v1.28a4,4,0,0,0,.52,2,1.85,1.85,0,0,0,1.75.9,2.32,2.32,0,0,0,1.27-.3,1.88,1.88,0,0,0,.69-.84,4.18,4.18,0,0,0,.3-1.34q.06-.8.06-1.76,0-1.12-.06-1.84a3.52,3.52,0,0,0-.27-1.16,1.92,1.92,0,0,0-.57-.72,7.08,7.08,0,0,0-1-.6l-2.3-1.2a5.6,5.6,0,0,1-2.79-2.86,12.13,12.13,0,0,1-.71-4.46,13,13,0,0,1,.35-3,7.9,7.9,0,0,1,1-2.48,5.22,5.22,0,0,1,1.72-1.66,4.64,4.64,0,0,1,2.42-.62,4.38,4.38,0,0,1,2.19.56,5.62,5.62,0,0,1,1.7,1.48,6.91,6.91,0,0,1,1.09,2.06,7.39,7.39,0,0,1,.38,2.34Z"></path><path d="M621,1004.84h-3l-2.46-18.48h-.06L613,1004.84h-3l-3.34-28.48h3.4l1.61,18.08h.06l2.52-18.08h2.46l2.61,18.52h.06l1.54-18.52h3.4Z"></path><path d="M629,976.36h3.21v28.48H629Z"></path><path d="M639.91,980.2H636.2v-3.84h10.64v3.84h-3.72v24.64h-3.21Z"></path><path d="M649.73,1001.24l6-21H650v-3.84h9.22v3.24L653.1,1001h6.17v3.84h-9.54Z"></path><path d="M663.78,976.36H667v24.4h6.36v4.08h-9.57Z"></path><path d="M677.94,976.36h9.57v3.84h-6.36v8.36h5.54v3.84h-5.54v8.36h6.36v4.08h-9.57Z"></path><path d="M692.11,976.36h5.16q5.67,0,5.67,8.36a13.11,13.11,0,0,1-.61,4.26,5.66,5.66,0,0,1-2.16,2.86l3.46,13h-3.4l-3-12.16h-1.92v12.16h-3.21Zm3.21,12.72h1.83a2.64,2.64,0,0,0,1.35-.3,2,2,0,0,0,.77-.86,4.37,4.37,0,0,0,.36-1.38,19.2,19.2,0,0,0,0-3.8,4.06,4.06,0,0,0-.39-1.4,2,2,0,0,0-.83-.86,3.08,3.08,0,0,0-1.42-.28h-1.67Z"></path><circle class="cls-8" cx="427.86" cy="992.72" r="3.83"></circle><circle class="cls-8" cx="287.48" cy="992.72" r="3.83"></circle><circle class="cls-8" cx="166.86" cy="992.72" r="3.83"></circle><circle class="cls-8" cx="576.36" cy="992.72" r="3.83"></circle><path d="M82.48,524.4A14,14,0,0,1,79.26,527a8.77,8.77,0,0,1-4.58,1.12q-5,0-7.23-3.06a19.36,19.36,0,0,1-3.07-8.59h-.21q-.42,1.34-1.15,3.36a13.49,13.49,0,0,1-2.24,3.88,12.07,12.07,0,0,1-4,3.14,14,14,0,0,1-6.35,1.27,14.59,14.59,0,0,1-7-1.42,11.55,11.55,0,0,1-4.06-3.51,11.73,11.73,0,0,1-1.92-4.7,27.66,27.66,0,0,1-.47-4.85,20.07,20.07,0,0,1,1.46-8.36,13.57,13.57,0,0,1,3.8-5,21.76,21.76,0,0,1,5.2-3.06q2.86-1.19,5.77-2.54,3.43-1.64,5.67-2.84a10.06,10.06,0,0,0,3.49-2.91,10.36,10.36,0,0,0,1.72-4.33,42.11,42.11,0,0,0,.47-7.09,59.14,59.14,0,0,0-.31-6.42,17.91,17.91,0,0,0-1.14-4.85,6.59,6.59,0,0,0-2.39-3.06,7.38,7.38,0,0,0-4.16-1,9,9,0,0,0-5.67,1.72q-2.24,1.72-2.24,5.6a39.68,39.68,0,0,0,.31,5,32.32,32.32,0,0,1,.31,3.66,5.77,5.77,0,0,1-1,3.51,3.51,3.51,0,0,1-3,1.42q-3.43,0-4.26-1.79a11,11,0,0,1-.83-4.63,18.92,18.92,0,0,1,1-6.27,15.9,15.9,0,0,1,3.07-5.3,14.27,14.27,0,0,1,5.1-3.66,17.34,17.34,0,0,1,7-1.34,16.91,16.91,0,0,1,8,1.72,14.29,14.29,0,0,1,5.2,4.63A19.17,19.17,0,0,1,72.39,473a34.63,34.63,0,0,1,.83,7.69v37.18q0,4.33.94,5.82a3,3,0,0,0,2.71,1.49,5.54,5.54,0,0,0,2.39-.6,8.27,8.27,0,0,0,2.39-1.79Zm-18.2-34.94h-.21q-.21,1.94-3.43,3.88l-7.8,4.48a12.87,12.87,0,0,0-5.1,5.45A19.29,19.29,0,0,0,46,512a35.83,35.83,0,0,0,.31,4.63,15.25,15.25,0,0,0,1.14,4.25,8,8,0,0,0,2.34,3.06,6.08,6.08,0,0,0,3.9,1.19,7.6,7.6,0,0,0,5.57-2.09,13.33,13.33,0,0,0,3.22-5.23A29.47,29.47,0,0,0,63.92,511q.36-3.66.36-6.64Z"></path><path d="M129.19,509.62q-.31,1.64-1.2,4.7a24.08,24.08,0,0,1-2.81,6.12,18.94,18.94,0,0,1-5.2,5.38,14.38,14.38,0,0,1-8.48,2.31,21.18,21.18,0,0,1-8.22-1.79,21.8,21.8,0,0,1-7.8-5.75,30.34,30.34,0,0,1-5.77-10.38,48.51,48.51,0,0,1-2.24-15.83A46.07,46.07,0,0,1,89.4,480.8a38,38,0,0,1,5.2-10.9,25.08,25.08,0,0,1,7.7-7.24,18.22,18.22,0,0,1,9.41-2.61,18.53,18.53,0,0,1,5.77,1,16.55,16.55,0,0,1,5.41,3,16,16,0,0,1,4.06,5.23,17.35,17.35,0,0,1,1.61,7.84,8.81,8.81,0,0,1-1.4,5.15,4.59,4.59,0,0,1-4,2,5.84,5.84,0,0,1-3.38-1.12,4.3,4.3,0,0,1-1.61-3.81,22,22,0,0,1,.73-5.08,21.67,21.67,0,0,0,.73-4.93,6.33,6.33,0,0,0-2.39-5.3,8.72,8.72,0,0,0-5.51-1.87A14.87,14.87,0,0,0,107,463a9,9,0,0,0-4.47,4.11,30.73,30.73,0,0,0-3.33,9.85,96.75,96.75,0,0,0-1.3,17.92,120.67,120.67,0,0,0,.57,12.09,42.51,42.51,0,0,0,2.08,9.93,16.47,16.47,0,0,0,4.16,6.72,9.76,9.76,0,0,0,6.92,2.46,13.51,13.51,0,0,0,7.54-1.94,15.18,15.18,0,0,0,4.68-4.7,22.72,22.72,0,0,0,2.55-5.6q.83-2.83,1.25-4.63Z"></path><path d="M179.22,509.62q-.31,1.64-1.2,4.7a24.11,24.11,0,0,1-2.81,6.12,18.94,18.94,0,0,1-5.2,5.38,14.38,14.38,0,0,1-8.48,2.31,21.17,21.17,0,0,1-8.22-1.79,21.8,21.8,0,0,1-7.8-5.75,30.33,30.33,0,0,1-5.77-10.38,48.5,48.5,0,0,1-2.24-15.83,46.1,46.1,0,0,1,1.92-13.59,38,38,0,0,1,5.2-10.9,25.09,25.09,0,0,1,7.7-7.24,18.22,18.22,0,0,1,9.41-2.61,18.54,18.54,0,0,1,5.77,1,16.57,16.57,0,0,1,5.41,3,16,16,0,0,1,4.06,5.23,17.35,17.35,0,0,1,1.61,7.84,8.81,8.81,0,0,1-1.4,5.15,4.59,4.59,0,0,1-4,2,5.83,5.83,0,0,1-3.38-1.12,4.3,4.3,0,0,1-1.61-3.81,22,22,0,0,1,.73-5.08,21.72,21.72,0,0,0,.73-4.93,6.34,6.34,0,0,0-2.39-5.3,8.72,8.72,0,0,0-5.51-1.87A14.86,14.86,0,0,0,157,463a9,9,0,0,0-4.47,4.11,30.7,30.7,0,0,0-3.33,9.85,96.75,96.75,0,0,0-1.3,17.92,120.38,120.38,0,0,0,.57,12.09,42.51,42.51,0,0,0,2.08,9.93,16.48,16.48,0,0,0,4.16,6.72,9.76,9.76,0,0,0,6.92,2.46,13.51,13.51,0,0,0,7.54-1.94,15.18,15.18,0,0,0,4.68-4.7,22.75,22.75,0,0,0,2.55-5.6q.83-2.83,1.25-4.63Z"></path><path d="M187.54,494.09a40.15,40.15,0,0,1,2.24-13.59,39.47,39.47,0,0,1,5.72-10.83,27.34,27.34,0,0,1,7.8-7.09,15.43,15.43,0,0,1,17,0,27.38,27.38,0,0,1,7.8,7.09,39.57,39.57,0,0,1,5.72,10.83A40.2,40.2,0,0,1,236,494.09a41.24,41.24,0,0,1-2.08,13.21,39.58,39.58,0,0,1-5.46,10.83,27.41,27.41,0,0,1-7.75,7.32,16.23,16.23,0,0,1-17.89,0,27.38,27.38,0,0,1-7.75-7.32,39.48,39.48,0,0,1-5.46-10.83A41.19,41.19,0,0,1,187.54,494.09Zm10.4,0A98.21,98.21,0,0,0,199.09,511a32.2,32.2,0,0,0,3,9.63,9.45,9.45,0,0,0,4.37,4.41,14,14,0,0,0,10.61,0,9.46,9.46,0,0,0,4.37-4.41,32.25,32.25,0,0,0,3-9.63,98.31,98.31,0,0,0,1.14-16.87,113,113,0,0,0-.83-15,36.46,36.46,0,0,0-2.55-9.85,12.06,12.06,0,0,0-4.32-5.45,12.29,12.29,0,0,0-12.27,0,12,12,0,0,0-4.32,5.45,36.39,36.39,0,0,0-2.55,9.85A112.72,112.72,0,0,0,197.94,494.09Z"></path><path d="M299.88,526H283.14V511h-.21q-.94,3-2.24,6a24.51,24.51,0,0,1-3.23,5.52,16.89,16.89,0,0,1-4.47,4,11.19,11.19,0,0,1-6,1.57,14.73,14.73,0,0,1-6.76-1.34,15.73,15.73,0,0,1-4.06-2.84,23.55,23.55,0,0,1-1.61-1.87A11.39,11.39,0,0,1,253,519a27.77,27.77,0,0,1-1.25-5,45.92,45.92,0,0,1-.52-7.54V464.07h-8V462h17v45.84a64.88,64.88,0,0,0,.36,7.17,20.53,20.53,0,0,0,1.4,5.75,10.17,10.17,0,0,0,2.7,3.88A6.49,6.49,0,0,0,269,526a7.7,7.7,0,0,0,4.73-1.94,18.71,18.71,0,0,0,4.47-5.52,37.09,37.09,0,0,0,3.38-8.59,43.31,43.31,0,0,0,1.35-11.27V464.07H275V462h16.85v62h8Z"></path><path d="M305,523.95h8V464.07h-8V462h16.75v16h.21q.62-1.94,1.82-4.93a26.51,26.51,0,0,1,3.28-5.82,19.5,19.5,0,0,1,5.2-4.85,13.7,13.7,0,0,1,7.59-2A14.38,14.38,0,0,1,351,465.12q4.32,4.78,4.32,15.23v43.6h8V526h-25v-2.09h8V475.72a20.82,20.82,0,0,0-1.92-9.56,6.33,6.33,0,0,0-6-3.73,11,11,0,0,0-6.35,2.09,19,19,0,0,0-5.3,5.82,31.92,31.92,0,0,0-3.59,8.81,44.43,44.43,0,0,0-1.3,11v33.75h8V526H305Z"></path><path d="M367.71,462h8V442.72a16.26,16.26,0,0,0,1.56.75,7.24,7.24,0,0,0,2.5.3,6.44,6.44,0,0,0,2.7-.52,6.53,6.53,0,0,0,2.18-1.72V462h14.77v2.09H384.66V512.9a32.76,32.76,0,0,0,.57,6.79,12.08,12.08,0,0,0,1.51,4,4.68,4.68,0,0,0,2,1.87,5.6,5.6,0,0,0,2.13.45q3.64,0,5.88-3.81a22.69,22.69,0,0,0,2.86-8.73l1.46.75q-.31,1.94-.94,4.33a17.3,17.3,0,0,1-1.93,4.55,11.36,11.36,0,0,1-3.38,3.58,9,9,0,0,1-5.2,1.42q-7.8,0-10.87-4.33t-3.07-12.24V464.07h-8Z"></path><path d="M450.3,524.4a14,14,0,0,1-3.22,2.61,8.77,8.77,0,0,1-4.58,1.12q-5,0-7.23-3.06a19.36,19.36,0,0,1-3.07-8.59H432q-.42,1.34-1.14,3.36a13.48,13.48,0,0,1-2.24,3.88,12.06,12.06,0,0,1-4,3.14,14,14,0,0,1-6.35,1.27,14.59,14.59,0,0,1-7-1.42,11.54,11.54,0,0,1-4.06-3.51,11.72,11.72,0,0,1-1.92-4.7,27.57,27.57,0,0,1-.47-4.85,20.07,20.07,0,0,1,1.46-8.36,13.58,13.58,0,0,1,3.8-5,21.8,21.8,0,0,1,5.2-3.06q2.86-1.19,5.77-2.54,3.43-1.64,5.67-2.84a10.07,10.07,0,0,0,3.48-2.91,10.36,10.36,0,0,0,1.72-4.33,42.22,42.22,0,0,0,.47-7.09,59.4,59.4,0,0,0-.31-6.42,17.94,17.94,0,0,0-1.14-4.85,6.59,6.59,0,0,0-2.39-3.06,7.39,7.39,0,0,0-4.16-1,9,9,0,0,0-5.67,1.72q-2.24,1.72-2.24,5.6a39.86,39.86,0,0,0,.31,5,32.16,32.16,0,0,1,.31,3.66,5.77,5.77,0,0,1-1,3.51,3.51,3.51,0,0,1-3,1.42q-3.43,0-4.27-1.79a11,11,0,0,1-.83-4.63,18.92,18.92,0,0,1,1-6.27,15.89,15.89,0,0,1,3.07-5.3,14.27,14.27,0,0,1,5.1-3.66,17.34,17.34,0,0,1,7-1.34,16.92,16.92,0,0,1,8,1.72,14.31,14.31,0,0,1,5.2,4.63,19.17,19.17,0,0,1,2.81,6.57,34.63,34.63,0,0,1,.83,7.69v37.18q0,4.33.94,5.82a3,3,0,0,0,2.7,1.49,5.54,5.54,0,0,0,2.39-.6,8.28,8.28,0,0,0,2.39-1.79Zm-18.2-34.94h-.21q-.21,1.94-3.43,3.88l-7.8,4.48a12.88,12.88,0,0,0-5.1,5.45,19.3,19.3,0,0,0-1.77,8.73,35.67,35.67,0,0,0,.31,4.63,15.22,15.22,0,0,0,1.14,4.25,7.94,7.94,0,0,0,2.34,3.06,6.08,6.08,0,0,0,3.9,1.19,7.6,7.6,0,0,0,5.57-2.09,13.31,13.31,0,0,0,3.22-5.23,29.47,29.47,0,0,0,1.46-6.79q.36-3.66.36-6.64Z"></path><path d="M453.52,523.95h8V420.47h-8v-2.09h17v55.54h.21a23.19,23.19,0,0,1,5-9.85,11.73,11.73,0,0,1,9.26-4,14.46,14.46,0,0,1,8.43,2.76,26.93,26.93,0,0,1,7,7.32,38.68,38.68,0,0,1,4.79,10.68,47.66,47.66,0,0,1-.05,25.91,41.16,41.16,0,0,1-4.94,11,27.06,27.06,0,0,1-7.23,7.62,15.05,15.05,0,0,1-8.69,2.84,10.15,10.15,0,0,1-6-1.72,15.73,15.73,0,0,1-4.06-4.11,19.75,19.75,0,0,1-2.44-4.93q-.83-2.54-1.25-4.33h-.21v13H453.52Zm43-32.1q0-6.87-.52-12.32a42.46,42.46,0,0,0-1.82-9.33,13.63,13.63,0,0,0-3.64-6,8.64,8.64,0,0,0-6-2.09,10,10,0,0,0-6.35,1.94,14.87,14.87,0,0,0-4.06,4.93,21.48,21.48,0,0,0-1.82,4.48,38.86,38.86,0,0,0-1.09,5.67q-.42,3.29-.57,7.54t-.16,10.08q0,4.93.52,10.15a42,42,0,0,0,2,9.48,18,18,0,0,0,4.11,6.94,10.63,10.63,0,0,0,13.78.3,14.76,14.76,0,0,0,3.74-6.87A50,50,0,0,0,496.17,506Q496.48,499.61,496.48,491.85Z"></path><path d="M515.2,523.95h8V464.07h-8V462h17v62h8V526h-25ZM522,427.19a9.55,9.55,0,0,1,1.61-5.6,4.45,4.45,0,0,1,7.8,0,10.53,10.53,0,0,1,0,11.2,4.44,4.44,0,0,1-7.8,0A9.54,9.54,0,0,1,522,427.19Z"></path><path d="M546,523.95h8V420.47h-8v-2.09h17V523.95h8V526H546Z"></path><path d="M576.78,523.95h8V464.07h-8V462h17v62h8V526h-25Zm6.76-96.76a9.55,9.55,0,0,1,1.61-5.6,4.44,4.44,0,0,1,7.8,0,10.53,10.53,0,0,1,0,11.2,4.44,4.44,0,0,1-7.8,0A9.54,9.54,0,0,1,583.54,427.19Z"></path><path d="M606.43,462h8V442.72a16.26,16.26,0,0,0,1.56.75,7.24,7.24,0,0,0,2.5.3,6.44,6.44,0,0,0,2.7-.52,6.53,6.53,0,0,0,2.18-1.72V462h14.77v2.09H623.38V512.9a32.76,32.76,0,0,0,.57,6.79,12.08,12.08,0,0,0,1.51,4,4.68,4.68,0,0,0,2,1.87,5.6,5.6,0,0,0,2.13.45q3.64,0,5.88-3.81a22.69,22.69,0,0,0,2.86-8.73l1.46.75q-.31,1.94-.94,4.33a17.3,17.3,0,0,1-1.93,4.55,11.36,11.36,0,0,1-3.38,3.58,9,9,0,0,1-5.2,1.42q-7.8,0-10.87-4.33t-3.07-12.24V464.07h-8Z"></path><path d="M638.78,462h25.49v2.09h-8.74L668.94,511l14-46.88h-8.63V462h15.92v2.09h-5.62l-17.16,57.63q-2,6.42-3.74,12.92t-3.54,13.07q-1.46,5.37-2.91,9.41a33.89,33.89,0,0,1-3.07,6.57,12.78,12.78,0,0,1-3.48,3.81,7.61,7.61,0,0,1-4.37,1.27,8,8,0,0,1-4.84-1.34,10.34,10.34,0,0,1-2.86-3.14,10.85,10.85,0,0,1-1.35-3.73,21.33,21.33,0,0,1-.31-3.28,9,9,0,0,1,1.46-5.6,4.35,4.35,0,0,1,3.54-1.87,6,6,0,0,1,1.56.22,4.14,4.14,0,0,1,1.56.82,4.94,4.94,0,0,1,1.25,1.64,5.66,5.66,0,0,1,.52,2.54,9.16,9.16,0,0,1-.88,4,9.46,9.46,0,0,0-.88,4.11,3.27,3.27,0,0,0,.73,2.54,3,3,0,0,0,2,.6,4.82,4.82,0,0,0,3.07-1.12,11.67,11.67,0,0,0,2.76-3.66,43.39,43.39,0,0,0,2.7-6.64q1.35-4.11,3-10.08L664,528l-18-63.91h-7.18Z"></path><path class="cls-1" d="M79.52,521.43A14,14,0,0,1,76.29,524a8.77,8.77,0,0,1-4.58,1.12q-5,0-7.23-3.06a19.36,19.36,0,0,1-3.07-8.59h-.21q-.42,1.34-1.15,3.36a13.49,13.49,0,0,1-2.24,3.88,12.07,12.07,0,0,1-4,3.14,14,14,0,0,1-6.35,1.27,14.59,14.59,0,0,1-7-1.42,11.55,11.55,0,0,1-4.06-3.51,11.73,11.73,0,0,1-1.92-4.7,27.66,27.66,0,0,1-.47-4.85,20.07,20.07,0,0,1,1.46-8.36,13.57,13.57,0,0,1,3.8-5,21.76,21.76,0,0,1,5.2-3.06q2.86-1.19,5.77-2.54,3.43-1.64,5.67-2.84A10.06,10.06,0,0,0,59.44,486a10.36,10.36,0,0,0,1.72-4.33,42.11,42.11,0,0,0,.47-7.09,59.14,59.14,0,0,0-.31-6.42,17.91,17.91,0,0,0-1.14-4.85,6.59,6.59,0,0,0-2.39-3.06,7.38,7.38,0,0,0-4.16-1,9,9,0,0,0-5.67,1.72q-2.24,1.72-2.24,5.6a39.68,39.68,0,0,0,.31,5,32.32,32.32,0,0,1,.31,3.66,5.77,5.77,0,0,1-1,3.51,3.51,3.51,0,0,1-3,1.42q-3.43,0-4.26-1.79a11,11,0,0,1-.83-4.63,18.92,18.92,0,0,1,1-6.27,15.9,15.9,0,0,1,3.07-5.3,14.27,14.27,0,0,1,5.1-3.66,17.34,17.34,0,0,1,7-1.34,16.91,16.91,0,0,1,8,1.72,14.29,14.29,0,0,1,5.2,4.63A19.17,19.17,0,0,1,69.43,470a34.63,34.63,0,0,1,.83,7.69v37.18q0,4.33.94,5.82a3,3,0,0,0,2.71,1.49,5.54,5.54,0,0,0,2.39-.6,8.27,8.27,0,0,0,2.39-1.79Zm-18.2-34.94H61.1q-.21,1.94-3.43,3.88l-7.8,4.48a12.87,12.87,0,0,0-5.1,5.45A19.29,19.29,0,0,0,43,509a35.83,35.83,0,0,0,.31,4.63,15.25,15.25,0,0,0,1.14,4.25A8,8,0,0,0,46.8,521a6.08,6.08,0,0,0,3.9,1.19,7.6,7.6,0,0,0,5.57-2.09,13.33,13.33,0,0,0,3.22-5.23,29.47,29.47,0,0,0,1.46-6.79q.36-3.66.36-6.64Z"></path><path class="cls-1" d="M126.22,506.65q-.31,1.64-1.2,4.7a24.08,24.08,0,0,1-2.81,6.12,18.94,18.94,0,0,1-5.2,5.38,14.38,14.38,0,0,1-8.48,2.31,21.18,21.18,0,0,1-8.22-1.79,21.8,21.8,0,0,1-7.8-5.75,30.34,30.34,0,0,1-5.77-10.38,48.51,48.51,0,0,1-2.24-15.83,46.07,46.07,0,0,1,1.92-13.59,38,38,0,0,1,5.2-10.9,25.08,25.08,0,0,1,7.7-7.24,18.22,18.22,0,0,1,9.41-2.61,18.53,18.53,0,0,1,5.77,1,16.55,16.55,0,0,1,5.41,3,16,16,0,0,1,4.06,5.23,17.35,17.35,0,0,1,1.61,7.84,8.81,8.81,0,0,1-1.4,5.15,4.59,4.59,0,0,1-4,2,5.84,5.84,0,0,1-3.38-1.12,4.3,4.3,0,0,1-1.61-3.81,22,22,0,0,1,.73-5.08,21.67,21.67,0,0,0,.73-4.93,6.33,6.33,0,0,0-2.39-5.3,8.72,8.72,0,0,0-5.51-1.87A14.87,14.87,0,0,0,104,460a9,9,0,0,0-4.47,4.11,30.73,30.73,0,0,0-3.33,9.85,96.75,96.75,0,0,0-1.3,17.92A120.67,120.67,0,0,0,95.48,504a42.51,42.51,0,0,0,2.08,9.93,16.47,16.47,0,0,0,4.16,6.72,9.76,9.76,0,0,0,6.92,2.46,13.51,13.51,0,0,0,7.54-1.94,15.18,15.18,0,0,0,4.68-4.7,22.72,22.72,0,0,0,2.55-5.6q.83-2.83,1.25-4.63Z"></path><path class="cls-1" d="M176.25,506.65q-.31,1.64-1.2,4.7a24.11,24.11,0,0,1-2.81,6.12,18.94,18.94,0,0,1-5.2,5.38,14.38,14.38,0,0,1-8.48,2.31,21.17,21.17,0,0,1-8.22-1.79,21.8,21.8,0,0,1-7.8-5.75,30.33,30.33,0,0,1-5.77-10.38,48.5,48.5,0,0,1-2.24-15.83,46.1,46.1,0,0,1,1.92-13.59,38,38,0,0,1,5.2-10.9,25.09,25.09,0,0,1,7.7-7.24,18.22,18.22,0,0,1,9.41-2.61,18.54,18.54,0,0,1,5.77,1,16.57,16.57,0,0,1,5.41,3,16,16,0,0,1,4.06,5.23,17.35,17.35,0,0,1,1.61,7.84,8.81,8.81,0,0,1-1.4,5.15,4.59,4.59,0,0,1-4,2,5.83,5.83,0,0,1-3.38-1.12,4.3,4.3,0,0,1-1.61-3.81,22,22,0,0,1,.73-5.08,21.72,21.72,0,0,0,.73-4.93,6.34,6.34,0,0,0-2.39-5.3,8.72,8.72,0,0,0-5.51-1.87A14.86,14.86,0,0,0,154,460a9,9,0,0,0-4.47,4.11,30.7,30.7,0,0,0-3.33,9.85,96.75,96.75,0,0,0-1.3,17.92,120.38,120.38,0,0,0,.57,12.09,42.51,42.51,0,0,0,2.08,9.93,16.48,16.48,0,0,0,4.16,6.72,9.76,9.76,0,0,0,6.92,2.46,13.51,13.51,0,0,0,7.54-1.94,15.18,15.18,0,0,0,4.68-4.7,22.75,22.75,0,0,0,2.55-5.6q.83-2.83,1.25-4.63Z"></path><path class="cls-1" d="M184.57,491.12a40.15,40.15,0,0,1,2.24-13.59,39.47,39.47,0,0,1,5.72-10.83,27.34,27.34,0,0,1,7.8-7.09,15.43,15.43,0,0,1,17,0,27.38,27.38,0,0,1,7.8,7.09,39.57,39.57,0,0,1,5.72,10.83A40.2,40.2,0,0,1,233,491.12,41.24,41.24,0,0,1,231,504.33a39.58,39.58,0,0,1-5.46,10.83,27.41,27.41,0,0,1-7.75,7.32,16.23,16.23,0,0,1-17.89,0,27.38,27.38,0,0,1-7.75-7.32,39.48,39.48,0,0,1-5.46-10.83A41.19,41.19,0,0,1,184.57,491.12Zm10.4,0A98.21,98.21,0,0,0,196.12,508a32.2,32.2,0,0,0,3,9.63,9.45,9.45,0,0,0,4.37,4.41,14,14,0,0,0,10.61,0,9.46,9.46,0,0,0,4.37-4.41,32.25,32.25,0,0,0,3-9.63,98.31,98.31,0,0,0,1.14-16.87,113,113,0,0,0-.83-15,36.46,36.46,0,0,0-2.55-9.85,12.06,12.06,0,0,0-4.32-5.45,12.29,12.29,0,0,0-12.27,0,12,12,0,0,0-4.32,5.45,36.39,36.39,0,0,0-2.55,9.85A112.72,112.72,0,0,0,195,491.12Z"></path><path class="cls-1" d="M296.92,523.07H280.17V508H280q-.94,3-2.24,6a24.51,24.51,0,0,1-3.23,5.52,16.89,16.89,0,0,1-4.47,4,11.19,11.19,0,0,1-6,1.57,14.73,14.73,0,0,1-6.76-1.34,15.73,15.73,0,0,1-4.06-2.84,23.55,23.55,0,0,1-1.61-1.87,11.39,11.39,0,0,1-1.61-3.06,27.77,27.77,0,0,1-1.25-5,45.92,45.92,0,0,1-.52-7.54V461.11h-8V459h17v45.84a64.88,64.88,0,0,0,.36,7.17,20.53,20.53,0,0,0,1.4,5.75,10.17,10.17,0,0,0,2.7,3.88,6.49,6.49,0,0,0,4.37,1.42,7.7,7.7,0,0,0,4.73-1.94,18.71,18.71,0,0,0,4.47-5.52,37.09,37.09,0,0,0,3.38-8.59A43.31,43.31,0,0,0,280,495.75V461.11h-7.91V459h16.85v62h8Z"></path><path class="cls-1" d="M302,521h8V461.11h-8V459h16.75v16H319q.62-1.94,1.82-4.93a26.51,26.51,0,0,1,3.28-5.82,19.5,19.5,0,0,1,5.2-4.85,13.7,13.7,0,0,1,7.59-2A14.38,14.38,0,0,1,348,462.15q4.32,4.78,4.32,15.23V521h8v2.09h-25V521h8V472.75a20.82,20.82,0,0,0-1.92-9.56,6.33,6.33,0,0,0-6-3.73,11,11,0,0,0-6.35,2.09,19,19,0,0,0-5.3,5.82,31.92,31.92,0,0,0-3.59,8.81,44.43,44.43,0,0,0-1.3,11V521h8v2.09H302Z"></path><path class="cls-1" d="M364.74,459h8V439.75a16.26,16.26,0,0,0,1.56.75,7.24,7.24,0,0,0,2.5.3,6.44,6.44,0,0,0,2.7-.52,6.53,6.53,0,0,0,2.18-1.72V459h14.77v2.09H381.69v48.83a32.76,32.76,0,0,0,.57,6.79,12.08,12.08,0,0,0,1.51,4,4.68,4.68,0,0,0,2,1.87,5.6,5.6,0,0,0,2.13.45q3.64,0,5.88-3.81a22.69,22.69,0,0,0,2.86-8.73l1.46.75q-.31,1.94-.94,4.33a17.3,17.3,0,0,1-1.93,4.55,11.36,11.36,0,0,1-3.38,3.58,9,9,0,0,1-5.2,1.42q-7.8,0-10.87-4.33t-3.07-12.24V461.11h-8Z"></path><path class="cls-1" d="M447.33,521.43a14,14,0,0,1-3.22,2.61,8.77,8.77,0,0,1-4.58,1.12q-5,0-7.23-3.06a19.36,19.36,0,0,1-3.07-8.59H429q-.42,1.34-1.14,3.36a13.48,13.48,0,0,1-2.24,3.88,12.06,12.06,0,0,1-4,3.14,14,14,0,0,1-6.35,1.27,14.59,14.59,0,0,1-7-1.42,11.54,11.54,0,0,1-4.06-3.51,11.72,11.72,0,0,1-1.92-4.7,27.57,27.57,0,0,1-.47-4.85,20.07,20.07,0,0,1,1.46-8.36,13.58,13.58,0,0,1,3.8-5,21.8,21.8,0,0,1,5.2-3.06q2.86-1.19,5.77-2.54,3.43-1.64,5.67-2.84a10.07,10.07,0,0,0,3.48-2.91,10.36,10.36,0,0,0,1.72-4.33,42.22,42.22,0,0,0,.47-7.09,59.4,59.4,0,0,0-.31-6.42,17.94,17.94,0,0,0-1.14-4.85,6.59,6.59,0,0,0-2.39-3.06,7.39,7.39,0,0,0-4.16-1,9,9,0,0,0-5.67,1.72q-2.24,1.72-2.24,5.6a39.86,39.86,0,0,0,.31,5,32.16,32.16,0,0,1,.31,3.66,5.77,5.77,0,0,1-1,3.51,3.51,3.51,0,0,1-3,1.42q-3.43,0-4.27-1.79a11,11,0,0,1-.83-4.63,18.92,18.92,0,0,1,1-6.27,15.89,15.89,0,0,1,3.07-5.3,14.27,14.27,0,0,1,5.1-3.66,17.34,17.34,0,0,1,7-1.34,16.92,16.92,0,0,1,8,1.72,14.31,14.31,0,0,1,5.2,4.63,19.17,19.17,0,0,1,2.81,6.57,34.63,34.63,0,0,1,.83,7.69v37.18q0,4.33.94,5.82a3,3,0,0,0,2.7,1.49,5.54,5.54,0,0,0,2.39-.6,8.28,8.28,0,0,0,2.39-1.79Zm-18.2-34.94h-.21q-.21,1.94-3.43,3.88l-7.8,4.48a12.88,12.88,0,0,0-5.1,5.45,19.3,19.3,0,0,0-1.77,8.73,35.67,35.67,0,0,0,.31,4.63,15.22,15.22,0,0,0,1.14,4.25,7.94,7.94,0,0,0,2.34,3.06,6.08,6.08,0,0,0,3.9,1.19,7.6,7.6,0,0,0,5.57-2.09,13.31,13.31,0,0,0,3.22-5.23,29.47,29.47,0,0,0,1.46-6.79q.36-3.66.36-6.64Z"></path><path class="cls-1" d="M450.55,521h8V417.51h-8v-2.09h17V471h.21a23.19,23.19,0,0,1,5-9.85,11.73,11.73,0,0,1,9.26-4,14.46,14.46,0,0,1,8.43,2.76,26.93,26.93,0,0,1,7,7.32,38.68,38.68,0,0,1,4.79,10.68,47.66,47.66,0,0,1-.05,25.91,41.16,41.16,0,0,1-4.94,11,27.06,27.06,0,0,1-7.23,7.62,15.05,15.05,0,0,1-8.69,2.84,10.15,10.15,0,0,1-6-1.72,15.73,15.73,0,0,1-4.06-4.11,19.75,19.75,0,0,1-2.44-4.93q-.83-2.54-1.25-4.33h-.21v13H450.55Zm43-32.1q0-6.87-.52-12.32a42.46,42.46,0,0,0-1.82-9.33,13.63,13.63,0,0,0-3.64-6,8.64,8.64,0,0,0-6-2.09,10,10,0,0,0-6.35,1.94,14.87,14.87,0,0,0-4.06,4.93,21.48,21.48,0,0,0-1.82,4.48,38.86,38.86,0,0,0-1.09,5.67q-.42,3.29-.57,7.54t-.16,10.08q0,4.93.52,10.15a42,42,0,0,0,2,9.48,18,18,0,0,0,4.11,6.94,10.63,10.63,0,0,0,13.78.3,14.76,14.76,0,0,0,3.74-6.87A50,50,0,0,0,493.2,503Q493.51,496.64,493.51,488.88Z"></path><path class="cls-1" d="M512.24,521h8V461.11h-8V459h17v62h8v2.09h-25ZM519,424.23a9.55,9.55,0,0,1,1.61-5.6,4.45,4.45,0,0,1,7.8,0,10.53,10.53,0,0,1,0,11.2,4.44,4.44,0,0,1-7.8,0A9.54,9.54,0,0,1,519,424.23Z"></path><path class="cls-1" d="M543,521h8V417.51h-8v-2.09h17V521h8v2.09H543Z"></path><path class="cls-1" d="M573.82,521h8V461.11h-8V459h17v62h8v2.09h-25Zm6.76-96.76a9.55,9.55,0,0,1,1.61-5.6,4.44,4.44,0,0,1,7.8,0,10.53,10.53,0,0,1,0,11.2,4.44,4.44,0,0,1-7.8,0A9.54,9.54,0,0,1,580.58,424.23Z"></path><path class="cls-1" d="M603.46,459h8V439.75a16.26,16.26,0,0,0,1.56.75,7.24,7.24,0,0,0,2.5.3,6.44,6.44,0,0,0,2.7-.52,6.53,6.53,0,0,0,2.18-1.72V459h14.77v2.09H620.42v48.83a32.76,32.76,0,0,0,.57,6.79,12.08,12.08,0,0,0,1.51,4,4.68,4.68,0,0,0,2,1.87,5.6,5.6,0,0,0,2.13.45q3.64,0,5.88-3.81a22.69,22.69,0,0,0,2.86-8.73l1.46.75q-.31,1.94-.94,4.33a17.3,17.3,0,0,1-1.93,4.55,11.36,11.36,0,0,1-3.38,3.58,9,9,0,0,1-5.2,1.42q-7.8,0-10.87-4.33t-3.07-12.24V461.11h-8Z"></path><path class="cls-1" d="M635.81,459H661.3v2.09h-8.74L666,508l14-46.88h-8.63V459H687.3v2.09h-5.62l-17.16,57.63q-2,6.42-3.74,12.92t-3.54,13.07q-1.46,5.37-2.91,9.41a33.89,33.89,0,0,1-3.07,6.57,12.78,12.78,0,0,1-3.48,3.81,7.61,7.61,0,0,1-4.37,1.27,8,8,0,0,1-4.84-1.34,10.34,10.34,0,0,1-2.86-3.14,10.85,10.85,0,0,1-1.35-3.73,21.33,21.33,0,0,1-.31-3.28,9,9,0,0,1,1.46-5.6,4.35,4.35,0,0,1,3.54-1.87,6,6,0,0,1,1.56.22,4.14,4.14,0,0,1,1.56.82,4.94,4.94,0,0,1,1.25,1.64,5.66,5.66,0,0,1,.52,2.54,9.16,9.16,0,0,1-.88,4,9.46,9.46,0,0,0-.88,4.11,3.27,3.27,0,0,0,.73,2.54,3,3,0,0,0,2,.6,4.82,4.82,0,0,0,3.07-1.12,11.67,11.67,0,0,0,2.76-3.66,43.39,43.39,0,0,0,2.7-6.64q1.35-4.11,3-10.08L661,525l-18-63.91h-7.18Z"></path></svg>