<svg xmlns="http://www.w3.org/2000/svg" xmlns:xlink="http://www.w3.org/1999/xlink" id="Layer_1" x="0px" y="0px" viewBox="0 0 723.4 1048.9" style="enable-background:new 0 0 723.4 1048.9;" xml:space="preserve">
<style type="text/css">
	.st0{fill:#FFD000;}
	.st1{fill:#CF0025;}
	.st2{fill:none;stroke:#CF0025;stroke-width:6.02;}
	.st3{fill:none;stroke:#CF0025;stroke-width:7.08;}
	.st4{fill:none;stroke:#FFD000;stroke-width:5.82;}
	.st5{fill:none;stroke:#000000;stroke-width:0.83;}
	.st6{fill:none;stroke:#000000;stroke-width:0.83;stroke-linecap:round;}
	.st7{fill:none;stroke:#000000;stroke-width:0.69;stroke-linecap:round;}
	.st8{fill:none;stroke:#FFD000;stroke-width:0.69;}
	.st9{fill:none;stroke:#FFD000;stroke-width:0.52;}
	.st10{fill:none;stroke:#000000;stroke-width:0.65;}
	.st11{fill:none;stroke:#000000;stroke-width:0.65;stroke-linecap:round;}
	.st12{fill:none;stroke:#FFD000;stroke-width:0.65;}
	.st13{fill:none;stroke:#000000;stroke-width:0.82;}
	.st14{fill:none;stroke:#000000;stroke-width:0.82;stroke-linecap:round;}
</style>
<g>
	<rect x="1.3" y="80" class="st0" width="724.1" height="968.9"></rect>
	<rect x="1.3" y="0.8" class="st1" width="724.1" height="79.1"></rect>
	<line class="st2" x1="114.4" y1="927.5" x2="604.2" y2="927.5"></line>
	<line class="st3" x1="347" y1="584.8" x2="208.3" y2="925.2"></line>
	<line class="st3" x1="343.7" y1="584.8" x2="482.3" y2="925.2"></line>
	<path class="st1" d="M344.6,616c18.5,0,33.5-14.1,33.5-31.5s-15-31.5-33.5-31.5s-33.5,14.1-33.5,31.5l0,0   C311.1,602,326.1,616,344.6,616"></path>
	<path class="st4" d="M344.6,616c18.5,0,33.5-14.1,33.5-31.5s-15-31.5-33.5-31.5s-33.5,14.1-33.5,31.5l0,0   C311.1,602,326.1,616,344.6,616z"></path>
	<ellipse class="st3" cx="345" cy="585.9" rx="244.8" ry="230.2"></ellipse>
	<path class="st5" d="M207.6,666.2c0.4,0.6,0.8,1.2,1.3,1.7c0.3,0.4-0.4,1.8,0.2,2.3c0.6,0.5,1.8-0.3,2.3,0   c3.4,2.7,8.2,3.3,12.1,1.2c5-2.9,6-9.9,2.2-15.8c-3.8-5.8-10.9-8.2-15.9-5.3C204.8,653.4,203.8,660.4,207.6,666.2z"></path>
	<path d="M210.2,664c0.4,0.4,1.2,0.4,1.6,0c0.4-0.4,0.4-1.1,0-1.4l0,0c-0.4-0.4-1.1-0.4-1.5,0l0,0C209.8,663,209.8,663.6,210.2,664   C210.3,664,210.3,664,210.2,664"></path>
	<path class="st6" d="M221.4,667.3c-5,1.5-5.1,4.8-5.1,4.8"></path>
	<line class="st7" x1="208.3" y1="662.6" x2="208.9" y2="660.7"></line>
	<path d="M206.9,652.5c-1.5,1.7-2.3,3.8-2.2,6.1c5.1-7.3,10-3.2,11.8-1.2c5.3-2.8,5.5,3.8,10.5,6.9c1.8,2.1,0.8-0.9,0.8-0.9   c1-6.7-3.9-13.1-11.1-14c-0.8-0.1-1.6-0.2-2.5-0.1C211.4,649.4,208.8,650.6,206.9,652.5"></path>
	<path d="M201.5,670.6l7.8-20.1l-4.3-2.5l-12.8,22l0,0c-0.6,1.1-0.8,2.2-0.4,3.4c0.4,0.9,1,1.6,1.9,2.1l22.8,14.1l6.5-10.6   L201.5,670.6z"></path>
	<path class="st8" d="M201.5,670.6l7.8-20.1l-4.3-2.5l-12.8,22l0,0c-0.6,1.1-0.8,2.2-0.4,3.4c0.4,0.9,1,1.6,1.9,2.1l22.8,14.1   l6.5-10.6L201.5,670.6z"></path>
	<path d="M201.2,739.1c-1.6-0.5-0.7,2.1-3.7,1.5s-3.2-4.8-5.2-5.3c-3.8,2.1-8.4,2.9-12.8,2.1c-3.5-1-6.4-2.1-7.2,0.7l0,0   c-0.2,4.5,7.2,6.1,11.2,7.3c5.9,1.8,11.8,3.3,17.9,4.4l0.4-3C201.6,746.1,202.8,739.5,201.2,739.1"></path>
	<path d="M254.4,776.7L254.4,776.7c-0.4-0.6-1.5-7.3-3.1-7.3s0,2.2-3,2.5s-4.7-3.7-6.7-3.7c-3,3.2-7,5.2-11.5,5.8   c-3.7,0-6.8-0.2-6.6,2.7l0,0c1.3,4.3,8.9,3.7,13.1,3.7c6.2,0,12.3-0.3,18.5-1L254.4,776.7z"></path>
	<path d="M249.7,720.5l0.1-0.3l0,0c0.4-1.2,0.3-2.7-0.3-3.8l-16.8-39.7c-1.1-2.5-4.1-3.7-6.8-2.7c-0.2,0.1-0.4,0.2-0.6,0.3l-8.2,2.7   c-3,1.3-4.3,4.6-2.9,7.5l9,24.2l-20-5.8l0,0c-0.5-0.2-0.9-0.4-1.5-0.4c-2.4-0.2-4.5,1.4-4.7,3.7c0,0.1,0,0.3,0,0.4l-4.4,27.6   c0,0,3.2,4.6,6.6,4.2c2.7-0.4,2.9,0.4,2.9,0.4l5.4-21.1l21.3,7.1l0.5,20.6l0,0c0,0.2,0,0.3,0,0.5c0,0.6,0.2,1.2,0.5,1.7l11.8,20.1   c0,0,3.7,2.6,7,1.2c2.6-1.2,3.2-0.4,3.2-0.4l-10.9-23.3l8.9-24.1C249.8,720.5,249.8,720.4,249.7,720.5"></path>
	<line class="st8" x1="251.5" y1="717.5" x2="213.6" y2="704.7"></line>
	<path d="M210.9,652.6c-1.2,3-3.2,4.1-5.8,3.3c-2.5-1.1-3.7-3.8-2.6-6.2c0.1-0.2,0.2-0.4,0.3-0.5c1.5-2.9,4.3-4,5.8-3.5   C211.1,647.1,212,650,210.9,652.6"></path>
	<path class="st8" d="M210.9,652.6c-1.2,3-3.2,4.1-5.8,3.3c-2.5-1.1-3.7-3.8-2.6-6.2c0.1-0.2,0.2-0.4,0.3-0.5c1.5-2.9,4.3-4,5.8-3.5   C211,647.1,212,650,210.9,652.6z"></path>
	<path d="M211.5,651.6c-1.4,1.9-3.3,3.7-4.1,3.3c-0.8-0.5-0.1-3.1,1.3-5.1c1.4-1.9,3.2-3.2,4-2.7   C213.5,647.6,212.9,649.6,211.5,651.6"></path>
	<path d="M231.2,681.7c-2.1-1.8-5.3-1.8-7.3,0.1l0,0l-18.7,16.7l-20.8-4.4l-3.3,6.5L205,708c3.7,1.2,5.2,0,7-1.9l19.6-18   C233.4,686.2,233.2,683.3,231.2,681.7"></path>
	<path class="st8" d="M231.2,681.7c-2.1-1.8-5.3-1.8-7.3,0.1l0,0l-18.7,16.7l-20.8-4.4l-3.3,6.5L205,708c3.7,1.2,5.2,0,7-1.9   l19.6-18C233.4,686.2,233.2,683.3,231.2,681.7z"></path>
	<path d="M179.2,690.7c3.4,1,5.7,3.9,4.9,6.6s-4.2,4.1-7.7,3.1s-5.7-3.9-5-6.6C172.3,691.1,175.7,689.7,179.2,690.7"></path>
	<path class="st8" d="M179.2,690.7c3.4,1,5.7,3.9,4.9,6.6s-4.2,4.1-7.7,3.1s-5.7-3.9-5-6.6C172.3,691.1,175.7,689.8,179.2,690.7z"></path>
	<path d="M180.8,691.3c1.9,2.2,2.8,4.5,1.9,5.2c-0.8,0.7-3.1-0.6-5-2.8c-1.9-2.2-2.8-4.5-1.9-5.2   C176.7,687.8,178.9,689.1,180.8,691.3"></path>
	<path d="M243.2,318.6c-0.4-1-1.3-1.7-2.4-1.9l-20.9-12.2l-1.9-14l4.8,5.8l0,0c1,1.1,2.6,1.5,4,1.1c0.4-0.1,0.7-0.3,1-0.6l0,0   l0.2-0.2l0,0l16.2-13.9l-3.9-3.7L225.5,290l-9.7-13l-0.4-3.4c-0.4-2.6-3-4.4-5.8-4.1l0,0l-11,1.4c-1.1,0.1-2.2,0.7-2.9,1.4l0,0   l-19.4,20.3l0,0L176,293l0,0c-0.9,1-1.3,2.2-0.9,3.5c0.2,0.7,0.7,1.2,1.3,1.7l13.3,13.7l3.6-3.1l-10.6-13.5l13.1-11.7l5.1,24.3   l-5.2,24.5l-21,3.7c-1,1.2-1.4,2.6-0.9,4c0.1,1.4,0.7,2.9,1.6,4l25-3.2c0.5,0,1,0,1.4-0.2h0.2l0,0c1.2-0.5,2.1-1.4,2.3-2.6l0,0   l9.5-22.6l20.5,10.6l20.2,27.8c1.7,0.1,3.4-0.3,4.8-1.2c1.2-0.6,2.3-1.4,3.1-2.4L243.2,318.6z"></path>
	<line class="st9" x1="199" y1="307.6" x2="225.4" y2="303.2"></line>
	<path d="M274.8,352.8c-3.8,0.8-7.8,0.2-11.2-1.6c-1.7,0.5-1.8,4.1-4.4,4.7c-2.6,0.6-1.9-1.6-3.3-1.2c-1.3,0.5-0.2,6.1-0.3,6.8l0,0   l0.4,2.6c5.3-1.2,10.4-2.5,15.5-4.2c3.4-1.1,9.9-2.7,9.7-6.6C280.4,350.9,277.9,352,274.8,352.8"></path>
	<path d="M166.7,334.1l-2.7-0.5c-0.6,5.1-0.9,10.1-0.8,15.2c0,3.5-0.5,9.7,3.5,10.8l0,0c2.7,0.1,2.5-2.4,2.5-5.5   c0.5-3.7,2.3-7,5.3-9.4c0-1.7-3.6-3-3.3-5.5c0.3-2.5,2.3-1.2,2.3-2.6C173.5,335.2,167.3,334.4,166.7,334.1"></path>
	<path class="st10" d="M211.3,253.2c0.2,0.7,0.4,1.2,0.6,1.9c0.1,0.5,1.7,0.8,1.7,1.2c0,0.5-1.4,1.2-1.4,1.8   c0.2,3.9-2.2,7.6-6.1,9.1c-5.2,1.8-11.2-1.7-13.6-7.7c-2.4-6,0-12.3,5.2-14C202.9,243.8,209,247.2,211.3,253.2z"></path>
	<path d="M202,244.4c-3.5-0.6-7.1,0.7-9.5,3.1c-3.9,4.2-3.7,13.8,4.2,18.5c1.3-1.1,1.9-2.6,1.6-4.1c-1.8-7,1.9-7.4,3.2-8.5   c-0.4-3.3,2-6.3,5.4-6.8C205.5,245.4,203.8,244.6,202,244.4"></path>
	<path d="M208.5,253.7c0,0.6-0.5,1-1,1s-0.9-0.3-1-0.7c-0.1-0.6,0.3-1.1,0.9-1.2C207.9,252.7,208.4,253.1,208.5,253.7   C208.5,253.6,208.5,253.7,208.5,253.7"></path>
	<path class="st11" d="M202.7,261.6c2.2,1.8,5.3,2.4,8,1.3"></path>
	<line class="st11" x1="206.3" y1="251.3" x2="205" y2="252.3"></line>
	<path d="M241.6,276c-2.2,1.3-2.8,4-1.6,6.1c1.6,1.7,4.5,1.9,6.3,0.4c0.1,0,0.1-0.1,0.2-0.1c2.1-1.3,2.8-4,1.6-6.1   c-1.6-1.7-4.4-1.9-6.3-0.5C241.7,275.9,241.6,276,241.6,276"></path>
	<path class="st9" d="M241.5,275.9c-2.2,1.3-2.9,4.1-1.6,6.2c1.6,1.8,4.5,1.9,6.4,0.4c0.1,0,0.1-0.1,0.2-0.1   c2.2-1.3,2.9-4.1,1.6-6.2c-1.6-1.7-4.5-2-6.4-0.5C241.7,275.8,241.6,275.9,241.5,275.9z"></path>
	<path d="M240.4,277.1c-0.6,1.6-0.6,3.2,0.1,3.5c0.7,0.3,1.7-1,2.3-2.7s0.6-3.2,0-3.5C242.2,274.1,241.1,275.4,240.4,277.1"></path>
	<path d="M196.3,309.1c-1.3-2.1-4.1-3-6.5-1.9c-2,1.3-2.4,4-0.9,5.9c0.1,0.1,0.1,0.1,0.2,0.2c1.3,2.1,4.1,3,6.5,1.9   c2-1.3,2.4-4,0.9-5.9C196.4,309.3,196.3,309.2,196.3,309.1"></path>
	<path class="st9" d="M196.3,309.1c-1.3-2.1-4.2-3-6.5-1.9c-2,1.4-2.4,4-0.9,6c0,0.1,0.1,0.1,0.1,0.2c1.3,2.1,4.2,3,6.5,1.9   c2-1.4,2.4-4,0.9-6C196.4,309.2,196.4,309.2,196.3,309.1z"></path>
	<path d="M195.2,308c-1.7-0.7-3.4-0.8-3.6-0.2c-0.3,0.6,0.9,1.6,2.7,2.3s3.4,0.8,3.6,0.2S196.9,308.6,195.2,308"></path>
	<path d="M584.6,460c-1.5-3.3-0.4-6.8,2.4-8.1c2.8-1.2,6.2,0.4,7.6,3.7c1.5,3.3,0.4,6.8-2.4,8.1C589.5,464.8,586,463.2,584.6,460"></path>
	<path d="M671.5,349.8c-0.9-1.4-2-2.6-3.4-3.6l-32.9,20.4l-17.4,3.2l14.4-21.5l0,0c0.6-0.8,0.8-1.8,0.7-2.8l0,0l1.3-27.7   c0,0,0.2-0.5-3.6-0.8c-3.8-0.3-4.6,0.9-4.6,0.9l-3.3,25l-22.9,25.6l0,0c-0.3,0.3-0.6,0.6-0.9,0.9l-24,25.6l-32.7,0.8l-29.3,11.7   l1.9,5.1l28.5-8.4l30.7,1.3l10.1,7.4c0.3,0.2,0.5,0.3,0.8,0.5l-2.2,21.6l3.5,19.2l6.7-0.5l-1.5-20.5l5-23.8l20.6-25.3l0,0l23.8-6.5   l0,0c1.2-0.1,2.3-0.6,3.1-1.3l0,0l29.7-22.9C673.1,352.2,672.5,350.9,671.5,349.8"></path>
	<path class="st12" d="M595.5,368.2l24.1,19.2 M584.7,460c-1.5-3.3-0.4-6.8,2.4-8.1c2.8-1.2,6.2,0.4,7.6,3.7   c1.5,3.3,0.4,6.8-2.4,8.1C589.5,464.9,586.1,463.2,584.7,460L584.7,460z M584.7,460c-1.5-3.3-0.4-6.8,2.4-8.1   c2.8-1.2,6.2,0.4,7.6,3.7c1.5,3.3,0.4,6.8-2.4,8.1C589.5,464.9,586.1,463.2,584.7,460"></path>
	<path d="M507.8,406.6c2.9-2.2,6.9-2.2,8.9,0s1.2,5.8-1.7,7.9c-2.9,2.1-6.9,2.2-8.9,0S504.9,408.8,507.8,406.6"></path>
	<path class="st12" d="M507.8,406.6c2.9-2.2,6.9-2.2,8.9,0s1.2,5.8-1.7,7.9c-2.9,2.1-6.9,2.2-8.9,0S504.9,408.9,507.8,406.6z"></path>
	<path d="M688.4,347.5c-4.6-4.2-9.4-8.3-14.5-11.9l-1.8,2.6c-0.2,0.8-4.5,6.3-3.3,7.5c1.2,1.2,1.7-1.6,4.2,0.2   c2.5,1.9,0.7,5.9,2.2,7.3c4.7-0.3,9.3,1,13,3.7c2.8,2.5,4.9,4.8,7.1,2.5C697.7,355.2,691.6,350.4,688.4,347.5"></path>
	<path d="M652.4,305.3c-2.1-4.2-9.7-2.5-13.8-1.8c-6.2,0.9-12.4,2.1-18.5,3.7l1.1,2.9c0.5,0.6,2.7,7.1,4.3,6.8s-0.4-2.2,2.7-3   c3.1-0.8,5.3,3,7.4,2.6c2.5-3.7,6.3-6.2,10.7-7.5C649.8,308.3,653,308.1,652.4,305.3"></path>
	<path class="st13" d="M574.9,427.5c0.6-0.6,1.1-1.1,1.5-1.7c0.3-0.4,2.1,0,2.4-0.5s-0.8-1.9-0.6-2.5c2.1-3.9,1.4-8.6-1.8-11.9   c-4.4-4-12.3-3.1-17.6,2c-5.3,5.2-6,12.6-1.6,16.6C561.7,433.5,569.7,432.6,574.9,427.5z"></path>
	<path d="M560.7,432.4c-3.4-0.9-5.7-1.8-7.8-6.7c-2.5-5.9,3-15.9,13.5-17.3c0.8,1.6,0.6,3.5-0.4,5c-5.3,6.4-1.7,8.5-0.9,10.1   c-2.2,3.4,2.4,8.2,5.8,7.4C568,432.8,564.2,433.3,560.7,432.4"></path>
	<path d="M572.4,425.8c0.3-0.5,0.2-1.2-0.4-1.5c-0.6-0.3-1.3-0.2-1.6,0.4c-0.3,0.5-0.2,1.2,0.4,1.5l0,0   C571.3,426.5,572,426.4,572.4,425.8"></path>
	<path class="st14" d="M570.4,415.1c3.1-1,6.4-0.2,8.7,2"></path>
	<line class="st11" x1="568.9" y1="427.3" x2="568.1" y2="425.7"></line>
	<path d="M583.8,457.7c0.5-2.4,1.6-4.3,2.6-4.1c0.9,0.2,1.4,0.7,1.4,2.2c-0.1,0.9-0.2,1.6-0.3,2.5c-0.5,2.4-1.8,4.3-2.8,4.1   C583.7,462.4,583.4,460.2,583.8,457.7"></path>
	<path d="M508.9,405.8c4.8-0.5,4.8,0.4,4.9,1.2s-1.9,1.8-4.6,2s-4.8-0.3-4.9-1.2C504.2,406.8,506.2,406,508.9,405.8"></path>
	<path d="M137.7,613.6c0.2,1.2-0.8,1.6-1.9,1.8c-1.7,0.2-2.9-1.3-3.6-2.3l0.4-0.3c0.5,1,1.5,1.7,2.6,1.8v-0.6   c-0.2-0.7,0.2-1.2,0.9-1.4c0.1,0,0.1,0,0.2,0C137,612.6,137.5,613,137.7,613.6z M138.1,616.9c0.1,1.2-0.8,1.6-1.9,1.8   c-1.7,0.2-2.9-1.3-3.6-2.4l0.4-0.2c0.5,1,1.5,1.6,2.6,1.7v-0.6c-0.2-0.6,0.2-1.2,0.9-1.3c0.1,0,0.2,0,0.2,0   C137.4,615.9,138,616.4,138.1,616.9z"></path>
	<path d="M146.3,603.9c0.1,1.2-0.2,2.3-0.8,3.3l0.9,0.6v0.6l-4.7,0.4v-0.5c1.9-0.9,4-2.3,3.9-4.3c0-1.2-0.9-2.1-2.1-2.2   c-0.1,0-0.3,0-0.4,0c-1.2,0-1.9,0.8-2.3,2c-0.3,1-0.5,1.7-0.8,2.5c-0.5,1.4-1.8,2.4-3.4,2.4c-2.1,0.1-3.9-1.5-4-3.6v-0.1   c-0.1-1.1,0.2-2,0.7-3l-0.9-0.5v-0.7l4.5-0.3v0.4c-2.4,1-3.9,2.1-3.7,4c0,1,0.9,1.8,2,1.7c0.1,0,0.1,0,0.2,0c1.2,0,1.8-0.7,2.3-1.8   c0.4-0.9,0.6-1.8,0.9-2.5c0.4-1.5,1.8-2.7,3.4-2.7C144.4,599.8,146.3,601.7,146.3,603.9L146.3,603.9z"></path>
	<path d="M145.5,596.5h-0.4c0-0.4-0.1-0.9-0.2-1.2c-0.1-0.4-0.5-0.7-0.9-0.6l-9.9-0.1c-0.4-0.1-0.8,0.2-1,0.6   c-0.2,0.4-0.3,0.9-0.4,1.2h-0.4v-6.1h0.4c0.1,0.5,0.1,0.9,0.3,1.3c0.1,0.4,0.5,0.6,0.9,0.6h4.4v-5.7H134c-0.4,0-0.8,0.2-0.9,0.6   c-0.2,0.4-0.3,0.9-0.4,1.2h-0.4v-6.1h0.4c0,0.4,0.1,0.9,0.3,1.2c0.1,0.4,0.5,0.7,0.9,0.6l9.9,0.1c0.4,0,0.8-0.2,1-0.6   c0.2-0.4,0.3-0.9,0.3-1.2h0.4v6.1h-0.4c0-0.5-0.1-0.9-0.2-1.2c-0.1-0.4-0.5-0.6-0.9-0.6h-5v5.6h4.8c0.4,0,0.8-0.2,0.9-0.5   c0.2-0.4,0.3-0.9,0.3-1.3h0.4L145.5,596.5z"></path>
	<path d="M141.6,576.1c1,0.5,1.8,0.8,1.9,0.9c0.4,0.2,0.7,0.3,1.1,0.3c0.7,0,1.1-1.3,1.2-1.9h0.4l-0.4,4.9h-0.4   c0-0.4-0.1-0.9-0.3-1.2c-0.3-0.5-0.8-1-1.4-1.2c-2.4-1.2-8-3.7-10.7-5l0.1-1c3.9-1.2,10.6-2.9,12.1-3.4c0.4-0.1,0.8-0.3,1-0.7   c0.2-0.4,0.4-0.8,0.5-1.2h0.4l-0.6,6.1h-0.4c0-0.6-0.1-1.8-0.6-1.8c-0.1,0-0.3,0-0.4,0l-3.1,0.9L141.6,576.1z M140.9,575.8l0.3-3.7   l-5.3,1.4L140.9,575.8z"></path>
	<path d="M149.5,554.7c-0.3,1.5-1.4,2.1-3.7,1.9c-1.8-0.1-3.4,0-3.8,1.8l-0.2,1.1l4.6,0.8c0.4,0.1,0.8,0,1-0.4s0.4-0.8,0.5-1.2h0.4   l-1.2,6.1h-0.4c0-0.5,0-0.9,0-1.3c-0.1-0.4-0.4-0.7-0.9-0.7l-9.7-1.7c-0.4-0.1-0.9,0-1.1,0.4c-0.2,0.4-0.4,0.9-0.6,1.2H134l1.3-6.4   c0.4-2.2,1.7-4,3.9-3.7c2.2,0.4,2.6,2.3,2.7,3.8h0.2c0.3-1.2,1.2-2.1,2.5-2.3c1.1-0.1,1.9,0,2.9-0.1s1-0.4,1.1-0.7s-0.4-1-1.6-1.2   h-0.4v-0.5l0.4,0.1C148.8,552.1,149.8,552.9,149.5,554.7z M141.3,559.4l0.2-0.8c0.3-1.5,0-3.1-2.3-3.4c-1.3-0.4-2.7,0.2-3.1,1.4   c-0.1,0.2-0.1,0.4-0.1,0.7l-0.2,1.2L141.3,559.4z"></path>
	<path d="M150.2,549.8h-0.4c0.1-0.5,0.1-0.9,0.1-1.3c-0.1-0.4-0.4-0.7-0.8-0.8l-9.7-2.1c-0.4-0.1-0.9,0-1.1,0.4   c-0.3,0.4-0.5,0.9-0.7,1.2h-0.4l1.6-6.1c0.6-2.5,2.1-3.8,4.2-3.4c2.7,0.6,3.3,3.3,2.7,5.8l-0.3,1.2l4.2,1c0.4,0.1,0.8,0,1-0.3   c0.2-0.4,0.4-0.9,0.6-1.3l0.4,0.1L150.2,549.8z M144.9,544.2l0.2-0.6c0.6-1.3-0.1-2.8-1.5-3.4c-0.2-0.1-0.4-0.1-0.6-0.2   c-1.6-0.4-3.2-0.1-3.7,1.8l-0.2,1L144.9,544.2z"></path>
	<path d="M156.6,539l-0.5,0.1c-0.2-1.2-1-2.2-2.2-2.7l-0.1,0.4c-0.3,1.2-1.1,1.2-1.8,1.1s-1.1-0.9-0.9-1.5l0,0   c0.4-1.2,1.4-1.4,2.8-1.1C155.4,535.9,156.4,537.4,156.6,539z"></path>
	<path d="M157.1,526.7l-0.4-0.2c0.1-0.5,0.2-0.9,0.3-1.3c0-0.4-0.3-0.8-0.7-0.9l-9.2-3.3c-0.4-0.2-0.9-0.1-1.1,0.2   c-0.3,0.4-0.6,0.8-0.8,1.2l-0.4-0.2l2.3-6c0.9-2.4,2.6-3.7,4.6-2.9c2.6,0.9,2.9,3.7,1.9,6.1l-0.4,1.1l4,1.4   c0.4,0.2,0.8,0.1,1.1-0.2c0.3-0.4,0.6-0.8,0.8-1.2l0.4,0.1L157.1,526.7z M152.6,520.5l0.2-0.6c0.7-1.2,0.2-2.8-1.2-3.5   c-0.2-0.1-0.4-0.2-0.6-0.2c-1.6-0.6-3.1-0.5-3.9,1.3l-0.3,0.9L152.6,520.5z"></path>
	<path d="M167,504.9c-0.7,1.4-1.9,1.7-4.1,1.1c-1.7-0.5-3.3-0.8-4.1,1l-0.5,1l4.3,1.8c0.4,0.2,0.8,0.2,1.1-0.1   c0.3-0.4,0.6-0.7,0.8-1.1l0.4,0.2l-2.7,5.7l-0.4-0.2c0.2-0.4,0.3-0.9,0.4-1.3c0-0.4-0.2-0.8-0.6-0.9l-9-3.8   c-0.4-0.2-0.8-0.2-1.1,0.1c-0.3,0.4-0.6,0.7-0.9,1.2l-0.3-0.1l2.9-6c1-2.1,2.7-3.6,4.6-2.7s1.9,2.9,1.6,4.4h0.1   c0.6-1.1,1.8-1.7,3-1.6c1.1,0.2,1.9,0.4,2.8,0.6c0.9,0.2,1.1-0.2,1.2-0.5c0.1-0.3-0.1-1-1.2-1.4l-0.4-0.2l0.2-0.5l0.4,0.2   C167,502.2,167.8,503.3,167,504.9z M157.8,507.6l0.3-0.7c0.8-1.2,0.5-2.8-0.7-3.6c-0.2-0.1-0.4-0.2-0.6-0.3   c-1.1-0.7-2.6-0.4-3.4,0.7c-0.1,0.2-0.2,0.4-0.3,0.6l-0.5,1.1L157.8,507.6z"></path>
	<path d="M172.6,495c-0.9,1.4-2.2,2.5-3.9,3c-1.8,0.5-3.7,0.2-5.3-0.7c-3.3-1.6-4.6-5.4-2.9-8.6c0.1-0.1,0.2-0.3,0.3-0.4   c0.9-1.4,2.3-2.5,4-3c1.8-0.5,3.7-0.2,5.3,0.8c1.7,0.9,2.9,2.3,3.4,4C173.8,491.8,173.6,493.6,172.6,495z M172.1,494.6   c1.4-2.2-0.4-4.5-3.5-6.1c-2.7-1.4-5.9-2.2-7.4,0.2c-1.2,2,0.1,4.3,3.5,6.2C167.6,496.6,170.8,496.9,172.1,494.6L172.1,494.6z"></path>
	<path d="M180.4,482.7l-11.8-2.9c-0.4-0.2-0.9-0.2-1.4,0c-0.4,0.2-0.7,0.5-1,0.8l-0.3-0.2l3.7-5.1l0.3,0.2c-0.5,0.9-0.8,1.6-0.4,1.8   c0.1,0.1,0.3,0.2,0.5,0.2c0.6,0.2,5.5,1.4,8.9,2.2c-1.2-1.8-3-4.3-3.6-5.1c-0.5-0.9-1.2-1.5-1.9-2.2c-0.5-0.3-1.5,0.5-2.1,1.2   l-0.4-0.2l3-4l0.4,0.2c-0.2,0.4-0.4,0.8-0.4,1.2c0,0.6,0.3,1.2,0.6,1.6c0.8,1.2,4.9,7.1,6.5,9.4L180.4,482.7z"></path>
	<path d="M190.3,470.2c-1.1,1.3-2.6,2.2-4.4,2.5c-1.9,0.3-3.7-0.3-5.2-1.3c-3-2-3.7-6.1-1.5-8.8c0.1-0.1,0.1-0.2,0.2-0.3   c1.1-1.3,2.7-2.2,4.5-2.5c1.8-0.2,3.7,0.3,5.1,1.4c3,2,3.7,6,1.5,8.7C190.5,470,190.4,470.1,190.3,470.2L190.3,470.2z M189.9,469.8   c1.7-2,0.2-4.5-2.5-6.6c-2.4-1.8-5.5-3-7.4-0.8c-1.6,1.8-0.5,4.3,2.5,6.6C185.2,471,188.2,471.8,189.9,469.8z"></path>
	<path d="M201.1,458.3c-2.3,2.5-6.2,2.8-8.9,0.7c-0.2-0.1-0.3-0.3-0.5-0.5c-2.9-2.3-3.2-6.2-0.8-8.9c0.1-0.1,0.2-0.2,0.3-0.3   c0.8-0.8,1.7-1.3,2.8-1.5l-0.3-1l0.5-0.5l3.6,3.1l-0.3,0.3c-2.4-1.1-4.7-1.2-6.1,0.2c-1.5,1.4-0.9,3.9,2.1,6.5   c3,2.6,5.6,2.5,7.2,0.9c1.3-1.2,1.6-3.2,0.7-4.8l0.6-0.2C203.1,454.3,202.7,456.7,201.1,458.3z"></path>
	<path d="M205.4,447.6c0.4,1,0.8,1.7,0.9,1.8c0.1,0.3,0.4,0.7,0.6,1c0.5,0.5,1.8-0.3,2.3-0.7l0.3,0.3l-3.9,3.4l-0.3-0.3   c0.3-0.3,0.5-0.7,0.7-1.1c0.1-0.6,0.1-1.2-0.3-1.8c-1-2.4-3.3-7.9-4.4-10.5l0.8-0.7c3.7,1.6,10,4.5,11.3,5.1   c0.4,0.2,0.8,0.2,1.2,0.1c0.4-0.1,0.8-0.3,1.2-0.6l0.3,0.3l-4.8,4.2l-0.3-0.3c0.4-0.5,1.2-1.4,0.9-1.8c-0.1-0.1-0.2-0.2-0.3-0.3   l-2.9-1.2L205.4,447.6z M205.1,446.9l2.9-2.6l-5-2.2C203.7,443.6,204.4,445.4,205.1,446.9z"></path>
	<path d="M218.9,442l-0.3-0.3c0.4-0.4,0.7-0.7,1-1.2c0.2-0.4,0.2-0.8-0.1-1.1l-7-8.1l-0.5,0.4c-0.4,0.3-0.8,0.6-1.1,1   c-0.6,0.6-0.2,2.6,0.2,3.4l-0.4,0.3l-2.2-2.5l9.4-7.2l2.2,2.5l-0.4,0.3c-0.7-0.5-2.7-1.2-3.4-0.8c-0.4,0.3-0.8,0.5-1.2,0.9   l-0.5,0.4l6.9,8c0.2,0.3,0.7,0.5,1.1,0.4c0.5-0.2,1-0.4,1.4-0.7l0.3,0.3L218.9,442z"></path>
	<path d="M228.4,434.8l-0.3-0.3c0.4-0.3,0.7-0.6,1-0.9c0.3-0.3,0.3-0.8,0-1.1l-5.7-7.7c-0.2-0.3-0.6-0.5-1-0.4   c-0.5,0.1-0.9,0.3-1.4,0.5l-0.3-0.3l5.4-3.6l0.3,0.3c-0.4,0.3-0.7,0.6-1,1c-0.3,0.3-0.3,0.8,0,1.1l5.8,7.6c0.2,0.3,0.6,0.5,1,0.4   c0.5-0.1,0.9-0.3,1.3-0.5l0.3,0.3L228.4,434.8z"></path>
	<path d="M240.8,427l-9.7-7.1c-0.4-0.3-0.8-0.5-1.3-0.4c-0.4,0-0.9,0.1-1.3,0.4l-0.2-0.4l5.5-3.3l0.2,0.4c-0.8,0.6-1.4,1.2-1.2,1.5   c0.1,0.1,0.2,0.2,0.3,0.3c0.5,0.4,4.5,3.4,7.2,5.4c-0.3-2.1-0.9-5.1-1.1-6.1c-0.1-1-0.4-1.8-0.8-2.7c-0.3-0.5-1.6,0-2.4,0.4   l-0.3-0.4l4.4-2.6l0.3,0.4c-0.4,0.3-0.7,0.6-0.9,1c-0.2,0.6-0.2,1.2,0,1.8c0.2,1.4,1.5,8.3,1.9,11L240.8,427z"></path>
	<path d="M249.2,422l-0.2-0.3c0.4-0.3,0.8-0.6,1.2-0.9c0.3-0.3,0.3-0.8,0-1.1l-4.7-8.2c-0.2-0.4-0.6-0.6-1-0.5   c-0.5,0.1-1,0.2-1.5,0.4l-0.2-0.4l9.7-4.9l1.5,2.7l-0.5,0.2c-0.6-0.6-2.3-1.4-3.1-1.2c-0.5,0.2-1,0.4-1.4,0.7l-1.8,0.9l2.6,4.6   l1.3-0.7c0.9-0.5,1.1-0.9,1.2-1.2c0.1-0.6,0-1.2-0.3-1.8l0.5-0.2l2.6,4.5l-0.5,0.2c-0.4-0.5-0.9-1-1.5-1.2   c-0.6-0.2-1.2-0.1-1.7,0.3l-1.3,0.7l1.9,3.6c0.7,1.2,1.1,1.2,2.7,0.5c1.1-0.6,2.2-1.2,2.4-1.7c0.2-1.1,0.3-2.1,0.1-3.1l0.4-0.2   l1.6,3.4L249.2,422z"></path>
	<path d="M264.3,418.2l-0.4-0.3c0.8-0.9,1.1-2.2,0.7-3.3l-0.4,0.2c-0.6,0.4-1.5,0.2-1.9-0.5c0-0.1-0.1-0.1-0.1-0.2   c-0.3-0.7,0-1.3,0.7-1.6l0,0c1.2-0.5,2.1,0.1,2.6,1.2C266,415.4,265.5,417,264.3,418.2z"></path>
	<path d="M277,409.9c-1.2,0.5-2.6,0-3.1-1.1c0-0.1,0-0.1-0.1-0.2c-0.5-1.2-0.1-2.4,1-3.1c1-0.7,2-1.5,2.9-2.3l-0.4-1.1   c-0.2-0.5-0.8-1.8-2.2-1.4c-0.4,0.2-0.8,0.5-0.9,0.9c0.3,0.4,0.5,0.8,0.8,1.2c0.2,0.4-0.2,1.2-1,1.4c-0.6,0.2-1.3-0.1-1.5-0.7v-0.1   c-0.4-1.2,1.1-2.6,2.7-3.2c2.1-0.7,3.8-1,4.7,1.5c0.6,1.7,1.3,3.7,1.5,4.3c0.1,0.3,0.6,0.9,1.2,0.7c0.6-0.2,0.4-1.1,0.2-1.8   l0.5-0.2c0.5,1.7,0.2,2.9-1.3,3.4c-0.9,0.4-1.9,0.1-2.5-0.6l0,0C279.1,408.7,278.2,409.5,277,409.9z M277.9,408.5   c0.7-0.2,1.2-0.8,1.3-1.4l-1.1-3.3c-1.5,1.2-2.5,2-1.9,3.7C276.5,408.5,277.2,408.7,277.9,408.5L277.9,408.5z"></path>
	<path d="M284.5,407.1l-0.1-0.4c0.3-0.1,0.6-0.2,0.8-0.4c0.3-0.2,0.4-0.7,0.3-1l-1.8-5.6c-0.1-0.4-0.4-0.7-0.9-0.9   c-0.4-0.1-0.7-0.1-1.1,0l-0.1-0.4l3.6-1.3h0.2l0.4,1.3l0,0c0.4-1.2,1.4-2.1,2.7-2.5c1.9-0.6,3.2,0.4,3.8,2.2l1.5,4.5   c0.1,0.4,0.4,0.7,0.8,0.7c0.3,0,0.6,0,0.9,0l0.1,0.4l-5.1,1.4l-0.1-0.4c0.3-0.1,0.6-0.2,0.8-0.4c0.3-0.2,0.3-0.6,0.2-1l-1.5-4.6   c-0.4-1.3-1.3-1.8-2.1-1.5c-0.9,0.3-1.6,1-1.8,1.9l1.7,5.2c0.2,0.4,0.4,0.7,0.8,0.7c0.3,0.1,0.6,0.1,0.9,0l0.1,0.4L284.5,407.1z"></path>
	<path d="M300.9,402.9c-2.5,0.4-5-1.2-5.4-3.6c0-0.1,0-0.2,0-0.3c-0.7-2.4,0.9-4.9,3.5-5.6l0,0c0.8-0.2,1.7-0.2,2.6,0l-0.9-3.7   c-0.1-0.5-0.4-0.8-0.8-1c-0.6-0.1-1.3-0.1-1.9,0v-0.4l4.5-1.2l0.2,0.1l3.1,12.7c0.1,0.4,0.4,0.7,0.8,0.9c0.4,0.1,0.9,0.1,1.3,0v0.4   l-3.9,1.1l-0.2-0.1l-0.2-0.9l0,0C302.8,402,301.9,402.7,300.9,402.9z M301.6,401.8c0.7-0.2,1.4-0.7,1.6-1.2l-1.4-5.6   c-0.4-0.9-1.4-1.2-2.4-1.2c-1.4,0.3-1.9,2.2-1.4,4.8C298.6,400.6,299.7,402.2,301.6,401.8L301.6,401.8z"></path>
	<path d="M321.5,399.3c-3.4,0.4-5.5-1.1-5.8-3.3l-1-7.1c0-0.4-0.3-0.8-0.7-0.9c-0.4-0.1-0.9-0.2-1.4-0.2v-0.4l6.5-0.8v0.4   c-0.5,0.1-0.9,0.2-1.3,0.4c-0.4,0.2-0.6,0.6-0.5,1l0.9,7c0.3,1.8,1.2,3.3,3.7,2.9c1.8-0.1,3.3-1.5,3.2-3.3c0-0.2,0-0.4-0.1-0.6   l-0.7-5.1c-0.2-1.4-0.5-2.1-1-2.3c-0.6-0.2-1.3-0.4-1.9-0.4v-0.4l5.7-0.7v0.4c-0.6,0.1-1.2,0.4-1.7,0.7c-0.4,0.4-0.5,1.2-0.3,2.5   l0.7,5.3c0.3,2.3-1.5,4.4-4,4.6C321.7,399.3,321.6,399.3,321.5,399.3z"></path>
	<path d="M336.2,398c-1.2,0.1-2.4-0.2-3.5-0.8l-0.6,0.9h-0.6l-0.4-4.4h0.5c0.9,1.8,2.4,3.8,4.6,3.7c1.2,0,2.3-0.9,2.3-2   c0-0.1,0-0.2,0-0.4c-0.1-1.1-1-2-2.1-2.2c-1-0.3-1.8-0.5-2.7-0.9c-1.5-0.5-2.5-1.7-2.5-3.3c0-2,1.7-3.7,3.9-3.7h0.1   c1.1,0,2.2,0.2,3.1,0.8l0.5-0.9h0.7l0.3,4.2h-0.4c-1-2.2-2.2-3.7-4.2-3.6c-1.1,0-1.9,0.8-1.9,1.8c0,0.1,0,0.1,0,0.2   c0,1.1,0.7,1.7,1.9,2.2c0.9,0.3,1.9,0.6,2.6,0.9c1.6,0.4,2.8,1.7,2.8,3.3c0,2.2-1.9,4-4.2,4C336.3,398,336.2,398,336.2,398z"></path>
	<path d="M343.9,397.3v-0.4c0.5,0,1-0.1,1.5-0.2c0.4-0.1,0.7-0.5,0.6-0.9l0.2-9.3c0.1-0.4-0.2-0.8-0.6-0.9c-0.5-0.2-1-0.3-1.5-0.4   v-0.4l11,0.3v3h-0.5c-0.2-0.9-1.2-2.3-2.1-2.5c-0.5,0-1-0.1-1.6-0.1H349l-0.1,5.2h1.5c0.6,0.1,1.2-0.1,1.7-0.5   c0.4-0.5,0.6-1.1,0.7-1.6h0.5l-0.1,5.1h-0.5c-0.1-0.7-0.3-1.2-0.6-1.8c-0.4-0.4-1-0.7-1.6-0.6H349l-0.1,4c0,1.4,0.3,1.6,2.2,1.6   c1.2,0,2.5,0,3-0.4c0.7-0.8,1.3-1.7,1.7-2.6h0.5l-0.3,3.7L343.9,397.3z"></path>
	<path d="M358.8,397.6v-0.4c0.5,0,1,0,1.5,0c0.4-0.1,0.7-0.5,0.7-0.9l1-9.2c0.1-0.4-0.1-0.8-0.5-1c-0.5-0.2-1-0.4-1.5-0.5v-0.4   l11.1,1.1l-0.3,3.1h-0.5c-0.2-0.9-1-2.5-1.9-2.7c-0.5-0.1-1-0.2-1.6-0.2l-2.2-0.2l-0.6,5.3l1.5,0.1c0.6,0.1,1.3,0,1.8-0.4   c0.4-0.5,0.7-1.1,0.9-1.6h0.5l-0.6,5.2h-0.5c0-0.7-0.2-1.2-0.5-1.8c-0.4-0.5-1-0.7-1.6-0.7l-1.5-0.2l-0.5,4.5   c-0.1,0.4,0.1,0.8,0.5,1c0.5,0.2,0.9,0.3,1.4,0.4v0.4L358.8,397.6z"></path>
	<path d="M379.6,400.3c-3.4-0.6-4.9-2.6-4.5-4.8l1.4-7c0.1-0.4-0.1-0.8-0.4-1c-0.4-0.2-0.8-0.4-1.3-0.5v-0.4l6.4,1.1v0.4   c-0.5,0-0.9,0-1.4,0c-0.4,0-0.7,0.4-0.8,0.8l-1.3,6.9c-0.4,1.8,0,3.4,2.6,3.8c1.8,0.5,3.6-0.6,4.1-2.2c0-0.2,0.1-0.3,0.1-0.5l1-5   c0.3-1.4,0.2-2.2-0.2-2.5c-0.5-0.4-1.1-0.7-1.8-0.9v-0.4l5.6,1v0.4c-0.7-0.1-1.3,0-1.9,0.2c-0.5,0.2-0.8,1.1-1.1,2.3l-1,5.2   c-0.5,2.3-2.9,3.7-5.3,3.3C379.8,400.4,379.7,400.3,379.6,400.3z"></path>
	<path d="M389.4,401.6l0.1-0.4c0.5,0.1,1,0.1,1.5,0.1c0.4,0,0.8-0.4,0.8-0.8l2.5-8.9c0.1-0.4,0-0.8-0.3-1.1   c-0.4-0.3-0.8-0.5-1.3-0.7l0.1-0.4l6.4,1.5l-0.1,0.4c-0.5-0.1-0.9-0.1-1.4-0.1c-0.4,0-0.8,0.4-0.8,0.8l-2.3,8.5   c-0.4,1.4-0.2,1.6,1.7,2.1c0.9,0.3,1.8,0.4,2.7,0.2c0.9-0.6,1.7-1.3,2.4-2.2l0.4,0.1l-1.3,3.6L389.4,401.6z"></path>
	<path d="M405.1,406c-0.8-0.3-1.3-1.1-1-1.8c0.3-0.8,1.2-1.2,2-1.1l0,0c0.9,0.3,1.3,1.2,1,1.9C406.8,405.9,405.9,406.3,405.1,406   L405.1,406z"></path>
	<path d="M411.8,397.8v-0.5c1.2,0,2.4-0.6,3.1-1.6l-0.6-0.2c-0.7-0.1-1.2-0.8-1.1-1.4c0-0.1,0-0.2,0.1-0.2c0.3-0.7,1.1-1.1,1.8-0.8   c1.3,0.5,1.4,1.5,0.9,2.6C415.3,397.3,413.1,397.7,411.8,397.8z M415.4,398.9v-0.5c1.2,0,2.4-0.6,3-1.6l-0.6-0.2   c-0.7-0.1-1.2-0.8-1.1-1.4c0-0.1,0-0.2,0.1-0.3c0.3-0.7,1-1.1,1.8-0.8c1.3,0.5,1.4,1.4,0.9,2.6   C418.9,398.5,416.7,398.8,415.4,398.9L415.4,398.9z"></path>
	<path d="M425.7,409.5l0.4-0.8l10.5,4.6l-0.4,0.8L425.7,409.5z"></path>
	<path d="M452.6,411.5c-0.5-0.1-0.9,0.1-1.1,0.6l-4.2,7c-1.4,1.9-4.1,2.5-6.3,1.3c-1.9-1.1-1.9-2.3-1.6-3c0.4-0.7,1.2-0.9,1.9-0.6   c0.7,0.3,0.9,1.1,0.6,1.6c0,0.1-0.1,0.1-0.1,0.2c-0.3,0.5-0.9,0.8-1.4,0.7l0,0l0.3,0.2c2.5,1.3,3.7-0.3,4.8-2.1l3.9-6.3   c0.3-0.4,0.3-0.8,0-1.2c-0.4-0.5-0.8-0.8-1.3-1.1l0.3-0.6l6,3.2l-0.3,0.6C453.7,411.8,453.2,411.7,452.6,411.5z"></path>
	<path d="M448.3,424l0.3-0.5c0.3,0.2,0.6,0.3,0.9,0.4c0.4,0.1,0.9,0,1.1-0.4l3.2-4.7c0.2-0.4,0.2-0.8,0-1.2   c-0.2-0.4-0.5-0.7-0.9-0.9l0.3-0.5l3.2,1.6v0.2l-4.3,6.3c-0.2,0.3-0.2,0.8,0,1.1s0.4,0.5,0.7,0.7l-0.4,0.5L448.3,424z M457,415.2   c-0.6-0.4-0.8-1.2-0.4-1.7c0.4-0.6,1.2-0.8,1.8-0.4l0,0c0.6,0.4,0.8,1.1,0.5,1.6l0,0C458.5,415.3,457.7,415.5,457,415.2z"></path>
	<path d="M457.7,429.8l-4.1-2.7l0.4-0.5c0.3,0.2,0.5,0.3,0.8,0.4c0.4,0.1,0.8-0.1,1-0.4l3.5-4.6c0.2-0.3,0.3-0.8,0.1-1.2   c-0.2-0.3-0.4-0.6-0.7-0.9l0.4-0.5l2.9,1.6v0.2l-0.9,1.2l0,0c1.3-0.4,2.7-0.2,3.9,0.5c1,0.7,1.5,1.8,1.2,2.9   c1.3-0.4,2.7-0.2,3.9,0.5c1.6,1.1,1.5,2.6,0.3,4.2l-2.8,3.7c-0.3,0.3-0.3,0.7-0.1,1.1c0.2,0.3,0.4,0.5,0.7,0.7l-0.4,0.5l-4.1-2.7   l0.4-0.5c0.3,0.2,0.5,0.3,0.8,0.4c0.4,0.1,0.8-0.1,1-0.4l2.8-3.7c0.9-1.2,0.6-2.2-0.1-2.7c-0.9-0.6-2-0.7-3-0.3l-3.2,4.3   c-0.3,0.3-0.3,0.7-0.1,1.1c0.2,0.3,0.4,0.5,0.6,0.7l-0.4,0.5l-4-2.7l0.4-0.5c0.2,0.2,0.5,0.3,0.8,0.4c0.4,0.1,0.8-0.1,1-0.4   l2.8-3.7c0.9-1.2,0.6-2.2-0.1-2.7c-0.9-0.6-2-0.7-3-0.3l-3.2,4.3c-0.2,0.3-0.2,0.8,0,1.1c0.2,0.3,0.4,0.5,0.6,0.7L457.7,429.8z"></path>
	<path d="M477.7,445.1c-2.9-2.3-3.2-6.3-0.8-9c0.2-0.2,0.4-0.4,0.6-0.6c2.7-3,7.3-3.4,10.5-0.9c0.1,0.1,0.2,0.2,0.3,0.2   c0.9,0.8,1.4,1.7,1.6,2.8l1.2-0.4l0.6,0.6l-3.6,3.8l-0.5-0.5c1.1-2.2,1.7-4.5-0.4-6.2c-1.6-1.3-4.5-1.3-7.8,1.9   c-2.5,2.6-2.5,5.9-0.5,7.6c1.4,1.3,3.6,1.6,5.4,0.8l0.3,0.7C482.4,447.1,479.6,446.7,477.7,445.1z"></path>
	<path d="M486.2,452.6c-1.8-2.1-1.5-5.2,0.7-6.9c2-1.5,4.9-1.4,6.8,0.1c1.9,1.7,1.9,4.5,0.1,6.3c-0.1,0.1-0.2,0.2-0.3,0.3   c-1.8,1.9-4.9,2.2-7,0.5C486.4,452.8,486.3,452.7,486.2,452.6z M493.2,446.3c-1.6-1.4-3.6-0.3-5.1,1.1c-1.7,1.6-2.7,3.7-1.3,4.9   c1.4,1.2,3.4,0.5,5.2-1.2C493.8,449.4,494.6,447.7,493.2,446.3L493.2,446.3z"></path>
	<path d="M490.8,456.9l0.5-0.4c0.2,0.2,0.5,0.4,0.7,0.6c0.4,0.2,0.8,0.1,1.1-0.2l8.7-7.3c0.4-0.3,0.5-0.8,0.5-1.2   c-0.2-0.5-0.4-0.9-0.7-1.2l0.5-0.4l2.8,2.6v0.2l-10.3,8.6c-0.3,0.2-0.5,0.7-0.3,1c0.1,0.3,0.3,0.6,0.5,0.8l-0.5,0.4L490.8,456.9z"></path>
	<path d="M494.9,461.2l0.5-0.4c0.2,0.2,0.5,0.4,0.7,0.6c0.4,0.2,0.8,0.1,1.1-0.2l8.9-7.2c0.4-0.3,0.6-0.7,0.5-1.2   c-0.2-0.5-0.4-0.9-0.7-1.2l0.5-0.4l2.7,2.6v0.2l-10.5,8.6c-0.3,0.2-0.5,0.7-0.3,1c0.1,0.3,0.2,0.6,0.4,0.8l-0.5,0.4L494.9,461.2z"></path>
	<path d="M499,465.7l0.5-0.4c0.2,0.2,0.4,0.5,0.7,0.6c0.3,0.2,0.8,0.2,1.1-0.1l4.7-3.5c0.3-0.3,0.5-0.7,0.5-1.1   c-0.1-0.4-0.3-0.8-0.5-1.2l0.5-0.4l2.4,2.6v0.2l-6.3,4.6c-0.3,0.2-0.5,0.6-0.4,1c0.1,0.3,0.2,0.6,0.4,0.9l-0.5,0.4L499,465.7z    M510.3,460.1c-0.4-0.6-0.3-1.2,0.2-1.7c0.6-0.5,1.4-0.4,1.9,0.1c0,0,0,0,0.1,0.1c0.5,0.5,0.4,1.2-0.1,1.6c0,0,0,0-0.1,0   c-0.6,0.5-1.4,0.4-1.9-0.1C510.4,460.1,510.4,460.1,510.3,460.1L510.3,460.1z"></path>
	<path d="M506.7,475.2l0.5-0.4c0.2,0.3,0.4,0.5,0.7,0.7c0.3,0.3,0.8,0.3,1.1,0l4-2.7c1.2-0.8,1.4-1.8,0.9-2.6   c-0.6-0.9-1.7-1.3-2.8-1.2l-4.6,3c-0.3,0.2-0.5,0.6-0.4,1c0.1,0.3,0.2,0.6,0.4,0.9l-0.5,0.4l-2.9-3.8l0.5-0.4   c0.2,0.2,0.4,0.5,0.7,0.7c0.3,0.3,0.8,0.3,1.1,0l4.9-3.3c0.4-0.3,0.6-0.7,0.6-1.1c0-0.4-0.2-0.7-0.4-1l0.5-0.4l2.2,2.5v0.2   l-1.2,0.8l0,0c1.4,0.1,2.6,0.7,3.4,1.7c1.1,1.5,0.6,3-1.1,4l-4,2.7c-0.4,0.2-0.5,0.6-0.4,1c0.1,0.3,0.2,0.6,0.4,0.9l-0.5,0.4   L506.7,475.2z"></path>
	<path d="M511.9,483.1c-0.5-0.8-0.7-1.6-0.6-2.5l-0.7,0.2l-0.4-0.6l2.9-1.8l0.4,0.6c-1.1,1-1.5,2.5-0.9,3.8c0.8,1.2,1.6,1.2,2.5,0.8   c0.9-0.6,0.9-1.4,0.4-3c-0.7-1.3-0.2-3,1-3.8c1.4-0.8,3.2-0.4,4,1c0,0.1,0.1,0.1,0.1,0.2c0.4,0.6,0.7,1.3,0.7,2l0.6-0.2l0.4,0.5   l-2.5,1.6l-0.4-0.5c1.1-0.8,1.3-2.1,0.6-3.2c-0.6-0.9-1.4-1.1-2.1-0.7c-1,0.6-0.8,1.3-0.4,3c0.4,1.6,0.4,3.1-1.1,3.9   c-1.6,0.9-3.6,0.4-4.5-1.2C512,483.2,511.9,483.1,511.9,483.1z"></path>
	<path d="M512,489.3l0.4-0.7c1.1,0.8,2.6,1,3.9,0.5l-0.3-0.5c-0.4-0.6-0.3-1.3,0.3-1.7c0.6-0.4,1.4-0.3,1.8,0.3c0,0,0,0,0,0.1   c0.7,1,0.1,1.8-1,2.5C515.5,490.4,513.6,490.2,512,489.3z"></path>
	<path d="M523,501.4c-0.4-0.8-0.3-1.6,0.4-2.2l0,0c-1.2-0.3-2.2-1.1-2.8-2.1c-0.7-1.1-0.3-2.3,0.8-3c0.1,0,0.1-0.1,0.2-0.1   c1.1-0.7,2.6-0.4,3.5,0.5c1,0.9,2.1,1.9,2.9,2.5l0.9-0.4c1-0.4,1.5-1.4,1.1-2.4v-0.1c-0.2-0.5-0.6-0.8-1.1-1   c-0.3,0.2-0.7,0.6-1.1,0.8c-0.6,0.2-1.2-0.1-1.4-0.7c-0.2-0.5,0-1.1,0.5-1.2c0,0,0.1,0,0.1-0.1c1.2-0.6,2.9,0.6,3.7,1.9   c0.9,1.8,1.3,3.3-1.2,4.5c-1.7,0.9-3.9,1.7-4.4,2c-0.2,0.1-0.8,0.7-0.5,1.2s1.1,0.3,1.8,0l0.3,0.6   C524.6,502.9,523.6,502.4,523,501.4z M522.8,495.5c-0.7,0.2-1.1,0.9-0.9,1.5c0,0.1,0.1,0.2,0.2,0.3c0.4,0.8,1.1,1.2,1.9,1.3   l3.2-1.4C525.7,495.8,524.4,494.8,522.8,495.5z"></path>
	<path d="M527.6,510.3v-0.2l1.2-0.5l0,0c-1.3-0.3-2.4-1.2-2.9-2.3c-0.8-1.7,0.2-3,1.9-3.7l4.1-1.8c0.4-0.1,0.7-0.5,0.7-0.9   c0-0.4,0-0.7-0.2-1.1l0.6-0.2l1.6,2.9v0.2l-6.2,2.6c-1.3,0.6-1.7,1.5-1.4,2.3c0.4,1,1.3,1.5,2.4,1.6l5-2.1c0.4-0.2,0.7-0.5,0.8-0.9   c0-0.5-0.2-0.9-0.4-1.2l0.6-0.3l1.7,3.1v0.2L530,511c-0.4,0.2-0.6,0.5-0.7,0.9c0,0.3,0.1,0.7,0.2,1l-0.6,0.2L527.6,510.3z"></path>
	<path d="M530.6,517.8c-0.6-1.5,0-2.6,1.8-3.3l5.7-2.1l-0.7-1.7l0.9-0.4l0.7,1.8l2.9-1.1l0.7,1.6l-2.9,1.1l1,2.5l-0.9,0.3l-1-2.5   l-5.5,2c-1.1,0.4-1.7,1-1.3,2s1.1,0.7,1.9,0.5l0.3,0.7C532.9,519.8,531.3,519.2,530.6,517.8C530.7,517.9,530.6,517.9,530.6,517.8z"></path>
	<path d="M534.1,526.3l0.6-0.2c0.1,0.3,0.3,0.6,0.4,0.9c0.3,0.3,0.7,0.4,1.1,0.2l4.7-1.5c1.4-0.5,1.9-1.4,1.6-2.3   c-0.4-1-1.2-1.6-2.3-1.8l-5.3,1.6c-0.4,0.1-0.7,0.4-0.7,0.8c0,0.3,0,0.7,0.1,1l-0.6,0.2l-1.6-4.5l0.6-0.2c0.1,0.3,0.2,0.6,0.4,0.8   c0.3,0.3,0.7,0.4,1.1,0.2l11.2-3.6c0.4-0.2,0.8-0.5,1-0.9c0-0.5,0-0.9-0.2-1.3l0.6-0.2l1.5,3.4l-0.1,0.2l-7,2.2l0,0   c1.3,0.4,2.3,1.3,2.8,2.6c0.6,1.8-0.3,3-2.3,3.6l-4.7,1.5c-0.4,0.1-0.7,0.4-0.7,0.8c0,0.3,0,0.6,0.1,0.9l-0.6,0.2L534.1,526.3z"></path>
	<path d="M537,536.4c-0.5-2.7,1.4-5.2,4.3-5.7c2.6-0.4,5.1,1,5.9,3.4c0.7,2.4-0.7,4.8-3.2,5.6c-0.2,0-0.3,0.1-0.5,0.1   c-2.6,0.9-5.4-0.4-6.3-2.9C537,536.7,537,536.6,537,536.4z M546.4,534.2c-0.5-2-3-1.9-4.9-1.5c-2.4,0.6-4.3,1.8-3.8,3.7   c0.5,1.8,2.7,2,5.1,1.4C544.9,537.3,546.9,536.2,546.4,534.2L546.4,534.2z"></path>
	<path d="M547.4,547c-0.2-0.5,0.1-1,0.5-1.2c0.1,0,0.2-0.1,0.3-0.1c0.2,0,0.5,0,0.7,0c-0.3-0.9-1-1.5-1.9-1.7l-5.5,1.1   c-0.4,0-0.7,0.4-0.8,0.8c-0.1,0.5-0.1,0.9,0,1.3l-0.7,0.1l-1.1-5l0.6-0.1c0.1,0.3,0.2,0.6,0.3,0.9c0.2,0.3,0.7,0.5,1,0.4l5.8-1.2   c0.4-0.1,0.8-0.4,1-0.8c0.1-0.3,0.1-0.7,0-1l0.6-0.1l0.9,3.1l0.1,0.2l-1.4,0.3l0,0c1.1,0.4,1.9,1.2,2.2,2.3c0.2,0.7-0.3,1.4-1,1.5   h-0.1c-0.7,0.2-1.4-0.1-1.7-0.8C547.4,547.1,547.4,547.1,547.4,547z"></path>
	<path d="M542.1,560.2c-0.1-2.7,2.2-5,5.1-5.1c2.5-0.1,4.8,1.5,5.3,3.9c0.4,2.4-1.3,4.7-3.9,5.1c-0.2,0-0.3,0-0.5,0.1   c-2.7,0.6-5.3-1.1-5.9-3.6C542.1,560.4,542.1,560.3,542.1,560.2z M551.7,559c-0.3-2-2.7-2.3-4.7-2c-2.4,0.3-4.5,1.3-4.2,3.2   s2.4,2.3,4.9,1.9C549.9,561.8,552,560.9,551.7,559L551.7,559z"></path>
	<path d="M556.7,571.9c0-0.5,0.1-1.2,0.9-1.2c0.3,0,0.9,0,1.2,0c0.1-0.2,0.1-0.3,0.1-0.5c-0.1-1.2-1.2-1.8-4.5-1.6h-1.1l0.2,2.5   h-0.9l-0.2-2.5l-7,0.6c-0.4,0-0.8,0.3-0.9,0.6c-0.1,0.4-0.1,0.9-0.1,1.3h-0.7l-0.5-5.1h0.7c0,0.3,0.1,0.6,0.2,0.9   c0.2,0.4,0.6,0.6,1,0.5l7.1-0.6l-0.2-2l0.9-0.1l0.2,2h0.4c1.6-0.2,3.2,0.1,4.5,1c0.9,0.7,1.5,1.7,1.6,2.8c0.2,1.5-0.8,2.2-1.7,2.3   C557.3,572.8,556.8,572.5,556.7,571.9z"></path>
	<path d="M550.2,593.5c0-0.5-0.1-1-0.3-1.4c-0.2-0.5-0.6-0.8-1.1-0.9l-4.9-1.2l-0.1-0.4l1.3-0.8c-0.6-1.2-1-2.4-1-3.7   c-0.2-2.7,2-5,4.8-5.2c0.3,0,0.7,0,1,0c2.7,0.1,5.3,1.2,7.1,3.1c1.5,1.4,2.3,3.5,2.3,5.5c0.1,1.2-0.4,2.3-1.2,3.1l1.1,0.9v0.8   l-5.1-1.2v-0.6c2.6-0.2,4.4-1.1,4.4-3.5c0-2.8-3.5-5.8-8.4-5.9c-3.3,0-5,1.2-5.1,3.4c-0.1,1.6,1.2,3.2,2.9,3.4l0.8,0.2   c0.2,0,0.3,0.1,0.5,0.1c0.3,0,0.6-0.2,0.8-0.5c0.2-0.6,0.3-1.2,0.4-1.8l0.7,0.2v6.5L550.2,593.5z"></path>
	<path d="M543.6,598.4c0.2-1.7,1.8-3,3.7-2.8c0.1,0,0.2,0,0.3,0c2.3,0.2,6.4,2.2,6.2,6c-0.2,1.7-1.9,3-3.8,2.8c-0.1,0-0.2,0-0.3,0   C547.4,604.2,543.4,602,543.6,598.4z M553.1,601.2c0.1-2.1-3.5-3.6-6.1-3.7c-1.9-0.1-2.8,0.5-2.8,1.2c-0.1,2.2,3.5,3.7,6.1,3.7   C552.4,602.6,553.1,601.9,553.1,601.2L553.1,601.2z"></path>
	<path d="M542.6,609.3c0.3-1.7,2-2.9,3.9-2.6c0.1,0,0.2,0,0.3,0.1c2.3,0.3,6.2,2.7,5.7,6.3c-0.3,1.7-2.1,2.9-4,2.6   c-0.1,0-0.2,0-0.2-0.1C546,615.3,542.1,613,542.6,609.3z M551.9,612.8c0.3-2.1-3.2-3.7-5.8-4.1c-1.9-0.3-2.8,0.3-2.9,1.1   c-0.3,2.2,3.2,3.8,5.8,4.1C551,614.1,551.8,613.4,551.9,612.8L551.9,612.8z"></path>
	<path d="M543.2,625.2c-0.5-0.3-1-0.5-1.6-0.6c-0.4-0.1-0.7,0.1-0.8,0.4v0.1c-0.2,1,1.1,1.6,2.1,2.3l-0.3,0.6   c-1.6-0.9-2.8-1.8-2.5-3.3c0.2-0.9,0.5-1.8,2.2-1.5l0,0c-1-0.9-1.5-2-1.4-3.3c0.3-1.3,1.2-2.6,3.9-2.2c2.2,0.4,6.3,3.2,5.6,6.7   c-0.1,0.9-0.8,1.5-1.7,1.6l0,0l3.9,1.8c0.4,0.2,0.9,0.4,1.3,0.6c0.5,0,0.7-0.3,0.8-0.7c0.2-0.5,0.2-0.9,0.3-1.3l0.6,0.1l-0.6,4.7   L543.2,625.2z M549.9,624.2c0.4-2-3.3-4.2-5.8-4.7c-1.9-0.3-2.2,0.3-2.3,0.9c-0.1,1.2,0.5,2.3,1.5,3.1l4.7,2.2   C549.2,625.5,549.7,625.1,549.9,624.2z"></path>
	<path d="M544.5,643.6l0.7-2.5l-5.3-3c-0.5-0.3-1-0.6-1.5-0.7c-0.3-0.1-0.7,0-0.8,0.3c0,0.1,0,0.1,0,0.2c-0.2,0.9,0.7,1.7,1.9,2.7   l-0.4,0.5c-1.7-1.2-2.6-2.3-2.2-3.7c0.2-0.8,0.9-1.9,2.2-1.6c0.4,0.1,0.8,0.3,1.1,0.5c0.9,0.5,4.3,2.4,5.5,3.2l0.5-1.8l0.8,0.5   l-0.5,1.8l2.9,1.6l-0.5,1.6l-2.9-1.6l-0.7,2.5L544.5,643.6z"></path>
	<path d="M534.3,645.8c0.6-1.6,2.5-2.5,4.2-1.9c0.1,0,0.3,0.1,0.4,0.2c2.2,0.7,5.6,3.7,4.4,7.2c-0.6,1.6-2.6,2.5-4.3,1.9   c-0.1,0-0.2-0.1-0.3-0.1C536.5,652.2,533.1,649.3,534.3,645.8z M542.8,650.7c0.7-2-2.5-4.2-4.9-5c-1.9-0.6-2.8-0.2-3.1,0.6   c-0.7,2.1,2.5,4.2,5,5C541.6,651.8,542.6,651.2,542.8,650.7L542.8,650.7z"></path>
	<path d="M529.4,673.9c0.2-0.5,0.3-1,0.3-1.3c0-0.5-0.2-1-0.6-1.2l-4-3V668l1.5-0.3c-0.1-1.2,0-2.6,0.5-3.7c0.9-2.5,3.9-3.8,6.6-3   c0.3,0.1,0.6,0.2,0.8,0.4c2.5,1.1,4.4,3.1,5.3,5.5c0.7,1.9,0.7,3.9-0.1,5.9c-0.4,1.1-1.3,2-2.4,2.5l0.6,1.2l-0.3,0.7l-4.2-2.9   l0.3-0.6c2.5,0.8,4.4,0.6,5.5-1.6c1.2-2.6-0.9-6.6-5.3-8.4c-3-1.2-5.1-0.7-6.1,1.3c-0.8,1.5-0.2,3.4,1.3,4.1l0.7,0.5   c0.1,0.1,0.3,0.2,0.4,0.3c0.3,0.1,0.6,0.1,0.9-0.1c0.4-0.5,0.8-1.1,1.1-1.6l0.6,0.4l-2.7,6.1L529.4,673.9z"></path>
	<path d="M525.7,682.8c0.3-0.6,0.8-0.7,1.3-0.5c0.4,0.2,0.4,0.8,0.6,0.9c0.2,0.1,0.2,0.1,0.4-0.2c0.3-0.7-0.6-2.1-1.3-3.2l-4.9-4.4   l0.9-1.6l5.1,4.7c0.4,0.4,0.9,0.8,1.3,1.1c0.5,0.3,0.8,0.2,0.9-0.2c0.4-0.8-0.5-1.9-1.4-2.9l0.5-0.5c1.3,1.4,2.2,2.7,1.5,4   c-0.3,0.9-1.3,1.2-2.2,1c-0.1-0.1-0.3-0.1-0.4-0.2l0,0c0.8,0.9,1,2,0.6,3.1c-0.3,0.6-1.1,0.9-1.7,0.7h-0.1   C526.1,684.3,525.3,683.5,525.7,682.8z"></path>
	<path d="M520.9,685.7c-0.4-0.4-0.9-0.8-1.5-1.1c-1.2-0.7-1.9-0.5-2.5,0.4c-0.8,1.2-0.2,2.6,0.7,3.9l-0.6,0.4   c-1.5-2.3-1.5-3.9-0.8-5.1c0.7-1.4,2.5-2,4-1.3c0.2,0.1,0.4,0.2,0.6,0.3c1.9,1.1,4.9,5,2.9,8.3c-0.3,0.8-1.2,1.1-2,0.8   c-0.1,0-0.1-0.1-0.2-0.1C519.4,691,520.1,687.6,520.9,685.7z M523.6,690.6c0.6-1-0.7-3.1-2.2-4.5c-1.1,2.7-0.2,4.3,0.7,4.8   C523,691.4,523.2,691.2,523.6,690.6z"></path>
	<path d="M508.6,696c0.4-0.9,1.4-1.2,2.3-0.9c0.2,0.1,0.3,0.2,0.5,0.3l0,0c-0.6-1.1-0.6-2.3,0-3.4c0.8-1.2,2.2-1.9,4.4-0.6   c1.9,1.2,4.7,5.2,2.6,8.3c-0.5,0.8-1.5,1.1-2.4,0.8l0,0l0.9,1.1l-1,1.5l-4.5-5.5c-0.4-0.4-0.8-0.8-1.2-1.2c-0.3-0.2-0.7-0.2-1,0.1   l-0.1,0.1c-0.5,0.8,0.3,1.9,1,2.9l-0.5,0.4C508.6,698.6,507.8,697.3,508.6,696z M517.9,699.3c1.2-1.7-1.4-5.1-3.5-6.3   c-1.6-1-2.1-0.5-2.4-0.1c-0.5,1.1-0.5,2.3,0.2,3.3l3.1,3.7C516.5,700.1,517.3,700,517.9,699.3L517.9,699.3z"></path>
	<path d="M509,710.3l1.6-2.1c-1.2-1.5-2.3-2.8-3.9-4.6c-0.3-0.4-0.7-0.8-1.1-1.2c-0.2-0.2-0.6-0.3-0.9,0c-0.1,0.1-0.1,0.1-0.1,0.2   c-0.6,0.8,0,1.8,0.8,3.2l-0.5,0.4c-1.1-1.6-1.5-3.1-0.7-4.2c0.5-0.6,1.5-1.5,2.6-0.8c0.3,0.3,0.6,0.6,0.9,0.9   c0.6,0.7,3.1,3.7,3.9,4.8l1.2-1.5l0.5,0.7l-1.2,1.5l2.1,2.5l-1.1,1.4l-2.1-2.6l-1.6,2.1L509,710.3z"></path>
	<path d="M143.1,109.2v20.7h-7.3v-20.7h-6v-5.9h19.4v5.9C149.2,109.2,143.1,109.2,143.1,109.2z"></path>
	<path d="M176.9,113.6h10.6v-10.3h7.3v26.5h-7.3v-11h-10.6v11h-7.3v-26.5h7.3V113.6z"></path>
	<path d="M230.2,109.2h-8.7v4.5h8.2v5.9h-8.2v4.6h8.7v5.9h-16v-26.6h16V109.2z"></path>
	<path d="M283.1,129.9h-7.3v-26.5h11.6c2.7-0.2,5.3,0.7,7.3,2.3c3.4,3.7,3.4,9.3,0,13.1c-2,1.6-4.6,2.4-7.2,2.2h-4.3v8.9H283.1z    M283.1,115.5h2.4c2.7,0,4-1.1,4-3.3c0-2.2-1.3-3.4-4-3.4h-2.4V115.5z"></path>
	<path d="M317.1,116.7c0-1.9,0.4-3.7,1.2-5.5c1.5-3.4,4.5-6.1,8.1-7.4c4.1-1.4,8.5-1.4,12.6,0c3.7,1.3,6.7,4,8.2,7.4   c1.5,3.5,1.5,7.4,0,11c-0.7,1.7-1.8,3.3-3.2,4.5c-1.4,1.2-3.1,2.3-5,3c-4.1,1.4-8.5,1.4-12.6,0c-1.8-0.7-3.5-1.7-4.9-3   C318.7,124,317.1,120.4,317.1,116.7L317.1,116.7z M324.8,116.7c0,1,0.2,2,0.6,2.9s1,1.6,1.7,2.3s1.6,1.2,2.5,1.5   c3,1.2,6.3,0.5,8.6-1.5c2.3-2.1,3-5.4,1.7-8.2c-0.4-0.9-1-1.6-1.7-2.3c-2.3-2-5.7-2.6-8.6-1.5c-1.9,0.7-3.5,2.1-4.3,3.8   C325,114.7,324.7,115.6,324.8,116.7L324.8,116.7z"></path>
	<path d="M374.8,103.4l4.9,17.1l6-17.1h5.8l6,17.1l4.9-17.1h7.7l-8.4,26.5h-7.5l-5.6-15.4l-5.5,15.4h-7.5l-8.3-26.5H374.8z"></path>
	<path d="M446.2,109.2h-8.7v4.5h8.2v5.9h-8.2v4.6h8.7v5.9h-16v-26.6h16V109.2z"></path>
	<path d="M492.1,129.9H483l-7-10.2v10.2h-7.3v-26.5h11.4c1.4,0,2.8,0.2,4.1,0.7c1.1,0.4,2.1,1.1,2.9,1.8s1.3,1.6,1.7,2.6   c0.4,1.1,0.6,2.1,0.6,3.2c0.1,1.7-0.5,3.5-1.6,4.9c-1.2,1.3-2.8,2.2-4.6,2.5L492.1,129.9z M476,115.2h1.4c1.2,0.1,2.4-0.2,3.3-0.9   c1.4-1.2,1.5-3.4,0.2-4.6c-0.1-0.1-0.1-0.1-0.2-0.2c-1-0.6-2.2-0.9-3.3-0.9H476V115.2z"></path>
	<path d="M534.3,116.7c0-1.9,0.4-3.7,1.2-5.5c0.7-1.6,1.8-3.2,3.2-4.4c1.4-1.3,3-2.3,4.9-3c4.1-1.4,8.5-1.4,12.6,0   c1.8,0.7,3.5,1.6,5,3c5.8,5.4,5.9,14.2,0.2,19.8c-0.1,0.1-0.1,0.1-0.2,0.2c-1.4,1.2-3.1,2.3-5,3c-4.1,1.4-8.5,1.4-12.6,0   c-1.8-0.7-3.5-1.7-4.9-3C535.8,124,534.2,120.4,534.3,116.7L534.3,116.7z M542,116.7c0,1,0.2,2,0.6,2.9c0.4,0.9,1,1.6,1.7,2.3   s1.6,1.2,2.5,1.5c1,0.4,2,0.6,3.1,0.6c1,0,2.1-0.2,3-0.6c0.9-0.4,1.8-0.9,2.5-1.5c0.7-0.7,1.3-1.4,1.7-2.3c0.9-1.8,0.9-3.9,0-5.9   c-0.4-0.9-1-1.6-1.7-2.3s-1.6-1.2-2.5-1.5c-1-0.4-2-0.6-3-0.6s-2.1,0.2-3.1,0.6c-0.9,0.4-1.8,0.9-2.5,1.5c-0.7,0.7-1.3,1.4-1.7,2.3   C542.2,114.7,542,115.6,542,116.7L542,116.7z"></path>
	<path d="M603.5,109.2h-8.8v4.5h8v5.9h-8v10.4h-7.3v-26.6h16.2v5.9H603.5z"></path>
	<path class="st1" d="M87.3,185.1h36.4v-35.2h25.2v91.3h-25.2v-37.7H87.3v37.7H62.1v-91.3h25.2V185.1z"></path>
	<path class="st1" d="M282.7,225.2h-36l-5.8,15.9H214l36.9-91.3h27.5l36.9,91.3h-26.9L282.7,225.2z M276,207.3l-11.3-30.5   l-11.3,30.4L276,207.3L276,207.3z"></path>
	<path class="st1" d="M380.5,149.9h37.6c8.9,0,15.7,2,20.3,6.1c4.6,4,6.9,9.8,6.9,17.4c0.2,3.9-0.7,7.9-2.6,11.4   c-1.9,3.2-4.7,5.9-8,7.7c3.2,0.5,6.3,1.5,9.2,3c2.4,1.2,4.5,2.9,6.2,4.9c1.6,1.9,2.7,4.1,3.4,6.5c0.7,2.5,1,5.1,1,7.8   c0.1,3.9-0.7,7.8-2.4,11.3c-1.5,3.3-3.8,6.1-6.7,8.4c-3.1,2.4-6.6,4.1-10.5,5.1c-4.5,1.2-9.2,1.7-13.9,1.7h-40.6v-91.3H380.5z    M405.7,185.7h4.6c7.9,0,11.8-3,11.8-8.8c0-5.9-3.9-8.8-11.8-8.8h-4.6V185.7z M405.7,222.7h5.5c6.3,0,10.9-0.8,13.6-2.3   c4.3-2.9,5.4-8.5,2.4-12.5c-0.6-0.9-1.5-1.6-2.4-2.2c-2.8-1.5-7.3-2.3-13.6-2.3h-5.5V222.7z"></path>
	<path class="st1" d="M548.8,149.9v91.3h-25.2v-91.3H548.8z"></path>
	<path class="st1" d="M665.1,170v71.1h-25.2V170h-20.8v-20.1h66.7V170H665.1z"></path>
	<path class="st0" d="M60.5,57.6V39.9h4.9l9,10.8V39.9h4.9v17.7h-4.9l-9-10.9v10.9H60.5z"></path>
	<path class="st0" d="M103.9,43.8h-5.8v3h5.6v3.9h-5.6v3.1h5.8v3.9H93.2V39.9h10.7C103.9,39.9,103.9,43.8,103.9,43.8z"></path>
	<path class="st0" d="M120.6,39.9l3.2,11.4l4-11.4h3.9l4,11.4l3.3-11.4h5.1l-5.6,17.7h-5l-3.7-10.3L126,57.6h-4.9l-5.6-17.7H120.6z"></path>
	<path class="st0" d="M174.7,49.1l-6.9-9.2h5.8l3.5,4.8l3.5-4.8h5.8l-6.9,9.2v8.5h-4.8L174.7,49.1L174.7,49.1z"></path>
	<path class="st0" d="M197.3,48.7c0-1.2,0.3-2.5,0.8-3.7c0.5-1.2,1.2-2.1,2.2-3c0.9-0.9,2-1.5,3.3-2c2.7-1,5.7-1,8.4,0   c1.2,0.5,2.4,1.2,3.3,2c0.9,0.9,1.7,1.8,2.2,3c1,2.3,1,5,0,7.3c-0.5,1.2-1.2,2.2-2.2,3.1s-2.1,1.5-3.3,2c-2.7,1-5.7,1-8.4,0   c-1.2-0.5-2.3-1.2-3.3-2c-0.9-0.9-1.7-1.8-2.2-3C197.6,51.2,197.3,50,197.3,48.7z M202.5,48.7c0,0.7,0.1,1.3,0.4,1.9   c0.3,0.6,0.7,1.2,1.1,1.5c2.1,1.8,5.4,1.8,7.4,0c0.5-0.4,0.9-1,1.2-1.5s0.4-1.2,0.4-1.9c0-0.7-0.1-1.3-0.4-1.9   c-0.3-0.6-0.7-1.2-1.2-1.5c-2.1-1.8-5.4-1.8-7.4,0c-0.5,0.5-0.9,1-1.1,1.5C202.6,47.4,202.5,48.1,202.5,48.7L202.5,48.7z"></path>
	<path class="st0" d="M246.9,57.6h-6.1l-4.7-6.8v6.8h-4.9V39.9h7.6c0.9,0,1.9,0.1,2.8,0.5c0.7,0.3,1.4,0.7,1.9,1.2   c0.5,0.5,0.9,1.1,1.1,1.7c0.3,0.7,0.4,1.4,0.4,2.1c0.1,1.2-0.3,2.3-1,3.3c-0.8,0.9-1.9,1.5-3.1,1.7L246.9,57.6z M236.2,47.8h0.9   c0.8,0,1.6-0.2,2.2-0.6c1-0.8,1-2.2,0.2-3.1c-0.1-0.1-0.1-0.1-0.2-0.2c-0.7-0.4-1.4-0.6-2.2-0.6h-0.9V47.8z"></path>
	<path class="st0" d="M263.8,47.2l6-7.3h6l-7.4,8.4l8.2,9.3h-6.3l-6.4-7.6v7.7H259V39.9h4.9v7.3H263.8z"></path>
	<path class="st0" d="M309.9,43.8v13.8H305V43.8h-4v-3.9h12.9v3.9H309.9z"></path>
	<path class="st0" d="M331,39.9v17.7h-4.9V39.9H331z"></path>
	<path class="st0" d="M344.1,57.6l3.2-17.7h4.8l3.8,9.4l3.8-9.4h4.8l3.2,17.7h-4.9l-1.6-10.2l-4.4,10.2h-1.9l-4.2-10.2l-1.6,10.2   H344.1z"></path>
	<path class="st0" d="M391.5,43.8h-5.8v3h5.5v3.9h-5.5v3.1h5.8v3.9h-10.7V39.9h10.7V43.8z"></path>
	<path class="st0" d="M415.3,44.5c-0.5-0.4-1-0.7-1.6-0.9c-0.5-0.2-1-0.3-1.6-0.3c-0.5,0-1.1,0.1-1.5,0.4s-0.6,0.7-0.6,1.1   c0,0.3,0.1,0.6,0.3,0.8c0.2,0.2,0.5,0.4,0.8,0.5c0.3,0.2,0.7,0.3,1.1,0.4l1.2,0.4c1.3,0.4,2.6,1.1,3.5,2c0.8,1,1.2,2.1,1.1,3.3   c0,0.9-0.1,1.6-0.5,2.5c-0.3,0.7-0.8,1.3-1.4,1.8c-0.7,0.6-1.5,1-2.3,1.2c-1,0.3-2,0.5-3.1,0.5c-2.4,0-4.7-0.7-6.6-2l2.1-3.7   c0.7,0.6,1.4,1.1,2.2,1.3c0.7,0.3,1.4,0.5,2.1,0.5c0.6,0,1.3-0.1,1.8-0.5c0.4-0.3,0.6-0.8,0.6-1.2c0-0.2-0.1-0.5-0.2-0.7   s-0.3-0.4-0.5-0.5c-0.3-0.2-0.6-0.4-0.9-0.5c-0.4-0.2-0.8-0.3-1.4-0.5c-0.5-0.2-1.2-0.4-1.9-0.6c-0.6-0.2-1.1-0.5-1.6-0.9   s-0.9-0.9-1.2-1.4c-0.3-0.7-0.5-1.4-0.4-2.2c0-0.8,0.1-1.6,0.5-2.4c0.3-0.7,0.7-1.3,1.3-1.8c0.6-0.6,1.3-1,2.1-1.2   c0.9-0.3,1.8-0.5,2.7-0.4c1,0,2,0.1,2.9,0.4c1,0.2,2,0.6,2.9,1.1L415.3,44.5z"></path>
	<path class="st0" d="M445.2,39.9h7.2c1.4-0.1,2.8,0.3,3.9,1.2c0.9,0.9,1.4,2.1,1.4,3.4c0,0.8-0.1,1.5-0.5,2.2   c-0.4,0.6-0.9,1.2-1.6,1.5c0.6,0.1,1.2,0.3,1.8,0.6c0.5,0.2,0.9,0.6,1.2,1c0.3,0.4,0.5,0.8,0.7,1.2c0.1,0.5,0.2,1,0.2,1.5   c0,0.8-0.1,1.5-0.5,2.2c-0.3,0.7-0.7,1.2-1.3,1.6c-0.6,0.5-1.3,0.8-2,1c-0.9,0.2-1.8,0.4-2.7,0.3h-7.9L445.2,39.9z M450.1,46.8h0.9   c1.5,0,2.3-0.6,2.3-1.7c0-1.2-0.8-1.7-2.3-1.7h-0.9V46.8z M450.1,54h1.1c0.9,0.1,1.8-0.1,2.7-0.5c0.8-0.6,1-1.7,0.3-2.6   c-0.1-0.1-0.2-0.2-0.3-0.3c-0.8-0.4-1.7-0.5-2.7-0.5h-1.1V54z"></path>
	<path class="st0" d="M483.2,43.8h-5.8v3h5.5v3.9h-5.5v3.1h5.8v3.9h-10.7V39.9h10.7V43.8z"></path>
	<path class="st0" d="M507,44.5c-0.5-0.4-1-0.7-1.6-0.9c-0.5-0.2-1-0.3-1.6-0.3s-1.1,0.1-1.6,0.4c-0.4,0.3-0.6,0.7-0.6,1.1   c0,0.3,0.1,0.6,0.3,0.8c0.2,0.2,0.5,0.4,0.8,0.5c0.4,0.2,0.7,0.3,1.1,0.4l1.2,0.4c1.3,0.4,2.5,1.1,3.5,2c0.8,1,1.2,2.1,1.1,3.3   c0,0.9-0.2,1.6-0.5,2.5c-0.3,0.7-0.8,1.3-1.4,1.8c-0.7,0.6-1.4,1-2.3,1.2c-1,0.3-2,0.5-3.1,0.5c-2.4,0-4.7-0.7-6.6-2l2.1-3.7   c0.6,0.6,1.4,1.1,2.2,1.3c0.7,0.3,1.4,0.4,2.1,0.5c0.6,0.1,1.3-0.1,1.8-0.5c0.4-0.3,0.6-0.8,0.6-1.2c0-0.2-0.1-0.5-0.2-0.7   s-0.3-0.4-0.5-0.5c-0.3-0.2-0.6-0.4-0.9-0.5c-0.4-0.2-0.8-0.3-1.4-0.5c-0.5-0.2-1.3-0.4-1.9-0.6c-0.6-0.2-1.1-0.6-1.6-0.9   c-0.5-0.4-0.9-0.9-1.1-1.4c-0.3-0.7-0.5-1.4-0.4-2.2c0-0.8,0.1-1.6,0.5-2.4c0.3-0.7,0.7-1.3,1.3-1.8c0.6-0.6,1.3-1,2.1-1.2   c0.9-0.3,1.8-0.5,2.7-0.4c1,0,2,0.1,2.9,0.4c1,0.2,2,0.6,2.9,1.1L507,44.5z"></path>
	<path class="st0" d="M530,43.8v13.8h-5V43.8h-4v-3.9h13v3.9H530z"></path>
	<path class="st0" d="M556.4,44.5c-0.5-0.4-1-0.7-1.6-0.9c-0.5-0.2-1-0.3-1.6-0.3c-0.5,0-1.1,0.1-1.5,0.4s-0.6,0.7-0.6,1.1   c0,0.3,0.1,0.6,0.3,0.8s0.5,0.4,0.8,0.5c0.3,0.2,0.7,0.3,1.1,0.4l1.2,0.4c1.3,0.4,2.6,1.1,3.5,2c0.8,1,1.2,2.1,1.1,3.3   c0,0.9-0.1,1.6-0.5,2.5c-0.3,0.7-0.8,1.3-1.4,1.8c-0.7,0.6-1.5,1-2.3,1.2c-1,0.3-2,0.5-3.1,0.5c-2.4,0-4.7-0.7-6.6-2l2.1-3.7   c0.7,0.6,1.4,1.1,2.2,1.3c0.7,0.3,1.4,0.4,2.1,0.5c0.6,0.1,1.3-0.1,1.8-0.5c0.4-0.3,0.6-0.8,0.6-1.2c0-0.2-0.1-0.5-0.2-0.7   c-0.1-0.2-0.3-0.4-0.5-0.5c-0.3-0.2-0.6-0.4-0.9-0.5c-0.4-0.2-0.8-0.3-1.4-0.5c-0.5-0.2-1.3-0.4-1.9-0.6c-0.6-0.2-1.1-0.6-1.6-0.9   c-0.5-0.4-0.9-0.9-1.1-1.4c-0.3-0.7-0.5-1.4-0.4-2.2c0-0.8,0.1-1.6,0.4-2.4c0.3-0.7,0.7-1.3,1.3-1.8c0.6-0.6,1.3-1,2.1-1.2   c0.9-0.3,1.8-0.5,2.7-0.4c1,0,2,0.1,2.9,0.4c1,0.2,2,0.6,2.9,1.1L556.4,44.5z"></path>
	<path class="st0" d="M582.9,43.8h-5.8v3h5.5v3.9h-5.5v3.1h5.8v3.9h-10.7V39.9h10.7V43.8z"></path>
	<path class="st0" d="M601.3,39.9v13.8h5.8v3.9h-10.7V39.9H601.3z"></path>
	<path class="st0" d="M624.5,39.9v13.8h5.8v3.9h-10.8V39.9H624.5z"></path>
	<path class="st0" d="M653.6,43.8h-5.8v3h5.5v3.9h-5.5v3.1h5.8v3.9h-10.7V39.9h10.7V43.8z"></path>
	<path class="st0" d="M682.7,57.6h-6.1l-4.7-6.8v6.8H667V39.9h7.6c0.9,0,1.9,0.1,2.7,0.5c0.7,0.3,1.4,0.7,1.9,1.2   c0.5,0.5,0.9,1.1,1.1,1.7c0.3,0.7,0.4,1.3,0.4,2.1c0.1,1.2-0.3,2.3-1,3.3c-0.8,0.9-1.9,1.5-3.1,1.7L682.7,57.6z M672,47.8h0.9   c0.8,0,1.6-0.2,2.2-0.6c1-0.8,1-2.2,0.2-3.1c-0.1-0.1-0.1-0.1-0.2-0.2c-0.6-0.4-1.4-0.6-2.2-0.6H672V47.8z"></path>
	<path d="M105.1,960.4c-2.8-3.4-7.6-4.6-11.9-3c-1.2,0.5-2.2,1.2-3.1,1.9c-0.8,0.9-1.5,1.8-1.9,2.9c-0.5,1.2-0.7,2.4-0.7,3.7   c0,1.2,0.2,2.5,0.7,3.7c0.4,1.2,1.1,2.1,1.9,3c1.8,1.7,4.3,2.7,6.9,2.7c3.1-0.1,6-1.4,8-3.7v10.4l-0.9,0.3c-1.3,0.5-2.6,0.8-4,1.1   c-1.2,0.2-2.4,0.3-3.7,0.3c-2.4,0-4.8-0.5-7.1-1.3c-2.2-0.9-4.3-2.1-6-3.7c-1.7-1.6-3.2-3.6-4.1-5.7c-2.1-4.5-2.1-9.7,0-14.3   c1-2.1,2.4-4,4.1-5.6c1.7-1.5,3.8-2.8,6-3.7c2.3-0.9,4.7-1.3,7.2-1.3c1.4,0,2.8,0.1,4.2,0.4c1.5,0.3,2.9,0.8,4.3,1.3L105.1,960.4z"></path>
	<path d="M125.3,945.8h8.6v17c0.9-1.2,2.2-2.1,3.6-2.7c1.3-0.5,2.8-0.7,4.2-0.7c2.6-0.2,5.1,0.7,7,2.4c1.7,1.8,2.5,4.1,2.4,6.5V983   h-8.6v-11.5c0-1-0.1-1.9-0.3-2.8c-0.1-0.6-0.5-1.2-0.9-1.6c-0.7-0.7-1.7-1-2.8-1c-1.3-0.1-2.5,0.4-3.4,1.2c-0.8,1-1.2,2.2-1.2,3.5   V983h-8.6C125.3,983,125.3,945.8,125.3,945.8z"></path>
	<path d="M190.9,959.9h8.6v22.9h-8.6v-2.6c-1.8,2.1-4.6,3.4-7.5,3.3c-1.7,0-3.3-0.3-4.9-0.9c-1.5-0.6-2.8-1.4-3.9-2.6   c-1.1-1.2-2-2.5-2.6-3.9c-0.6-1.5-1-3.2-0.9-4.9c0-1.6,0.3-3.2,0.9-4.7c0.6-1.4,1.4-2.8,2.5-3.8c2.2-2.3,5.4-3.7,8.8-3.7   c2.9-0.1,5.6,1.1,7.6,3L190.9,959.9z M180,971.4c0,0.7,0.1,1.4,0.4,2.1c0.3,0.6,0.7,1.2,1.2,1.6c0.5,0.5,1.1,0.9,1.8,1.2   s1.4,0.4,2.2,0.4c0.7,0,1.5-0.1,2.2-0.4c0.7-0.3,1.3-0.7,1.8-1.2c0.5-0.5,0.9-1.1,1.2-1.6c0.3-0.7,0.5-1.3,0.5-2   c0-0.7-0.2-1.3-0.5-2c-0.3-0.6-0.7-1.2-1.2-1.6c-0.5-0.5-1.1-0.9-1.8-1.2s-1.4-0.4-2.2-0.4s-1.5,0.1-2.2,0.4   c-0.7,0.3-1.3,0.7-1.8,1.2c-0.5,0.5-0.9,1.1-1.2,1.6C180.2,970,180,970.7,180,971.4z"></path>
	<path d="M220.6,959.9h8.6v3.7c0.8-1.2,2-2.4,3.4-3.2s3-1.2,4.7-1.1h0.7c0.3,0,0.6,0,0.9,0.1v7.7c-1.1-0.6-2.4-0.8-3.7-0.8   c-1.7-0.1-3.3,0.5-4.5,1.6c-1.1,1.4-1.6,3.2-1.5,4.9v9.8h-8.6L220.6,959.9z"></path>
	<path d="M266.4,945.8v37.1h-8.6v-37.1H266.4z"></path>
	<path d="M295.3,972.8c0,3.5,1.7,5.2,5.2,5.2c1.7,0.1,3.3-0.8,4.2-2.1h8.2c-1.7,5.3-5.8,7.9-12.6,7.9c-1.9,0-3.8-0.3-5.6-0.9   c-1.6-0.5-3.1-1.3-4.4-2.5c-1.2-1.1-2.2-2.4-2.8-3.8c-0.7-1.6-1-3.3-1-5s0.3-3.6,0.9-5.2c0.6-1.4,1.5-2.8,2.7-3.9   c1.2-1.1,2.7-1.9,4.3-2.5c1.8-0.6,3.7-0.9,5.6-0.9s3.8,0.3,5.6,0.9c1.6,0.6,3,1.3,4.2,2.5c1.2,1.2,2.1,2.5,2.6,4   c0.6,1.7,0.9,3.7,0.9,5.5v0.9L295.3,972.8z M305.3,968.1c-0.2-1.1-0.9-2-1.8-2.7s-2.1-1.1-3.2-1.1c-1.2,0-2.3,0.3-3.3,1   c-0.9,0.7-1.4,1.7-1.6,2.8L305.3,968.1L305.3,968.1z"></path>
	<path d="M349.6,965.9c-1.4-0.8-3-1.2-4.7-1.2c-0.7,0-1.4,0.1-1.9,0.5c-0.5,0.2-0.8,0.7-0.7,1.2c0,0.2,0,0.5,0.1,0.7   c0.1,0.2,0.3,0.4,0.5,0.5c0.4,0.2,0.8,0.3,1.2,0.4l2.1,0.5c2,0.3,3.8,1.1,5.3,2.4c1.2,1.2,1.8,2.8,1.8,4.4c0,1.2-0.3,2.5-0.9,3.7   c-0.6,1.1-1.4,2-2.4,2.7c-1.1,0.8-2.3,1.3-3.7,1.7c-1.5,0.4-3.1,0.6-4.7,0.6c-3.4,0-6.8-1-9.7-2.6l3.1-5.8c2,1.4,4.4,2.2,6.8,2.3   c0.7,0,1.4-0.1,1.9-0.5c0.5-0.3,0.8-0.8,0.8-1.2c0-0.3,0-0.5-0.1-0.8c-0.1-0.2-0.3-0.4-0.5-0.5c-0.4-0.2-0.7-0.4-1.1-0.5   c-0.5-0.1-1.1-0.3-1.9-0.4c-2-0.3-4-1.1-5.6-2.3c-1.1-1.1-1.7-2.6-1.6-4.1c0-1.2,0.2-2.4,0.8-3.5c0.5-1.1,1.2-1.9,2.2-2.6   c1-0.8,2.2-1.3,3.4-1.6c1.5-0.4,3-0.6,4.5-0.6c2.7,0,5.3,0.5,7.8,1.4L349.6,965.9z"></path>
	<path d="M405,949.2h13.8c2.4,0,4.7,0.5,6.9,1.3c4.2,1.8,7.6,5.1,9.4,9.1c1.8,4,1.8,8.6,0,12.8c-0.9,2-2.1,3.8-3.7,5.5   c-1.6,1.5-3.5,2.8-5.6,3.7c-2.2,1-4.5,1.4-6.9,1.3h-13.8L405,949.2z M414.3,975.5h2.2c1.5,0,2.9-0.2,4.3-0.7   c1.2-0.5,2.3-1.2,3.2-1.9c0.9-0.9,1.5-1.8,1.9-3c0.9-2.4,0.9-5.1,0-7.5c-0.4-1.2-1.1-2.1-1.9-3c-0.9-0.9-2-1.5-3.3-1.9   c-1.4-0.5-2.8-0.8-4.3-0.8h-2.2L414.3,975.5L414.3,975.5z"></path>
	<path d="M465.2,959.9v12.9c-0.2,2.3,1.7,4.2,4.1,4.4c2.4,0.2,4.5-1.5,4.7-3.8c0-0.2,0-0.4,0-0.6v-12.9h8.6v14.5   c0.2,2.7-1,5.3-3.3,7c-6,3.1-13.3,3.1-19.4,0c-2.2-1.7-3.5-4.3-3.3-7v-14.5H465.2z"></path>
	<path d="M503.5,945.8h8.6v17c0.9-1.2,2.2-2.1,3.6-2.7c1.3-0.5,2.8-0.7,4.2-0.7c2.6-0.2,5.1,0.7,7,2.4c1.6,1.8,2.5,4.1,2.3,6.4v14.6   h-8.6v-11.5c0-1-0.1-1.9-0.3-2.8c-0.1-0.6-0.5-1.2-0.9-1.6c-0.8-0.7-1.7-1-2.8-1c-1.3-0.1-2.5,0.4-3.4,1.2c-0.8,1-1.2,2.2-1.2,3.5   V983h-8.6L503.5,945.8z"></path>
	<path d="M549.7,951.2c0-0.7,0.1-1.2,0.4-1.8c0.5-1.1,1.4-2,2.6-2.4c1.2-0.5,2.5-0.5,3.7,0c0.6,0.2,1.1,0.6,1.6,1   c0.4,0.4,0.8,0.9,1,1.4c0.5,1.2,0.5,2.4,0,3.6c-0.5,1.1-1.4,2-2.6,2.4c-1.2,0.5-2.5,0.5-3.7,0c-0.6-0.2-1.1-0.6-1.6-1   c-0.4-0.4-0.8-1-1-1.4C549.8,952.3,549.7,951.8,549.7,951.2z M558.9,959.9v22.9h-8.6v-22.9H558.9z"></path>
	<path d="M607.2,959.9v21.3c0,1.2-0.1,2.3-0.3,3.5c-0.1,0.9-0.3,1.8-0.7,2.7c-0.4,1.1-1,1.9-1.8,2.7c-0.8,0.9-1.8,1.6-2.9,2.2   c-1.2,0.7-2.5,1.2-3.9,1.4c-1.5,0.4-3.1,0.6-4.7,0.5c-1.8,0-3.5-0.2-5.2-0.7c-1.5-0.4-2.9-1-4.2-1.8c-1.1-0.8-2.1-1.7-2.9-2.8   c-0.7-1.1-1.3-2.2-1.5-3.5h9.7c0.6,1.5,2.3,2.5,4.1,2.3c1.5,0.1,3-0.5,4.1-1.4c1-1.1,1.6-2.5,1.5-3.9v-2.2c-0.6,0.5-1.2,1-1.8,1.4   c-0.6,0.4-1.2,0.7-1.8,0.9c-0.6,0.3-1.3,0.4-1.9,0.5c-0.7,0.1-1.5,0.2-2.2,0.2c-1.6,0-3.3-0.3-4.8-0.9c-2.9-1.1-5.1-3.3-6.2-6.1   c-1.2-3.1-1.2-6.5,0-9.6c0.6-1.4,1.5-2.8,2.6-3.9s2.4-2,3.9-2.6c1.5-0.7,3.2-1,4.9-1c2.8,0,5.4,1.1,7.3,3.1v-2.4L607.2,959.9z    M587.9,971.3c0,0.7,0.1,1.4,0.4,2.1c0.5,1.2,1.6,2.3,2.9,2.8c0.7,0.3,1.5,0.4,2.2,0.4s1.5-0.1,2.2-0.4c0.7-0.3,1.2-0.7,1.7-1.2   c0.5-0.5,0.9-1.1,1.2-1.6c0.3-0.7,0.4-1.3,0.4-2c0-0.7-0.1-1.4-0.4-2c-0.3-0.6-0.7-1.2-1.2-1.6c-1-1-2.4-1.5-3.9-1.5   c-0.7,0-1.5,0.1-2.1,0.4c-0.7,0.3-1.2,0.7-1.8,1.2c-0.5,0.5-0.9,1.1-1.2,1.6C588.1,969.9,587.9,970.6,587.9,971.3z"></path>
	<path d="M655.5,959.9v21.3c0,1.2-0.1,2.3-0.2,3.5c-0.1,0.9-0.4,1.8-0.7,2.7c-0.4,1-1,1.9-1.8,2.7c-0.8,0.9-1.8,1.6-2.9,2.2   c-1.2,0.7-2.5,1.2-3.9,1.4c-1.5,0.4-3.1,0.6-4.7,0.5c-1.8,0-3.5-0.2-5.2-0.7c-1.5-0.4-2.9-1-4.1-1.8c-1.1-0.8-2.1-1.7-2.9-2.8   c-0.7-1.1-1.3-2.2-1.5-3.5h9.7c0.6,1.5,2.3,2.5,4.1,2.3c1.5,0.1,3.1-0.5,4.2-1.4c1-1.1,1.6-2.5,1.5-3.9v-2.2   c-0.6,0.5-1.2,1-1.8,1.4c-0.6,0.4-1.2,0.7-1.8,0.9c-0.6,0.3-1.3,0.4-1.9,0.5c-0.7,0.1-1.4,0.2-2.2,0.2c-1.6,0-3.3-0.3-4.8-0.9   c-1.4-0.6-2.7-1.3-3.8-2.4s-1.9-2.3-2.5-3.7c-0.6-1.5-0.9-3.1-0.9-4.7c0-1.6,0.3-3.4,0.9-4.9c0.6-1.4,1.5-2.8,2.6-3.9   c2.3-2.3,5.5-3.7,8.8-3.7c2.8,0,5.4,1.1,7.3,3.1v-2.4L655.5,959.9z M636.2,971.3c0,0.7,0.1,1.4,0.4,2.1c0.3,0.6,0.7,1.2,1.2,1.6   c1.1,1,2.5,1.5,4,1.5c0.7,0,1.5-0.1,2.2-0.4c0.7-0.3,1.3-0.7,1.8-1.2c0.5-0.5,0.9-1.1,1.2-1.6c0.3-0.7,0.5-1.3,0.5-2   c0-0.7-0.2-1.4-0.5-2s-0.7-1.2-1.2-1.6c-1-1-2.4-1.5-3.9-1.5c-0.7,0-1.5,0.1-2.1,0.4c-1.3,0.6-2.4,1.5-3,2.8   C636.4,969.9,636.2,970.6,636.2,971.3L636.2,971.3z"></path>
	<path d="M170.9,1000.9l-0.2,9.3v1.1l0,0l1.4-4.6l1.9-5.8h1.5l-0.2,10.3l0,0l1.3-4.4l1.9-5.9h1.9l-4.9,13.7h-1.6v-6.4l0.1-3.5v-0.4   l0,0l-1,3.7l-2.3,6.5h-1.6l-0.2-13.7L170.9,1000.9z"></path>
	<path d="M185.9,1014.6H184l2.3-13.7h1.9L185.9,1014.6z"></path>
	<path d="M200.4,1000.9l-0.3,1.5h-2.2l-2.1,12.1H194l2.1-12.1h-2.3l0.3-1.5H200.4z"></path>
	<path d="M208.1,1000.9l-0.9,5.4h2.9l0.9-5.4h1.9l-2.3,13.7h-1.9l1.1-6.8h-2.9l-1.1,6.8h-1.9l2.3-13.7H208.1z"></path>
	<path d="M230.2,1000.9l0.8,13.7h-1.9v-2.7h-2.9l-1,2.7h-1.9l5.5-13.7H230.2z M228.9,1008.5v-5l0,0l-2.3,7h2.3V1008.5z"></path>
	<path d="M246.9,1005l-0.5,4.6l-0.9,5.1h-1.9l2.3-13.7h1.9l1.7,10.5l0,0l0.5-5.5l0.8-4.9h1.9l-2.3,13.7h-1.8l-1.6-10.6l0,0   L246.9,1005z"></path>
	<path d="M264.9,1000.9l-0.3,1.5h-3.3l-0.7,4.3h2.9l-0.3,1.6h-2.9l-0.8,4.7h3.3l-0.3,1.5h-5.2l2.3-13.7L264.9,1000.9L264.9,1000.9z"></path>
	<path d="M271.8,1000.9l-0.2,9.3v1.1l0,0l1.4-4.6l1.9-5.8h1.5l-0.1,10.3l0,0l1.3-4.4l1.9-5.9h1.9l-4.8,13.7H275v-6.4l0.1-3.5v-0.4   l0,0l-1,3.7l-2.3,6.5h-1.6l-0.2-13.7L271.8,1000.9z"></path>
	<path d="M297.4,1000.9l0.8,13.7h-1.9v-2.7h-2.9l-1,2.7h-1.9l5.5-13.7H297.4z M296.1,1008.5l0.1-5l0,0l-2.3,7h2.3L296.1,1008.5z"></path>
	<path d="M311.7,1000.9l-0.3,1.5h-3.3l-0.7,4.3h3l-0.3,1.6h-3l-1,6.2h-1.9l2.3-13.7L311.7,1000.9L311.7,1000.9z"></path>
	<path d="M322.9,1000.9l-0.3,1.5h-2.2l-2.1,12.1h-1.9l2.1-12.1h-2.3l0.3-1.5H322.9z"></path>
	<path d="M333.8,1000.9l-0.3,1.5h-3.2l-0.7,4.3h2.9l-0.3,1.6h-2.9l-0.8,4.7h3.3l-0.3,1.5h-5.3l2.3-13.7L333.8,1000.9z"></path>
	<path d="M340.1,1000.9h2.3c1.4,0,3.6,0,3,3.6c-0.2,1.2-0.9,3.3-2.6,3.6l1.6,6.7h-1.9l-1.5-6.7l0,0l-1.1,6.7H338L340.1,1000.9z    M343.3,1004.8c0.2-1.3,0.2-2.4-1.2-2.4h-0.3l-0.8,4.5C342.4,1007,343,1006.1,343.3,1004.8L343.3,1004.8z"></path>
	<path d="M353.3,1000.9l-0.2,9.3v1.1l0,0l1.4-4.6l1.9-5.8h1.5l-0.1,10.3l0,0l1.3-4.4l1.9-5.9h1.9l-4.8,13.7h-1.6v-6.4l0.1-3.5v-0.4   l0,0l-1,3.7l-2.3,6.5h-1.6l-0.2-13.7L353.3,1000.9z"></path>
	<path d="M374.7,1007.8c-0.4,2.5-1.2,7-5,7s-3-4.6-2.6-7s1.2-7,5-7C375.9,1000.7,375.1,1005.3,374.7,1007.8z M369.2,1007.8   c-0.5,2.9-0.7,5.4,0.8,5.4s2.2-2.4,2.7-5.4s0.7-5.4-0.9-5.4S369.7,1004.8,369.2,1007.8L369.2,1007.8z"></path>
	<path d="M382.5,1000.9h2.3c1.4,0,3.6,0,3,3.6c-0.2,1.2-0.9,3.3-2.6,3.6l1.6,6.7h-1.9l-1.5-6.7l0,0l-1.1,6.7h-1.9L382.5,1000.9z    M385.7,1004.8c0.2-1.3,0.2-2.4-1.2-2.4h-0.3l-0.8,4.5C384.8,1007,385.5,1006.1,385.7,1004.8L385.7,1004.8z"></path>
	<path d="M397.4,1000.9c2.3,0,4.8,0.2,3.7,7.1c-1.1,6.3-3.4,6.6-6.8,6.6H393l2.3-13.7H397.4z M396.9,1002.4l-1.8,10.7   c3.2,0,3.5-2.8,3.9-5.1C399.4,1005.7,400.1,1002.2,396.9,1002.4z"></path>
	<path d="M413.2,1014.6l2.3-13.7h2.4c2.6,0,3.2,1.3,2.8,3.7c-0.2,1.3-0.7,2.7-2.3,3.1l0,0c1.6,0.5,1.8,1.7,1.5,3.3   c-0.4,2.5-1.6,3.7-4.3,3.7H413.2z M415.3,1013.1c1.7,0,2.2-0.8,2.5-2.3c0.3-1.5,0-2.5-1.7-2.4L415.3,1013.1z M417.4,1002.4h-0.3   l-0.8,4.5c1.8,0,2.2-1,2.5-2.4C419,1003.4,418.8,1002.4,417.4,1002.4L417.4,1002.4z"></path>
	<path d="M429.2,1000.9l0.7,6.3l0,0l0.6-1.8l1.9-4.6h2.1l-4,7.8l-1,6h-1.9l1-6l-1.6-7.8L429.2,1000.9z"></path>
	<path d="M452.3,1000.9l-0.3,1.5h-2.2l-2.1,12.1h-1.9l2.1-12.1h-2.3l0.3-1.5H452.3z"></path>
	<path d="M459.9,1000.9l-0.9,5.4h2.9l0.9-5.4h1.9l-2.3,13.7h-1.9l1.1-6.8h-2.9l-1.1,6.8h-1.9l2.3-13.7H459.9z"></path>
	<path d="M477,1000.9l-0.3,1.5h-3.3l-0.7,4.3h2.9l-0.3,1.6h-2.9l-0.8,4.7h3.3l-0.3,1.5h-5.2l2.3-13.7L477,1000.9L477,1000.9z"></path>
	<path d="M493.4,1000.9l0.8,13.7h-1.9v-2.7h-3.1l-1,2.7h-1.9l5.5-13.7H493.4z M492.1,1008.5l0.1-5l0,0l-2.3,7h2.3L492.1,1008.5z"></path>
	<path d="M504.4,1000.9l-1.7,10.1c-0.3,1.8,0.2,2.1,1,2.1c1.3,0,1.6-0.8,1.8-1.9l1.7-10.3h1.9l-1.6,9.7c-0.3,1.8-0.7,4.1-4,4.1   s-3-1.9-2.6-4.4l1.6-9.5L504.4,1000.9z"></path>
	<path d="M521.3,1000.9l-0.3,1.5h-2.2l-2.1,12.1h-1.9l2.1-12.1h-2.3l0.3-1.5H521.3z"></path>
	<path d="M529,1000.9l-0.9,5.4h2.9l0.9-5.4h1.9l-2.3,13.7h-1.9l1.1-6.8h-2.9l-1.1,6.8h-1.9l2.3-13.7H529z"></path>
	<path d="M547,1007.8c-0.4,2.5-1.2,7-5,7s-3-4.6-2.6-7s1.2-7,5-7C548.1,1000.7,547.4,1005.3,547,1007.8z M541.4,1007.8   c-0.5,2.9-0.7,5.4,0.8,5.4s2.2-2.4,2.7-5.4s0.7-5.4-0.9-5.4C542.6,1002.4,541.9,1004.8,541.4,1007.8z"></path>
	<path d="M554.8,1000.9h2.3c1.4,0,3.6,0,3,3.6c-0.2,1.2-0.9,3.3-2.6,3.6l1.6,6.7h-1.9l-1.5-6.7l0,0l-1.1,6.7h-1.9L554.8,1000.9z    M558,1004.8c0.2-1.3,0.2-2.4-1.2-2.4h-0.3l-0.8,4.5C557.1,1007,557.8,1006.1,558,1004.8L558,1004.8z"></path>
	<path d="M38.7,265.1l2.1,13.8l0.1,1.5l0,0l0.9-6.8l1.5-8.6h2.3l2.4,15.3l0,0l0.8-6.5l1.3-8.6h2.8L49,285.7h-2.2l-1.6-9.5l-0.7-5.2   v-0.5l0,0l-0.6,5.5l-1.7,9.7h-2.4L36,265.2L38.7,265.1L38.7,265.1z"></path>
	<path d="M61.7,265.1v8h4.4v-8H69v20.5h-2.9v-10.1h-4.4v10.1h-2.9v-20.5H61.7z"></path>
	<path d="M78,265.1l2.7,9.4l0,0l0.5-2.6l1.9-6.8h3.1l-4,11.6v8.8h-3v-8.8l-4.3-11.6H78z"></path>
	<path d="M100.4,265.1l2,13.8l0.1,1.5l0,0l0.9-6.8l1.5-8.6h2.2l2.4,15.3l0,0l0.8-6.5l1.3-8.6h2.8l-3.9,20.5h-2.1l-1.6-9.5l-0.7-5.2   v-0.5l0,0l-0.6,5.5l-1.8,9.7h-2.4l-3.7-20.5L100.4,265.1L100.4,265.1z"></path>
	<path d="M128.3,265.1v2.3h-4.9v6.4h4.4v2.3h-4.4v6.9h4.9v2.3h-7.8V265L128.3,265.1L128.3,265.1z"></path>
	<path d="M145,265.1c3.4,0,7.3,0.2,7.3,10.6c0,9.4-3.4,9.9-8.5,9.9h-1.9v-20.5H145z M144.7,267.4v15.8c4.7,0.1,4.6-4.1,4.6-7.6   C149.2,272.5,149.5,267.1,144.7,267.4L144.7,267.4z"></path>
	<path d="M170.2,275.3c0,3.7,0,10.5-5.6,10.5s-5.7-6.8-5.7-10.5c0-3.7,0-10.5,5.7-10.5S170.2,271.6,170.2,275.3z M161.9,275.3   c0,4.3,0.3,8,2.6,8s2.6-3.7,2.6-8s-0.3-8-2.6-8C162.3,267.4,161.9,271,161.9,275.3z"></path>
	<path d="M263.9,265.1l2.1,13.8l0.1,1.5l0,0l0.9-6.8l1.5-8.6h2.2l2.4,15.3l0,0l0.8-6.5l1.3-8.6h2.9l-3.9,20.5h-2.3l-1.6-9.5   l-0.7-5.2v-0.5l0,0L269,276l-1.7,9.7h-2.4l-3.7-20.5L263.9,265.1z"></path>
	<path d="M286.9,265.1v8h4.3v-8h2.9v20.5h-2.9v-10.1h-4.3v10.1H284v-20.5H286.9z"></path>
	<path d="M307.1,265.1l4.7,20.5h-2.9l-0.8-3.9h-4.3l-0.8,3.9h-2.8l4.7-20.5H307.1z M307.1,276.5L306,269l0,0l-1.7,10.4h3.4   L307.1,276.5z"></path>
	<path d="M324.6,265.1v2.3h-3.3v18.1h-2.9v-18.1H315v-2.3H324.6z"></path>
	<path d="M338.6,265.1l1.9,13.8l0.1,1.5l0,0l0.9-6.8l1.5-8.6h2.2l2.4,15.3l0,0l0.8-6.5l1.3-8.6h2.8l-3.9,20.5h-2.3l-1.6-9.5L344,271   v-0.5l0,0l-0.6,5.5l-1.7,9.7h-2.4l-3.7-20.5L338.6,265.1z"></path>
	<path d="M366.4,265.1v2.3h-4.9v6.4h4.3v2.3h-4.3v6.9h4.9v2.3h-7.8V265L366.4,265.1L366.4,265.1z"></path>
	<path d="M383.2,265.1c3.4,0,7.3,0.2,7.3,10.6c0,9.4-3.4,9.9-8.5,9.9h-2v-20.5H383.2z M382.9,267.4v15.8c4.8,0.1,4.6-4.1,4.6-7.6   C387.4,272.5,387.8,267.1,382.9,267.4L382.9,267.4z"></path>
	<path d="M408.4,275.3c0,3.7,0,10.5-5.7,10.5s-5.7-6.8-5.7-10.5c0-3.7,0-10.5,5.7-10.5S408.4,271.6,408.4,275.3z M400.1,275.3   c0,4.3,0.3,8,2.6,8c2.3,0,2.6-3.7,2.6-8s-0.3-8-2.6-8C400.4,267.4,400.1,271,400.1,275.3L400.1,275.3z"></path>
	<path d="M425.5,285.6h-2.9v-20.5h2.9V285.6z"></path>
	<path d="M435.6,271.2l0.4,6.8v7.5h-2.9V265h2.8l5.1,15.6l0,0l-0.7-8.2v-7.2h2.9v20.4h-2.7l-5.1-15.8l0,0L435.6,271.2z"></path>
	<path d="M461,265.1v18.1h4.8v2.3H458v-20.4L461,265.1L461,265.1z"></path>
	<path d="M474.7,285.6h-2.8v-20.5h2.9L474.7,285.6z"></path>
	<path d="M490.2,265.1v2.3h-4.9v6.4h4.4v2.3h-4.4v9.3h-2.9V265L490.2,265.1L490.2,265.1z"></path>
	<path d="M504.2,265.1v2.3h-4.9v6.4h4.3v2.3h-4.3v6.9h4.9v2.3h-7.8V265L504.2,265.1L504.2,265.1z"></path>
	<path d="M523.1,265.1l4.7,20.5h-2.9l-0.9-4h-4.3l-0.8,3.9h-2.8l4.7-20.5L523.1,265.1L523.1,265.1z M523.1,276.5L522,269l0,0   l-1.7,10.4h3.5L523.1,276.5z"></path>
	<path d="M536.3,271.2l0.4,6.8v7.5h-2.9V265h2.8l5.1,15.6l0,0l-0.7-8.2v-7.2h2.9v20.4h-2.7l-5.1-15.8l0,0L536.3,271.2z"></path>
	<path d="M554.8,265.1c3.4,0,7.3,0.2,7.3,10.6c0,9.4-3.4,9.9-8.5,9.9h-1.9v-20.5H554.8z M554.5,267.4v15.8c4.7,0.1,4.6-4.1,4.6-7.6   C559,272.5,559.4,267.1,554.5,267.4L554.5,267.4z"></path>
	<path d="M576.5,285.6v-20.5h3.6c3.9,0,5,2,5,5.5c0,2-0.4,3.9-2.8,4.5l0,0c2.5,0.8,3.1,2.5,3.1,4.8c0,3.7-1.5,5.6-5.5,5.6   L576.5,285.6z M579.7,267.3h-0.5v6.7c2.7,0.1,3.1-1.4,3.1-3.7C582.2,268.9,581.6,267.4,579.7,267.3L579.7,267.3z M579.2,283.2   c2.5,0.1,3.1-1.2,3.1-3.4c0-2.3-0.5-3.7-3.1-3.7V283.2z"></path>
	<path d="M595.5,265.1v15c0,2.6,0.9,3.2,2,3.2c1.9,0,2.2-1.2,2.2-2.9v-15.3h2.9v14.4c0,2.7,0,6.2-5,6.2c-4.6,0-5-3-5-6.6V265   L595.5,265.1z"></path>
	<path d="M616.9,268.3c-0.7-0.6-1.5-0.9-2.4-0.9c-1.4,0-2.6,1.2-2.6,2.5c0,0.1,0,0.1,0,0.2c0,0.8,0.3,1.6,0.8,2.2l2.2,2.2   c2,1.4,3.1,3.7,3.1,6c0.3,2.7-1.9,5.1-4.7,5.3c-0.1,0-0.2,0-0.4,0c-1.1,0-2.3-0.3-3.2-1V282c0.8,0.7,1.8,1.1,2.8,1.1   c1.8,0,2.5-1.3,2.5-2.9c0-4-6.1-4.9-6.1-10.3c0-2.9,1.6-5.2,4.9-5.2c1.1,0,2.1,0.2,3.1,0.7L616.9,268.3z"></path>
	<path d="M627.5,285.6h-2.9v-20.5h2.9V285.6z"></path>
	<path d="M637.6,271.2l0.4,6.8v7.5h-2.9V265h2.8l5.1,15.6l0,0l-0.7-8.2v-7.2h2.9v20.4h-2.7l-5.1-15.8l0,0L637.6,271.2z"></path>
	<path d="M660.7,265.1v2.3h-4.8v6.4h4.4v2.3h-4.4v6.9h4.9v2.3H653V265L660.7,265.1L660.7,265.1z"></path>
	<path d="M673.8,268.3c-0.7-0.6-1.6-0.9-2.5-0.9c-1.4,0-2.6,1.2-2.6,2.5c0,0.1,0,0.1,0,0.2c0,0.8,0.3,1.6,0.8,2.2l2.2,2.2   c2,1.4,3.1,3.7,3.1,6c0.3,2.7-1.9,5.1-4.7,5.3c-0.1,0-0.3,0-0.4,0c-1.1,0-2.3-0.3-3.2-1V282c0.8,0.7,1.8,1.1,2.8,1.1   c1.8,0,2.5-1.3,2.5-2.9c0-4-6.1-4.9-6.1-10.3c0-2.9,1.6-5.2,4.9-5.2c1.1,0,2.1,0.2,3.1,0.7L673.8,268.3z"></path>
	<path d="M688.2,268.3c-0.7-0.6-1.5-0.9-2.4-0.9c-1.4,0-2.6,1.2-2.6,2.5c0,0.1,0,0.1,0,0.2c0,0.8,0.3,1.6,0.8,2.2l2.2,2.2   c2,1.4,3.1,3.7,3.1,6c0.3,2.7-1.9,5.1-4.7,5.3c-0.1,0-0.2,0-0.4,0c-1.1,0-2.3-0.3-3.2-1V282c0.8,0.7,1.8,1.1,2.9,1.1   c1.8,0,2.5-1.3,2.5-2.9c0-4-6.1-4.9-6.1-10.3c0-2.9,1.6-5.2,4.9-5.2c1.1,0,2.1,0.2,3.1,0.7L688.2,268.3z"></path>
</g>
</svg>