<?xml version="1.0" encoding="UTF-8"?> <!-- Generator: Adobe Illustrator 22.1.0, SVG Export Plug-In . SVG Version: 6.00 Build 0) --> <svg xmlns:svgjs="http://svgjs.com/svgjs" xmlns="http://www.w3.org/2000/svg" xmlns:xlink="http://www.w3.org/1999/xlink" version="1.1" id="Layer_1" x="0px" y="0px" viewBox="0 0 512 512" style="enable-background:new 0 0 512 512;" xml:space="preserve"> <style type="text/css"> .st0{fill:#006281;} .st1{fill:#EF7C00;} .st2{fill:#FFFFFF;} </style> <g> <path class="st0" d="M318,142.8c-8.3-7-17.8-12.6-28.1-16.5c18-11.4,30.1-31.4,30.1-54.3c0-35.3-28.7-64-64-64s-64,28.7-64,64 c0,22.9,12.1,42.9,30.2,54.3C185.9,140,160,175,160,216v56c0,22.1,17.9,40,40,40v28.7l0,12.8v7l-0.1,2.9V472c0,17.6,14.4,32,32,32 c9.6,0,18.1-4.3,24-11.1c5.9,6.7,14.4,11.1,24,11.1c17.6,0,32-14.4,32-32V312c22.1,0,40-17.9,40-40v-56c0-23.6-8.6-45.2-22.8-61.9 M208,72c0-26.5,21.5-48,48-48s48,21.5,48,48s-21.5,48-48,48S208,98.5,208,72z M336,272c0,13.2-10.8,24-24,24V192h-16v280 c0,8.8-7.2,16-16,16s-16-7.2-16-16V280h-16v192c0,8.8-7.2,16-16,16s-16-7.2-16-16V192h-16v104c-13.2,0-24-10.8-24-24v-56 c0-44.1,35.9-80,80-80s80,35.9,80,80V272z"></path> <g> <path class="st1" d="M96,8v56c17.7,0,32,14.3,32,32c0,7.2-2.5,13.8-6.5,19.1L160,144l6.3,4.7C177.4,134,184,115.8,184,96 C184,47.4,144.6,8,96,8z"></path> </g> <path class="st2" d="M40,472v-16h88v16"></path> <path class="st0" d="M488,440V304h-16v136h-16V320h-16v120h-16v-72h-16v72h-16v-96h-16v96h-16v-80h-16v80h-16v16h176v-16H488z"></path> <path class="st0" d="M328,472h144v16H328V472z"></path> <path class="st0" d="M356,472h144v16H356V472z"></path> <path class="st0" d="M164.8,137.6l-16.1-12.1L132,113c2.5-5.2,4-10.9,4-17c0-19.3-13.8-35.5-32-39.2V16V8h-8C47.5,8,8,47.5,8,96 s39.5,88,88,88c27.9,0,53.5-12.8,70.3-35.2l4.8-6.4L164.8,137.6z M120,96c0,13.2-10.8,24-24,24s-24-10.8-24-24s10.8-24,24-24 S120,82.8,120,96z M96,168c-39.7,0-72-32.3-72-72c0-37,28-67.6,64-71.6v32.4C69.8,60.5,56,76.7,56,96c0,22.1,17.9,40,40,40 c10.2,0,19.3-3.9,26.4-10.2l2.2,1.7l23.8,17.8C134.8,159.8,116.1,168,96,168z"></path> </g> </svg> 