<?xml version="1.0" encoding="UTF-8"?> <!-- Generator: Adobe Illustrator 22.1.0, SVG Export Plug-In . SVG Version: 6.00 Build 0) --> <svg xmlns:svgjs="http://svgjs.com/svgjs" xmlns="http://www.w3.org/2000/svg" xmlns:xlink="http://www.w3.org/1999/xlink" version="1.1" id="Layer_1" x="0px" y="0px" viewBox="0 0 512 512" style="enable-background:new 0 0 512 512;" xml:space="preserve"> <style type="text/css"> .st0{fill:#EF7C00;} .st1{fill:#006281;} </style> <g> <g> <g> <path class="st0" d="M363.8,112.5c-2.8-2.8-4.7-6.4-5.3-10.3l-2.7-16.4C348.2,40.7,309.6,8,264,8s-84.2,32.7-91.7,77.7l-2.7,16.4 c-0.7,3.9-2.5,7.5-5.3,10.3c-7.9,7.9-12.2,18.4-12.2,29.5c0,14,6.9,26.9,18.6,34.7l4.3,2.9c-2.8,15.9,3.4,32.2,16.6,42l7.9,6 c8.8-8.2,19.8-14.3,32.1-17.4c5.3-1.3,9.6-5.3,11.3-10.5l3.5-10.5h0.1c-22.3-7.4-38.4-28.4-38.4-53.1v-32c0-5,2.4-9.8,6.4-12.8 L240,72h40l32.2,19.3c4.8,2.9,7.8,8.1,7.8,13.7v31c0,24.8-16.1,45.8-38.4,53.1h0.1l3.5,10.5c1.7,5.2,6,9.1,11.3,10.5l1.2,0.3 c12,3,22.6,8.9,31.3,16.9l7.6-5.7c13.2-9.9,19.4-26.2,16.6-42.1l4.3-2.9c11.6-7.8,18.6-20.7,18.6-34.7 C376,130.8,371.7,120.4,363.8,112.5L363.8,112.5z"></path> </g> <g> <circle class="st1" cx="240" cy="112" r="8"></circle> <circle class="st1" cx="288" cy="112" r="8"></circle> <path class="st1" d="M268.4,149.3c-1.7,3.4-7.2,3.4-8.8,0l-4.4-8.8l-14.3,7.2l4.4,8.8c3.6,7.1,10.7,11.6,18.7,11.6 s15.2-4.4,18.7-11.6l4.4-8.8l-14.3-7.2L268.4,149.3z"></path> <path class="st1" d="M80,120c22.1,0,40-17.9,40-40s-17.9-40-40-40S40,57.9,40,80S57.9,120,80,120z M80,56c13.2,0,24,10.8,24,24 s-10.8,24-24,24S56,93.2,56,80S66.8,56,80,56z"></path> <path class="st1" d="M430.7,150.5h18.6v-29.2h29.2v-18.6h-29.2V73.5h-18.6v29.2h-29.2v18.6h29.2V150.5z"></path> <path class="st1" d="M504,265.1l-12.4,8.3c-14.4,9.6-31.1,14.7-48.4,14.7h-46.6c-29,0-52.6,23.6-52.6,52.6 c0,14.5,5.2,28.5,14.6,39.4l33.4,39v15.3l-4.6,1.5c-13.6,4.5-25,13.5-32.7,25.1c-11.6-22.7-33.3-39.1-58.7-43.6v-14.8l8.5-12.7 c13.1-19.7,20.9-42.4,22.9-65.8c9.8-5.5,16.6-15.8,16.6-27.9c0-11.3-6-21.3-14.9-26.9c1-2.8,2.4-5.3,4.5-7.4l-11.3-11.3 c-3.9,3.9-6.7,8.7-8.4,13.9c-0.7,0-1.3-0.2-1.9-0.2h-35.2c12.5-11.2,21-26.4,23.8-43.1l0.2-1.2c25.7,8.7,43.2,32.8,43.2,60.3h16 c0-36.7-24.8-68.5-60.4-77.3l-1.2-0.3c-2.7-0.7-4.8-2.6-5.7-5.2l-1.2-3.5c21.5-10.3,36.4-32.3,36.4-57.6v-30.9 c0-8.4-4.5-16.3-11.6-20.6l-32.2-19.3l-8.2,13.7l32.2,19.3c2.4,1.4,3.9,4.1,3.9,6.9V136c0,26.5-21.5,48-48,48s-48-21.5-48-48v-32 c0-2.5,1.2-4.9,3.2-6.4L240,82l27.2,20.4l9.6-12.8L240,62l-30.4,22.8c-6,4.5-9.6,11.7-9.6,19.2v32c0,25.4,14.9,47.3,36.4,57.6 l-1.2,3.5c-0.9,2.6-3,4.6-5.7,5.2c-36.2,9.1-61.5,41.5-61.5,78.8V296h16v-14.8c0-27.8,17.5-52.2,43.2-61.4l0.2,1 c2.8,16.7,11.3,31.9,23.8,43.1h-6.6c-10.5,0-20.3,2.7-28.9,7.4c-0.9-7.9-4.2-15.3-10-21l-11.3,11.3c3.6,3.6,5.7,8.5,5.7,13.7v8.4 c-9.9,10.8-16,25.1-16,40.9c0,14.5,5.2,28.5,14.6,39.4l33.4,39v14.5c-29.2,7.4-52.2,30.2-59.6,59.8l-2.7,10.7h-2.4 c-3-24-19.4-44.4-42.8-52.2l-4.6-1.5V420c14.5-10.8,25-26.1,30-43.6c10.8-5.9,18-17.3,18-30.1c0-18.4-14.6-33.5-32.8-34.3 c-3.7-18.3-19.9-32-39.2-32h-1.2c-5.6,0-11.1,1.2-16.2,3.4L33,303.7c-15.2,6.8-25,21.8-25,38.4c0,14.2,7.1,26.7,18,34.3 c5,17.5,15.5,32.8,30,43.6v14.2l-4.6,1.5C25.4,444.4,8,468.6,8,496v8h496v-8c0-27.4-17.4-51.6-43.4-60.2l-4.6-1.5v-15.8l25-37.5 c4.6-6.8,7-14.8,7-23c0-2.8-0.3-5.6-0.9-8.3c10.7-11.4,16.9-26.6,16.9-42.4V265.1z M264,200c4.3,0,8.4-0.4,12.5-1.2l1.1,3.4 c1.5,4.6,4.4,8.3,8,11.2l-0.4,2.6h-42.4l-0.4-2.6c3.6-2.8,6.5-6.6,8-11.2l1.1-3.4C255.6,199.6,259.7,200,264,200L264,200z M247.3,232h33.4c-3.7,8.5-9.4,16.2-16.7,22.1C256.7,248.2,251,240.5,247.3,232L247.3,232z M440,433.8c-10.5,2.5-21.5,2.5-32,0 V424h32V433.8z M280,417.8c-10.5,2.5-21.5,2.5-32,0V408h32V417.8z M200,324.6c0-24.6,20-44.6,44.6-44.6H312c8.8,0,16,7.2,16,16 s-7.2,16-16,16h-16c-8.8,0-16-7.2-16-16h-16c0,17.6,14.4,32,32,32h14.9c-2.5,18.8-9.2,37-19.8,52.8l-7.4,11.2h-40l-33-38.5 C203.8,345.5,200,335.2,200,324.6z M188,481.2c6.3-25.1,26.6-44.1,51.8-48.9c7.9,2.4,16,3.6,24.2,3.6c8.3,0,16.5-1.3,24.5-3.7 l4,0.7c23.2,3.9,42.8,20,51.1,42.1l4.9,13.1H312v-32h-16v32h-64v-32h-16v32h-29.8L188,481.2z M72,424h32v9.8 c-10.5,2.5-21.5,2.5-32,0V424z M45.8,383.6c1.4,0.1,2.7,0.4,4.1,0.4H64c13.2,0,24-10.8,24-24s-10.8-24-24-24h-8v16h8 c4.4,0,8,3.6,8,8s-3.6,8-8,8H49.9C35.6,368,24,356.4,24,342.1c0-10.2,6-19.5,15.4-23.7L85,298.1c3.1-1.4,6.4-2.1,9.7-2.1H96 c13.2,0,24,10.8,24,24v8h13.6c10.1,0,18.4,8.2,18.4,18.4c0,8.7-6.2,16.3-14.8,18l-18.8,3.8l3.1,15.7l9.4-1.9 c-4.8,10.3-12.1,19.3-21.5,26h-43C57.6,401.6,50.6,393.2,45.8,383.6z M56.5,450.9l7.7-2.6c7.7,2.3,15.8,3.5,23.8,3.5 s16.1-1.2,23.8-3.5l7.7,2.6c16.8,5.6,28.9,20,31.8,37.1H136v-16h-16v16H56v-16H40v16H24.7C27.6,470.9,39.6,456.6,56.5,450.9 L56.5,450.9z M487.3,488H472v-16h-16v16h-64v-16h-16v16h-10.5l-2.8-7.6c4.8-13.9,15.7-24.8,29.8-29.5l7.7-2.6 c7.7,2.3,15.8,3.5,23.8,3.5s16.1-1.2,23.8-3.5l7.7,2.6C472.4,456.6,484.4,470.9,487.3,488L487.3,488z M488,307.2 c0,9.4-2.9,18.5-8.2,26.2c-1.2-1.6-2.4-3.3-3.9-4.8l-6.2-6.2l-11.3,11.3l6.2,6.2c4.8,4.8,7.5,11.2,7.5,18c0,5.1-1.5,9.9-4.3,14.1 l-24,36h-40l-33-38.5c-6.9-8.1-10.7-18.4-10.7-29c0-20.2,16.4-36.6,36.6-36.6h46.6c15.6,0,30.9-3.5,44.8-10.2L488,307.2 L488,307.2z"></path> </g> </g> </g> </svg> 