<?xml version="1.0" encoding="UTF-8"?> <!-- Generator: Adobe Illustrator 22.1.0, SVG Export Plug-In . SVG Version: 6.00 Build 0) --> <svg xmlns="http://www.w3.org/2000/svg" xmlns:xlink="http://www.w3.org/1999/xlink" version="1.1" id="_x33_0" x="0px" y="0px" viewBox="0 0 512 512" style="enable-background:new 0 0 512 512;" xml:space="preserve"> <style type="text/css"> .st0{fill:#EF7C00;} .st1{fill:#006281;} </style> <g> <g> <path class="st0" d="M201.2,31.2L148.5,12c-7.4-2.7-15.1-4-23-4c-21,0-41.1,10-53.7,26.9l-4.1,5.4C52.1,42.3,40,55.8,40,72 c0,17.3,8.1,39.8,8.5,40.8l1.8,5.1C54.2,109.7,62.4,104,72,104h10.9l0,0.1c0.9-0.7,1.8-1.4,3-1.7c18.8-5.8,36.3-16.5,50.2-30.4 c13.8,13.8,31.4,24.6,50.2,30.4c1.1,0.4,2.1,1,3,1.7V104H200c10.3,0,19,6.5,22.4,15.6l-0.3-1.5l8.5-31.6c0.9-3.7,1.4-7.5,1.4-11.4 C232,55.6,219.6,37.9,201.2,31.2L201.2,31.2z"></path> </g> <g> <path class="st1" d="M230.2,88l-4.3,16H296v30.4l65.3-40.8C367.7,126.8,397,152,432,152c39.7,0,72-32.3,72-72S471.7,8,432,8 c-35,0-64.3,25.2-70.7,58.4L296,25.6V56h-68.3c2.3,5,3.6,10.4,4,16H312V54.4L352.9,80L312,105.6V88H230.2z M416,72 c0-8.8,7.2-16,16-16s16,7.2,16,16s-7.2,16-16,16S416,80.8,416,72z M440,105.2c10.6,2.9,19.1,11.2,21.9,22.1 c-6.5,4.2-14,7-21.9,8.1V105.2z M424,105.2v30.2c-8-1.2-15.4-4-21.9-8.1C404.9,116.4,413.4,108,424,105.2z M432,24 c30.9,0,56,25.1,56,56c0,13.7-5,26.2-13.2,36c-4.2-9.3-11.1-17-19.8-21.9c5.5-5.7,8.9-13.5,8.9-22.1c0-17.6-14.4-32-32-32 s-32,14.4-32,32c0,8.6,3.4,16.3,9,22.1c-8.7,4.9-15.6,12.6-19.8,21.9C381,106.2,376,93.7,376,80C376,49.1,401.1,24,432,24z"></path> <path class="st1" d="M432,328c39.7,0,72-32.3,72-72c0-39.7-32.3-72-72-72c-35,0-64.3,25.2-70.7,58.4L296,201.6V232h-73.9 c-8.6-5.2-17.9-8.9-27.8-10.9l-19.8-4l-4.7-18.9c13.7-8.6,23.9-22.2,28.1-38.2h2.1c17.6,0,32-14.4,32-32s-14.4-32-32-32h-8.9 c-0.9-0.4-1.6-1-2.6-1.3c-17.2-5.3-33.9-15.4-46.9-28.4l-5.7-5.7l-5.7,5.7c-13,13-29.6,23.1-46.9,28.4c-1,0.3-1.7,0.8-2.6,1.3H72 c-17.6,0-32,14.4-32,32s14.4,32,32,32h2.1c4.2,16.1,14.4,29.7,28.1,38.2l-4.7,18.9l-19.8,4c-11.2,2.2-21.6,6.6-31.1,12.9 C22.4,250.1,8,277.1,8,306.1V424c0,17.6,14.4,32,32,32c5.9,0,11.3-1.7,16-4.4V504h160v-52.4c4.7,2.8,10.1,4.4,16,4.4h64v30.4 l65.3-40.8C367.7,478.8,397,504,432,504c39.7,0,72-32.3,72-72s-32.3-72-72-72c-35,0-64.3,25.2-70.7,58.4L296,377.6V408h-32V306.1 c0-9-1.5-17.8-4.2-26.1H296v30.4l65.3-40.8C367.7,302.8,397,328,432,328z M216,128c0,8.8-7.2,16-16,16v-32 C208.8,112,216,119.2,216,128z M56,128c0-8.8,7.2-16,16-16v32C63.2,144,56,136.8,56,128z M416,248c0-8.8,7.2-16,16-16 s16,7.2,16,16s-7.2,16-16,16S416,256.8,416,248z M440,281.2c10.6,2.9,19.1,11.2,21.9,22.1c-6.5,4.2-14,7-21.9,8.1V281.2z M424,281.2v30.2c-8-1.2-15.4-4-21.9-8.1C404.9,292.4,413.4,284,424,281.2z M432,200c30.9,0,56,25.1,56,56c0,13.7-5,26.2-13.2,36 c-4.2-9.3-11.1-17-19.8-21.9c5.5-5.8,8.9-13.5,8.9-22.1c0-17.6-14.4-32-32-32s-32,14.4-32,32c0,8.6,3.4,16.3,8.9,22.1 c-8.7,4.9-15.6,12.6-19.8,21.9c-8.2-9.7-13.2-22.3-13.2-36C376,225.1,401.1,200,432,200z M216.5,247.3 c19.7,13.1,31.5,35.1,31.5,58.8V392h-32v-80h-16v96h-60.7l29-29l-8.2-82.2l4.5-14.3l17.5,10.5l8.5-56.3l0.5,0.1 C200.3,238.6,208.8,242.1,216.5,247.3L216.5,247.3z M136,265.3l14.5,8.7l-4.4,14h-20.2l-4.4-14L136,265.3z M127.2,304h17.5l6.9,69 L136,388.7L120.3,373L127.2,304z M175,233.5l-5.1,33.5l-21-12.6l21.7-21.7L175,233.5z M88,144l0.2-34c17.2-5.3,34-14.8,47.8-27 c13.8,12.2,30.6,21.7,48,27.1v34c0,26.5-21.5,48-48,48S88,170.5,88,144z M136,208c6.6,0,13-1,19-2.9l4.1,16.4L136,244.7 l-23.1-23.1l4.1-16.4C123,207,129.4,208,136,208L136,208z M101.4,232.7l21.7,21.7l-21,12.6L97,233.5L101.4,232.7z M55.5,247.3 c7.7-5.2,16.3-8.7,25.4-10.5l0.5-0.1l8.5,56.3l17.5-10.5l4.5,14.3l-8.2,82.2l29,29H72v-96H56v80H24v-85.9 C24,282.4,35.8,260.4,55.5,247.3z M40,440c-8.8,0-16-7.2-16-16v-16h32v16C56,432.8,48.8,440,40,440z M200,488h-56v-32h-16v32H72 v-64h128V488z M216,424v-16h32v16c0,8.8-7.2,16-16,16S216,432.8,216,424z M416,424c0-8.8,7.2-16,16-16s16,7.2,16,16s-7.2,16-16,16 S416,432.8,416,424z M440,457.2c10.6,2.9,19.1,11.2,21.9,22.1c-6.5,4.2-14,7-21.9,8.1V457.2z M424,457.2v30.2 c-8-1.2-15.4-4-21.9-8.1C404.9,468.4,413.4,460,424,457.2z M432,376c30.9,0,56,25.1,56,56c0,13.7-5,26.2-13.2,36 c-4.2-9.3-11.1-17-19.8-21.9c5.5-5.8,8.9-13.5,8.9-22.1c0-17.6-14.4-32-32-32s-32,14.4-32,32c0,8.6,3.4,16.3,8.9,22.1 c-8.7,4.9-15.6,12.6-19.8,21.9c-8.2-9.7-13.2-22.3-13.2-36C376,401.1,401.1,376,432,376z M312,424v-17.6l40.9,25.6L312,457.6V440 h-52.4c2.8-4.7,4.4-10.1,4.4-16H312z M253,264c-3.2-5.7-7-11.1-11.4-16H312v-17.6l40.9,25.6L312,281.6V264H253z"></path> </g> </g> </svg> 