<?xml version="1.0" encoding="UTF-8"?> <!-- Generator: Adobe Illustrator 22.1.0, SVG Export Plug-In . SVG Version: 6.00 Build 0) --> <svg xmlns:svgjs="http://svgjs.com/svgjs" xmlns="http://www.w3.org/2000/svg" xmlns:xlink="http://www.w3.org/1999/xlink" version="1.1" id="Layer_1" x="0px" y="0px" viewBox="0 0 512 512" style="enable-background:new 0 0 512 512;" xml:space="preserve"> <style type="text/css"> .st0{fill:#EF7C00;} .st1{fill:#006281;} </style> <g> <g> <g> <path class="st0" d="M8,266.9c0,40.8,22.6,77.4,59.1,95.6L80,369v-49l-11.3-11.3c-3-3-4.7-7.1-4.7-11.3V296c0-8.8,7.2-16,16-16 v-16v-24v-8H8V266.9z"></path> </g> <g> <path class="st0" d="M432,232v8v24v16c8.8,0,16,7.2,16,16v1.4c0,4.2-1.7,8.3-4.7,11.3L432,320v49l12.9-6.5 c36.4-18.2,59.1-54.9,59.1-95.6V232L432,232z"></path> </g> <g> <circle class="st0" cx="256" cy="104" r="64"></circle> </g> <g> <path class="st1" d="M288,304h-16c0,4.4-3.6,8-8,8h-32v16h32C277.2,328,288,317.2,288,304z"></path> <path class="st1" d="M440,378v-54.7l9-9c4.5-4.5,7-10.6,7-17V296c0-10.4-6.7-19.3-16-22.6V232h-93.8l-16.8,50.3 c-1,2.9-1.5,5.9-1.5,9c0,10.9,6,20.6,15.8,25.5l0.2,15.9c0,9.4,3.7,18.3,10.3,25c5.9,5.9,13.5,9.3,21.7,10v34.4 c-7.6,5.5-14.4,11.8-20.4,18.8c-15.2-19.6-37-32.5-61.6-36.3l-3.3-9.9c21.3-4.9,37.3-24,37.3-46.8v-36.6V232h-24v-28.2 c0-9.7,4.5-18.8,12.4-25.2C339,160.2,352,133.1,352,104c0-27.3-11.7-53.4-32-71.6c-20.3-18.2-47.6-26.8-75-23.8 c-42.1,4.7-77.4,38.4-83.8,80.2c-5.3,34.2,7.4,67.7,34.1,89.5c8.1,6.6,12.8,15.9,12.8,25.5V232h-24v59.3v36.6 c0,22.8,16,41.9,37.3,46.8l-3.3,10c-24.3,3.8-46.4,17-61.6,36.3c-6-7-12.8-13.4-20.4-18.9v-34.4c8.2-0.8,15.8-4.1,21.7-10 c6.7-6.7,10.4-15.5,10.4-25v-15.7l0.2-0.1c9.7-4.9,15.8-14.6,15.8-25.5c0-3.1-0.5-6.1-1.5-9L165.8,232H144V94.1l-37.3-74.5 C103.2,12.4,96,8,88,8s-15.2,4.4-18.7,11.6L32,94.1V232h16V104h32v128h-8v41.4c-9.3,3.3-16,12.2-16,22.6v1.4c0,6.4,2.5,12.4,7,17 l9,9V378C34,390.3,8,425.6,8,466v38h496v-38C504,425.6,478,390.3,440,378L440,378z M392,368h16v-16h-28.7h0c-5.2,0-10-2-13.6-5.7 c-3.6-3.6-5.7-8.6-5.7-13.7v-25.6l-9.1-4.6c-4.3-2.1-6.9-6.4-6.9-11.2c0-1.3,0.2-2.7,0.6-4l13.1-39.4H424v40h8c4.4,0,8,3.6,8,8 v1.4c0,2.1-0.8,4.2-2.3,5.7L424,316.7v62l-24.6,10.3c-2.5,1-5,2.2-7.4,3.4V368z M256,412.7l-22.8-22.9l4.6-13.8h36.5l4.6,13.8 L256,412.7z M221.2,400.4l23.5,23.6l-16,16l-8.8-39.4C220.3,400.6,220.8,400.5,221.2,400.4z M290.8,400.4 c0.4,0.1,0.9,0.1,1.3,0.2l-8.8,39.4l-16-16L290.8,400.4z M205.4,165.9c-22.2-18.1-32.8-46-28.4-74.6 c5.4-34.7,34.7-62.8,69.8-66.7c23.2-2.6,45.4,4.5,62.6,19.8c17,15.2,26.7,36.9,26.7,59.6c0,24.2-10.8,46.9-29.7,62.1 c-10.6,8.6-17,20.8-18.1,33.9h-15.7l4.8-72H288c13.2,0,24-10.8,24-24s-10.8-24-24-24h-1c-12.6,0-23.1,9.8-23.9,22.4l-0.6,9.6 h-12.8l-0.6-9.6C248.1,89.8,237.6,80,225,80h-1c-13.2,0-24,10.8-24,24s10.8,24,24,24h10.6l4.8,72h-15.7 C222.7,187,216.2,174.7,205.4,165.9L205.4,165.9z M255.5,200l-4.8-72h10.6l-4.8,72H255.5z M278.4,112l0.6-8.5 c0.3-4.2,3.8-7.5,8-7.5h1c4.4,0,8,3.6,8,8s-3.6,8-8,8H278.4z M233.6,112H224c-4.4,0-8-3.6-8-8s3.6-8,8-8h1c4.2,0,7.7,3.3,8,7.5 L233.6,112z M224,216h64v16h-64L224,216z M200,327.9V248h112v79.9c0,17.6-14.4,32-32,32h-48C214.4,359.9,200,345.5,200,327.9 L200,327.9z M130.2,417.7l-5.5,11L95,410.8l-3.3-13.3l14.8,6.2C115.1,407.3,123.1,412,130.2,417.7z M83.6,26.7 c1.7-3.4,7.2-3.4,8.8,0L123.1,88H52.9L83.6,26.7z M96,104h32v128H96V104z M72,296c0-4.4,3.6-8,8-8h8v-40h66.2l13.1,39.4 c0.4,1.3,0.6,2.6,0.6,4c0,4.8-2.6,9.1-6.9,11.2l-9.1,4.6v25.6c0,5.2-2,10-5.7,13.7c-3.6,3.6-8.5,5.6-13.6,5.6h0H104v16h16v24.3 c-2.4-1.2-4.9-2.3-7.4-3.4L88,378.7v-62L74.3,303c-1.5-1.5-2.3-3.5-2.3-5.7L72,296z M72,488v-48H56v48H24v-22 c0-32.5,20.3-60.9,50.3-71.8l6.8,27l50.2,30.2l11.1-22.2c14.5,16.1,23.6,36.6,25.3,58.8L72,488z M183.7,488 c-1.3-19.3-7.4-37.6-17.3-53.5c9.4-13.6,22.7-24,38-29.8l14.9,67.2l36.6-36.6l36.6,36.6l14.9-67.3c15.3,5.7,28.5,16,38,29.8 c-9.9,15.9-16,34.1-17.3,53.5L183.7,488z M488,488h-32v-48h-16v48h-95.7c2.9-37.2,26.3-69.8,61.2-84.3l27-11.3 c32.8,9.4,55.4,39.2,55.4,73.5L488,488L488,488z"></path> <path class="st1" d="M392,192c0,13.2,10.8,24,24,24s24-10.8,24-24s-10.8-24-24-24S392,178.8,392,192z M424,192c0,4.4-3.6,8-8,8 s-8-3.6-8-8s3.6-8,8-8S424,187.6,424,192z"></path> <path class="st1" d="M384,69.8c0-16.4,13.4-29.8,29.8-29.8h4.4c16.4,0,29.8,13.4,29.8,29.8c0,9.1-4.1,17.6-11.2,23.3l-28.8,23 V152h16v-28.2l22.8-18.2c10.9-8.7,17.2-21.8,17.2-35.8c0-25.3-20.6-45.8-45.8-45.8h-4.4C388.6,24,368,44.6,368,69.8V72h16V69.8z"></path> </g> </g> </g> </svg> 