<?xml version="1.0" encoding="UTF-8"?> <!-- Generator: Adobe Illustrator 22.1.0, SVG Export Plug-In . SVG Version: 6.00 Build 0) --> <svg xmlns:svgjs="http://svgjs.com/svgjs" xmlns="http://www.w3.org/2000/svg" xmlns:xlink="http://www.w3.org/1999/xlink" version="1.1" id="Layer_1" x="0px" y="0px" viewBox="0 0 512 512" style="enable-background:new 0 0 512 512;" xml:space="preserve"> <style type="text/css"> .st0{fill:#EF7C00;} .st1{fill:#006281;} </style> <g> <g> <g> <path class="st0" d="M330.3,231.2h-14.5l10.3-10.3l-35-35l-10.3,10.3v-14.5h-49.5v14.5L221,185.9l-35,35l10.3,10.3h-14.5v49.5 h14.5L185.9,291l35,35l10.3-10.3v14.5h49.5v-14.5l10.3,10.3l35-35l-10.3-10.3h14.5V231.2z M256,272.5c-9.1,0-16.5-7.4-16.5-16.5 c0-9.1,7.4-16.5,16.5-16.5c9.1,0,16.5,7.4,16.5,16.5C272.5,265.1,265.1,272.5,256,272.5z"></path> </g> <g> <path class="st0" d="M33,322.1h49.5v66.1H33V322.1z"></path> </g> <g> <path class="st1" d="M74.3,148.6c25.7,0,48.4-13.1,61.8-33h177.7V99.1H144.3c2.8-7.8,4.3-16.1,4.3-24.8c0-41-33.3-74.3-74.3-74.3 S0,33.3,0,74.3S33.3,148.6,74.3,148.6z M74.3,16.5c31.9,0,57.8,25.9,57.8,57.8s-25.9,57.8-57.8,57.8s-57.8-25.9-57.8-57.8 S42.4,16.5,74.3,16.5z"></path> <path class="st0" d="M113.2,55.4l-11.7-11.7L57.8,87.4L47.1,76.7L35.5,88.4l22.4,22.4L113.2,55.4z"></path> <path class="st1" d="M462.5,0v115.6h-16.5V33h-49.5v82.6h-16.5V66.1h-49.5v66.1H512V0H462.5z M363.4,115.6h-16.5v-33h16.5V115.6z M412.9,49.5h16.5v66.1h-16.5V49.5z M495.5,115.6H479V16.5h16.5V115.6z"></path> <path class="st1" d="M231.2,256c0,13.7,11.1,24.8,24.8,24.8c13.7,0,24.8-11.1,24.8-24.8c0-13.7-11.1-24.8-24.8-24.8 C242.3,231.2,231.2,242.3,231.2,256z M264.3,256c0,4.6-3.7,8.3-8.3,8.3s-8.3-3.7-8.3-8.3c0-4.6,3.7-8.3,8.3-8.3 S264.3,251.4,264.3,256z"></path> <path class="st1" d="M412.9,239.5c0,4.6-3.7,8.3-8.3,8.3h-57.8v16.5h57.8c13.7,0,24.8-11.1,24.8-24.8v-90.8h-16.5V239.5z"></path> <path class="st1" d="M457,363.4h-5.7c-30.3,0-55,24.7-55,55c0,14.7,5.7,28.5,16.1,38.9l16.9,16.9v13.1 c0,13.7,11.1,24.8,24.8,24.8c13.7,0,24.8-11.1,24.8-24.8v-13.1l16.9-16.9c10.4-10.4,16.1-24.2,16.1-38.9 C512,388,487.3,363.4,457,363.4z M454.2,495.5c-4.6,0-8.3-3.7-8.3-8.3V479h16.5v8.3C462.5,491.8,458.7,495.5,454.2,495.5z M484.2,445.5l-16.9,16.9h-4.8v-33H479v-16.5h-49.5v16.5h16.5v33h-4.8l-16.9-16.9c-7.3-7.3-11.3-16.9-11.3-27.2 c0-21.2,17.3-38.5,38.5-38.5h5.7c21.2,0,38.4,17.3,38.4,38.5C495.5,428.6,491.5,438.3,484.2,445.5L484.2,445.5z"></path> <path class="st0" d="M445.9,313.8h16.5v33h-16.5V313.8z"></path> <path class="st1" d="M405.6,325l15.3-6.3l12.7,30.5l-15.3,6.3L405.6,325z"></path> <path class="st1" d="M475.2,349.4l12.7-30.5l15.3,6.3l-12.7,30.5L475.2,349.4z"></path> <path class="st1" d="M66.1,454.2v-8.3h33c9.1,0,16.5-7.4,16.5-16.5V297.3c0-9.1-7.4-16.5-16.5-16.5h-33v-8.3 c0-4.6,3.7-8.3,8.3-8.3h90.8v-16.5H74.3c-13.7,0-24.8,11.1-24.8,24.8v8.3h-33c-9.1,0-16.5,7.4-16.5,16.5v132.1 c0,9.1,7.4,16.5,16.5,16.5h33v8.3c0,13.7,11.1,24.8,24.8,24.8h322.1v-16.5H74.3C69.8,462.5,66.1,458.8,66.1,454.2z M16.5,297.3 h82.6l0,132.1H16.5V297.3z"></path> <path class="st1" d="M33,313.8h49.5v16.5H33V313.8z"></path> <path class="st1" d="M33,346.8h49.5v16.5H33V346.8z"></path> <path class="st1" d="M33,379.9h49.5v16.5H33V379.9z"></path> </g> </g> </g> </svg> 