<?xml version="1.0" encoding="UTF-8"?><svg id="Art" xmlns="http://www.w3.org/2000/svg" viewBox="0 0 60 60"><defs><style>.cls-1{fill:#231f20;}</style></defs><path class="cls-1" d="m56.15,36.97l-4.16-2.71c-.46-.3-1.08-.17-1.38.29-.3.46-.17,1.08.29,1.38l3.48,2.26-1.5,3.76-4.08-.75c-.41-.08-.82.11-1.04.47-1.8,3-4.3,5.57-7.24,7.44-.35.22-.53.64-.44,1.05l.86,4.05-3.72,1.6-2.36-3.41c-.24-.34-.66-.5-1.07-.4-3.38.85-6.97.9-10.38.14-.41-.09-.83.08-1.05.43l-2.26,3.48-3.76-1.5.75-4.08c.07-.41-.11-.82-.47-1.04-3-1.8-5.57-4.3-7.44-7.24-.22-.35-.64-.53-1.05-.44l-4.06.86-1.6-3.72,3.41-2.35c.34-.24.5-.66.4-1.07-.85-3.38-.9-6.97-.14-10.38.09-.41-.08-.83-.43-1.05l-3.48-2.26,1.5-3.76,4.08.75c.41.08.82-.11,1.04-.47,1.8-3,4.3-5.57,7.24-7.44.35-.22.53-.64.44-1.05l-.86-4.05,3.72-1.6,2.36,3.41c.24.34.66.51,1.07.4,3.38-.85,6.97-.9,10.38-.14.41.09.83-.08,1.05-.43l2.26-3.48,3.76,1.5-.75,4.08c-.1.54.26,1.06.8,1.16.55.11,1.06-.26,1.16-.8l.9-4.89c.09-.47-.17-.93-.61-1.11l-5.28-2.1c-.44-.18-.95-.02-1.21.38l-2.34,3.59c-3.28-.63-6.69-.58-9.94.13l-2.43-3.52c-.27-.39-.78-.54-1.22-.35l-5.22,2.25c-.44.19-.68.66-.58,1.13l.89,4.19c-2.75,1.87-5.13,4.31-6.93,7.13l-4.22-.77c-.47-.09-.93.17-1.11.61L.07,21.82c-.18.44-.02.95.38,1.21l3.59,2.34c-.63,3.28-.58,6.69.13,9.94l-3.52,2.43c-.39.27-.54.78-.35,1.22l2.25,5.22c.19.44.66.68,1.13.58l4.19-.89c1.87,2.75,4.31,5.13,7.13,6.93l-.77,4.22c-.09.47.17.93.61,1.11l5.28,2.1c.12.05.25.07.37.07.33,0,.65-.16.84-.46l2.34-3.59c3.28.63,6.69.58,9.94-.13l2.43,3.52c.27.39.78.54,1.22.35l5.22-2.25c.44-.19.68-.66.58-1.13l-.89-4.19c2.75-1.87,5.13-4.31,6.93-7.13l4.22.77c.47.09.93-.17,1.11-.61l2.1-5.28c.18-.44.02-.95-.38-1.21Z"/><path class="cls-1" d="m28.3,14.45c1.34,0,2.67.17,3.96.51.54.13,1.08-.18,1.22-.71s-.18-1.08-.71-1.22c-1.45-.38-2.95-.57-4.46-.57-9.68,0-17.55,7.87-17.55,17.55s7.87,17.55,17.55,17.55c7.93,0,14.9-5.34,16.95-13,.14-.53-.17-1.08-.71-1.22-.53-.14-1.08.17-1.22.71-1.82,6.78-7.99,11.51-15.02,11.51-8.57,0-15.55-6.98-15.55-15.55s6.98-15.55,15.55-15.55Z"/><path class="cls-1" d="m59,31.13h-1.88V13.21c0-.25-.1-.47-.25-.64v-.11h-.11c-.17-.15-.4-.25-.64-.25h-4.53c-.25,0-.47.1-.64.25h-.11v.11c-.15.17-.25.39-.25.64v17.93h-3.68v-14.27c0-.25-.1-.47-.25-.64v-.11h-.11c-.17-.15-.4-.25-.64-.25h-4.53c-.25,0-.47.1-.64.25h-.11v.11c-.15.17-.25.39-.25.64v14.27h-3.68v-9.57c0-.25-.1-.47-.25-.64v-.11h-.11c-.17-.15-.4-.25-.64-.25h-4.53c-.25,0-.47.1-.64.25h-.11v.11c-.15.17-.25.39-.25.64v9.57h-1.88c-.55,0-1,.45-1,1s.45,1,1,1h30.7c.55,0,1-.45,1-1s-.45-1-1-1Zm-26.82,0v-8.57h2.53v8.57h-2.53Zm10.21,0v-13.27h2.53v13.27h-2.53Zm10.21,0V14.21h2.53v16.93h-2.53Z"/><path class="cls-1" d="m37.39,11.73c-.27,0-.52.11-.71.29l-5.49,5.49c-.39.39-.39,1.02,0,1.41.2.2.45.29.71.29s.51-.1.71-.29l5.2-5.2h6.34c.27,0,.53-.11.72-.3l8-8.26v2.06c0,.55.45,1,1,1s1-.45,1-1V2.7s0,0,0,0c0-.11-.03-.22-.06-.32,0-.02,0-.04-.01-.06,0,0,0-.01-.01-.02-.04-.09-.1-.16-.16-.24v-.11h-.1s-.04-.02-.06-.04c-.07-.05-.13-.1-.21-.14-.08-.03-.17-.04-.26-.05-.04,0-.07-.02-.11-.02h-4.53c-.55,0-1,.45-1,1s.45,1,1,1h2.17l-7.78,8.04h-6.33Z"/></svg>