<?xml version="1.0" encoding="UTF-8"?><svg id="Art" xmlns="http://www.w3.org/2000/svg" viewBox="0 0 60 60"><path d="m59.43,10.83s0-.01,0-.02v-6.08c0-.55-.45-1-1-1h-5.61V.83c0-.55-.45-1-1-1s-1,.45-1,1v2.9h-5.27V.83c0-.55-.45-1-1-1s-1,.45-1,1v2.9h-5.27V.83c0-.55-.45-1-1-1s-1,.45-1,1v2.9h-5.27V.83c0-.55-.45-1-1-1s-1,.45-1,1v2.9h-5.27V.83c0-.55-.45-1-1-1s-1,.45-1,1v2.9h-5.27V.83c0-.55-.45-1-1-1s-1,.45-1,1v2.9h-5.27V.83c0-.55-.45-1-1-1s-1,.45-1,1v2.9H1.57c-.55,0-1,.45-1,1v6.08s0,0,0,.01,0,0,0,.01v34.02c0,.55.45,1,1,1h26.47c1.83,2.05,4.41,3.45,7.35,3.76,2.11.22,4.18-.14,6.05-1.04l6.83,9.81c.49.74,1.27,1.24,2.14,1.39.17.03.34.04.52.04.7,0,1.4-.23,1.96-.67.7-.54,1.15-1.36,1.22-2.24.08-.88-.22-1.76-.81-2.42l-7.68-8.64h12.8c.55,0,1-.45,1-1V10.84s0-.01,0-.02ZM7.18,5.73v1.24c0,.55.45,1,1,1s1-.45,1-1v-1.24h5.27v1.24c0,.55.45,1,1,1s1-.45,1-1v-1.24h5.27v1.24c0,.55.45,1,1,1s1-.45,1-1v-1.24h5.27v1.24c0,.55.45,1,1,1s1-.45,1-1v-1.24h5.27v1.24c0,.55.45,1,1,1s1-.45,1-1v-1.24h5.27v1.24c0,.55.45,1,1,1s1-.45,1-1v-1.24h5.27v1.24c0,.55.45,1,1,1s1-.45,1-1v-1.24h4.61v4.1H2.57v-4.1h4.61Zm20.01,24.42h-7.64v-4.53h7.64v4.53Zm-1.85,10.13h-5.79v-4.53h5.91c-.2.86-.3,1.75-.29,2.66,0,.64.07,1.26.18,1.87Zm26.79,16.46c-.03.33-.19.63-.46.84-.27.21-.6.29-.93.23-.33-.05-.62-.24-.81-.54l-7.35-10.56c-.19-.28-.5-.43-.82-.43-.17,0-.35.04-.5.14-1.73,1.01-3.63,1.42-5.65,1.21-4.7-.49-8.41-4.55-8.44-9.23-.02-2.87,1.22-5.55,3.39-7.36,2.18-1.81,5.03-2.54,7.82-2,3.35.65,5.97,3.04,7.06,6.09,0,0,0,.02,0,.03.41,1.17.61,2.43.52,3.73-.15,2.25-1.09,4.37-2.66,5.97-.37.38-.38.97-.03,1.36l8.56,9.62c.22.25.33.57.3.9Zm-11.68-29.19c-.55-.2-1.11-.36-1.69-.48-2.02-.39-4.07-.22-5.95.44v-1.9h7.64v1.93Zm7.25,8.2h6v4.53h-5.9c.08-.42.14-.84.16-1.27.07-1.12-.02-2.21-.26-3.26Zm-1.19,8.11c.28-.51.53-1.03.73-1.58h7.45c.55,0,1-.45,1-1v-6.53c0-.55-.45-1-1-1h-7.65c-.24-.56-.52-1.1-.85-1.61h8.5c.55,0,1-.45,1-1v-6.53c0-.55-.45-1-1-1h-9.64c-.55,0-1,.45-1,1v5.05c-.5-.43-1.03-.83-1.61-1.17v-3.88c0-.55-.45-1-1-1h-9.64c-.55,0-1,.45-1,1v3.83c-.53.31-1.04.65-1.52,1.05-.03.02-.05.05-.08.08v-4.96c0-.55-.45-1-1-1h-9.64c-.55,0-1,.45-1,1v6.53c0,.55.45,1,1,1h8.41c-.33.51-.61,1.05-.85,1.61h-7.56c-.55,0-1,.45-1,1v6.53c0,.55.45,1,1,1h7.33c.2.55.45,1.07.74,1.58H2.57V11.83h54.85v32.04h-10.92Zm-.46-13.71v-4.53h7.64v4.53h-7.64Z"/><path d="m14.94,13.49H5.3c-.55,0-1,.45-1,1v6.53c0,.55.45,1,1,1h9.64c.55,0,1-.45,1-1v-6.53c0-.55-.45-1-1-1Zm-1,6.53h-7.64v-4.53h7.64v4.53Z"/><path d="m28.19,13.49h-9.64c-.55,0-1,.45-1,1v6.53c0,.55.45,1,1,1h9.64c.55,0,1-.45,1-1v-6.53c0-.55-.45-1-1-1Zm-1,6.53h-7.64v-4.53h7.64v4.53Z"/><path d="m14.94,33.76H5.3c-.55,0-1,.45-1,1v6.53c0,.55.45,1,1,1h9.64c.55,0,1-.45,1-1v-6.53c0-.55-.45-1-1-1Zm-1,6.53h-7.64v-4.53h7.64v4.53Z"/><path d="m41.45,13.49h-9.64c-.55,0-1,.45-1,1v6.53c0,.55.45,1,1,1h9.64c.55,0,1-.45,1-1v-6.53c0-.55-.45-1-1-1Zm-1,6.53h-7.64v-4.53h7.64v4.53Z"/><path d="m41.45,33.76h-9.64c-.55,0-1,.45-1,1v6.53c0,.55.45,1,1,1h9.64c.55,0,1-.45,1-1v-6.53c0-.55-.45-1-1-1Zm-1,6.53h-7.64v-4.53h7.64v4.53Z"/><path d="m54.7,13.49h-9.64c-.55,0-1,.45-1,1v6.53c0,.55.45,1,1,1h9.64c.55,0,1-.45,1-1v-6.53c0-.55-.45-1-1-1Zm-1,6.53h-7.64v-4.53h7.64v4.53Z"/><path d="m14.94,23.62H5.3c-.55,0-1,.45-1,1v6.53c0,.55.45,1,1,1h9.64c.55,0,1-.45,1-1v-6.53c0-.55-.45-1-1-1Zm-1,6.53h-7.64v-4.53h7.64v4.53Z"/></svg>