<?xml version="1.0" encoding="UTF-8"?><svg id="Art" xmlns="http://www.w3.org/2000/svg" viewBox="0 0 60 60"><path d="m56.5,3.48h-2.92V1.06c0-.55-.45-1-1-1H8.06c-.55,0-1,.45-1,1v55.07c0,.55.45,1,1,1h2.43v1.93c0,.55.45,1,1,1h45.01c.55,0,1-.45,1-1V4.48c0-.55-.45-1-1-1Zm-4.92,11.83h-28.26c-7.52,0-13.69-5.86-14.21-13.26h42.47v13.26Zm-36.06,0h-6.46v-6.46c1.49,2.72,3.74,4.96,6.46,6.46Zm-6.46,2h42.52v37.81H9.06V17.32Zm46.44,40.74H12.49v-.93h40.09c.55,0,1-.45,1-1V5.48h1.92v52.57Z"/><path d="m15.88,21.99h1.5c.55,0,1-.45,1-1s-.45-1-1-1h-1.5c-.55,0-1,.45-1,1s.45,1,1,1Z"/><path d="m11.7,21.99h1.37c.55,0,1-.45,1-1s-.45-1-1-1h-1.37c-.55,0-1,.45-1,1s.45,1,1,1Z"/><path d="m20.18,21.99h1.5c.55,0,1-.45,1-1s-.45-1-1-1h-1.5c-.55,0-1,.45-1,1s.45,1,1,1Z"/><path d="m48.97,24.41H11.7c-.55,0-1,.45-1,1s.45,1,1,1h37.26c.55,0,1-.45,1-1s-.45-1-1-1Z"/><path d="m48.97,28.83H11.7c-.55,0-1,.45-1,1s.45,1,1,1h37.26c.55,0,1-.45,1-1s-.45-1-1-1Z"/><path d="m48.97,33.25H11.7c-.55,0-1,.45-1,1s.45,1,1,1h37.26c.55,0,1-.45,1-1s-.45-1-1-1Z"/><path d="m48.97,37.68H11.7c-.55,0-1,.45-1,1s.45,1,1,1h37.26c.55,0,1-.45,1-1s-.45-1-1-1Z"/><path d="m48.97,42.1H11.7c-.55,0-1,.45-1,1s.45,1,1,1h37.26c.55,0,1-.45,1-1s-.45-1-1-1Z"/><path d="m48.97,46.17H11.7c-.55,0-1,.45-1,1s.45,1,1,1h37.26c.55,0,1-.45,1-1s-.45-1-1-1Z"/><path d="m48.97,50.25H11.7c-.55,0-1,.45-1,1s.45,1,1,1h37.26c.55,0,1-.45,1-1s-.45-1-1-1Z"/></svg>