<?xml version="1.0" encoding="utf-8"?>
<!-- Generator: Adobe Illustrator 27.3.1, SVG Export Plug-In . SVG Version: 6.00 Build 0)  -->
<svg version="1.1" xmlns="http://www.w3.org/2000/svg" xmlns:xlink="http://www.w3.org/1999/xlink" x="0px" y="0px"
	 viewBox="0 0 60 60" style="enable-background:new 0 0 60 60;" xml:space="preserve">
<style type="text/css">
	.st0{display:none;}
	.st1{display:inline;}
	.st2{fill:none;stroke:#231F20;stroke-width:2;stroke-linecap:round;stroke-linejoin:round;stroke-miterlimit:10;}
	.st3{fill:none;stroke:#231F20;stroke-width:2;stroke-linecap:round;stroke-linejoin:round;}
	.st4{fill:none;stroke:#231F20;stroke-width:1.5;stroke-miterlimit:10;}
	
		.st5{fill:none;stroke:#231F20;stroke-width:2;stroke-linecap:round;stroke-linejoin:round;stroke-miterlimit:10;stroke-dasharray:1.5,2.5;}
	.st6{fill:#231F20;}
	.st7{fill:none;stroke:#ED1C24;stroke-width:1.5;stroke-miterlimit:10;}
	.st8{fill:none;stroke:#ED1C24;stroke-width:1.5;stroke-miterlimit:10;stroke-dasharray:1.5,3.2;}
	.st9{fill:none;stroke:#ED1C24;stroke-width:1.5;stroke-miterlimit:10;stroke-dasharray:1.5,2;}
	.st10{fill:none;stroke:#ED1C24;stroke-width:1.5;stroke-miterlimit:10;stroke-dasharray:1.5,2.8;}
	.st11{fill:none;stroke:#ED1C24;stroke-width:1.5;stroke-miterlimit:10;stroke-dasharray:1.5,2.2;}
	.st12{fill:none;stroke:#ED1C24;stroke-width:1.5;stroke-miterlimit:10;stroke-dasharray:1.5,3.5;}
	.st13{fill:none;stroke:#ED1C24;stroke-width:1.5;stroke-miterlimit:10;stroke-dasharray:1.5,2.43;}
	
		.st14{fill:none;stroke:#231F20;stroke-width:2;stroke-linecap:round;stroke-linejoin:round;stroke-miterlimit:10;stroke-dasharray:1.5,2.8;}
	.st15{fill:none;stroke:#231F20;stroke-width:1.5;stroke-miterlimit:10;stroke-dasharray:1.5,1.5;}
	.st16{display:inline;fill:none;stroke:#ED1C24;stroke-width:1.5;stroke-miterlimit:10;}
	.st17{display:inline;fill:#231F20;}
	.st18{fill:none;stroke:#ED1C24;stroke-width:1.5;stroke-miterlimit:10;stroke-dasharray:1.5,2.5;}
	.st19{fill:none;stroke:#ED1C24;stroke-width:1.5;stroke-miterlimit:10;stroke-dasharray:1.5,1.5;}
	
		.st20{fill:none;stroke:#231F20;stroke-width:2;stroke-linecap:round;stroke-linejoin:round;stroke-miterlimit:10;stroke-dasharray:1.5,2;}
	.st21{fill:none;stroke:#ED1C24;stroke-width:1.5;stroke-miterlimit:10;stroke-dasharray:1.5,2.4;}
	.st22{fill:none;stroke:#ED1C24;stroke-width:1.5;stroke-linejoin:round;stroke-miterlimit:10;}
	.st23{fill:none;stroke:#ED1C24;stroke-width:1.5;stroke-miterlimit:10;stroke-dasharray:1.6014,2.3487;}
	.st24{fill:none;stroke:#ED1C24;stroke-width:1.5;stroke-miterlimit:10;stroke-dasharray:1.5874,2.3282;}
	.st25{fill:none;stroke:#ED1C24;stroke-width:1.5;stroke-miterlimit:10;stroke-dasharray:1.5262,2.2384;}
	.st26{fill:none;stroke:#ED1C24;stroke-width:1.5;stroke-miterlimit:10;stroke-dasharray:1.5412,2.2604;}
	.st27{fill:none;stroke:#ED1C24;stroke-width:1.5;stroke-miterlimit:10;stroke-dasharray:1.5,3;}
	.st28{fill:none;stroke:#ED1C24;stroke-width:1.5;stroke-miterlimit:10;stroke-dasharray:1.5,1.65;}
	.st29{fill:none;stroke:#ED1C24;stroke-width:1.5;stroke-miterlimit:10;stroke-dasharray:1.5102,2.5169;}
	.st30{display:inline;fill:none;stroke:#231F20;stroke-width:2;stroke-linecap:round;stroke-linejoin:round;stroke-miterlimit:10;}
	.st31{fill:none;stroke:#ED1C24;stroke-width:2;stroke-linecap:round;stroke-linejoin:round;stroke-miterlimit:10;}
	
		.st32{fill:none;stroke:#ED1C24;stroke-width:2;stroke-linecap:round;stroke-linejoin:round;stroke-miterlimit:10;stroke-dasharray:2,2;}
	.st33{fill:none;stroke:#000000;stroke-width:1.5;stroke-miterlimit:10;}
	.st34{fill:none;stroke:#000000;stroke-width:1.5;stroke-miterlimit:10;stroke-dasharray:1.5,2;}
	.st35{fill:#969696;}
	.st36{fill:none;stroke:#231F20;stroke-width:2;}
	.st37{fill:none;stroke:#231F20;stroke-width:2;stroke-linejoin:bevel;}
	.st38{display:inline;fill:none;stroke:#282D33;stroke-width:12.1406;}
	.st39{fill:none;stroke:#231F20;stroke-width:2;stroke-linejoin:round;}
	.st40{fill:none;stroke:#231F20;stroke-width:2;stroke-linecap:round;stroke-linejoin:bevel;}
	.st41{fill:#ED1C24;}
</style>
<g id="Labels">
</g>
<g id="Extra_icons" class="st0">
</g>
<g id="Art">
	<g>
		<path d="M3.1,21.1c0,0.2,0.1,0.5,0.3,0.6l2.9,3.1L5.7,29c0,0.2,0,0.5,0.2,0.7l-0.1,0.7l0.6-0.3c0.1,0,0.2,0,0.3,0
			c0.1,0,0.3,0,0.4-0.1l3.8-1.8l3.8,1.8c0.2,0.1,0.5,0.1,0.7,0l0.6,0.3L16,29.7c0.1-0.2,0.2-0.4,0.2-0.7l-0.5-4.2l2.9-3.1
			c0.2-0.2,0.3-0.4,0.3-0.6l0.5-0.5l-0.7-0.1c-0.1-0.2-0.3-0.3-0.6-0.4l-4.1-0.8l-2.1-3.7c-0.1-0.2-0.3-0.3-0.5-0.4l-0.4-0.6
			l-0.4,0.6c-0.2,0.1-0.4,0.2-0.5,0.4L8,19.3l-4.1,0.8c-0.2,0-0.4,0.2-0.6,0.4l-0.7,0.1L3.1,21.1z M6,21.7l2.8-0.6
			c0.3-0.1,0.5-0.2,0.7-0.5l1.4-2.5l1.4,2.5c0.1,0.3,0.4,0.4,0.7,0.5l2.8,0.6l-2,2.1c-0.2,0.2-0.3,0.5-0.3,0.8l0.3,2.9l-2.6-1.2
			c-0.1-0.1-0.3-0.1-0.4-0.1s-0.3,0-0.4,0.1l-2.6,1.2l0.3-2.9c0-0.3-0.1-0.6-0.3-0.8L6,21.7z"/>
		<path d="M41.2,21.1c0,0.2,0.1,0.5,0.3,0.6l2.9,3.1L43.9,29c0,0.2,0,0.5,0.2,0.7L44,30.4l0.6-0.3c0.2,0.1,0.5,0.1,0.7,0l3.8-1.8
			l3.8,1.8c0.1,0.1,0.3,0.1,0.4,0.1c0.1,0,0.2,0,0.3,0l0.6,0.3l-0.1-0.7c0.1-0.2,0.2-0.4,0.2-0.7l-0.5-4.2l2.9-3.1
			c0.2-0.2,0.3-0.4,0.3-0.6l0.5-0.5l-0.7-0.1c-0.1-0.2-0.3-0.3-0.6-0.4L52,19.3L50,15.6c-0.1-0.2-0.3-0.3-0.5-0.4l-0.4-0.6l-0.4,0.6
			c-0.2,0.1-0.4,0.2-0.5,0.4l-2.1,3.7L42,20.1c-0.2,0-0.4,0.2-0.6,0.4l-0.7,0.1L41.2,21.1z M44.2,21.7l2.8-0.6
			c0.3-0.1,0.5-0.2,0.7-0.5l1.4-2.5l1.4,2.5c0.1,0.3,0.4,0.4,0.7,0.5l2.8,0.6l-2,2.1c-0.2,0.2-0.3,0.5-0.3,0.8l0.3,2.9l-2.6-1.2
			c-0.1-0.1-0.3-0.1-0.4-0.1s-0.3,0-0.4,0.1l-2.6,1.2l0.3-2.9c0-0.3-0.1-0.6-0.3-0.8L44.2,21.7z"/>
		<path d="M21.2,11.8c0,0.2,0.1,0.5,0.3,0.6l3.3,3.6l-0.6,4.8c0,0.2,0,0.5,0.2,0.7l-0.1,0.7l0.6-0.3c0.2,0.1,0.5,0.1,0.7,0l4.4-2
			l4.4,2c0.1,0.1,0.3,0.1,0.4,0.1c0.1,0,0.2,0,0.3,0l0.6,0.3l-0.1-0.7c0.1-0.2,0.2-0.4,0.2-0.7L35.3,16l3.3-3.6
			c0.2-0.2,0.3-0.4,0.3-0.6l0.5-0.5l-0.7-0.1c-0.1-0.2-0.3-0.3-0.6-0.4l-4.8-0.9l-2.4-4.2c-0.1-0.2-0.3-0.3-0.5-0.4L30,4.6l-0.4,0.6
			c-0.2,0.1-0.4,0.2-0.5,0.4l-2.4,4.2L22,10.8c-0.2,0-0.4,0.2-0.6,0.4l-0.7,0.1L21.2,11.8z M24.1,12.4l3.5-0.7
			c0.3-0.1,0.5-0.2,0.7-0.5L30,8.1l1.7,3.1c0.1,0.3,0.4,0.4,0.7,0.5l3.5,0.7L33.5,15c-0.2,0.2-0.3,0.5-0.3,0.8l0.4,3.5l-3.2-1.5
			c-0.1-0.1-0.3-0.1-0.4-0.1s-0.3,0-0.4,0.1l-3.2,1.5l0.4-3.5c0-0.3-0.1-0.6-0.3-0.8L24.1,12.4z"/>
		<path d="M22.2,47.8c-0.5,0-1,0.4-1.1,0.9l-0.3,5.1c0,0.6,0.4,1,0.9,1.1c0,0,0,0,0.1,0c0.5,0,1-0.4,1-0.9l0.3-5.1
			C23.2,48.3,22.8,47.8,22.2,47.8z"/>
		<path d="M37.8,47.8c-0.6,0-1,0.5-0.9,1.1l0.3,5.1c0,0.5,0.5,0.9,1,0.9c0,0,0,0,0.1,0c0.6,0,1-0.5,0.9-1.1l-0.3-5.1
			C38.8,48.2,38.4,47.8,37.8,47.8z"/>
		<path d="M30,24.5c-3.7,0-6.7,3-6.7,6.7s3,6.7,6.7,6.7s6.7-3,6.7-6.7S33.7,24.5,30,24.5z M30,35.8c-2.6,0-4.7-2.1-4.7-4.7
			s2.1-4.7,4.7-4.7c2.6,0,4.7,2.1,4.7,4.7S32.6,35.8,30,35.8z"/>
		<path d="M59.5,47.7c0-0.9-0.3-1.8-0.8-2.6c-0.5-0.9-1.4-1.7-2.5-2l-3-1.1c-0.5-0.2-1,0-1.2,0.5l-2.7,5.1h-0.5l-2.7-5.1
			c-0.2-0.4-0.8-0.6-1.2-0.5l-2.4,0.9c-0.1-0.1-0.1-0.2-0.2-0.3c-0.7-1.2-1.7-2.1-3.1-2.5l-3.9-1.4c-0.5-0.2-1,0-1.2,0.5l-3.6,6.8
			h-1L25.9,39c-0.2-0.4-0.8-0.6-1.2-0.5l-3.9,1.4c-1.3,0.5-2.4,1.4-3,2.5c-0.1,0.1-0.1,0.2-0.2,0.3l-2.4-0.9c-0.5-0.2-1,0-1.2,0.5
			l-2.7,5.1h-0.5l-2.7-5.1c-0.2-0.4-0.8-0.6-1.2-0.5l-3,1.1c-1.1,0.4-1.9,1.1-2.5,2c-0.5,0.9-0.8,1.8-0.8,2.6c0,0.4-0.4,3.4-0.5,6.2
			c0,0.6,0.4,1,1,1c0,0,0,0,0,0c0.5,0,1-0.4,1-1c0.1-3,0.5-6.1,0.5-6.1c0,0,0-0.1,0-0.1c0-0.7,0.3-1.3,0.5-1.7
			c0.3-0.5,0.8-0.9,1.4-1.2l2.2-0.8l2.6,4.8c0.2,0.3,0.5,0.5,0.9,0.5h1.7c0.4,0,0.7-0.2,0.9-0.5l2.6-4.8l1.6,0.6
			c-0.1,0.4-0.1,0.7-0.1,1.1c-0.1,0.5-0.5,4.3-0.6,8.1c0,0.6,0.4,1,1,1c0.6,0,1-0.4,1-1c0.2-3.9,0.6-8,0.6-8c0,0,0-0.1,0-0.1
			c0-0.9,0.4-1.8,0.7-2.4c0.4-0.7,1.1-1.3,2-1.6l3.1-1.1l3.5,6.6c0.2,0.3,0.5,0.5,0.9,0.5h2.2c0.4,0,0.7-0.2,0.9-0.5l3.5-6.6
			l3.1,1.1c0.9,0.3,1.6,0.9,2,1.6c0.3,0.6,0.7,1.4,0.7,2.4c0,0,0,0.1,0,0.1c0,0,0.4,4.1,0.6,8c0,0.5,0.5,1,1,1c0,0,0,0,0,0
			c0.6,0,1-0.5,1-1c-0.1-3.8-0.6-7.6-0.6-8.1c0-0.4-0.1-0.7-0.1-1.1l1.6-0.6l2.6,4.8c0.2,0.3,0.5,0.5,0.9,0.5h1.7
			c0.4,0,0.7-0.2,0.9-0.5l2.6-4.8l2.2,0.8c0.6,0.2,1.1,0.6,1.4,1.2c0.2,0.4,0.5,1,0.5,1.7c0,0,0,0.1,0,0.1c0,0,0.3,3.1,0.5,6.1
			c0,0.5,0.5,1,1,1c0,0,0,0,0,0c0.6,0,1-0.5,1-1C59.9,51,59.6,48.1,59.5,47.7z"/>
		<path d="M55,49c-0.6,0-1,0.5-0.9,1.1l0.2,3.9c0,0.5,0.5,0.9,1,0.9c0,0,0,0,0.1,0c0.6,0,1-0.5,0.9-1.1l-0.2-3.9
			C56.1,49.4,55.6,49,55,49z"/>
		<path d="M49.1,31.1c-2.9,0-5.3,2.4-5.3,5.3s2.4,5.3,5.3,5.3s5.3-2.4,5.3-5.3S52,31.1,49.1,31.1z M49.1,39.8
			c-1.8,0-3.3-1.5-3.3-3.3s1.5-3.3,3.3-3.3c1.8,0,3.3,1.5,3.3,3.3S50.9,39.8,49.1,39.8z"/>
		<path d="M5,49c-0.6,0-1,0.4-1.1,0.9l-0.2,3.9c0,0.6,0.4,1,0.9,1.1c0,0,0,0,0.1,0c0.5,0,1-0.4,1-0.9l0.2-3.9C5.9,49.5,5.5,49,5,49z
			"/>
		<path d="M10.9,31.1c-2.9,0-5.3,2.4-5.3,5.3s2.4,5.3,5.3,5.3s5.3-2.4,5.3-5.3S13.8,31.1,10.9,31.1z M10.9,39.8
			c-1.8,0-3.3-1.5-3.3-3.3s1.5-3.3,3.3-3.3c1.8,0,3.3,1.5,3.3,3.3S12.7,39.8,10.9,39.8z"/>
	</g>
</g>
</svg>
