<?xml version="1.0" encoding="UTF-8"?><svg id="Art" xmlns="http://www.w3.org/2000/svg" viewBox="0 0 60 60"><defs><style>.cls-1{fill:#231f20;}</style></defs><path class="cls-1" d="m54.75,7.41c-3.38-3.47-7.9-5.39-12.73-5.41-4.45.01-8.71,1.68-12.03,4.7C22.88.17,12.02.48,5.26,7.41,1.88,10.88.01,15.5,0,20.44h0c.01,4.94,1.88,9.56,5.26,13.03l23.31,23.93c.38.39.89.6,1.43.6.58,0,1.05-.21,1.43-.6l23.31-23.93c6.99-7.18,6.99-18.87,0-26.06Zm-1.43,24.66l-23.31,23.93L6.69,32.07c-3.01-3.09-4.68-7.22-4.69-11.63.01-4.41,1.68-8.54,4.69-11.63,5.99-6.15,15.63-6.43,21.94-.63.78.72,1.96.72,2.74,0,2.92-2.68,6.7-4.16,10.64-4.17,4.28.01,8.29,1.72,11.3,4.8,6.24,6.41,6.24,16.85,0,23.27Z"/><path class="cls-1" d="m9.37,9.03c-.44.35-.86.73-1.26,1.14-2.64,2.69-4.11,6.29-4.12,10.14,0,1.35.19,2.68.55,3.96.12.44.52.73.96.73.09,0,.18-.01.27-.04.53-.15.84-.7.69-1.23-.31-1.1-.47-2.25-.47-3.41,0-3.32,1.27-6.43,3.54-8.74.34-.35.71-.68,1.08-.98.43-.35.5-.98.15-1.41-.35-.43-.98-.5-1.41-.15Z"/><path class="cls-1" d="m17.99,6c-.72,0-1.44.06-2.14.17-.55.08-.92.6-.83,1.14.08.49.5.85.99.85.05,0,.1,0,.16-.01.6-.09,1.22-.14,1.83-.14.55,0,1-.45,1-1s-.45-1-1-1Z"/></svg>