<?xml version="1.0" encoding="UTF-8"?><svg id="Art" xmlns="http://www.w3.org/2000/svg" viewBox="0 0 60 60"><defs><style>.cls-1{fill:#231f20;}</style></defs><path class="cls-1" d="m30,9.16c2.53,0,4.58-2.05,4.58-4.58s-2.05-4.58-4.58-4.58-4.58,2.05-4.58,4.58,2.05,4.58,4.58,4.58Zm0-7.16c1.42,0,2.58,1.16,2.58,2.58s-1.16,2.58-2.58,2.58-2.58-1.16-2.58-2.58,1.16-2.58,2.58-2.58Z"/><path class="cls-1" d="m37.55,46.6l-.21-7.35c4.03-3.54,8.33-8.7,8.33-14.61,0-3.66-2.21-6.82-5.37-8.21v-.25c0-3.67-2.99-6.66-6.66-6.66-.37,0-.71.2-.88.53l-2.54,4.74h-.42l-2.54-4.74c-.17-.32-.51-.53-.88-.53-3.67,0-6.66,2.99-6.66,6.66v.25c-3.16,1.39-5.37,4.54-5.37,8.21,0,5.92,4.31,11.08,8.33,14.61l-.21,7.35c-3.8.51-12.56,2.14-12.56,6.46,0,4.55,10.11,6.94,20.1,6.94s20.1-2.38,20.1-6.94-8.79-5.96-12.56-6.46Zm-15.15,2.03l-.15,5.05c0,.24.08.46.23.65v.13s.13,0,.13,0c.18.15.4.25.64.25h4.19c.25,0,.48-.09.66-.25h0c.18-.16.3-.38.33-.63l1.17-9.59c.13.06.26.09.4.09s.27-.04.4-.09l1.17,9.59c.03.25.15.47.33.62h0s0,0,0,0c.18.16.41.25.66.25h4.19c.24,0,.46-.1.64-.25h.13v-.13c.14-.18.23-.41.23-.65l-.15-5.05c6.82.94,10.5,2.94,10.5,4.43,0,2.06-6.89,4.94-18.1,4.94s-18.1-2.87-18.1-4.94c0-1.49,3.67-3.5,10.5-4.43Zm3.39-37.08l2.52,4.7c.17.32.51.53.88.53h1.62c.37,0,.71-.2.88-.53l2.52-4.7c2.18.27,3.88,2.06,4.05,4.26-.51-.09-1.03-.15-1.56-.15-2.59,0-5.01,1.11-6.7,3.01-1.69-1.91-4.11-3.01-6.7-3.01-.53,0-1.06.06-1.56.15.17-2.21,1.87-3.99,4.05-4.26Zm-2.48,6.12c2.38,0,4.56,1.2,5.86,3.2.12.19.32.29.53.36l.31.49.31-.49c.21-.06.4-.17.53-.36,1.29-2.01,3.48-3.2,5.86-3.2,3.84,0,6.97,3.13,6.97,6.97,0,8.67-11.16,16-13.67,17.53-2.5-1.53-13.67-8.86-13.67-17.53,0-3.84,3.13-6.97,6.97-6.97Zm12.42,35.04h-2.28l-1.18-9.61c.85-.56,1.92-1.31,3.11-2.23l.35,11.84Zm-8-9.61l-1.18,9.61h-2.28l.35-11.84c1.18.92,2.26,1.67,3.11,2.23Z"/></svg>