<?xml version="1.0" encoding="UTF-8"?><svg id="Art" xmlns="http://www.w3.org/2000/svg" viewBox="0 0 60 60"><defs><style>.cls-1{fill:#231f20;}</style></defs><path class="cls-1" d="m59.88,27.42c-.09-.98-.75-1.85-1.69-2.23l-2.89-1.15c-.64-2.73-1.71-5.31-3.2-7.71l1.22-2.86c.41-.96.26-2.02-.39-2.78-1.24-1.45-2.43-2.64-3.62-3.62-.76-.65-1.83-.8-2.78-.4l-2.86,1.22c-2.39-1.48-4.98-2.56-7.71-3.2l-1.16-2.89c-.38-.94-1.25-1.6-2.23-1.68-1.76-.16-3.59-.16-5.15,0-.98.09-1.86.75-2.24,1.69l-1.15,2.89c-2.73.64-5.31,1.71-7.71,3.2l-2.86-1.22c-.96-.41-2.02-.26-2.79.39-1.45,1.24-2.64,2.43-3.62,3.62-.65.76-.8,1.83-.39,2.78l1.22,2.86c-1.48,2.39-2.56,4.98-3.2,7.71l-2.89,1.16c-.94.38-1.6,1.25-1.68,2.23-.16,1.76-.16,3.59,0,5.15.09.98.75,1.86,1.69,2.24l2.89,1.15c.64,2.73,1.71,5.31,3.2,7.71l-1.22,2.86c-.41.96-.26,2.02.39,2.78,1.24,1.45,2.43,2.64,3.62,3.62.76.65,1.83.8,2.78.39l2.86-1.22c2.39,1.48,4.98,2.56,7.71,3.2l1.16,2.89c.38.94,1.25,1.6,2.23,1.68.88.08,1.78.12,2.65.12s1.72-.04,2.5-.12c.98-.09,1.85-.75,2.23-1.69l1.15-2.89c2.73-.64,5.31-1.71,7.71-3.2l2.86,1.22c.96.41,2.02.26,2.78-.39,1.45-1.24,2.64-2.43,3.62-3.62.65-.76.8-1.83.4-2.78l-1.22-2.86c1.48-2.39,2.56-4.98,3.2-7.71l2.89-1.16c.94-.38,1.6-1.25,1.68-2.23.16-1.76.16-3.59,0-5.15Zm-1.99,4.98c-.02.23-.2.46-.44.55l-3.38,1.35c-.31.12-.54.39-.61.72-.61,2.85-1.73,5.55-3.32,8.02-.18.28-.21.63-.08.94l1.43,3.35c.11.25.08.52-.09.71-.92,1.11-2.02,2.22-3.39,3.39-.18.15-.44.18-.7.07l-3.35-1.43c-.31-.13-.66-.1-.94.08-2.47,1.6-5.16,2.72-8.02,3.32-.33.07-.6.3-.72.61l-1.35,3.37c-.1.24-.32.42-.57.44-1.45.14-3.15.14-4.78,0-.23-.02-.46-.2-.55-.44l-1.35-3.38c-.12-.31-.39-.54-.72-.61-2.85-.61-5.55-1.73-8.02-3.32-.16-.11-.35-.16-.54-.16-.13,0-.27.03-.39.08l-3.35,1.43c-.25.11-.51.08-.71-.09-1.11-.92-2.22-2.03-3.39-3.39-.15-.18-.18-.44-.07-.7l1.43-3.35c.13-.31.1-.66-.08-.94-1.6-2.47-2.72-5.16-3.32-8.02-.07-.33-.3-.6-.61-.72l-3.37-1.35c-.24-.1-.42-.32-.44-.57-.15-1.45-.15-3.15,0-4.78.02-.23.2-.46.44-.55l3.38-1.35c.31-.12.54-.39.61-.72.61-2.85,1.73-5.55,3.32-8.02.18-.28.21-.63.08-.94l-1.43-3.35c-.11-.25-.08-.52.09-.71.92-1.11,2.03-2.22,3.39-3.38.18-.15.45-.18.7-.07l3.35,1.43c.31.13.66.1.94-.08,2.47-1.6,5.16-2.72,8.02-3.32.33-.07.6-.3.72-.61l1.35-3.37c.1-.24.32-.42.57-.44,1.45-.15,3.14-.14,4.78,0,.23.02.46.2.55.44l1.35,3.38c.12.31.39.54.72.61,2.85.61,5.55,1.73,8.02,3.32.28.18.63.21.94.08l3.35-1.43c.25-.11.51-.08.71.09,1.11.92,2.22,2.03,3.38,3.39.15.18.18.45.07.7l-1.43,3.35c-.13.31-.1.66.08.94,1.6,2.47,2.72,5.16,3.32,8.02.07.33.3.6.61.72l3.37,1.35c.24.1.42.32.44.56,0,0,0,0,0,.01.14,1.45.14,3.14,0,4.78Z"/><path class="cls-1" d="m49.33,19.51c-3.73-6.85-11-11.51-19.33-11.51s-15.6,4.66-19.33,11.51c-.03.05-.06.1-.08.15-1.65,3.08-2.59,6.6-2.59,10.34,0,12.13,9.87,22,22,22s22-9.87,22-22c0-3.74-.94-7.25-2.59-10.34-.02-.06-.05-.1-.08-.15Zm-19.33-9.51c6.97,0,13.1,3.58,16.69,9h-6.69c-.12,0-.24-.03-.33-.07l-6.74-3.39c-.67-.35-1.44-.53-2.23-.53-.83,0-1.64.24-2.37.64-1.41-.79-3.19-.85-4.66-.1l-6.33,3.39c-.1.05-.21.07-.33.07h-3.69c3.58-5.42,9.72-9,16.69-9Zm-17.84,11h4.84c.43,0,.85-.1,1.25-.3l6.34-3.39c.61-.31,1.33-.38,2-.23l-4.79,5.05c-.6.67-.89,1.57-.8,2.48.09.91.55,1.75,1.27,2.28,1.29.97,3.1.83,4.2-.28l4.38-4.06c1.07.79,10.19,7.56,13.1,10.12.25.22.31.51.32.72.01.35-.12.69-.37.93-.46.46-1.24.46-1.69,0-.39-.39-1.02-.4-1.41,0-.2.2-.3.45-.3.71s.1.51.29.7c.47.48.47,1.23,0,1.71-.47.46-1.24.47-1.7,0-.39-.39-1.03-.38-1.42,0-.19.2-.29.45-.29.7s.1.52.3.71c.22.22.35.52.35.84s-.12.62-.35.84c-.46.46-1.24.46-1.7,0-.39-.39-1.02-.39-1.41,0-.2.19-.29.45-.29.71s.1.51.29.71c.47.47.47,1.23,0,1.69-.47.46-1.23.47-1.73-.02-.03-.03-.62-.57-1.63-1.44.21-.5.3-1.04.23-1.59-.1-.85-.52-1.6-1.19-2.13-.5-.4-1.09-.63-1.71-.68.07-1.02-.34-2.06-1.2-2.74-.51-.4-1.1-.61-1.69-.67.01-.2.01-.4-.01-.6-.1-.85-.52-1.61-1.19-2.14-.67-.53-1.5-.77-2.35-.67-.21.02-.4.07-.6.13-.19-.57-.54-1.1-1.04-1.5-1.38-1.09-3.4-.86-4.5.53l-1.07,1.36c-1.21-.56-2.99-1.1-4.89-1.34,0-.05,0-.09,0-.14,0-3.24.79-6.29,2.16-9Zm7.9,17.54c-.32.03-.63-.05-.88-.25-.25-.2-.41-.49-.45-.8-.04-.32.05-.63.25-.88l2.55-3.22c.2-.25.48-.41.8-.44.05,0,.09,0,.14,0,.27,0,.53.09.74.26.25.2.41.48.45.8.04.32-.05.63-.25.88h0s-.54.68-.54.68c0,0,0,0,0,0l-2.01,2.53c-.19.25-.48.4-.79.44Zm-4.33-2.97c-.52-.41-.61-1.17-.2-1.69l1.99-2.52c.24-.3.59-.46.95-.46.26,0,.52.08.74.25.52.41.6,1.17.2,1.68l-2,2.53c-.41.52-1.17.6-1.68.2Zm6.69,3.77l2.01-2.54c.24-.29.59-.44.94-.44.26,0,.52.08.73.25.25.2.41.49.45.8.04.32-.05.63-.25.88,0,0,0,0,0,0l-1.99,2.52h0c-.41.52-1.17.61-1.69.21-.52-.41-.6-1.17-.2-1.68Zm3.45,2.73l1.46-1.84c.2-.25.49-.41.8-.45.05,0,.09,0,.14,0,.27,0,.52.09.73.26.25.2.41.49.45.8.04.32-.05.63-.25.87h0s-1.45,1.84-1.45,1.84c-.41.52-1.17.61-1.69.2-.52-.41-.61-1.17-.2-1.68Zm4.12,7.94c-10.29,0-18.79-7.82-19.88-17.83,1.43.21,2.68.59,3.54.95-.71,1.34-.4,3.04.83,4.02.58.46,1.28.68,1.97.68.1,0,.2-.02.29-.03.11.79.51,1.54,1.18,2.08.57.45,1.26.68,1.97.68.1,0,.2,0,.3-.02.11.78.51,1.53,1.17,2.06.59.46,1.28.68,1.98.68.1,0,.2-.02.3-.03.11.79.5,1.54,1.17,2.08.58.46,1.28.69,1.98.69.95,0,1.88-.42,2.52-1.21l.74-.94c.87.75,1.39,1.23,1.39,1.23.62.61,1.44.92,2.26.92s1.64-.31,2.26-.93c.6-.6.91-1.38.93-2.17.82-.02,1.59-.35,2.17-.93.59-.58.92-1.35.94-2.18.79-.02,1.57-.33,2.18-.93.6-.61.92-1.39.94-2.17.82-.02,1.59-.36,2.17-.95.63-.64.97-1.51.94-2.4,0-.27-.06-.53-.14-.78.82-.18,2.07-.38,3.77-.49-1.04,10.06-9.56,17.94-19.89,17.94Zm20-19.94c-2.62.14-4.33.52-5.16.75-3.51-2.98-12.51-9.64-12.92-9.95-.73-.52-1.73-.44-2.36.16l-4.48,4.16c-.43.43-1.12.48-1.61.11-.27-.2-.45-.52-.48-.88-.04-.35.07-.7.28-.93l5.29-5.56c.89-.93,2.39-1.17,3.47-.61l6.75,3.4c.37.19.8.29,1.23.29h7.84c1.37,2.71,2.16,5.76,2.16,9,0,.02,0,.04,0,.06Z"/></svg>