<?xml version="1.0" encoding="UTF-8"?><svg id="Art" xmlns="http://www.w3.org/2000/svg" viewBox="0 0 60 60"><defs><style>.cls-1{fill:#231f20;}</style></defs><path class="cls-1" d="m60,13c0-7.17-5.83-13-13-13s-13,5.83-13,13c0,6.13,4.28,11.28,10,12.64v5.36H5c-2.76,0-5,2.24-5,5v9c0,1.1.9,2,2,2h3v7h-2c-1.65,0-3,1.35-3,3s1.35,3,3,3h10c1.65,0,3-1.35,3-3s-1.35-3-3-3h-2v-7h33v7h-2c-1.65,0-3,1.35-3,3s1.35,3,3,3h10c1.65,0,3-1.35,3-3s-1.35-3-3-3h-2v-7h4c1.1,0,2-.9,2-2v-9c0-2.76-2.24-5-5-5h-1v-5.36c5.72-1.36,10-6.5,10-12.64Zm-24,0c0-6.07,4.93-11,11-11s11,4.93,11,11-4.93,11-11,11-11-4.93-11-11ZM2,36c0-1.65,1.35-3,3-3h39v8H2v-5Zm12,21c0,.55-.45,1-1,1H3c-.55,0-1-.45-1-1s.45-1,1-1h10c.55,0,1,.45,1,1Zm-5-3h-2v-7h2v7Zm-7-9v-2h42v2H2Zm51,12c0,.55-.45,1-1,1h-10c-.55,0-1-.45-1-1s.45-1,1-1h10c.55,0,1,.45,1,1Zm1-12h-4v-2h4v2Zm-3-12c1.65,0,3,1.35,3,3v5h-4v-8h1Zm-3,21h-2v-28.05c.33.03.66.05,1,.05s.67-.03,1-.05v28.05Z"/><path class="cls-1" d="m51,13c0-2.21-1.79-4-4-4s-4,1.79-4,4,1.79,4,4,4,4-1.79,4-4Zm-6,0c0-1.1.9-2,2-2s2,.9,2,2-.9,2-2,2-2-.9-2-2Z"/></svg>