<?xml version="1.0" encoding="UTF-8"?><svg id="Layer_2" xmlns="http://www.w3.org/2000/svg" viewBox="0 0 60.14 59.73"><defs><style>.cls-1{fill:none;stroke:#000;stroke-linecap:round;stroke-linejoin:round;stroke-width:2px;}</style></defs><g id="Labels"><g><polyline class="cls-1" points="25.94 35.73 25.27 58.73 28.29 58.73 30.12 43.8"/><polyline class="cls-1" points="25.94 35.73 25.27 58.73 28.29 58.73 30.12 43.8"/><polyline class="cls-1" points="34.35 35.73 35.02 58.73 31.99 58.73 30.16 43.8"/><path class="cls-1" d="m34.55,42.49h2.3s0-10.85,0-10.85c0-2.26-1.83-4.09-4.09-4.09h0l-2.04,3.8h-1.17s-2.04-3.8-2.04-3.8h0c-2.26,0-4.09,1.83-4.09,4.09v10.85h2.3"/><circle class="cls-1" cx="30.14" cy="23.27" r="2.58"/><rect class="cls-1" x="27.34" y="1" width="5.1" height="5.1" rx="2.55" ry="2.55" transform="translate(-.03 .29) rotate(-.55)"/><line class="cls-1" x1="30" y1="14.25" x2="29.93" y2="8.88"/><line class="cls-1" x1="45.89" y1="29.86" x2="51.27" y2="29.78"/><rect class="cls-1" x="54.04" y="27.2" width="5.1" height="5.1" rx="2.55" ry="2.55" transform="translate(85.8 -27.13) rotate(89.45)"/><path class="cls-1" d="m20.9,39.35c-2.39-2.37-3.88-5.65-3.9-9.28-.02-3.63,1.43-6.93,3.8-9.32,2.37-2.39,5.65-3.88,9.28-3.9,3.63-.02,6.93,1.43,9.32,3.8s3.88,5.65,3.9,9.28c.02,3.63-1.43,6.93-3.8,9.32"/><rect class="cls-1" x="40.59" y="4.45" width="5.1" height="5.1" rx="2.55" ry="2.55" transform="translate(9.02 -20.31) rotate(29.45)"/><line class="cls-1" x1="37.88" y1="16.32" x2="40.51" y2="11.63"/><rect class="cls-1" x="50.34" y="14.07" width="5.1" height="5.1" rx="2.55" ry="2.55" transform="translate(40.32 -37.38) rotate(59.45)"/><line class="cls-1" x1="43.68" y1="22.06" x2="48.29" y2="19.31"/><line class="cls-1" x1="43.85" y1="37.79" x2="48.53" y2="40.41"/><rect class="cls-1" x="50.62" y="40.49" width="5.1" height="5.1" rx="2.55" ry="2.55" transform="translate(116.79 17.91) rotate(119.45)"/><line class="cls-1" x1="14.25" y1="29.86" x2="8.88" y2="29.78"/><rect class="cls-1" x="1" y="27.2" width="5.1" height="5.1" rx="2.55" ry="2.55" transform="translate(33.33 26.48) rotate(90.55)"/><rect class="cls-1" x="14.45" y="4.45" width="5.1" height="5.1" rx="2.55" ry="2.55" transform="translate(35.25 4.74) rotate(150.55)"/><line class="cls-1" x1="22.26" y1="16.32" x2="19.63" y2="11.63"/><rect class="cls-1" x="4.71" y="14.07" width="5.1" height="5.1" rx="2.55" ry="2.55" transform="translate(25.25 18.81) rotate(120.55)"/><line class="cls-1" x1="16.46" y1="22.06" x2="11.85" y2="19.31"/><line class="cls-1" x1="16.29" y1="37.79" x2="11.61" y2="40.41"/><rect class="cls-1" x="4.43" y="40.49" width="5.1" height="5.1" rx="2.55" ry="2.55" transform="translate(41.03 15.8) rotate(60.55)"/></g></g></svg>