<?xml version="1.0" encoding="UTF-8"?><svg id="Art" xmlns="http://www.w3.org/2000/svg" viewBox="0 0 60 60"><defs><style>.cls-1{fill:#231f20;}</style></defs><path class="cls-1" d="m45.41,40.32l-1.49-3.64c-.18-.45-.66-.7-1.13-.6l-2.42.5c-.68-.89-1.47-1.69-2.36-2.39l.53-2.41c.1-.47-.15-.95-.59-1.14l-3.63-1.52c-.45-.19-.96-.03-1.22.38l-1.35,2.06c-1.12-.15-2.24-.15-3.36,0l-1.34-2.08c-.26-.41-.77-.57-1.22-.38l-3.64,1.49c-.45.18-.7.66-.6,1.13l.5,2.42c-.89.68-1.69,1.47-2.38,2.36l-2.41-.52c-.47-.1-.95.15-1.13.59l-1.52,3.63c-.19.44-.03.96.38,1.22l2.06,1.35c-.15,1.11-.15,2.24-.01,3.36l-2.08,1.34c-.41.26-.57.77-.38,1.22l1.49,3.65c.18.45.66.7,1.13.6l2.42-.5c.69.9,1.48,1.7,2.37,2.39l-.53,2.41c-.1.47.15.95.59,1.14l3.63,1.52c.44.19.96.03,1.22-.38l1.35-2.07c1.12.15,2.25.15,3.36.01l1.34,2.08c.19.29.51.46.84.46.13,0,.26-.02.38-.08l3.64-1.5c.45-.18.7-.66.6-1.13l-.5-2.42c.9-.68,1.71-1.48,2.39-2.36l2.41.52c.47.1.95-.15,1.14-.59l1.52-3.63c.19-.44.03-.96-.38-1.22l-2.07-1.35c.15-1.13.15-2.25,0-3.36l2.08-1.34c.41-.26.57-.77.38-1.22Zm-9.16,13.29c-.34.23-.5.63-.42,1.03l.47,2.24-2.1.87-1.24-1.93c-.19-.29-.5-.46-.84-.46-.06,0-.12,0-.18.02-1.31.23-2.64.23-3.97-.02-.4-.07-.8.1-1.02.44l-1.25,1.91-2.09-.88.49-2.23c.09-.4-.08-.81-.41-1.04-1.09-.75-2.03-1.7-2.79-2.82-.23-.33-.63-.5-1.03-.41l-2.24.47-.86-2.11,1.93-1.24c.34-.22.51-.62.44-1.02-.24-1.33-.23-2.66.01-3.97.08-.4-.1-.8-.44-1.02l-1.91-1.25.88-2.09,2.23.49c.4.09.8-.07,1.03-.4.77-1.1,1.72-2.05,2.82-2.8.33-.23.5-.63.41-1.03l-.47-2.24,2.1-.86,1.24,1.93c.22.34.63.52,1.02.44,1.32-.24,2.66-.24,3.97,0,.4.08.8-.1,1.02-.44l1.25-1.91,2.09.88-.49,2.23c-.08.39.07.8.4,1.03,1.11.78,2.05,1.73,2.79,2.82.23.34.63.5,1.03.42l2.24-.47.86,2.1-1.93,1.24c-.34.22-.52.62-.44,1.02.24,1.3.24,2.64,0,3.97-.07.4.1.8.44,1.02l1.91,1.25-.88,2.09-2.23-.49c-.4-.09-.8.08-1.04.41-.76,1.09-1.71,2.03-2.82,2.79Z"/><path class="cls-1" d="m33.24,36.78c-2.07-.86-4.34-.87-6.41-.02-2.07.85-3.69,2.45-4.55,4.52-.87,2.06-.87,4.34-.03,6.41s2.45,3.69,4.52,4.55c1.04.44,2.14.65,3.24.65s2.15-.21,3.18-.63c2.07-.85,3.69-2.45,4.55-4.52s.87-4.34.02-6.41c-.85-2.07-2.45-3.69-4.52-4.55Zm-3.24,1.35c.83,0,1.67.17,2.46.5,1.57.66,2.79,1.89,3.44,3.46s.64,3.31-.02,4.88h0c-.66,1.57-1.89,2.79-3.46,3.44-1.58.65-3.31.64-4.88-.02-1.57-.66-2.79-1.89-3.44-3.46s-.64-3.31.02-4.88c.66-1.57,1.89-2.79,3.46-3.44.78-.32,1.6-.48,2.42-.48Z"/><path class="cls-1" d="m24.6,9.99c0,.35.18.68.49.86.16.09.34.14.51.14.16,0,.32-.04.47-.12l8.45-4.51c.33-.17.53-.51.53-.88s-.21-.71-.53-.88L26.06.12c-.31-.17-.68-.16-.98.03-.3.18-.48.51-.48.86v3.74C15.57,6.7,8.3,13.27,5.52,22.09c-.17.53.13,1.09.65,1.25.1.03.2.05.3.05.42,0,.82-.27.95-.7,2.52-8,9.04-13.99,17.17-15.9v3.2Zm2-1.67V2.66s5.32,2.83,5.32,2.83l-5.32,2.84Z"/><path class="cls-1" d="m59.68,24.9c-.18-.3-.51-.48-.86-.48h-3.74c-1.95-9.02-8.52-16.29-17.35-19.08-.52-.17-1.09.13-1.25.65s.13,1.09.65,1.25c8,2.52,13.99,9.04,15.9,17.18h-3.2c-.35,0-.68.19-.86.49-.18.3-.19.67-.03.98l4.51,8.45c.17.33.51.53.88.53h0c.37,0,.71-.21.88-.53l4.49-8.46c.16-.31.15-.68-.03-.98Zm-2.52,1.52l-2.83,5.33-2.84-5.32h5.66Z"/><path class="cls-1" d="m53.83,36.31c-.52-.17-1.09.13-1.25.65-1.07,3.4-2.85,6.44-5.29,9.03-.38.4-.36,1.04.04,1.41.19.18.44.27.68.27.27,0,.53-.11.73-.32,2.64-2.82,4.57-6.11,5.73-9.8.17-.53-.13-1.09-.65-1.25Z"/><path class="cls-1" d="m6.96,35.23h3.2c.35,0,.68-.19.86-.49.18-.3.19-.67.03-.98l-4.51-8.45c-.17-.33-.51-.53-.88-.53h0c-.37,0-.71.21-.88.53L.29,33.77c-.16.31-.15.68.03.98.18.3.51.48.86.48h3.74c.99,4.56,3.18,8.76,6.39,12.19.2.21.46.32.73.32.25,0,.49-.09.68-.27.4-.38.42-1.01.04-1.41-2.87-3.06-4.85-6.78-5.81-10.83Zm-4.13-2l2.83-5.33,2.84,5.32H2.84Z"/></svg>