<?xml version="1.0" encoding="UTF-8"?><svg id="Art" xmlns="http://www.w3.org/2000/svg" viewBox="0 0 60 60"><defs><style>.cls-1{fill:#231f20;}</style></defs><path class="cls-1" d="m58.65,23.76c.17-.35.33-.66.44-.93.6-1.45.91-3.07.91-4.82V5.64c0-1.86-1.39-3.46-3.16-3.63-.86-.08-1.72.15-2.41.65-.57-.91-1.51-1.55-2.59-1.65-.86-.08-1.72.16-2.41.66-.57-.91-1.51-1.55-2.59-1.66-.99-.09-1.97.23-2.7.89-.05.05-.1.09-.15.14-.05-.05-.1-.09-.15-.14-.73-.66-1.71-.99-2.7-.89-1.56.15-2.82,1.41-3.1,2.99h-8.06c-2.91,0-4.91-1-6.23-1.65-.35-.17-.66-.33-.93-.44C21.38.31,19.76,0,18.01,0H5.64C3.78,0,2.19,1.39,2.02,3.16c-.08.86.15,1.72.66,2.41-.91.57-1.55,1.51-1.66,2.59-.08.86.15,1.72.66,2.41C.76,11.13.12,12.07.02,13.16c-.09.99.23,1.97.89,2.7.05.05.09.1.14.15-.05.05-.1.1-.14.15-.66.73-.99,1.71-.89,2.7.15,1.56,1.41,2.82,2.99,3.1v8.06c0,2.91-.99,4.91-1.65,6.24-.17.35-.33.66-.44.93C.31,38.62,0,40.24,0,41.99v12.37c0,1.86,1.39,3.46,3.16,3.63.86.08,1.72-.15,2.41-.65.57.91,1.51,1.55,2.59,1.65.86.09,1.72-.15,2.41-.66.57.91,1.51,1.55,2.59,1.66.11.01.22.02.33.02.87,0,1.72-.32,2.36-.91.05-.05.1-.09.15-.14.05.05.1.09.15.14.73.66,1.71.99,2.7.89,1.56-.15,2.82-1.41,3.1-2.99h8.06c2.91,0,4.91,1,6.23,1.65.35.17.66.33.93.44,1.45.6,3.07.91,4.82.91h12.37c1.86,0,3.46-1.39,3.63-3.16.08-.86-.15-1.72-.66-2.41.91-.57,1.55-1.51,1.66-2.59.08-.86-.15-1.72-.66-2.41.91-.57,1.55-1.51,1.66-2.59.09-.99-.23-1.97-.89-2.7-.05-.05-.09-.1-.14-.15.05-.05.1-.1.14-.15.66-.73.99-1.71.89-2.7-.15-1.56-1.41-2.82-2.99-3.1v-8.06c0-2.91.99-4.91,1.65-6.24ZM40,3.64c0-.84.59-1.56,1.35-1.64.43-.04.85.09,1.16.38.32.29.49.68.49,1.11,0,.55.45,1,1,1s1-.45,1-1c0-.43.17-.83.49-1.11.32-.29.73-.42,1.16-.38.75.07,1.35.79,1.35,1.64v.86c0,.55.45,1,1,1s1-.45,1-1c0-.43.17-.83.49-1.11.32-.29.73-.42,1.16-.38.75.07,1.35.79,1.35,1.64v.86c0,.55.45,1,1,1s1-.45,1-1c0-.43.17-.83.49-1.11.32-.29.73-.42,1.16-.38.75.07,1.35.79,1.35,1.64v12.37c0,1.48-.25,2.85-.75,4.05-.1.23-.23.5-.38.81-.7,1.4-1.86,3.74-1.86,7.13v8h-11c-.55,0-1-.45-1-1v-3c0-.29-.01-.57-.03-.85-.36-4.74-3.69-7.46-5.29-8.76-.25-.2-.46-.38-.62-.52-1.7-1.6-2.33-3.52-2.63-4.87h2.57c1.65,0,3-1.35,3-3V3.64Zm-12.42,37.21c-.31-1.55-1.04-4.09-3.28-6.18-.18-.17-.43-.37-.72-.61-1.37-1.12-3.83-3.13-4.44-6.48,1.55-.31,4.09-1.04,6.18-3.27.17-.18.37-.43.61-.72,1.12-1.37,3.13-3.83,6.48-4.44.31,1.55,1.04,4.09,3.28,6.18.18.17.43.37.72.61,1.37,1.12,3.83,3.13,4.44,6.48-1.55.31-4.09,1.04-6.18,3.27-.17.18-.37.43-.61.72-1.12,1.37-3.13,3.83-6.48,4.44ZM2.01,18.65c-.04-.43.09-.84.38-1.16.29-.32.68-.49,1.11-.49.55,0,1-.45,1-1s-.45-1-1-1c-.43,0-.83-.17-1.11-.49-.29-.32-.42-.73-.38-1.16.07-.75.79-1.35,1.64-1.35h.86c.55,0,1-.45,1-1s-.45-1-1-1c-.43,0-.83-.17-1.11-.49-.29-.32-.42-.73-.38-1.16.07-.75.79-1.35,1.64-1.35h.86c.55,0,1-.45,1-1s-.45-1-1-1c-.43,0-.83-.17-1.11-.49-.29-.32-.42-.73-.38-1.16.07-.75.79-1.35,1.64-1.35h12.37c1.48,0,2.85.25,4.05.75.23.1.5.23.81.38,1.4.7,3.74,1.86,7.13,1.86h8v11c0,.55-.45,1-1,1h-3c-.29,0-.57.01-.85.03-4.74.36-7.46,3.69-8.76,5.29-.2.25-.38.46-.52.62-1.59,1.7-3.52,2.33-4.87,2.63v-2.57c0-1.65-1.35-3-3-3H3.64c-.84,0-1.56-.59-1.64-1.35Zm17.99,37.7c0,.84-.59,1.56-1.35,1.64-.44.04-.85-.09-1.16-.38-.32-.29-.49-.68-.49-1.11,0-.55-.45-1-1-1s-1,.45-1,1c0,.43-.17.83-.49,1.11-.32.29-.73.42-1.16.38-.75-.07-1.35-.79-1.35-1.64v-.86c0-.55-.45-1-1-1s-1,.45-1,1c0,.43-.17.83-.49,1.11-.32.29-.73.42-1.16.38-.75-.07-1.35-.79-1.35-1.64v-.86c0-.55-.45-1-1-1s-1,.45-1,1c0,.43-.17.83-.49,1.11-.32.29-.72.43-1.16.38-.75-.07-1.35-.79-1.35-1.64v-12.37c0-1.48.25-2.85.75-4.05.1-.23.23-.5.38-.81.7-1.4,1.86-3.74,1.86-7.13v-8h11c.55,0,1,.45,1,1v3c0,.29.01.57.03.85.36,4.74,3.69,7.46,5.29,8.76.25.2.46.38.62.52,1.7,1.6,2.33,3.52,2.63,4.87h-2.57c-1.65,0-3,1.35-3,3v12.36Zm37.99-15.01c.04.43-.09.84-.38,1.16-.29.32-.68.49-1.11.49-.55,0-1,.45-1,1s.45,1,1,1c.43,0,.83.17,1.11.49.29.32.42.73.38,1.16-.07.75-.79,1.35-1.64,1.35h-.86c-.55,0-1,.45-1,1s.45,1,1,1c.43,0,.83.17,1.11.49.29.32.42.73.38,1.16-.07.75-.79,1.35-1.64,1.35h-.86c-.55,0-1,.45-1,1s.45,1,1,1c.43,0,.83.17,1.11.49.29.32.42.73.38,1.16-.07.75-.79,1.35-1.64,1.35h-12.37c-1.48,0-2.85-.25-4.05-.75-.23-.1-.5-.23-.81-.38-1.4-.7-3.74-1.86-7.13-1.86h-8v-11c0-.55.45-1,1-1h3c.29,0,.57-.01.85-.03,4.74-.36,7.46-3.69,8.76-5.29.2-.25.38-.46.52-.62,1.59-1.7,3.52-2.33,4.87-2.63v2.57c0,1.65,1.35,3,3,3h12.36c.84,0,1.56.59,1.64,1.35Z"/></svg>