<svg width="60" height="60" viewBox="0 0 60 60" fill="none" xmlns="http://www.w3.org/2000/svg">
<g clip-path="url(#clip0_1_704)">
<path d="M26.0706 44.781C25.7659 44.781 25.473 44.6638 25.2386 44.4412L12.501 31.6918C12.044 31.2348 12.044 30.4965 12.501 30.0395L19.1334 23.4071C19.5905 22.95 20.3287 22.95 20.7857 23.4071L26.0706 28.6919L39.2067 15.5559C39.4293 15.3449 39.7223 15.216 40.0387 15.216C40.3551 15.216 40.648 15.3449 40.8707 15.5559L47.5032 22.1884C47.7258 22.411 47.843 22.704 47.843 23.0203C47.843 23.3367 47.7141 23.6297 47.5032 23.8523L26.9143 44.4412C26.68 44.6638 26.3753 44.781 26.0706 44.781ZM14.9852 30.8715L26.0706 41.9569L45.0072 23.0203L40.0387 18.0401L26.9026 31.1762C26.4456 31.6332 25.7073 31.6332 25.2503 31.1762L19.9654 25.8913L14.9852 30.8715Z" fill="black"/>
<path d="M29.9966 60.0024C29.2349 60.0024 28.4615 59.979 27.6998 59.9087C20.5752 59.3579 13.8607 56.2761 8.7984 51.2138C5.93917 48.3546 3.71271 45.0149 2.21279 41.2885C0.759731 37.691 0.0214844 33.8943 0.0214844 30.0039C0.0214844 26.1135 0.759731 22.3051 2.21279 18.7193C3.72443 14.9929 5.93917 11.6532 8.7984 8.79401C11.6576 5.93477 14.9973 3.70831 18.7237 2.20839C22.3212 0.755333 26.1179 0.0170898 30.0083 0.0170898C33.8987 0.0170898 37.7071 0.755333 41.2929 2.20839C45.0193 3.72003 48.359 5.93477 51.2182 8.79401C56.2805 13.8563 59.3741 20.5708 59.9131 27.6954C60.4521 34.7498 58.4952 41.7807 54.3821 47.4874C54.0071 48.0147 53.2689 48.1319 52.7416 47.7569C52.2143 47.382 52.0971 46.6437 52.472 46.1164C56.257 40.8549 58.0616 34.3748 57.5695 27.8712C57.0656 21.2973 54.2181 15.1101 49.5542 10.4463C44.3279 5.21996 37.3908 2.34901 29.9966 2.34901C22.6141 2.34901 15.6653 5.21996 10.4389 10.4463C5.21264 15.6726 2.34169 22.6097 2.34169 30.0039C2.34169 37.3864 5.21264 44.3352 10.4389 49.5615C15.1028 54.2254 21.29 57.0729 27.8639 57.5768C34.3792 58.0689 40.8476 56.2643 46.1208 52.4794C46.6481 52.1044 47.3746 52.2216 47.7613 52.7489C48.1363 53.2762 48.0191 54.0027 47.4918 54.3894C42.3944 58.0338 36.2541 60.0024 29.9966 60.0024Z" fill="black"/>
<path d="M50.3828 51.554C50.3476 51.554 50.3007 51.554 50.2656 51.5422C50.2304 51.5422 50.1953 51.5305 50.1484 51.5305C50.0781 51.5188 49.9961 51.4954 49.9257 51.4602C49.8672 51.4368 49.7968 51.4016 49.7265 51.3547C49.6914 51.3313 49.6679 51.3079 49.6328 51.2844C49.5976 51.261 49.5742 51.2376 49.5508 51.2024C49.5273 51.179 49.4922 51.1438 49.4687 51.1204C49.4453 51.0852 49.4219 51.0618 49.3984 51.0266C49.3633 50.968 49.3281 50.8977 49.3047 50.8274C49.2695 50.7571 49.2461 50.6868 49.2344 50.6165C49.2227 50.5813 49.2227 50.5462 49.2227 50.4993C49.2227 50.4642 49.2109 50.4173 49.2109 50.3821C49.2109 50.347 49.2109 50.3001 49.2227 50.265C49.2227 50.2298 49.2344 50.1946 49.2344 50.1478C49.2461 50.0775 49.2695 49.9954 49.3047 49.9251C49.3281 49.8665 49.3633 49.7962 49.4101 49.7259C49.4336 49.6908 49.457 49.6673 49.4805 49.6322C49.5039 49.597 49.5273 49.5736 49.5625 49.5501C49.5859 49.5267 49.6211 49.4916 49.6445 49.4681C49.6797 49.4447 49.7031 49.4212 49.7383 49.3978C49.7968 49.3627 49.8672 49.3275 49.9375 49.3041C50.0078 49.2689 50.0781 49.2455 50.1484 49.2338C50.1835 49.222 50.2187 49.222 50.2656 49.222C50.3476 49.2103 50.4179 49.2103 50.4999 49.222C50.5351 49.222 50.5702 49.2338 50.6171 49.2338C50.6874 49.2455 50.7695 49.2689 50.8398 49.3041C50.8984 49.3275 50.9687 49.3627 51.039 49.4095C51.0741 49.433 51.0976 49.4564 51.1327 49.4798C51.1679 49.5033 51.1913 49.5267 51.2147 49.5619C51.2382 49.5853 51.2733 49.6205 51.2968 49.6439C51.3202 49.679 51.3436 49.7025 51.3671 49.7376C51.4022 49.7962 51.4374 49.8665 51.4608 49.9368C51.496 50.0072 51.5194 50.0775 51.5311 50.1478C51.5429 50.1829 51.5429 50.2181 51.5429 50.265C51.5546 50.3001 51.5546 50.347 51.5546 50.3821C51.5546 50.4173 51.5546 50.4642 51.5429 50.4993C51.5429 50.5345 51.5311 50.5696 51.5311 50.6165C51.5194 50.6868 51.496 50.7571 51.4608 50.8274C51.4374 50.8977 51.4022 50.968 51.3554 51.0384C51.3319 51.0618 51.3085 51.0969 51.2851 51.1204C51.2616 51.1555 51.2382 51.179 51.2147 51.2141C51.1796 51.2376 51.1562 51.261 51.121 51.2844C51.0976 51.3079 51.0624 51.3313 51.039 51.3547C50.9687 51.4016 50.8984 51.4368 50.828 51.4602C50.7577 51.4954 50.6874 51.5188 50.6171 51.5305C50.5702 51.5422 50.5351 51.5422 50.4999 51.5422C50.4648 51.554 50.4179 51.554 50.3828 51.554Z" fill="black"/>
</g>
<defs>
<clipPath id="clip0_1_704">
<rect width="60" height="60" fill="white"/>
</clipPath>
</defs>
</svg>
