<?xml version="1.0" encoding="UTF-8"?><svg id="Art" xmlns="http://www.w3.org/2000/svg" viewBox="0 0 60 60"><path d="m25.2,30.64v-6.44c0-.55-.45-1-1-1s-1,.45-1,1v6.44c0,.55.45,1,1,1s1-.45,1-1Z"/><path d="m8.73,23.2c-.55,0-1,.45-1,1v6.44c0,.55.45,1,1,1s1-.45,1-1v-6.44c0-.55-.45-1-1-1Z"/><path d="m30.36,30.64v-5.07c0-5.95-4.46-10.1-10.84-10.1h-6.1c-6.38,0-10.84,4.15-10.84,10.1v5.08c0,.55.45,1,1,1s1-.45,1-1v-5.08c0-5.59,4.44-8.1,8.84-8.1h6.1c4.4,0,8.84,2.51,8.84,8.1v5.07c0,.55.45,1,1,1s1-.45,1-1Z"/><path d="m15.71,13.6h1.5c2.98,0,5.4-2.42,5.4-5.4v-2.79c0-2.98-2.42-5.4-5.4-5.4h-1.5c-2.98,0-5.4,2.42-5.4,5.4v2.79c0,2.98,2.42,5.4,5.4,5.4Zm-3.4-8.2c0-1.88,1.53-3.4,3.4-3.4h1.5c1.88,0,3.4,1.53,3.4,3.4v2.79c0,1.88-1.53,3.4-3.4,3.4h-1.5c-1.88,0-3.4-1.53-3.4-3.4v-2.79Z"/><path d="m51.27,51.56c-.55,0-1,.45-1,1v6.44c0,.55.45,1,1,1s1-.45,1-1v-6.44c0-.55-.45-1-1-1Z"/><path d="m35.8,51.56c-.55,0-1,.45-1,1v6.44c0,.55.45,1,1,1s1-.45,1-1v-6.44c0-.55-.45-1-1-1Z"/><path d="m46.58,43.82h-6.1c-6.38,0-10.84,4.15-10.84,10.1v5.08c0,.55.45,1,1,1s1-.45,1-1v-5.08c0-5.59,4.44-8.1,8.84-8.1h6.1c4.4,0,8.84,2.51,8.84,8.1v5.07c0,.55.45,1,1,1s1-.45,1-1v-5.07c0-5.95-4.46-10.1-10.84-10.1Z"/><path d="m42.78,28.36c-2.98,0-5.4,2.42-5.4,5.4v2.79c0,2.98,2.42,5.4,5.4,5.4h1.5c2.98,0,5.4-2.42,5.4-5.4v-2.79c0-2.98-2.42-5.4-5.4-5.4h-1.5Zm4.91,5.4v2.79c0,1.88-1.53,3.4-3.4,3.4h-1.5c-1.88,0-3.4-1.53-3.4-3.4v-2.79c0-1.88,1.53-3.4,3.4-3.4h1.5c1.88,0,3.4,1.53,3.4,3.4Z"/><path d="m33.25,11.02c4.07,0,7.43,3.07,7.92,7.02h-2.8c-.37,0-.71.2-.88.53s-.16.72.05,1.03l3.87,5.8c.19.28.5.45.83.45s.65-.17.83-.45l3.87-5.8c.2-.31.22-.7.05-1.03s-.51-.53-.88-.53h-2.92c-.5-5.06-4.77-9.02-9.94-9.02-.55,0-1,.45-1,1s.45,1,1,1Zm8.99,12.02l-2-3h4l-2,3Z"/><path d="m26.78,52.2c-4.07,0-7.43-3.07-7.92-7.02h2.8c.37,0,.71-.2.88-.53s.15-.72-.05-1.03l-3.87-5.8c-.37-.56-1.29-.56-1.66,0l-3.87,5.8c-.21.31-.22.7-.05,1.03s.51.53.88.53h2.92c.5,5.06,4.77,9.02,9.94,9.02.55,0,1-.45,1-1s-.45-1-1-1Zm-8.99-12.02l2,3h-4l2-3Z"/></svg>