<?xml version="1.0" encoding="UTF-8"?><svg id="Art" xmlns="http://www.w3.org/2000/svg" viewBox="0 0 60 60"><defs><style>.cls-1{fill:#231f20;}</style></defs><path class="cls-1" d="m14,0C6.28,0,0,6.28,0,14s6.28,14,14,14h12c1.1,0,2-.9,2-2v-12C28,6.28,21.72,0,14,0Zm12,26h-12c-6.62,0-12-5.38-12-12S7.38,2,14,2s12,5.38,12,12v12Z"/><path class="cls-1" d="m34,28h12c7.72,0,14-6.28,14-14S53.72,0,46,0s-14,6.28-14,14v12c0,1.1.9,2,2,2Zm0-14c0-6.62,5.38-12,12-12s12,5.38,12,12-5.38,12-12,12h-12v-12Z"/><path class="cls-1" d="m26,32h-12c-7.72,0-14,6.28-14,14s6.28,14,14,14,14-6.28,14-14v-12c0-1.1-.9-2-2-2Zm0,14c0,6.62-5.38,12-12,12s-12-5.38-12-12,5.38-12,12-12h12v12Z"/><path class="cls-1" d="m46,32h-12c-1.1,0-2,.9-2,2v12c0,7.72,6.28,14,14,14s14-6.28,14-14-6.28-14-14-14Zm0,26c-6.62,0-12-5.38-12-12v-12s0,0,0,0h12c6.62,0,12,5.38,12,12s-5.38,12-12,12Z"/><path class="cls-1" d="m8,9h12c.55,0,1-.45,1-1s-.45-1-1-1h-12c-.55,0-1,.45-1,1s.45,1,1,1Z"/><path class="cls-1" d="m20,19h-12c-.55,0-1,.45-1,1s.45,1,1,1h12c.55,0,1-.45,1-1s-.45-1-1-1Z"/><path class="cls-1" d="m12,11c-.55,0-1,.45-1,1s.45,1,1,1h10c.55,0,1-.45,1-1s-.45-1-1-1h-10Z"/><path class="cls-1" d="m6,13h2c.55,0,1-.45,1-1s-.45-1-1-1h-2c-.55,0-1,.45-1,1s.45,1,1,1Z"/><path class="cls-1" d="m22,15h-2c-.55,0-1,.45-1,1s.45,1,1,1h2c.55,0,1-.45,1-1s-.45-1-1-1Z"/><path class="cls-1" d="m17,16c0-.55-.45-1-1-1H6c-.55,0-1,.45-1,1s.45,1,1,1h10c.55,0,1-.45,1-1Z"/><path class="cls-1" d="m40,9h12c.55,0,1-.45,1-1s-.45-1-1-1h-12c-.55,0-1,.45-1,1s.45,1,1,1Z"/><path class="cls-1" d="m53,20c0-.55-.45-1-1-1h-12c-.55,0-1,.45-1,1s.45,1,1,1h12c.55,0,1-.45,1-1Z"/><path class="cls-1" d="m43,12c0,.55.45,1,1,1h10c.55,0,1-.45,1-1s-.45-1-1-1h-10c-.55,0-1,.45-1,1Z"/><path class="cls-1" d="m38,13h2c.55,0,1-.45,1-1s-.45-1-1-1h-2c-.55,0-1,.45-1,1s.45,1,1,1Z"/><path class="cls-1" d="m54,15h-2c-.55,0-1,.45-1,1s.45,1,1,1h2c.55,0,1-.45,1-1s-.45-1-1-1Z"/><path class="cls-1" d="m49,16c0-.55-.45-1-1-1h-10c-.55,0-1,.45-1,1s.45,1,1,1h10c.55,0,1-.45,1-1Z"/><path class="cls-1" d="m40,41h12c.55,0,1-.45,1-1s-.45-1-1-1h-12c-.55,0-1,.45-1,1s.45,1,1,1Z"/><path class="cls-1" d="m52,51h-12c-.55,0-1,.45-1,1s.45,1,1,1h12c.55,0,1-.45,1-1s-.45-1-1-1Z"/><path class="cls-1" d="m44,43c-.55,0-1,.45-1,1s.45,1,1,1h10c.55,0,1-.45,1-1s-.45-1-1-1h-10Z"/><path class="cls-1" d="m38,45h2c.55,0,1-.45,1-1s-.45-1-1-1h-2c-.55,0-1,.45-1,1s.45,1,1,1Z"/><path class="cls-1" d="m54,47h-2c-.55,0-1,.45-1,1s.45,1,1,1h2c.55,0,1-.45,1-1s-.45-1-1-1Z"/><path class="cls-1" d="m49,48c0-.55-.45-1-1-1h-10c-.55,0-1,.45-1,1s.45,1,1,1h10c.55,0,1-.45,1-1Z"/><path class="cls-1" d="m7,40c0,.55.45,1,1,1h12c.55,0,1-.45,1-1s-.45-1-1-1h-12c-.55,0-1,.45-1,1Z"/><path class="cls-1" d="m20,51h-12c-.55,0-1,.45-1,1s.45,1,1,1h12c.55,0,1-.45,1-1s-.45-1-1-1Z"/><path class="cls-1" d="m11,44c0,.55.45,1,1,1h10c.55,0,1-.45,1-1s-.45-1-1-1h-10c-.55,0-1,.45-1,1Z"/><path class="cls-1" d="m6,45h2c.55,0,1-.45,1-1s-.45-1-1-1h-2c-.55,0-1,.45-1,1s.45,1,1,1Z"/><path class="cls-1" d="m22,47h-2c-.55,0-1,.45-1,1s.45,1,1,1h2c.55,0,1-.45,1-1s-.45-1-1-1Z"/><path class="cls-1" d="m17,48c0-.55-.45-1-1-1H6c-.55,0-1,.45-1,1s.45,1,1,1h10c.55,0,1-.45,1-1Z"/></svg>