<?xml version="1.0" encoding="UTF-8"?><svg id="Art" xmlns="http://www.w3.org/2000/svg" viewBox="0 0 60 60"><path d="m8.92,47.98c.17.17.39.26.63.28l.08.08.08-.08c.24-.02.46-.11.63-.28l7.66-7.66c.39-.39.39-1.02,0-1.41s-1.02-.39-1.41,0l-6.96,6.96-2.7-2.7c-.39-.39-1.02-.39-1.41,0s-.39,1.02,0,1.41l3.41,3.41Z"/><path d="m31.48,6.01h1.36c.55,0,1-.45,1-1s-.45-1-1-1h-1.36c-.55,0-1,.45-1,1s.45,1,1,1Z"/><path d="m58.2,29.35c0-.81-.31-1.56-.88-2.13-.98-.99-2.6-1.12-3.76-.4V7.72c0-.25-.1-.47-.25-.64v-.11h-.11c-.17-.15-.4-.25-.64-.25h-9.89v-2c0-.25-.1-.47-.25-.64v-.11h-.11c-.17-.15-.4-.25-.64-.25h-4.89c-.46-2.12-2.36-3.72-4.63-3.72s-4.16,1.6-4.62,3.72h-4.89c-.25,0-.47.1-.64.25h-.11v.11c-.15.17-.25.39-.25.64v2h-9.89c-.25,0-.47.1-.64.25h-.11v.11c-.15.17-.25.39-.25.64v25.77H2.8c-.25,0-.47.1-.64.25h-.11v.11c-.15.17-.25.39-.25.64v17.9c0,.25.1.47.25.64v.11h.11c.17.15.4.25.64.25h7.95v5.61c0,.25.1.47.25.64v.11h.11c.17.15.4.25.64.25h40.81c.25,0,.47-.1.64-.25h.11v-.11c.15-.17.25-.39.25-.64v-23.76l3.76-3.76c.57-.57.88-1.33.88-2.13ZM29.18,5.47v-.11c.15-.17.25-.39.25-.64,0-1.5,1.22-2.72,2.72-2.72s2.73,1.22,2.73,2.72c0,.25.1.47.25.64v.11h.11c.17.15.4.25.64.25h4.79v2.72h-17.03v-.57c0-.05.03-.1.03-.15s-.02-.1-.03-.15v-1.84h4.79c.25,0,.47-.1.64-.25h.11ZM12.75,53.39h1.62v1.99c0,.25.1.47.25.64v.11h.11c.17.15.4.25.64.25h33.56c.25,0,.47-.1.64-.25h.11v-.11c.15-.17.25-.39.25-.64v-16.51l1.63-1.63v20.76H12.75v-4.61ZM21.89,10.09v.11h.11c.17.15.4.25.64.25h19.03c.25,0,.47-.1.64-.25h.11v-.11c.15-.17.25-.39.25-.64v-.72h8.89v19.98l-1.62,1.62s0,0,0,0,0,0,0,0h0s0-17.16,0-17.16c0-.25-.1-.47-.25-.64v-.11h-.11c-.17-.15-.4-.25-.64-.25H15.38c-.25,0-.47.1-.64.25h-.11v.11c-.15.17-.25.39-.25.64v20.33h-1.62V8.72h8.89v.72c0,.25.1.47.25.64Zm29.96,24.03l-3.62,3.62h0l-8.7,8.7-1.44-1.44,12.57-12.57,1.44,1.44-.24.24s0,0,0,0Zm-35.48,20.26v-.99h4.32c.25,0,.47-.1.64-.25h.11v-.11c.15-.17.25-.39.25-.64v-17.9c0-.25-.1-.47-.25-.64v-.11h-.11c-.17-.15-.4-.25-.64-.25h-4.32V14.16h31.56v18.17l-13.49,13.49c-.11.11-.19.24-.24.39l-1.43,4.28c-.08.23-.06.48.03.69l-.27.81.8-.27c.12.05.25.08.39.08.11,0,.21-.02.32-.05l4.28-1.43c.15-.05.28-.13.39-.24l9.22-9.22v13.51h-31.56Zm21.09-5.87l-2.16.72.72-2.16.65-.65,1.44,1.44-.65.65Zm-17.76-13.02v15.9H3.8v-15.9h15.9Zm36.2-5.42l-2.4,2.4-1.44-1.44,2.4-2.4c.38-.38,1.05-.38,1.44,0,.19.19.3.45.3.72s-.11.53-.3.72Z"/><path d="m18.85,19.68h26.61c.55,0,1-.45,1-1s-.45-1-1-1h-26.61c-.55,0-1,.45-1,1s.45,1,1,1Z"/><path d="m32.84,43.16h-9.58c-.55,0-1,.45-1,1s.45,1,1,1h9.58c.55,0,1-.45,1-1s-.45-1-1-1Z"/><path d="m36.96,36.79h-13.7c-.55,0-1,.45-1,1s.45,1,1,1h13.7c.55,0,1-.45,1-1s-.45-1-1-1Z"/><path d="m30.35,49.54h-7.09c-.55,0-1,.45-1,1s.45,1,1,1h7.09c.55,0,1-.45,1-1s-.45-1-1-1Z"/><path d="m18.85,26.05h26.61c.55,0,1-.45,1-1s-.45-1-1-1h-26.61c-.55,0-1,.45-1,1s.45,1,1,1Z"/><path d="m46.46,31.42c0-.55-.45-1-1-1h-26.61c-.55,0-1,.45-1,1s.45,1,1,1h26.61c.55,0,1-.45,1-1Z"/></svg>