<?xml version="1.0" encoding="UTF-8"?><svg id="Art" xmlns="http://www.w3.org/2000/svg" viewBox="0 0 60 60"><defs><style>.cls-1{fill:#231f20;}</style></defs><path class="cls-1" d="m43.65,17.79c.29-.6.45-1.27.45-1.96,0-2.48-2-4.5-4.47-4.52-.25-1.72-1.54-2.88-3.31-2.88-.17,0-.34.03-.5.06-.32-1.24-1.44-2.17-2.78-2.17-1.59,0-2.88,1.29-2.88,2.88v23.74c0,1.59,1.29,2.88,2.88,2.88,1.05,0,1.97-.58,2.47-1.42.44.18.9.29,1.38.29.17,0,.35-.01.52-.04.96-.14,1.82-.64,2.4-1.42.43-.58.68-1.26.72-1.97,1.76-.88,2.98-2.68,2.98-4.77,0-.65-.13-1.28-.34-1.86,1.3-.67,2.19-2.02,2.19-3.55,0-1.34-.65-2.54-1.71-3.28Zm-3.5,3.73c-.51-.21-1.1.04-1.3.56-.21.51.04,1.09.56,1.3,1.28.51,2.1,1.73,2.1,3.11,0,1.85-1.5,3.35-3.35,3.35-.55,0-1,.45-1,1s.45,1,1,1c.06,0,.11-.02.17-.02-.04.07-.08.14-.13.21-.26.35-.65.58-1.08.64-.43.06-.87-.05-1.22-.31-.35-.26-.58-.65-.64-1.08-.08-.55-.58-.92-1.13-.85-.55.08-.93.58-.85,1.13.08.56.29,1.06.6,1.52-.07.42-.42.75-.85.75-.49,0-.88-.39-.88-.88v-3.82c.07-.34.54-2.13,2.27-2.15.55,0,.99-.46.99-1.01,0-.55-.45-.95-1.01-.99-.91.01-1.65.29-2.24.7v-6c.25.01.52.07.76.2.34.19.57.54.71,1.06.12.45.52.75.97.75.08,0,.17-.01.26-.03.53-.14.85-.69.71-1.22-.27-1.04-.85-1.83-1.66-2.29-.6-.34-1.22-.45-1.75-.46v-4.15c.13.08.27.19.38.4.19.32.52.5.87.5.17,0,.34-.04.5-.13.48-.28.64-.89.36-1.37-.57-.98-1.38-1.36-2.12-1.46v-2.24c0-.49.39-.88.88-.88s.88.4.88.88c0,.21-.07.36-.15.48-.04.05-.09.08-.12.13-.29.41-.22.95.13,1.29.02.02.04.06.06.08,0,0,.01,0,.02.01,0,0,.01.01.02.02.03.02.07.03.1.04.41.25.95.18,1.27-.2.05-.06.09-.13.14-.2.24-.26.58-.41.94-.41,1.18,0,1.36.94,1.36,1.49,0,.28.12.55.33.74l.46.41c.22.2.51.29.8.25.11-.01.21-.02.32-.02,1.39,0,2.52,1.13,2.52,2.53,0,.98-.57,1.88-1.46,2.29-.5.23-.72.83-.48,1.33.17.36.53.58.91.58.14,0,.29-.03.42-.09.32-.15.62-.35.89-.56.59.35.97.98.97,1.69,0,.81-.5,1.52-1.22,1.83-.53-.59-1.2-1.07-1.98-1.38Z"/><path class="cls-1" d="m34.52,14.86c-.53.13-.86.66-.73,1.2.13.54.66.87,1.2.75.18-.04,1.81-.36,2.49,1.14.17.37.53.59.91.59.14,0,.28-.03.41-.09.5-.23.73-.82.5-1.32-1.1-2.44-3.6-2.55-4.77-2.27Z"/><path class="cls-1" d="m37.67,23.49c-.53.16-.83.71-.68,1.24.01.05.32,1.16-.87,1.89-.47.29-.62.9-.33,1.37.19.31.52.48.86.48.18,0,.36-.05.52-.15,1.99-1.21,2.02-3.25,1.75-4.16-.16-.53-.71-.83-1.24-.68Z"/><path class="cls-1" d="m26.97,6.32c-1.34,0-2.46.93-2.78,2.17-.17-.03-.33-.06-.5-.06-1.77,0-3.07,1.16-3.31,2.88-2.47.03-4.47,2.05-4.47,4.52,0,.69.16,1.36.45,1.96-1.05.73-1.71,1.94-1.71,3.28,0,1.53.89,2.89,2.19,3.55-.22.59-.34,1.21-.34,1.86,0,2.1,1.22,3.9,2.98,4.77.04.71.29,1.39.72,1.97.58.78,1.44,1.28,2.4,1.42.18.03.35.04.53.04.48,0,.94-.1,1.38-.29.5.85,1.42,1.42,2.47,1.42,1.59,0,2.88-1.29,2.88-2.88V9.2c0-1.59-1.29-2.88-2.88-2.88Zm-.26,25.23c.08-.55-.3-1.05-.85-1.13-.54-.08-1.05.3-1.13.85-.06.43-.29.82-.64,1.08-.35.26-.78.37-1.22.31-.43-.06-.82-.29-1.08-.64-.05-.07-.09-.14-.13-.21.06,0,.11.02.17.02.55,0,1-.45,1-1s-.45-1-1-1c-1.85,0-3.35-1.5-3.35-3.35,0-1.38.82-2.6,2.1-3.11.51-.21.76-.79.56-1.3-.21-.51-.79-.76-1.3-.56-.78.31-1.45.79-1.98,1.38-.72-.31-1.22-1.02-1.22-1.83,0-.72.38-1.34.97-1.69.27.22.57.41.89.56.14.06.28.09.42.09.38,0,.74-.21.91-.58.23-.5.02-1.1-.48-1.33-.89-.41-1.46-1.31-1.46-2.29,0-1.39,1.13-2.53,2.52-2.53.11,0,.22,0,.32.02.29.04.58-.06.8-.25l.46-.41c.21-.19.33-.46.33-.74,0-.56.18-1.49,1.36-1.49.36,0,.69.16.94.41.05.07.09.14.14.2.32.38.86.45,1.27.2.03-.02.07-.02.1-.04,0,0,.01-.01.02-.02,0,0,.01,0,.02-.01.03-.02.04-.05.06-.08.35-.34.42-.88.13-1.29-.04-.05-.08-.09-.12-.13-.08-.11-.15-.26-.15-.48,0-.49.4-.88.88-.88s.88.4.88.88v2.24c-.73.1-1.55.48-2.12,1.46-.28.48-.11,1.09.36,1.37.16.09.33.13.5.13.35,0,.68-.18.87-.5.12-.2.25-.32.38-.4v4.15c-.53.02-1.15.12-1.75.46-.81.46-1.38,1.25-1.66,2.29-.14.53.18,1.08.71,1.22.09.02.17.03.26.03.44,0,.85-.3.97-.75.14-.51.37-.86.7-1.06.24-.14.51-.19.77-.2v5.99c-.59-.41-1.33-.69-2.24-.7h-.01c-.55,0-.99.44-1,.99,0,.55.43,1.01.99,1.01,1.7.02,2.18,1.76,2.27,2.16v3.82c0,.49-.39.88-.88.88-.44,0-.79-.33-.85-.75.31-.45.52-.96.6-1.52Z"/><path class="cls-1" d="m22.53,17.95c.67-1.5,2.3-1.19,2.49-1.14.54.13,1.07-.2,1.2-.74.13-.54-.2-1.08-.74-1.21-1.17-.28-3.68-.18-4.77,2.27-.23.5,0,1.1.5,1.32.13.06.27.09.41.09.38,0,.75-.22.91-.59Z"/><path class="cls-1" d="m23.88,26.61c-1.12-.68-.92-1.7-.87-1.9.15-.53-.16-1.08-.68-1.23-.53-.16-1.08.15-1.24.68-.27.91-.24,2.95,1.75,4.16.16.1.34.15.52.15.34,0,.67-.17.86-.48.29-.47.14-1.09-.33-1.37Z"/><path class="cls-1" d="m52.91,19.8h-3.17c-.28,0-.53.12-.71.3,0-.09,0-.17,0-.26-.15-2.85-.93-5.52-2.19-7.9.05,0,.11.02.16.02.17,0,.34-.04.5-.13l2.75-1.59c.48-.28.64-.89.37-1.37-.28-.48-.89-.64-1.37-.37l-2.75,1.59c-.21.12-.35.32-.43.53-1.52-2.39-3.56-4.42-5.97-5.92.23-.07.43-.22.56-.44l1.59-2.75c.28-.48.11-1.09-.37-1.37-.48-.28-1.09-.11-1.37.37l-1.59,2.75c-.13.22-.15.48-.1.71-2.27-1.19-4.81-1.95-7.51-2.13-3.64-.25-7.15.54-10.25,2.2.07-.25.05-.53-.09-.78l-1.59-2.75c-.28-.48-.89-.64-1.37-.37-.48.28-.64.89-.37,1.37l1.59,2.75c.14.24.37.4.62.47-1.01.64-1.97,1.37-2.87,2.2-1.22,1.14-2.25,2.44-3.12,3.84-.05-.27-.21-.52-.47-.67l-2.75-1.59c-.48-.28-1.09-.11-1.37.37-.28.48-.11,1.09.37,1.37l2.75,1.59c.16.09.33.13.5.13.11,0,.21-.02.31-.05-1.34,2.52-2.1,5.33-2.21,8.22-.18-.2-.44-.33-.73-.33h-3.17c-.55,0-1,.45-1,1s.45,1,1,1h3.17c.28,0,.54-.12.72-.31.06,1.93.4,3.82,1.03,5.63.01.04.03.08.05.11l1.25,2.52c-.28-.13-.62-.14-.91.03l-2.75,1.59c-.48.28-.64.89-.37,1.37.19.32.52.5.87.5.17,0,.34-.04.5-.13l2.75-1.59c.26-.15.42-.4.47-.68.19.32.38.65.57.98,0,.02.02.04.03.05,2.63,4.67,4.55,9.83,5.75,15.35h-3.21c-.55,0-1,.45-1,1s.45,1,1,1h3.61c.1.53.19,1.07.27,1.6h-1.46c-.55,0-1,.45-1,1s.45,1,1,1h1.73c.04.32.09.64.12.96,0,.09.03.17.06.25.5,1.31,1.65,2.26,3,2.52,1.03,2.09,3.23,3.47,5.7,3.47s4.68-1.38,5.7-3.48c1.5-.32,2.72-1.46,3.08-3.01,0-.04.02-.08.02-.12.02-.2.05-.39.07-.58h1.73c.55,0,1-.45,1-1s-.45-1-1-1h-1.45c.02-.13.04-.27.06-.39.07-.4.15-.8.22-1.21h3.59c.55,0,1-.45,1-1s-.45-1-1-1h-3.2c1.27-5.81,3.39-11.35,6.23-16.18.08.19.21.36.4.48l2.75,1.59c.16.09.33.13.5.13.35,0,.68-.18.87-.5.28-.48.11-1.09-.37-1.37l-2.75-1.59c-.2-.11-.42-.14-.63-.11,1.33-2.53,2.06-5.31,2.16-8.17.18.18.43.3.71.3h3.17c.55,0,1-.45,1-1s-.45-1-1-1Zm-8.06,9.41s-.02.04-.03.05c-.15.25-.31.51-.45.76-3.06,5.2-5.26,10.98-6.56,17.2h-15.55c-1.24-5.89-3.27-11.4-6.08-16.38,0-.02-.02-.03-.03-.05-.23-.42-.47-.83-.68-1.17l-1.59-3.22c-.62-1.79-.93-3.66-.93-5.56,0-4.7,1.97-9.24,5.41-12.46,3.48-3.26,8.04-4.87,12.82-4.55,8.59.58,15.41,7.51,15.85,16.11.17,3.25-.58,6.46-2.17,9.27Zm-7.69,21.6h-14.24c-.08-.53-.18-1.06-.27-1.6h14.79c-.05.3-.11.59-.16.88-.04.23-.07.48-.11.71Zm-7.12,7.19c-1.27,0-2.44-.53-3.24-1.38h6.48c-.8.86-1.97,1.38-3.24,1.38Zm4.87-3.38h-9.81c-.8,0-1.52-.48-1.84-1.2-.02-.2-.05-.41-.08-.61h13.72c-.01.1-.03.19-.04.3-.23.89-1.03,1.51-1.95,1.51Zm10.91-24.82h0s-.1-.08-.1-.08l.1.08Z"/></svg>