<?xml version="1.0" encoding="UTF-8"?><svg id="Art" xmlns="http://www.w3.org/2000/svg" viewBox="0 0 60 60"><defs><style>.cls-1{fill:#231f20;}</style></defs><path class="cls-1" d="m36.4,28.57c1.12-1.12,1.7-2.67,1.59-4.25-.11-1.58-.9-3.03-2.17-3.98l-5.47-4.1s-.04-.03-.06-.05c-1.84-1.38-4.1-2.15-6.4-2.19,1.31-1.27,2.12-3.05,2.12-5.01v-2c0-3.86-3.14-7-7-7s-7,3.14-7,7v2c0,1.96.81,3.74,2.12,5.01-2.3.04-4.56.81-6.4,2.19-.02.02-.04.03-.06.05l-5.47,4.1C.92,21.3.13,22.75.01,24.33c-.11,1.58.47,3.13,1.59,4.25l5.41,5.41c1.03,1.03,2.7,1.29,3.98.68v20.64c0,2.51,1.87,4.57,4.26,4.7.08,0,.16,0,.23,0,1.17,0,2.27-.44,3.11-1.24.14-.14.28-.28.4-.43.12.15.25.29.4.43.9.86,2.08,1.3,3.35,1.24,2.39-.13,4.26-2.19,4.26-4.7v-20.64c1.29.61,2.95.35,3.98-.68l5.41-5.4Zm-15.41-1.89l-2,1.31-1.99-1.33.88-6.67h2.25l.87,6.68Zm-.77-8.68h-2.44l-.5-2h3.44l-.5,2Zm-6.22-9v-2c0-2.76,2.24-5,5-5s5,2.24,5,5v2c0,2.76-2.24,5-5,5s-5-2.24-5-5Zm-3.01,19.05l-3.23-3.22,3.23-2.5v5.73Zm16.38,4.42c-.5-.58-.42-1.53.19-2.14l4.9-4.89c.2-.2.31-.48.29-.77-.02-.29-.16-.55-.39-.73l-5.74-4.45c-.3-.23-.71-.28-1.05-.11-.34.17-.56.52-.56.9v35.02c0,1.42-1.06,2.63-2.36,2.7-.71.05-1.37-.21-1.87-.69-.5-.48-.78-1.12-.78-1.81v-15.5c0-.55-.45-1-1-1s-1,.45-1,1v15.5c0,.69-.28,1.33-.78,1.81-.5.48-1.17.73-1.87.69-1.3-.07-2.37-1.28-2.37-2.7V20.28c0-.38-.22-.73-.56-.9-.14-.07-.29-.1-.44-.1-.22,0-.43.07-.61.21l-5.74,4.45c-.23.18-.37.44-.39.73-.02.29.09.57.29.77l4.89,4.89c.61.62.7,1.56.19,2.15-.55.65-1.61.68-2.21.09l-5.41-5.4c-.71-.71-1.08-1.69-1-2.69.07-1,.57-1.92,1.38-2.52l5.54-4.15s.04-.03.06-.05c1.54-1.13,3.44-1.75,5.35-1.75h.89l.76,3.06-.97,7.36c-.1.76.24,1.5.89,1.93l1.98,1.31c.34.23.73.34,1.12.34s.78-.11,1.12-.34l1.98-1.31c.64-.43.98-1.17.88-1.94l-.97-7.35.76-3.06h.89c1.91,0,3.81.62,5.35,1.75.02.02.04.03.06.05l5.54,4.15c.8.6,1.31,1.52,1.38,2.52.07,1-.29,1.98-1,2.69l-5.41,5.4c-.6.6-1.65.57-2.21-.09Zm-.36-4.42v-5.73l3.23,2.5-3.23,3.22Z"/><path class="cls-1" d="m45,30c-8.27,0-15,6.73-15,15s6.73,15,15,15,15-6.73,15-15-6.73-15-15-15Zm0,28c-7.17,0-13-5.83-13-13s5.83-13,13-13,13,5.83,13,13-5.83,13-13,13Z"/><path class="cls-1" d="m50.2,38.4l-8.31,11.08-2.18-2.18c-.39-.39-1.02-.39-1.41,0s-.39,1.02,0,1.41l3,3c.19.19.44.29.71.29.02,0,.05,0,.07,0,.29-.02.55-.17.73-.4l9-12c.33-.44.24-1.07-.2-1.4-.44-.33-1.07-.24-1.4.2Z"/></svg>