<?xml version="1.0" encoding="UTF-8"?><svg id="Art" xmlns="http://www.w3.org/2000/svg" viewBox="0 0 60 60"><defs><style>.cls-1{fill:#231f20;}</style></defs><path class="cls-1" d="m23.81,8.35h1.13v17.52c0,.55.45,1,1,1s1-.45,1-1V8.35h3.67c.55,0,1-.45,1-1s-.45-1-1-1h-4.39l3.78-3.78,3.78,3.78h0c-.55,0-1,.45-1,1v19.04c0,.55.45,1,1,1s1-.45,1-1V8.35h1.42c.4,0,.77-.24.92-.62.15-.37.07-.8-.22-1.09L30.71.45c-.39-.39-1.02-.39-1.41,0l-6.19,6.19c-.29.29-.37.72-.22,1.09.15.37.52.62.92.62Z"/><path class="cls-1" d="m42.91,19.67h1.13v10.73c0,.55.45,1,1,1s1-.45,1-1v-10.73h3.67c.55,0,1-.45,1-1s-.45-1-1-1h-4.39l3.78-3.78,3.78,3.78h0c-.55,0-1,.45-1,1v15.44c0,.55.45,1,1,1s1-.45,1-1v-14.44h1.42c.4,0,.77-.24.92-.62.15-.37.07-.8-.22-1.09l-6.19-6.19c-.39-.39-1.02-.39-1.41,0l-6.19,6.19c-.29.29-.37.72-.22,1.09.15.37.52.62.92.62Z"/><path class="cls-1" d="m4.72,19.67h1.42v14.44c0,.55.45,1,1,1s1-.45,1-1v-15.44c0-.55-.45-1-1-1h0l3.78-3.78,3.78,3.78h-4.39c-.55,0-1,.45-1,1s.45,1,1,1h3.67v11.47c0,.55.45,1,1,1s1-.45,1-1v-11.47h1.13c.4,0,.77-.24.92-.62.15-.37.07-.8-.22-1.09l-6.19-6.19c-.39-.39-1.02-.39-1.41,0l-6.19,6.19c-.29.29-.37.72-.22,1.09.15.37.52.62.92.62Z"/><path class="cls-1" d="m22.21,52.74c-.55-.02-1.03.38-1.06.94l-.32,5.1c-.03.55.38,1.03.94,1.06.02,0,.04,0,.06,0,.52,0,.96-.41,1-.94l.32-5.1c.03-.55-.38-1.03-.94-1.06Z"/><path class="cls-1" d="m37.8,52.74c-.55.04-.97.51-.94,1.06l.32,5.1c.03.53.47.94,1,.94.02,0,.04,0,.06,0,.55-.04.97-.51.94-1.06l-.32-5.1c-.03-.55-.51-.96-1.06-.94Z"/><path class="cls-1" d="m30.01,29.4c-3.68,0-6.67,2.99-6.67,6.67s2.99,6.67,6.67,6.67,6.67-2.99,6.67-6.67-2.99-6.67-6.67-6.67Zm0,11.33c-2.57,0-4.67-2.09-4.67-4.67s2.09-4.67,4.67-4.67,4.67,2.09,4.67,4.67-2.09,4.67-4.67,4.67Z"/><path class="cls-1" d="m59.53,52.6c-.01-.87-.27-1.76-.78-2.63-.53-.94-1.41-1.66-2.46-2.04l-3.02-1.08c-.47-.17-.98.03-1.22.47l-2.73,5.07h-.46l-2.73-5.07c-.23-.44-.75-.63-1.22-.47l-2.41.87c-.06-.11-.1-.21-.16-.32-.66-1.16-1.74-2.06-3.06-2.53l-3.94-1.41c-.24-.09-.5-.08-.74.03l-3.74,1.64h-1.74l-3.74-1.64c-.23-.1-.5-.11-.74-.03l-3.94,1.41c-1.31.47-2.39,1.37-3.05,2.53-.06.1-.1.21-.16.31l-2.43-.86c-.47-.17-.98.03-1.22.47l-2.73,5.07h-.46l-2.73-5.07c-.23-.44-.75-.64-1.22-.47l-3.02,1.08c-1.05.38-1.93,1.11-2.46,2.04-.51.88-.77,1.77-.78,2.64-.05.43-.35,3.35-.47,6.21-.02.55.41,1.02.96,1.04.01,0,.03,0,.04,0,.53,0,.98-.42,1-.96.12-3,.46-6.09.46-6.12,0-.04,0-.07,0-.11,0-.66.28-1.29.52-1.7.3-.52.8-.93,1.4-1.15l2.21-.79,2.6,4.84c.17.32.51.53.88.53h1.66c.37,0,.71-.2.88-.53l2.6-4.84,1.6.57c-.08.38-.13.75-.14,1.12-.05.5-.46,4.34-.61,8.1-.02.55.41,1.02.96,1.04.57.05,1.02-.41,1.04-.96.16-3.93.6-7.97.61-8.01,0-.04,0-.07,0-.11,0-.94.39-1.8.72-2.37.43-.75,1.14-1.33,1.99-1.64l3.56-1.27,3.57,1.57c.13.06.26.08.4.08h2.16c.14,0,.28-.03.4-.08l3.57-1.57,3.56,1.27c.86.31,1.57.9,2,1.65.33.56.71,1.43.71,2.37,0,.04,0,.07,0,.11,0,.04.45,4.08.61,8.01.02.54.46.96,1,.96.01,0,.03,0,.04,0,.55-.02.98-.49.96-1.04-.15-3.76-.56-7.6-.61-8.1,0-.37-.06-.74-.13-1.11l1.59-.58,2.6,4.84c.17.32.51.53.88.53h1.66c.37,0,.71-.2.88-.53l2.6-4.84,2.2.79c.61.22,1.11.63,1.41,1.16.24.41.52,1.03.52,1.69,0,.04,0,.07,0,.11,0,.03.34,3.12.46,6.12.02.54.46.96,1,.96.01,0,.03,0,.04,0,.55-.02.98-.49.96-1.04-.11-2.86-.42-5.78-.47-6.21Z"/><path class="cls-1" d="m55.05,53.94c-.55.04-.97.51-.94,1.06l.25,3.91c.03.53.47.94,1,.94.02,0,.04,0,.06,0,.55-.04.97-.51.94-1.06l-.25-3.91c-.03-.55-.5-.95-1.06-.94Z"/><path class="cls-1" d="m49.1,36.07c-2.94,0-5.34,2.39-5.34,5.34s2.39,5.34,5.34,5.34,5.34-2.39,5.34-5.34-2.39-5.34-5.34-5.34Zm0,8.67c-1.84,0-3.34-1.5-3.34-3.34s1.5-3.34,3.34-3.34,3.34,1.5,3.34,3.34-1.5,3.34-3.34,3.34Z"/><path class="cls-1" d="m4.95,53.94c-.55-.02-1.03.38-1.06.94l-.25,3.91c-.03.55.38,1.03.94,1.06.02,0,.04,0,.06,0,.52,0,.96-.41,1-.94l.25-3.91c.03-.55-.38-1.03-.94-1.06Z"/><path class="cls-1" d="m10.9,36.07c-2.94,0-5.34,2.39-5.34,5.34s2.39,5.34,5.34,5.34,5.34-2.39,5.34-5.34-2.39-5.34-5.34-5.34Zm0,8.67c-1.84,0-3.34-1.5-3.34-3.34s1.5-3.34,3.34-3.34,3.34,1.5,3.34,3.34-1.5,3.34-3.34,3.34Z"/></svg>