<?xml version="1.0" encoding="UTF-8"?><svg id="Art" xmlns="http://www.w3.org/2000/svg" viewBox="0 0 60 60"><defs><style>.cls-1{fill:#231f20;}</style></defs><path class="cls-1" d="m53,15c.17,0,.33-.01.5-.04,1.14-.19,2.05-1.06,2.38-2.18.51.21,1.07.27,1.62.18,1.43-.23,2.5-1.55,2.5-3.07v-5.49c0-1.13-.39-2.24-1.1-3.12-.65-.81-1.62-1.28-2.66-1.28h-14.48c-1.04,0-2.01.47-2.66,1.28-.71.88-1.1,1.99-1.1,3.12v2.6h-16v-2.6c0-1.13-.39-2.24-1.1-3.12-.65-.81-1.62-1.28-2.66-1.28H3.76C2.72,0,1.75.47,1.1,1.28c-.71.88-1.1,1.99-1.1,3.12v5.49c0,1.52,1.08,2.83,2.5,3.07.56.09,1.12.03,1.62-.18.32,1.12,1.24,1.99,2.38,2.18.17.03.33.04.5.04v30.01c-.17,0-.33.01-.5.04-1.14.19-2.05,1.06-2.38,2.18-.51-.2-1.07-.27-1.62-.18-1.43.23-2.5,1.55-2.5,3.07v5.49c0,1.13.39,2.24,1.1,3.12.65.81,1.62,1.28,2.66,1.28h14.48c1.04,0,2.01-.47,2.66-1.28.71-.88,1.1-1.99,1.1-3.12v-2.6h16v2.6c0,1.13.39,2.24,1.1,3.12.65.81,1.62,1.28,2.66,1.28h14.48c1.04,0,2.01-.47,2.66-1.28.71-.88,1.1-1.99,1.1-3.12v-5.49c0-1.52-1.08-2.83-2.5-3.07-.56-.09-1.12-.03-1.62.18-.32-1.12-1.24-1.99-2.38-2.18-.17-.03-.33-.04-.5-.04V15Zm-8,22c-1.65,0-3,1.35-3,3v11h-11v-6.18c0-.6-.27-1.16-.75-1.53-.49-.38-1.13-.51-1.76-.35-.72.19-1.54-.07-2.03-.66-.39-.46-.54-1.06-.43-1.67.14-.76.76-1.41,1.52-1.57.34-.07.67-.06.98.03.58.16,1.2.04,1.69-.32.49-.37.78-.94.78-1.56v-6.2l6.15-.07c-.18.63-.2,1.27-.06,1.93.32,1.56,1.6,2.8,3.17,3.08.25.04.49.07.74.07.94,0,1.85-.32,2.57-.93.91-.76,1.44-1.88,1.44-3.07,0-.34-.04-.67-.18-1h6.18v13.81c-.41-.39-.93-.67-1.5-.77-.51-.08-1.02-.03-1.5.13v-4.17c0-1.65-1.35-3-3-3Zm-27,14v-11c0-1.65-1.35-3-3-3s-3,1.35-3,3v4.17c-.47-.17-.99-.21-1.5-.13-.58.09-1.09.37-1.5.76v-13.81h6.18c.6,0,1.16-.27,1.53-.75.38-.5.51-1.14.35-1.76-.04-.16-.06-.33-.06-.5,0-.6.26-1.16.72-1.54.46-.39,1.06-.54,1.67-.43.76.14,1.41.76,1.57,1.52.07.34.06.66-.03.98-.16.59-.05,1.2.32,1.69.37.49.94.78,1.56.78h6.2l.06,6.15c-.63-.17-1.27-.19-1.92-.06-1.56.32-2.8,1.6-3.08,3.17-.22,1.19.1,2.4.86,3.31.76.91,1.88,1.44,3.07,1.44.34,0,.67-.04,1-.18v6.18h-11Zm12.92-28.15c.63.17,1.27.19,1.92.06,1.56-.32,2.8-1.6,3.08-3.17.22-1.19-.1-2.4-.86-3.31-.76-.91-1.88-1.44-3.07-1.44-.34,0-.67.04-1,.18v-6.18h11v11c0,1.65,1.35,3,3,3s3-1.35,3-3v-4.17c.47.17.99.22,1.5.13.58-.09,1.09-.37,1.5-.76v13.81h-6.18c-.6,0-1.16.27-1.53.75-.38.5-.51,1.14-.35,1.76.04.16.06.33.06.5,0,.6-.26,1.16-.72,1.54-.46.39-1.06.54-1.67.43-.76-.14-1.41-.76-1.57-1.52-.07-.34-.06-.66.03-.98.16-.59.05-1.2-.32-1.69-.37-.49-.94-.78-1.56-.78h-6.2l-.06-6.15Zm9.08-18.45c0-.68.23-1.34.66-1.87.27-.34.67-.53,1.1-.53h14.48c.43,0,.83.19,1.1.53.42.53.66,1.2.66,1.87v5.49c0,.54-.36,1.02-.82,1.09-.3.05-.6-.03-.82-.22-.22-.19-.35-.47-.35-.76,0-.55-.45-1-1-1s-1,.45-1,1v1.89c0,.54-.36,1.02-.82,1.09-.3.05-.6-.03-.82-.22-.22-.19-.35-.47-.35-.76,0-.55-.45-1-1-1s-1,.45-1,1v.89c0,.54-.36,1.02-.82,1.09-.3.05-.6-.03-.82-.22-.22-.19-.35-.47-.35-.76,0-.55-.45-1-1-1s-1,.45-1,1v7c0,.55-.45,1-1,1s-1-.45-1-1V6c0-.55-.45-1-1-1s-1,.45-1,1v1h-2v-2.6Zm-10.25,12.3c.5.38,1.14.51,1.76.35.72-.19,1.54.07,2.03.66.39.46.54,1.06.43,1.67-.14.76-.76,1.41-1.52,1.57-.34.07-.67.06-.98-.03-.59-.17-1.2-.05-1.69.32-.49.37-.78.94-.78,1.56v6.2l-6.15.07c.18-.63.2-1.27.06-1.93-.32-1.56-1.6-2.8-3.17-3.08-1.19-.22-2.4.1-3.31.86-.91.76-1.44,1.88-1.44,3.07,0,.34.04.67.18,1h-6.18v-13.81c.41.39.93.67,1.5.77.51.08,1.02.04,1.5-.13v4.17c0,1.65,1.35,3,3,3s3-1.35,3-3v-11h11v6.18c0,.6.27,1.16.75,1.53ZM6,11.89v-1.89c0-.55-.45-1-1-1s-1,.45-1,1c0,.29-.13.57-.35.76-.23.19-.52.27-.82.22-.46-.08-.83-.56-.83-1.09v-5.49c0-.68.23-1.34.66-1.87.27-.34.67-.53,1.1-.53h14.48c.43,0,.83.19,1.1.53.42.53.66,1.2.66,1.87v2.6h-2v-1c0-.55-.45-1-1-1s-1,.45-1,1v14c0,.55-.45,1-1,1s-1-.45-1-1v-7c0-.55-.45-1-1-1s-1,.45-1,1c0,.29-.13.57-.35.76-.23.19-.52.27-.82.22-.46-.08-.83-.56-.83-1.09v-.89c0-.55-.45-1-1-1s-1,.45-1,1c0,.29-.13.57-.35.76-.23.19-.52.27-.82.22-.46-.08-.83-.56-.83-1.09Zm14,43.7c0,.68-.23,1.34-.66,1.87-.27.34-.67.53-1.1.53H3.76c-.43,0-.83-.19-1.1-.53-.42-.53-.66-1.2-.66-1.87v-5.49c0-.54.36-1.02.82-1.09.3-.05.6.03.82.22.22.19.35.47.35.76,0,.55.45,1,1,1s1-.45,1-1v-1.89c0-.54.36-1.02.82-1.09.3-.05.6.03.82.22.22.19.35.47.35.76,0,.55.45,1,1,1s1-.45,1-1v-.89c0-.54.36-1.02.82-1.09.3-.05.6.03.82.22.22.19.35.47.35.76,0,.55.45,1,1,1s1-.45,1-1v-7c0-.55.45-1,1-1s1,.45,1,1v14c0,.55.45,1,1,1s1-.45,1-1v-1h2v2.6Zm34-7.49v1.89c0,.55.45,1,1,1s1-.45,1-1c0-.29.13-.57.35-.76.23-.19.52-.27.82-.22.46.08.83.56.83,1.09v5.49c0,.68-.23,1.34-.66,1.87-.27.34-.67.53-1.1.53h-14.48c-.43,0-.83-.19-1.1-.53-.42-.53-.66-1.2-.66-1.87v-2.6h2v1c0,.55.45,1,1,1s1-.45,1-1v-14c0-.55.45-1,1-1s1,.45,1,1v7c0,.55.45,1,1,1s1-.45,1-1c0-.29.13-.57.35-.76.23-.19.52-.27.82-.22.46.08.83.56.83,1.09v.89c0,.55.45,1,1,1s1-.45,1-1c0-.29.13-.57.35-.76.23-.19.52-.27.82-.22.46.08.83.56.83,1.09Z"/></svg>