<?xml version="1.0" encoding="UTF-8"?><svg id="Art" xmlns="http://www.w3.org/2000/svg" viewBox="0 0 60 60"><path d="m55.57,45.43c-.39-.39-1.02-.39-1.41,0l-5.99,5.99-1.95-1.95c-.39-.39-1.02-.39-1.41,0s-.39,1.02,0,1.41l2.66,2.66c.2.2.45.29.71.29s.51-.1.71-.29l6.7-6.7c.39-.39.39-1.02,0-1.41Z"/><path d="m50.19,39.68c-5.41,0-9.81,4.4-9.81,9.81,0,.05,0,.09,0,.14H12.13c-2.94,0-5.33-2.39-5.33-5.33s2.39-5.33,5.33-5.33h10.08c3.92,0,7.1-3.18,7.1-7.1,0-2.77,2.25-5.02,5.02-5.02h7.04c3.2,0,5.81-2.6,5.81-5.81s-2.6-5.81-5.81-5.81h-24.77c0-.09,0-.17,0-.26.1-7.61-5.71-13.72-5.96-13.97-.19-.19-.44-.3-.71-.31-.24.02-.52.1-.71.29-.25.25-6.21,6.21-6.31,13.82-.02,1.17.04,2.32.15,3.43C1.39,19.18-.11,21.27,0,23.53c.06,1.15.37,2.23.9,3.15.18.31.51.5.87.5.07,0,.15,0,.22-.02.43-.1.74-.46.78-.9.07-.95.79-1.83,1.54-2.39.08.22.16.44.25.66.16.37.51.6.91.61l1.86.02.13,1.22c.05.5.47.89.98.9l2.31.03h.01c.5,0,.93-.37.99-.87l.16-1.21,1.86.02h.01c.39,0,.75-.23.91-.59.09-.21.18-.42.26-.64.73.58,1.42,1.47,1.47,2.42.02.44.33.81.75.92.08.02.16.03.25.03.34,0,.67-.18.85-.48.55-.9.89-1.98.98-3.13.18-2.26-1.27-4.37-2.9-5.37.05-.39.09-.78.13-1.17h24.88c2.1,0,3.81,1.71,3.81,3.81s-1.71,3.81-3.81,3.81h-7.04c-3.87,0-7.02,3.15-7.02,7.02,0,2.81-2.29,5.1-5.1,5.1h-10.08c-4.04,0-7.33,3.29-7.33,7.33s3.29,7.33,7.33,7.33h28.49c.98,4.39,4.9,7.68,9.57,7.68,5.41,0,9.81-4.4,9.81-9.81s-4.4-9.81-9.81-9.81ZM2,23.3c-.01-1.14.64-2.17,1.38-2.84.09.49.2.96.31,1.42-.61.35-1.2.83-1.7,1.42Zm7.35,1.98l-.49-4.72,1.64.02-.61,4.71h-.53Zm2.82-2.07l.46-3.5c.04-.28-.05-.57-.24-.78-.19-.22-.46-.34-.74-.35l-3.89-.05c-.27-.03-.56.12-.75.33-.19.21-.29.49-.26.78l.37,3.51h-.95c-.85-2.31-1.3-5.23-1.26-8.33.07-5.28,3.47-9.84,5-11.62,1.48,1.82,4.76,6.47,4.69,11.75-.03,2.63-.42,5.11-1.09,7.2,0,0-.01.01-.01.02,0,.02,0,.04-.01.06-.11.34-.23.68-.36,1h-.95Zm5.1.27c-.47-.59-1.05-1.09-1.64-1.45.13-.46.24-.92.35-1.4.72.69,1.34,1.72,1.3,2.86Zm32.92,33.8c-4.31,0-7.81-3.5-7.81-7.81s3.5-7.81,7.81-7.81,7.81,3.5,7.81,7.81-3.5,7.81-7.81,7.81Z"/><path d="m9.83,8.76h-.04c-.84,0-1.64.32-2.24.91-.62.6-.96,1.4-.97,2.26-.01.86.31,1.67.91,2.29.6.62,1.4.96,2.26.97h.04c.84,0,1.64-.32,2.24-.91.62-.6.96-1.4.97-2.26s-.31-1.67-.91-2.28c-.6-.61-1.4-.96-2.26-.97Zm.81,4.08c-.23.22-.53.34-.85.34h-.02c-.32,0-.63-.13-.85-.37-.23-.23-.35-.54-.34-.86,0-.32.13-.63.37-.85.23-.22.53-.34.85-.34h.02c.32,0,.63.13.85.37.23.23.35.54.34.86,0,.32-.13.63-.37.85Z"/><path d="m6.48,31.27c.55,0,.99-.44,1-.99l.03-2.68c0-.55-.43-1.01-.99-1.01-.58-.02-1.01.44-1.01.99l-.03,2.68c0,.55.43,1.01.99,1.01,0,0,0,0,.01,0Z"/><path d="m9.52,33.97c.55,0,.99-.44,1-.99l.05-3.53c0-.55-.43-1.01-.99-1.01h-.01c-.55,0-.99.44-1,.99l-.05,3.53c0,.55.43,1.01.99,1.01h.01Z"/><path d="m12.62,31.35c.55,0,.99-.44,1-.99l.03-2.68c0-.55-.43-1.01-.99-1.01-.53-.03-1.01.44-1.01.99l-.03,2.68c0,.55.43,1.01.99,1.01,0,0,0,0,.01,0Z"/></svg>