<?xml version="1.0" encoding="UTF-8"?><svg id="Art" xmlns="http://www.w3.org/2000/svg" viewBox="0 0 60 60"><defs><style>.cls-1{fill:#231f20;}</style></defs><path class="cls-1" d="m57.07,17l2.59-3.89c.41-.61.45-1.4.1-2.05-.35-.65-1.02-1.06-1.76-1.06h-6v-3c0-1.1-.9-2-2-2h-12v-1c0-.55-.45-1-1-1s-1,.45-1,1v17h-3.78c-.44,0-.84-.21-1.09-.57l-3.21-4.59c-.86-1.15-2.24-1.84-3.67-1.84h-.35c1.3-1.27,2.11-3.04,2.11-5v-2c0-3.86-3.14-7-7-7s-7,3.14-7,7v2c0,1.97.82,3.75,2.14,5.02-1.58.06-3.11.6-4.35,1.57l-1.26,1c-5.59,4.4-6.82,5.37-7.11,5.6h0C.5,22.85-.03,23.94,0,25.11c.03,1.16.6,2.21,1.46,2.78,0,0,4.39,3.43,6.81,5.33.95.75,2.23.95,3.34.57l-4.51,21.38c-.23,1.04-.03,2.11.55,3,.58.9,1.48,1.52,2.51,1.73.27.06.56.1.86.1,1.87,0,3.52-1.33,3.9-3.14l4.09-16.67,4.09,16.64c.39,1.84,2.04,3.17,3.91,3.17.3,0,.58-.03.84-.09,1.05-.22,1.95-.84,2.53-1.74.58-.9.78-1.96.55-3l-4.57-21.63c-.23-1.07-.35-2.19-.35-3.32v-4.38l.14.21c.81,1.22,2.17,1.95,3.64,1.95h6.19v31c0,.55.45,1,1,1s1-.45,1-1v-31.05c1.69-.25,3-1.69,3-3.45s-1.31-3.2-3-3.45v-2.05h6.36c-.27.57-.41,1.21-.34,1.86.18,1.76,1.77,3.14,3.62,3.14h10.36c.74,0,1.42-.4,1.76-1.06.35-.65.31-1.44-.1-2.05l-2.59-3.89ZM14,9v-2c0-2.76,2.24-5,5-5s5,2.24,5,5v2c0,2.76-2.24,5-5,5s-5-2.24-5-5Zm25,15.5c0,.83-.67,1.5-1.5,1.5h-7.69c-.8,0-1.54-.4-1.98-1.06l-1.97-2.96c-.24-.37-.7-.53-1.12-.4-.42.13-.71.52-.71.96v7.69c0,1.27.13,2.53.39,3.74l4.57,21.63c.11.52.01,1.05-.27,1.49-.29.45-.74.76-1.29.87-.12.03-.25.04-.4.04-.94,0-1.76-.67-1.96-1.62l-4.17-17c-.21-.86-.96-1.44-1.86-1.44s-1.65.58-1.86,1.44l-4.18,17.03c-.23,1.06-1.3,1.79-2.38,1.54-.53-.11-.98-.42-1.27-.87-.29-.44-.39-.98-.27-1.5l4.62-21.92c.22-1.01.33-2.07.33-3.23h0s0-9.43,0-9.43c0-.38-.22-.73-.56-.9-.34-.17-.75-.13-1.05.1l-5.15,3.93c-.24.18-.39.47-.39.77,0,.3.13.59.36.79l4.26,3.56c.33.29.53.71.53,1.16v.03c0,.32-.1.61-.28.87-.5.7-1.54.86-2.22.33-2.41-1.9-6.81-5.33-6.88-5.38-.39-.26-.62-.69-.63-1.2-.01-.51.21-.98.62-1.28.11-.09,4.18-3.29,7.13-5.62l1.26-1c.96-.75,2.16-1.17,3.38-1.17h9.83c.82,0,1.58.38,2.05,1.01l3.19,4.56c.62.89,1.65,1.42,2.73,1.42h5.28c.83,0,1.5.67,1.5,1.5Zm-26.99,2.59l-2.55-2.13,2.55-1.94v4.07ZM38,7h12v10h-12V7Zm9.64,15c-.84,0-1.56-.59-1.63-1.34-.04-.43.09-.85.38-1.16.29-.32.68-.49,1.11-.49h2.5c1.1,0,2-.9,2-2v-5h6l-2.59,3.89c-.45.67-.45,1.54,0,2.22l2.59,3.89h-10.36Z"/></svg>