<?xml version="1.0" encoding="UTF-8"?><svg id="Art" xmlns="http://www.w3.org/2000/svg" viewBox="0 0 60 60"><defs><style>.cls-1{fill:#231f20;}</style></defs><path class="cls-1" d="m10.7,8.2l-.89-.13-.41-.85h0c-.36-.75-1.08-1.21-1.9-1.21s-1.54.46-1.9,1.21l-.41.85-.89.13c-.79.12-1.43.67-1.69,1.44-.26.78-.06,1.63.51,2.22l.67.68-.16.96c-.14.83.2,1.64.87,2.12.65.47,1.5.52,2.2.13l.79-.43.79.43c.31.17.66.26,1,.26.42,0,.84-.13,1.21-.39.68-.48,1.01-1.29.87-2.12l-.16-.96.67-.68c.58-.58.77-1.43.51-2.22-.25-.77-.9-1.32-1.69-1.44Zm-.25,2.25l-1.03,1.04c-.23.23-.33.55-.28.87l.24,1.47c.01.09-.02.14-.14.17l-1.27-.69c-.15-.08-.31-.12-.48-.12s-.33.04-.48.12l-1.35.69s-.07-.07-.06-.16l.24-1.47c.05-.32-.05-.64-.28-.87l-1.03-1.04c-.06-.06-.05-.14-.04-.18.03-.08.07-.09.09-.09l1.42-.21c.33-.05.61-.26.75-.56l.63-1.33c.05-.1.14-.1.18,0l.63,1.33c.14.3.43.51.75.56l1.42.21s.06,0,.09.09c.01.04.03.12-.04.18Z"/><path class="cls-1" d="m21.95,8.2l-.9-.13-.41-.85c-.36-.75-1.08-1.21-1.9-1.21s-1.54.46-1.9,1.21l-.41.85-.89.13c-.79.12-1.43.67-1.69,1.44-.26.78-.06,1.63.51,2.22l.67.68-.16.96c-.14.83.2,1.64.87,2.12.36.26.78.39,1.2.39.34,0,.68-.08,1-.26l.79-.43.79.43c.7.38,1.55.33,2.2-.13.68-.48,1.01-1.29.87-2.12l-.16-.96.67-.68c.58-.58.77-1.43.51-2.22-.25-.77-.9-1.32-1.69-1.44Zm-.25,2.25l-1.03,1.04c-.23.23-.33.55-.28.87l.24,1.47c.01.09-.02.14-.14.17l-1.27-.69c-.15-.08-.31-.12-.48-.12s-.33.04-.48.12l-1.35.69s-.07-.07-.06-.16l.24-1.47c.05-.32-.05-.64-.28-.87l-1.03-1.04c-.06-.06-.05-.14-.04-.18.03-.08.07-.09.09-.09l1.42-.21c.33-.05.61-.26.75-.56l.63-1.33c.05-.1.13-.1.18,0h0s.64,1.33.64,1.33c.14.3.42.51.75.56l1.42.21s.06,0,.09.09c.01.04.03.12-.04.18Z"/><path class="cls-1" d="m44.45,8.2l-.89-.13-.41-.85c-.36-.75-1.08-1.21-1.9-1.21s-1.54.46-1.9,1.21l-.41.85-.9.13c-.79.12-1.43.67-1.69,1.44-.26.78-.06,1.63.51,2.22l.67.68-.16.96c-.14.83.2,1.64.87,2.12.36.26.78.39,1.2.39.34,0,.68-.08,1-.26l.79-.43.79.43c.7.38,1.55.33,2.2-.13.68-.48,1.01-1.29.87-2.12l-.16-.96.67-.68c.58-.58.77-1.43.51-2.22-.25-.77-.9-1.32-1.69-1.44Zm-.24,2.25l-1.03,1.04c-.23.23-.33.55-.28.87l.24,1.47c.01.09-.02.14-.14.17l-1.27-.69c-.15-.08-.31-.12-.48-.12s-.33.04-.48.12l-1.35.69s-.07-.07-.06-.16l.24-1.47c.05-.32-.05-.64-.28-.87l-1.03-1.04c-.06-.06-.05-.14-.04-.18.03-.08.07-.09.09-.09l1.42-.21c.33-.05.61-.26.75-.56l.64-1.33c.05-.1.13-.1.18,0l.63,1.33c.14.3.43.51.75.56l1.42.21s.06,0,.09.09c.01.04.03.12-.04.18Z"/><path class="cls-1" d="m33.2,8.2l-.89-.13-.41-.85c-.36-.75-1.08-1.21-1.9-1.21s-1.54.46-1.9,1.21l-.41.85-.9.13c-.79.12-1.43.67-1.69,1.44-.26.78-.06,1.63.51,2.22l.67.68-.16.96c-.14.83.2,1.64.87,2.12.36.26.78.39,1.2.39.34,0,.68-.08,1-.26l.79-.43.79.43c.7.38,1.54.33,2.2-.13.68-.48,1.01-1.29.87-2.12l-.16-.96.67-.68c.58-.58.77-1.43.51-2.22-.25-.77-.9-1.32-1.69-1.44Zm-.25,2.25l-1.03,1.04c-.23.23-.33.55-.28.87l.24,1.47c.01.09-.02.14-.14.17l-1.27-.69c-.15-.08-.31-.12-.48-.12s-.33.04-.48.12l-1.35.69s-.07-.07-.06-.16l.24-1.47c.05-.32-.05-.64-.28-.87l-1.03-1.04c-.06-.06-.05-.14-.04-.18.03-.08.07-.09.09-.09l1.42-.21c.33-.05.61-.26.75-.56l.63-1.33c.05-.1.13-.1.18,0l.63,1.33c.14.3.43.51.75.56l1.42.21s.06,0,.09.09c.01.04.03.12-.04.18Z"/><path class="cls-1" d="m55.7,8.2l-.89-.13-.41-.85h0c-.36-.75-1.08-1.21-1.9-1.21s-1.54.46-1.9,1.21l-.41.85-.89.13c-.79.12-1.43.67-1.69,1.44-.26.78-.06,1.63.51,2.22l.67.68-.16.96c-.14.83.2,1.64.87,2.12.36.26.78.39,1.21.39.34,0,.68-.08,1-.26l.79-.43.79.43c.7.38,1.55.33,2.2-.13.68-.48,1.01-1.29.87-2.12l-.16-.96.67-.68c.58-.58.77-1.43.51-2.22-.25-.77-.9-1.32-1.69-1.44Zm-.24,2.25l-1.03,1.04c-.23.23-.33.55-.28.87l.24,1.47c.01.09-.02.14-.14.17l-1.27-.69c-.15-.08-.31-.12-.48-.12s-.33.04-.48.12l-1.36.69s-.07-.07-.06-.16l.24-1.47c.05-.32-.05-.64-.28-.87l-1.03-1.04c-.06-.06-.05-.14-.04-.18.03-.08.07-.09.09-.09l1.42-.21c.33-.05.61-.26.75-.56l.63-1.33c.05-.1.14-.1.18,0l.63,1.33c.14.3.43.51.75.56l1.42.21s.06,0,.09.09c.01.04.03.12-.04.18Z"/><path class="cls-1" d="m56,0H4C1.79,0,0,1.79,0,4v14c0,2.21,1.79,4,4,4h18.02c.31,0,.6.14.79.39l4.4,5.66c-3.49.39-6.21,3.36-6.21,6.95v4s0,.02,0,.03c0,.03,0,.05,0,.08v1.89c0,1.32.86,2.45,2.05,2.85.29,2.42,1.83,4.46,3.95,5.47v.75c-3.94.49-7,3.86-7,7.93,0,1.1.9,2,2,2h16c1.1,0,2-.9,2-2,0-4.07-3.06-7.44-7-7.93v-.75c2.12-1.01,3.66-3.05,3.95-5.47,1.19-.4,2.05-1.52,2.05-2.85v-5c0-2.17-1.39-4.02-3.33-4.71.4-.65.43-1.47.07-2.15-.38-.7-1.1-1.14-1.9-1.14h-1.02l4.37-5.61c.19-.24.48-.39.79-.39h18.02c2.21,0,4-1.79,4-4V4c0-2.21-1.79-4-4-4Zm-18,58h-16c0-3.04,2.27-5.55,5.21-5.94.44,1.12,1.54,1.94,2.79,1.94s2.37-.81,2.8-1.94c2.93.39,5.2,2.9,5.2,5.94Zm-7-7c0,.55-.45,1-1,1s-1-.47-1-1v-1.08c.33.05.66.08,1,.08s.67-.03,1-.08v1.08Zm6-10c0,.55-.45,1-1,1s-1,.45-1,1c0,2.76-2.24,5-5,5s-5-2.24-5-5c0-.55-.45-1-1-1s-1-.45-1-1v-1.89c0-.54.34-1,.8-1.09.07-.01.15-.02.21-.02.2,0,.37.05.52.16.25.18.58.23.87.13.29-.09.53-.32.64-.61.13-.34.43-.6.78-.68.75-.15,2.02-.81,3.02-1.57.09-.07.21-.07.3,0,1,.76,2.27,1.41,3.01,1.56.36.08.66.34.79.68.11.29.34.52.64.61.3.09.62.04.87-.13.2-.14.46-.19.74-.14.46.09.8.55.8,1.09v1.89Zm-3.02-10.92c.04.08,0,.14,0,.16l-.8,1.21c-.2.31-.22.7-.05,1.03s.51.53.88.53c1.65,0,3,1.35,3,3v.18c-.14-.05-.28-.09-.43-.12-.43-.08-.87-.07-1.28.03-.44-.52-1.04-.89-1.73-1.03-.34-.07-1.33-.54-2.21-1.2-.8-.6-1.91-.6-2.71,0-.88.66-1.87,1.13-2.22,1.2-.68.14-1.28.51-1.72,1.03-.41-.1-.84-.11-1.28-.03-.15.03-.29.07-.43.12v-1.18c0-2.76,2.24-5,5-5h1.98s.01,0,.02,0,.01,0,.02,0h3.82s.09,0,.14.08Zm24.02-12.08c0,1.1-.9,2-2,2h-18.02c-.92,0-1.8.43-2.37,1.16l-5.14,6.61c-.14.19-.33.23-.44.23h-.06c-.11,0-.29-.04-.44-.23l-5.14-6.61c-.56-.73-1.45-1.16-2.37-1.16H4c-1.1,0-2-.9-2-2V4c0-1.1.9-2,2-2h52c1.1,0,2,.9,2,2v14Z"/><path class="cls-1" d="m31.17,43.45s-.4.55-1.17.55-1.15-.52-1.18-.57c-.31-.45-.93-.57-1.38-.27-.46.31-.58.93-.28,1.39.36.54,1.36,1.45,2.83,1.45s2.47-.91,2.83-1.45c.31-.46.18-1.08-.28-1.39-.46-.31-1.08-.18-1.39.28Z"/></svg>