<?xml version="1.0" encoding="UTF-8"?><svg id="Art" xmlns="http://www.w3.org/2000/svg" viewBox="0 0 60 60"><defs><style>.cls-1{fill:#231f20;}</style></defs><path class="cls-1" d="m25.53,26.22c5.32,0,9.64-4.33,9.64-9.64s-4.33-9.64-9.64-9.64-9.64,4.33-9.64,9.64,4.33,9.64,9.64,9.64Zm0-17.29c4.21,0,7.64,3.43,7.64,7.64s-3.43,7.64-7.64,7.64-7.64-3.43-7.64-7.64,3.43-7.64,7.64-7.64Z"/><path class="cls-1" d="m56.23,14.16c-2.59-.58-5.17,1.06-5.74,3.62l-2.93,11.74-13.39-3.76c-.45-.13-.93.08-1.15.49l-6.04,11.24h-2.29l-6.04-11.24c-.23-.44-.75-.63-1.22-.47l-6.34,2.27c-1.97.71-3.6,2.06-4.59,3.8-1,1.72-1.5,3.44-1.5,5.03,0,.1-.83,9.26-1.19,14.18H1c-.55,0-1,.45-1,1s.45,1,1,1h49.06c.55,0,1-.45,1-1s-.45-1-1-1h-10.01l-.51-10.83,12.2,1.44s.14,0,.29,0c.44,0,1.28-.06,2.02-.46,1.13-.61,1.4-1.8,1.42-1.9l4.43-19.41s0,0,0,0,0,0,0,0c.58-2.59-1.06-5.17-3.65-5.75Zm-2.73,24.72s-.1.41-.42.58c-.39.21-1.01.23-1.15.21l-13.33-1.58s-.05,0-.08,0c-.03,0-.05-.01-.08-.01-.04,0-.08.02-.12.03-.06.01-.12.02-.19.05-.06.02-.12.06-.18.09-.05.03-.1.07-.14.11-.05.05-.09.1-.13.15-.04.05-.07.1-.1.16-.03.06-.05.12-.06.19,0,.04-.03.07-.04.11,0,.03,0,.05,0,.08,0,.03-.01.05-.01.08l.57,11.92H13.73l.58-9.23c.03-.55-.38-1.03-.94-1.06-.55-.04-1.03.38-1.06.94l-.59,9.36h-5.9c.36-4.94,1.17-13.92,1.18-14.1,0-1.64.67-3.14,1.23-4.12.76-1.33,2.01-2.36,3.53-2.91l5.53-1.98,5.92,11.01c.17.32.51.53.88.53h3.48c.37,0,.71-.2.88-.53l5.95-11.06,13.61,3.82c.26.07.54.04.77-.1.23-.14.4-.36.47-.62l3.18-12.77c.34-1.51,1.84-2.47,3.36-2.13,1.51.34,2.47,1.85,2.13,3.36l-4.43,19.41Z"/></svg>