<?xml version="1.0" encoding="UTF-8"?><svg id="Art" xmlns="http://www.w3.org/2000/svg" viewBox="0 0 60 60"><path d="m56,0H4C1.79,0,0,1.79,0,4v52c0,2.21,1.79,4,4,4h52c2.21,0,4-1.79,4-4V4c0-2.21-1.79-4-4-4ZM4,2h52c1.1,0,2,.9,2,2v4H2v-4c0-1.1.9-2,2-2Zm52,56H4c-1.1,0-2-.9-2-2V10h56v46c0,1.1-.9,2-2,2Z"/><path d="m29,14H8c-2.21,0-4,1.79-4,4v32c0,2.21,1.79,4,4,4h20c1.1,0,2-.9,2-2v-4.28c.59-.35,1-.98,1-1.72v-30c0-1.1-.9-2-2-2Zm-21,2h21v30H8c-.73,0-1.41.21-2,.56v-28.56c0-1.1.9-2,2-2Zm20,36H8c-1.1,0-2-.9-2-2s.9-2,2-2h20v4Z"/><path d="m52,14h-15c-1.65,0-3,1.35-3,3v10c0,1.65,1.35,3,3,3h15c1.65,0,3-1.35,3-3v-10c0-1.65-1.35-3-3-3Zm1,13c0,.55-.45,1-1,1h-15c-.55,0-1-.45-1-1v-10c0-.55.45-1,1-1h15c.55,0,1,.45,1,1v10Z"/><path d="m46.98,20.08l-2.66-1.73c-.66-.43-1.46-.46-2.15-.09-.72.39-1.17,1.16-1.17,2.01v3.46c0,.85.45,1.62,1.17,2.01.32.17.66.26,1,.26.4,0,.79-.12,1.15-.35l2.66-1.73c.64-.42,1.02-1.14,1.02-1.93s-.38-1.51-1.02-1.92Zm-1.09,2.17h0s-2.66,1.73-2.66,1.73c-.04.02-.06.03-.1,0-.03-.02-.12-.08-.12-.25v-3.46c0-.17.09-.24.12-.25.02,0,.03-.01.05-.01.02,0,.04,0,.06.02l2.66,1.73c.11.07.11.21.11.25s0,.18-.11.25Z"/><path d="m11,31h13c1.1,0,2-.9,2-2v-6c0-1.1-.9-2-2-2h-13c-1.1,0-2,.9-2,2v6c0,1.1.9,2,2,2Zm0-8h13v6s-13,0-13,0v-6Z"/><path d="m5,6h1c.55,0,1-.45,1-1s-.45-1-1-1h-1c-.55,0-1,.45-1,1s.45,1,1,1Z"/><path d="m10,6h1c.55,0,1-.45,1-1s-.45-1-1-1h-1c-.55,0-1,.45-1,1s.45,1,1,1Z"/><path d="m15,6h1c.55,0,1-.45,1-1s-.45-1-1-1h-1c-.55,0-1,.45-1,1s.45,1,1,1Z"/><path d="m49,6h6c.55,0,1-.45,1-1s-.45-1-1-1h-6c-.55,0-1,.45-1,1s.45,1,1,1Z"/><path d="m54,34h-19c-.55,0-1,.45-1,1s.45,1,1,1h19c.55,0,1-.45,1-1s-.45-1-1-1Z"/><path d="m54,40h-19c-.55,0-1,.45-1,1s.45,1,1,1h19c.55,0,1-.45,1-1s-.45-1-1-1Z"/><path d="m54,46h-19c-.55,0-1,.45-1,1s.45,1,1,1h19c.55,0,1-.45,1-1s-.45-1-1-1Z"/><path d="m51,52h-16c-.55,0-1,.45-1,1s.45,1,1,1h16c.55,0,1-.45,1-1s-.45-1-1-1Z"/></svg>