<?xml version="1.0" encoding="UTF-8"?><svg id="Art" xmlns="http://www.w3.org/2000/svg" viewBox="0 0 60 60"><defs><style>.cls-1{fill:#231f20;}</style></defs><path class="cls-1" d="m38.88,13.42c-.31-.46-.94-.57-1.39-.26l-10.59,7.29-2.55-3.7c-.31-.46-.93-.57-1.39-.26-.46.31-.57.94-.26,1.39l3.11,4.52c.19.28.51.43.83.43.2,0,.39-.06.57-.18l11.41-7.85c.46-.31.57-.94.26-1.39Z"/><path class="cls-1" d="m59.83,37.7c-.31-.46-.93-.57-1.39-.26-2.26,1.54-4.53,3.19-6.73,4.89-.32.24-.62.3-.81.27-.13-.02-.17-.08-.19-.1l-7.66-11.16s-.05-.08-.03-.21c.04-.18.2-.45.54-.66,1.62-.99,3.25-2.02,4.83-3.07.46-.3.59-.93.28-1.39-.3-.46-.93-.59-1.39-.28-1.57,1.04-3.17,2.06-4.77,3.03-.54.33-.96.78-1.22,1.3h-1.92c7.37-8.68,8.58-20.87,8.63-21.42.05-.54-.34-1.02-.87-1.08-11.64-1.45-16.35-6.48-16.39-6.53-.19-.21-.46-.33-.74-.33h0c-.28,0-.55.12-.74.33-.05.05-4.75,5.08-16.39,6.53-.54.07-.93.56-.87,1.1.06.55,1.5,12.68,8.89,21.4h-2.19c-.26-.51-.68-.97-1.22-1.3-1.6-.97-3.2-1.99-4.77-3.03-.46-.31-1.08-.18-1.39.28-.31.46-.18,1.08.28,1.39,1.59,1.05,3.21,2.09,4.83,3.07.28.17.43.38.5.55,0,.01,0,.03,0,.04,0,.08.03.15.05.23,0,.02-.02.04-.02.05l-7.66,11.16s-.06.08-.19.1c-.19.03-.49-.03-.81-.27-2.21-1.7-4.47-3.35-6.73-4.89-.46-.31-1.08-.19-1.39.26-.31.46-.19,1.08.26,1.39,2.23,1.52,4.46,3.14,6.64,4.82.59.45,1.27.7,1.94.7.14,0,.27,0,.4-.03.63-.1,1.18-.43,1.53-.94l.35-.51c.43.4.9.91,1.14,1.38.12.23.19.41.27.58,0,0,0,0,0,0-.22.18-.42.37-.59.6-1.09,1.47-.78,3.54.69,4.63l.12.09c.58.43,1.26.65,1.96.65.08,0,.16-.01.24-.02,0,.06,0,.11,0,.17.13.89.61,1.68,1.33,2.22.59.44,1.29.67,2.01.67.16,0,.33-.01.5-.04.13.85.58,1.66,1.33,2.21.59.44,1.29.67,2,.67.17,0,.34-.01.51-.04.05,0,.09-.03.14-.03.15.71.54,1.37,1.17,1.84h0c.54.4,1.17.61,1.83.61.15,0,.31-.01.46-.04.67-.1,1.27-.42,1.73-.89.51.27,1.07.41,1.62.41,1.11,0,2.21-.53,2.89-1.52.3-.44.48-.93.56-1.43l.36.25c.6.41,1.29.61,1.97.61,1.11,0,2.21-.53,2.89-1.52.31-.45.49-.95.56-1.46.54.3,1.12.46,1.7.46,1.11,0,2.21-.53,2.89-1.52.31-.45.48-.95.56-1.45.59.4,1.26.59,1.93.59,1.11,0,2.21-.53,2.89-1.52,1.09-1.59.68-3.77-.91-4.86l-10.2-6.91c-.17-.11-.36-.17-.56-.17h-1.79c-3.05,0-3.49-2.3-3.53-2.56-.07-.5-.49-.87-.99-.87h-5.89c-.49,0-.9.35-.99.83-.27,1.54-.8,2.6-1.56,3.07-.29.18-.59.26-.84.29v-4.18l5.15-2.88h14.32c.06.14.13.28.22.41l7.66,11.16c.35.51.89.84,1.53.94.13.02.27.03.4.03.66,0,1.35-.24,1.93-.7,2.18-1.68,4.41-3.3,6.64-4.82.46-.31.57-.93.26-1.39Zm-45.71,11.11h0l-.12-.09c-.58-.43-.7-1.25-.27-1.83.21-.28.51-.46.86-.52.07,0,.13-.01.2-.01.28,0,.55.09.78.26l.12.09c.28.21.46.51.52.86.04.26-.02.52-.14.75l-.28.38c-.19.18-.42.31-.68.35-.35.05-.69-.03-.97-.24Zm3.55,3.02c-.3-.22-.49-.54-.54-.91-.05-.34.04-.67.22-.95.07-.08.15-.15.22-.24.1-.13.17-.27.25-.42l.61-.83c.22-.3.54-.49.91-.54.07,0,.14-.01.21-.01.29,0,.58.09.82.27.3.22.49.54.54.91.05.37-.04.73-.26,1.03l-1.05,1.41c-.45.61-1.32.74-1.93.29Zm4.86,3.09c-.37.06-.73-.04-1.03-.26-.61-.45-.74-1.32-.29-1.93l1.04-1.41s0,0,0,0l.93-1.26c.22-.3.54-.49.91-.54.07,0,.14-.01.21-.01.29,0,.58.09.82.27.3.22.49.54.54.91.05.37-.04.73-.26,1.03l-1.98,2.67c-.22.3-.54.49-.91.54Zm4.57,1.58l-.27.37c-.17.23-.42.38-.71.43-.28.04-.57-.03-.8-.2-.48-.36-.58-1.03-.23-1.51l.27-.37c.17-.23.42-.38.71-.43.28-.04.57.03.8.2.48.36.58,1.03.23,1.51Zm-6.88-23.02c-.32.18-.51.51-.51.87v5.68c0,.43.28.82.7.95.17.05,1.65.49,3.16-.43,1.12-.68,1.91-1.9,2.34-3.63h4.31c.54,1.5,2.06,3.42,5.29,3.42h1.48l9.94,6.73c.68.47.85,1.4.39,2.08-.47.68-1.4.86-2.08.38l-2.55-1.73s0,0,0,0l-7.16-4.91c-.45-.31-1.08-.2-1.39.26-.31.46-.2,1.08.26,1.39l7.16,4.92c.68.47.85,1.4.39,2.08-.47.68-1.4.85-2.08.39l-7.17-4.92c-.37-.26-.85-.21-1.18.06-.07.04-.11.11-.17.16-.01.01-.03.02-.04.04,0,0,0,0,0,0-.03.03-.06.05-.08.08-.3.46-.18,1.08.28,1.39l4.9,3.24c.68.47.85,1.4.39,2.08-.47.68-1.4.85-2.06.4l-4.61-3.29c-.45-.32-1.07-.22-1.4.23-.32.45-.22,1.07.23,1.4l1.44,1.02c.07.09.14.18.24.24.33.23.55.57.62.96.07.39-.01.79-.24,1.12-.41.6-1.18.8-1.81.53.33-1.19-.08-2.52-1.13-3.29-.32-.23-.67-.4-1.04-.5.53-.72.75-1.61.62-2.5-.13-.89-.61-1.68-1.33-2.22-1.11-.82-2.56-.86-3.69-.22-.23-.53-.59-1.01-1.07-1.36-.73-.54-1.62-.76-2.51-.63-.41.06-.8.2-1.15.4-.23-.49-.57-.93-1.02-1.26l-.12-.09c-.63-.47-1.39-.68-2.17-.63-.02-.04-.03-.07-.05-.11-.09-.2-.18-.39-.31-.65-.43-.87-1.21-1.65-1.79-2.16l6.17-8.98c.09-.13.16-.27.22-.41h3.93l-2.54,1.42Zm6.38-3.42h-3c-6.74-6.97-8.94-17.44-9.47-20.66,9.25-1.35,14.13-4.82,15.87-6.33,1.74,1.51,6.63,4.98,15.89,6.33-.46,3.2-2.47,13.74-9.23,20.65h-10.06Z"/></svg>