<?xml version="1.0" encoding="UTF-8"?><svg id="Art" xmlns="http://www.w3.org/2000/svg" viewBox="0 0 60 60"><path d="m3.05,21.13c0,.24.09.47.26.65l2.86,3.09-.5,4.18c-.03.24.04.48.17.68l-.08.69.62-.29c.09.03.19.04.28.04.14,0,.29-.03.42-.09l3.82-1.77,3.82,1.77c.22.1.47.11.7.05l.63.29-.08-.69c.13-.2.2-.43.17-.68l-.5-4.18,2.86-3.09c.17-.18.25-.41.26-.65l.47-.51-.68-.13c-.15-.19-.35-.32-.59-.37l-4.13-.82-2.05-3.67c-.11-.2-.3-.33-.51-.41l-.36-.64-.36.64c-.21.07-.4.2-.51.41l-2.05,3.67-4.13.82c-.24.05-.44.18-.59.37l-.68.13.47.51Zm2.94.6l2.83-.56c.29-.06.54-.24.68-.49l1.41-2.52,1.41,2.52c.14.26.39.44.68.49l2.83.56-1.96,2.12c-.2.22-.29.51-.26.8l.34,2.86-2.62-1.21c-.13-.06-.28-.09-.42-.09s-.29.03-.42.09l-2.62,1.21.34-2.86c.03-.29-.06-.58-.26-.8l-1.96-2.12Z"/><path d="m41.24,21.13c0,.24.09.47.26.65l2.86,3.09-.5,4.18c-.03.24.04.48.17.68l-.08.69.63-.29c.23.07.47.06.7-.05l3.82-1.77,3.82,1.77c.13.06.28.09.42.09.1,0,.19-.02.28-.04l.62.29-.08-.69c.13-.2.2-.43.17-.68l-.5-4.18,2.86-3.09c.17-.18.25-.41.26-.65l.47-.51-.68-.13c-.15-.19-.35-.32-.59-.37l-4.13-.82-2.05-3.67c-.11-.2-.3-.33-.51-.41l-.36-.64-.36.64c-.21.07-.4.2-.51.41l-2.05,3.67-4.13.82c-.24.05-.44.18-.59.37l-.68.13.47.51Zm2.94.6l2.83-.56c.29-.06.54-.24.68-.49l1.41-2.52,1.41,2.52c.14.26.39.44.68.49l2.83.56-1.96,2.12c-.2.22-.29.51-.26.8l.34,2.86-2.62-1.21c-.13-.06-.28-.09-.42-.09s-.29.03-.42.09l-2.62,1.21.34-2.86c.03-.29-.06-.58-.26-.8l-1.96-2.12Z"/><path d="m21.19,11.81c0,.24.09.47.26.65l3.31,3.57-.58,4.83c-.03.24.04.48.17.68l-.08.69.63-.29c.23.07.47.06.7-.05l4.42-2.04,4.42,2.04c.13.06.28.09.42.09.1,0,.19-.02.28-.04l.62.29-.08-.69c.13-.2.2-.43.17-.68l-.58-4.83,3.31-3.57c.17-.18.25-.41.26-.65l.47-.51-.68-.13c-.15-.19-.35-.32-.59-.37l-4.77-.95-2.37-4.25c-.11-.2-.3-.33-.51-.41l-.36-.64-.36.64c-.21.07-.4.2-.51.41l-2.37,4.25-4.77.95c-.24.05-.44.18-.59.37l-.68.13.47.51Zm2.94.6l3.47-.69c.29-.06.54-.24.68-.49l1.73-3.09,1.73,3.09c.14.26.39.44.68.49l3.47.69-2.4,2.6c-.2.22-.29.51-.26.8l.42,3.51-3.21-1.48c-.13-.06-.28-.09-.42-.09s-.29.03-.42.09l-3.21,1.48.42-3.51c.03-.29-.06-.58-.26-.8l-2.4-2.6Z"/><path d="m22.21,47.81c-.55-.02-1.03.38-1.06.94l-.32,5.1c-.03.55.38,1.03.94,1.06.02,0,.04,0,.06,0,.52,0,.96-.41,1-.94l.32-5.1c.03-.55-.38-1.03-.94-1.06Z"/><path d="m37.8,47.81c-.55.04-.97.51-.94,1.06l.32,5.1c.03.53.47.94,1,.94.02,0,.04,0,.06,0,.55-.04.97-.51.94-1.06l-.32-5.1c-.03-.55-.5-.95-1.06-.94Z"/><path d="m30.01,24.46c-3.68,0-6.67,2.99-6.67,6.67s2.99,6.67,6.67,6.67,6.67-2.99,6.67-6.67-2.99-6.67-6.67-6.67Zm0,11.33c-2.57,0-4.67-2.09-4.67-4.67s2.09-4.67,4.67-4.67,4.67,2.09,4.67,4.67-2.09,4.67-4.67,4.67Z"/><path d="m59.53,47.66c-.01-.87-.27-1.76-.78-2.63-.53-.94-1.41-1.66-2.46-2.04l-3.02-1.08c-.46-.17-.98.03-1.22.47l-2.73,5.07h-.46l-2.73-5.07c-.23-.44-.76-.63-1.22-.47l-2.41.87c-.06-.11-.1-.21-.16-.32-.66-1.16-1.74-2.06-3.06-2.53l-3.94-1.41c-.47-.17-.98.03-1.22.47l-3.65,6.78h-.97l-3.65-6.78c-.23-.44-.75-.63-1.22-.47l-3.94,1.41c-1.31.47-2.39,1.37-3.05,2.53-.06.1-.1.21-.16.31l-2.43-.86c-.46-.16-.98.03-1.22.47l-2.73,5.07h-.46l-2.73-5.07c-.23-.44-.75-.64-1.22-.47l-3.02,1.08c-1.05.38-1.93,1.11-2.46,2.04-.51.88-.77,1.77-.78,2.64-.05.43-.35,3.35-.47,6.21-.02.55.41,1.02.96,1.04.01,0,.03,0,.04,0,.53,0,.98-.42,1-.96.12-3,.46-6.09.46-6.12,0-.04,0-.07,0-.11,0-.66.28-1.29.52-1.7.3-.53.8-.93,1.4-1.15l2.21-.79,2.6,4.84c.17.32.51.53.88.53h1.66c.37,0,.71-.2.88-.53l2.6-4.84,1.6.57c-.08.38-.13.75-.14,1.12-.05.5-.46,4.34-.61,8.1-.02.55.41,1.02.96,1.04.56.03,1.02-.41,1.04-.96.16-3.93.6-7.97.61-8.01,0-.04,0-.07,0-.11,0-.93.39-1.8.72-2.37.43-.75,1.14-1.33,1.99-1.64l3.13-1.12,3.52,6.55c.17.32.51.53.88.53h2.16c.37,0,.71-.2.88-.53l3.52-6.55,3.12,1.12c.86.31,1.57.9,2,1.65.33.56.71,1.43.71,2.37,0,.04,0,.07,0,.11,0,.04.45,4.08.61,8.01.02.54.46.96,1,.96.01,0,.03,0,.04,0,.55-.02.98-.49.96-1.04-.15-3.76-.56-7.61-.61-8.1,0-.37-.06-.74-.13-1.11l1.59-.58,2.6,4.84c.17.32.51.53.88.53h1.66c.37,0,.71-.2.88-.53l2.6-4.84,2.2.79c.61.22,1.1.63,1.41,1.16.24.41.52,1.03.52,1.7,0,.04,0,.07,0,.11,0,.03.34,3.12.46,6.12.02.54.46.96,1,.96.01,0,.03,0,.04,0,.55-.02.98-.49.96-1.04-.11-2.86-.42-5.78-.47-6.21Z"/><path d="m55.05,49c-.55.04-.97.51-.94,1.06l.25,3.91c.03.53.47.94,1,.94.02,0,.04,0,.06,0,.55-.04.97-.51.94-1.06l-.25-3.91c-.03-.55-.5-.96-1.06-.94Z"/><path d="m49.1,31.13c-2.94,0-5.34,2.39-5.34,5.34s2.39,5.34,5.34,5.34,5.34-2.39,5.34-5.34-2.39-5.34-5.34-5.34Zm0,8.67c-1.84,0-3.34-1.5-3.34-3.34s1.5-3.34,3.34-3.34,3.34,1.5,3.34,3.34-1.5,3.34-3.34,3.34Z"/><path d="m4.95,49c-.56-.02-1.03.38-1.06.94l-.25,3.91c-.03.55.38,1.03.94,1.06.02,0,.04,0,.06,0,.52,0,.96-.41,1-.94l.25-3.91c.03-.55-.38-1.03-.94-1.06Z"/><path d="m10.9,31.13c-2.94,0-5.34,2.39-5.34,5.34s2.39,5.34,5.34,5.34,5.34-2.39,5.34-5.34-2.39-5.34-5.34-5.34Zm0,8.67c-1.84,0-3.34-1.5-3.34-3.34s1.5-3.34,3.34-3.34,3.34,1.5,3.34,3.34-1.5,3.34-3.34,3.34Z"/></svg>