<?xml version="1.0" encoding="UTF-8"?><svg id="Art" xmlns="http://www.w3.org/2000/svg" viewBox="0 0 60 60"><defs><style>.cls-1{fill:#231f20;}</style></defs><path class="cls-1" d="m58.84,25.56c-2.25-4.83-6.92-5.92-7.03-5.94-4.67-1.45-9.07-1.02-12.39,1.21-3.02,2.03-4.87,5.3-5.21,9.31v2.4l-2.83,6.42c-.13.31-.11.66.07.94.18.28.49.46.82.46l1.47.04-.14,3.4c-.03.76.26,1.5.8,2.03.54.53,1.28.81,1.98.77h2.74s.02,7.08.02,7.08c0,.55.49.97,1,1,.55,0,1-.45,1-1l-.02-8.06c0-.55-.45-1-1-1l-3.8-.02c-.27.02-.44-.11-.52-.19-.08-.08-.22-.25-.2-.52l.18-4.42c.01-.27-.09-.53-.27-.73s-.44-.31-.71-.32l-1-.02,2.31-5.25c.06-.13.08-.26.08-.4v-2.52c.28-3.31,1.82-6.06,4.33-7.74,2.81-1.89,6.6-2.23,10.76-.94.16.04,3.93.94,5.75,4.88,1.97,4.28.86,10.68-3.26,18.59-.65,1.59-.98,3.27-.98,4.99v3.66c0,.55.45,1,1,1s1-.45,1-1v-3.66c0-1.46.28-2.88.8-4.15,4.45-8.54,5.55-15.38,3.25-20.31Z"/><path class="cls-1" d="m25.8,19.09v-2.48c-.35-3.92-2.2-7.2-5.21-9.22-3.32-2.23-7.72-2.66-12.31-1.23-.2.04-4.86,1.13-7.11,5.96C-1.14,17.04-.04,23.88,4.37,32.34c.55,1.35.83,2.77.83,4.23v3.66c0,.55.45,1,1,1s1-.45,1-1v-3.66c0-1.72-.33-3.4-1.02-5.07C2.1,23.66.99,17.26,2.96,12.99c1.82-3.94,5.59-4.85,5.83-4.9,4.08-1.27,7.87-.92,10.68.96,2.5,1.68,4.04,4.43,4.33,7.65v2.61c0,.14.03.28.08.4l2.31,5.25-.99.02c-.27,0-.52.12-.71.32s-.28.46-.27.73l.18,4.42c.01.26-.12.44-.2.52-.08.08-.26.21-.59.19l-3.74.02c-.55,0-.99.45-1,1l-.02,8.06c0,.55.45,1,1,1h0c.55,0,1-.45,1-1l.02-7.07h2.68c.76.04,1.5-.25,2.04-.78.54-.53.83-1.27.8-2.03l-.14-3.4,1.47-.04c.33,0,.64-.18.82-.46s.21-.63.07-.94l-2.83-6.42Z"/><path class="cls-1" d="m38.31,15.05h1.3v2.65c0,.41.26.79.64.93.12.04.24.07.36.07.28,0,.55-.12.75-.33l2.96-3.31h14.68c.55,0,1-.45,1-1v-7.59c0-.55-.45-1-1-1h-20.69c-.55,0-1,.45-1,1v7.59c0,.55.45,1,1,1Zm1-7.59h18.69v5.59h-14.13c-.28,0-.56.12-.75.33l-1.52,1.7v-1.03c0-.55-.45-1-1-1h-1.3v-5.59Z"/><path class="cls-1" d="m26.94,45.08h-1.86l-2.96-3.31c-.28-.31-.72-.42-1.1-.27-.39.15-.64.52-.64.93v2.65H6.25c-.55,0-1,.45-1,1v7.59c0,.55.45,1,1,1h20.69c.55,0,1-.45,1-1v-7.59c0-.55-.45-1-1-1Zm-1,7.59H7.25v-5.59h14.13c.55,0,1-.45,1-1v-1.03l1.52,1.7c.19.21.46.33.75.33h1.3v5.59Z"/></svg>