<?xml version="1.0" encoding="UTF-8"?><svg id="Art" xmlns="http://www.w3.org/2000/svg" viewBox="0 0 60 60"><path d="m36.54,32.55l.02-.21h-.21c-.18-.15-.39-.25-.63-.25h-11.45c-.24,0-.45.1-.63.25h-.21l.02.21c-.13.19-.2.42-.18.66l2.44,21.08c.03.25.15.47.32.63h0s0,0,0,0c.18.16.41.25.66.25h6.58c.25,0,.48-.09.66-.25h0c.18-.17.3-.39.32-.64l2.44-21.08c.03-.23-.05-.46-.18-.66Zm-1.94,1.54l-2.2,19.08h-4.8l-2.2-19.08h9.21Z"/><path d="m48.35,23.1l.05-.27h-.28c-.18-.15-.39-.25-.63-.25h-2.16v-8.86c0-.34-.17-.65-.45-.83l-4.01-2.66.52-.76c.31-.46.2-1.08-.26-1.39-.45-.31-1.08-.2-1.39.26l-2.19,3.19c-.16.23-.2.5-.16.75l-3.09-1.1c-.46-.17-.98.03-1.22.47l-2.84,5.28h-.52l-2.84-5.28c-.23-.44-.75-.64-1.22-.47l-3.13,1.12c-1.08.39-1.98,1.14-2.53,2.1-.52.91-.79,1.82-.81,2.72-.04.39-.3,2.84-.44,5.47h-6.27c-.24,0-.45.1-.63.25h-.28l.05.27c-.11.2-.17.43-.13.66l.88,4.67c.09.47.5.82.98.82h4.57l3.32,28.75h-3.59c-.55,0-1,.45-1,1s.45,1,1,1h24.63c.55,0,1-.45,1-1s-.45-1-1-1h-3.59l3.32-28.75h4.57c.48,0,.89-.34.98-.82l.88-4.67c.04-.23-.02-.46-.13-.66Zm-2.56,4.15H14.21l-.5-2.67h9.78s.01,0,.02,0,.01,0,.02,0h12.83s0,0,0,0c0,0,.01,0,.02,0h.1s.01,0,.02,0,.01,0,.02,0h3.76s0,0,0,0c0,0,.01,0,.02,0h4.05s0,0,0,0,0,0,0,0h1.95l-.5,2.67Zm-24.57-10.09c0-.7.29-1.35.54-1.78.31-.55.84-.98,1.47-1.21l2.32-.83,2.71,5.05c.17.32.51.53.88.53h1.72c.37,0,.71-.2.88-.53l2.71-5.05,2.31.83c.64.23,1.16.66,1.48,1.22.25.43.54,1.08.54,1.78,0,.04,0,.07,0,.11,0,.03.28,2.56.43,5.3h-1.79l-.2-3.11c-.03-.54-.48-.94-1.04-.94-.55.03-.97.48-.95,1.03l.09,3.02h-10.66l.09-3.02c.02-.55-.41-1-.95-1.03-.53,0-1.01.39-1.04.94l-.2,3.11h-1.79c.15-2.75.43-5.28.43-5.3,0-.04,0-.07,0-.11Zm17.99-4.5l.54-.79,3.59,2.38v8.32h-2.12c-.14-2.63-.4-5.09-.44-5.47-.01-.9-.28-1.81-.8-2.71-.31-.54-.73-.99-1.22-1.37.18-.07.34-.19.46-.36Zm-15.92,45.34l-3.32-28.75h20.06l-3.32,28.75h-13.42Z"/><path d="m30,10.99c3.03,0,5.5-2.47,5.5-5.5s-2.47-5.5-5.5-5.5-5.5,2.47-5.5,5.5,2.47,5.5,5.5,5.5Zm0-8.99c1.93,0,3.5,1.57,3.5,3.5s-1.57,3.5-3.5,3.5-3.5-1.57-3.5-3.5,1.57-3.5,3.5-3.5Z"/></svg>