<?xml version="1.0" encoding="UTF-8"?><svg id="Art" xmlns="http://www.w3.org/2000/svg" viewBox="0 0 60 60"><path d="m6.93,46.12v-12.25c0-.55-.45-1-1-1s-1,.45-1,1v12.25c0,.55.45,1,1,1s1-.45,1-1Z"/><path d="m11.84,46.12v-16.72c0-.55-.45-1-1-1s-1,.45-1,1v16.72c0,.55.45,1,1,1s1-.45,1-1Z"/><path d="m16.76,46.12v-20.46c0-.55-.45-1-1-1s-1,.45-1,1v20.46c0,.55.45,1,1,1s1-.45,1-1Z"/><path d="m21.67,46.12v-15.08c0-.55-.45-1-1-1s-1,.45-1,1v15.08c0,.55.45,1,1,1s1-.45,1-1Z"/><path d="m26.58,46.12v-8.69c0-.55-.45-1-1-1s-1,.45-1,1v8.69c0,.55.45,1,1,1s1-.45,1-1Z"/><path d="m31.49,46.12v-6.69c0-.55-.45-1-1-1s-1,.45-1,1v6.69c0,.55.45,1,1,1s1-.45,1-1Z"/><path d="m36.41,46.12v-5.62c0-.55-.45-1-1-1s-1,.45-1,1v5.62c0,.55.45,1,1,1s1-.45,1-1Z"/><path d="m41.32,46.12v-6.69c0-.55-.45-1-1-1s-1,.45-1,1v6.69c0,.55.45,1,1,1s1-.45,1-1Z"/><path d="m59.7,48.93l-2.77-2.77,1.03-1.03c.39-.39.39-1.02,0-1.41l-7.82-7.82c-.19-.19-.44-.29-.71-.29h-3.06l-2.17-2.17c3.51-4.14,3.77-10.1.79-14.52l8.64-6.94-.31,3.93s0,.05,0,.08c0,.52.4.96.92,1,.03,0,.05,0,.08,0,.52,0,.96-.4,1-.92l.49-6.32s0-.05,0-.08c0-.24-.08-.47-.24-.65-.17-.2-.42-.33-.68-.35l-6.32-.49c-.55-.04-1.03.37-1.08.92,0,.03,0,.05,0,.08,0,.52.4.96.92,1l3.89.3-8.58,6.89c-.07-.08-.13-.16-.21-.23-4.7-4.7-12.35-4.7-17.04,0-.68.68-1.24,1.42-1.73,2.2l-4.93-2.55c.04-.2.06-.41.06-.63,0-1.91-1.55-3.46-3.46-3.46s-3.46,1.55-3.46,3.46c0,.52.12,1.01.33,1.45l-7.65,4.97c-.6-.51-1.37-.83-2.22-.83C1.54,21.76,0,23.31,0,25.21s1.55,3.46,3.46,3.46,3.46-1.55,3.46-3.46c0-.33-.06-.65-.15-.95l7.92-5.14c.52.31,1.12.51,1.77.51.97,0,1.85-.41,2.48-1.05l4.94,2.55c-1.77,4.35-.89,9.54,2.64,13.07,2.35,2.35,5.44,3.52,8.52,3.52,2.77,0,5.54-.96,7.78-2.85l2.17,2.17v3.06c0,.27.11.52.29.71l7.81,7.82c.19.19.44.29.71.29s.52-.11.71-.29l1.03-1.03,2.77,2.77c.2.2.45.29.71.29s.51-.1.71-.29.29-.45.29-.71-.1-.51-.29-.71ZM3.45,26.67c-.8,0-1.46-.65-1.46-1.46s.65-1.46,1.46-1.46,1.46.65,1.46,1.46-.65,1.46-1.46,1.46Zm13-9.04c-.8,0-1.46-.65-1.46-1.46s.65-1.46,1.46-1.46,1.46.65,1.46,1.46c0,.24-.06.46-.17.66,0,0,0,0,0,0,0,0,0,0,0,0-.24.46-.73.79-1.28.79Zm11.46.93c1.96-1.96,4.53-2.94,7.11-2.94s5.15.98,7.11,2.94c.02.02.04.05.06.07l-5.28,4.24c-.55-.36-1.2-.58-1.9-.58-.97,0-1.85.41-2.48,1.05l-5.98-3.09c.39-.6.84-1.18,1.36-1.7Zm5.8,6.54s0,0,0-.01c0,0,0,0,0-.01.24-.46.72-.78,1.28-.78.8,0,1.46.65,1.46,1.46s-.65,1.46-1.46,1.46-1.46-.65-1.46-1.46c0-.24.06-.45.16-.65Zm-5.8,7.68c-2.9-2.9-3.65-7.13-2.26-10.73l5.96,3.08c-.04.2-.06.41-.06.63,0,1.91,1.55,3.46,3.46,3.46s3.46-1.55,3.46-3.46c0-.48-.1-.93-.27-1.35l5.26-4.22c2.52,3.88,2.1,9.12-1.27,12.54-.02.02-.04.02-.06.04s-.02.04-.04.06c-3.92,3.87-10.26,3.86-14.16-.05Zm25.87,13.72l-6.81-6.82v-2.06s2.06,0,2.06,0l6.82,6.82-2.06,2.06Z"/><path d="m48.46,48.81H2.25c-.55,0-1,.45-1,1s.45,1,1,1h46.22c.55,0,1-.45,1-1s-.45-1-1-1Z"/></svg>