<?xml version="1.0" encoding="UTF-8"?><svg id="Art" xmlns="http://www.w3.org/2000/svg" viewBox="0 0 60 60"><path d="m59.63,42.43c-.38-.91-1.09-1.63-2.01-2-.92-.38-1.92-.37-2.86.02l-4.51,2v-23.5l3.49-3.49v1.66c0,.55.45,1,1,1s1-.45,1-1v-4.03c.01-.27-.07-.55-.28-.76,0,0,0,0,0,0-.18-.18-.43-.3-.71-.3h-4.09c-.55,0-1,.45-1,1s.45,1,1,1h1.69l-14.46,14.46-1.04-1.04h0s-4.94-4.95-4.94-4.95c-.39-.39-1.02-.39-1.41,0l-1.61,1.61s0,0,0,0l-6.56,6.56s0,0,0,0l-4.03,4.03c-.39.39-.39,1.02,0,1.41.2.2.45.29.71.29s.51-.1.71-.29l2.33-2.33v4.58c-.7-.14-1.42-.23-2.14-.23h-4.71v-1.3c0-.55-.45-1-1-1H.92c-.55,0-1,.45-1,1s.45,1,1,1h12.25v17.14H3.45c-.55,0-1,.45-1,1s.45,1,1,1h10.72c.55,0,1-.45,1-1v-1.3h3.43l11.92,3.97c.83.28,1.7.42,2.57.42,1.3,0,2.59-.31,3.75-.91l20.8-10.88c1.89-.79,2.78-2.96,2-4.85Zm-11.38.9l-4.56,2.02v-19.85l4.56-4.56v22.39Zm-9.66-12.73l3.1-3.1v15.56c-.6-.54-1.38-.88-2.24-.9,0,0,0,0-.02,0h-.02s-.04,0-.06,0c-.01,0-.02,0-.03,0h-2.2v-11.6l.04.04c.39.39,1.02.39,1.41,0Zm-3.46-2.04v13.6h-4.28l-.28-.13v-16.8l.62-.62,3.94,3.94Zm-11.12,3.23l4.56-4.56v13.87l-4.2-1.96c-.12-.05-.24-.09-.36-.14v-7.2Zm32.77,13.68l-20.88,10.92c-1.46.76-3.2.89-4.77.37l-12.07-4.02c-.1-.03-.21-.05-.32-.05h-3.59v-12.55h4.71c1.25,0,2.51.28,3.65.81l6.68,3.12c.13.06.28.09.42.09h8.79c.8.03,1.43.68,1.43,1.49s-.67,1.49-1.49,1.49h-10.46c-.06,0-.12,0-.17.02-1.05.18-3.03,1.09-3.03,3.19,0,.55.45,1,1,1s1-.45,1-1c0-.83,1.03-1.14,1.31-1.21h10.42s.05-.01.07-.01c.53-.02,1.02-.16,1.46-.4.01,0,.03,0,.04,0l2.06-.91s0,0,0,0l12.47-5.52c.42-.18.89-.18,1.31,0,.42.17.75.5.93.92.36.87-.05,1.87-1,2.27Z"/><path d="m33.07,8.08c.55,0,1-.45,1-1V1.21c0-.55-.45-1-1-1s-1,.45-1,1v5.87c0,.55.45,1,1,1Z"/><path d="m20.14,10.82c.19.32.52.5.87.5.17,0,.34-.04.5-.13.48-.28.64-.89.37-1.37l-2.94-5.08c-.28-.48-.89-.64-1.37-.37-.48.28-.64.89-.37,1.37l2.94,5.08Z"/><path d="m6.59,17.08l5.08,2.93c.16.09.33.13.5.13.35,0,.68-.18.87-.5.28-.48.11-1.09-.37-1.37l-5.08-2.93c-.48-.28-1.09-.11-1.37.37-.28.48-.11,1.09.37,1.37Z"/><path d="m3.07,32.22h5.87c.55,0,1-.45,1-1s-.45-1-1-1H3.07c-.55,0-1,.45-1,1s.45,1,1,1Z"/><path d="m44.63,11.18c.16.09.33.13.5.13.35,0,.68-.18.87-.5l2.94-5.08c.28-.48.11-1.09-.37-1.37-.48-.28-1.09-.11-1.37.37l-2.94,5.08c-.28.48-.11,1.09.37,1.37Z"/><path d="m7.94,53.08c.36,0,.67-.19.85-.47.18.28.49.47.85.47h1.5c.55,0,1-.45,1-1s-.45-1-1-1h-1.5c-.36,0-.67.19-.85.47-.18-.28-.49-.47-.85-.47h-1.5c-.55,0-1,.45-1,1s.45,1,1,1h1.5Z"/></svg>