<?xml version="1.0" encoding="UTF-8"?><svg id="Art" xmlns="http://www.w3.org/2000/svg" viewBox="0 0 60 60"><path d="m47.52,45.08c.62-.53,1.75-.53,2.37,0,.15.13.41.42.41.83,0,.56.46,1.02,1.02,1.02s1.02-.46,1.02-1.02c0-.9-.4-1.74-1.12-2.37-.42-.37-.95-.61-1.5-.74v-1.51c0-.56-.46-1.02-1.02-1.02s-1.02.46-1.02,1.02v1.51c-.55.14-1.07.38-1.5.74-.72.62-1.12,1.46-1.12,2.37s.4,1.74,1.12,2.37c.68.59,1.57.91,2.51.91.45,0,.87.15,1.18.41.15.13.41.42.41.83s-.26.69-.41.83c-.62.53-1.75.53-2.37,0-.15-.13-.41-.42-.41-.83,0-.56-.46-1.02-1.02-1.02s-1.02.46-1.02,1.02c0,.9.4,1.74,1.12,2.37.43.37.94.62,1.5.76v1.49c0,.56.46,1.02,1.02,1.02s1.02-.46,1.02-1.02v-1.49c.55-.15,1.07-.4,1.5-.76.72-.62,1.12-1.46,1.12-2.37s-.4-1.74-1.12-2.37c-.68-.59-1.57-.91-2.52-.91-.45,0-.88-.15-1.18-.41-.15-.13-.41-.42-.41-.83s.26-.69.41-.83Z"/><path d="m51.87,37.31v-21.24s0,0,0,0V6.81c0-3.45-2.79-6.25-6.23-6.27-.03,0-.06-.02-.09-.02H6.8c-.06,0-.11.02-.17.03-.12,0-.25-.02-.37-.02C2.8.53-.02,3.35-.02,6.81v1.37c0,.56.46,1.02,1.02,1.02h9.5v41.88c0,3.45,2.79,6.25,6.24,6.27.03,0,.05.02.08.02h25.3s.01,0,.02,0c1.85,1.33,4.12,2.12,6.57,2.12,6.24,0,11.32-5.08,11.32-11.32,0-5.14-3.44-9.48-8.14-10.85Zm-2.04-30.5v13.46s0,0,0,0v16.63c-.37-.04-.75-.06-1.14-.06-6.24,0-11.32,5.08-11.32,11.31,0,.18.02.35.03.52h-15.38c-.05,0-.11,0-.16.01l-.17.03c-.28.04-.53.2-.68.43-.16.23-.21.52-.15.79.07.31.14.81.14,1.12,0,2.34-1.9,4.24-4.24,4.24s-4.24-1.9-4.24-4.24V6.81c0-1.64-.64-3.14-1.68-4.26h34.66s.05.02.08.02c2.34,0,4.24,1.9,4.24,4.24Zm-39.34,0v.35H2.02v-.35c0-2.34,1.9-4.24,4.24-4.24s4.24,1.9,4.24,4.24Zm10.88,48.52c1.04-1.12,1.68-2.61,1.68-4.26,0-.11,0-.23-.01-.35h14.63s.02,0,.02,0c.4,1.72,1.18,3.29,2.26,4.61h-18.58Zm27.33,2.12c-5.12,0-9.28-4.16-9.28-9.28s4.16-9.28,9.28-9.28,9.28,4.16,9.28,9.28-4.16,9.28-9.28,9.28Z"/><path d="m23.76,11.32h-5.96c-.56,0-1.02.46-1.02,1.02v5.96c0,.56.46,1.02,1.02,1.02h5.96c.56,0,1.02-.46,1.02-1.02v-5.96c0-.56-.46-1.02-1.02-1.02Zm-4.94,5.96v-3.92h3.92v3.92h-3.92Z"/><path d="m44.57,11.32h-16.08c-.56,0-1.02.46-1.02,1.02s.46,1.02,1.02,1.02h16.08c.56,0,1.02-.46,1.02-1.02s-.46-1.02-1.02-1.02Z"/><path d="m28.49,19.31h11.16c.56,0,1.02-.46,1.02-1.02s-.46-1.02-1.02-1.02h-11.16c-.56,0-1.02.46-1.02,1.02s.46,1.02,1.02,1.02Z"/><path d="m23.76,34.1h-5.96c-.56,0-1.02.46-1.02,1.02v5.96c0,.56.46,1.02,1.02,1.02h5.96c.56,0,1.02-.46,1.02-1.02v-5.96c0-.56-.46-1.02-1.02-1.02Zm-4.94,5.96v-3.92h3.92v3.92h-3.92Z"/><path d="m39.65,34.1h-11.16c-.56,0-1.02.46-1.02,1.02s.46,1.02,1.02,1.02h11.16c.56,0,1.02-.46,1.02-1.02s-.46-1.02-1.02-1.02Z"/><path d="m35.07,40.06h-6.58c-.56,0-1.02.46-1.02,1.02s.46,1.02,1.02,1.02h6.58c.56,0,1.02-.46,1.02-1.02s-.46-1.02-1.02-1.02Z"/><path d="m23.76,22.71h-5.96c-.56,0-1.02.46-1.02,1.02v5.96c0,.56.46,1.02,1.02,1.02h5.96c.56,0,1.02-.46,1.02-1.02v-5.96c0-.56-.46-1.02-1.02-1.02Zm-1.02,5.96h-3.92v-3.92h3.92v3.92Z"/><path d="m44.57,22.71h-10.5c-.56,0-1.02.46-1.02,1.02s.46,1.02,1.02,1.02h10.5c.56,0,1.02-.46,1.02-1.02s-.46-1.02-1.02-1.02Z"/><path d="m28.49,24.74h1.33c.56,0,1.02-.46,1.02-1.02s-.46-1.02-1.02-1.02h-1.33c-.56,0-1.02.46-1.02,1.02s.46,1.02,1.02,1.02Z"/><path d="m28.49,30.7h6.58c.56,0,1.02-.46,1.02-1.02s-.46-1.02-1.02-1.02h-6.58c-.56,0-1.02.46-1.02,1.02s.46,1.02,1.02,1.02Z"/></svg>