<?xml version="1.0" encoding="UTF-8"?><svg id="Art" xmlns="http://www.w3.org/2000/svg" viewBox="0 0 60 60"><path d="m24.2,52.88h-.11c-.17-.15-.39-.25-.64-.25h-.85v-3.88c0-1.55-.64-3.06-1.75-4.14l-8.05-7.82c-.66-.64-1.51-.96-2.46-.98-.92.01-1.79.39-2.43,1.05-.64.66-.99,1.54-.98,2.46.01.92.39,1.79,1.05,2.43l3.84,3.73c.4.39,1.03.38,1.41-.02.38-.4.38-1.03-.02-1.41l-3.84-3.73c-.28-.27-.44-.64-.44-1.03s.14-.76.41-1.04c.27-.28.63-.44,1.02-.44.38,0,.76.14,1.04.41l8.05,7.82c.73.71,1.14,1.69,1.14,2.71v3.88h-9.78v-.13c0-.93-.36-1.8-1.02-2.45l-6.07-6.07c-.62-.62-.96-1.45-.96-2.33v-15.04c0-.81.2-1.42.56-1.73.29-.24.7-.33,1.23-.24.57.09.96.9.96,1.96v9.96c0,.55.45,1,1,1s1-.45,1-1v-9.96c0-2.13-1.04-3.68-2.64-3.94-1.12-.19-2.1.06-2.85.69-.58.49-1.27,1.45-1.27,3.25v15.04c0,1.41.55,2.74,1.55,3.74l6.07,6.07c.28.28.43.65.43,1.04v.13h-.89c-.25,0-.47.1-.64.25h-.11v.11c-.15.17-.25.4-.25.64v5.37c0,.55.45,1,1,1s1-.45,1-1v-4.37h13.52v4.37c0,.55.45,1,1,1s1-.45,1-1v-5.37c0-.25-.1-.47-.25-.64v-.11Z"/><path d="m30.28,7.27c.55,0,1-.45,1-1V1c0-.55-.45-1-1-1s-1,.45-1,1v5.27c0,.55.45,1,1,1Z"/><path d="m18.57,9.68c.19.32.52.5.87.5.17,0,.34-.04.5-.13.48-.28.64-.89.37-1.37l-2.64-4.57c-.28-.48-.89-.64-1.37-.37-.48.28-.64.89-.37,1.37l2.64,4.57Z"/><path d="m6.43,15.35l4.57,2.64c.16.09.33.13.5.13.35,0,.68-.18.87-.5.28-.48.11-1.09-.37-1.37l-4.57-2.64c-.48-.28-1.09-.11-1.37.37-.28.48-.11,1.09.37,1.37Z"/><path d="m49.06,18.12c.17,0,.34-.04.5-.13l4.57-2.64c.48-.28.64-.89.37-1.37-.28-.48-.89-.64-1.37-.37l-4.57,2.64c-.48.28-.64.89-.37,1.37.19.32.52.5.87.5Z"/><path d="m40.62,10.05c.16.09.33.13.5.13.35,0,.68-.18.87-.5l2.64-4.57c.28-.48.11-1.09-.37-1.37-.48-.28-1.09-.11-1.37.37l-2.64,4.57c-.28.48-.11,1.09.37,1.37Z"/><path d="m57.96,23.35c-.75-.63-1.73-.87-2.85-.69-1.61.26-2.64,1.81-2.64,3.94v9.96c0,.55.45,1,1,1s1-.45,1-1v-9.96c0-1.06.4-1.87.96-1.96.53-.09.94,0,1.23.24.36.31.56.92.56,1.73v15.04c0,.88-.34,1.71-.96,2.33l-6.07,6.07c-.66.66-1.02,1.53-1.02,2.46v.13h-9.78v-3.88c0-1.01.42-2,1.14-2.71l8.05-7.82c.28-.27.64-.4,1.04-.41.39,0,.75.16,1.03.44s.42.65.41,1.04-.16.75-.44,1.03l-3.84,3.73c-.4.38-.41,1.02-.02,1.41.39.4,1.02.41,1.41.02l3.84-3.73c.66-.64,1.04-1.51,1.05-2.43.01-.92-.33-1.8-.98-2.46-.64-.66-1.51-1.04-2.43-1.05-.94,0-1.8.33-2.46.98l-8.05,7.82c-1.11,1.08-1.75,2.59-1.75,4.14v3.88h-.85c-.25,0-.47.1-.64.25h-.11v.11c-.15.17-.25.4-.25.64v5.37c0,.55.45,1,1,1s1-.45,1-1v-4.37h13.52v4.37c0,.55.45,1,1,1s1-.45,1-1v-5.37c0-.25-.1-.47-.25-.64v-.11h-.11c-.17-.15-.39-.25-.64-.25h-.89v-.13c0-.39.15-.76.43-1.04l6.07-6.07c1-1,1.55-2.33,1.55-3.74v-15.04c0-1.8-.69-2.76-1.27-3.25Z"/><path d="m45.94,20.34c0-4.94-4.02-8.97-8.97-8.97-2.59,0-5.01,1.11-6.7,3.01-1.69-1.91-4.11-3.01-6.7-3.01-4.95,0-8.97,4.02-8.97,8.97,0,10.88,14.55,19.21,15.17,19.56.15.09.32.13.49.13s.34-.04.49-.13c.62-.35,15.17-8.69,15.17-19.56Zm-14.82-3.76c1.29-2.01,3.48-3.2,5.86-3.2,3.84,0,6.97,3.13,6.97,6.97,0,8.67-11.17,16-13.67,17.53-2.5-1.53-13.67-8.85-13.67-17.53,0-3.84,3.13-6.97,6.97-6.97,2.38,0,4.56,1.2,5.86,3.2.12.19.32.29.53.36l.31.49.31-.49c.21-.06.4-.17.53-.36Z"/></svg>