<?xml version="1.0" encoding="UTF-8"?><svg id="Art" xmlns="http://www.w3.org/2000/svg" viewBox="0 0 60 60"><defs><style>.cls-1{fill:#231f20;}</style></defs><path class="cls-1" d="m11.38,6.62c.02.23.12.46.29.63l3.46,3.33-.84,4.73c-.04.24.01.48.13.68l-.16.88.79-.42c.07.02.14.03.22.03.16,0,.32-.04.47-.12l4.71-2.51c.49-.26.67-.87.41-1.35-.26-.49-.87-.67-1.35-.41l-2.89,1.54.58-3.22c.06-.33-.05-.67-.29-.9l-2.36-2.27,3.24-.45c.33-.05.62-.25.76-.55l1.43-2.95,1.43,2.95c.24.5.84.7,1.34.46.5-.24.7-.84.46-1.34l-2.33-4.8c-.1-.21-.28-.35-.49-.43l-.41-.85-.41.85c-.21.08-.38.22-.49.43l-2.1,4.32-4.76.66c-.24.03-.45.16-.61.34l-.89.12.65.62Z"/><path class="cls-1" d="m58.8,59.61c.14-.19.23-.41.22-.65-.17-4.28-.62-7.34-.71-7.87-.02-1.21-.39-2.46-1.1-3.71-.74-1.3-1.96-2.31-3.44-2.85l-4.53-1.62c-.47-.17-.98.03-1.22.47l-4.23,7.88h-1.29l-4.24-7.88c-.23-.43-.75-.63-1.22-.47l-4.53,1.62c-.98.36-1.83.94-2.52,1.66-.69-.73-1.55-1.31-2.53-1.67l-4.53-1.62c-.46-.17-.98.03-1.22.47l-4.24,7.88h-1.29l-4.23-7.88c-.23-.44-.75-.64-1.22-.47l-4.53,1.62c-1.47.54-2.69,1.55-3.43,2.85-.71,1.25-1.09,2.49-1.1,3.71-.08.53-.54,3.59-.71,7.87,0,.24.08.46.22.65v.14s.14,0,.14,0c.18.15.4.25.64.25h56.06c.24,0,.46-.1.64-.25h.14v-.14Zm-26.15-1.78c-.02-.39-.04-.77-.07-1.14,0-.07,0-.13-.01-.19-.02-.34-.05-.67-.07-.98,0-.06,0-.11-.01-.17-.03-.33-.05-.64-.08-.93,0-.07-.01-.14-.02-.21-.03-.28-.05-.54-.08-.78,0-.07-.01-.14-.02-.2-.03-.23-.05-.44-.07-.64,0-.06-.01-.12-.02-.18-.02-.19-.04-.36-.06-.51,0-.05-.01-.09-.02-.13-.02-.14-.04-.26-.05-.37,0-.03,0-.05-.01-.08-.01-.1-.03-.18-.03-.23,0-.28-.03-.57-.07-.86-.01-.09-.04-.19-.06-.28-.04-.19-.08-.39-.13-.58-.03-.11-.07-.22-.11-.34-.06-.18-.12-.35-.19-.53-.05-.12-.1-.24-.16-.35-.04-.09-.08-.18-.12-.27.5-.65,1.21-1.16,2.03-1.46l3.72-1.33,4.12,7.65c.17.32.51.53.88.53h2.48c.37,0,.71-.2.88-.53l4.11-7.65,3.71,1.32c1.03.38,1.88,1.08,2.39,1.96.38.67.84,1.69.84,2.8,0,.05,0,.11.01.16,0,.03.44,2.73.65,6.67h-24.31c0-.06,0-.11-.01-.17Zm-22.05-12.74l4.11,7.65c.17.32.51.53.88.53h2.48c.37,0,.71-.2.88-.53l4.12-7.65,3.71,1.33c1.01.37,1.84,1.04,2.33,1.87,0,.01.04.08.05.09.56.98.85,1.92.85,2.79,0,.05,0,.11.01.16,0,0,0,.05.02.12,0,0,0,0,0,.02,0,.03,0,.06.01.1,0,.02,0,.04.01.07,0,.04.01.08.02.13,0,.03,0,.06.01.1,0,.05.01.1.02.15,0,.05.01.09.02.14,0,.05.01.11.02.17,0,.06.01.12.02.18,0,.06.01.12.02.18,0,.07.02.15.03.23,0,.06.01.12.02.19.01.09.02.18.03.27,0,.07.01.13.02.2.01.11.02.22.03.33,0,.06.01.13.02.19.01.12.02.24.04.36,0,.07.01.14.02.22.01.13.02.27.04.41,0,.07.01.14.02.21.02.21.04.42.05.65,0,.05,0,.11.01.16.01.17.03.35.04.53,0,.09.01.18.02.27,0,.15.02.29.03.45,0,.11.01.23.02.35,0,.1.01.21.02.31H3.02c.21-3.94.64-6.64.65-6.67,0-.05.01-.11.01-.16,0-1.1.46-2.13.84-2.8.51-.89,1.35-1.58,2.38-1.96l3.72-1.33Z"/><path class="cls-1" d="m18.55,8.12l-.89.12.65.62c.02.23.12.46.29.63l5.02,4.83-1.22,6.86c-.04.24.01.48.13.68l-.16.88.79-.42c.23.05.47.03.69-.08l2.48-1.32,3.66-1.96,6.14,3.28c.15.08.31.12.47.12.07,0,.14-.02.22-.03l.79.42-.16-.88c.12-.2.18-.44.13-.68l-1.22-6.86,5.02-4.83c.18-.17.27-.39.29-.63l.65-.62-.89-.12c-.16-.18-.36-.3-.61-.34l-6.9-.96-3.04-6.27c-.1-.21-.28-.35-.49-.43l-.41-.85-.41.85c-.21.08-.38.22-.49.43l-3.04,6.27-6.9.96c-.24.03-.45.16-.61.34Zm15.76,6.03l.95,5.35-4.8-2.56c-.29-.16-.65-.16-.94,0l-4.8,2.56.95-5.35c.06-.33-.05-.67-.29-.9l-3.92-3.77,5.39-.75c.33-.05.62-.25.76-.55l2.37-4.89,2.37,4.89c.15.3.43.51.76.55l5.39.75-3.92,3.77c-.24.23-.35.57-.29.9Z"/><path class="cls-1" d="m37.25,6.7c.49.24,1.09.03,1.34-.46l1.43-2.95,1.43,2.95c.15.3.43.51.76.55l3.24.45-2.36,2.27c-.24.23-.35.57-.29.9l.58,3.22-2.89-1.54c-.49-.26-1.09-.08-1.35.41-.26.49-.08,1.09.41,1.35l4.71,2.51c.15.08.31.12.47.12.07,0,.14-.02.22-.03l.79.42-.16-.88c.12-.2.18-.44.13-.68l-.84-4.73,3.46-3.33c.18-.17.27-.39.29-.63l.65-.62-.89-.12c-.16-.18-.36-.3-.61-.34l-4.76-.66-2.1-4.32c-.11-.22-.29-.38-.51-.47l-.39-.81-.39.81c-.22.09-.4.25-.51.47l-2.33,4.8c-.24.5-.03,1.09.46,1.34Z"/><path class="cls-1" d="m43.16,26.77c-4.14,0-7.51,3.37-7.51,7.51s3.37,7.51,7.51,7.51,7.51-3.37,7.51-7.51-3.37-7.51-7.51-7.51Zm0,13.03c-3.04,0-5.51-2.47-5.51-5.51s2.47-5.51,5.51-5.51,5.51,2.47,5.51,5.51-2.47,5.51-5.51,5.51Z"/><path class="cls-1" d="m16.84,41.79c4.14,0,7.51-3.37,7.51-7.51s-3.37-7.51-7.51-7.51-7.51,3.37-7.51,7.51,3.37,7.51,7.51,7.51Zm0-13.03c3.04,0,5.51,2.47,5.51,5.51s-2.47,5.51-5.51,5.51-5.51-2.47-5.51-5.51,2.47-5.51,5.51-5.51Z"/></svg>