<?xml version="1.0" encoding="UTF-8"?><svg id="Art" xmlns="http://www.w3.org/2000/svg" viewBox="0 0 60 60"><defs><style>.cls-1{fill:#231f20;}</style></defs><path class="cls-1" d="m57,52.14v-18.14c0-2.21-1.79-4-4-4h-11c-.73,0-1.41.21-2,.56v-4.56c0-2.21-1.79-4-4-4h-.78c-.48-.27-2.22-1.52-2.22-6v-1.15c.64.24,1.35.16,1.91-.25.61-.45.9-1.19.77-1.92l-.52-2.96,2.22-2.1c.56-.52.76-1.3.53-2.02-.23-.73-.86-1.26-1.63-1.37l-3.1-.44-1.38-2.71h0c-.34-.67-1.03-1.09-1.8-1.09s-1.45.42-1.8,1.09l-1.38,2.71-3.1.44c-.77.11-1.4.63-1.63,1.37-.23.72-.03,1.5.53,2.02l2.22,2.1-.52,2.96c-.13.74.17,1.47.77,1.92.36.26.78.4,1.21.4.24,0,.47-.06.7-.14v1.14c0,4.52-1.76,5.76-2.21,6h-.79c-2.21,0-4,1.79-4,4v8.56c-.59-.34-1.27-.56-2-.56H7c-2.21,0-4,1.79-4,4v14.14c-1.72.45-3,2-3,3.86,0,2.21,1.79,4,4,4h52c2.21,0,4-1.79,4-4,0-1.86-1.28-3.41-3-3.86Zm-15-20.14h11c1.1,0,2,.9,2,2v18h-15v-18c0-1.1.9-2,2-2Zm-15.71-18.97l.62-3.49c.06-.33-.05-.67-.3-.9l-2.6-2.42,3.61-.51c.32-.05.6-.25.75-.54l1.65-3.17,1.62,3.17c.15.29.43.49.75.54l3.62.46-2.61,2.47c-.24.23-.36.57-.3.9l.59,3.45-3.23-1.65c-.29-.15-.62-.15-.91,0l-1.91.99s-.04.02-.06.03l-1.28.66Zm2.71,2.97v-2.13l1-.51,1,.51v2.13c0,2.93.69,4.81,1.47,6h-4.93c.78-1.19,1.47-3.07,1.47-6Zm-7,10c0-1.1.9-2,2-2h12c1.1,0,2,.9,2,2v26h-16v-26Zm-17,12c0-1.1.9-2,2-2h11c1.1,0,2,.9,2,2v14H5v-14Zm51,20H4c-1.1,0-2-.9-2-2s.9-2,2-2h52c1.1,0,2,.9,2,2s-.9,2-2,2Z"/><path class="cls-1" d="m12,39c-1.65,0-3,1.35-3,3,0,.55.45,1,1,1s1-.45,1-1,.45-1,1-1,1,.45,1,1c0,2.04-2.6,4.45-3.6,5.2-.34.26-.48.71-.35,1.12.14.41.52.68.95.68h4c.55,0,1-.45,1-1s-.45-1-1-1h-1.43c1.18-1.27,2.43-3.08,2.43-5,0-1.65-1.35-3-3-3Z"/><path class="cls-1" d="m48,45c-.55,0-1-.45-1-1s-.45-1-1-1-1,.45-1,1c0,1.65,1.35,3,3,3s3-1.35,3-3c0-.74-.28-1.46-.76-2,.49-.55.76-1.26.76-2,0-1.65-1.35-3-3-3s-3,1.35-3,3c0,.55.45,1,1,1s1-.45,1-1,.45-1,1-1,1,.45,1,1c0,.32-.15.62-.41.81-.37.27-.6.72-.6,1.19s.22.92.6,1.19c.26.19.41.49.41.81,0,.55-.45,1-1,1Z"/><path class="cls-1" d="m28,43h4c.55,0,1-.45,1-1s-.45-1-1-1h-1v-7c0-.4-.24-.77-.62-.92-.38-.16-.8-.07-1.09.22l-1,1c-.39.39-.39,1.02,0,1.41.2.2.45.29.71.29v5h-1c-.55,0-1,.45-1,1s.45,1,1,1Z"/></svg>