<?xml version="1.0" encoding="UTF-8"?><svg id="Art" xmlns="http://www.w3.org/2000/svg" viewBox="0 0 60 60"><path d="m4.43,42.27h51.58c.55,0,1-.45,1-1V12.39c0-.55-.45-1-1-1h-4.59c-.55,0-1,.45-1,1s.45,1,1,1h3.59v26.87H5.43V13.39h7.94c.55,0,1-.45,1-1s-.45-1-1-1H4.43c-.55,0-1,.45-1,1v28.87c0,.55.45,1,1,1Z"/><path d="m59.22,43.21H1.22c-.55,0-1,.45-1,1v1.33c0,.25.1.5.27.68l2.17,2.31c.19.2.45.32.73.32h53.66c.28,0,.54-.11.73-.32l2.17-2.31c.17-.19.27-.43.27-.68v-1.33c0-.55-.45-1-1-1Zm-2.6,3.64H3.83l-1.54-1.64h55.88l-1.54,1.64Z"/><path d="m24.02,22.99l-3.29,6.12h-.77l-3.29-6.12c-.23-.44-.75-.64-1.22-.47l-3.59,1.28c-1.21.44-2.21,1.27-2.82,2.34-.59,1.02-.9,2.05-.91,3.05-.05.47-.42,3.96-.56,7.37-.01.27.09.54.28.73.19.2.45.31.72.31h23.53c.27,0,.53-.11.72-.31.19-.2.29-.46.28-.73-.14-3.41-.5-6.9-.56-7.37-.01-1.01-.32-2.03-.9-3.04-.61-1.07-1.61-1.91-2.83-2.35l-3.58-1.28c-.46-.17-.98.03-1.22.47Zm4.12,2.69c.76.28,1.39.79,1.77,1.46.29.5.64,1.27.64,2.11,0,.04,0,.07,0,.11,0,.03.33,3.03.5,6.24h-2.34l-.23-3.7c-.03-.55-.53-.97-1.06-.94-.55.04-.97.51-.94,1.06l.23,3.58h-12.75l.23-3.58c.04-.55-.38-1.03-.94-1.06-.55-.04-1.03.38-1.06.94l-.23,3.7h-2.34c.17-3.21.5-6.21.5-6.24,0-.04,0-.07,0-.11,0-.83.35-1.6.64-2.11.38-.66,1-1.18,1.76-1.45l2.77-.99,3.17,5.89c.17.32.51.53.88.53h1.97c.37,0,.71-.2.88-.53l3.17-5.89,2.77.99Z"/><path d="m20.35,22.04c3.39,0,6.15-2.76,6.15-6.15s-2.76-6.15-6.15-6.15-6.15,2.76-6.15,6.15,2.76,6.15,6.15,6.15Zm0-10.31c2.29,0,4.15,1.86,4.15,4.15s-1.86,4.15-4.15,4.15-4.15-1.86-4.15-4.15,1.86-4.15,4.15-4.15Z"/><path d="m32.3,21.81h1.59v2.17c0,.39.24.75.6.91.13.06.27.09.41.09.24,0,.48-.09.67-.26l3.23-2.91h10.54c.55,0,1-.45,1-1v-10.07c0-.55-.45-1-1-1h-17.04c-.55,0-1,.45-1,1v10.07c0,.55.45,1,1,1Zm1-10.07h15.04v8.07h-9.92c-.25,0-.49.09-.67.26l-1.85,1.67v-.93c0-.55-.45-1-1-1h-1.59v-8.07Z"/><path d="m35.29,15.16h11.05c.55,0,1-.45,1-1s-.45-1-1-1h-11.05c-.55,0-1,.45-1,1s.45,1,1,1Z"/><path d="m43.34,18.21c.55,0,1-.45,1-1s-.45-1-1-1h-8.04c-.55,0-1,.45-1,1s.45,1,1,1h8.04Z"/></svg>