<?xml version="1.0" encoding="UTF-8"?><svg id="Art" xmlns="http://www.w3.org/2000/svg" viewBox="0 0 60 60"><path d="m23.32,45.02c-.56-.02-1.03.38-1.06.94l-.28,4.38c-.03.55.38,1.03.94,1.06.02,0,.04,0,.06,0,.52,0,.96-.41,1-.94l.28-4.38c.03-.55-.38-1.03-.94-1.06Z"/><path d="m36.69,45.02c-.55.04-.97.51-.94,1.06l.28,4.38c.03.53.47.94,1,.94.02,0,.04,0,.06,0,.55-.04.97-.51.94-1.06l-.28-4.38c-.03-.55-.5-.96-1.06-.94Z"/><path d="m59.53,44.15c-.01-.87-.27-1.76-.78-2.63-.53-.94-1.41-1.66-2.46-2.04l-3.02-1.08c-.47-.17-.98.03-1.22.47l-2.73,5.07h-.46l-2.73-5.07c-.23-.44-.75-.64-1.22-.47l-3.02,1.08c-.5.18-.96.45-1.36.77-.59-.89-1.46-1.6-2.52-1.98l-3.38-1.21c-.46-.17-.98.03-1.22.47l-3.09,5.75h-.66l-3.09-5.75c-.23-.44-.75-.64-1.22-.47l-3.39,1.21c-1.05.38-1.93,1.09-2.52,1.98-.4-.33-.86-.59-1.37-.77l-3.02-1.08c-.46-.17-.98.03-1.22.47l-2.73,5.07h-.46l-2.73-5.07c-.23-.44-.75-.64-1.22-.47l-3.02,1.08c-1.05.38-1.93,1.11-2.46,2.04-.51.88-.77,1.77-.78,2.64-.05.43-.35,3.35-.47,6.21-.02.55.41,1.02.96,1.04.01,0,.03,0,.04,0,.53,0,.98-.42,1-.96.12-3,.46-6.09.46-6.12,0-.04,0-.07,0-.11,0-.66.28-1.29.52-1.7.3-.52.8-.93,1.4-1.15l2.21-.79,2.6,4.84c.17.32.51.53.88.53h1.66c.37,0,.71-.2.88-.53l2.6-4.84,2.2.79c.48.17.88.47,1.18.84-.1.41-.17.81-.17,1.21-.05.46-.4,3.74-.52,6.96-.02.55.41,1.02.96,1.04.57.03,1.02-.41,1.04-.96.14-3.37.52-6.83.52-6.87,0-.04,0-.07,0-.11,0-.77.32-1.49.6-1.97.35-.61.93-1.09,1.63-1.35l2.57-.92,2.97,5.52c.17.32.51.53.88.53h1.86c.37,0,.71-.2.88-.53l2.97-5.52,2.57.92c.71.26,1.29.73,1.64,1.35.12.21.25.47.36.76,0,.03.03.06.04.1.12.34.2.71.2,1.1,0,.04,0,.07,0,.11,0,.03.39,3.5.52,6.87.02.54.46.96,1,.96.01,0,.03,0,.04,0,.55-.02.98-.49.96-1.04-.13-3.21-.48-6.5-.52-6.96,0-.4-.07-.81-.17-1.22.3-.37.7-.65,1.17-.82l2.21-.79,2.6,4.84c.17.32.51.53.88.53h1.66c.37,0,.71-.2.88-.53l2.6-4.84,2.2.79c.61.22,1.11.63,1.41,1.16.24.41.52,1.03.52,1.69,0,.04,0,.07,0,.11,0,.03.34,3.12.46,6.12.02.54.46.96,1,.96.01,0,.03,0,.04,0,.55-.02.98-.49.96-1.04-.11-2.86-.42-5.78-.47-6.21Z"/><path d="m55.05,45.5c-.55.04-.97.51-.94,1.06l.25,3.91c.03.53.47.94,1,.94.02,0,.04,0,.06,0,.55-.04.97-.51.94-1.06l-.25-3.91c-.03-.55-.5-.96-1.06-.94Z"/><path d="m4.95,45.5c-.55-.02-1.03.38-1.06.94l-.25,3.91c-.03.55.38,1.03.94,1.06.02,0,.04,0,.06,0,.52,0,.96-.41,1-.94l.25-3.91c.03-.55-.38-1.03-.94-1.06Z"/><path d="m10.9,38.3c2.94,0,5.34-2.39,5.34-5.34,0-2.04-1.17-3.8-2.86-4.7.13-1.62.25-2.73.26-2.74,0-.04,0-.08,0-.11,0-.67.28-1.29.52-1.7.3-.52.8-.93,1.4-1.15l2.2-.79,2.6,4.84c.17.32.51.53.88.53h1.98c.38,0,.74-.22.9-.57l2.3-4.79,2.16.77c.52.19.95.37,1.47.74-.16.53-.28,1.17-.36,1.71-3.09.16-5.55,2.72-5.55,5.85s2.63,5.86,5.86,5.86,5.86-2.63,5.86-5.86c0-2.65-1.77-4.89-4.19-5.62.12-.79.3-1.47.4-1.65.3-.53.81-.94,1.41-1.16l2.23-.79,2.62,4.88c.17.32.51.53.88.53h1.67c.37,0,.71-.2.88-.53l2.62-4.88,2.22.79c.61.22,1.12.64,1.42,1.17.24.41.52,1.04.52,1.71,0,.06,0,.13.02.19,0,0,.14.77.27,2.16-2.83.13-5.09,2.45-5.09,5.31s2.39,5.34,5.34,5.34,5.34-2.39,5.34-5.34c0-2.31-1.49-4.27-3.55-5.01-.13-1.53-.28-2.47-.33-2.75-.02-.86-.28-1.74-.78-2.61-.54-.94-1.42-1.67-2.48-2.06l-3.04-1.08c-.47-.17-.98.03-1.22.47l-2.75,5.11h-.47l-2.75-5.11c-.23-.44-.75-.64-1.22-.47l-3.04,1.09c-.64.23-1.21.61-1.68,1.07-.68-.48-1.27-.72-1.87-.93l-3.02-1.08c-.24-.08-.49-.07-.7.01h-.02s0,.01,0,.01c-.22.09-.4.26-.51.48l-2.41,5.03h-.75l-2.73-5.07c-.23-.44-.75-.64-1.22-.47l-3.02,1.08c-1.05.38-1.93,1.11-2.46,2.04-.51.88-.77,1.77-.78,2.64-.02.22-.12,1.09-.22,2.33-.17-.02-.34-.05-.52-.05-2.94,0-5.34,2.39-5.34,5.34s2.39,5.34,5.34,5.34Zm0-8.67c1.84,0,3.34,1.5,3.34,3.34s-1.5,3.34-3.34,3.34-3.34-1.5-3.34-3.34,1.5-3.34,3.34-3.34Zm19.1,5.09c-2.13,0-3.86-1.73-3.86-3.86s1.73-3.86,3.86-3.86,3.86,1.73,3.86,3.86-1.73,3.86-3.86,3.86Zm19.09,1.59c-1.84,0-3.34-1.5-3.34-3.34s1.5-3.34,3.34-3.34,3.34,1.5,3.34,3.34-1.5,3.34-3.34,3.34Z"/><path d="m40.06,19.34c2.96,0,5.37-2.41,5.37-5.37s-2.41-5.37-5.37-5.37-5.37,2.41-5.37,5.37,2.41,5.37,5.37,5.37Zm0-8.74c1.86,0,3.37,1.51,3.37,3.37s-1.51,3.37-3.37,3.37-3.37-1.51-3.37-3.37,1.51-3.37,3.37-3.37Z"/><path d="m22.08,19.49c2.94,0,5.34-2.39,5.34-5.34s-2.39-5.34-5.34-5.34-5.34,2.39-5.34,5.34,2.39,5.34,5.34,5.34Zm0-8.67c1.84,0,3.34,1.5,3.34,3.34s-1.5,3.34-3.34,3.34-3.34-1.5-3.34-3.34,1.5-3.34,3.34-3.34Z"/></svg>