<?xml version="1.0" encoding="UTF-8"?><svg id="Art" xmlns="http://www.w3.org/2000/svg" viewBox="0 0 60 60"><defs><style>.cls-1{fill:#231f20;}</style></defs><path class="cls-1" d="m59.88,27.41c-.1-.98-.76-1.85-1.69-2.22l-2.88-1.15c-.65-2.74-1.72-5.32-3.2-7.71l1.22-2.86c.41-.94.25-2.03-.39-2.79-1.25-1.45-2.43-2.63-3.62-3.62-.75-.64-1.84-.79-2.78-.39l-2.87,1.22c-2.39-1.48-4.97-2.56-7.71-3.2l-1.15-2.88c-.37-.93-1.24-1.6-2.23-1.7-1.23-.11-3.13-.2-5.17,0-.98.1-1.85.76-2.22,1.69l-1.15,2.88c-2.73.65-5.32,1.72-7.71,3.2l-2.86-1.22c-.94-.41-2.01-.26-2.79.39-1.45,1.24-2.63,2.43-3.62,3.62-.64.75-.79,1.84-.39,2.78l1.22,2.87c-1.48,2.38-2.56,4.97-3.2,7.71l-2.88,1.15c-.93.37-1.6,1.24-1.7,2.23-.11,1.23-.2,3.13,0,5.17.1.98.76,1.85,1.69,2.22l2.88,1.15c.65,2.74,1.72,5.32,3.2,7.71l-1.22,2.86c-.41.94-.25,2.03.39,2.79,1.25,1.44,2.43,2.63,3.62,3.62.48.4,1.08.61,1.69.61.37,0,.73-.07,1.09-.23l.54-.23v3.9c0,1.65,1.35,3,3,3h26c1.65,0,3-1.35,3-3v-3.9l.53.23c.94.41,2.03.25,2.79-.39,1.45-1.24,2.63-2.43,3.62-3.62.64-.75.79-1.84.39-2.78l-1.22-2.87c1.48-2.38,2.56-4.97,3.2-7.71l2.88-1.15c.94-.37,1.6-1.24,1.7-2.23.15-1.74.15-3.58,0-5.17Zm-16.88-8.41h-7.28c-.35-.59-.98-1-1.72-1h-.13c-.44-1.72-2.01-3-3.87-3s-3.43,1.28-3.87,3h-.13c-.74,0-1.37.41-1.72,1h-7.28c-1.65,0-3,1.35-3,3v19.97c-2.58-3.44-4-7.59-4-11.97,0-11.03,8.97-20,20-20s20,8.97,20,20c0,4.37-1.42,8.53-4,11.97v-19.97c0-1.65-1.35-3-3-3Zm-3,6v29s-20,0-20,0v-29h20Zm-14-2v-3h1c.55,0,1-.45,1-1,0-1.1.9-2,2-2s2,.9,2,2c0,.55.45,1,1,1h1v3h-8Zm17,35h-26c-.55,0-1-.45-1-1v-5.41s0,0,0-.01v-29.58c0-.55.45-1,1-1h7v2h-4c-1.1,0-2,.9-2,2v29c0,1.1.9,2,2,2h20c1.1,0,2-.9,2-2v-29c0-1.1-.9-2-2-2h-4v-2h7c.55,0,1,.45,1,1v29.58s0,0,0,.01v5.41c0,.55-.45,1-1,1Zm14.89-25.61c-.02.24-.2.46-.45.56l-3.37,1.35c-.31.12-.54.39-.61.72-.62,2.87-1.74,5.56-3.33,8.02-.18.28-.21.63-.08.94l1.43,3.35c.11.25.08.52-.08.71-.92,1.12-2.03,2.22-3.39,3.39-.17.15-.45.18-.7.07l-1.32-.56v-5.86c3.86-4.09,6-9.42,6-15.07,0-12.13-9.87-22-22-22S8,17.87,8,30c0,5.65,2.14,10.98,6,15.07v5.86l-1.32.56c-.25.11-.52.08-.7-.08-1.11-.92-2.22-2.03-3.39-3.39-.15-.17-.18-.45-.07-.7l1.43-3.35c.13-.31.1-.66-.08-.94-1.59-2.45-2.71-5.15-3.33-8.02-.07-.32-.3-.59-.61-.72l-3.37-1.35c-.24-.1-.42-.32-.44-.56-.14-1.47-.14-3.17,0-4.78.02-.24.2-.46.45-.56l3.37-1.35c.31-.12.54-.39.61-.72.62-2.87,1.74-5.56,3.33-8.02.18-.28.21-.63.08-.94l-1.43-3.35c-.11-.25-.08-.52.08-.71.92-1.12,2.03-2.22,3.38-3.38.18-.15.45-.19.7-.08l3.35,1.43c.31.13.66.1.94-.08,2.46-1.59,5.15-2.71,8.01-3.33.33-.07.59-.3.72-.61l1.35-3.37c.1-.24.32-.42.56-.44,1.47-.14,3.17-.14,4.79,0,.24.02.46.2.56.45l1.35,3.37c.12.31.39.54.72.61,2.86.62,5.56,1.74,8.01,3.33.28.18.63.21.94.08l3.35-1.43c.25-.11.52-.08.7.08,1.11.92,2.22,2.03,3.39,3.39.15.18.18.45.07.7l-1.43,3.35c-.13.31-.1.66.08.94,1.59,2.45,2.71,5.15,3.33,8.02.07.32.3.59.61.72l3.37,1.35c.24.1.42.32.44.56.14,1.47.14,3.17,0,4.78Z"/><path class="cls-1" d="m33.29,34.71c.19.19.44.29.71.29.02,0,.05,0,.07,0,.29-.02.55-.17.73-.4l3-4c.33-.44.24-1.07-.2-1.4-.44-.33-1.07-.24-1.4.2l-2.31,3.08-.18-.18c-.39-.39-1.02-.39-1.41,0s-.39,1.02,0,1.41l1,1Z"/><path class="cls-1" d="m23,34h6c.55,0,1-.45,1-1s-.45-1-1-1h-6c-.55,0-1,.45-1,1s.45,1,1,1Z"/><path class="cls-1" d="m33.29,41.71c.19.19.44.29.71.29.02,0,.05,0,.07,0,.29-.02.55-.17.73-.4l3-4c.33-.44.24-1.07-.2-1.4-.44-.33-1.07-.24-1.4.2l-2.31,3.08-.18-.18c-.39-.39-1.02-.39-1.41,0s-.39,1.02,0,1.41l1,1Z"/><path class="cls-1" d="m23,41h6c.55,0,1-.45,1-1s-.45-1-1-1h-6c-.55,0-1,.45-1,1s.45,1,1,1Z"/><path class="cls-1" d="m33.29,48.71c.19.19.44.29.71.29.02,0,.05,0,.07,0,.29-.02.55-.17.73-.4l3-4c.33-.44.24-1.07-.2-1.4-.44-.33-1.07-.24-1.4.2l-2.31,3.08-.18-.18c-.39-.39-1.02-.39-1.41,0s-.39,1.02,0,1.41l1,1Z"/><path class="cls-1" d="m23,48h6c.55,0,1-.45,1-1s-.45-1-1-1h-6c-.55,0-1,.45-1,1s.45,1,1,1Z"/></svg>