<?xml version="1.0" encoding="UTF-8"?><svg id="Art" xmlns="http://www.w3.org/2000/svg" viewBox="0 0 60 60"><defs><style>.cls-1{fill:#231f20;}</style></defs><path class="cls-1" d="m51.72,14.15c1.4-1.28,2.28-3.11,2.28-5.15v-2c0-3.86-3.14-7-7-7s-7,3.14-7,7v2c0,1.95.81,3.72,2.1,4.99h-.18c-.86,0-1.65-.43-2.11-1.16l-5.83-9.14c0-.41-.04-.82-.17-1.22-.34-1.01-1.1-1.82-2.09-2.21-1.67-.67-3.61,0-4.48,1.53l-7.04,11.04c-.46.73-1.25,1.16-2.11,1.16h-.18c1.3-1.27,2.1-3.04,2.1-4.99v-2c0-3.86-3.14-7-7-7s-7,3.14-7,7v2c0,2.04.88,3.87,2.28,5.15C3.58,14.97,0,19.07,0,23.99v11.34c0,1.02.43,2.01,1.17,2.71.7.66,1.6,1,2.54.94.45-.03.89-.14,1.29-.33v16.64c0,2.51,1.87,4.57,4.26,4.69,1.24.07,2.43-.37,3.34-1.23.14-.14.28-.28.4-.44.12.15.26.3.4.44.84.8,1.94,1.23,3.09,1.23.08,0,.16,0,.24,0,2.39-.12,4.26-2.19,4.26-4.69v-30.36c0-.42.12-.83.36-1.18l8.65-13.02,8.64,13.01c.23.36.36.77.36,1.18v30.37c0,2.47,1.91,4.58,4.26,4.69,1.24.06,2.44-.37,3.34-1.22.15-.14.28-.28.4-.43.12.15.26.3.4.43.84.8,1.93,1.23,3.08,1.23.08,0,.17,0,.25,0,2.35-.11,4.26-2.22,4.26-4.69v-16.64c.41.19.84.31,1.29.33.93.06,1.83-.28,2.54-.94.75-.7,1.17-1.69,1.17-2.71v-11.34c0-4.93-3.58-9.02-8.28-9.84Zm-9.72-5.15v-2c0-2.76,2.24-5,5-5s5,2.24,5,5v2c0,2.73-2.2,4.95-4.92,4.99h-.15c-2.72-.04-4.92-2.26-4.92-4.99Zm-34,0v-2c0-2.76,2.24-5,5-5s5,2.24,5,5v2c0,2.73-2.2,4.95-4.92,4.99h-.15c-2.72-.04-4.92-2.26-4.92-4.99Zm11.69,13.65c-.45.68-.69,1.47-.69,2.28v30.36c0,1.42-1.06,2.63-2.36,2.7-.7.04-1.35-.21-1.86-.68-.5-.48-.78-1.12-.78-1.81v-15.5c0-.55-.45-1-1-1s-1,.45-1,1v15.5c0,.69-.28,1.34-.78,1.81-.5.48-1.16.72-1.86.68-1.3-.07-2.36-1.28-2.36-2.7v-19.8h0v-11.5c0-.55-.45-1-1-1s-1,.45-1,1v11.49c0,.4-.16.78-.44,1.06-.26.26-.6.41-.97.43-.38.02-.75-.12-1.05-.4-.35-.33-.54-.78-.54-1.26v-11.34c0-4.41,3.59-8,8-8h2.85c.05,0,.1,0,.15,0s.1,0,.15,0h4.92c1.55,0,2.97-.78,3.8-2.08l7.07-11.09c.4-.7,1.27-1.01,2.03-.71.45.18.79.54.94,1,.15.45.1.94-.14,1.35l-12.09,18.2Zm38.31,12.68c0,.47-.2.93-.54,1.25-.3.28-.67.42-1.06.4-.35-.02-.7-.17-.96-.43-.28-.28-.44-.66-.44-1.06v-11.5c0-.55-.45-1-1-1s-1,.45-1,1v11.5h0v19.8c0,1.42-1.06,2.63-2.36,2.69-.7.04-1.35-.2-1.86-.68-.5-.48-.78-1.12-.78-1.81v-15.5c0-.55-.45-1-1-1s-1,.45-1,1v15.5c0,.69-.28,1.34-.78,1.81-.5.48-1.16.72-1.86.68-1.3-.06-2.36-1.27-2.36-2.69v-30.37c0-.81-.24-1.59-.69-2.28l-9.11-13.71,1.91-2.88,5.01,7.85c.83,1.31,2.25,2.08,3.79,2.08h4.93c.05,0,.1,0,.15,0s.1,0,.15,0h2.85c4.41,0,8,3.59,8,8v11.34Z"/></svg>