<?xml version="1.0" encoding="UTF-8"?><svg id="Art" xmlns="http://www.w3.org/2000/svg" viewBox="0 0 60 60"><defs><style>.cls-1{fill:#231f20;}</style></defs><path class="cls-1" d="m44.41,18.29s.01,0,.02.01c1.59,1.07,3.51,1.7,5.57,1.7,5.51,0,10-4.49,10-10S55.51,0,50,0s-10,4.49-10,10c0,3.45,1.75,6.49,4.41,8.29Zm1.59-1.37c.04-2.17,1.81-3.92,3.99-3.92s3.95,1.75,3.99,3.92c-1.18.68-2.54,1.08-3.99,1.08s-2.82-.4-3.99-1.08Zm1.99-7.92v-1c0-1.1.9-2,2-2s2,.9,2,2v1c0,1.1-.9,2-2,2s-2-.9-2-2Zm2-7c4.41,0,8,3.59,8,8,0,2.13-.84,4.06-2.2,5.49-.42-1.61-1.48-2.96-2.91-3.75.68-.72,1.11-1.68,1.11-2.75v-1c0-2.21-1.79-4-4-4s-4,1.79-4,4v1c0,1.07.42,2.03,1.11,2.75-1.42.79-2.49,2.14-2.91,3.75-1.36-1.43-2.2-3.37-2.2-5.49,0-4.41,3.59-8,8-8Z"/><path class="cls-1" d="m4.41,18.29s.01,0,.02.01c1.59,1.07,3.51,1.7,5.57,1.7,5.51,0,10-4.49,10-10S15.51,0,10,0,0,4.49,0,10c0,3.45,1.75,6.49,4.41,8.29Zm1.59-1.37c.04-2.17,1.81-3.92,3.99-3.92s3.95,1.75,3.99,3.92c-1.18.68-2.54,1.08-3.99,1.08s-2.82-.4-3.99-1.08Zm1.99-7.92v-1c0-1.1.9-2,2-2s2,.9,2,2v1c0,1.1-.9,2-2,2s-2-.9-2-2Zm2-7c4.41,0,8,3.59,8,8,0,2.13-.84,4.06-2.2,5.49-.42-1.61-1.48-2.96-2.91-3.75.68-.72,1.11-1.68,1.11-2.75v-1c0-2.21-1.79-4-4-4s-4,1.79-4,4v1c0,1.07.42,2.03,1.11,2.75-1.42.79-2.49,2.14-2.91,3.75-1.36-1.43-2.2-3.37-2.2-5.49C2,5.59,5.59,2,10,2Z"/><path class="cls-1" d="m50,40c-5.51,0-10,4.49-10,10,0,3.45,1.75,6.49,4.41,8.29,0,0,.01,0,.02.01,1.59,1.07,3.51,1.7,5.57,1.7,5.51,0,10-4.49,10-10s-4.49-10-10-10Zm-3.99,16.92c.04-2.17,1.81-3.92,3.99-3.92s3.95,1.75,3.99,3.92c-1.18.68-2.54,1.08-3.99,1.08s-2.82-.4-3.99-1.08Zm1.99-7.92v-1c0-1.1.9-2,2-2s2,.9,2,2v1c0,1.1-.9,2-2,2s-2-.9-2-2Zm7.8,6.49c-.42-1.61-1.48-2.96-2.91-3.75.68-.72,1.11-1.68,1.11-2.75v-1c0-2.21-1.79-4-4-4s-4,1.79-4,4v1c0,1.07.42,2.03,1.11,2.75-1.42.79-2.49,2.14-2.91,3.75-1.36-1.43-2.2-3.37-2.2-5.49,0-4.41,3.59-8,8-8s8,3.59,8,8c0,2.13-.84,4.06-2.2,5.49Z"/><path class="cls-1" d="m10,40c-5.51,0-10,4.49-10,10,0,3.45,1.75,6.49,4.41,8.29,0,0,.01,0,.02.01,1.59,1.07,3.51,1.7,5.57,1.7,5.51,0,10-4.49,10-10s-4.49-10-10-10Zm-3.99,16.92c.04-2.17,1.81-3.92,3.99-3.92s3.95,1.75,3.99,3.92c-1.18.68-2.54,1.08-3.99,1.08s-2.82-.4-3.99-1.08Zm1.99-7.92v-1c0-1.1.9-2,2-2s2,.9,2,2v1c0,1.1-.9,2-2,2s-2-.9-2-2Zm7.8,6.49c-.42-1.61-1.48-2.96-2.91-3.75.68-.72,1.11-1.68,1.11-2.75v-1c0-2.21-1.79-4-4-4s-4,1.79-4,4v1c0,1.07.42,2.03,1.11,2.75-1.42.79-2.49,2.14-2.91,3.75-1.36-1.43-2.2-3.37-2.2-5.49,0-4.41,3.59-8,8-8s8,3.59,8,8c0,2.13-.84,4.06-2.2,5.49Z"/><path class="cls-1" d="m42,41v-2.83c0-.55-.45-1-1-1s-1,.45-1,1v.41l-1.55-1.55c1.59-1.91,2.55-4.36,2.55-7.03s-.96-5.13-2.55-7.03l1.55-1.55v.41c0,.55.45,1,1,1s1-.45,1-1v-2.83c0-.55-.45-1-1-1h-2.83c-.55,0-1,.45-1,1s.45,1,1,1h.41l-1.55,1.55c-1.91-1.59-4.36-2.55-7.03-2.55s-5.13.96-7.03,2.55l-1.55-1.55h.41c.55,0,1-.45,1-1s-.45-1-1-1h-2.83c-.55,0-1,.45-1,1v2.83c0,.55.45,1,1,1s1-.45,1-1v-.41l1.55,1.55c-1.59,1.91-2.55,4.36-2.55,7.03s.96,5.13,2.55,7.03l-1.55,1.55v-.41c0-.55-.45-1-1-1s-1,.45-1,1v2.83c0,.55.45,1,1,1h2.83c.55,0,1-.45,1-1s-.45-1-1-1h-.41l1.55-1.55c.18.15.36.28.55.42.02.01.04.03.06.04,1.81,1.31,4.03,2.1,6.43,2.1s4.62-.78,6.43-2.1c.02-.01.04-.03.06-.04.18-.14.37-.27.55-.42l1.55,1.55h-.41c-.55,0-1,.45-1,1s.45,1,1,1h2.83c.55,0,1-.45,1-1Zm-12-20c4.96,0,9,4.04,9,9,0,2.44-.98,4.65-2.56,6.27-.64-1.52-1.78-2.74-3.2-3.48.04-.03.09-.06.12-.09,1.04-.95,1.64-2.29,1.64-3.7v-1c0-2.76-2.24-5-5-5s-5,2.24-5,5v.83c0,1.57.71,2.99,1.8,3.95-1.44.74-2.6,1.97-3.24,3.5-1.58-1.62-2.56-3.83-2.56-6.27,0-4.96,4.04-9,9-9Zm3,8c0,.84-.36,1.65-.98,2.22-.63.58-1.46.85-2.32.77-1.51-.14-2.7-1.53-2.7-3.16v-.83c0-1.65,1.35-3,3-3s3,1.35,3,3v1Zm-7.78,8.61c.61-2.12,2.52-3.61,4.78-3.61s4.17,1.49,4.78,3.61c-1.39.87-3.02,1.39-4.78,1.39s-3.39-.51-4.78-1.39Z"/></svg>