<?xml version="1.0" encoding="UTF-8"?><svg id="Art" xmlns="http://www.w3.org/2000/svg" viewBox="0 0 60 60"><defs><style>.cls-1{fill:#231f20;}</style></defs><path class="cls-1" d="m59.75,43.07c.15-.17.25-.39.25-.64,0-5.43-1.46-10.53-4-14.93-.01-.02-.01-.05-.02-.07-.01-.02-.03-.03-.05-.06-2.62-4.5-6.38-8.25-10.88-10.88-.02-.01-.03-.04-.06-.05-.02-.01-.05-.01-.07-.02-4.4-2.54-9.49-3.99-14.93-3.99s-10.53,1.46-14.93,3.99c-.02.01-.05.01-.07.02-.02.01-.04.04-.06.05-4.5,2.62-8.25,6.38-10.88,10.88-.01.02-.04.03-.05.06-.01.02-.01.05-.02.07-2.54,4.4-4,9.5-4,14.93,0,.25.1.47.25.64v.11h.11c.17.15.4.25.64.25h4.63c.55,0,1-.45,1-1s-.45-1-1-1h-3.61c.15-4.37,1.32-8.48,3.26-12.12l3.12,1.8c.16.09.33.13.5.13.35,0,.68-.18.87-.5.28-.48.11-1.09-.37-1.37l-3.12-1.8c2.25-3.58,5.29-6.62,8.87-8.87l1.8,3.11c.19.32.52.5.87.5.17,0,.34-.04.5-.13.48-.28.64-.89.37-1.37l-1.8-3.12c3.64-1.94,7.76-3.09,12.12-3.25v3.6c0,.55.45,1,1,1s1-.45,1-1v-3.6c4.37.15,8.48,1.31,12.12,3.25l-1.8,3.12c-.28.48-.11,1.09.37,1.37.16.09.33.13.5.13.35,0,.68-.18.87-.5l1.8-3.11c3.58,2.25,6.62,5.29,8.87,8.87l-3.12,1.8c-.48.28-.64.89-.37,1.37.19.32.52.5.87.5.17,0,.34-.04.5-.13l3.12-1.8c1.94,3.64,3.1,7.75,3.26,12.12h-3.61c-.55,0-1,.45-1,1s.45,1,1,1h4.63c.25,0,.47-.1.64-.25h.11v-.11Z"/><path class="cls-1" d="m43.77,27.61l-13.34,9.72c-.14-.01-.28-.04-.43-.04-2.84,0-5.14,2.31-5.14,5.14s2.31,5.14,5.14,5.14,4.91-2.11,5.1-4.76l10.06-13.8c.29-.4.25-.95-.1-1.3-.35-.35-.9-.39-1.3-.1Zm-13.77,17.96c-1.73,0-3.14-1.41-3.14-3.14s1.41-3.14,3.14-3.14,3.14,1.41,3.14,3.14-1.41,3.14-3.14,3.14Zm2.76-7.47l7.03-5.13-5.22,7.16c-.42-.83-1.04-1.53-1.82-2.03Z"/></svg>