<?xml version="1.0" encoding="UTF-8"?><svg id="Art" xmlns="http://www.w3.org/2000/svg" viewBox="0 0 60 60"><defs><style>.cls-1{fill:#231f20;}</style></defs><path class="cls-1" d="m.25,21.05h.11c.17.15.39.25.64.25h19.79c.25,0,.47-.1.64-.25h.11v-.11c.15-.17.25-.4.25-.64v-4.47c0-1.56-.79-2.98-2.1-3.81l-4.18-2.62c.67-.95,1.04-2.09,1.04-3.27,0-3.12-2.54-5.66-5.66-5.66s-5.66,2.54-5.66,5.66c0,1.19.37,2.33,1.04,3.27l-4.17,2.62c-1.32.83-2.1,2.25-2.1,3.81v4.47c0,.25.1.47.25.64v.11ZM10.89,2.48c2.02,0,3.66,1.64,3.66,3.66,0,1.05-.45,2.05-1.23,2.74-.99.88-2.47,1.1-3.71.66-.21-.07-.41-.17-.6-.28-.19-.11-.37-.24-.54-.39,0,0,0,0,0,0,0,0,0,0,0,0-.78-.69-1.23-1.69-1.23-2.74,0-2.02,1.64-3.66,3.66-3.66Zm-3.02,8.43c.11.07.22.12.33.18.15.08.3.15.45.22.17.07.34.14.51.19.07.02.14.04.21.06.49.14,1,.23,1.52.23s1.02-.09,1.51-.23c.07-.02.14-.04.21-.06.17-.06.34-.12.51-.19.15-.06.3-.14.45-.22.11-.06.22-.12.33-.18.04-.03.08-.04.12-.07l4.58,2.88c.73.46,1.17,1.25,1.17,2.11v3.47H2v-3.47c0-.86.44-1.65,1.17-2.11l4.58-2.88s.08.04.12.07Z"/><path class="cls-1" d="m19.68,50.24l-4.18-2.62c.67-.95,1.04-2.09,1.04-3.27,0-3.12-2.54-5.66-5.66-5.66s-5.66,2.54-5.66,5.66c0,1.19.37,2.33,1.04,3.27l-4.17,2.62c-1.32.83-2.1,2.25-2.1,3.81v4.47c0,.25.1.47.25.64v.11h.11c.17.15.39.25.64.25h19.79c.25,0,.47-.1.64-.25h.11v-.11c.15-.17.25-.4.25-.64v-4.47c0-1.56-.79-2.98-2.1-3.81Zm-8.79-9.55c2.02,0,3.66,1.64,3.66,3.66,0,1.05-.45,2.05-1.23,2.74-.99.88-2.47,1.1-3.71.66-.21-.07-.41-.17-.6-.28-.19-.11-.37-.24-.54-.39,0,0,0,0,0,0,0,0,0,0,0,0-.78-.69-1.23-1.69-1.23-2.74,0-2.02,1.64-3.66,3.66-3.66Zm-3.02,8.43c.11.07.22.12.33.18.15.08.3.15.45.22.17.07.34.14.51.19.07.02.14.04.21.06.49.14,1,.23,1.52.23s1.02-.09,1.51-.23c.07-.02.14-.04.21-.06.17-.06.34-.12.51-.19.15-.06.3-.14.45-.22.11-.06.22-.12.33-.18.04-.03.08-.04.12-.07l4.58,2.88c.73.46,1.17,1.25,1.17,2.11v3.47H2v-3.47c0-.86.44-1.65,1.17-2.11l4.58-2.88s.08.04.12.07Z"/><path class="cls-1" d="m57.9,12.03l-4.18-2.62c.67-.95,1.04-2.09,1.04-3.27,0-3.12-2.54-5.66-5.66-5.66s-5.66,2.54-5.66,5.66c0,1.19.37,2.33,1.04,3.27l-4.17,2.62c-1.32.83-2.1,2.25-2.1,3.81v4.47c0,.25.1.47.25.64v.11h.11c.17.15.39.25.64.25h19.79c.25,0,.47-.1.64-.25h.11v-.11c.15-.17.25-.4.25-.64v-4.47c0-1.56-.79-2.98-2.1-3.81Zm-8.79-9.55c2.02,0,3.66,1.64,3.66,3.66,0,1.05-.45,2.05-1.23,2.74-1,.88-2.48,1.1-3.71.66-.41-.15-.8-.37-1.13-.66-.78-.69-1.23-1.69-1.23-2.74,0-2.02,1.64-3.66,3.66-3.66Zm-3.02,8.43c.1.07.21.12.32.18.15.08.3.16.46.22.17.07.34.13.51.19.07.02.14.04.22.06.49.14.99.23,1.51.23s1.03-.09,1.52-.23c.07-.02.14-.04.21-.06.18-.06.35-.12.52-.19.15-.06.3-.14.45-.22.11-.06.22-.12.33-.18.04-.03.08-.04.12-.07l4.58,2.88c.73.46,1.17,1.25,1.17,2.11v3.47h-17.79v-3.47c0-.86.44-1.65,1.17-2.11l4.58-2.88s.08.04.12.07Z"/><path class="cls-1" d="m57.9,50.24l-4.18-2.62c.67-.95,1.04-2.09,1.04-3.27,0-3.12-2.54-5.66-5.66-5.66s-5.66,2.54-5.66,5.66c0,1.19.37,2.33,1.04,3.27l-4.17,2.62c-1.32.83-2.1,2.25-2.1,3.81v4.47c0,.25.1.47.25.64v.11h.11c.17.15.39.25.64.25h19.79c.25,0,.47-.1.64-.25h.11v-.11c.15-.17.25-.4.25-.64v-4.47c0-1.56-.79-2.98-2.1-3.81Zm-8.79-9.55c2.02,0,3.66,1.64,3.66,3.66,0,1.05-.45,2.05-1.23,2.74-1,.88-2.48,1.1-3.71.66-.41-.15-.8-.37-1.13-.66-.78-.69-1.23-1.69-1.23-2.74,0-2.02,1.64-3.66,3.66-3.66Zm-3.02,8.43c.1.07.21.12.32.18.15.08.3.16.46.22.17.07.34.13.51.19.07.02.14.04.22.06.49.14.99.23,1.51.23s1.03-.09,1.52-.23c.07-.02.14-.04.21-.06.18-.06.35-.12.52-.19.15-.06.3-.14.45-.22.11-.06.22-.12.33-.18.04-.03.08-.04.12-.07l4.58,2.88c.73.46,1.17,1.25,1.17,2.11v3.47h-17.79v-3.47c0-.86.44-1.65,1.17-2.11l4.58-2.88s.08.04.12.07Z"/><path class="cls-1" d="m50.11,36.06v-11.9c0-.55-.45-1-1-1s-1,.45-1,1v11.9c0,.55.45,1,1,1s1-.45,1-1Z"/><path class="cls-1" d="m9.89,24.17v11.9c0,.55.45,1,1,1s1-.45,1-1v-11.9c0-.55-.45-1-1-1s-1,.45-1,1Z"/><path class="cls-1" d="m24.19,16.64h11.59c.55,0,1-.45,1-1s-.45-1-1-1h-11.59c-.55,0-1,.45-1,1s.45,1,1,1Z"/><path class="cls-1" d="m35.78,52.86h-11.59c-.55,0-1,.45-1,1s.45,1,1,1h11.59c.55,0,1-.45,1-1s-.45-1-1-1Z"/><path class="cls-1" d="m36.38,36.9l5.02-4.83c.28-.27.38-.67.26-1.03s-.43-.63-.81-.68l-6.9-.96-3.04-6.27c-.33-.69-1.46-.69-1.8,0l-3.04,6.27-6.9.96c-.38.05-.7.32-.81.68s-.02.76.26,1.03l5.02,4.83-1.22,6.85c-.07.38.09.76.4.98.17.13.38.19.59.19.16,0,.32-.04.47-.12l6.14-3.28,6.14,3.28c.34.18.75.15,1.06-.07.31-.23.46-.61.4-.98l-1.22-6.85Zm-10.98,4.82s0,0,0,0l-.66.35.95-5.35c.06-.33-.05-.67-.29-.9l-3.92-3.77,5.39-.75c.33-.05.62-.25.76-.55l2.37-4.89,2.37,4.89c.15.3.43.51.76.55l5.39.75-3.92,3.77c-.24.23-.35.57-.29.9l.95,5.35-4.8-2.56c-.15-.08-.31-.12-.47-.12s-.32.04-.47.12l-4.13,2.21Z"/></svg>