<?xml version="1.0" encoding="UTF-8"?><svg id="Art" xmlns="http://www.w3.org/2000/svg" viewBox="0 0 60 60"><defs><style>.cls-1{fill:#231f20;}</style></defs><path class="cls-1" d="m59.44,28.39c.51-.51.69-1.25.47-1.94-.16-.51-.52-.91-.99-1.14l.19-.19c.57-.57.89-1.32.89-2.12s-.32-1.55-.88-2.11c-1.13-1.15-3.11-1.14-4.24,0l-.19.19c-.22-.46-.63-.82-1.14-.99-.69-.22-1.43-.04-1.94.47l-1.94,1.94c-2.37-1.31-4.97-2.13-7.67-2.4v-10.11c0-2.76-2.24-5-5-5h-7.28c-.35-.59-.98-1-1.72-1h-1.34c-.83-2.36-3.09-4-5.66-4s-4.83,1.64-5.66,4h-1.34c-.74,0-1.38.41-1.72,1h-7.28C2.24,5,0,7.24,0,10v42c0,2.76,2.24,5,5,5h24.52c3.05,1.89,6.64,3,10.48,3,11.03,0,20-8.97,20-20,0-3.4-.87-6.72-2.51-9.67l1.94-1.94Zm-1.73-6.08c.19.19.29.44.29.7s-.1.51-.3.7l-1.16,1.16-1.16-.17-.21-1.26,1.14-1.14c.38-.38,1.01-.39,1.41,0Zm-4.8-.26l.5,2.99c.13.81.77,1.44,1.57,1.57l2.93.49-2.34,2.37s-.1.08-.14.14l-.4.4h-5.03v-1.77s0-.06,0-.1l-.02-3.1,2.93-2.99Zm-1.9,17.96c0,6.07-4.93,11-11,11s-11-4.93-11-11,4.93-11,11-11c1.9,0,3.73.49,5.36,1.41l-3.82,3.82c-.5-.13-1.01-.23-1.54-.23-3.31,0-6,2.69-6,6s2.69,6,6,6,6-2.69,6-6c0-.53-.09-1.04-.23-1.54l3.82-3.82c.92,1.63,1.41,3.45,1.41,5.36Zm-2.94-9.47c.17.69.71,1.24,1.41,1.41l-5.52,5.52s0,0,0,0l-2.24,2.24c-.38.38-1.02.39-1.41,0-.19-.19-.3-.44-.3-.7s.1-.51.3-.7l2.24-2.24s0,0,0,0l5.52-5.52Zm-9.18,10.58c.57.57,1.32.88,2.12.88s1.55-.31,2.12-.88l.86-.86c-.14,2.08-1.86,3.74-3.97,3.74s-4-1.79-4-4,1.66-3.84,3.74-3.97l-.85.85c-.57.57-.89,1.32-.89,2.12s.32,1.55.89,2.12Zm1.12-31.12v10c-.68,0-1.34.04-2,.1v-9.1c0-1.1-.9-2-2-2h-6v-2h7c1.65,0,3,1.35,3,3Zm-15.96,18h-4.04c-.55,0-1,.45-1,1s.45,1,1,1h2.71c-.38.65-.72,1.31-1.02,2h-1.68c-.55,0-1,.45-1,1s.45,1,1,1h.92c-.5,1.59-.79,3.27-.87,5h-.05c-.55,0-1,.45-1,1s.45,1,1,1h.05c.03.68.1,1.34.2,2h-.25c-.55,0-1,.45-1,1s.45,1,1,1h.66c.56,2.16,1.46,4.19,2.66,6H6V11h6.28c.35.59.98,1,1.72,1h14c.74,0,1.38-.41,1.72-1h6.28v9.4c-4.86.99-9.08,3.77-11.96,7.6Zm-7.94-22c.48,0,.89-.34.98-.8.37-1.85,2.02-3.2,3.92-3.2s3.55,1.34,3.92,3.2c.09.47.5.8.98.8h2.1v4h-14v-4h2.1ZM5,55c-1.65,0-3-1.35-3-3V10c0-1.65,1.35-3,3-3h7v2h-6c-1.1,0-2,.9-2,2v40c0,1.1.9,2,2,2h18.83c.61.71,1.28,1.38,1.98,2H5Zm35,3c-9.93,0-18-8.07-18-18s8.07-18,18-18c2.89,0,5.72.69,8.27,2.01-.17.29-.27.62-.27.96v2.8l-1.18,1.18c-2.04-1.27-4.38-1.95-6.82-1.95-7.17,0-13,5.83-13,13s5.83,13,13,13,13-5.83,13-13c0-2.44-.67-4.78-1.95-6.82l1.18-1.18h2.8c.34,0,.67-.1.96-.27,1.32,2.54,2.01,5.37,2.01,8.27,0,9.93-8.07,18-18,18Z"/><path class="cls-1" d="m20,19h13c.55,0,1-.45,1-1s-.45-1-1-1h-13c-.55,0-1,.45-1,1s.45,1,1,1Z"/><path class="cls-1" d="m27,22c0-.55-.45-1-1-1h-6c-.55,0-1,.45-1,1s.45,1,1,1h6c.55,0,1-.45,1-1Z"/><path class="cls-1" d="m16.45,15.11c-.5-.25-1.09-.05-1.34.45l-3.38,6.76-1.02-1.02c-.39-.39-1.02-.39-1.41,0s-.39,1.02,0,1.41l2,2c.19.19.44.29.71.29.05,0,.11,0,.16-.01.32-.05.59-.25.73-.54l4-8c.25-.49.05-1.09-.45-1.34Z"/><path class="cls-1" d="m16.45,26.11c-.5-.25-1.09-.05-1.34.45l-3.38,6.76-1.02-1.02c-.39-.39-1.02-.39-1.41,0s-.39,1.02,0,1.41l2,2c.19.19.44.29.71.29.05,0,.11,0,.16-.01.32-.05.59-.25.73-.54l4-8c.25-.49.05-1.09-.45-1.34Z"/><path class="cls-1" d="m16.45,37.11c-.5-.25-1.09-.05-1.34.45l-3.38,6.76-1.02-1.02c-.39-.39-1.02-.39-1.41,0s-.39,1.02,0,1.41l2,2c.19.19.44.29.71.29.05,0,.11,0,.16-.01.32-.05.59-.25.73-.54l4-8c.25-.49.05-1.09-.45-1.34Z"/></svg>