<?xml version="1.0" encoding="UTF-8"?><svg id="Art" xmlns="http://www.w3.org/2000/svg" viewBox="0 0 60 60"><path d="m24.82,34.78c-.55,0-1.03.38-1.06.94l-.21,3.41c-.03.55.38,1.03.94,1.06.02,0,.04,0,.06,0,.52,0,.96-.41,1-.94l.21-3.41c.03-.55-.38-1.03-.94-1.06Z"/><path d="m30.73,35.42c.37,0,.71-.2.88-.53l2.22-4.12,1.81.65c.5.18.91.52,1.16.95.2.34.43.86.43,1.41,0,.04,0,.07,0,.11,0,.03.3,2.71.4,5.33.02.54.46.96,1,.96.01,0,.03,0,.04,0,.55-.02.98-.49.96-1.04-.1-2.51-.36-5.01-.41-5.41,0-.38-.07-.76-.18-1.15l2.54-.91,1.97,3.67c.17.32.51.53.88.53h1.31c.37,0,.71-.2.88-.53l1.97-3.67,1.57.56c.43.16.79.45,1,.82.17.3.38.76.38,1.23,0,.04,0,.07,0,.11,0,.02.27,2.46.37,4.82.02.54.46.96,1,.96.01,0,.03,0,.04,0,.55-.02.98-.49.96-1.04-.09-2.27-.33-4.54-.37-4.91-.01-.72-.23-1.45-.64-2.17-.45-.78-1.18-1.39-2.06-1.71l-2.38-.85c-.46-.17-.98.03-1.22.47l-2.1,3.9h-.11l-2.1-3.9c-.24-.44-.75-.64-1.22-.47l-3.6,1.29c-.47-.56-1.09-.99-1.81-1.25l-2.63-.94c-.46-.17-.98.03-1.22.47l-2.34,4.35h-.25l-2.34-4.35c-.23-.44-.75-.64-1.22-.47l-2.63.94c-.71.26-1.33.69-1.8,1.24l-3.62-1.29c-.47-.17-.98.03-1.22.47l-2.1,3.9h-.11l-2.1-3.9c-.23-.44-.75-.63-1.22-.47l-2.39.85c-.88.32-1.61.93-2.05,1.7-.42.72-.64,1.46-.65,2.18-.04.38-.28,2.64-.37,4.91-.02.55.41,1.02.96,1.04.01,0,.03,0,.04,0,.53,0,.98-.42,1-.96.09-2.37.36-4.8.37-4.82,0-.04,0-.07,0-.11,0-.48.21-.94.38-1.24.21-.37.57-.66,1-.82l1.57-.56,1.97,3.67c.17.32.51.53.88.53h1.31c.37,0,.71-.2.88-.53l1.97-3.67,2.55.9c-.11.39-.17.77-.18,1.16-.04.4-.31,2.9-.41,5.41-.02.55.41,1.02.96,1.04.56.04,1.02-.41,1.04-.96.1-2.61.4-5.3.4-5.33,0-.04,0-.07,0-.11,0-.55.23-1.07.43-1.42.25-.43.66-.77,1.15-.95l1.82-.65,2.22,4.12c.17.32.51.53.88.53h1.44Z"/><path d="m35.19,34.78c-.55.04-.97.51-.94,1.06l.21,3.41c.03.53.47.94,1,.94.02,0,.04,0,.06,0,.55-.04.97-.51.94-1.06l-.21-3.41c-.03-.55-.5-.95-1.06-.94Z"/><path d="m25.42,24.4c0,2.53,2.06,4.58,4.58,4.58s4.58-2.06,4.58-4.58-2.06-4.58-4.58-4.58-4.58,2.06-4.58,4.58Zm4.58,2.58c-1.42,0-2.58-1.16-2.58-2.58s1.16-2.58,2.58-2.58,2.58,1.16,2.58,2.58-1.16,2.58-2.58,2.58Z"/><path d="m49.79,35.09c-.55.04-.97.51-.94,1.06l.19,3.09c.03.53.47.94,1,.94.02,0,.04,0,.06,0,.55-.04.97-.51.94-1.06l-.19-3.09c-.04-.55-.5-.96-1.06-.94Z"/><path d="m45.1,29.82c2.44,0,4.43-1.99,4.43-4.43s-1.99-4.43-4.43-4.43-4.43,1.99-4.43,4.43,1.99,4.43,4.43,4.43Zm0-6.86c1.34,0,2.43,1.09,2.43,2.43s-1.09,2.43-2.43,2.43-2.43-1.09-2.43-2.43,1.09-2.43,2.43-2.43Z"/><path d="m9.95,40.18c.52,0,.96-.41,1-.94l.19-3.09c.03-.55-.38-1.03-.94-1.06-.55-.02-1.03.38-1.06.94l-.19,3.09c-.03.55.38,1.03.94,1.06.02,0,.04,0,.06,0Z"/><path d="m10.47,25.39c0,2.44,1.99,4.43,4.43,4.43s4.43-1.99,4.43-4.43-1.99-4.43-4.43-4.43-4.43,1.99-4.43,4.43Zm4.43,2.43c-1.34,0-2.43-1.09-2.43-2.43s1.09-2.43,2.43-2.43,2.43,1.09,2.43,2.43-1.09,2.43-2.43,2.43Z"/><path d="m12.57,53.05c.02-.08.05-.15.05-.23v-7.89c0-.55-.45-1-1-1h0c-.55,0-1,.45-1,1v5.68c-5.49-5.26-8.61-12.49-8.61-20.16C2,15.06,14.53,2.53,29.92,2.53c.55,0,1-.45,1-1s-.45-1-1-1C13.42.53,0,13.95,0,30.45c0,8.11,3.25,15.75,8.99,21.37H3.72c-.55,0-1,.45-1,1s.45,1,1,1h7.78s.06.01.1.01c.21,0,.41-.09.58-.22.02-.02.05-.03.07-.05h.11v-.09s0,0,.01,0c.03-.04.04-.08.06-.12.04-.07.08-.13.11-.21,0-.03.01-.06.02-.09Z"/><path d="m51.01,8.18h5.27c.55,0,1-.45,1-1s-.45-1-1-1h-7.85c-.14,0-.28.02-.41.08,0,0,0,0-.01,0-.09.04-.16.1-.24.16,0,0-.01,0-.02.01h-.11v.09s0,0-.01,0c-.03.04-.04.08-.06.12-.04.07-.08.13-.11.21,0,.03-.01.06-.02.09-.02.08-.05.15-.05.23v7.89c0,.55.45,1,1,1h0c.55,0,1-.45,1-1v-5.68c5.49,5.26,8.61,12.49,8.61,20.16,0,15.4-12.53,27.92-27.92,27.92-.55,0-1,.45-1,1s.45,1,1,1c16.5,0,29.92-13.42,29.92-29.92,0-8.11-3.25-15.75-8.99-21.37Z"/></svg>