<?xml version="1.0" encoding="utf-8"?>
<!-- Generator: Adobe Illustrator 27.2.0, SVG Export Plug-In . SVG Version: 6.00 Build 0)  -->
<svg version="1.1" id="Layer_2_00000120538117096871159310000002552141983439670943_"
	 xmlns="http://www.w3.org/2000/svg" xmlns:xlink="http://www.w3.org/1999/xlink" x="0px" y="0px" viewBox="0 0 60 60"
	 style="enable-background:new 0 0 60 60;" xml:space="preserve">
<style type="text/css">
	.st0{fill:#231F20;}
</style>
<path class="st0" d="M57,45.8V34c0-3-2.2-5.4-5-5.9v-0.8c2.1-1,3.7-3.1,3.9-5.5c1.2-0.4,2.1-1.5,2.1-2.8v-1.5V17
	c0-3.4-2.1-6.3-5.1-7.4C53,9.4,53,9.2,53,9c0-2.2-1.8-4-4-4s-4,1.8-4,4c0,0.2,0,0.4,0.1,0.6c-3,1.2-5.1,4.1-5.1,7.4v0.5V19
	c0,1.3,0.9,2.4,2.1,2.8c0.3,2.4,1.8,4.5,3.9,5.5v0.8c-1.9,0.3-3.5,1.5-4.4,3.2c-1.2-0.5-2.4-0.9-3.6-1.2V27c0-3-2.2-5.4-5-5.9v-0.8
	c2.1-1,3.7-3.1,3.9-5.5c1.2-0.4,2.1-1.5,2.1-2.8v-1.5V7c0-3.9-3.1-7-7-7h-4c-3.9,0-7,3.1-7,7v3.5V12c0,1.3,0.9,2.4,2.1,2.8
	c0.3,2.4,1.8,4.5,3.9,5.5v0.8c-2.8,0.5-5,2.9-5,5.9v3.1c-1.2,0.3-2.5,0.8-3.6,1.2c-0.9-1.7-2.5-2.9-4.4-3.2v-0.8
	c2.1-1,3.7-3.1,3.9-5.5c1.2-0.4,2.1-1.5,2.1-2.8v-1.5V17c0-3.4-2.1-6.3-5.1-7.4C15,9.4,15,9.2,15,9c0-2.2-1.8-4-4-4S7,6.8,7,9
	c0,0.2,0,0.4,0.1,0.6C4.1,10.7,2,13.6,2,17v0.5V19c0,1.3,0.9,2.4,2.1,2.8c0.3,2.4,1.8,4.5,3.9,5.5v0.8C5.2,28.6,3,31,3,34v11.8
	c-1.8,3.7-2.8,7.8-3,12.1c0,0.5,0.2,1,0.6,1.4C0.9,59.8,1.5,60,2,60h56c0.5,0,1.1-0.2,1.5-0.6c0.4-0.4,0.6-0.9,0.6-1.4
	C59.8,53.6,58.8,49.5,57,45.8z M47,9c0-1.1,0.9-2,2-2s2,0.9,2,2c0,0,0,0,0,0.1C50.7,9,50.3,9,50,9h-2C47.7,9,47.3,9,47,9
	C47,9,47,9,47,9z M48,11h2c2.6,0,4.8,1.7,5.7,4c-0.1,0-0.1,0-0.2,0c-1,0-1.8,0.6-2.2,1.4c-2.6-0.5-3.7-1.6-4.1-2.3
	c-0.5-0.8-1.3-1.1-2.2-0.9c-1.2,0.3-2.4,1.2-3.1,2.2C43.4,15.1,43,15,42.5,15c-0.1,0-0.1,0-0.2,0C43.2,12.7,45.4,11,48,11z M44,21
	c0-0.6-0.4-1-1-1c-0.6,0-1-0.4-1-1v-1.5c0-0.3,0.2-0.5,0.5-0.5s0.5,0.2,0.5,0.5c0,0.6,0.4,1,1,1s1-0.4,1-1c0-0.6,1.1-2.1,2.4-2.4
	c0.7,1.1,2.4,3,6.5,3.4c0.3,0,0.6-0.1,0.8-0.3s0.3-0.5,0.3-0.7v0c0-0.3,0.2-0.5,0.5-0.5s0.5,0.2,0.5,0.5V19c0,0.6-0.4,1-1,1
	c-0.6,0-1,0.4-1,1c0,2.8-2.2,5-5,5S44,23.8,44,21z M49,28c0.3,0,0.7,0,1-0.1V29c0,0.3-0.1,0.5-0.3,0.7C49.5,29.9,49.3,30,49,30
	c-0.6,0-1-0.4-1-1v-1.1C48.3,28,48.7,28,49,28z M46.2,30.1c0.4,1.1,1.5,1.9,2.8,1.9c0.8,0,1.6-0.3,2.1-0.9c0.3-0.3,0.5-0.7,0.7-1
	c1.8,0.4,3.2,2,3.2,3.9v8.3c-2.9-4.3-6.9-7.8-11.5-10.2C44,31.1,45,30.3,46.2,30.1z M18,33.6C18.1,33.6,18.1,33.6,18,33.6
	c0.1,0,0.2-0.1,0.2-0.1c1.6-0.7,3.3-1.3,5-1.7c0,0,0.1,0,0.1,0c1.8-0.4,3.7-0.7,5.6-0.8v15c-2.8,0.2-5.4,1.3-7.5,3.1L10.9,38.5
	C13,36.5,15.4,34.9,18,33.6z M30,48c1.2,0,2.4,0.2,3.5,0.6l-1.6,3.7C31.3,52.1,30.7,52,30,52c-3.5,0-6.4,2.6-6.9,6h-4
	C19.6,52.4,24.3,48,30,48z M30,54c2.4,0,4.4,1.7,4.9,4h-9.8C25.6,55.7,27.6,54,30,54z M33.7,53.1l1.6-3.7c3.1,1.7,5.3,4.9,5.6,8.6
	h-4C36.6,55.9,35.4,54.2,33.7,53.1z M38.5,49.1c-0.7-0.6-1.5-1.1-2.3-1.6l2.7-6.2c0.2-0.5,0-1.1-0.5-1.3c-0.5-0.2-1.1,0-1.3,0.5
	l-2.7,6.2c-1.1-0.4-2.2-0.6-3.3-0.7V31c1.9,0.1,3.8,0.3,5.6,0.8c0,0,0.1,0,0.1,0c1.7,0.4,3.4,1,5,1.7c0.1,0,0.1,0.1,0.2,0.1
	c0,0,0,0,0,0c2.6,1.2,5.1,2.9,7.2,4.8L38.5,49.1z M28,2h4c2.8,0,5,2.2,5,5v1.1C36.8,8,36.7,8,36.5,8c-0.4,0-0.9,0.1-1.2,0.3
	c-0.6-0.8-1.4-1.3-2.4-1.5c-1-0.2-1.8-0.4-2.4-0.7c-0.3-0.1-0.6-0.1-0.9,0c-0.6,0.3-1.4,0.5-2.4,0.7c-0.9,0.1-1.7,0.6-2.2,1.3
	c-0.1,0.1-0.1,0.1-0.2,0.2C24.4,8.1,23.9,8,23.5,8c-0.2,0-0.3,0-0.5,0.1V7C23,4.2,25.2,2,28,2z M25,14c0-0.6-0.4-1-1-1
	c-0.6,0-1-0.4-1-1v-1.5c0-0.3,0.2-0.5,0.5-0.5s0.5,0.2,0.5,0.5c0,0.6,0.4,1,1,1s1-0.4,1-1c0-0.4,0.1-0.8,0.4-1.1
	c0.3-0.3,0.6-0.5,1-0.6c1-0.2,1.9-0.4,2.6-0.7c0.7,0.3,1.6,0.5,2.6,0.7c0.8,0.1,1.4,0.9,1.4,1.7c0,0.6,0.4,1,1,1s1-0.4,1-1
	c0-0.3,0.2-0.5,0.5-0.5s0.5,0.2,0.5,0.5V12c0,0.6-0.4,1-1,1c-0.6,0-1,0.4-1,1c0,2.8-2.2,5-5,5S25,16.8,25,14z M30,21
	c0.3,0,0.7,0,1-0.1V22c0,0.6-0.4,1-1,1c-0.3,0-0.5-0.1-0.7-0.3C29.1,22.5,29,22.3,29,22v-1.1C29.3,21,29.7,21,30,21z M24,27
	c0-1.9,1.4-3.6,3.2-3.9c0.1,0.4,0.4,0.7,0.7,1c0.6,0.6,1.3,0.9,2.1,0.9c1.3,0,2.4-0.8,2.8-1.9c1.8,0.4,3.2,2,3.2,3.9v2.6
	c-1.9-0.4-3.9-0.6-6-0.6c-2.1,0-4.1,0.2-6,0.6V27z M9,9c0-1.1,0.9-2,2-2s2,0.9,2,2c0,0,0,0,0,0.1C12.7,9,12.3,9,12,9h-2
	C9.7,9,9.3,9,9,9C9,9,9,9,9,9z M10,11h2c2.6,0,4.8,1.7,5.7,4c-0.1,0-0.1,0-0.2,0c-0.5,0-0.9,0.1-1.3,0.4c-0.8-1-1.9-1.9-3.2-2.2
	c-0.8-0.2-1.7,0.1-2.2,0.9c-0.4,0.7-1.6,1.9-4.1,2.4C6.3,15.6,5.5,15,4.5,15c-0.1,0-0.1,0-0.2,0C5.2,12.7,7.4,11,10,11z M6,21
	c0-0.6-0.4-1-1-1c-0.6,0-1-0.4-1-1v-1.5C4,17.2,4.2,17,4.5,17S5,17.2,5,17.5v0c0,0.3,0.1,0.6,0.3,0.7c0.2,0.2,0.5,0.3,0.8,0.3
	c4-0.4,5.8-2.3,6.4-3.4c1.4,0.4,2.5,1.8,2.5,2.4c0,0.6,0.4,1,1,1s1-0.4,1-1c0-0.3,0.2-0.5,0.5-0.5s0.5,0.2,0.5,0.5V19
	c0,0.6-0.4,1-1,1c-0.6,0-1,0.4-1,1c0,2.8-2.2,5-5,5S6,23.8,6,21z M11,28c0.3,0,0.7,0,1-0.1V29c0,0.6-0.4,1-1,1
	c-0.3,0-0.5-0.1-0.7-0.3C10.1,29.5,10,29.3,10,29v-1.1C10.3,28,10.7,28,11,28z M5,34c0-1.9,1.4-3.6,3.2-3.9c0.1,0.4,0.4,0.7,0.7,1
	C9.4,31.7,10.2,32,11,32c1.3,0,2.4-0.8,2.8-1.9c1.2,0.2,2.2,1,2.7,2.1C11.9,34.5,7.9,38,5,42.3V34z M2,58c0.1-4.1,1.1-7.9,2.8-11.4
	c0.1-0.1,0.1-0.2,0.1-0.3c1.2-2.4,2.7-4.6,4.5-6.5l10.7,10.7c-1.7,2-2.9,4.6-3.1,7.4L2,58L2,58z M42.9,58c-0.2-2.8-1.3-5.4-3.1-7.4
	l10.7-10.7c1.8,1.9,3.3,4.1,4.5,6.5c0,0.1,0.1,0.2,0.1,0.2c1.7,3.4,2.7,7.3,2.8,11.3H42.9z"/>
</svg>
