<?xml version="1.0" encoding="UTF-8"?><svg id="Art" xmlns="http://www.w3.org/2000/svg" viewBox="0 0 60 60"><defs><style>.cls-1{fill:#231f20;}</style></defs><path class="cls-1" d="m24.03,11.39l3.24,3.24c.17.17.39.26.63.28l.08.08.08-.08c.24-.02.46-.11.63-.28l7.28-7.28c.39-.39.39-1.02,0-1.41s-1.02-.39-1.41,0l-6.57,6.57-2.53-2.53c-.39-.39-1.02-.39-1.41,0s-.39,1.02,0,1.41Z"/><path class="cls-1" d="m30,20.57c5.67,0,10.29-4.61,10.29-10.29S35.67,0,30,0s-10.29,4.61-10.29,10.29,4.61,10.29,10.29,10.29Zm0-18.57c4.57,0,8.29,3.72,8.29,8.29s-3.72,8.29-8.29,8.29-8.29-3.72-8.29-8.29,3.72-8.29,8.29-8.29Z"/><path class="cls-1" d="m23.79,53.93c-.54-.03-1.03.38-1.06.94l-.26,4.07c-.03.55.38,1.03.94,1.06.02,0,.04,0,.06,0,.52,0,.96-.41,1-.94l.26-4.07c.03-.55-.38-1.03-.94-1.06Z"/><path class="cls-1" d="m36.21,53.93c-.55.04-.97.51-.94,1.06l.26,4.07c.03.53.47.94,1,.94.02,0,.04,0,.06,0,.55-.04.97-.51.94-1.06l-.26-4.07c-.03-.55-.55-.96-1.06-.94Z"/><path class="cls-1" d="m57.53,53.19c-.01-.82-.26-1.66-.74-2.48-.5-.88-1.33-1.57-2.33-1.93l-2.8-1c-.46-.17-.98.03-1.22.47l-2.51,4.68h-.35l-2.52-4.68c-.23-.44-.75-.64-1.22-.47l-2.81,1c-.45.16-.86.4-1.22.68-.56-.82-1.36-1.46-2.33-1.81l-3.14-1.12c-.47-.17-.98.03-1.22.47l-2.85,5.31h-.53l-2.86-5.31c-.23-.44-.75-.64-1.22-.47l-3.15,1.12c-.97.35-1.78,1-2.33,1.81-.37-.29-.78-.52-1.23-.69l-2.8-1c-.46-.17-.98.03-1.22.47l-2.52,4.68h-.35l-2.51-4.68c-.23-.44-.75-.64-1.22-.47l-2.81,1c-.99.36-1.82,1.05-2.32,1.93-.48.83-.73,1.66-.74,2.48-.04.42-.33,3.09-.43,5.77-.02.55.41,1.02.96,1.04.01,0,.03,0,.04,0,.53,0,.98-.42,1-.96.11-2.79.43-5.66.43-5.68,0-.04,0-.07,0-.11,0-.6.26-1.17.47-1.55.27-.47.72-.84,1.26-1.04l2-.71,2.39,4.45c.17.32.51.53.88.53h1.54c.37,0,.71-.2.88-.53l2.39-4.45,1.99.71c.42.15.78.4,1.05.73-.09.37-.15.74-.15,1.11-.05.44-.37,3.49-.49,6.47-.02.55.41,1.02.96,1.04.53.02,1.02-.41,1.04-.96.13-3.13.48-6.35.48-6.38,0-.04,0-.07,0-.11,0-.7.3-1.36.55-1.79.32-.55.85-.99,1.48-1.22l2.33-.83,2.73,5.08c.17.32.51.53.88.53h1.73c.37,0,.71-.2.88-.53l2.73-5.08,2.33.83c.64.23,1.17.67,1.49,1.23.11.19.22.43.32.69,0,.03.03.06.04.1.11.31.18.65.18,1,0,.04,0,.07,0,.11,0,.03.36,3.25.48,6.38.02.54.46.96,1,.96.01,0,.03,0,.04,0,.55-.02.98-.49.96-1.04-.12-2.98-.44-6.03-.49-6.47,0-.37-.06-.74-.16-1.12.27-.32.62-.56,1.03-.71l1.99-.71,2.39,4.45c.17.32.51.53.88.53h1.54c.37,0,.71-.2.88-.53l2.39-4.45,1.99.71c.55.2,1,.57,1.27,1.05.21.37.47.94.47,1.54,0,.04,0,.07,0,.11,0,.03.32,2.89.43,5.68.02.54.46.96,1,.96.01,0,.03,0,.04,0,.55-.02.98-.49.96-1.04-.11-2.69-.39-5.36-.43-5.77Z"/><path class="cls-1" d="m53.29,54.37c-.55.04-.97.51-.93,1.06l.23,3.63c.03.53.47.94,1,.94.02,0,.04,0,.06,0,.55-.04.97-.51.93-1.06l-.23-3.63c-.04-.55-.51-.96-1.06-.93Z"/><path class="cls-1" d="m6.71,54.37c-.55-.02-1.03.38-1.06.93l-.23,3.63c-.04.55.38,1.03.93,1.06.02,0,.04,0,.06,0,.52,0,.96-.41,1-.94l.23-3.63c.04-.55-.38-1.03-.93-1.06Z"/><path class="cls-1" d="m12.24,47.82c2.78,0,5.03-2.26,5.03-5.03,0-1.91-1.08-3.56-2.66-4.41.12-1.48.23-2.49.23-2.5,0-.04,0-.08,0-.11,0-.6.26-1.17.47-1.55.27-.47.72-.84,1.26-1.04l2-.71,2.39,4.45c.17.32.51.53.88.53h1.84c.38,0,.74-.22.9-.57l2.11-4.39,1.95.7c.43.16.81.31,1.23.6-.21.52-.33,1.04-.36,1.55-2.83.24-5.05,2.61-5.05,5.5,0,3.04,2.48,5.52,5.52,5.52s5.52-2.48,5.52-5.52c0-2.52-1.7-4.64-4-5.3.02-.6.27-1.16.49-1.54.28-.49.75-.88,1.32-1.08l2.08-.74,2.48,4.6c.17.32.51.53.88.53h1.59c.37,0,.71-.2.88-.53l2.48-4.6,2.07.74c.57.21,1.04.59,1.33,1.09.22.38.49.98.49,1.6,0,.06,0,.13.02.19,0,0,.13.7.25,1.99-.04,0-.07-.01-.11-.01-2.78,0-5.03,2.26-5.03,5.03s2.26,5.03,5.03,5.03,5.03-2.26,5.03-5.03c0-2-1.18-3.72-2.87-4.53-.12-1.54-.27-2.48-.32-2.77-.02-.83-.27-1.67-.75-2.5-.52-.91-1.36-1.61-2.38-1.98l-2.89-1.03c-.47-.17-.98.03-1.22.47l-2.6,4.84h-.39l-2.6-4.84c-.23-.44-.75-.64-1.22-.47l-2.89,1.03c-.65.23-1.21.61-1.68,1.08-.59-.39-1.11-.61-1.63-.8l-2.8-1c-.24-.08-.49-.07-.7.01h-.02s0,.01,0,.01c-.22.09-.4.26-.51.48l-2.23,4.64h-.62l-2.51-4.68c-.23-.44-.75-.64-1.22-.47l-2.81,1c-.99.36-1.82,1.05-2.32,1.93-.48.83-.73,1.66-.74,2.48-.02.21-.11.98-.2,2.1-.14-.01-.27-.04-.42-.04-2.78,0-5.03,2.26-5.03,5.03s2.26,5.03,5.03,5.03Zm0-8.07c1.67,0,3.03,1.36,3.03,3.03s-1.36,3.03-3.03,3.03-3.03-1.36-3.03-3.03,1.36-3.03,3.03-3.03Zm17.76,4.59c-1.94,0-3.52-1.58-3.52-3.52s1.58-3.52,3.52-3.52,3.52,1.58,3.52,3.52-1.58,3.52-3.52,3.52Zm17.75,1.48c-1.67,0-3.03-1.36-3.03-3.03s1.36-3.03,3.03-3.03,3.03,1.36,3.03,3.03-1.36,3.03-3.03,3.03Z"/><path class="cls-1" d="m34.4,24.8c0,2.84,2.31,5.16,5.16,5.16s5.16-2.31,5.16-5.16-2.31-5.16-5.16-5.16-5.16,2.31-5.16,5.16Zm5.16,3.16c-1.74,0-3.16-1.42-3.16-3.16s1.42-3.16,3.16-3.16,3.16,1.42,3.16,3.16-1.42,3.16-3.16,3.16Z"/><path class="cls-1" d="m22.63,30.33c2.78,0,5.03-2.26,5.03-5.03s-2.26-5.03-5.03-5.03-5.03,2.26-5.03,5.03,2.26,5.03,5.03,5.03Zm0-8.07c1.67,0,3.03,1.36,3.03,3.03s-1.36,3.03-3.03,3.03-3.03-1.36-3.03-3.03,1.36-3.03,3.03-3.03Z"/></svg>