<?xml version="1.0" encoding="UTF-8"?><svg id="Art" xmlns="http://www.w3.org/2000/svg" viewBox="0 0 60 60"><defs><style>.cls-1{fill:#231f20;}</style></defs><path class="cls-1" d="m59.71,37.83c-.38-.91-1.1-1.63-2.01-2-.92-.38-1.92-.38-2.86.01l-1.66.73c-.22-4.05-.62-7.82-.67-8.31-.01-1.28-.4-2.6-1.16-3.9-.77-1.36-2.05-2.41-3.58-2.97l-4.76-1.7c-.46-.16-.98.03-1.22.47l-4.47,8.31h-1.42l-4.47-8.31c-.23-.44-.75-.63-1.22-.47l-4.76,1.7c-1.53.56-2.8,1.61-3.58,2.96-.76,1.31-1.15,2.63-1.16,3.91-.04.36-.27,2.55-.48,5.29-.1,0-.2-.02-.29-.02h-4.71v-1.3c0-.25-.1-.47-.25-.64v-.11h-.11c-.17-.15-.39-.25-.64-.25H1c-.55,0-1,.45-1,1s.45,1,1,1h12.25v17.14H3.53c-.55,0-1,.45-1,1s.45,1,1,1h10.72c.25,0,.47-.1.64-.25h.11v-.11c.15-.17.25-.39.25-.64v-1.3h3.43l11.92,3.97c.83.28,1.7.41,2.57.41,1.3,0,2.59-.31,3.76-.91l20.8-10.88c.91-.38,1.63-1.1,2-2.01s.37-1.92,0-2.84Zm-44.47-2.29h4.71c1.25,0,2.51.28,3.65.81l6.68,3.12c.13.06.28.09.42.09h8.79c.8.03,1.43.68,1.43,1.49s-.67,1.49-1.49,1.49h-10.46c-.06,0-.12,0-.17.02-1.05.19-3.03,1.09-3.03,3.19,0,.55.45,1,1,1s1-.45,1-1c0-.83,1.03-1.14,1.31-1.21h10.42s.05-.01.07-.01c.53-.02,1.02-.16,1.46-.39.02,0,.03,0,.05-.01l11.54-5.11s.05-.02.08-.03l2.92-1.29c.42-.18.89-.18,1.31,0,.42.17.75.5.93.92.18.42.18.89,0,1.31-.17.42-.5.75-1,.96l-20.87,10.92c-1.47.76-3.2.89-4.77.37l-12.07-4.02c-.1-.03-.21-.05-.32-.05h-3.59v-12.55Zm14.84-13.67l4.34,8.08c.17.32.51.53.88.53h2.62c.37,0,.71-.2.88-.53l4.34-8.08,3.95,1.41c1.09.39,1.98,1.13,2.52,2.08.41.7.89,1.79.89,2.97,0,.04,0,.07,0,.11,0,.05.49,4.48.7,9.01l-8.3,3.67s0-.05,0-.07c0-1.89-1.52-3.43-3.4-3.48,0,0,0,0-.02,0h-.02s-.04,0-.06,0c-.01,0-.02,0-.03,0h-8.48l-3.07-1.43.26-4.14c.03-.55-.38-1.03-.94-1.06-.55-.03-1.03.38-1.06.94l-.21,3.35-1.46-.68c-.7-.33-1.45-.58-2.21-.75.22-2.99.48-5.33.48-5.36,0-.04,0-.07,0-.11,0-1.18.48-2.26.89-2.97.54-.95,1.44-1.68,2.52-2.08l3.95-1.41Z"/><path class="cls-1" d="m36.4,20.5c4.13,0,7.49-3.36,7.49-7.49s-3.36-7.49-7.49-7.49-7.49,3.36-7.49,7.49,3.36,7.49,7.49,7.49Zm0-12.98c3.03,0,5.49,2.46,5.49,5.49s-2.46,5.49-5.49,5.49-5.49-2.46-5.49-5.49,2.46-5.49,5.49-5.49Z"/><path class="cls-1" d="m46.51,39.09s.04,0,.06,0c.55-.03.97-.51.94-1.06l-.39-6.16c-.03-.55-.5-.97-1.06-.94-.55.03-.97.51-.94,1.06l.39,6.16c.03.53.47.94,1,.94Z"/></svg>