<?xml version="1.0" encoding="UTF-8"?><svg id="Art" xmlns="http://www.w3.org/2000/svg" viewBox="0 0 60 60"><path d="m5.33,54.72h39.22c.55,0,1-.45,1-1s-.45-1-1-1H5.33c-.55,0-1,.45-1,1s.45,1,1,1Z"/><path d="m42.39,9.22c-5.33,0-9.66,4.33-9.66,9.66s4.33,9.66,9.66,9.66,9.66-4.33,9.66-9.66-4.33-9.66-9.66-9.66Zm0,17.32c-4.22,0-7.66-3.44-7.66-7.66s3.44-7.66,7.66-7.66,7.66,3.44,7.66,7.66-3.44,7.66-7.66,7.66Z"/><path d="m48.27,16.82c-.12-.35-.42-.62-.79-.68l-2.87-.48-1.34-2.58c-.34-.66-1.43-.66-1.77,0l-1.34,2.58-2.87.48c-.37.06-.67.32-.79.68s-.02.74.24,1.01l2.04,2.08-.43,2.88c-.05.37.1.74.4.96.3.22.7.25,1.03.09l2.6-1.3,2.6,1.3c.14.07.29.1.45.1.21,0,.41-.06.59-.19.3-.22.46-.59.4-.96l-.43-2.88,2.04-2.08c.26-.27.35-.66.24-1.01Zm-4.33,2.89l.22,1.47-1.33-.66c-.14-.07-.29-.1-.45-.1s-.31.04-.45.1l-1.33.66.22-1.47c.05-.31-.06-.62-.28-.85l-1.04-1.06,1.47-.25c.31-.05.58-.25.72-.52l.69-1.32.69,1.32c.15.28.41.47.72.52l1.47.25-1.04,1.06c-.22.22-.32.54-.28.85Z"/><path d="m59.55,17.85l-4.04-2.69,2.16-4.34c.15-.3.14-.65-.03-.94-.17-.29-.47-.48-.8-.5l-4.84-.31-.31-4.84c-.02-.33-.21-.64-.5-.8-.29-.17-.64-.18-.94-.03l-.38.19v-1.52c0-.25-.1-.47-.25-.64v-.11h-.11c-.17-.15-.39-.25-.64-.25H5.2C2.33,1.07,0,3.41,0,6.28v47.45c0,2.87,2.33,5.2,5.2,5.2h43.67c.25,0,.47-.1.64-.25h.11v-.11c.15-.17.25-.39.25-.64v-12.66c.14.14.32.24.52.27.05,0,.11.01.16.01.3,0,.59-.14.78-.38l2.39-3.01,3.76.81c.35.07.72-.05.96-.32.24-.27.31-.65.19-1l-4.8-13.48,3-.19c.33-.02.64-.21.8-.5.17-.29.18-.64.03-.94l-2.16-4.35,4.04-2.69c.28-.19.45-.5.45-.83s-.17-.65-.45-.83Zm-5.88,3.17c-.42.28-.57.83-.34,1.28l1.88,3.79-4.22.27c-.5.03-.9.43-.94.94l-.27,4.22-3.79-1.88s0,0,0,0c-.04-.02-.08-.02-.12-.03-.08-.03-.16-.06-.24-.06-.04,0-.08,0-.12.01-.09,0-.17.01-.25.04-.01,0-.03,0-.04,0-.04.01-.06.04-.09.06-.07.03-.13.07-.19.12-.05.04-.08.08-.12.13-.03.03-.06.05-.09.09l-2.34,3.52-2.24-3.37c-.08-.18-.22-.32-.39-.43-.04-.02-.07-.05-.11-.07-.03-.01-.05-.03-.07-.04-.02,0-.05,0-.07-.01-.09-.03-.19-.05-.29-.05,0,0-.01,0-.02,0-.12,0-.24.04-.35.08-.03.01-.06,0-.08.02l-3.79,1.88-.27-4.22c-.03-.5-.43-.9-.94-.94l-4.22-.27,1.88-3.79c.22-.45.08-1-.34-1.28l-3.52-2.34,3.52-2.34c.42-.28.57-.83.34-1.28l-1.88-3.79,4.22-.27c.5-.03.9-.43.94-.94l.27-4.22,3.79,1.88c.45.22,1,.08,1.28-.34l2.34-3.52,2.34,3.52c.28.42.83.56,1.28.34l3.79-1.88.27,4.22c.03.5.43.9.94.94l4.22.27-1.88,3.79c-.22.45-.08,1,.34,1.28l3.52,2.34-3.52,2.34Zm2.48,19.61l-2.61-.56c-.37-.08-.76.06-.99.36l-1.66,2.08-3.56-10,2.92,1.45c.3.15.65.14.94-.03.29-.17.48-.47.5-.8l.27-4.26,4.19,11.77ZM47.87,4.58l-1.97.98-1.65-2.48h3.62v1.51Zm-15.06,24.35l.27,4.21c.02.33.21.64.5.8.29.17.64.18.94.03l2.94-1.46-3.57,10.01-1.66-2.08c-.24-.3-.62-.44-.99-.36l-2.61.56,4.17-11.71ZM4.2,3.25v45.37c-.82.16-1.57.53-2.2,1.03V6.28c0-1.42.93-2.61,2.2-3.03Zm1,47.27h42.67v6.41H5.2c-1.77,0-3.2-1.44-3.2-3.2s1.44-3.2,3.2-3.2ZM6.2,3.07h34.32l-1.65,2.48-4.35-2.16c-.3-.15-.65-.14-.94.03-.29.17-.48.47-.5.8l-.31,4.84-4.84.31c-.33.02-.64.21-.8.5-.17.29-.18.64-.03.94l2.16,4.35-4.04,2.69c-.28.19-.45.5-.45.83s.17.65.45.83l4.04,2.69-2.16,4.35c-.15.3-.14.65.03.94.17.29.47.48.8.5l3.02.19-4.8,13.48c-.12.34-.05.72.19,1,.24.27.61.39.96.32l3.76-.81,2.39,3.01c.19.24.48.38.78.38.05,0,.11,0,.16-.01.36-.06.66-.31.78-.65l4.32-12.12,2.05,3.09c.19.28.5.45.83.45s.65-.17.83-.45l2.07-3.11,2.58,7.25v8.53H6.2V3.07Z"/></svg>