<?xml version="1.0" encoding="UTF-8"?><svg id="Art" xmlns="http://www.w3.org/2000/svg" viewBox="0 0 60 60"><path d="m52,40.48l-9.11,9.11-3.18-3.19c-.39-.39-1.02-.39-1.41,0s-.39,1.02,0,1.41l3.89,3.89c.19.19.44.29.71.29s.52-.11.71-.29l9.81-9.82c.39-.39.39-1.02,0-1.41s-1.02-.39-1.41,0Z"/><path d="m45.85,32.18c-7.33,0-13.34,5.71-13.86,12.91H13.56c-2.76,0-5-2.25-5-5s2.25-5,5-5h9.56c3.74,0,6.79-3.04,6.79-6.79,0-2.6,2.11-4.71,4.71-4.71h6.68c3.07,0,5.56-2.49,5.56-5.56s-2.49-5.56-5.56-5.56h-17.02s0-.07,0-.11l2.37-1.34c.44-.25.63-.79.43-1.26l-1.33-3.19c-.19-.47-.71-.72-1.19-.58l-2.62.74c-.46-.57-.97-1.08-1.54-1.54l.73-2.62c.13-.49-.12-1-.58-1.19L17.35.08c-.47-.19-1.01,0-1.25.44l-1.33,2.38c-.72-.08-1.45-.07-2.17,0l-1.34-2.37c-.25-.44-.79-.63-1.26-.43l-3.19,1.33c-.47.19-.71.71-.58,1.19l.74,2.62c-.57.46-1.08.98-1.54,1.54l-2.62-.73c-.49-.14-1,.11-1.19.58l-1.31,3.18c-.19.47,0,1,.44,1.25l2.37,1.33c-.08.72-.07,1.45,0,2.18l-2.37,1.34c-.44.25-.63.79-.43,1.26l1.33,3.18c.2.47.71.71,1.19.58l2.62-.74c.45.56.97,1.07,1.54,1.53l-.73,2.63c-.13.49.12,1,.58,1.19l3.18,1.31c.12.05.25.08.38.08.35,0,.69-.19.87-.51l1.33-2.37c.73.08,1.46.07,2.18,0l1.34,2.37c.25.44.79.62,1.25.43l3.18-1.32c.47-.19.72-.71.58-1.2l-.74-2.62c.57-.46,1.08-.98,1.54-1.54l2.62.72c.49.13,1-.12,1.19-.58l1.31-3.18c.19-.47,0-1.01-.44-1.25l-2.37-1.32s0-.05,0-.08h17.01c1.96,0,3.56,1.6,3.56,3.56s-1.6,3.56-3.56,3.56h-6.68c-3.7,0-6.71,3.01-6.71,6.71,0,2.64-2.15,4.79-4.79,4.79h-9.56c-3.86,0-7,3.14-7,7s3.14,7,7,7h18.44c.52,7.2,6.53,12.91,13.86,12.91s13.91-6.24,13.91-13.91-6.24-13.91-13.91-13.91Zm-20.96-15.01l-.64,1.54-2.42-.67c-.41-.11-.84.04-1.09.39-.56.8-1.25,1.49-2.05,2.06-.35.24-.5.68-.39,1.09l.68,2.42-1.54.64-1.24-2.19c-.21-.37-.63-.57-1.05-.49-.95.18-1.93.18-2.89.01-.42-.07-.84.13-1.04.5l-1.23,2.19-1.54-.64.67-2.43c.11-.41-.04-.84-.39-1.09-.81-.57-1.5-1.25-2.05-2.04-.24-.35-.68-.51-1.09-.39l-2.42.68-.64-1.54,2.19-1.24c.37-.21.57-.63.49-1.05-.17-.97-.18-1.95,0-2.91.07-.42-.12-.84-.5-1.05l-2.19-1.23.64-1.54,2.42.67c.41.12.85-.04,1.09-.39.55-.8,1.25-1.49,2.05-2.05.35-.24.5-.68.39-1.09l-.68-2.42,1.55-.64,1.24,2.19c.21.37.63.57,1.04.49.97-.17,1.94-.17,2.9,0,.42.08.84-.12,1.05-.5l1.24-2.2,1.54.64-.67,2.42c-.11.41.04.84.39,1.09.8.56,1.49,1.25,2.05,2.05.24.35.68.51,1.09.39l2.42-.68.64,1.55-2.19,1.24c-.37.21-.57.63-.49,1.05.09.48.13.97.13,1.45,0,0,0,0,0,0,0,0,0,0,0,0,0,.48-.04.96-.12,1.44-.07.42.12.84.5,1.05l2.19,1.23Zm20.96,40.83c-6.57,0-11.91-5.34-11.91-11.91s5.34-11.91,11.91-11.91,11.91,5.34,11.91,11.91-5.34,11.91-11.91,11.91Z"/><path d="m16.19,7.42c-3.33-1.37-7.16.22-8.53,3.55-.67,1.61-.66,3.39,0,5,.67,1.61,1.93,2.87,3.54,3.53.81.33,1.65.49,2.48.49,2.57,0,5.01-1.53,6.05-4.05,1.37-3.33-.22-7.16-3.55-8.53Zm1.7,7.77c-.95,2.31-3.61,3.42-5.92,2.47-1.12-.46-1.99-1.33-2.46-2.45s-.47-2.35,0-3.47c.72-1.75,2.42-2.81,4.2-2.81.57,0,1.16.11,1.72.34,2.31.95,3.42,3.61,2.46,5.92Z"/></svg>