<?xml version="1.0" encoding="UTF-8"?><svg id="Art" xmlns="http://www.w3.org/2000/svg" viewBox="0 0 60 60"><path d="m48.47,20.85C48.47,9.82,39.5.85,28.47.85S8.47,9.82,8.47,20.85c0,5.46,2.15,10.55,6.06,14.34,2.85,2.77,4.67,6.87,4.89,10.86-1.14.43-1.96,1.52-1.96,2.8,0,.77.3,1.47.78,2-.48.53-.78,1.23-.78,2,0,1.65,1.35,3,3,3h.33c1.26,3.01,4.24,5,7.67,5s6.41-1.99,7.67-5h.33c1.65,0,3-1.35,3-3,0-.77-.3-1.47-.78-2,.48-.53.78-1.23.78-2,0-1.29-.82-2.38-1.96-2.8.22-3.99,2.04-8.09,4.89-10.86,3.91-3.79,6.06-8.88,6.06-14.34Zm-23,21v-17h2v17h-2Zm4-17h2v17h-2v-17Zm-3.38-2l2.22-3.91c.04-.06.09-.1.16-.1s.12.03.16.09l2.22,3.92h-4.76Zm-.62,21h6v2h-6v-2Zm11,4c.55,0,1,.45,1,1s-.45,1-1,1h-16c-.55,0-1-.45-1-1s.45-1,1-1h16Zm-8,11c-2.27,0-4.32-1.19-5.43-3h10.87c-1.11,1.81-3.17,3-5.43,3Zm8-5h-16c-.55,0-1-.45-1-1s.45-1,1-1h16c.55,0,1,.45,1,1s-.45,1-1,1Zm-.95-8h-2.05v-21.39c0-.67-.18-1.35-.53-1.98l-2.58-4.54c-.4-.69-1.1-1.1-1.89-1.1h0c-.79,0-1.5.41-1.89,1.1l-2.58,4.54c-.35.62-.53,1.28-.53,1.97v21.39h-2.05c-.26-4.49-2.26-8.96-5.49-12.1-3.52-3.41-5.46-7.99-5.46-12.9C10.47,10.92,18.54,2.85,28.47,2.85s18,8.07,18,18c0,4.91-1.94,9.49-5.46,12.9-3.23,3.14-5.23,7.6-5.49,12.1Z"/><path d="m28.47,4.85c-8.82,0-16,7.18-16,16,0,.55.45,1,1,1s1-.45,1-1c0-7.72,6.28-14,14-14,.55,0,1-.45,1-1s-.45-1-1-1Z"/></svg>