<?xml version="1.0" encoding="UTF-8"?><svg id="Art" xmlns="http://www.w3.org/2000/svg" viewBox="0 0 60 60"><path d="m59,52.56h-4.83v-1.95c0-.55-.45-1-1-1s-1,.45-1,1v1.95h-5.55v-1.95c0-.55-.45-1-1-1s-1,.45-1,1v1.95h-5.55v-1.95c0-.55-.45-1-1-1s-1,.45-1,1v1.95h-5.55v-1.95c0-.55-.45-1-1-1s-1,.45-1,1v1.95h-5.55v-1.95c0-.55-.45-1-1-1s-1,.45-1,1v1.95h-5.55v-1.95c0-.55-.45-1-1-1s-1,.45-1,1v1.95h-5.55v-1.95c0-.55-.45-1-1-1s-1,.45-1,1v1.95H2v-3.72h1.95c.55,0,1-.45,1-1s-.45-1-1-1h-1.95v-5.14h1.95c.55,0,1-.45,1-1s-.45-1-1-1h-1.95v-5.14h1.95c.55,0,1-.45,1-1s-.45-1-1-1h-1.95v-5.14h1.95c.55,0,1-.45,1-1s-.45-1-1-1h-1.95v-5.14h1.95c.55,0,1-.45,1-1s-.45-1-1-1h-1.95v-5.14h1.95c.55,0,1-.45,1-1s-.45-1-1-1h-1.95v-4.72c0-.55-.45-1-1-1s-1,.45-1,1v47.12c0,.25.1.47.25.64v.11h.11c.17.15.39.25.64.25h58c.55,0,1-.45,1-1s-.45-1-1-1Z"/><path d="m24.02,28h.52v8.4c0,.55.45,1,1,1s1-.45,1-1v-8.4h.33c.55,0,1-.45,1-1s-.45-1-1-1h-.43l2-2,2.15,2.15c-.28.18-.46.49-.46.84v17.13c0,.55.45,1,1,1s1-.45,1-1v-16.13h.72c.4,0,.77-.24.92-.62.16-.37.07-.8-.22-1.09l-4.41-4.41c-.19-.19-.44-.29-.71-.29s-.52.11-.71.29l-4.41,4.41c-.29.29-.37.72-.22,1.09.15.37.52.62.92.62Z"/><path d="m35.31,22.38h.52v11.96c0,.55.45,1,1,1s1-.45,1-1v-11.96h.33c.55,0,1-.45,1-1s-.45-1-1-1h-.43l2-2,2.15,2.15c-.28.18-.46.49-.46.84v22.75c0,.55.45,1,1,1s1-.45,1-1v-21.75h.72c.4,0,.77-.24.92-.62.16-.37.07-.8-.22-1.09l-4.41-4.41c-.19-.19-.44-.29-.71-.29s-.52.11-.71.29l-4.41,4.41c-.29.29-.37.72-.22,1.09.15.37.52.62.92.62Z"/><path d="m48.12,35.82c-.55,0-1,.45-1,1v6.61c0,.55.45,1,1,1s1-.45,1-1v-6.61c0-.55-.45-1-1-1Z"/><path d="m36.83,37.7c-.55,0-1,.45-1,1v4.09c0,.55.45,1,1,1s1-.45,1-1v-4.09c0-.55-.45-1-1-1Z"/><path d="m25.53,39.78c-.55,0-1,.45-1,1v1.46c0,.55.45,1,1,1s1-.45,1-1v-1.46c0-.55-.45-1-1-1Z"/><path d="m14.24,40.22c-.55,0-1,.45-1,1v1.45c0,.55.45,1,1,1s1-.45,1-1v-1.45c0-.55-.45-1-1-1Z"/><path d="m46.61,17.11h.52v15.38c0,.55.45,1,1,1s1-.45,1-1v-15.38h.33c.55,0,1-.45,1-1s-.45-1-1-1h-.43l2-2,2.15,2.15c-.28.18-.46.49-.46.84v28.01c0,.55.45,1,1,1s1-.45,1-1v-27.01h.72c.4,0,.77-.24.92-.62.16-.37.07-.8-.22-1.09l-4.41-4.41c-.39-.39-1.02-.39-1.41,0l-4.41,4.41c-.29.29-.37.72-.22,1.09.15.37.52.62.92.62Z"/><path d="m12.72,33.62h.52v4.7c0,.55.45,1,1,1s1-.45,1-1v-4.7h.33c.55,0,1-.45,1-1s-.45-1-1-1h-.43l2-2,2.15,2.15c-.28.18-.46.49-.46.84v11.51c0,.55.45,1,1,1s1-.45,1-1v-10.51h.72c.4,0,.77-.24.92-.62.16-.37.07-.8-.22-1.09l-4.41-4.41c-.38-.38-1.04-.38-1.41,0l-4.41,4.41c-.29.29-.37.72-.22,1.09.15.37.52.62.92.62Z"/></svg>