<?xml version="1.0" encoding="UTF-8"?><svg id="Art" xmlns="http://www.w3.org/2000/svg" viewBox="0 0 60 60"><path d="m59.68,37.89h.46s-.19-.43-.19-.43c.07-.23.06-.48-.04-.7l-4-9.09v-3.54c-.32-3.58-2.91-7.74-6.62-10.6-6.03-4.66-12.27-4.03-14.67-3.55-2.35.47-4.35,1.2-6.08,2.22-.77.45-1.48.96-2.17,1.5h-9.87l-3.62-3.62-.03-3.56c.93-.39,1.59-1.32,1.59-2.39,0-1.43-1.16-2.59-2.59-2.59s-2.59,1.16-2.59,2.59c0,1.08.66,2,1.6,2.39l.04,3.99c0,.26.11.51.29.7l4.2,4.2c.19.19.44.29.71.29h8.12c-.16.17-.32.33-.47.51-.64.74-1.21,1.52-1.71,2.33h-6.84l-5.64-5.64c-.19-.19-.44-.29-.71-.29h-3.84c-.39-.93-1.32-1.59-2.39-1.59-1.43,0-2.59,1.16-2.59,2.59s1.16,2.59,2.59,2.59c1.08,0,2-.66,2.39-1.59h3.43l5.64,5.64c.19.19.44.29.71.29h6.21c-.07.17-.16.33-.23.5-.32.78-.56,1.58-.76,2.39h-7.06l-3.72-3.72c.09-.26.14-.53.14-.81,0-1.43-1.16-2.59-2.59-2.59s-2.59,1.16-2.59,2.59,1.16,2.59,2.59,2.59c.41,0,.79-.1,1.13-.27l3.91,3.91c.19.19.44.29.71.29h7.09c-.12.91-.18,1.83-.16,2.77h-6.93c-.27,0-.52.11-.71.29l-3.91,3.91c-.34-.17-.72-.27-1.13-.27-1.43,0-2.59,1.16-2.59,2.59s1.16,2.59,2.59,2.59,2.59-1.16,2.59-2.59c0-.28-.06-.55-.14-.81l3.72-3.72h6.66c.11.95.3,1.91.54,2.89h-5.37c-.27,0-.52.11-.71.29l-5.64,5.64h-3.43c-.39-.93-1.32-1.59-2.39-1.59-1.43,0-2.59,1.16-2.59,2.59s1.16,2.59,2.59,2.59c1.08,0,2-.66,2.39-1.59h3.84c.27,0,.52-.11.71-.29l5.64-5.64h5.54c.06.18.11.36.17.54.64,1.79,1.69,3.51,2.8,5.33,2.03,3.33,4.12,6.78,4.12,11.16v5.38c0,.25.1.47.25.64v.11h.11c.17.15.39.25.64.25h19.18c.25,0,.47-.1.64-.25h.1v-.1c.15-.17.25-.39.25-.64l.02-10.57,4.19-.02c.96.06,1.88-.29,2.56-.96.68-.67,1.04-1.59,1-2.54l-.21-5.19,2.48-.06c.25,0,.48-.1.65-.27Zm-4.95-1.38v.12c-.14.19-.23.41-.22.65l.26,6.2c.02.39-.13.76-.41,1.03s-.65.42-1.1.39l-5.25.02c-.25,0-.47.1-.64.25h-.1s0,.1,0,.1c-.15.17-.25.4-.25.64l-.02,10.56h-17.18v-4.38c0-4.94-2.35-8.8-4.42-12.2-1.05-1.73-2.05-3.37-2.62-4.96-1.73-4.8-1.79-9.23-.18-13.16.63-1.53,1.52-2.97,2.65-4.29,1.21-1.41,2.66-2.62,4.31-3.58,1.54-.91,3.33-1.56,5.47-1.98,2.13-.43,7.68-.98,13.05,3.17,3.23,2.5,5.58,6.19,5.84,9.11v3.66c0,.14.03.28.08.4l3.49,7.92-2,.05c-.24,0-.46.11-.63.27h-.12ZM11.83,4.7c-.33,0-.59-.27-.59-.59s.27-.59.59-.59.59.27.59.59-.27.59-.59.59ZM2.59,12.99c.33,0,.59.27.59.59s-.27.59-.59.59-.59-.27-.59-.59.27-.59.59-.59Zm4.16,5.3c.33,0,.59.27.59.59,0,.09-.02.17-.05.24-.01.01-.03.02-.04.03-.05.05-.08.12-.12.18-.1.09-.23.15-.38.15-.33,0-.59-.27-.59-.59s.27-.59.59-.59Zm0,15.83c.15,0,.28.06.38.15.04.06.06.12.12.18.01.01.03.02.04.03.03.07.05.16.05.24,0,.33-.27.59-.59.59s-.59-.27-.59-.59.27-.59.59-.59Zm-4.16,5.3c.33,0,.59.27.59.59s-.27.59-.59.59-.59-.27-.59-.59.27-.59.59-.59Z"/><path d="m45.22,46.6c-.55,0-1,.45-1,1v7.54c0,.55.45,1,1,1s1-.45,1-1v-7.54c0-.55-.45-1-1-1Z"/><path d="m51.31,24.7c.28-.59.44-1.24.44-1.91,0-2.43-1.96-4.42-4.39-4.46-.25-1.69-1.52-2.82-3.27-2.82-.16,0-.32.03-.48.06-.32-1.22-1.42-2.13-2.74-2.13-1.57,0-2.84,1.28-2.84,2.84v23.28c0,1.57,1.28,2.84,2.84,2.84,1.03,0,1.93-.56,2.43-1.39.42.17.88.28,1.35.28.17,0,.34-.01.51-.04,1.71-.25,2.97-1.67,3.07-3.33,1.73-.86,2.93-2.63,2.93-4.69,0-.64-.12-1.24-.33-1.82,1.28-.66,2.14-1.99,2.14-3.5,0-1.31-.64-2.5-1.67-3.22Zm-3.45,3.64c-.51-.21-1.09.04-1.3.56-.21.51.04,1.09.56,1.3,1.24.5,2.05,1.69,2.05,3.03,0,1.8-1.46,3.26-3.26,3.26-.55,0-1,.45-1,1s.45,1,1,1c.04,0,.09-.01.13-.01-.03.06-.06.12-.1.17-.26.34-.63.56-1.05.62-.86.12-1.68-.48-1.8-1.35-.08-.55-.59-.92-1.13-.85-.55.08-.93.59-.85,1.13.08.55.29,1.05.59,1.48-.07.4-.4.71-.82.71-.47,0-.84-.38-.84-.84v-3.74c.08-.38.55-2.08,2.2-2.1.55,0,.99-.46.99-1.01,0-.55-.45-.99-1-.99h-.01c-.88.01-1.6.27-2.18.67v-5.82c.24.02.5.06.73.19.33.19.55.52.68,1.02.12.45.52.75.97.74.08,0,.17-.01.26-.03.53-.14.85-.69.71-1.22-.27-1.02-.83-1.8-1.63-2.25-.58-.33-1.19-.44-1.71-.46v-4.01c.12.07.24.18.34.36.19.32.52.5.87.5.17,0,.34-.04.5-.13.48-.28.64-.89.36-1.37-.56-.96-1.35-1.34-2.07-1.44v-2.18c0-.47.38-.84.84-.84s.84.38.84.84c0,.2-.07.34-.14.45-.04.05-.09.08-.12.13-.29.41-.22.95.14,1.29.02.02.03.05.06.07,0,0,.01,0,.02.01,0,0,.01.02.02.02.03.02.07.03.11.05.41.24.95.17,1.26-.2.05-.06.09-.13.14-.2.23-.25.56-.4.9-.4,1.14,0,1.31.91,1.31,1.45,0,.28.12.55.33.74l.45.41c.22.2.5.29.8.25.1-.01.21-.02.32-.02,1.35,0,2.46,1.1,2.46,2.46,0,.95-.56,1.83-1.42,2.23-.5.23-.72.83-.48,1.33.17.36.53.58.91.58.14,0,.29-.03.42-.09.32-.15.6-.34.87-.55.57.35.93.95.93,1.64,0,.79-.48,1.47-1.17,1.77-.52-.58-1.18-1.04-1.94-1.35Z"/><path d="m42.32,21.82c-.54.13-.87.67-.74,1.21.13.54.67.87,1.21.74.07-.02,1.73-.4,2.41,1.11.17.37.53.59.91.59.14,0,.28-.03.41-.09.5-.23.73-.82.5-1.32-1.08-2.41-3.55-2.52-4.7-2.24Z"/><path d="m45.42,30.28c-.53.15-.84.69-.7,1.22.05.19.24,1.18-.84,1.84-.47.29-.62.9-.33,1.37.19.31.52.48.86.48.18,0,.36-.05.52-.15,1.97-1.19,1.99-3.2,1.73-4.1-.15-.52-.69-.82-1.22-.68Z"/><path d="m34.91,13.44c-1.32,0-2.42.91-2.74,2.13-.16-.02-.32-.06-.48-.06-1.74,0-3.02,1.13-3.27,2.82-2.43.04-4.39,2.02-4.39,4.46,0,.67.16,1.32.44,1.91-1.03.72-1.67,1.9-1.67,3.22,0,1.5.87,2.83,2.14,3.5-.21.57-.33,1.18-.33,1.82,0,2.06,1.2,3.83,2.93,4.69.1,1.66,1.36,3.08,3.07,3.33.17.02.34.04.51.04.48,0,.93-.1,1.35-.28.5.83,1.4,1.39,2.43,1.39,1.57,0,2.84-1.28,2.84-2.84v-23.28c0-1.57-1.28-2.84-2.84-2.84Zm-.23,24.77c.08-.55-.3-1.05-.85-1.13-.55-.08-1.05.3-1.13.85-.12.87-.93,1.47-1.8,1.35-.42-.06-.79-.28-1.05-.62-.04-.05-.07-.11-.1-.17.04,0,.09.01.13.01.55,0,1-.45,1-1s-.45-1-1-1c-1.8,0-3.26-1.46-3.26-3.26,0-1.34.8-2.53,2.05-3.03.51-.21.76-.79.56-1.3-.21-.51-.79-.76-1.3-.56-.76.31-1.42.77-1.94,1.35-.69-.3-1.17-.99-1.17-1.77,0-.69.37-1.29.93-1.64.27.21.55.4.87.55.14.06.28.09.42.09.38,0,.74-.21.91-.58.23-.5.02-1.1-.48-1.33-.86-.4-1.42-1.28-1.42-2.23,0-1.35,1.1-2.46,2.46-2.46.11,0,.21,0,.32.02.29.04.58-.06.8-.25l.45-.41c.21-.19.33-.46.33-.74,0-.54.17-1.45,1.31-1.45.35,0,.67.15.9.4.05.07.09.14.14.2.32.38.85.44,1.27.2.03-.02.07-.02.1-.05,0,0,.01-.01.02-.02,0,0,.01,0,.02-.01.03-.02.04-.05.06-.08.35-.34.42-.88.13-1.29-.03-.05-.08-.08-.12-.13-.07-.11-.14-.25-.14-.45,0-.47.38-.84.84-.84s.84.38.84.84v2.18c-.72.1-1.52.48-2.07,1.44-.28.48-.11,1.09.36,1.37.16.09.33.13.5.13.35,0,.68-.18.87-.5.1-.18.22-.28.34-.36v4.01c-.52.02-1.12.12-1.71.45-.8.46-1.36,1.23-1.63,2.25-.14.53.18,1.08.71,1.22.09.02.17.03.26.03.44,0,.85-.3.97-.74.13-.5.35-.83.68-1.02.22-.13.48-.18.73-.19v5.82c-.58-.39-1.3-.65-2.18-.67-.51-.03-1.01.43-1.01.99,0,.55.43,1.01.99,1.01,1.66.02,2.12,1.72,2.2,2.1v3.74c0,.47-.38.84-.84.84-.42,0-.75-.31-.82-.71.29-.43.51-.93.59-1.49Z"/><path d="m30.58,24.87c.65-1.46,2.23-1.15,2.42-1.11.53.13,1.07-.2,1.2-.74.13-.54-.2-1.08-.74-1.21-1.15-.28-3.62-.17-4.7,2.24-.23.5,0,1.1.5,1.32.13.06.27.09.41.09.38,0,.75-.22.91-.59Z"/><path d="m31.9,33.34c-1.08-.66-.9-1.64-.84-1.84.15-.53-.16-1.08-.68-1.23-.53-.16-1.08.15-1.24.68-.26.9-.24,2.91,1.73,4.1.16.1.34.15.52.15.34,0,.67-.17.86-.48.29-.47.14-1.09-.33-1.37Z"/></svg>