<?xml version="1.0" encoding="UTF-8"?><svg id="Art" xmlns="http://www.w3.org/2000/svg" viewBox="0 0 60 60"><path d="m32.62,26.68c-.37,0-.71.2-.88.53l-1.74,3.25-1.74-3.25c-.17-.32-.51-.53-.88-.53-2.8,0-5.09,2.28-5.09,5.09v10.85c0,.55.45,1,1,1h1.28l-.44,15.21c0,.27.09.53.28.73.19.19.45.3.72.3h3.03c.5,0,.93-.38.99-.88l.86-7.01.86,7.01c.06.5.49.88.99.88h3.03c.27,0,.53-.11.72-.3.19-.19.29-.46.28-.73l-.44-15.21h1.28c.55,0,1-.45,1-1v-10.85c0-2.8-2.28-5.09-5.09-5.09Zm3.09,14.94h-.34l-.17-5.79c-.02-.55-.5-.97-1.03-.97-.55.02-.99.48-.97,1.03l.64,21.97h-1.11l-1.72-14.05c-.06-.46-.42-.8-.87-.85-.02,0-.03-.01-.05-.02-.03,0-.07,0-.1,0-.04,0-.07-.01-.1,0-.02,0-.03.01-.05.02-.45.05-.81.39-.86.85l-1.72,14.05h-1.11l.64-21.97c.02-.55-.42-1.01-.97-1.03-.5,0-1.01.42-1.03.97l-.17,5.79h-.34v-9.85c0-1.51,1.09-2.77,2.52-3.03l1.73,3.22c.17.32.51.53.88.53h1.17c.37,0,.71-.2.88-.53l1.73-3.22c1.43.27,2.52,1.53,2.52,3.03v9.85Z"/><path d="m30,26.98c1.98,0,3.58-1.61,3.58-3.58s-1.61-3.58-3.58-3.58-3.58,1.61-3.58,3.58,1.61,3.58,3.58,3.58Zm0-5.17c.87,0,1.58.71,1.58,1.58s-.71,1.58-1.58,1.58-1.58-.71-1.58-1.58.71-1.58,1.58-1.58Z"/><path d="m29.75,7.23h.03c1.96-.02,3.53-1.63,3.51-3.58-.02-1.95-1.61-3.51-3.55-3.51h-.04c-.95,0-1.84.39-2.5,1.06s-1.02,1.57-1.02,2.52c.02,1.95,1.61,3.52,3.55,3.52Zm-1.11-4.63c.29-.3.68-.46,1.09-.46h.02c.85,0,1.54.68,1.55,1.53,0,.85-.68,1.56-1.53,1.56h-.01c-.85,0-1.54-.69-1.55-1.54,0-.41.15-.8.44-1.1Z"/><path d="m29.79,8.01h-.01c-.55,0-.99.46-.99,1.01l.07,5.37c0,.55.45.99,1,.99h.01c.55,0,.99-.46.99-1.01l-.07-5.37c0-.55-.45-.99-1-.99Z"/><path d="m51.11,28.92l-5.37.07c-.55,0-.99.46-.99,1.01,0,.55.45.99,1,.99h.01l5.37-.07c.55,0,.99-.46.99-1.01,0-.55-.45-.99-1-.99h-.01Z"/><path d="m56.42,26.33c-1.96.02-3.53,1.63-3.52,3.58h0c.02,1.95,1.61,3.52,3.55,3.52h.04c1.96-.02,3.53-1.63,3.51-3.58-.02-1.96-1.62-3.53-3.58-3.52Zm1.14,4.63c-.29.3-.68.46-1.09.46h-.02c-.85,0-1.54-.68-1.55-1.53,0-.85.68-1.56,1.53-1.56h.01c.85,0,1.54.69,1.55,1.54,0,.41-.15.8-.44,1.1Z"/><path d="m39.95,20.08c-2.67-2.64-6.2-4.09-9.95-4.09h-.08c-3.78.02-7.32,1.51-9.98,4.2s-4.11,6.25-4.09,10.03c.02,3.78,1.51,7.32,4.2,9.98.19.19.45.29.7.29s.52-.1.71-.3c.39-.39.38-1.03,0-1.41-2.31-2.28-3.59-5.33-3.6-8.57-.02-3.24,1.23-6.3,3.51-8.61,2.28-2.31,5.33-3.59,8.57-3.6,3.28-.02,6.3,1.23,8.61,3.51,2.31,2.28,3.59,5.33,3.6,8.57.02,3.24-1.23,6.3-3.51,8.61-.39.39-.38,1.03,0,1.41.39.39,1.03.39,1.41,0,2.66-2.69,4.11-6.25,4.09-10.03s-1.51-7.32-4.2-9.98Z"/><path d="m41.25,10.23c.54.3,1.14.46,1.74.46.32,0,.64-.04.96-.13.91-.25,1.67-.85,2.14-1.67.96-1.7.36-3.87-1.35-4.83-.83-.47-1.79-.58-2.7-.33-.91.25-1.67.85-2.14,1.67-.96,1.7-.36,3.87,1.34,4.84Zm.4-3.85c.2-.36.53-.62.93-.73.14-.04.28-.06.42-.06.26,0,.52.07.76.2.74.42,1.01,1.37.59,2.11-.2.36-.54.62-.93.73-.4.11-.82.06-1.18-.14-.74-.42-1.01-1.37-.59-2.11Z"/><path d="m37.25,17.33c.15.09.32.13.49.13.35,0,.69-.18.87-.51l2.62-4.69c.27-.48.1-1.09-.38-1.36-.48-.27-1.09-.1-1.36.38l-2.62,4.69c-.27.48-.1,1.09.38,1.36Z"/><path d="m52.75,20.3c.61,0,1.23-.16,1.8-.49.82-.48,1.4-1.25,1.63-2.17.24-.92.1-1.87-.38-2.69-.99-1.68-3.17-2.25-4.86-1.25-1.69,1-2.25,3.18-1.25,4.86.66,1.12,1.85,1.74,3.06,1.74Zm-.79-4.88c.25-.15.52-.21.79-.21.53,0,1.05.27,1.34.76.21.36.27.77.17,1.17-.1.4-.36.74-.71.95-.73.43-1.69.19-2.12-.55h0c-.43-.74-.19-1.69.55-2.12Z"/><path d="m42.68,22.7c.19.31.52.49.86.49.17,0,.35-.04.51-.14l4.62-2.75c.47-.28.63-.9.35-1.37-.28-.47-.89-.63-1.37-.35l-4.62,2.75c-.47.28-.63.9-.35,1.37Z"/><path d="m48.88,39.67l-4.69-2.62c-.48-.27-1.09-.1-1.36.38-.27.48-.1,1.09.38,1.36l4.69,2.62c.15.09.32.13.49.13.35,0,.69-.18.87-.51.27-.48.1-1.09-.38-1.36Z"/><path d="m54.77,40.08c-.83-.47-1.79-.58-2.7-.33-.91.25-1.67.85-2.14,1.67-.47.83-.58,1.78-.33,2.7.25.91.85,1.67,1.67,2.14.55.31,1.15.46,1.74.46,1.24,0,2.45-.65,3.1-1.8.47-.83.58-1.78.33-2.7-.25-.91-.85-1.67-1.67-2.14Zm-.4,3.85c-.42.74-1.37,1.01-2.11.59-.74-.42-1.01-1.37-.59-2.11.28-.5.81-.79,1.35-.79.26,0,.52.06.76.2.36.2.62.53.73.93.11.4.06.82-.14,1.18Z"/><path d="m8.75,28.92h-.01c-.55,0-.99.44-1,.99,0,.55.43,1.01.99,1.01l5.37.07h.01c.55,0,.99-.44,1-.99,0-.55-.43-1.01-.99-1.01l-5.37-.07Z"/><path d="m3.41,33.43c1.94,0,3.53-1.57,3.55-3.51h0c.02-1.96-1.56-3.57-3.52-3.58-1.92-.05-3.56,1.56-3.58,3.52-.02,1.96,1.56,3.56,3.51,3.58h.04Zm-1.55-3.56c0-.85.7-1.54,1.55-1.54h.01c.85,0,1.54.71,1.54,1.56,0,.85-.7,1.53-1.55,1.53h-.02c-.41,0-.8-.17-1.09-.46-.29-.29-.45-.69-.44-1.1Z"/><path d="m15.91,10.55c.32.09.64.13.96.13.6,0,1.2-.16,1.74-.46h0c1.7-.96,2.31-3.13,1.34-4.84-.47-.83-1.23-1.42-2.14-1.67-.91-.25-1.87-.14-2.7.33-.83.47-1.42,1.23-1.67,2.14-.25.91-.14,1.87.33,2.7.47.83,1.23,1.42,2.14,1.67Zm.19-4.77c.24-.13.5-.2.76-.2.14,0,.28.02.42.06.4.11.73.37.93.73.42.74.16,1.69-.59,2.11-.36.21-.78.26-1.18.14-.4-.11-.73-.37-.93-.73-.42-.74-.16-1.69.59-2.11Z"/><path d="m19,10.89c-.48.27-.65.88-.38,1.36l2.62,4.69c.18.33.52.51.87.51.17,0,.33-.04.49-.13.48-.27.65-.88.38-1.36l-2.62-4.69c-.27-.48-.88-.66-1.36-.38Z"/><path d="m5.31,19.81c.56.33,1.18.49,1.8.49,1.22,0,2.4-.62,3.06-1.74.48-.82.62-1.77.38-2.69-.24-.92-.82-1.69-1.63-2.17-.82-.48-1.77-.62-2.69-.38-.92.24-1.69.82-2.17,1.63-.48.82-.62,1.77-.38,2.69.24.92.82,1.69,1.63,2.17Zm.47-3.84c.29-.49.81-.76,1.34-.76.27,0,.54.07.78.21.74.43.98,1.39.55,2.12h0c-.43.74-1.38.98-2.12.55-.36-.21-.61-.55-.71-.95-.1-.4-.04-.82.17-1.17Z"/><path d="m11.2,20.31l4.62,2.75c.16.1.34.14.51.14.34,0,.67-.17.86-.49.28-.47.13-1.09-.35-1.37l-4.62-2.75c-.48-.28-1.09-.12-1.37.35-.28.47-.13,1.09.35,1.37Z"/><path d="m15.66,37.05l-4.69,2.62c-.48.27-.65.88-.38,1.36.18.33.52.51.87.51.17,0,.33-.04.49-.13l4.69-2.62c.48-.27.65-.88.38-1.36-.27-.48-.88-.66-1.36-.38Z"/><path d="m5.09,40.08c-.83.47-1.42,1.23-1.67,2.14-.25.91-.14,1.87.33,2.7.65,1.15,1.86,1.8,3.1,1.8.59,0,1.19-.15,1.74-.46.83-.47,1.42-1.23,1.67-2.14.25-.91.14-1.87-.33-2.7-.96-1.7-3.13-2.31-4.84-1.34Zm3.24,3.51c-.11.4-.37.73-.73.93-.74.42-1.69.16-2.11-.59-.2-.36-.25-.78-.14-1.18.11-.4.37-.73.73-.93.24-.14.5-.2.76-.2.54,0,1.07.28,1.35.79.2.36.25.78.14,1.18Z"/></svg>