<?xml version="1.0" encoding="UTF-8"?><svg id="Art" xmlns="http://www.w3.org/2000/svg" viewBox="0 0 60 60"><path d="m7.88,47.38c1.82,0,3.3-1.48,3.3-3.31,0-.53-.14-1.03-.36-1.47l7.07-7.07c.46.23.95.36,1.47.36,1.44,0,2.66-.95,3.11-2.25h6.06c.45,1.3,1.67,2.25,3.11,2.25,1.82,0,3.3-1.48,3.3-3.3,0-.54-.14-1.05-.38-1.51l.75-.75c.11-.11.18-.25.23-.39,1.23,1.01,2.69,1.78,4.33,2.2,2,.52,4.06.47,6-.13l6.24,12.19c.37.79,1.06,1.4,1.88,1.66.31.1.64.15.96.15.54,0,1.07-.14,1.54-.4.76-.43,1.31-1.16,1.52-2s.05-1.75-.43-2.47l-7.46-11.51c1.74-1.56,2.95-3.64,3.45-5.95,1.2-5.49-1.89-11.03-7.19-12.9-3.18-1.12-6.66-.76-9.53.98-2.88,1.74-4.8,4.67-5.28,8.04-.47,3.32.59,6.52,2.68,8.89-.13.05-.25.12-.35.22l-.75.75c-.46-.24-.97-.38-1.51-.38-1.48,0-2.71.98-3.14,2.36h-6c-.41-1.36-1.66-2.36-3.15-2.36-1.82,0-3.3,1.48-3.3,3.3,0,.55.15,1.07.4,1.54l-7.04,7.04c-.46-.25-.98-.4-1.54-.4-1.82,0-3.31,1.48-3.31,3.31s1.48,3.31,3.31,3.31Zm0-4.61c.34,0,.64.14.87.35.02.03.03.06.06.08.02.02.04.02.05.03.2.23.33.52.33.84,0,.72-.58,1.31-1.3,1.31s-1.31-.59-1.31-1.31.59-1.31,1.31-1.31Zm12.8-10.18s0,.02,0,.03h0c-.01.7-.6,1.27-1.3,1.27-.34,0-.66-.13-.9-.36-.26-.25-.4-.59-.4-.94,0-.72.58-1.3,1.3-1.3s1.3.58,1.3,1.3h.01Zm12.28,0c0,.72-.58,1.3-1.3,1.3s-1.29-.57-1.3-1.3c0-.72.58-1.3,1.3-1.3.35,0,.68.14.92.38.25.25.38.57.38.92Zm13.78-2.76h-.03c-.1-.02-.21-.05-.32-.05-.12,0-.25.02-.37.07-1.81.73-3.71.85-5.62.35-1.24-.32-2.36-.9-3.33-1.67.07-.04.14-.08.2-.14l4.1-4.11c.45.24.96.38,1.51.38,1.82,0,3.3-1.48,3.3-3.31s-1.48-3.31-3.3-3.31-3.31,1.48-3.31,3.31c0,.55.15,1.06.38,1.51l-4.1,4.11c-.07.07-.11.15-.15.23-1.64-1.94-2.49-4.53-2.12-7.14.39-2.77,1.97-5.17,4.33-6.61,2.36-1.43,5.22-1.73,7.83-.8,4.34,1.53,6.88,6.08,5.9,10.58-.47,2.15-1.68,4.06-3.42,5.37-.2.15-.32.36-.37.59l-.04.03.02.04c-.03.23,0,.47.15.68l7.95,12.27c.18.27.23.59.16.9-.08.31-.27.57-.55.73-.28.16-.61.19-.91.09-.31-.1-.55-.31-.7-.64l-6.65-13c-.11-.22-.3-.38-.52-.46l-.02-.03Zm-5.17-8.46c0-.72.59-1.31,1.31-1.31s1.3.59,1.3,1.31-.58,1.31-1.3,1.31c-.36,0-.68-.14-.91-.38,0,0,0,0,0-.01s0,0-.01,0c-.23-.24-.38-.56-.38-.91Z"/><path d="m59,52.56h-4.83v-1.95c0-.55-.45-1-1-1s-1,.45-1,1v1.95h-5.55v-1.95c0-.55-.45-1-1-1s-1,.45-1,1v1.95h-5.55v-1.95c0-.55-.45-1-1-1s-1,.45-1,1v1.95h-5.55v-1.95c0-.55-.45-1-1-1s-1,.45-1,1v1.95h-5.55v-1.95c0-.55-.45-1-1-1s-1,.45-1,1v1.95h-5.55v-1.95c0-.55-.45-1-1-1s-1,.45-1,1v1.95h-5.55v-1.95c0-.55-.45-1-1-1s-1,.45-1,1v1.95H2v-3.72h1.95c.55,0,1-.45,1-1s-.45-1-1-1h-1.95v-5.14h1.95c.55,0,1-.45,1-1s-.45-1-1-1h-1.95v-5.14h1.95c.55,0,1-.45,1-1s-.45-1-1-1h-1.95v-5.14h1.95c.55,0,1-.45,1-1s-.45-1-1-1h-1.95v-5.14h1.95c.55,0,1-.45,1-1s-.45-1-1-1h-1.95v-5.14h1.95c.55,0,1-.45,1-1s-.45-1-1-1h-1.95v-4.72c0-.55-.45-1-1-1s-1,.45-1,1v47.12c0,.25.1.47.25.64v.11h.11c.17.15.39.25.64.25h58c.55,0,1-.45,1-1s-.45-1-1-1Z"/></svg>