<?xml version="1.0" encoding="utf-8"?>
<!-- Generator: Adobe Illustrator 27.3.1, SVG Export Plug-In . SVG Version: 6.00 Build 0)  -->
<svg version="1.1" xmlns="http://www.w3.org/2000/svg" xmlns:xlink="http://www.w3.org/1999/xlink" x="0px" y="0px"
	 viewBox="0 0 60 60" style="enable-background:new 0 0 60 60;" xml:space="preserve">
<style type="text/css">
	.st0{display:none;}
	.st1{display:inline;}
	.st2{fill:none;stroke:#231F20;stroke-width:2;stroke-linecap:round;stroke-linejoin:round;stroke-miterlimit:10;}
	.st3{fill:none;stroke:#231F20;stroke-width:2;stroke-linecap:round;stroke-linejoin:round;}
	.st4{fill:none;stroke:#231F20;stroke-width:1.5;stroke-miterlimit:10;}
	
		.st5{fill:none;stroke:#231F20;stroke-width:2;stroke-linecap:round;stroke-linejoin:round;stroke-miterlimit:10;stroke-dasharray:1.5,2.5;}
	.st6{fill:#231F20;}
	.st7{fill:none;stroke:#ED1C24;stroke-width:1.5;stroke-miterlimit:10;}
	.st8{fill:none;stroke:#ED1C24;stroke-width:1.5;stroke-miterlimit:10;stroke-dasharray:1.5,3.2;}
	.st9{fill:none;stroke:#ED1C24;stroke-width:1.5;stroke-miterlimit:10;stroke-dasharray:1.5,2;}
	.st10{fill:none;stroke:#ED1C24;stroke-width:1.5;stroke-miterlimit:10;stroke-dasharray:1.5,2.8;}
	.st11{fill:none;stroke:#ED1C24;stroke-width:1.5;stroke-miterlimit:10;stroke-dasharray:1.5,2.2;}
	.st12{fill:none;stroke:#ED1C24;stroke-width:1.5;stroke-miterlimit:10;stroke-dasharray:1.5,3.5;}
	.st13{fill:none;stroke:#ED1C24;stroke-width:1.5;stroke-miterlimit:10;stroke-dasharray:1.5,2.43;}
	
		.st14{fill:none;stroke:#231F20;stroke-width:2;stroke-linecap:round;stroke-linejoin:round;stroke-miterlimit:10;stroke-dasharray:1.5,2.8;}
	.st15{fill:none;stroke:#231F20;stroke-width:1.5;stroke-miterlimit:10;stroke-dasharray:1.5,1.5;}
	.st16{display:inline;fill:none;stroke:#ED1C24;stroke-width:1.5;stroke-miterlimit:10;}
	.st17{display:inline;fill:#231F20;}
	.st18{fill:none;stroke:#ED1C24;stroke-width:1.5;stroke-miterlimit:10;stroke-dasharray:1.5,2.5;}
	.st19{fill:none;stroke:#ED1C24;stroke-width:1.5;stroke-miterlimit:10;stroke-dasharray:1.5,1.5;}
	
		.st20{fill:none;stroke:#231F20;stroke-width:2;stroke-linecap:round;stroke-linejoin:round;stroke-miterlimit:10;stroke-dasharray:1.5,2;}
	.st21{fill:none;stroke:#ED1C24;stroke-width:1.5;stroke-miterlimit:10;stroke-dasharray:1.5,2.4;}
	.st22{fill:none;stroke:#ED1C24;stroke-width:1.5;stroke-linejoin:round;stroke-miterlimit:10;}
	.st23{fill:none;stroke:#ED1C24;stroke-width:1.5;stroke-miterlimit:10;stroke-dasharray:1.6014,2.3487;}
	.st24{fill:none;stroke:#ED1C24;stroke-width:1.5;stroke-miterlimit:10;stroke-dasharray:1.5874,2.3282;}
	.st25{fill:none;stroke:#ED1C24;stroke-width:1.5;stroke-miterlimit:10;stroke-dasharray:1.5262,2.2384;}
	.st26{fill:none;stroke:#ED1C24;stroke-width:1.5;stroke-miterlimit:10;stroke-dasharray:1.5412,2.2604;}
	.st27{fill:none;stroke:#ED1C24;stroke-width:1.5;stroke-miterlimit:10;stroke-dasharray:1.5,3;}
	.st28{fill:none;stroke:#ED1C24;stroke-width:1.5;stroke-miterlimit:10;stroke-dasharray:1.5,1.65;}
	.st29{fill:none;stroke:#ED1C24;stroke-width:1.5;stroke-miterlimit:10;stroke-dasharray:1.5102,2.5169;}
	.st30{display:inline;fill:none;stroke:#231F20;stroke-width:2;stroke-linecap:round;stroke-linejoin:round;stroke-miterlimit:10;}
	.st31{fill:none;stroke:#ED1C24;stroke-width:2;stroke-linecap:round;stroke-linejoin:round;stroke-miterlimit:10;}
	
		.st32{fill:none;stroke:#ED1C24;stroke-width:2;stroke-linecap:round;stroke-linejoin:round;stroke-miterlimit:10;stroke-dasharray:2,2;}
	.st33{fill:none;stroke:#000000;stroke-width:1.5;stroke-miterlimit:10;}
	.st34{fill:none;stroke:#000000;stroke-width:1.5;stroke-miterlimit:10;stroke-dasharray:1.5,2;}
	.st35{fill:#969696;}
	.st36{fill:none;stroke:#231F20;stroke-width:2;}
	.st37{fill:none;stroke:#231F20;stroke-width:2;stroke-linejoin:bevel;}
	.st38{display:inline;fill:none;stroke:#282D33;stroke-width:12.1406;}
	.st39{fill:none;stroke:#231F20;stroke-width:2;stroke-linejoin:round;}
	.st40{fill:none;stroke:#231F20;stroke-width:2;stroke-linecap:round;stroke-linejoin:bevel;}
	.st41{fill:#ED1C24;}
</style>
<g id="Labels">
</g>
<g id="Extra_icons" class="st0">
</g>
<g id="Art">
	<g>
		<path d="M52.8,0h-38c-0.1,0-0.3,0-0.4,0.1c-0.1,0.1-0.2,0.1-0.3,0.2L6.5,7.8C6.5,7.9,6.4,8,6.3,8.1C6.3,8.2,6.2,8.4,6.2,8.5V59
			c0,0.6,0.4,1,1,1h7.3h38.2c0.6,0,1-0.4,1-1V1C53.8,0.4,53.3,0,52.8,0z M51.8,21.4H8.2V9.5h6.5c0.6,0,1-0.4,1-1V2h36V21.4z
			 M20.9,50.6c-2.7-0.4-4.8-2.6-5.2-5.2h5.2V50.6z M13.6,23.5v5.2H8.3C8.8,26,10.9,23.9,13.6,23.5z M13.6,30.7v2.7V36
			c-2.7-0.4-4.8-2.6-5.2-5.2H13.6z M13.6,43.4H8.3c0.4-2.7,2.6-4.8,5.2-5.2V43.4z M9,46.1c0.5-0.5,1.2-0.8,1.9-0.8
			c1.5,0,2.7,1.2,2.7,2.7v2.7h-2.7c-1.5,0-2.7-1.2-2.7-2.7C8.2,47.3,8.5,46.6,9,46.1z M15.6,57.9v-5.2h5.2
			C20.4,55.4,18.3,57.5,15.6,57.9z M15.6,50.7v-0.9c0.3,0.3,0.6,0.6,0.9,0.9H15.6z M15.6,43.4v-5.2c2.7,0.4,4.8,2.6,5.2,5.2H15.6z
			 M15.6,33.4v-2.7h2.7c1.5,0,2.7,1.2,2.7,2.7S19.7,36,18.2,36C16.8,36,15.6,34.8,15.6,33.4z M15.6,28.6v-5.2h5.2
			C20.4,26.1,18.3,28.2,15.6,28.6z M9.7,7.5l4.1-4.1v4.1H9.7z M8.2,23.4h1c-0.3,0.3-0.7,0.6-1,1V23.4z M8.2,35.1
			c0.7,0.8,1.5,1.4,2.4,1.9c-0.9,0.5-1.7,1.1-2.4,1.9V35.1z M8.2,51.8c0.4,0.3,0.8,0.5,1.2,0.6c-0.4,0.3-0.9,0.7-1.2,1.2V51.8z
			 M13.6,52.8V58H8.3C8.8,55.3,10.9,53.2,13.6,52.8z M20,58c1.8-1.5,2.9-3.8,2.9-6.3v-7.3c0-2.7-1.3-5-3.2-6.6
			c1.9-0.6,3.2-2.3,3.2-4.4c0-2.1-1.4-3.8-3.2-4.4c1.7-1.3,2.9-3.3,3.2-5.6h28.9V58H20z"/>
		<path d="M14.6,15.4c-0.6,0-1,0.4-1,1s0.4,1,1,1h31.2c0.6,0,1-0.4,1-1s-0.4-1-1-1H14.6z"/>
		<path d="M45.8,26.4H26.6c-0.6,0-1,0.4-1,1s0.4,1,1,1h19.2c0.6,0,1-0.4,1-1S46.3,26.4,45.8,26.4z"/>
		<path d="M45.8,31.4H26.6c-0.6,0-1,0.4-1,1s0.4,1,1,1h19.2c0.6,0,1-0.4,1-1S46.3,31.4,45.8,31.4z"/>
		<path d="M45.8,36.4H26.6c-0.6,0-1,0.4-1,1s0.4,1,1,1h19.2c0.6,0,1-0.4,1-1S46.3,36.4,45.8,36.4z"/>
		<path d="M45.8,41.4H26.6c-0.6,0-1,0.4-1,1s0.4,1,1,1h19.2c0.6,0,1-0.4,1-1S46.3,41.4,45.8,41.4z"/>
		<path d="M45.8,46.4H26.6c-0.6,0-1,0.4-1,1s0.4,1,1,1h19.2c0.6,0,1-0.4,1-1S46.3,46.4,45.8,46.4z"/>
		<path d="M45.8,51.4H26.6c-0.6,0-1,0.4-1,1s0.4,1,1,1h19.2c0.6,0,1-0.4,1-1S46.3,51.4,45.8,51.4z"/>
	</g>
</g>
</svg>
