<?xml version="1.0" encoding="UTF-8"?><svg id="Art" xmlns="http://www.w3.org/2000/svg" viewBox="0 0 60 60"><path d="m54.82.07H4.78C2.03.07-.2,2.3-.2,5.05v37.04c0,2.75,2.23,4.98,4.98,4.98h13.77l-1.56,7h-4.2c-1.65,0-3,1.34-3,3s1.34,3,3,3h34c1.65,0,3-1.34,3-3s-1.34-3-3-3h-4.2l-1.56-7h13.77c2.75,0,4.98-2.23,4.98-4.98V5.05c0-2.75-2.23-4.98-4.98-4.98ZM4.78,2.07h50.04c1.64,0,2.98,1.34,2.98,2.98v32.02H1.8V5.05c0-1.64,1.34-2.98,2.98-2.98Zm43.02,55c0,.55-.45,1-1,1H12.79c-.55,0-1-.45-1-1s.45-1,1-1h34c.55,0,1,.45,1,1Zm-7.25-3h-21.51l1.56-7h18.4l1.56,7Zm14.27-9H4.78c-1.64,0-2.98-1.34-2.98-2.98v-3.02h56v3.02c0,1.64-1.34,2.98-2.98,2.98Z"/><path d="m13.78,33.07h32.03c1.65,0,2.99-1.34,2.99-2.99V10.05c0-1.65-1.34-2.99-2.99-2.99H13.78c-1.65,0-2.99,1.34-2.99,2.99v20.03c0,1.65,1.34,2.99,2.99,2.99Zm-.99-23.01c0-.54.44-.99.99-.99h32.03c.54,0,.99.44.99.99v20.03c0,.54-.44.99-.99.99H13.78c-.54,0-.99-.44-.99-.99V10.05Z"/><path d="m25.27,24.92c.16.1.34.15.53.15.15,0,.31-.04.45-.11l8-4c.34-.17.55-.52.55-.89s-.21-.72-.55-.89l-8-4c-.31-.15-.68-.14-.97.04-.29.18-.47.5-.47.85v8c0,.35.18.67.47.85Zm1.53-7.23l4.76,2.38-4.76,2.38v-4.76Z"/></svg>