<?xml version="1.0" encoding="UTF-8"?><svg id="Art" xmlns="http://www.w3.org/2000/svg" viewBox="0 0 60 60"><path d="m60.25,24.81h-.6c-.18-.15-.41-.25-.65-.25h-3.77c-1.96-9.08-8.57-16.39-17.45-19.19-.53-.16-1.09.13-1.25.65s.13,1.09.65,1.25c8.05,2.54,14.08,9.11,16,17.29h-3.23c-.25,0-.47.1-.65.26h-.59s.28.53.28.53c-.05.23-.03.48.09.69l4.53,8.5c.11.22.31.37.53.45l.36.67.36-.67c.22-.09.41-.24.53-.46l4.51-8.51c.11-.22.14-.46.08-.7l.28-.53Zm-2.91,1.75l-2.85,5.38-2.87-5.37h5.72Z"/><path d="m22.69,19.66c-2.14,2-3.37,4.83-3.37,7.76,0,1.2.2,2.38.59,3.5.01.04.03.08.05.11l.9,1.81c.13.21.25.43.38.65,0,.01.02.03.02.04.19.34.36.71.54,1.06-.33-.09-.69-.02-.96.24l-1.35,1.32c-.39.39-.4,1.02-.01,1.41.2.2.45.3.71.3s.5-.09.7-.29l1.35-1.32c.09-.09.16-.2.21-.31.76,1.73,1.35,3.57,1.77,5.49h-.93c-.55,0-1,.45-1,1s.45,1,1,1h1.33c.08.53.15,1.05.21,1.57,0,.08.03.17.06.25.38,1.01,1.36,1.69,2.44,1.69h5.23c1.22,0,2.27-.83,2.54-2.02,0-.04.01-.08.02-.11.05-.46.12-.92.19-1.38h1.29c.55,0,1-.45,1-1s-.45-1-1-1h-.91c.41-1.82.97-3.59,1.69-5.26.04.08.09.17.16.24l1.32,1.35c.2.2.46.3.71.3s.5-.09.7-.29c.39-.39.4-1.02.02-1.41l-1.32-1.35c-.25-.26-.61-.33-.94-.26.29-.58.58-1.15.91-1.7.06-.11.12-.21.21-.35.02-.03.04-.05.05-.08,1-1.75,1.47-3.75,1.36-5.79-.28-5.36-4.52-9.68-9.88-10.04-2.96-.2-5.81.81-7.98,2.84Zm14.75,12c-.09.14-.17.28-.25.42-1.67,2.84-2.86,5.98-3.56,9.37h-7.35c-.67-3.21-1.76-6.21-3.29-8.92,0-.01-.01-.03-.02-.04-.12-.22-.25-.44-.35-.59l-.83-1.69c-.31-.89-.46-1.83-.46-2.78,0-2.41.97-4.65,2.73-6.3,1.76-1.65,4.06-2.46,6.48-2.3,4.34.29,7.79,3.79,8.01,8.14.08,1.64-.29,3.25-1.09,4.67,0,0,0,.01-.01.02Zm-4.89,13.29h-5.23c-.22,0-.42-.12-.53-.3-.04-.4-.12-.8-.18-1.21h6.66c-.05.36-.11.72-.15,1.08-.08.25-.31.43-.58.43Z"/><path d="m43.44,30.03l-1.82-.51c-.53-.15-1.08.16-1.23.69-.15.53.16,1.08.69,1.23l1.82.51c.09.03.18.04.27.04.44,0,.84-.29.96-.73.15-.53-.16-1.08-.69-1.23Z"/><path d="m44.22,23.67c-.14-.54-.68-.86-1.22-.72l-1.83.47c-.54.14-.86.68-.72,1.22.12.45.52.75.97.75.08,0,.17,0,.25-.03l1.83-.47c.54-.14.86-.68.72-1.22Z"/><path d="m39.08,17.03l-1.35,1.32c-.39.39-.4,1.02-.02,1.42.2.2.46.3.72.3s.5-.09.7-.28l1.35-1.32c.39-.39.4-1.02.02-1.42-.39-.39-1.02-.4-1.42-.02Z"/><path d="m33.19,16.95c.44,0,.84-.29.96-.73l.51-1.82c.15-.53-.16-1.08-.69-1.23-.53-.15-1.08.16-1.23.69l-.51,1.82c-.15.53.16,1.08.69,1.23.09.03.18.04.27.04Z"/><path d="m27.08,16.88c.08,0,.17,0,.25-.03.54-.14.86-.68.72-1.22l-.47-1.83c-.14-.54-.68-.86-1.22-.72-.54.14-.86.68-.72,1.22l.47,1.83c.12.45.52.75.97.75Z"/><path d="m21.05,19.56c.2.2.46.3.72.3s.5-.09.7-.28c.39-.39.4-1.02.02-1.42l-1.32-1.35c-.38-.39-1.02-.4-1.41-.02-.39.39-.4,1.02-.02,1.42l1.32,1.35Z"/><path d="m18.92,23.15l-1.82-.51c-.53-.15-1.08.16-1.23.69-.15.53.16,1.08.69,1.23l1.82.51c.09.03.18.04.27.04.44,0,.84-.29.96-.73.15-.53-.16-1.08-.69-1.23Z"/><path d="m15.78,30.93c.12.45.52.75.97.75.08,0,.17,0,.25-.03l1.83-.47c.54-.14.86-.68.72-1.22s-.68-.86-1.22-.72l-1.83.47c-.54.14-.86.68-.72,1.22Z"/><path d="m6.03,23.47c.1.03.2.05.3.05.42,0,.82-.27.95-.7,2.54-8.05,9.11-14.08,17.29-16v3.23c0,.25.1.47.26.65v.59s.52-.28.52-.28c.07.02.15.03.22.03.16,0,.32-.04.47-.12l8.5-4.53c.22-.12.37-.31.45-.53l.67-.36-.67-.36c-.09-.22-.24-.41-.46-.53L26.04.12c-.22-.11-.46-.14-.7-.09l-.52-.28V.35c-.15.18-.25.41-.25.65v3.77C15.49,6.73,8.18,13.34,5.38,22.22c-.17.53.13,1.09.65,1.25ZM26.57,2.66l5.38,2.85-5.37,2.87V2.66Z"/><path d="m53.97,36.53c-.52-.16-1.09.13-1.25.65-2.54,8.05-9.11,14.08-17.29,16v-3.23c0-.25-.1-.47-.26-.65v-.59s-.53.28-.53.28c-.23-.05-.48-.03-.69.09l-8.5,4.53c-.22.12-.37.31-.45.53l-.67.36.67.36c.09.22.24.41.46.53l8.51,4.51c.15.08.31.12.47.12.08,0,.15-.01.23-.03l.52.28v-.6c.15-.18.25-.41.25-.65v-3.77c9.08-1.96,16.39-8.57,19.19-17.45.17-.53-.13-1.09-.65-1.25Zm-20.54,20.81l-5.38-2.85,5.37-2.87v5.72Z"/><path d="m22.82,52.72c-8.05-2.54-14.08-9.11-16-17.29h3.23c.25,0,.47-.1.65-.26h.59s-.28-.53-.28-.53c.05-.23.03-.48-.09-.69l-4.53-8.5c-.11-.22-.31-.37-.53-.46l-.36-.67-.36.67c-.22.09-.41.24-.53.46L.12,33.96c-.11.22-.14.46-.08.7l-.28.53H.35c.18.15.41.25.65.25h3.77c1.96,9.08,8.57,16.39,17.45,19.19.1.03.2.05.3.05.42,0,.82-.27.95-.7.17-.53-.13-1.09-.65-1.25ZM2.66,33.43l2.85-5.38,2.87,5.37H2.66Z"/></svg>