<?xml version="1.0" encoding="UTF-8"?><svg id="Art" xmlns="http://www.w3.org/2000/svg" viewBox="0 0 60 60"><path d="m45.61,53.66h-14.61v-6.69c7.93-.52,14.23-7.12,14.23-15.18v-10.99c0-.55-.45-1-1-1s-1,.45-1,1v1.88h-2.88V7.3c0-4.02-3.27-7.3-7.3-7.3h-6.1c-4.02,0-7.3,3.27-7.3,7.3v15.39h-2.88v-1.88c0-.55-.45-1-1-1s-1,.45-1,1v10.99c0,8.06,6.3,14.66,14.23,15.18v6.69h-14.61c-.55,0-1,.45-1,1v4.34c0,.55.45,1,1,1h31.21c.55,0,1-.45,1-1v-4.34c0-.55-.45-1-1-1ZM26.95,2h6.1c2.92,0,5.3,2.38,5.3,5.3v25.1c0,2.92-2.38,5.3-5.3,5.3h-6.1c-2.62,0-4.79-1.92-5.21-4.42h6.02c.55,0,1-.45,1-1s-.45-1-1-1h-6.11v-4.21h6.11c.55,0,1-.45,1-1s-.45-1-1-1h-6.11v-4.21h6.11c.55,0,1-.45,1-1s-.45-1-1-1h-6.11v-4.21h6.11c.55,0,1-.45,1-1s-.45-1-1-1h-6.11v-4.21h6.11c.55,0,1-.45,1-1s-.45-1-1-1h-6.02c.42-2.5,2.59-4.42,5.21-4.42Zm-10.18,29.8v-7.11h2.88v7.7c0,4.02,3.27,7.3,7.3,7.3h6.1c4.02,0,7.3-3.27,7.3-7.3v-7.7h2.88v7.11c0,7.29-5.93,13.23-13.23,13.23s-13.23-5.93-13.23-13.23Zm27.83,26.2H15.39v-2.34h29.21v2.34Z"/></svg>