<?xml version="1.0" encoding="UTF-8"?><svg id="Art" xmlns="http://www.w3.org/2000/svg" viewBox="0 0 60 60"><path d="m24.39,30.61h-3.82c-.55,0-1,.45-1,1s.45,1,1,1h3.82c.55,0,1-.45,1-1s-.45-1-1-1Z"/><path d="m22.61,26.3c.39-.39.39-1.02,0-1.41s-1.02-.39-1.41,0l-2.7,2.7c-.39.39-.39,1.02,0,1.41.2.2.45.29.71.29s.51-.1.71-.29l2.7-2.7Z"/><path d="m15.89,22.1c-.55,0-1,.45-1,1v3.82c0,.55.45,1,1,1s1-.45,1-1v-3.82c0-.55-.45-1-1-1Z"/><path d="m10.58,24.89c-.39-.39-1.02-.39-1.41,0s-.39,1.02,0,1.41l2.7,2.7c.2.2.45.29.71.29s.51-.1.71-.29c.39-.39.39-1.02,0-1.41l-2.7-2.7Z"/><path d="m11.2,32.61c.55,0,1-.45,1-1s-.45-1-1-1h-3.82c-.55,0-1,.45-1,1s.45,1,1,1h3.82Z"/><path d="m59.45,6.67c-.32-.2-.58-.37-.82-.53-.81-.52-1.4-.91-2.61-1.42-.04-.02-.08-.05-.12-.07-8.27-3.38-17.71-3.24-25.98.36C21.65,1.41,12.21,1.27,3.94,4.66c-.05.02-.08.05-.12.07-1.21.51-1.8.89-2.61,1.42-.24.16-.51.33-.82.53-.29.18-.47.5-.47.85v38.52c0,.38.21.72.55.89.14.07.3.11.45.11.21,0,.42-.07.6-.2.78-.58,1.83-1.29,3.06-1.61,0,0,0,0,0,0,.03,0,.06-.01.09-.02,1.8-.69,3.7-1.18,5.64-1.48v3.39s.02.06.02.09c.09,1.55.88,2.99,2.16,3.89.54.38.87,1,.87,1.66v.57s-.01,0-.02.02c-.4.43-.61,1.03-.57,1.66.07,1.14.12,2.3.14,3.42,0,.55.46.98,1,.98h.02c.55,0,.99-.47.98-1.02-.02-1.16-.07-2.34-.14-3.51,0-.08.01-.13,0-.14l9.17-.02s.04.07.03.17c-.03.46-.05.8-.07,1.08-.06.76-.09,1.18-.08,2.43,0,.55.45,1,1,1h0c.55,0,1-.45,1-1,0-1.18.02-1.55.08-2.28.02-.29.05-.64.07-1.1.03-.49-.1-.97-.35-1.36.02-.39.11-1.01.3-1.35.08-.14.16-.27.24-.41.4-.67.9-1.5,1.26-3.11.17-.73.22-1.78.22-2.78.58.24,1.16.49,1.73.76.15.07.31.11.47.11.04,0,.09-.01.13-.02.02,0,.04,0,.06,0,.16,0,.32-.03.46-.09,8.16-3.87,17.15-4.43,24.68-1.55.03.01.06.01.09.02,0,0,0,0,0,0,1.23.33,2.29,1.03,3.06,1.61.18.13.39.2.6.2.15,0,.31-.04.45-.11.34-.17.55-.52.55-.89V7.52c0-.34-.18-.67-.47-.85ZM25.47,48.33c-.29,1.3-.65,1.89-1.03,2.53-.09.15-.18.3-.27.46-.24.44-.38.97-.46,1.42h-8.35c0-1.3-.65-2.53-1.72-3.28-.83-.58-1.32-1.53-1.32-2.54v-4.06s0-.03,0-.04c.02-.27.24-.49.52-.49s.52.23.52.52v2.35c0,.55.45,1,1,1s1-.45,1-1v-2.35c0-.08-.02-.15-.02-.23,0-.04.02-.07.02-.11v-11.24c0-.29.23-.52.52-.52s.52.23.52.52v11.24c0,.55.45,1,1,1s1-.45,1-1v-4.87c0-.29.23-.52.52-.52s.52.23.52.52v4.67c0,.55.45,1,1,1s1-.45,1-1v-4.01c0-.29.23-.52.52-.52s.52.23.52.52v4.98c0,.55.45,1,1,1s1-.45,1-1v-3.61c0-.29.23-.52.52-.52s.52.23.52.52v3.61s0,.1.01.14c.02.25.04.58.05.96-.01.11-.01.22.01.33.04,1.23.04,2.8-.14,3.63Zm-22.14-4.8c-.51.19-.97.41-1.4.65V8.07c.13-.09.26-.17.38-.25.38-.25.69-.45,1.02-.64v36.34ZM5.32,6.26c7.55-2.9,16.08-2.72,23.6.49v37.6c-.45-.19-.89-.36-1.34-.53-.02-.29-.03-.52-.04-.62v-3.54c0-1.39-1.13-2.52-2.52-2.52-.26,0-.51.05-.75.13-.4-.88-1.27-1.49-2.3-1.49-.4,0-.77.1-1.11.27-.46-.56-1.15-.93-1.94-.93-.18,0-.35.02-.52.06v-3.91c0-1.39-1.13-2.52-2.52-2.52s-2.52,1.13-2.52,2.52v9.11c-.17-.04-.34-.06-.52-.06-.96,0-1.79.55-2.21,1.34-1.82.24-3.6.64-5.31,1.2V6.26Zm25.6,38.09V6.75c7.52-3.22,16.04-3.39,23.6-.49v36.59c-7.33-2.39-15.78-1.85-23.6,1.5Zm25.6-.82V7.19c.34.19.64.39,1.02.63.12.08.25.16.38.25v36.11c-.43-.24-.9-.47-1.4-.65Z"/><path d="m53.17,32.61c-10.4-4.05-20.56.23-20.99.42-.51.22-.74.81-.52,1.31.16.38.53.61.92.61.13,0,.27-.03.39-.08.1-.04,9.85-4.13,19.48-.39.52.2,1.09-.06,1.29-.57.2-.51-.06-1.09-.57-1.29Z"/><path d="m48.65,36.42c-4.38-1.14-8.37-1-12.91.47-.53.17-.81.73-.65,1.26.14.42.53.69.95.69.1,0,.2-.02.31-.05,4.22-1.36,7.75-1.49,11.8-.44.53.13,1.08-.18,1.22-.72s-.18-1.08-.72-1.22Z"/><path d="m7.4,11.67c9.62-3.74,19.38.35,19.48.39.13.05.26.08.39.08.39,0,.76-.23.92-.61.22-.51-.02-1.09-.52-1.31-.43-.18-10.59-4.46-20.99-.42-.51.2-.77.78-.57,1.29s.78.77,1.29.57Z"/><path d="m7.4,16.28c9.62-3.74,19.38.35,19.48.39.13.05.26.08.39.08.39,0,.76-.23.92-.61.22-.51-.02-1.09-.52-1.31-.43-.18-10.59-4.46-20.99-.42-.51.2-.77.78-.57,1.29s.78.77,1.29.57Z"/><path d="m27.67,19.44c-.27-.12-6.81-2.95-15.02-1.92-.55.07-.94.57-.87,1.12.07.55.57.93,1.12.87,7.64-.97,13.9,1.73,13.97,1.76.13.06.27.08.4.08.38,0,.75-.22.92-.6.22-.51,0-1.09-.51-1.32Z"/><path d="m45.83,16.13l-4.63-2.4c-.31-.16-.68-.15-.98.03-.3.18-.48.5-.48.85v4.81c0,.35.18.67.48.85.16.1.34.15.52.15.16,0,.32-.04.46-.11l4.63-2.4c.33-.17.54-.51.54-.89s-.21-.72-.54-.89Zm-4.09,1.65v-1.52l1.46.76-1.46.76Z"/><path d="m34.96,24.21h.49l.03,2.07c0,.41.26.77.64.92.12.04.24.07.36.07.27,0,.54-.11.73-.32l2.54-2.74h10.72c1.31,0,2.37-1.06,2.37-2.37v-10.14c0-1.31-1.06-2.37-2.37-2.37h-15.51c-1.31,0-2.37,1.06-2.37,2.37v10.14c0,1.31,1.06,2.37,2.37,2.37Zm15.88-2.37c0,.21-.17.37-.37.37h-11.16c-.28,0-.54.12-.73.32l-1.14,1.23v-.56c-.01-.55-.46-.99-1.01-.99h-1.47c-.2,0-.37-.17-.37-.37v-10.14c0-.21.17-.37.37-.37h15.51c.21,0,.37.17.37.37v10.14Z"/></svg>