<?xml version="1.0" encoding="UTF-8"?><svg id="Art" xmlns="http://www.w3.org/2000/svg" viewBox="0 0 60 60"><defs><style>.cls-1{fill:#231f20;}</style></defs><path class="cls-1" d="m57,0H3C1.35,0,0,1.35,0,3v30c0,1.65,1.35,3,3,3h19.1l1.98,3.6c.14.26.31.49.5.71l-.81,1.49c-.52.06-1.01.35-1.29.83l-.8,1.37c-.42-.34-.88-.65-1.37-.91-4.36-2.37-9.84-.74-12.2,3.61-1.15,2.12-1.4,4.55-.72,6.85.68,2.3,2.23,4.2,4.34,5.35,1.34.73,2.8,1.1,4.28,1.1.86,0,1.72-.12,2.56-.37,2.31-.68,4.21-2.23,5.36-4.34l4.99-9.13c.24-.44.24-.95.06-1.38l1.04-1.97,1.04,1.97c-.18.43-.18.94.06,1.38l4.99,9.13c1.15,2.12,3.05,3.66,5.36,4.34.84.25,1.7.37,2.56.37,1.48,0,2.94-.37,4.28-1.1,2.12-1.15,3.66-3.05,4.34-5.35.68-2.3.43-4.74-.72-6.85-2.37-4.36-7.84-5.98-12.2-3.61-.49.26-.95.57-1.38.91l-.8-1.37c-.28-.48-.77-.77-1.29-.83l-.81-1.49c.19-.21.35-.45.49-.7l1.98-3.61h19.1c1.65,0,3-1.35,3-3V3c0-1.65-1.35-3-3-3ZM22.23,16.11c.87-3.56,4.08-6.11,7.77-6.11,4.41,0,8,3.59,8,8s-3.59,8-8,8c-.9,0-1.78-.16-2.63-.46l-5.14-9.43Zm6.42,11.79c.44.06.89.1,1.34.1,5.51,0,10-4.49,10-10s-4.49-10-10-10c-3.93,0-7.43,2.32-9.05,5.76l-2.61-4.78c-.26-.47-.71-.81-1.23-.93-.52-.12-1.08,0-1.51.31-1.55,1.11-2.7,2.74-3.25,4.58-.11.39-.19.78-.25,1.17-1.78.41-3.11,1.99-3.11,3.89,0,2.21,1.79,4,4,4,.44,0,.87-.08,1.28-.22l4.52,8.21-8.9-.03c-.19-.85-.58-1.64-1.15-2.28-.71-.8-1.68-1.37-2.75-1.58l.03-16.21c1.04-.22,2.01-.78,2.72-1.59.56-.64.96-1.43,1.14-2.31l40.21.02c.22,1.04.78,2.01,1.59,2.73.64.57,1.43.96,2.31,1.14l-.03,16.21c-1.04.22-2.01.78-2.72,1.59-.56.64-.96,1.43-1.14,2.31h-20.31l-1.15-2.1Zm-16.61-11.64c.11,1.15.45,2.27,1.02,3.31l.21.39c-.09.01-.18.04-.27.04-1.1,0-2-.9-2-2,0-.75.42-1.4,1.04-1.74Zm2.77,2.35c-.85-1.56-1.04-3.38-.54-5.11.41-1.39,1.23-2.58,2.38-3.44l17.68,32.44-1.72.98-2.14-4.04c-.12-.24-.34-.41-.59-.49-.25-.08-.53-.05-.77.08l-.72.39c-.44.24-.95.29-1.44.15-.49-.14-.89-.47-1.13-.92l-11.02-20.04Zm11.58,22.88c.67.2,1.36.21,2.02.05l-1.03,1.95-1.72-.98.59-1.08c.05.02.09.04.15.06Zm-4.24,12.85c-.89,1.65-2.37,2.85-4.17,3.38-1.79.53-3.67.33-5.32-.56t0,0c-1.65-.89-2.85-2.37-3.38-4.16-.53-1.79-.33-3.68.56-5.33,1.27-2.33,3.68-3.65,6.16-3.65,1.13,0,2.27.27,3.33.85.69.37,1.3.85,1.81,1.41.21.24.52.35.84.32.32-.03.6-.21.76-.49l1.29-2.21,2.9,1.65-4.8,8.79Zm15.84-7.75c.32.03.63-.09.84-.32.51-.56,1.12-1.04,1.82-1.41,3.39-1.84,7.65-.58,9.49,2.81.89,1.65,1.09,3.54.56,5.33-.53,1.79-1.73,3.27-3.38,4.16t0,0c-1.64.89-3.53,1.09-5.32.56-1.79-.53-3.27-1.73-4.17-3.38l-4.8-8.79,2.9-1.65,1.29,2.21c.16.27.44.46.76.49Zm-3.66-8.26l-1.27-2.33h2.55l-1.28,2.33Zm23.66-5.33c0,.55-.45,1-1,1h-25.02l-1.09-2h19.22c.95,0,1.77-.69,1.95-1.61.11-.52.35-1,.69-1.38.43-.49,1.01-.82,1.62-.95.95-.18,1.63-1,1.63-1.95V9.89c0-.95-.69-1.77-1.61-1.95-.52-.11-1-.35-1.38-.69-.49-.43-.82-1.01-.95-1.62-.18-.95-1-1.63-1.95-1.63H9.89c-.95,0-1.77.69-1.95,1.61-.11.52-.35,1-.69,1.38-.43.49-1.01.82-1.62.95-.95.18-1.63,1-1.63,1.95v16.22c0,.95.69,1.77,1.62,1.95.62.13,1.21.47,1.63.95.34.38.58.86.69,1.36.18.95,1,1.63,1.95,1.63h10.01l1.1,2H3c-.55,0-1-.45-1-1V3c0-.55.45-1,1-1h54c.55,0,1,.45,1,1v30Z"/><path class="cls-1" d="m47,14c-2.21,0-4,1.79-4,4s1.79,4,4,4,4-1.79,4-4-1.79-4-4-4Zm0,6c-1.1,0-2-.9-2-2s.9-2,2-2,2,.9,2,2-.9,2-2,2Z"/><path class="cls-1" d="m44,56c2.76,0,5-2.24,5-5s-2.24-5-5-5-5,2.24-5,5,2.24,5,5,5Zm0-8c1.65,0,3,1.35,3,3s-1.35,3-3,3-3-1.35-3-3,1.35-3,3-3Z"/><path class="cls-1" d="m16,46c-2.76,0-5,2.24-5,5s2.24,5,5,5,5-2.24,5-5-2.24-5-5-5Zm0,8c-1.65,0-3-1.35-3-3s1.35-3,3-3,3,1.35,3,3-1.35,3-3,3Z"/></svg>