<?xml version="1.0" encoding="UTF-8"?><svg id="Art" xmlns="http://www.w3.org/2000/svg" viewBox="0 0 60 60"><path d="m59.4,44.54l-6.9-6.94c-.59-.59-1.46-.76-2.23-.44-.77.32-1.27,1.06-1.27,1.9v1.94h-7.12c2.04-3.3,3.12-7.06,3.12-11,0-11.24-8.88-20.45-20-20.98v-1.97c0-.84-.5-1.58-1.27-1.9-.77-.32-1.64-.14-2.23.45l-4.61,4.64C8.58,13.23,3,21.13,3,30c0,3.94,1.08,7.7,3.12,11h-3.12c-1.65,0-3,1.35-3,3v4c0,1.65,1.35,3,3,3h46v1.94c0,.84.5,1.58,1.27,1.9.25.11.52.16.78.16.53,0,1.05-.21,1.45-.6l6.91-6.95c.79-.81.79-2.08,0-2.9Zm-35.4-3.54c-6.07,0-11-4.93-11-11,0-4.25,2.42-8.07,6.23-9.9l2.27,2.29c.59.59,1.46.77,2.23.46.77-.32,1.27-1.06,1.27-1.9v-1.91c5.6.51,10,5.23,10,10.96,0,6.07-4.93,11-11,11Zm1,1.95c6.37-.49,11.46-5.58,11.95-11.95h6.01c-.19,3.78-1.48,7.36-3.76,10.4-3.43,4.56-8.56,7.28-14.2,7.57v-6.02Zm-2-35.89v2.94c0,.55.45,1,1,1,10.14,0,18.42,7.99,18.95,18h-6c-.51-6.7-6.12-12-12.95-12-.55,0-1,.45-1,1l-.08,2.99-2.76-2.78s0,0,0,0l-4.14-4.24,6.98-6.91Zm-8.98,6.78c-.05.58.14,1.18.58,1.62l3.15,3.16c-3.85,2.1-6.37,5.99-6.7,10.38h-6c.33-6.29,3.74-11.93,8.98-15.16ZM5.04,31h6.01c.32,4.21,2.66,7.87,6.05,10h-8.58c-2.11-2.95-3.3-6.38-3.48-10Zm-3.04,17v-4c0-.55.45-1,1-1h20v6H3c-.55,0-1-.45-1-1Zm49,4.94v-2.94c0-.55-.45-1-1-1h-17.03c2.89-1.36,5.46-3.4,7.51-6h9.52c.55,0,1-.45,1-1l.08-2.98,6.9,6.93s.03.07,0,.1l-6.98,6.9Z"/></svg>