<?xml version="1.0" encoding="UTF-8"?><svg id="Art" xmlns="http://www.w3.org/2000/svg" viewBox="0 0 60 60"><path d="m58.73,34.57h.46s-.19-.43-.19-.43c.07-.23.06-.48-.04-.7l-4.98-11.3v-4.41c-.44-4.97-4.39-10.09-8.1-12.96C38.5-.96,30.85-.19,27.91.4c-2.89.58-5.33,1.47-7.46,2.72-2.25,1.32-4.23,2.97-5.9,4.91-1.56,1.81-2.79,3.8-3.65,5.92-2.16,5.27-2.1,11.29.18,17.89.5,1.45,2.22,4.97,3.23,6.68l-12.06,13.38c-.91.97-1.38,2.29-1.29,3.62.09,1.33.74,2.57,1.78,3.41.86.69,1.93,1.06,3.02,1.06.23,0,.46-.02.69-.05,1.32-.19,2.51-.93,3.26-2.02l8.52-11.93c.97,2.01,1.44,4.06,1.44,6.34v6.36c0,.25.1.47.25.64v.11h.11c.17.15.4.25.64.25h23.75c.25,0,.47-.1.64-.25h.1v-.1c.15-.17.25-.39.25-.64l.03-13.02,5.44-.03c1.11.07,2.2-.34,2.99-1.12.79-.78,1.22-1.86,1.17-2.97l-.28-6.66,3.31-.08c.25,0,.48-.1.65-.27Zm-5.78-1.36v.12c-.14.19-.23.41-.22.65l.32,7.68c.02.55-.18,1.07-.58,1.46-.39.39-.92.59-1.53.55l-6.5.03c-.25,0-.47.1-.64.25h-.1s0,.1,0,.1c-.15.17-.25.4-.25.64l-.03,13.01h-21.75v-5.36c0-2.95-.69-5.56-2.14-8.16l3.29-4.61c3.24,1.77,6.89,2.53,10.63,2.21,9.55-.82,17.22-8.91,17.46-18.42.15-5.8-2.26-11.28-6.6-15.03-4.35-3.75-10.1-5.34-15.78-4.36-9.44,1.64-16.22,10.1-15.76,19.67.2,4.25,1.81,8.31,4.55,11.52l-1.61,1.79c-.95-1.7-2.35-4.6-2.75-5.77-2.12-6.12-2.19-11.67-.22-16.48.79-1.91,1.9-3.72,3.32-5.37,1.52-1.77,3.34-3.28,5.39-4.49,1.94-1.14,4.18-1.95,6.84-2.49,2.67-.54,9.62-1.23,16.36,3.97,4.06,3.13,7,7.78,7.33,11.47v4.54c0,.14.03.28.08.4l4.46,10.13-2.83.07c-.24,0-.46.11-.63.27h-.12Zm-35.45,10.38l-9.42,13.19c-.45.65-1.13,1.07-1.91,1.19-.78.11-1.55-.1-2.17-.59-.62-.5-.99-1.2-1.04-1.99-.06-.79.21-1.54.76-2.13l15.7-17.42c.17-.19.25-.42.25-.65l.02-.03-.03-.03c0-.23-.1-.47-.27-.65-2.79-2.96-4.43-6.84-4.63-10.93-.41-8.57,5.65-16.14,14.11-17.61.99-.17,1.98-.26,2.97-.26,4.07,0,8.02,1.45,11.16,4.16,3.89,3.36,6.05,8.27,5.91,13.47-.22,8.5-7.09,15.74-15.64,16.48-3.63.31-7.16-.51-10.22-2.39-.21-.13-.46-.17-.69-.13l-.04-.02-.03.04c-.23.05-.44.18-.58.39l-4.14,5.79s-.06.08-.09.12Z"/><path d="m34.56,37.34c1.04,0,1.95-.57,2.44-1.4.43.18.89.28,1.36.28.17,0,.35-.01.52-.04.95-.14,1.8-.64,2.38-1.41.43-.57.67-1.24.71-1.94,1.74-.87,2.95-2.65,2.95-4.72,0-.64-.13-1.26-.34-1.83,1.29-.66,2.16-2,2.16-3.52,0-1.32-.64-2.51-1.68-3.24.28-.59.44-1.25.44-1.93,0-2.45-1.98-4.45-4.42-4.48-.25-1.7-1.53-2.84-3.28-2.84-.17,0-.33.03-.49.06-.32-1.23-1.43-2.14-2.75-2.14-1.58,0-2.86,1.28-2.86,2.86v23.44c0,1.58,1.28,2.86,2.86,2.86Zm.71-25.83s-.08.08-.12.13c-.29.41-.22.95.13,1.29.02.02.03.05.06.07,0,0,.01,0,.02.01,0,0,.01.02.02.02.03.02.07.03.11.05.41.24.94.17,1.26-.21.05-.06.09-.13.14-.2.24-.25.57-.41.92-.41,1.16,0,1.33.92,1.33,1.46,0,.28.12.55.33.74l.45.41c.22.2.51.29.8.25.1-.01.21-.02.32-.02,1.37,0,2.48,1.11,2.48,2.48,0,.96-.56,1.84-1.43,2.25-.5.23-.72.83-.48,1.33.17.36.53.58.91.58.14,0,.29-.03.42-.09.32-.15.61-.34.88-.55.57.35.95.96.95,1.66,0,.8-.49,1.49-1.19,1.79-.53-.58-1.19-1.05-1.95-1.36-.52-.2-1.1.04-1.3.55-.21.51.04,1.09.55,1.3,1.26.5,2.07,1.71,2.07,3.06,0,1.82-1.48,3.29-3.29,3.29-.55,0-1,.45-1,1s.45,1,1,1c.05,0,.1-.01.15-.01-.03.06-.07.12-.11.18-.26.34-.63.57-1.06.63-.43.06-.85-.05-1.19-.3s-.57-.63-.63-1.06c-.08-.55-.58-.93-1.13-.85-.55.08-.93.59-.85,1.13.08.55.29,1.05.59,1.5-.07.41-.4.72-.83.72-.47,0-.86-.38-.86-.86v-3.77c.08-.39.55-2.1,2.23-2.12.55,0,.99-.46.99-1.01,0-.55-.45-.99-1-.99h-.01c-.89.01-1.62.28-2.2.68v-5.88c.24.01.51.06.73.19.33.19.56.53.7,1.04.12.45.52.74.97.74.08,0,.17-.01.26-.03.53-.14.85-.69.71-1.22-.27-1.02-.84-1.81-1.64-2.26-.59-.34-1.2-.44-1.72-.46v-4.06c.12.07.25.19.36.37.19.32.52.5.87.5.17,0,.34-.04.5-.13.48-.28.64-.89.36-1.37-.56-.97-1.36-1.35-2.09-1.45v-2.2c0-.47.38-.86.86-.86s.86.38.86.86c0,.21-.07.35-.15.46Z"/><path d="m35.29,17.84c.13.54.67.87,1.21.74.07-.02,1.75-.4,2.43,1.12.17.37.53.59.91.59.14,0,.28-.03.41-.09.5-.23.73-.82.5-1.32-1.09-2.42-3.57-2.53-4.73-2.25-.54.13-.87.67-.74,1.21Z"/><path d="m39.16,25.15c-.53.15-.84.69-.7,1.22.05.19.25,1.19-.85,1.86-.47.29-.62.9-.33,1.37.19.31.52.48.86.48.18,0,.36-.05.52-.15,1.98-1.2,2-3.22,1.74-4.12-.15-.52-.7-.82-1.22-.68Z"/><path d="m21.87,34.78c.58.77,1.42,1.27,2.38,1.41.17.02.35.04.52.04.48,0,.94-.1,1.37-.28.5.84,1.4,1.4,2.44,1.4,1.58,0,2.86-1.28,2.86-2.86V11.05c0-1.58-1.28-2.86-2.86-2.86-1.33,0-2.44.91-2.76,2.14-.16-.03-.32-.06-.49-.06-1.75,0-3.03,1.14-3.28,2.84-2.44.03-4.42,2.03-4.42,4.48,0,.68.16,1.33.44,1.93-1.04.72-1.68,1.92-1.68,3.24,0,1.51.87,2.85,2.16,3.52-.21.58-.34,1.19-.34,1.83,0,2.07,1.21,3.85,2.95,4.72.04.7.28,1.37.71,1.94Zm-2.53-13.67c.27.21.56.4.87.55.14.06.28.09.42.09.38,0,.74-.21.91-.58.23-.5.02-1.1-.48-1.33-.87-.41-1.43-1.29-1.43-2.25,0-1.37,1.11-2.48,2.48-2.48.11,0,.21,0,.32.02.29.03.58-.06.8-.25l.45-.41c.21-.19.33-.46.33-.74,0-.55.17-1.46,1.33-1.46.35,0,.68.15.91.4.05.07.09.14.14.2.32.38.85.45,1.26.21.04-.02.08-.03.11-.05,0,0,.01-.02.02-.02,0,0,.01,0,.02-.01.02-.02.03-.05.06-.07.35-.34.43-.88.14-1.29-.04-.05-.08-.08-.12-.13-.07-.11-.15-.26-.15-.46,0-.47.38-.86.86-.86s.86.38.86.86v2.2c-.73.1-1.53.48-2.09,1.45-.28.48-.11,1.09.36,1.37.16.09.33.13.5.13.35,0,.68-.18.87-.5.11-.19.23-.3.36-.37v4.06c-.52.02-1.13.12-1.72.46-.8.46-1.37,1.24-1.64,2.27-.14.53.18,1.08.71,1.22.09.02.17.03.26.03.44,0,.85-.3.97-.74.13-.5.36-.84.69-1.03.23-.13.49-.18.74-.19v5.88c-.58-.4-1.31-.67-2.2-.68h-.01c-.55,0-.99.44-1,.99,0,.55.43,1,.99,1.01,1.67.02,2.14,1.73,2.23,2.12v3.77c0,.47-.38.86-.86.86-.43,0-.76-.32-.83-.72.3-.44.51-.94.59-1.49s-.3-1.05-.85-1.13c-.54-.08-1.05.3-1.13.85-.13.88-.95,1.5-1.82,1.37-.43-.06-.8-.28-1.06-.63-.04-.06-.08-.12-.11-.18.05,0,.1.01.14.01.55,0,1-.45,1-1s-.45-1-1-1c-1.82,0-3.29-1.48-3.29-3.29,0-1.35.81-2.55,2.07-3.06.51-.21.76-.79.55-1.3-.21-.51-.79-.76-1.3-.55-.77.31-1.43.78-1.95,1.36-.7-.3-1.19-1-1.19-1.79,0-.7.37-1.31.95-1.66Z"/><path d="m22.88,20.2c.13.06.27.09.41.09.38,0,.75-.22.91-.59.66-1.47,2.25-1.17,2.44-1.12.53.12,1.07-.2,1.2-.74.13-.54-.2-1.08-.74-1.21-1.16-.28-3.64-.17-4.73,2.25-.23.5,0,1.1.5,1.32Z"/><path d="m25.53,28.23c-1.1-.67-.9-1.66-.85-1.86.15-.53-.16-1.07-.68-1.23-.53-.15-1.09.15-1.24.68-.26.9-.24,2.92,1.74,4.12.16.1.34.15.52.15.34,0,.67-.17.86-.48.29-.47.14-1.09-.34-1.37Z"/><path d="m40.99,45.76c-.55,0-1,.45-1,1v9.14c0,.55.45,1,1,1s1-.45,1-1v-9.14c0-.55-.45-1-1-1Z"/></svg>