<?xml version="1.0" encoding="UTF-8"?><svg id="Art" xmlns="http://www.w3.org/2000/svg" viewBox="0 0 60 60"><defs><style>.cls-1{fill:#231f20;}</style></defs><path class="cls-1" d="m44.68,30.12c1.53-1.2,2.79-2.18,2.79-2.19.93-.61,1.5-1.67,1.52-2.83.03-1.17-.5-2.25-1.4-2.91-.09-.07-10.02-7.52-10.04-7.53-.61-.43-1.32-.66-2.05-.66h-.62c1.3-1.27,2.11-3.04,2.11-5v-2c0-3.86-3.14-7-7-7s-7,3.14-7,7v2c0,1.96.81,3.73,2.11,5h-.62c-.73,0-1.44.23-2.07.68,0,0-9.92,7.45-10.01,7.51-.91.66-1.44,1.75-1.41,2.91.03,1.16.6,2.22,1.46,2.78,0,0,1.29,1.01,2.86,2.23l-3.59,8.87c-.62,1.56-.2,3.34,1.05,4.42,1.21,1.05,3.41,2.45,7.07,3.42l-1.76,8.34c-.23,1.04-.03,2.11.55,3.01.58.9,1.48,1.51,2.5,1.73.27.07.56.1.86.1,1.87,0,3.52-1.33,3.9-3.12l2.42-8.91c.54.02,1.1.03,1.67.03s1.13-.01,1.67-.03l2.41,8.85c.39,1.84,2.03,3.17,3.91,3.17.31,0,.59-.03.83-.09,1.05-.22,1.95-.84,2.53-1.73.58-.9.78-1.96.55-3l-1.76-8.35c3.66-.97,5.86-2.37,7.07-3.42,1.26-1.08,1.68-2.86,1.05-4.42l-3.59-8.87ZM25,9v-2c0-2.76,2.24-5,5-5s5,2.24,5,5v2c0,2.76-2.24,5-5,5s-5-2.24-5-5Zm-10.91,32.89c-.61-.52-.81-1.39-.51-2.16l3.37-8.33c.83.65,1.64,1.29,2.3,1.81.77.61,1.72.87,2.7.73.22-.03.44-.08.65-.16l-2.34,11.09c-3.23-.87-5.14-2.08-6.17-2.98Zm14.78,4.09l1.13-4.17,1.13,4.17c-.75.01-1.52.01-2.27,0Zm10.81,11.1c-.29.45-.74.75-1.29.87-.12.03-.25.04-.4.04-.94,0-1.76-.67-1.97-1.64l-5.06-18.62c-.12-.43-.51-.74-.96-.74s-.85.3-.96.74l-5.07,18.67c-.23,1.07-1.3,1.8-2.38,1.54-.52-.11-.97-.42-1.26-.87-.29-.45-.39-.98-.27-1.5l4.62-21.92c.21-.99.32-2.01.33-3.03,0-.13,0-.27,0-.4v-9.23c0-.38-.23-.73-.57-.9-.34-.17-.75-.13-1.05.1l-5.14,3.93c-.24.18-.39.47-.39.77,0,.3.13.59.36.79l4.26,3.56c.33.28.51.67.54,1.07v.19h0c-.02.29-.11.57-.28.81-.25.35-.62.58-1.04.64-.42.06-.84-.05-1.17-.32-2.41-1.9-6.8-5.33-6.87-5.38-.39-.26-.62-.7-.63-1.21-.01-.51.21-.98.59-1.25t10.01-7.51c.27-.19.58-.3.89-.3h11.02c.31,0,.62.1.87.28q10.01,7.51,10.03,7.53c.38.27.6.74.58,1.25-.01.51-.24.95-.69,1.25,0,0-4.4,3.43-6.8,5.33-.33.27-.75.38-1.17.32-.42-.06-.8-.29-1.04-.64-.17-.24-.26-.51-.28-.79v-.23c.03-.39.21-.77.52-1.04l4.27-3.57c.23-.19.36-.49.36-.79,0-.3-.15-.59-.39-.77l-5.14-3.93c-.3-.23-.71-.27-1.05-.1s-.56.52-.56.9v9.21c-.02.14-.02.29,0,.43,0,1.01.12,2.03.33,3.02l4.62,21.93c.11.52.01,1.05-.27,1.5Zm-16.68-29.99l-2.55-2.13,2.54-1.94v4.07Zm14.01,0v-4.07s2.55,1.94,2.55,1.94l-2.55,2.13Zm8.9,14.8c-1.04.9-2.94,2.1-6.17,2.98l-2.34-11.09c.21.07.43.12.65.16.97.14,1.93-.12,2.7-.73.66-.52,1.47-1.16,2.3-1.81l3.37,8.33c.31.77.1,1.64-.51,2.16Z"/></svg>