<?xml version="1.0" encoding="UTF-8"?><svg id="Art" xmlns="http://www.w3.org/2000/svg" viewBox="0 0 60 60"><path d="m22.31,28.45h1.94v16.11c0,.55.45,1,1,1h3.01c.51,0,.94-.39.99-.9l.7-6.75.78,6.76c.06.5.49.89.99.89h3.01c.55,0,1-.45,1-1v-16.11h1.94c.55,0,1-.45,1-1v-11.69c0-3.68-2.99-6.67-6.67-6.67h-4.02c-3.68,0-6.67,2.99-6.67,6.67v11.69c0,.55.45,1,1,1Zm1-12.69c0-2.58,2.1-4.67,4.67-4.67h4.02c2.58,0,4.67,2.1,4.67,4.67v10.69h-.94v-7.57c0-.55-.45-1-1-1s-1,.45-1,1v24.68h-1.12l-1.63-14.13c-.06-.55-.53-.97-1.08-.97,0,0,0,0,0,0-.56,0-1.02.42-1.08.98l-1.46,14.12h-1.11v-24.68c0-.55-.45-1-1-1s-1,.45-1,1v7.57h-.94v-10.69Z"/><path d="m30,8.3c2.22,0,4.03-1.81,4.03-4.03S32.22.24,30,.24s-4.03,1.81-4.03,4.03,1.81,4.03,4.03,4.03Zm0-6.06c1.12,0,2.03.91,2.03,2.03s-.91,2.03-2.03,2.03-2.03-.91-2.03-2.03.91-2.03,2.03-2.03Z"/><path d="m55.67,46.7s0,0,0,0h0c0-.13-.03-.26-.08-.38-.05-.12-.12-.23-.21-.32,0,0,0,0,0,0l-2.96-2.96c-.39-.39-1.02-.39-1.41,0-.39.39-.39,1.02,0,1.41l1.25,1.25h-11.34c-.55,0-1,.45-1,1.01s.45,1,1,1h11.35s-1.25,1.25-1.25,1.25c-.39.39-.39,1.02,0,1.41.2.19.45.29.71.29s.51-.1.71-.29l2.96-2.96s.01-.02.02-.04c.08-.09.15-.18.19-.29.05-.12.07-.25.08-.38Z"/><path d="m7.75,47.7h13.69c.55,0,1-.45,1-1.01s-.45-1-1-1H7.74s1.25-1.25,1.25-1.25c.39-.39.39-1.02,0-1.41-.39-.39-1.02-.39-1.41,0l-2.96,2.96s-.02.03-.03.04c-.08.08-.14.18-.19.28-.05.12-.08.25-.08.38,0,0,0,0,0,0h0c0,.13.03.26.08.38.05.12.12.23.22.32,0,0,0,0,0,0l2.96,2.96c.2.19.45.29.71.29s.51-.1.71-.29c.39-.39.39-1.02,0-1.41l-1.25-1.25Z"/><path d="m32.25,55.57l-1.25,1.25v-8.7c0-.55-.45-1-1.01-1h0c-.55,0-1,.45-1,1v8.71s-1.25-1.25-1.25-1.25c-.39-.39-1.02-.39-1.41,0-.39.39-.39,1.02,0,1.41l2.96,2.96s.03.01.04.02c.08.08.18.15.29.19.12.05.25.08.38.08h0s0,0,.01,0c.13,0,.25-.03.37-.08.11-.05.22-.12.3-.2,0,0,.01,0,.02-.01l2.96-2.96c.39-.39.39-1.02,0-1.41-.39-.39-1.02-.39-1.41,0Z"/><path d="m12.94,45.09c.21,0,.43-.07.61-.21.41-.32.92-.63,1.53-.92.62-.3,1.34-.59,2.14-.85.81-.26,1.7-.51,2.65-.72.96-.21,2-.4,3.07-.55.55-.08.93-.58.85-1.13-.08-.55-.58-.93-1.13-.85-1.12.16-2.21.35-3.22.57-1.01.22-1.97.48-2.84.77-.88.29-1.69.61-2.39.95-.73.35-1.37.74-1.88,1.14-.44.34-.52.97-.18,1.4.2.25.49.39.79.39Z"/><path d="m26.27,53.41c.52,0,.96-.4,1-.93.04-.55-.38-1.03-.93-1.06-1.16-.08-2.31-.19-3.41-.35-1.07-.15-2.1-.33-3.07-.55-.95-.21-1.84-.45-2.65-.72-.79-.26-1.51-.55-2.14-.85-.61-.29-1.12-.6-1.53-.92-.44-.34-1.06-.26-1.4.18-.34.44-.26,1.06.18,1.4.52.4,1.15.79,1.88,1.14.71.34,1.51.66,2.39.95.87.29,1.82.54,2.84.77,1.02.22,2.1.42,3.23.57,1.15.16,2.34.28,3.55.36.02,0,.05,0,.07,0Z"/><path d="m46.45,48.03c-.41.32-.92.63-1.53.92-.62.3-1.34.59-2.14.85-.81.26-1.7.51-2.65.72-.96.21-2,.4-3.07.55-1.1.15-2.24.27-3.41.35-.55.04-.97.51-.93,1.06.04.53.47.93,1,.93.02,0,.05,0,.07,0,1.21-.08,2.4-.2,3.55-.36,1.12-.16,2.21-.35,3.22-.57,1.01-.22,1.97-.48,2.84-.77.88-.29,1.68-.61,2.39-.95.73-.36,1.37-.74,1.88-1.14.44-.34.52-.97.18-1.4-.34-.44-.97-.52-1.4-.18Z"/><path d="m36.22,40.72c-.08.55.31,1.05.85,1.13,1.07.15,2.1.33,3.07.55.95.21,1.84.45,2.65.72.8.26,1.52.55,2.14.85.61.3,1.12.61,1.53.92.18.14.4.21.61.21.3,0,.59-.13.79-.39.34-.44.26-1.06-.18-1.4-.52-.4-1.15-.79-1.88-1.14-.7-.34-1.5-.66-2.39-.95-.87-.29-1.82-.54-2.84-.77-1.02-.22-2.1-.42-3.22-.57-.55-.08-1.05.31-1.13.85Z"/></svg>