<?xml version="1.0" encoding="UTF-8"?><svg id="Art" xmlns="http://www.w3.org/2000/svg" viewBox="0 0 60 60"><path d="m34.76,38.38h-.99c-.99,0-1.9-.52-2.42-1.36-.01-.02-.02-.04-.03-.06l-5.17-8.95s-.03-.04-.04-.07c-.46-.85-.46-1.87,0-2.71.01-.02.03-.04.04-.06l5.17-8.95s.02-.04.03-.06c.51-.84,1.43-1.36,2.42-1.36h10.33c1.01,0,1.96.54,2.46,1.42l5.17,8.95c.51.88.51,1.97,0,2.84l-1.27,2.2c-.28.48-.11,1.09.37,1.37.48.28,1.09.11,1.37-.37l1.27-2.2c.86-1.49.86-3.35,0-4.84l-5.17-8.95c-.86-1.49-2.47-2.42-4.2-2.42h-10.33c-.64,0-1.27.13-1.84.37-.08-.62-.28-1.23-.61-1.79l-5.17-8.95c-.86-1.49-2.47-2.42-4.2-2.42h-10.33c-1.73,0-3.33.93-4.2,2.42L2.27,11.37c-.86,1.49-.86,3.35,0,4.84l5.17,8.95c.32.56.75,1.04,1.25,1.42-.5.38-.93.86-1.25,1.42l-5.17,8.95c-.86,1.49-.86,3.35,0,4.84l5.17,8.95c.86,1.49,2.47,2.42,4.2,2.42h10.33c1.73,0,3.33-.93,4.2-2.42l5.17-8.95c.32-.56.52-1.17.61-1.79.58.24,1.2.37,1.84.37h.99c.55,0,1-.45,1-1s-.45-1-1-1Zm-25.59-14.21L4,15.21c-.51-.88-.51-1.97,0-2.84L9.16,3.42c.51-.88,1.45-1.42,2.46-1.42h10.33c1.01,0,1.96.54,2.46,1.42l5.17,8.95c.49.86.5,1.91.03,2.78-.01.02-.03.04-.04.06l-5.17,8.95s-.02.04-.03.06c-.51.84-1.43,1.36-2.42,1.36h-10.33c-1.01,0-1.96-.54-2.46-1.42Zm20.42,16.64l-5.17,8.95c-.51.88-1.45,1.42-2.46,1.42h-10.33c-1.01,0-1.96-.55-2.46-1.42l-5.17-8.95c-.51-.88-.51-1.97,0-2.85l5.17-8.95c.51-.88,1.45-1.42,2.46-1.42h10.33c.99,0,1.9.52,2.42,1.36.01.02.02.04.03.06l5.17,8.95s.03.04.04.06c.47.87.47,1.92-.03,2.78Z"/><path d="m56.35,40.54v-4.31c0-1.57-1.28-2.85-2.85-2.85-.37,0-.71.08-1.04.2-.4-1.08-1.44-1.86-2.66-1.86-.51,0-.98.15-1.4.38-.52-.71-1.35-1.18-2.3-1.18-.3,0-.58.06-.85.14v-3.2c0-1.57-1.28-2.85-2.85-2.85s-2.85,1.28-2.85,2.85v9.52c-.27-.09-.55-.14-.85-.14-1.57,0-2.85,1.28-2.85,2.85v5.2s.02.07.02.11c.11,1.82,1.03,3.5,2.53,4.55.72.5,1.14,1.32,1.14,2.2v.79s-.06.04-.08.07c-.45.48-.68,1.15-.64,1.85.09,1.39.14,2.79.17,4.17,0,.55.46.98,1,.98h.02c.55,0,.99-.47.98-1.02-.02-1.4-.08-2.84-.17-4.26-.01-.18.04-.3.18-.4l11.32.04c.05.06.11.18.1.36-.03.56-.06.97-.09,1.32-.07.92-.1,1.42-.1,2.94,0,.55.45,1,1,1h0c.55,0,1-.45,1-1,0-1.44.03-1.89.09-2.79.03-.35.06-.77.09-1.34.04-.58-.12-1.13-.43-1.58.02-.37.11-1.29.4-1.8.09-.17.19-.33.29-.5.5-.84,1.08-1.8,1.51-3.72.46-2.02.18-6.24.14-6.72Zm-2.09,6.27c-.37,1.61-.83,2.39-1.28,3.13-.11.18-.22.36-.32.55-.32.57-.48,1.27-.56,1.83h-10.54v-.19c0-1.53-.75-2.96-2-3.83-1.06-.75-1.7-1.97-1.7-3.27v-4.95c0-.47.38-.85.85-.85s.85.38.85.85v2.85c0,.55.45,1,1,1s1-.45,1-1v-2.85c0-.09-.02-.18-.03-.27,0-.05.03-.09.03-.14v-11.82c0-.47.38-.85.85-.85s.85.38.85.85v11.82c0,.55.45,1,1,1s1-.45,1-1v-5.91c0-.47.38-.85.85-.85s.85.38.85.85v5.68c0,.55.45,1,1,1s1-.45,1-1v-4.88c0-.47.38-.85.85-.85s.85.38.85.85v6.05c0,.55.45,1,1,1s1-.45,1-1v-4.39c0-.47.38-.85.85-.85s.85.38.85.85v4.39c0,.05,0,.1.01.15.09,1.3.23,4.59-.1,6.05Z"/></svg>