<?xml version="1.0" encoding="UTF-8"?><svg id="Art" xmlns="http://www.w3.org/2000/svg" viewBox="0 0 60 60"><path d="m56.95,44.82c-.35-.85-1.02-1.51-1.87-1.86-.85-.35-1.79-.35-2.66.01l-10.64,4.71c-.04-1.73-1.44-3.12-3.17-3.16,0,0,0,0-.01,0h-.01s-.03,0-.05,0c0,0-.02,0-.03,0h-7.65l-5.84-2.73c-1.28-.6-2.7-.91-4.1-.91h-4.17v-1.08c0-.25-.1-.47-.25-.64v-.11h-.11c-.17-.15-.39-.25-.64-.25H3.78c-.55,0-1,.45-1,1s.45,1,1,1h10.98v15.31H6.06c-.55,0-1,.45-1,1s.45,1,1,1h9.69c.25,0,.47-.1.64-.25h.11v-.11c.15-.17.25-.4.25-.64v-1.08h2.99l10.76,3.59c.76.25,1.56.38,2.35.38,1.19,0,2.37-.28,3.44-.83l18.8-9.84c1.75-.73,2.59-2.76,1.86-4.51Zm-40.2-1.94h4.17c1.12,0,2.24.25,3.26.72l6.04,2.82c.13.06.28.09.42.09h7.92c.68.02,1.23.57,1.23,1.25s-.56,1.25-1.25,1.25h-9.45c-.06,0-.12,0-.17.02-.97.17-2.82,1.02-2.82,2.98,0,.55.45,1,1,1s1-.45,1-1c0-.67.85-.93,1.1-.99h9.41s.04-.01.07-.01c.49-.02.94-.15,1.35-.36.01,0,.03,0,.04,0l13.14-5.82c.36-.15.75-.15,1.11,0,.36.15.64.43.79.78.31.74-.04,1.59-.86,1.93l-18.87,9.87c-1.3.67-2.85.79-4.24.33l-10.91-3.64c-.1-.03-.21-.05-.32-.05h-3.15v-11.15Z"/><path d="m13.24,54.28v-1.41c0-.55-.45-1-1-1s-1,.45-1,1v1.41c0,.55.45,1,1,1s1-.45,1-1Z"/><path d="m10.65,54.28v-1.41c0-.55-.45-1-1-1s-1,.45-1,1v1.41c0,.55.45,1,1,1s1-.45,1-1Z"/><path d="m38.57,10.72c.2.08.41.14.62.18l-.96,2.36c-.09.22-.08.46,0,.69l-.04.1.1.04c.11.21.28.38.5.47l10.92,4.41c.12.05.25.07.38.07.11,0,.22-.02.33-.06l.09.04.04-.1c.21-.11.38-.27.47-.51l.96-2.36c.18.12.37.21.57.3,1.74.71,3.73-.14,4.44-1.88.7-1.74-.14-3.73-1.88-4.44-.2-.08-.41-.14-.62-.18l.95-2.36c.09-.23.08-.47,0-.69l.04-.1-.1-.04c-.11-.2-.27-.38-.5-.47l-2.36-.96c.12-.18.22-.37.3-.58.7-1.74-.14-3.72-1.88-4.43-1.74-.71-3.73.14-4.44,1.88-.08.2-.14.41-.19.62l-2.36-.95c-.23-.09-.47-.08-.69,0l-.1-.04-.04.1c-.2.11-.38.27-.47.5l-.95,2.36c-.18-.12-.37-.22-.57-.3-.85-.34-1.77-.33-2.61.02-.83.36-1.48,1.01-1.82,1.86-.34.84-.33,1.77.02,2.6.35.84,1.01,1.49,1.86,1.83Zm3.5-2.27l.41-1.02c.21-.11.38-.28.47-.5l1.17-2.91,2.91,1.18c.23.09.47.09.69.01l1.04.42h0s1.01.41,1.01.41c.11.21.28.38.51.47l2.91,1.18-1.18,2.91c-.09.23-.09.47-.01.69l-.83,2.04c-.21.11-.38.28-.47.5l-1.18,2.91-9.07-3.67,1.18-2.91c.09-.23.09-.47.01-.69l.4-1-1,.38c-.22-.08-.47-.09-.69,0-.24.09-.62.17-1.04,0-.35-.14-.62-.41-.76-.75-.15-.35-.15-.73,0-1.08h0c.14-.35.41-.62.75-.76.34-.15.73-.15,1.07,0,.33.14.59.38.74.71.1.22.28.39.5.48l.46,1Zm9.54,3.87l1.01-.41c.22.08.47.08.69,0,.33-.13.69-.13,1.02,0,.72.29,1.07,1.11.78,1.83-.29.72-1.11,1.07-1.83.77-.33-.14-.6-.38-.74-.7-.1-.22-.28-.39-.49-.49l-.45-1Zm-2.85-6.71l-.41-1.02c.08-.22.08-.47,0-.69-.13-.33-.13-.69,0-1.03.29-.72,1.11-1.06,1.83-.77.72.29,1.06,1.11.77,1.82-.14.34-.39.6-.71.75-.22.1-.39.28-.49.49l-1,.45Z"/><path d="m9.59,22.49c-.21-.04-.42-.06-.64-.06-1.88,0-3.41,1.53-3.41,3.4s1.53,3.41,3.41,3.41c.22,0,.43-.02.64-.06v2.54c0,.25.1.47.25.64v.11h.11c.17.15.39.25.64.25h2.55c-.04.21-.06.43-.06.65,0,1.88,1.53,3.4,3.4,3.4s3.41-1.53,3.41-3.4c0-.22-.02-.44-.06-.65h2.54s0,0,0,0,0,0,0,0h2.55c-.04.21-.06.43-.06.65,0,1.88,1.53,3.4,3.4,3.4s3.41-1.53,3.41-3.4c0-.22-.02-.44-.06-.65h2.54s.01,0,.02,0h2.54c-.04.21-.06.43-.06.65,0,1.88,1.53,3.4,3.4,3.4s3.41-1.53,3.41-3.4c0-.22-.02-.44-.06-.65h2.54c.25,0,.47-.1.64-.25h.11v-.11c.15-.17.25-.4.25-.64v-2.54c.21.04.42.06.64.06,1.88,0,3.4-1.53,3.4-3.4s-1.53-3.41-3.4-3.41c-.22,0-.43.02-.64.06v-2.55c0-.25-.1-.47-.25-.64v-.11h-.11c-.17-.15-.39-.25-.64-.25h-10.79v-3.14c0-.24-.1-.47-.25-.65v-2.2c.15-.18.25-.4.25-.65v-4.14c0-.25-.1-.47-.25-.64v-.11h-.11c-.17-.15-.39-.25-.64-.25h-2.54c.04-.21.06-.42.06-.64,0-1.88-1.53-3.41-3.41-3.41s-3.4,1.53-3.4,3.41c0,.22.02.43.06.64h-2.55s0,0,0,0,0,0,0,0h-2.54c.04-.21.06-.42.06-.64,0-1.88-1.53-3.41-3.41-3.41s-3.4,1.53-3.4,3.41c0,.22.02.43.06.64h-2.55c-.25,0-.47.1-.64.25h-.11v.11c-.15.17-.25.4-.25.64v2.55c-.21-.04-.42-.06-.64-.06-1.88,0-3.41,1.53-3.41,3.4s1.53,3.41,3.41,3.41c.22,0,.43-.02.64-.06v2.54s0,0,0,0,0,0,0,0v2.55Zm25.29-8.44l-.79.76c-.23.01-.46.1-.64.27-.25.25-.59.38-.95.38-.78,0-1.41-.63-1.41-1.41s.63-1.4,1.41-1.4c.36,0,.7.13.95.37.18.17.4.26.64.27l.79.76Zm11.09,11.02c.23,0,.47-.09.64-.26.19-.18.51-.39.96-.39.77,0,1.4.63,1.4,1.41s-.63,1.4-1.4,1.4c-.35,0-.67-.13-.93-.37-.02-.02-.05-.03-.07-.05-.06-.05-.13-.1-.21-.14-.05-.02-.11-.04-.16-.05-.06-.02-.11-.03-.17-.03-.02,0-.04-.01-.07-.01l-.78-.74v1.09s0,.01-.01.02c-.04.05-.08.11-.11.16-.02.04-.04.08-.06.12-.04.1-.06.21-.06.32,0,0,0,.01,0,.02h0v3.14h-3.14c-.24,0-.47.1-.65.25h-2.2c-.18-.15-.4-.25-.65-.25h-3.14v-3.14c0-.24-.1-.47-.25-.65v-2.2c.15-.18.25-.4.25-.65v-3.14h9.78v3.14c0,.24.1.47.25.65v1.07l.79-.73Zm-24.58-12.23c.1.05.2.1.28.18.07.07.15.13.24.17,0,0,0,0,0,0,.08.04.17.07.27.09.04,0,.08,0,.12,0l.79.76-.79.76s-.08,0-.12,0c-.19.03-.37.12-.51.26-.08.08-.19.13-.29.19-.2.11-.42.19-.66.19-.78,0-1.41-.63-1.41-1.41s.63-1.4,1.41-1.4c.24,0,.46.08.67.19Zm-.67,14.4c-.78,0-1.41-.63-1.41-1.41s.63-1.4,1.41-1.4c.18,0,.36.03.52.1.16.06.31.16.43.28.14.14.32.23.51.26.04,0,.08,0,.13,0l.79.76-.79.76s-.08,0-.13,0c-.19.04-.37.12-.51.26-.13.12-.27.22-.43.28-.16.06-.33.1-.51.1Zm12.97-.55c-.09.04-.17.1-.24.17-.13.12-.27.22-.43.28-.16.06-.33.1-.51.1-.78,0-1.41-.63-1.41-1.41,0-.58.35-1.07.86-1.29.17-.07.35-.11.54-.11.36,0,.7.13.95.37.18.17.4.25.64.27l.79.76-.04.04-.74.71c-.14,0-.27.04-.4.1Zm-23.8.17c-.25.25-.59.38-.95.38-.78,0-1.41-.63-1.41-1.41s.63-1.4,1.41-1.4c.36,0,.7.13.95.37.18.17.4.25.64.27l.79.76-.79.76c-.23.01-.46.1-.64.27Zm6.58,4.13l.76.79c.01.23.1.46.27.64.25.25.38.59.38.95,0,.77-.63,1.4-1.41,1.4s-1.4-.63-1.4-1.4c0-.37.13-.71.37-.95.17-.18.25-.4.27-.64l.76-.79Zm.02-.02h-1.12c-.18-.15-.4-.25-.65-.25h-3.14v-3.14c0-.24-.1-.47-.25-.65v-2.2c.15-.18.25-.4.25-.65v-3.14h9.78v1.55c-.21-.04-.42-.06-.64-.06-1.88,0-3.41,1.53-3.41,3.4s1.53,3.41,3.41,3.41c.22,0,.43-.02.64-.06v1.54h-3.14c-.24,0-.47.1-.65.25h-1.08Zm11.76.02l.76.79c.01.23.1.46.27.64.25.25.38.59.38.95,0,.77-.63,1.4-1.41,1.4s-1.4-.63-1.4-1.4c0-.37.13-.71.37-.95.17-.18.26-.4.27-.64l.76-.79Zm.02-.02h-1.12c-.18-.15-.4-.25-.65-.25h-3.14v-3.14c0-.24-.1-.47-.25-.65v-2.2c.15-.18.25-.4.25-.65v-3.14h9.78v1.54c-.21-.04-.42-.06-.63-.06-.47,0-.92.1-1.33.27-1.22.52-2.09,1.73-2.09,3.13,0,1.88,1.53,3.41,3.41,3.41.22,0,.43-.02.64-.06v1.54h-3.14c-.24,0-.47.1-.65.25h-1.08Zm11.76.02l.76.79c.01.23.1.46.27.64.25.25.38.59.38.95,0,.77-.63,1.4-1.41,1.4s-1.4-.63-1.4-1.4c0-.37.13-.71.37-.95.17-.18.25-.4.27-.64l.76-.79Zm-11.78-22.1l-.76-.79c-.01-.23-.1-.46-.27-.64-.24-.25-.37-.58-.37-.95,0-.78.63-1.41,1.4-1.41s1.41.63,1.41,1.41c0,.36-.14.69-.38.95-.17.18-.25.4-.27.64l-.76.79Zm1.1.02c.18.15.4.25.65.25h3.14v1.55c-.21-.04-.42-.06-.64-.06-1.88,0-3.41,1.53-3.41,3.4s1.53,3.41,3.41,3.41c.22,0,.43-.02.64-.06v1.54h-3.14s-.01,0-.02,0h-3.46s-.01,0-.02,0h-3.14v-3.14c0-.24-.1-.47-.25-.65v-2.2c.15-.18.25-.4.25-.65v-3.14h3.14c.24,0,.47-.1.65-.25h2.2Zm-12.88-.02l-.76-.79c-.01-.23-.1-.46-.27-.64-.24-.25-.37-.59-.37-.95,0-.78.63-1.41,1.4-1.41s1.41.63,1.41,1.41c0,.36-.14.69-.38.95-.17.18-.25.4-.27.64l-.76.79Zm-4.89,3.41v-3.14h3.14c.24,0,.47-.1.65-.25h2.2c.18.15.4.25.65.25h3.14v1.55c-.21-.04-.42-.06-.64-.06-1.88,0-3.41,1.53-3.41,3.4s1.53,3.41,3.41,3.41c.22,0,.43-.02.64-.06v1.54h-3.14s-.01,0-.02,0h-3.46s-.01,0-.02,0h-3.14v-3.14c0-.24-.1-.47-.25-.65v-2.2c.15-.18.25-.4.25-.65Zm-.27,1.75l-.79.76c-.23.01-.46.1-.64.27-.25.25-.59.38-.95.38-.78,0-1.41-.63-1.41-1.41s.63-1.4,1.41-1.4c.36,0,.7.13.95.37.18.17.4.26.64.27l.79.76Z"/></svg>