<?xml version="1.0" encoding="UTF-8"?><svg id="Art" xmlns="http://www.w3.org/2000/svg" viewBox="0 0 60 60"><path d="m30.5,26h-3.5l-2.7-6.48c-1.18-2.83-3.68-4.79-6.61-5.35,1.41-1.28,2.3-3.12,2.3-5.18v-2c0-3.86-3.14-7-7-7s-7,3.14-7,7v2c0,2.04.88,3.88,2.28,5.16C3.59,14.98,0,19.07,0,24v11.5c0,1.93,1.57,3.5,3.5,3.5.54,0,1.04-.12,1.5-.34v16.64c0,2.5,1.87,4.57,4.26,4.69.08,0,.16,0,.24,0,1.16,0,2.25-.43,3.09-1.24.14-.14.28-.28.4-.44.12.15.26.3.4.44.91.86,2.09,1.29,3.34,1.23,2.39-.13,4.26-2.19,4.26-4.69v-25.43l.04.1c.79,1.84,2.59,3.03,4.6,3.03h4.86c1.93,0,3.5-1.57,3.5-3.5s-1.57-3.5-3.5-3.5Zm-15.51.68l-2,1.31-1.99-1.33.88-6.67h2.25l.87,6.68Zm-.77-8.68h-2.44l-.5-2h3.44l-.5,2Zm-6.22-9v-2c0-2.76,2.24-5,5-5s5,2.24,5,5v2c0,2.76-2.24,5-5,5s-5-2.24-5-5Zm22.5,22h-4.86c-1.2,0-2.28-.71-2.76-1.82l-1.96-4.58c-.19-.44-.65-.68-1.12-.59-.46.1-.8.5-.8.98v30.3c0,1.42-1.06,2.63-2.36,2.69-.69.04-1.35-.21-1.86-.68s-.78-1.12-.78-1.81v-15.5c0-.55-.45-1-1-1s-1,.45-1,1v15.5c0,.69-.28,1.34-.78,1.81-.5.48-1.17.72-1.86.68-1.3-.07-2.36-1.28-2.36-2.69v-31.3c0-.55-.45-1-1-1s-1,.45-1,1v11.5c0,.83-.67,1.5-1.5,1.5s-1.5-.67-1.5-1.5v-11.5c0-4.15,3.18-7.57,7.23-7.96l.75,3.02-.97,7.36c-.1.76.24,1.51.89,1.93l1.97,1.31c.34.23.73.34,1.12.34s.78-.11,1.12-.34l1.98-1.31c.64-.43.98-1.17.89-1.94l-.97-7.35.75-3c2.51.27,4.7,1.86,5.69,4.24l2.7,6.48c.31.75,1.04,1.23,1.85,1.23h3.5c.83,0,1.5.67,1.5,1.5s-.67,1.5-1.5,1.5Z"/><path d="m56,21h-16c-2.21,0-4,1.79-4,4v10c0,2.21,1.79,4,4,4h16c2.21,0,4-1.79,4-4v-10c0-2.21-1.79-4-4-4Zm2,14c0,1.1-.9,2-2,2h-16c-1.1,0-2-.9-2-2v-10c0-1.1.9-2,2-2h16c1.1,0,2,.9,2,2v10Z"/><path d="m56,0h-16c-2.21,0-4,1.79-4,4v10c0,2.21,1.79,4,4,4h16c2.21,0,4-1.79,4-4V4c0-2.21-1.79-4-4-4Zm2,14c0,1.1-.9,2-2,2h-16c-1.1,0-2-.9-2-2V4c0-1.1.9-2,2-2h16c1.1,0,2,.9,2,2v10Z"/><path d="m56,42h-16c-2.21,0-4,1.79-4,4v10c0,2.21,1.79,4,4,4h16c2.21,0,4-1.79,4-4v-10c0-2.21-1.79-4-4-4Zm2,14c0,1.1-.9,2-2,2h-16c-1.1,0-2-.9-2-2v-10c0-1.1.9-2,2-2h16c1.1,0,2,.9,2,2v10Z"/><path d="m54.2,29.4l-2.31,3.08-.18-.18c-.39-.39-1.02-.39-1.41,0s-.39,1.02,0,1.41l1,1c.19.19.44.29.71.29.02,0,.05,0,.07,0,.29-.02.55-.17.73-.4l3-4c.33-.44.24-1.07-.2-1.4-.44-.33-1.07-.24-1.4.2Z"/><path d="m55,25h-13c-.55,0-1,.45-1,1s.45,1,1,1h13c.55,0,1-.45,1-1s-.45-1-1-1Z"/><path d="m48,29h-6c-.55,0-1,.45-1,1s.45,1,1,1h6c.55,0,1-.45,1-1s-.45-1-1-1Z"/><path d="m47,33h-5c-.55,0-1,.45-1,1s.45,1,1,1h5c.55,0,1-.45,1-1s-.45-1-1-1Z"/><path d="m54.2,8.4l-2.31,3.08-.18-.18c-.39-.39-1.02-.39-1.41,0s-.39,1.02,0,1.41l1,1c.19.19.44.29.71.29.02,0,.05,0,.07,0,.29-.02.55-.17.73-.4l3-4c.33-.44.24-1.07-.2-1.4-.44-.33-1.07-.24-1.4.2Z"/><path d="m55,4h-13c-.55,0-1,.45-1,1s.45,1,1,1h13c.55,0,1-.45,1-1s-.45-1-1-1Z"/><path d="m48,8h-6c-.55,0-1,.45-1,1s.45,1,1,1h6c.55,0,1-.45,1-1s-.45-1-1-1Z"/><path d="m47,12h-5c-.55,0-1,.45-1,1s.45,1,1,1h5c.55,0,1-.45,1-1s-.45-1-1-1Z"/><path d="m54.2,50.4l-2.31,3.08-.18-.18c-.39-.39-1.02-.39-1.41,0s-.39,1.02,0,1.41l1,1c.19.19.44.29.71.29.02,0,.05,0,.07,0,.29-.02.55-.17.73-.4l3-4c.33-.44.24-1.07-.2-1.4-.44-.33-1.07-.24-1.4.2Z"/><path d="m55,46h-13c-.55,0-1,.45-1,1s.45,1,1,1h13c.55,0,1-.45,1-1s-.45-1-1-1Z"/><path d="m48,50h-6c-.55,0-1,.45-1,1s.45,1,1,1h6c.55,0,1-.45,1-1s-.45-1-1-1Z"/><path d="m47,54h-5c-.55,0-1,.45-1,1s.45,1,1,1h5c.55,0,1-.45,1-1s-.45-1-1-1Z"/></svg>