<?xml version="1.0" encoding="UTF-8"?><svg id="Art" xmlns="http://www.w3.org/2000/svg" viewBox="0 0 60 60"><path d="m53,49.07v-.62c1.02-.92,1.74-2.17,1.94-3.6,1.1-.36,1.89-1.34,2.03-2.49.39-.62,1.03-2.13,1.03-5.36v-1c0-2.02-1.51-3.7-3.46-3.96-.56-.68-1.88-1.76-4.54-1.99v-1.05c0-1.65-1.35-3-3-3h-16v-2.14c1.72-.45,3-2,3-3.86v-.28c.6-.36,1-1.03,1-1.82v-.56c0-.51.26-1.01.71-1.38,2.51-2.05,3.7-5.2,3.18-8.44-.63-3.91-3.95-7.04-7.9-7.46-2.55-.27-5.1.55-7,2.25-1.9,1.71-2.98,4.15-2.98,6.69,0,2.69,1.19,5.22,3.26,6.93.47.39.74.92.74,1.45v.62c0,.74.41,1.37,1,1.72v.28c0,1.86,1.28,3.41,3,3.86v2.14H13c-1.65,0-3,1.35-3,3v1.05c-2.67.23-3.98,1.31-4.54,1.99-1.95.27-3.46,1.94-3.46,3.96v1c0,3.23.64,4.74,1.03,5.36.14,1.15.93,2.13,2.03,2.49.2,1.42.92,2.68,1.94,3.6v.62c-3.94.49-7,3.86-7,7.93v1c0,1.1.9,2,2,2h56c1.1,0,2-.9,2-2v-1c0-4.07-3.06-7.44-7-7.93ZM25.53,14.38c-1.61-1.33-2.53-3.29-2.53-5.38,0-1.98.85-3.88,2.32-5.21,1.3-1.17,2.94-1.79,4.67-1.79.26,0,.52.01.78.04,3.07.33,5.65,2.76,6.13,5.79.41,2.52-.52,4.98-2.47,6.57-.92.75-1.44,1.82-1.44,2.93v.56c0,.06-.01.1,0,.1h-6v-.62c0-1.13-.53-2.23-1.47-3Zm2.47,5.62h4c0,1.1-.9,2-2,2s-2-.9-2-2Zm19,29.64c.63.23,1.3.36,2,.36s1.37-.13,2-.36v.36c0,1.1-.9,2-2,2s-2-.9-2-2v-.36Zm7.18-6.66c-.64.12-1.13.68-1.19,1.36-.17,2.05-1.92,3.66-3.99,3.66s-3.81-1.61-3.99-3.66c-.06-.68-.55-1.24-1.19-1.36-.44-.08-.76-.46-.8-.89,0-.05,0-.1,0-.16.03-.45.37-.84.82-.92.63-.11,1.11-.62,1.19-1.26.09-.7.45-1.89,1.72-2.56.51.42,1.27.81,2.25.81s1.75-.39,2.25-.81c1.27.67,1.63,1.86,1.72,2.56.09.65.57,1.15,1.19,1.26.47.08.83.51.83.99s-.35.9-.82.98Zm-1.07-9.54c.17.34.52.55.89.55,1.1,0,2,.9,2,2v1c0,1.12-.08,1.97-.2,2.61-.27-.2-.57-.37-.9-.47-.23-1.15-1-3.22-3.58-4.09-.42-.14-.9.04-1.16.4-.04.06-.39.54-1.16.54s-1.12-.49-1.15-.53c-.24-.39-.73-.57-1.17-.42-2.59.86-3.36,2.94-3.58,4.09-.33.1-.63.27-.9.47-.11-.64-.2-1.48-.2-2.61v-1c0-1.1.9-2,2-2,.36,0,.7-.22.88-.53.04-.06.88-1.47,4.12-1.47s4.08,1.41,4.11,1.45Zm-6.11-5.45c.55,0,1,.45,1,1v1.05c-2.67.23-3.98,1.31-4.54,1.99-1.95.27-3.46,1.94-3.46,3.96v1c0,3.23.64,4.74,1.03,5.36.14,1.15.93,2.13,2.03,2.49.2,1.42.92,2.68,1.94,3.6v.63c-2.24.28-4.22,1.47-5.5,3.28-.43-.6-.93-1.13-1.5-1.59v-12.76c0-4.07-3.06-7.44-7-7.93v-2.07h16Zm-26,30v-1c0-3.02,2.25-5.52,5.16-5.93.47,1.69,2,2.93,3.84,2.93s3.37-1.25,3.84-2.93c2.91.41,5.16,2.91,5.16,5.93v1h-18Zm9-26c3.31,0,6,2.69,6,6v1.18c-.31-.11-.65-.18-1-.18,0,0-.35,0-.84-.08-.95-.15-3.16-.65-3.16-1.92,0-.27-.11-.52-.29-.71s-.44-.29-.71-.29c-3.54,0-5.1,2.03-5.67,3.08-.11.03-.22.07-.33.11v-1.18c0-3.31,2.69-6,6-6Zm4,17.07v-.62c1.02-.92,1.74-2.17,1.94-3.6.02,0,.04-.02.06-.03v4.76c-.63-.26-1.3-.43-2-.52Zm-10-7.07c0-.55.45-1,1-1,.42,0,.8-.28.95-.67.03-.09.72-1.93,3.24-2.27.39,1.09,1.55,2.34,4.66,2.84.65.1,1.11.11,1.16.11.55,0,1,.45,1,1,0,.48-.35.9-.82.98-.64.12-1.13.68-1.19,1.36-.17,2.05-1.92,3.66-3.99,3.66s-3.81-1.61-3.99-3.66c-.06-.68-.55-1.24-1.19-1.36-.47-.09-.82-.51-.82-.98Zm4,7.64c.63.23,1.3.36,2,.36s1.37-.13,2-.36v.36c0,1.1-.9,2-2,2s-2-.9-2-2v-.36Zm-4-4.82s.04.02.06.03c.2,1.42.92,2.68,1.94,3.6v.62c-.7.09-1.37.26-2,.52v-4.76Zm-11-16.82h16v2.07c-3.94.49-7,3.86-7,7.93v12.76c-.57.46-1.08,1-1.5,1.59-1.28-1.81-3.25-3.01-5.5-3.28v-.63c1.02-.92,1.74-2.17,1.94-3.6,1.1-.36,1.89-1.34,2.03-2.49.39-.62,1.03-2.13,1.03-5.36v-1c0-2.02-1.51-3.7-3.46-3.96-.56-.68-1.88-1.76-4.54-1.99v-1.05c0-.55.45-1,1-1Zm-4,21.64c.63.23,1.3.36,2,.36s1.37-.13,2-.36v.36c0,1.1-.9,2-2,2s-2-.9-2-2v-.36Zm-5-13.64c0-1.1.9-2,2-2,.36,0,.7-.22.88-.53.04-.06.88-1.47,4.12-1.47s4.08,1.41,4.11,1.45c.17.34.52.55.89.55,1.1,0,2,.9,2,2v1c0,1.12-.08,1.97-.2,2.61-.27-.2-.57-.37-.9-.47-.23-1.15-1-3.22-3.58-4.09-.42-.14-.9.04-1.16.4-.04.06-.39.54-1.16.54s-1.12-.49-1.15-.53c-.24-.39-.73-.57-1.17-.42-2.59.86-3.36,2.94-3.58,4.09-.33.1-.63.27-.9.47-.11-.64-.2-1.48-.2-2.61v-1Zm1.82,6.98c-.44-.08-.76-.46-.8-.89,0-.05,0-.1,0-.16.03-.45.37-.84.82-.92.63-.11,1.11-.62,1.19-1.26.09-.7.45-1.89,1.72-2.56.51.42,1.27.81,2.25.81s1.75-.39,2.25-.81c1.27.67,1.63,1.86,1.72,2.56.09.65.57,1.15,1.19,1.26.47.08.83.51.83.99s-.35.9-.82.98c-.64.12-1.13.68-1.19,1.36-.17,2.05-1.92,3.66-3.99,3.66s-3.81-1.61-3.99-3.66c-.06-.68-.55-1.24-1.19-1.36Zm-3.82,15.02v-1c0-3.02,2.25-5.52,5.16-5.93.47,1.69,2,2.93,3.84,2.93s3.37-1.25,3.84-2.94c2.01.28,3.72,1.55,4.58,3.4-.27.8-.42,1.65-.42,2.54v1H2Zm56,0h-17v-1c0-.89-.15-1.74-.42-2.54.86-1.86,2.57-3.12,4.58-3.4.47,1.69,2,2.94,3.84,2.94s3.37-1.25,3.84-2.93c2.91.41,5.16,2.91,5.16,5.93v1Z"/><path d="m30,6c.55,0,1-.45,1-1s-.45-1-1-1c-2.76,0-5,2.24-5,5,0,.55.45,1,1,1s1-.45,1-1c0-1.65,1.35-3,3-3Z"/></svg>