<?xml version="1.0" encoding="UTF-8"?><svg id="Art" xmlns="http://www.w3.org/2000/svg" viewBox="0 0 60 60"><path d="m22.84,33.45c0,3.91,3.18,7.08,7.09,7.08s7.09-3.18,7.09-7.08-3.18-7.09-7.09-7.09-7.09,3.18-7.09,7.09Zm7.09-5.09c2.8,0,5.09,2.28,5.09,5.09s-2.28,5.08-5.09,5.08-5.09-2.28-5.09-5.08,2.28-5.09,5.09-5.09Z"/><path d="m31,23.59v-5.81c0-.55-.45-1-1-1s-1,.45-1,1v5.81c0,.55.45,1,1,1s1-.45,1-1Z"/><path d="m18.43,33.59c.26,0,.51-.1.71-.29.39-.39.39-1.02,0-1.41l-4.11-4.11c-.39-.39-1.02-.39-1.41,0-.39.39-.39,1.02,0,1.41l4.11,4.11c.2.2.45.29.71.29Z"/><path d="m44.97,27.77l-4.11,4.11c-.39.39-.39,1.02,0,1.41.2.2.45.29.71.29s.51-.1.71-.29l4.11-4.11c.39-.39.39-1.02,0-1.41s-1.02-.39-1.41,0Z"/><path d="m13.86,19.31c2.65,0,4.8-2.15,4.8-4.8s-2.15-4.8-4.8-4.8-4.8,2.15-4.8,4.8,2.15,4.8,4.8,4.8Zm0-7.6c1.54,0,2.8,1.26,2.8,2.8s-1.26,2.8-2.8,2.8-2.8-1.25-2.8-2.8,1.26-2.8,2.8-2.8Z"/><path d="m14.53,23.27l1.95-1.73c1.1.38,2.78,1.28,2.78,3.3,0,.55.45,1,1,1s1-.45,1-1c0-2.61-1.79-4.62-4.78-5.38-.32-.08-.66,0-.91.22l-1.7,1.51-1.7-1.51c-.25-.22-.59-.3-.91-.22-2.99.76-4.78,2.77-4.78,5.38,0,.55.45,1,1,1s1-.45,1-1c0-2.02,1.68-2.92,2.78-3.3l1.95,1.73c.38.33.95.34,1.33,0Z"/><path d="m30,9.6c2.65,0,4.8-2.15,4.8-4.8s-2.15-4.8-4.8-4.8-4.8,2.15-4.8,4.8,2.15,4.8,4.8,4.8Zm0-7.6c1.54,0,2.8,1.26,2.8,2.8s-1.26,2.8-2.8,2.8-2.8-1.25-2.8-2.8,1.26-2.8,2.8-2.8Z"/><path d="m23.61,16.13c.55,0,1-.45,1-1,0-2.02,1.68-2.92,2.78-3.3l1.95,1.73c.38.34.95.33,1.33,0l1.95-1.73c1.1.38,2.78,1.28,2.78,3.3,0,.55.45,1,1,1s1-.45,1-1c0-2.61-1.79-4.62-4.78-5.38-.32-.08-.66,0-.91.22l-1.7,1.51-1.7-1.51c-.25-.22-.59-.3-.91-.22-2.99.76-4.78,2.77-4.78,5.38,0,.55.45,1,1,1Z"/><path d="m46.13,19.31c2.65,0,4.8-2.15,4.8-4.8s-2.15-4.8-4.8-4.8-4.8,2.15-4.8,4.8,2.15,4.8,4.8,4.8Zm0-7.6c1.54,0,2.8,1.26,2.8,2.8s-1.26,2.8-2.8,2.8-2.8-1.25-2.8-2.8,1.26-2.8,2.8-2.8Z"/><path d="m48.75,19.46c-.32-.08-.66,0-.91.22l-1.7,1.51-1.7-1.51c-.25-.22-.59-.3-.91-.22-2.99.76-4.78,2.77-4.78,5.38,0,.55.45,1,1,1s1-.45,1-1c0-2.02,1.68-2.92,2.78-3.3l1.95,1.73c.38.33.95.33,1.33,0l1.95-1.73c1.1.38,2.78,1.28,2.78,3.3,0,.55.45,1,1,1s1-.45,1-1c0-2.61-1.79-4.62-4.78-5.38Z"/><path d="m43.39,51.94h-4.77v-3.33c0-.81-.66-1.47-1.47-1.47h-14.47c-.81,0-1.47.66-1.47,1.47v3.33h-4.77c-.55,0-1,.45-1,1s.45,1,1,1h4.77v2.47c-.27-.05-.56,0-.79.19-.43.34-.51.97-.17,1.4l1.08,1.37c.42.65,1.04.63,1.35.62h14.54s.09,0,.15,0c.16,0,.38-.02.62-.12.01,0,.02-.01.04-.02.2-.09.41-.23.59-.48l1.06-1.39c.34-.44.25-1.07-.18-1.4-.27-.2-.59-.24-.89-.15v-2.5h4.77c.55,0,1-.45,1-1s-.45-1-1-1Zm-20.17-2.8h13.4v8.85h-13.4v-8.85Z"/><path d="m29.88,54.55h.24c.55,0,1-.45,1-1s-.45-1-1-1h-.24c-.55,0-1,.45-1,1s.45,1,1,1Z"/><path d="m40.32,51.71c.55,0,1-.45,1-1v-1.19c0-4.38-2.55-7.36-7.19-8.4-.28-.06-.58,0-.81.17l-3.4,2.5-3.4-2.5c-.23-.17-.53-.23-.81-.17-4.64,1.04-7.19,4.02-7.19,8.4v1.22c0,.55.45,1,1,1s1-.45,1-1v-1.22c0-3.3,1.75-5.43,5.19-6.34l3.62,2.66c.35.26.83.26,1.18,0l3.62-2.66c3.45.91,5.19,3.04,5.19,6.34v1.19c0,.55.45,1,1,1Z"/></svg>