<?xml version="1.0" encoding="UTF-8"?><svg id="Art" xmlns="http://www.w3.org/2000/svg" viewBox="0 0 60 60"><path d="m31,5h-7C10.77,5,0,15.77,0,29c0,1.88.73,3.64,2.05,4.94,1.31,1.33,3.07,2.06,4.95,2.06h5.22c.92,4.05,4.55,7,8.78,7,1.46,0,2.92-.36,4.21-1.05.91-.48,1.95-.78,3.1-.9l4.19,11.72c.48,1.33,1.75,2.22,3.15,2.22,1.85,0,3.35-1.5,3.35-3.35v-3.39c1.21.47,2.56.74,4,.74,4.96,0,9-3.14,9-7v-1h1c3.86,0,7-3.14,7-7,0-15.99-13.01-29-29-29Zm6,46.65c0,.74-.61,1.35-1.35,1.35-.57,0-1.07-.35-1.27-.9l-3.97-11.1h3.58v1c0,2.07,1.16,3.92,3,5.2v4.45Zm13-9.65c0,2.76-3.14,5-7,5s-7-2.24-7-5v-1h2c0,1.63,1.95,4,5,4s5-2.37,5-4h2v1Zm-4-1c0,.5-1.06,2-3,2s-3-1.5-3-2h6Zm7-2h-23.57c-1.94,0-3.68.4-5.16,1.19-1.02.54-2.12.81-3.27.81-3.52,0-6.51-2.63-6.95-6.13,0,0,0,0,0,0h0c-.07-.53-.07-1.1,0-1.69.36-3.17,2.91-5.75,6.07-6.13,1.04-.13,2.05-.04,3.02.27,1.69.54,3.62.04,4.91-1.27,1.32-1.33,3.08-2.06,4.96-2.06,2,0,3.92.87,5.25,2.37.37.41,1,.45,1.41.09.41-.37.45-1,.09-1.41-1.71-1.94-4.17-3.05-6.75-3.05-2.42,0-4.68.94-6.38,2.65-.77.78-1.9,1.08-2.89.77-1.24-.4-2.54-.52-3.87-.35-4.06.5-7.35,3.81-7.81,7.9-.04.35-.05.7-.05,1.04h-5c-1.34,0-2.59-.52-3.54-1.47-.94-.94-1.46-2.19-1.46-3.53C2,16.87,11.87,7,24,7h7c14.89,0,27,12.11,27,27,0,2.76-2.24,5-5,5Z"/><path d="m50,24c-.68,0-1.3.18-1.86.48l-5.79-6.31c.41-.63.65-1.37.65-2.18,0-2.21-1.79-4-4-4-1.86,0-3.41,1.28-3.86,3h-3.28c-.45-1.72-2-3-3.86-3s-3.41,1.28-3.86,3h-4.28c-.45-1.72-2-3-3.86-3-2.21,0-4,1.79-4,4,0,.92.32,1.75.85,2.43l-2.26,2.9c-.49-.21-1.02-.33-1.58-.33-2.21,0-4,1.79-4,4s1.79,4,4,4,4-1.79,4-4c0-.92-.32-1.75-.85-2.43l2.26-2.9c.49.21,1.02.33,1.58.33,1.86,0,3.41-1.28,3.86-3h4.28c.45,1.72,2,3,3.86,3s3.41-1.28,3.86-3h3.28c.45,1.72,2,3,3.86,3,.68,0,1.3-.18,1.86-.48l5.79,6.31c-.41.63-.65,1.37-.65,2.18,0,.19.03.37.06.56l-4.88,2.04c-.73-.96-1.88-1.6-3.18-1.6-1.96,0-3.58,1.42-3.93,3.28l-6.3.46c-.53-1.58-2.01-2.73-3.77-2.73-2.21,0-4,1.79-4,4s1.79,4,4,4c1.96,0,3.58-1.42,3.93-3.28l6.3-.46c.53,1.58,2.01,2.73,3.77,2.73,2.21,0,4-1.79,4-4,0-.19-.03-.37-.06-.56l4.88-2.04c.73.96,1.88,1.6,3.18,1.6,2.21,0,4-1.79,4-4s-1.79-4-4-4Zm-26,12c-1.1,0-2-.9-2-2s.9-2,2-2,2,.9,2,2-.9,2-2,2Zm14-1c-1.1,0-2-.9-2-2s.9-2,2-2,2,.9,2,2-.9,2-2,2Zm-29-8c-1.1,0-2-.9-2-2s.9-2,2-2,2,.9,2,2-.9,2-2,2Zm7-9c-1.1,0-2-.9-2-2s.9-2,2-2,2,.9,2,2-.9,2-2,2Zm12,0c-1.1,0-2-.9-2-2s.9-2,2-2,2,.9,2,2-.9,2-2,2Zm9-2c0-1.1.9-2,2-2s2,.9,2,2-.9,2-2,2-2-.9-2-2Zm13,14c-1.1,0-2-.9-2-2s.9-2,2-2,2,.9,2,2-.9,2-2,2Z"/></svg>