<?xml version="1.0" encoding="UTF-8"?><svg id="Art" xmlns="http://www.w3.org/2000/svg" viewBox="0 0 60 60"><path d="m26.89,28.07h30.02c1.65,0,2.99-1.34,2.99-2.99V3.07c0-1.65-1.34-2.99-2.99-2.99h-30.02c-1.65,0-2.99,1.34-2.99,2.99v11h-6.11c1.3-1.27,2.11-3.04,2.11-5,0-3.86-3.14-7-7-7s-7,3.14-7,7c0,1.98.83,3.77,2.16,5.04C3.49,14.53-.1,18.38-.1,23.06v12.97c0,1.67,1.36,3.03,3.03,3.03h.97c.35,0,.69-.07,1-.18v16.68c0,2.48,2.02,4.5,4.5,4.5,1.33,0,2.54-.58,3.36-1.51.73.92,1.85,1.51,3.12,1.51h43.02c.55,0,1-.45,1-1v-6c0-4.68-3.59-8.53-8.16-8.95,1.33-1.27,2.16-3.06,2.16-5.04,0-3.86-3.14-7-7-7s-7,3.14-7,7c0,1.99.84,3.78,2.17,5.05-1.1.1-2.17.41-3.16.9-.97-.48-2.04-.8-3.16-.91,1.33-1.27,2.16-3.06,2.16-5.04,0-3.86-3.14-7-7-7s-7,3.14-7,7c0,1.98.83,3.77,2.16,5.04-1.53.14-2.95.67-4.16,1.48v-24.52h2v4.01c0,1.65,1.34,2.99,2.99,2.99Zm-.99-25c0-.54.44-.99.99-.99h30.02c.54,0,.99.44.99.99v22.01c0,.54-.44.99-.99.99h-30.02c-.54,0-.99-.44-.99-.99v-4.01h10.5c1.93,0,3.5-1.57,3.5-3.5s-1.57-3.5-3.5-3.5h-10.5V3.07ZM7.9,9.07c0-2.76,2.24-5,5-5s5,2.24,5,5-2.24,5-5,5-5-2.24-5-5Zm34,30c0-2.76,2.24-5,5-5s5,2.24,5,5-2.24,5-5,5-5-2.24-5-5Zm.99,7h8.01c3.86,0,6.99,3.14,6.99,6.99v5h-3.95v-4c0-.55-.45-1-1-1s-1,.45-1,1v4h-8.05v-5c0-2.66-1.17-5.04-3.01-6.69.65-.19,1.32-.3,2-.3Zm-16.99-7c0-2.76,2.24-5,5-5s5,2.24,5,5-2.24,5-5,5-5-2.24-5-5Zm.99,7h8.01c3.86,0,6.99,3.14,6.99,6.99v5h-3.92v-4c0-.55-.45-1-1-1s-1,.45-1,1v4h-12.03v-4c0-.55-.45-1-1-1s-1,.45-1,1v4h-2.05v-5c0-3.86,3.14-6.99,6.99-6.99Zm-5.99-27c-.55,0-1,.45-1,1v27c0,.1.03.19.06.28-1.28,1.56-2.06,3.55-2.06,5.72v5h-2.02c-1.09,0-1.98-.89-1.98-1.98v-15.02c0-.55-.45-1-1-1s-1,.45-1,1v14.5c0,1.38-1.12,2.5-2.5,2.5s-2.5-1.12-2.5-2.5v-31.5c0-.55-.45-1-1-1s-1,.45-1,1v12c0,.55-.45,1-1,1h-.97c-.57,0-1.03-.46-1.03-1.03v-12.97c0-3.86,3.14-6.99,6.99-6.99h27.51c.83,0,1.5.67,1.5,1.5s-.67,1.5-1.5,1.5h-15.5Z"/></svg>