<?xml version="1.0" encoding="UTF-8"?><svg id="Art" xmlns="http://www.w3.org/2000/svg" viewBox="0 0 60 60"><path d="m59.7,32.83c-.81-1.95-3.06-2.87-5.03-2.05l-12.53,5.55c0-.05.02-.1.02-.15,0-1.96-1.57-3.54-3.51-3.6,0,0-.01,0-.02,0h-.02s-.04,0-.06,0c-.01,0-.02,0-.03,0h-8.88l-6.78-3.17c-1.46-.68-3.07-1.04-4.68-1.04h-4.97v-1.4c0-.55-.45-1-1-1H3.18c-.55,0-1,.45-1,1s.45,1,1,1h8.03v18.02H1c-.55,0-1,.45-1,1s.45,1,1,1h11.21c.55,0,1-.45,1-1v-1.4h3.64l12.46,4.15c.87.29,1.77.43,2.67.43,1.35,0,2.69-.32,3.91-.95l21.75-11.38c1.95-.81,2.88-3.06,2.06-5.01Zm-2.91,3.2l-21.83,11.42c-1.54.8-3.37.94-5.02.39l-12.62-4.21c-.1-.03-.21-.05-.32-.05h-3.8v-13.21h4.97c1.31,0,2.64.29,3.83.85l6.98,3.26c.13.06.28.09.42.09h9.19c.86.03,1.55.73,1.55,1.6s-.72,1.6-1.6,1.6h-10.93c-.06,0-.12,0-.17.02-1.08.19-3.13,1.13-3.13,3.29,0,.55.45,1,1,1s1-.45,1-1c0-.91,1.11-1.23,1.41-1.31h10.9s.05-.01.08-.02c.54-.02,1.05-.17,1.51-.41.02,0,.03,0,.05-.01l15.2-6.73c.93-.39,2.01.05,2.4.99.39.93-.05,2.01-1.07,2.43Z"/><path d="m22.11,21.52c2.86,0,5.34-1.67,6.51-4.09h8.97v3.73c0,.55.45,1,1,1h4.73c.55,0,1-.45,1-1v-3.73h.67v6.01c0,.55.45,1,1,1h4.73c.55,0,1-.45,1-1v-11.34c0-.55-.45-1-1-1h-22.11c-1.18-2.42-3.65-4.09-6.51-4.09-4,0-7.25,3.25-7.25,7.25s3.25,7.25,7.25,7.25Zm20.22-1.35h-2.73v-2.73h2.73v2.73Zm7.41,2.28h-2.73v-5.01h2.73v5.01Zm0-9.34v2.33h-20.48c.06-.38.1-.77.1-1.16s-.04-.78-.1-1.16h20.48Zm-27.63-4.09c2.9,0,5.25,2.36,5.25,5.25s-2.36,5.25-5.25,5.25-5.25-2.36-5.25-5.25,2.36-5.25,5.25-5.25Z"/><path d="m22.11,18.29c2.21,0,4.02-1.8,4.02-4.02s-1.8-4.02-4.02-4.02-4.02,1.8-4.02,4.02,1.8,4.02,4.02,4.02Zm0-6.03c1.11,0,2.02.9,2.02,2.02s-.9,2.02-2.02,2.02-2.02-.9-2.02-2.02.9-2.02,2.02-2.02Z"/></svg>