<?xml version="1.0" encoding="UTF-8"?><svg id="Art" xmlns="http://www.w3.org/2000/svg" viewBox="0 0 60 60"><path d="m4.21,42.87h51.58c.55,0,1-.45,1-1V12.63c0-1.55-1.26-2.81-2.81-2.81H6.02c-1.55,0-2.81,1.26-2.81,2.81v29.24c0,.55.45,1,1,1Zm46.96-2h-8.64c-.16-3.02-.46-5.86-.5-6.29-.01-.99-.31-2-.89-3-.6-1.06-1.59-1.88-2.79-2.31l-3.52-1.26c-.46-.17-.98.03-1.22.47l-3.23,6.01h-.74l-3.23-6.01c-.23-.44-.75-.64-1.22-.47l-3.53,1.26c-1.19.43-2.18,1.25-2.78,2.31-.58,1.01-.88,2.02-.89,3.01-.05.42-.35,3.27-.5,6.29h-8.64V15.45h42.33v25.42Zm-12.91,0l-.23-3.62c-.03-.55-.5-.95-1.06-.94-.55.04-.97.51-.94,1.06l.22,3.5h-12.5l.22-3.5c.03-.55-.38-1.03-.94-1.06-.55-.01-1.03.38-1.06.94l-.23,3.62h-2.27c.17-3.15.49-6.09.49-6.12,0-.04,0-.07,0-.11,0-.81.34-1.57.63-2.07.37-.65.98-1.15,1.72-1.42l2.71-.97,3.11,5.78c.17.32.51.53.88.53h1.94c.37,0,.71-.2.88-.53l3.11-5.78,2.71.97c.75.27,1.36.77,1.73,1.43.29.49.62,1.25.62,2.06,0,.04,0,.07,0,.11,0,.03.33,2.97.49,6.12h-2.27ZM5.21,12.63c0-.45.36-.81.81-.81h47.96c.45,0,.81.36.81.81v28.24h-1.62V14.45c0-.55-.45-1-1-1H7.83c-.55,0-1,.45-1,1v26.42h-1.62V12.63Z"/><path d="m59,43.81H1c-.55,0-1,.45-1,1v1.33c0,.21.07.41.19.58l2.17,3.04c.19.26.49.42.81.42h53.66c.32,0,.63-.16.81-.42l2.17-3.04c.12-.17.19-.37.19-.58v-1.33c0-.55-.45-1-1-1Zm-2.69,4.37H3.69l-1.69-2.36h56s-1.69,2.36-1.69,2.36Z"/><path d="m29.83,29.12c3.2,0,5.8-2.6,5.8-5.8s-2.6-5.8-5.8-5.8-5.8,2.6-5.8,5.8,2.6,5.8,5.8,5.8Zm0-9.61c2.1,0,3.8,1.71,3.8,3.8s-1.71,3.8-3.8,3.8-3.8-1.71-3.8-3.8,1.71-3.8,3.8-3.8Z"/><path d="m38.77,24.66c-.39.39-.39,1.02,0,1.41.2.2.45.29.71.29s.51-.1.71-.29c2.42-2.42,2.42-6.37,0-8.79-.39-.39-1.02-.39-1.41,0s-.39,1.02,0,1.41c1.64,1.64,1.64,4.32,0,5.96Z"/><path d="m36.85,24.15c.2.2.45.29.71.29s.51-.1.71-.29c.66-.66,1.03-1.54,1.03-2.47s-.36-1.81-1.02-2.47c-.39-.39-1.02-.39-1.41,0s-.39,1.02,0,1.41c.28.28.44.66.44,1.06s-.16.78-.44,1.06c-.39.39-.39,1.02,0,1.41Z"/></svg>