<?xml version="1.0" encoding="UTF-8"?><svg id="Art" xmlns="http://www.w3.org/2000/svg" viewBox="0 0 60.25 60"><defs><style>.cls-1{fill:#231f20;}</style></defs><path class="cls-1" d="m21.47,18.83h19.56c.61,0,1.11-.5,1.11-1.11s-.5-1.11-1.11-1.11h-19.56c-.61,0-1.11.5-1.11,1.11s.5,1.11,1.11,1.11Z"/><path class="cls-1" d="m11.25,18.83c.29,0,.58-.12.78-.33.21-.21.33-.49.33-.78s-.12-.58-.33-.79c-.21-.21-.49-.32-.78-.32s-.58.12-.79.32c-.21.21-.32.49-.32.79s.12.58.32.78c.21.21.49.33.79.33Z"/><path class="cls-1" d="m7.79,18.83c.29,0,.58-.12.78-.33.21-.21.33-.49.33-.78s-.12-.58-.33-.79c-.21-.21-.49-.32-.78-.32s-.58.12-.78.32c-.21.21-.33.49-.33.79s.12.58.33.78c.21.21.49.33.78.33Z"/><path class="cls-1" d="m14.71,18.83c.29,0,.58-.12.79-.33.21-.21.32-.49.32-.78s-.12-.58-.32-.78c-.21-.21-.49-.33-.79-.33s-.58.12-.78.33c-.21.21-.33.49-.33.78s.12.58.33.78c.21.21.49.33.78.33Z"/><path class="cls-1" d="m55.7,4.62H17.09c-1.71,0-3.11,1.39-3.11,3.11v4.89H5.11c-1.71,0-3.11,1.39-3.11,3.11v31.51c0,1.71,1.39,3.11,3.11,3.11h33.86c.29,0,.58-.12.78-.33l6.75-6.75c.2-.2.32-.47.32-.75h8.66c1.84,0,3.33-1.49,3.33-3.33V7.73c0-1.71-1.39-3.11-3.11-3.11Zm-39.5,3.11c0-.49.4-.89.89-.89h38.61c.49,0,.89.4.89.89v4.88H16.2s0-4.88,0-4.88Zm-11.1,7.11h38.61c.49,0,.89.4.89.89v4.88H4.22v-4.88c0-.49.4-.89.89-.89Zm34.97,31.72v-2.07c0-.49.4-.89.89-.89h2.07l-2.96,2.96Zm15.4-6.26h-8.65v-5.99c0-.61-.5-1.11-1.11-1.11s-1.11.5-1.11,1.11v7.07h-3.64c-1.71,0-3.11,1.39-3.11,3.11v3.64H5.11c-.49,0-.89-.4-.89-.89v-24.41h40.39v2.77c0,.61.5,1.11,1.11,1.11s1.11-.5,1.11-1.11v-9.87c0-.31-.05-.61-.13-.9h9.9v24.36c0,.61-.5,1.11-1.11,1.11Z"/><path class="cls-1" d="m53.02,10.83c.61,0,1.11-.5,1.11-1.11s-.5-1.11-1.11-1.11h-19.57c-.61,0-1.11.5-1.11,1.11s.5,1.11,1.11,1.11h19.57Z"/><path class="cls-1" d="m23.23,8.62c-.29,0-.58.12-.78.33-.21.21-.33.49-.33.78s.12.58.33.79c.21.21.49.32.78.32s.58-.12.78-.32c.21-.21.33-.49.33-.79s-.12-.58-.33-.78c-.21-.21-.49-.33-.78-.33Z"/><path class="cls-1" d="m19.77,8.62c-.29,0-.58.12-.78.32-.21.21-.33.49-.33.79s.12.58.33.78c.21.21.49.33.78.33s.58-.12.78-.33c.21-.21.33-.49.33-.78s-.12-.58-.33-.79c-.21-.21-.49-.32-.78-.32Z"/><path class="cls-1" d="m26.7,8.62c-.29,0-.58.12-.78.32-.21.21-.33.49-.33.79s.12.58.33.78c.21.21.49.32.78.32s.58-.12.78-.32c.21-.21.32-.49.32-.78s-.12-.58-.32-.79c-.21-.21-.49-.32-.78-.32Z"/><path class="cls-1" d="m30.07,26.91c-.32-.32-.79-.41-1.21-.24-.42.17-.69.58-.69,1.02v2.18h-13.64c-.61,0-1.11.5-1.11,1.11v6.77c0,.61.5,1.11,1.11,1.11h13.64v2.18c0,.45.27.85.69,1.03.14.06.28.08.42.08.29,0,.57-.11.79-.33l6.66-6.68c.43-.43.43-1.13,0-1.57l-6.66-6.68Zm.32,11.46v-.61c0-.61-.5-1.11-1.11-1.11h-13.64v-4.55h13.64c.61,0,1.11-.5,1.11-1.11v-.61l3.98,3.99-3.98,3.99Z"/><path class="cls-1" d="m45.72,28.92c-.29,0-.58.12-.78.33-.21.21-.33.49-.33.78s.12.58.33.78c.21.21.49.33.78.33s.58-.12.78-.33c.21-.21.33-.49.33-.78s-.12-.58-.33-.78c-.21-.21-.49-.33-.78-.33Z"/></svg>