<?xml version="1.0" encoding="UTF-8"?><svg id="Art" xmlns="http://www.w3.org/2000/svg" viewBox="0 0 60 60"><path d="m52.71,46.36l-4.89,4.89-1.16-1.16c-.39-.39-1.02-.39-1.41,0s-.39,1.02,0,1.41l1.87,1.87c.2.2.45.29.71.29s.51-.1.71-.29l5.6-5.6c.39-.39.39-1.02,0-1.41s-1.02-.39-1.41,0Z"/><path d="m34.42,46.12c-.39-.39-1.02-.39-1.41,0s-.39,1.02,0,1.41l.53.53H4.95v-5.8l1.91-1.91c.39-.39.39-1.02,0-1.41s-1.02-.39-1.41,0l-.5.5v-8.37h20.77s1.91,1.91,1.91,1.91c.2.2.45.29.71.29s.51-.1.71-.29c.39-.39.39-1.02,0-1.41l-.5-.5h26.4c.55,0,1-.45,1-1v-7.55l1.95-1.95c.39-.39.39-1.02,0-1.41s-1.02-.39-1.41,0l-.54.54v-9.62c0-.55-.45-1-1-1h-19.98l-1.91-1.91c-.39-.39-1.02-.39-1.41,0s-.39,1.02,0,1.41l.5.5h-11.31C20.09,3.99,15.73.07,10.45.07,4.66.07-.05,4.78-.05,10.57s4.71,10.5,10.5,10.5,10.21-4.44,10.47-10h11.28l-.5.5c-.39.39-.39,1.02,0,1.41.2.2.45.29.71.29s.51-.1.71-.29l1.91-1.91h18.92v8.61l-.46-.46c-.39-.39-1.02-.39-1.41,0s-.39,1.02,0,1.41l1.88,1.88v6.56l-25.48.02.52-.52c.39-.39.39-1.02,0-1.41s-1.02-.39-1.41,0l-1.94,1.94h-10.27s-11.42-.02-11.42-.02h0c-.26,0-.52.1-.71.29-.19.19-.29.44-.29.71v9.43l-.5-.5c-.39-.39-1.02-.39-1.41,0s-.39,1.02,0,1.41l1.91,1.91v6.74c0,.55.45,1,1,1h29.59l-.47.47c-.39.39-.39,1.02,0,1.41.2.2.45.29.71.29s.51-.1.71-.29l2.18-2.18c.39-.39.39-1.02,0-1.41l-2.24-2.24ZM5.79,17.67c.21-1.3,1.33-2.3,2.69-2.3h3.74c1.4,0,2.54,1.06,2.7,2.42-1.3.81-2.83,1.28-4.47,1.28s-3.32-.52-4.66-1.4Zm4.57-4.31c-1.98,0-3.59-1.64-3.59-3.65s1.61-3.65,3.59-3.65,3.59,1.64,3.59,3.65-1.61,3.65-3.59,3.65Zm6.26,3.04c-.45-1.15-1.32-2.07-2.43-2.58,1.08-1.03,1.76-2.48,1.76-4.1,0-3.11-2.51-5.65-5.59-5.65s-5.59,2.53-5.59,5.65c0,1.61.68,3.06,1.75,4.09-1.06.49-1.92,1.35-2.38,2.43-1.35-1.51-2.18-3.49-2.18-5.67C1.95,5.88,5.76,2.07,10.45,2.07s8.5,3.81,8.5,8.5c0,2.26-.89,4.31-2.33,5.83Z"/><path d="m49.45,39.07c-5.79,0-10.5,4.71-10.5,10.5s4.71,10.5,10.5,10.5,10.5-4.71,10.5-10.5-4.71-10.5-10.5-10.5Zm0,19c-4.69,0-8.5-3.81-8.5-8.5s3.81-8.5,8.5-8.5,8.5,3.81,8.5,8.5-3.81,8.5-8.5,8.5Z"/></svg>