<?xml version="1.0" encoding="UTF-8"?><svg id="Art" xmlns="http://www.w3.org/2000/svg" viewBox="0 0 60 60"><path d="m54.93.07H4.89C2.14.07-.09,2.3-.09,5.05v37.04c0,2.75,2.23,4.98,4.98,4.98h13.81l-1.56,7h-4.2c-1.65,0-3,1.34-3,3s1.34,3,3,3h34.01c1.65,0,3-1.34,3-3s-1.34-3-3-3h-4.2l-1.56-7h13.73c2.75,0,4.98-2.23,4.98-4.98V5.05c0-2.75-2.23-4.98-4.98-4.98Zm-6.98,57c0,.55-.45,1-1,1H12.94c-.55,0-1-.45-1-1s.45-1,1-1h34.01c.55,0,1,.45,1,1Zm-7.25-3h-21.51l1.56-7h18.4l1.56,7Zm17.21-11.99c0,1.64-1.34,2.98-2.98,2.98H4.89c-1.64,0-2.98-1.34-2.98-2.98V5.05c0-1.64,1.34-2.98,2.98-2.98h50.04c1.64,0,2.98,1.34,2.98,2.98v37.04Z"/><path d="m53.95,5.07H5.95c-.55,0-1,.45-1,1v35c0,.55.45,1,1,1h6.94s.03,0,.04,0h10.01s.03,0,.04,0h13.87s.06.02.09.02h10.01s.06-.02.09-.02h6.9c.55,0,1-.45,1-1V6.07c0-.55-.45-1-1-1Zm-1,18h-5s0,0,0,0c0-2.17-1.16-4.07-2.89-5.12,1.16-.91,1.92-2.31,1.92-3.9,0-2.75-2.24-4.98-4.98-4.98s-4.98,2.24-4.98,4.98c0,1.57.74,2.95,1.88,3.86-1.76,1.05-2.95,2.97-2.95,5.16h-4.84V7.07h21.85v16Zm-10.95-6.04c-1.65,0-2.98-1.34-2.98-2.99s1.34-2.98,2.98-2.98,2.98,1.34,2.98,2.98-1.34,2.99-2.98,2.99Zm-.06,2.03c1.86,0,3.43,1.28,3.88,3.01h-7.76c.45-1.73,2.01-3,3.88-3.01Zm-12.84-11.99v16h-5.15c0-2.16-1.16-4.06-2.89-5.11,1.16-.91,1.92-2.31,1.92-3.9,0-2.75-2.24-4.98-4.98-4.98s-4.98,2.24-4.98,4.98c0,1.57.74,2.95,1.88,3.86-1.76,1.05-2.95,2.96-2.95,5.15h-4.99V7.07h22.15Zm-11.1,9.97c-1.65,0-2.98-1.34-2.98-2.99s1.34-2.98,2.98-2.98,2.98,1.34,2.98,2.98-1.34,2.99-2.98,2.99Zm-.06,2.03c1.86,0,3.43,1.28,3.88,3h-7.76c.44-1.73,2.01-3,3.88-3Zm-11,6h22.15v15h-5.25c-.3-1.74-1.34-3.22-2.79-4.11,1.16-.91,1.92-2.31,1.92-3.9,0-2.75-2.24-4.98-4.98-4.98s-4.98,2.24-4.98,4.98c0,1.57.74,2.95,1.88,3.86-1.49.88-2.56,2.39-2.86,4.15h-5.07v-15Zm7.11,15c.45-1.72,2.01-3,3.87-3,1.86,0,3.43,1.28,3.88,3h-7.75Zm3.93-5.03c-1.65,0-2.98-1.34-2.98-2.99s1.34-2.98,2.98-2.98,2.98,1.34,2.98,2.98-1.34,2.99-2.98,2.99Zm24.02,0c-1.65,0-2.98-1.34-2.98-2.98s1.34-2.99,2.98-2.99,2.98,1.34,2.98,2.99-1.34,2.98-2.98,2.98Zm-.05,2.04c1.86,0,3.42,1.27,3.87,2.99h-7.74c.45-1.72,2.02-2.99,3.87-2.99Zm5.91,2.99c-.3-1.74-1.34-3.22-2.79-4.1,1.16-.91,1.92-2.31,1.92-3.9,0-2.75-2.24-4.99-4.98-4.99s-4.98,2.24-4.98,4.99c0,1.57.74,2.95,1.88,3.86-1.48.88-2.55,2.38-2.86,4.14h-4.94v-15h21.85v15h-5.08Z"/></svg>