<?xml version="1.0" encoding="UTF-8"?><svg id="Art" xmlns="http://www.w3.org/2000/svg" viewBox="0 0 60 60"><path d="m39.25,19.98c.73.3,1.48.44,2.23.44,2.31,0,4.5-1.37,5.44-3.63.6-1.45.59-3.05,0-4.49s-1.73-2.57-3.18-3.17c-1.45-.6-3.05-.59-4.49,0-1.45.6-2.57,1.73-3.17,3.18-1.23,2.99.2,6.43,3.19,7.66Zm-1.34-6.9c.39-.96,1.14-1.7,2.09-2.1.95-.4,2.01-.4,2.96,0,.96.39,1.7,1.14,2.1,2.09.4.96.4,2.01,0,2.96-.81,1.97-3.08,2.92-5.05,2.1-1.97-.81-2.92-3.08-2.1-5.05Z"/><path d="m4.21,50.83h51.58c.55,0,1-.45,1-1v-31.86c0-.55-.45-1-1-1h-2.47c-.09-.16-.21-.31-.38-.4l-2.02-1.13c.06-.59.06-1.19,0-1.79l2.02-1.14c.44-.25.63-.79.43-1.26l-1.17-2.8c-.19-.47-.71-.71-1.19-.58l-2.23.63c-.38-.46-.8-.88-1.26-1.26l.62-2.23c.13-.49-.12-1-.58-1.19l-2.8-1.15c-.47-.19-1.01,0-1.25.44l-1.14,2.02c-.59-.06-1.19-.06-1.78,0l-1.14-2.02c-.25-.44-.79-.63-1.25-.43l-2.8,1.17c-.47.19-.72.71-.58,1.19l.63,2.23c-.46.38-.89.8-1.26,1.26l-2.23-.62c-.49-.14-1,.11-1.19.58l-1.15,2.8c-.19.47,0,1,.44,1.25l2.02,1.13c-.06.59-.06,1.19,0,1.79l-2.02,1.14c-.15.09-.26.22-.35.36H4.21c-.55,0-1,.45-1,1v31.86c0,.55.45,1,1,1Zm1-2v-24.56h29.62c-.04.43.18.85.6,1.03l2.8,1.15c.12.05.25.08.38.08.35,0,.69-.19.87-.51l1.13-2.02c.6.06,1.19.05,1.78,0l1.14,2.01c.25.44.79.62,1.25.43l2.8-1.16c.41-.17.63-.58.6-1.01h6.6v24.56H5.21Zm49.58-26.56h-7.13l-.12-.42c.46-.38.89-.8,1.26-1.27l2.23.62c.49.13,1-.12,1.19-.58l.68-1.65h1.89v3.3Zm-21.16-5.39c.37-.21.57-.63.49-1.05-.15-.84-.15-1.68,0-2.51.07-.42-.12-.84-.5-1.05l-1.84-1.03.48-1.16,2.03.57c.41.12.85-.04,1.09-.39.48-.69,1.08-1.29,1.78-1.78.35-.24.5-.68.39-1.09l-.57-2.03,1.16-.49,1.04,1.84c.21.37.63.57,1.04.49.84-.15,1.68-.15,2.51,0,.42.07.84-.12,1.04-.5l1.03-1.84,1.16.48-.56,2.03c-.11.41.04.84.39,1.09.7.49,1.29,1.08,1.77,1.77.24.35.68.51,1.09.39l2.03-.57.48,1.16-1.84,1.04c-.37.21-.57.63-.49,1.05.15.84.15,1.68,0,2.51-.07.42.13.84.5,1.05l1.63.91c-.02.07-.04.13-.04.21,0,.12.03.24.07.35l-.3.72-2.03-.56c-.41-.12-.85.04-1.09.39-.48.69-1.08,1.29-1.78,1.78-.35.24-.5.68-.39,1.09l.57,2.03-1.16.48-1.04-1.84c-.21-.37-.64-.57-1.05-.49-.82.15-1.67.16-2.5,0-.42-.07-.84.13-1.04.5l-1.03,1.84-1.16-.48.56-2.04c.11-.41-.04-.85-.39-1.09-.7-.49-1.3-1.08-1.77-1.76-.24-.35-.68-.51-1.09-.39l-2.03.57-.49-1.16,1.83-1.04Zm-1.66,4.36l2.23-.63c.38.46.8.88,1.26,1.25l-.11.4H5.21v-3.3h24.86l.71,1.7c.19.47.71.71,1.19.58Z"/><path d="m59,51.77H1c-.55,0-1,.45-1,1v1.33c0,.25.1.5.27.68l2.17,2.31c.19.2.45.32.73.32h53.66c.28,0,.54-.11.73-.32l2.17-2.31c.17-.19.27-.43.27-.68v-1.33c0-.55-.45-1-1-1Zm-2.6,3.64H3.6l-1.54-1.64h55.88l-1.54,1.64Z"/><path d="m48.35,39.63c.34,0,.65-.17.84-.45.18-.28.21-.64.08-.95-.89-2.01-2.88-3.31-5.07-3.31-1.83,0-3.53.9-4.56,2.39h-19.28c-1.03-1.49-2.73-2.39-4.56-2.39-2.2,0-4.19,1.3-5.07,3.31-.14.31-.11.67.08.95.18.28.5.45.84.45h2.02l.74.88-.75.89h-1.97c-.34,0-.66.17-.84.46-.18.29-.21.65-.06.96.91,1.93,2.87,3.17,5.01,3.17,1.83,0,3.53-.9,4.56-2.39h19.28c1.03,1.49,2.73,2.39,4.56,2.39,2.13,0,4.1-1.25,5.01-3.17.15-.31.12-.67-.06-.96-.18-.29-.5-.46-.84-.46h-1.97l-.75-.89.74-.88h2.02Zm-2.49-2c-.29,0-.57.13-.76.36l-1.59,1.88c-.31.37-.31.92,0,1.29l1.59,1.89c.19.23.47.36.77.36h.3c-.57.38-1.26.6-1.97.6-1.3,0-2.5-.71-3.12-1.87-.17-.32-.51-.53-.88-.53h-20.4c-.37,0-.71.2-.88.53-.62,1.15-1.82,1.87-3.12,1.87-.71,0-1.4-.22-1.97-.6h.3c.3,0,.58-.13.77-.36l1.59-1.89c.31-.37.31-.92,0-1.29l-1.59-1.88c-.19-.23-.47-.36-.76-.36h-.46c.6-.45,1.34-.71,2.13-.71,1.3,0,2.5.71,3.12,1.87.17.32.51.53.88.53h20.4c.37,0,.71-.2.88-.53.62-1.15,1.82-1.87,3.12-1.87.78,0,1.53.26,2.13.71h-.46Z"/></svg>